<?xml version="1.0" encoding="UTF-8" standalone="no"?>
<!-- Created with Inkscape (http://www.inkscape.org/) -->

<svg
   xmlns:dc="http://purl.org/dc/elements/1.1/"
   xmlns:cc="http://creativecommons.org/ns#"
   xmlns:rdf="http://www.w3.org/1999/02/22-rdf-syntax-ns#"
   xmlns:svg="http://www.w3.org/2000/svg"
   xmlns="http://www.w3.org/2000/svg"
   xmlns:sodipodi="http://sodipodi.sourceforge.net/DTD/sodipodi-0.dtd"
   xmlns:inkscape="http://www.inkscape.org/namespaces/inkscape"
   width="99mm"
   height="99mm"
   viewBox="0 0 99 99"
   version="1.1"
   id="svg1688"
   inkscape:version="0.91 r13725"
   sodipodi:docname="Robot_capas.svg">
  <sodipodi:namedview
     id="base"
     pagecolor="#ffffff"
     bordercolor="#666666"
     borderopacity="1.0"
     inkscape:pageopacity="0.0"
     inkscape:pageshadow="2"
     inkscape:zoom="0.9899495"
     inkscape:cx="135.46063"
     inkscape:cy="121.2375"
     inkscape:document-units="mm"
     inkscape:current-layer="layer21"
     showgrid="false"
     inkscape:window-width="1361"
     inkscape:window-height="975"
     inkscape:window-x="551"
     inkscape:window-y="48"
     inkscape:window-maximized="0" />
  <defs
     id="defs1682" />
  <metadata
     id="metadata1685">
    <rdf:RDF>
      <cc:Work
         rdf:about="">
        <dc:format>image/svg+xml</dc:format>
        <dc:type
           rdf:resource="http://purl.org/dc/dcmitype/StillImage" />
        <dc:title></dc:title>
      </cc:Work>
    </rdf:RDF>
  </metadata>
  <g
     inkscape:groupmode="layer"
     id="layer21"
     inkscape:label="SilkS">
    <path
       inkscape:export-ydpi="96"
       inkscape:export-xdpi="96"
       inkscape:connector-curvature="0"
       id="path2125"
       d="m 55.493583,3.551615 -2.952271,7.926971 3.235379,6.71359 -3.276069,-0.56621 -1.87027,1.27397 c -0.0736,-0.003 -0.39458,-0.0199 -0.39458,-0.0199 l -4.97426,0.323359 -6.18808,-6.673349 c 0,0 -0.61597,-0.0672 -1.543369,-0.0791 -2.040311,-0.0266 -5.587491,0.21334 -7.394821,2.020659 -2.62885,2.628831 -0.80862,10.47493 -0.80862,10.47493 l 3.79274,2.87219 a 7.5151831,7.6105434 0 0 0 -1.75924,4.941092 7.5151831,7.6105434 0 0 0 0.96079,3.656047 l -0.96654,6.860461 c 0,0 2.57444,5.09021 14.8144,9.265521 12.23981,4.175308 26.715475,0.47244 26.715475,0.47244 l 3.540597,-13.255551 7.420033,-0.940008 c 0,0 4.003819,-3.842162 2.952265,-9.059382 -1.051495,-5.21725 -5.22463,-6.1872 -5.22463,-6.1872 l -9.809178,0.94354 c 0,0 -0.228428,-0.54307 -0.914795,-1.08642 -0.606634,-0.48024 -4.495348,-1.74103 -5.433418,-2.04146 l -0.619289,-0.84975 -1.65838,-0.68743 4.529684,-3.23537 L 65.159442,5.614376 62.854341,10.629336 61.924072,6.180575 60.670441,9.1735455 60.144483,6.827756 58.809902,9.7397455 58.122491,6.665845 l -0.404309,0.6069 -0.0407,-1.45622 -0.889581,1.375281 z m 0.312309,2.9474 0.714841,2.2307905 0.543648,-0.5436701 0.486141,1.5447101 0.228699,-0.6007101 0.54321,1.8587606 0.34327,0.28621 1.05811,-2.4311707 0.8294,1.7158807 1.11517,-2.5448607 1.029809,4.1749307 2.173272,-4.804391 -0.77234,8.69399 -3.488851,2.94564 -2.716919,-0.314509 -2.659431,-6.74942 z m -19.453819,6.713591 5.65e-4,0 c 1.5512,-0.007 2.723579,0.321589 2.723579,0.321589 l 0.0938,0.10131 -0.0973,-0.0991 c 0,0 -4.51484,1.91391 -6.34511,4.087351 -1.830251,2.173439 -3.03145,5.261789 -3.03145,5.261789 l 0.28576,1.60175 1.77295,1.34388 c 0,0 1.34423,-5.23324 3.288899,-7.149299 1.89979,-1.871871 5.306842,-3.528191 5.46527,-3.604751 l 3.808222,4.1015 -0.01191,-0.008 c 0,0 -4.231899,1.83011 -6.74854,3.3172 -2.09476,1.2378 -3.91021,3.56023 -4.48723,4.33906 l -3.144796,-2.31132 c 0,0 -1.60172,-6.920579 1.42968,-9.6088 1.51557,-1.34397 3.44635,-1.686999 4.99771,-1.694199 z m 13.578478,6.353959 c 0.120201,1.3e-4 0.242051,0.006 0.362732,0.007 1.227568,0.0959 4.974539,0.410491 8.212279,0.894 3.36075,0.6652 6.648961,1.65767 9.568987,2.847871 1.899731,0.84757 2.876778,1.3531 3.384445,1.647749 l -0.06723,0.0111 c 0,0 3.546351,3.08848 4.118314,5.20473 0.528551,1.9557 0.47185,7.979251 0.460042,8.916951 l -0.0598,0.007 -3.551651,13.38782 c 0,0 -17.876115,2.507248 -26.045757,-0.890022 -8.741571,-3.225711 -13.81469,-8.437021 -13.81469,-8.437021 l 0.77367,-5.394499 a 7.5151831,7.6105434 0 0 0 5.62762,2.552818 7.5151831,7.6105434 0 0 0 7.490361,-7.61068 l -5.64e-4,-0.100421 a 7.5151831,7.6105434 0 0 0 -7.589001,-7.50982 7.5151831,7.6105434 0 0 0 -3.207068,0.77145 c 1.258208,-1.22176 3.03051,-2.83695 4.47927,-3.72594 2.186008,-1.34141 4.43384,-2.04342 5.01585,-2.21397 1.541128,-0.25005 3.168018,-0.36573 4.841988,-0.36407 z m 0.89134,0.87276 c -7.317568,-0.002 -10.488639,2.57981 -10.488639,2.57981 0,0 8.573369,0.56472 15.81457,2.07331 7.241181,1.50861 18.792485,6.90866 18.792485,6.90866 0,0 -0.09266,-2.3425 -0.96831,-3.3309 -0.875623,-0.98842 -5.155461,-5.81296 -17.409695,-7.75314 -2.14229,-0.33918 -4.05174,-0.47724 -5.740411,-0.47774 z m 30.750621,3.79053 c 0,0 4.80483,2.1161 4.80483,6.17701 0,4.060921 -2.917311,7.95042 -2.917311,7.95042 l -2.805845,0.276459 c 0.01389,-0.0699 1.086039,-5.49227 0.885153,-7.782749 -0.202223,-2.30529 -1.900795,-6.34953 -1.900795,-6.34953 l -0.824543,0.0464 z m -4.75486,0.54808 c 0.148085,0.32648 1.894027,4.20394 1.971581,5.8709 0.08091,1.73908 -0.930277,8.169821 -0.930277,8.169821 l 2.230786,-0.129611 -3.261467,0.321161 c 0.01273,-1.113271 0.05096,-6.751822 -0.517554,-9.232371 -0.472234,-2.06075 -2.233221,-3.83087 -3.082312,-4.58585 z m -27.96335,1.42215 a 1.3144205,1.3144205 0 0 0 -1.3014,1.3231 1.3144205,1.3144205 0 0 0 1.31909,1.30582 1.3144205,1.3144205 0 0 0 1.30981,-1.31468 l 0,-0.0172 a 1.3144205,1.3144205 0 0 0 -1.3275,-1.29697 z m -10.037881,0.43573 a 5.8974346,6.0736829 0 0 1 5.955402,5.993451 l 5.64e-4,0.08 a 5.8974346,6.0736829 0 0 1 -5.878096,6.073501 5.8974346,6.0736829 0 0 1 -5.916479,-6.033231 5.8974346,6.0736829 0 0 1 5.83862,-6.11377 z m 15.91631,1.10101 a 1.3144205,1.3144205 0 0 0 -1.3014,1.32308 1.3144205,1.3144205 0 0 0 1.31865,1.30582 1.3144205,1.3144205 0 0 0 1.31025,-1.31466 l -5.64e-4,-0.0173 a 1.3144205,1.3144205 0 0 0 -1.327068,-1.29695 z m -17.341569,0.77677 c -0.473081,-0.0111 -0.9853,0.20465 -1.494711,0.7498 -1.630069,1.74449 -1.229949,5.891001 0.199951,6.00538 1.429899,0.11441 1.458779,-2.8023 1.687571,-2.8023 0,0 2.030478,-0.0572 1.715888,-1.68758 -0.21627,-1.12069 -1.067869,-2.24118 -2.108699,-2.2653 z m 25.954189,1.27708 a 7.960064,8.0610694 0 0 0 -7.88097,8.114081 7.960064,8.0610694 0 0 0 7.986251,8.007479 7.960064,8.0610694 0 0 0 7.933599,-8.061 l -5.65e-4,-0.106519 a 7.960064,8.0610694 0 0 0 -8.038323,-7.953951 z m 0.01679,1.62785 a 6.2465482,6.4332298 0 0 1 6.307959,6.347781 l 5.65e-4,0.0849 a 6.2465482,6.4332298 0 0 1 -6.226124,6.433142 6.2465482,6.4332298 0 0 1 -6.266812,-6.39067 6.2465482,6.4332298 0 0 1 6.184101,-6.475181 z m -51.393917,0.55206 -0.31451,2.134811 a 2.683242,2.5946557 64.219005 0 1 2.31881,1.518589 2.683242,2.5946557 64.219005 0 1 -1.13861,3.549001 2.683242,2.5946557 64.219005 0 1 -3.5109605,-1.2439 l -0.01549,-0.0319 a 2.683242,2.5946557 64.219005 0 1 0.23666,-2.77003 l -1.827361,-1.142532 a 4.8081754,4.8354945 64.219005 0 0 -0.42688,4.887121 l 0.0279,0.0571 a 4.8081754,4.8354945 64.219005 0 0 3.5653805,2.590422 l 1.5876,2.49621 0.28753,-0.0637 c 3.869069,5.639018 5.34134,7.542308 12.134629,9.546407 a 6.0913794,5.6910071 18.890714 0 0 3.904211,3.84184 l 0.0761,0.02529 a 6.0913794,5.6910071 18.890714 0 0 1.30582,0.280009 c -0.66416,2.98553 -0.97459,6.681199 -0.48305,11.140231 1.60148,14.5278 11.763771,25.845359 18.315638,21.881878 6.551882,-3.963478 7.708443,-4.894628 7.708443,-4.894628 0,0 0.68661,-2.288082 2.002098,-3.146032 1.315511,-0.857939 3.431771,-1.200988 3.431771,-1.200988 0,0 2.573921,-9.322849 4.91897,-9.78043 2.345055,-0.45755 2.573609,-0.457401 2.573609,-0.457401 0,0 0.173488,-0.52942 0.194632,-0.593629 0.0035,5.411789 -0.726889,7.1044 -4.135111,11.477749 -0.324829,-0.364699 -0.521101,-0.67461 -0.521101,-0.67461 l -0.400329,0.17165 -1.494271,1.173999 a 4.8354945,4.8081754 45.328291 0 0 -4.569939,1.25452 4.8354945,4.8081754 45.328291 0 0 -1.222231,4.662831 l 2.121532,-0.393691 a 2.5946557,2.683242 45.328291 0 1 0.686088,-2.685522 2.5946557,2.683242 45.328291 0 1 3.726391,-0.0716 2.5946557,2.683242 45.328291 0 1 -0.0402,3.724611 l -0.0252,0.02531 a 2.5946557,2.683242 45.328291 0 1 -2.69704,0.672809 l -0.489681,2.09898 a 4.8354945,4.8081754 45.328291 0 0 4.76193,-1.17845 l 0.0451,-0.0451 a 4.8354945,4.8081754 45.328291 0 0 1.296532,-4.21209 l 1.847711,-2.309972 -0.153495,-0.2517 c 4.082644,-5.486388 5.407138,-7.495308 5.103873,-14.571559 a 5.6910071,6.0913794 0 0 0 2.370571,-4.937979 l -5.65e-4,-0.08 a 5.6910071,6.0913794 0 0 0 -3.255726,-5.421048 c -0.513755,-1.370172 -2.089808,-3.07167 -6.810025,-3.10664 -7.721481,-0.0572 -17.101531,-0.343309 -22.19197,-2.802752 -5.090462,-2.459428 -7.805329,-5.316648 -7.805329,-5.316648 0,0 -0.0724,0.0722 -0.174282,0.1796 a 6.0913794,5.6910071 18.890714 0 0 -2.37013,-1.418632 6.0913794,5.6910071 18.890714 0 0 -7.374031,2.94165 c -5.12583,-1.74951 -6.49072,-2.987968 -9.526079,-7.630148 0.450219,-0.189242 0.807299,-0.27469 0.807299,-0.27469 l -0.0327,-0.434391 -0.627249,-1.79375 a 4.8081754,4.8354945 64.219005 0 0 0.29283,-4.73009 4.8081754,4.8354945 64.219005 0 0 -4.01612,-2.66606 z m 49.850988,2.20514 c -0.473097,-0.01109 -0.9853,0.20464 -1.494719,0.749791 -1.630059,1.744478 -1.22949,5.890988 0.200389,6.00537 1.429913,0.11441 1.458341,-2.80274 1.687153,-2.80274 0,0 2.03047,-0.0568 1.715879,-1.687141 -0.216281,-1.120679 -1.067892,-2.241169 -2.108702,-2.26528 z m -20.723359,6.503029 -0.68742,0.283112 c -0.68755,0.283108 -2.143638,0.081 -2.143638,0.081 0,0 -0.970771,4.893629 8.33127,8.12912 9.302077,3.235508 14.236259,-3.0332 14.236259,-3.0332 0,0 -0.32367,-0.081 -1.294319,-0.445011 -0.970653,-0.363999 -1.819851,-1.09174 -1.819851,-1.09174 0,0 -6.147452,0.0806 -10.19182,-0.970971 -4.04438,-1.051529 -6.430481,-2.952248 -6.430481,-2.952248 z m -5.737321,10.318772 c 0,0 6.86363,5.090558 14.470698,5.49093 7.269102,0.38258 15.878942,1.366409 16.649742,1.455349 0.179939,0.002 0.280009,0.0315 0.280009,0.0315 0,0 -0.244178,-0.0274 -0.280009,-0.0315 -0.83809,-0.01301 -3.50419,0.56103 -6.900271,7.486381 -4.125259,8.41228 -5.803318,24.346308 -14.554309,24.117519 -10.90116,0.0111 -16.15808,-23.148068 -12.64024,-33.917411 1.37271,-4.003728 2.974389,-4.632768 2.97438,-4.632768 z m 6.595491,5.789518 a 7.960064,8.0610694 0 0 0 -7.880961,8.11408 7.960064,8.0610694 0 0 0 7.986241,8.007911 7.960064,8.0610694 0 0 0 7.933608,-8.060991 l -5.65e-4,-0.106508 a 7.960064,8.0610694 0 0 0 -8.038439,-7.954402 z m 0.007,0.778541 5.65e-4,0 a 7.2980845,7.2825476 0 0 1 0.248601,0.01 l 0.0593,1.038202 a 6.2209727,6.2411378 0 0 0 -0.29727,-0.007 l -5.65e-4,0 a 6.2209727,6.2411378 0 0 0 -5.145878,2.83504 l -0.836501,-0.67503 a 7.2980845,7.2825476 0 0 1 5.971771,-3.201309 z m 3.43664,0.823211 a 7.2980845,7.2825476 0 0 1 3.93341,6.36281 l 5.64e-4,0.0964 a 7.2980845,7.2825476 0 0 1 -0.0208,0.413603 l -1.073152,0.02438 a 6.2209727,6.2411378 0 0 0 0.0164,-0.43791 l 0,-0.0828 a 6.2209727,6.2411378 0 0 0 -3.429153,-5.49269 z m -3.4216,0.82057 5.64e-4,0 a 5.7036204,5.6383811 0 0 1 0.327338,0.0129 l 0.0602,1.058099 a 4.4818811,4.5829756 0 0 0 -0.37511,-0.01549 l -5.64e-4,0 a 4.4818811,4.5829756 0 0 0 -3.816181,2.26441 l -0.923191,-0.74536 a 5.7036204,5.6383811 0 0 1 4.726542,-2.574499 z m 2.525841,0.56266 a 5.7036204,5.6383811 0 0 1 3.234489,5.001249 l 0,0.0748 a 5.7036204,5.6383811 0 0 1 -0.02249,0.449871 l -1.227983,0.0274 a 4.4818811,4.5829756 0 0 0 0.0296,-0.477291 l 0,-0.0611 a 4.4818811,4.5829756 0 0 0 -2.608111,-4.097519 z m -2.509921,0.93559 5.64e-4,0 a 4.1091561,4.1403609 0 0 1 4.149259,4.085578 l 0,0.0544 a 4.1091561,4.1403609 0 0 1 -4.095289,4.14042 4.1091561,4.1403609 0 0 1 -4.122739,-4.112991 4.1091561,4.1403609 0 0 1 4.068321,-4.16742 z m 0.02791,2.736838 a 1.3714992,1.4033447 0 0 0 -1.35802,1.41244 1.3714992,1.4033447 0 0 0 1.376158,1.394302 1.3714992,1.4033447 0 0 0 1.36687,-1.40359 l 0,-0.0186 a 1.3714992,1.4033447 0 0 0 -1.385008,-1.38456 z m -7.193991,0.318931 1.074039,0.0509 a 6.2209727,6.2411378 0 0 0 -0.0871,1.074479 6.2209727,6.2411378 0 0 0 3.000483,5.29319 l -0.632133,0.840921 a 7.2980845,7.2825476 0 0 1 -3.445919,-6.12703 7.2980845,7.2825476 0 0 1 0.0907,-1.132423 z m 1.598221,0.0756 1.231079,0.058 a 4.4818811,4.5829756 0 0 0 -0.10351,0.981148 4.4818811,4.5829756 0 0 0 2.276779,3.953313 l -0.663959,0.882937 a 5.7036204,5.6383811 0 0 1 -2.835489,-4.829609 5.7036204,5.6383811 0 0 1 0.0951,-1.045721 z m 9.652598,2.977037 0.984682,0.686972 a 5.7036204,5.6383811 0 0 1 -5.009662,2.983218 5.7036204,5.6383811 0 0 1 -0.820558,-0.0633 l 0.01369,-1.066061 a 4.4818811,4.5829756 0 0 0 0.8033,0.0739 4.4818811,4.5829756 0 0 0 4.028519,-2.614749 z m 1.424822,0.99441 0.883369,0.61619 a 7.2980845,7.2825476 0 0 1 -6.326979,3.703831 7.2980845,7.2825476 0 0 1 -0.847981,-0.0519 l 0.01329,-1.049689 a 6.2209727,6.2411378 0 0 0 0.830738,0.0597 6.2209727,6.2411378 0 0 0 5.44758,-3.278271 z"
       style="display:inline;fill:#000000;fill-rule:evenodd;stroke:#000000;stroke-width:0.15298739px;stroke-linecap:butt;stroke-linejoin:miter;stroke-opacity:1" />
  </g>
  <g
     style="display:none"
     transform="translate(0,-198)"
     inkscape:label="Edge.Cut-s"
     id="layer20"
     inkscape:groupmode="layer">
    <path
       style="opacity:1;fill:none;fill-opacity:0.12560389;fill-rule:nonzero;stroke:#000000;stroke-width:0.61143261;stroke-linecap:round;stroke-linejoin:round;stroke-miterlimit:4;stroke-dasharray:none;stroke-dashoffset:0;stroke-opacity:1"
       d="m 57.505181,199.70514 -0.923984,0.28434 -0.826732,0.40368 -1.389339,1.11827 -1.083224,1.45418 -0.832369,1.69575 -0.636776,1.84299 -0.496442,1.8959 -0.792929,3.57317 0.551149,1.26205 0.161338,1.0754 -0.14828,0.39684 -0.345057,0.26512 -0.574942,0.10506 -0.837936,-0.0834 -1.30132,-0.97927 -1.226858,-1.14371 -2.426207,-2.37772 -1.297286,-1.0325 -1.4187,-0.79393 -1.589083,-0.45459 -1.808435,-0.0145 -2.381394,0.14581 -2.25886,0.62212 -2.067783,1.04768 -1.808163,1.42251 -1.479999,1.74657 -1.083291,2.0199 -0.61804,2.24249 -0.08425,2.41432 -0.0219,1.29969 0.160324,1.28135 0.757573,2.46973 1.15722,2.28247 1.337369,2.01929 -0.359182,1.69585 -0.07663,1.75483 0.270871,3.57595 0.135758,1.76581 -0.0052,1.71416 -0.252018,1.63486 -0.604719,1.52789 -1.597112,0.72119 -1.529281,0.56154 -0.728144,0.0641 -0.697914,-0.164 -0.66326,-0.45479 -0.624182,-0.80833 -0.828658,-1.33136 -0.345163,-1.44995 -0.03513,-1.527 0.101432,-1.5625 0.06453,-1.55644 -0.145831,-1.50882 -0.529659,-1.41967 -0.462972,-0.66341 -0.623979,-0.62554 -0.990093,-1.15946 -1.21691,-0.89644 -1.371917,-0.61634 -1.455117,-0.31917 -1.466509,-0.005 -1.406091,0.32644 -1.273866,0.67487 -1.069831,1.04037 -0.9325782,-0.0718 -0.8400772,0.11329 -0.7483359,0.27922 -0.6573542,0.42602 -1.044803,1.21595 -0.6899936,1.57364 -0.3412624,1.7783 0.00139,1.82995 0.3379662,1.72856 0.6684635,1.47415 0.858037,1.28079 0.9953198,1.14253 2.2160874,2.06084 2.2060176,2.07958 0.982732,1.16593 0.840415,1.31356 1.103279,1.35387 1.244773,1.19444 2.775636,2.04372 2.926427,1.80538 2.800424,1.83329 1.275174,1.01024 1.284858,0.97553 0.462987,0.55646 0.24572,0.64583 -0.04478,0.76788 -0.408501,0.92262 0.03821,4.78061 0.598177,4.86385 0.514813,2.41708 0.661692,2.38262 0.810865,2.32972 0.962333,2.2584 1.116099,2.16866 1.272158,2.06048 1.430513,1.93389 1.591165,1.78887 1.754111,1.62542 1.919353,1.44353 2.086891,1.24324 2.256725,1.02451 1.589672,0.2122 1.557493,-0.10784 1.52365,-0.35983 1.488147,-0.54375 2.863133,-1.36708 2.70117,-1.28613 0.880392,0.46085 0.764022,0.66393 1.400845,1.58095 0.747777,0.73896 0.853316,0.58589 1.014333,0.34379 1.230826,0.0127 1.876222,-0.20052 1.662373,-0.61378 1.456076,-0.95867 1.25733,-1.23517 1.066137,-1.44328 0.882496,-1.583 0.706406,-1.65434 0.537869,-1.65729 2.39687,-3.84945 1.934486,-4.10491 0.766236,-2.12464 0.617505,-2.16018 0.457729,-2.18628 0.286908,-2.20292 0.989217,-1.73748 0.526705,-1.85457 0.11347,-1.91746 -0.250489,-1.92612 -0.56517,-1.88057 -0.830574,-1.78081 -1.046702,-1.62683 -1.213552,-1.41864 1.144201,-1.29611 0.790102,-1.489 0.534084,-1.62405 0.376148,-1.70127 0.670821,-3.4028 0.490837,-1.58586 0.72523,-1.4317 2.945295,-0.45412 1.419554,-0.40564 1.340882,-0.55543 1.229754,-0.72828 1.08617,-0.92416 0.910129,-1.14309 0.701631,-1.38509 0.713471,-1.43299 0.487496,-1.52408 0.270653,-1.58686 0.06294,-1.62132 -0.135641,-1.62749 -0.325091,-1.60533 -0.505411,-1.55487 -0.676599,-1.47609 -0.838656,-1.369 -0.991584,-1.23361 -1.135378,-1.0699 -1.270044,-0.87788 -1.395578,-0.65755 -1.51198,-0.4089 -1.619252,-0.13196 -1.717393,0.17331 -2.164529,0.30934 -2.299309,0.0597 -2.133842,-0.35678 -0.911044,-0.38674 -0.757084,-0.55346 0.834409,-1.20494 0.302457,-1.26617 -0.09305,-1.31515 -0.352111,-1.35191 -0.935631,-2.76505 -0.310631,-1.38866 -0.02392,-1.37642 -0.270435,-1.25308 -0.460556,-1.26169 -0.63936,-1.18868 -0.806845,-1.03402 -0.963012,-0.79775 -1.107861,-0.47983 -1.241393,-0.0803 -1.363606,0.40089 -1.802018,0.2768 -1.416461,-0.18895 -0.605225,-0.30241 -0.55873,-0.45878 -1.044501,-1.43992 -0.950284,-0.47345 -1.054307,-0.12675 0,4e-5"
       id="path5151"
       inkscape:connector-curvature="0"
       sodipodi:nodetypes="ccccccccccccccccccccccccccccc" />
  </g>
  <g
     style="display:none"
     transform="translate(0,-198)"
     inkscape:label="morado"
     id="layer19"
     inkscape:groupmode="layer">
    <path
       inkscape:connector-curvature="0"
       id="path1756"
       d="m 42.937863,268.63533 c -1.321615,-0.3205 -2.440901,-1.36651 -2.889333,-2.70016 -0.213151,-0.63391 -0.247103,-1.51861 -0.08439,-2.19875 0.338879,-1.41645 1.414037,-2.55509 2.818811,-2.98523 0.451693,-0.13832 1.423772,-0.16932 1.930528,-0.0616 0.506864,0.10774 1.179926,0.42584 1.644216,0.77701 0.684536,0.51778 1.238711,1.38505 1.450385,2.26981 0.162719,0.68013 0.128764,1.56483 -0.08439,2.19875 -0.452821,1.34671 -1.574226,2.38674 -2.914102,2.70267 -0.43066,0.10152 -1.448301,0.10019 -1.871734,-0.002 z m 1.560923,-2.63643 c 0.260079,-0.12603 0.525286,-0.389 0.673223,-0.66754 0.15647,-0.29463 0.168964,-1.0141 0.0223,-1.28461 -0.153187,-0.28254 -0.423541,-0.5624 -0.668662,-0.69218 -0.319966,-0.16941 -0.960344,-0.16874 -1.281718,10e-4 -0.688991,0.36463 -0.986538,1.29427 -0.634878,1.98358 0.137208,0.26896 0.54237,0.63819 0.792499,0.72222 0.256886,0.0863 0.86084,0.0518 1.097231,-0.0628 z"
       style="opacity:1;fill:#ff1493;fill-opacity:1;fill-rule:nonzero;stroke:none;stroke-width:0.17857143;stroke-linecap:round;stroke-linejoin:round;stroke-miterlimit:4;stroke-dasharray:none;stroke-dashoffset:0;stroke-opacity:1" />
  </g>
  <g
     style="display:none"
     transform="translate(0,-198)"
     inkscape:label="amarillo"
     id="layer16"
     inkscape:groupmode="layer">
    <path
       inkscape:connector-curvature="0"
       id="path1740"
       d="m 34.266125,226.10516 c -0.320752,-0.22822 -0.583185,-0.46613 -0.583185,-0.52869 0,-0.0625 0.286785,-0.94646 0.637303,-1.96422 0.821125,-2.38421 1.723362,-4.1087 2.644282,-5.05418 0.780331,-0.80114 3.084278,-2.38671 4.537244,-3.12252 l 0.876368,-0.44381 1.816851,1.97659 1.816848,1.9766 -2.967784,1.43647 c -1.632281,0.79007 -3.449885,1.75699 -4.03912,2.14871 -1.015888,0.67536 -3.917899,3.51959 -3.917899,3.83989 0,0.24154 -0.199812,0.17708 -0.820908,-0.26484 z"
       style="opacity:1;fill:#ffff00;fill-opacity:1;fill-rule:nonzero;stroke:none;stroke-width:0.50507629;stroke-linecap:round;stroke-linejoin:round;stroke-miterlimit:4;stroke-dasharray:none;stroke-dashoffset:0;stroke-opacity:1" />
    <path
       inkscape:connector-curvature="0"
       id="path1742"
       d="m 31.519492,222.10269 c -0.04045,-0.0404 -0.07354,-0.72893 -0.07354,-1.52997 0,-4.05614 1.190214,-6.09773 4.128198,-7.08116 0.826475,-0.27664 1.027338,-0.29859 2.766549,-0.30219 1.102352,-0.002 1.954544,0.0431 2.067444,0.11028 0.159551,0.0949 -0.02646,0.22557 -1.098612,0.77221 -1.772731,0.90384 -3.476301,2.04652 -4.340835,2.91167 -0.885764,0.88638 -1.916415,2.42743 -2.676668,4.00221 -0.563479,1.16718 -0.628418,1.26107 -0.772532,1.11696 z"
       style="opacity:1;fill:#ffff00;fill-opacity:1;fill-rule:nonzero;stroke:none;stroke-width:0.35714287;stroke-linecap:round;stroke-linejoin:round;stroke-miterlimit:4;stroke-dasharray:none;stroke-dashoffset:0;stroke-opacity:1" />
    <path
       inkscape:connector-curvature="0"
       id="path1744"
       d="m 57.076288,253.05289 c -1.6734,-0.11487 -4.059709,-0.41137 -5.269414,-0.65471 -5.069964,-1.01989 -11.614107,-4.41509 -16.324936,-8.46963 -0.561231,-0.48305 -1.020422,-0.96377 -1.020422,-1.06828 0,-0.28166 0.673927,-4.90097 0.722089,-4.94944 0.02271,-0.0228 0.287231,0.16436 0.587825,0.41603 0.820424,0.6869 1.733099,1.19943 2.716619,1.52557 0.766571,0.2542 1.063712,0.29256 2.261478,0.29203 1.217081,-5.9e-4 1.482545,-0.0364 2.261476,-0.30468 1.319366,-0.45455 1.995403,-0.88532 3.049564,-1.94316 1.529334,-1.5347 2.185565,-3.14157 2.188815,-5.35965 0.0053,-3.6649 -2.387583,-6.68701 -5.92205,-7.4791 -1.234004,-0.27655 -3.039643,-0.18226 -4.032335,0.21054 -0.428426,0.16953 -0.140222,-0.19053 0.83822,-1.04721 1.582883,-1.38592 2.595812,-2.10209 4.013705,-2.83782 1.655067,-0.8588 3.250721,-1.45069 4.442194,-1.64776 1.428964,-0.23636 4.250278,-0.31256 5.95706,-0.16089 2.755166,0.24481 6.222983,0.68041 7.556648,0.94921 2.666335,0.53737 6.914352,1.84929 9.094263,2.80857 2.457195,1.08132 2.850452,1.3328 4.169493,2.66631 2.172241,2.19606 2.893217,3.35406 3.115286,5.00365 0.151546,1.12573 0.372291,6.53587 0.29932,7.33601 -0.07161,0.7853 -3.550711,13.79751 -3.716452,13.89995 -0.149964,0.0927 -2.897086,0.38998 -5.736214,0.62079 -1.907186,0.15504 -9.828729,0.29139 -11.252232,0.19367 z m -2.300741,-3.13707 c 2.650348,-0.26946 4.714087,-1.11355 6.773962,-2.77063 0.747119,-0.60104 1.257966,-1.15205 1.140259,-1.22992 -0.02341,-0.0155 -0.315552,-0.12077 -0.649258,-0.23399 -0.746893,-0.25341 -1.601137,-0.67349 -2.040846,-1.00361 -0.309266,-0.23219 -0.504584,-0.25648 -2.981293,-0.37069 -4.345777,-0.20043 -6.612762,-0.53747 -9.031665,-1.34278 -1.401765,-0.46667 -3.35534,-1.39593 -4.402931,-2.09432 l -0.640708,-0.42714 -0.568713,0.22417 c -0.43971,0.17331 -0.7627,0.21617 -1.423926,0.18892 -0.988561,-0.0408 -0.978661,-0.0533 -0.837364,1.06792 0.05309,0.42135 0.249655,1.00005 0.540858,1.5924 1.088704,2.21453 3.942786,4.23653 7.799743,5.52579 1.843477,0.61622 2.668302,0.77706 4.998089,0.97465 0.09975,0.009 0.695454,-0.0369 1.323793,-0.10075 z m 11.436821,-4.19017 c 2.887507,-0.36207 5.455743,-2.34489 6.512152,-5.02774 0.941079,-2.38998 0.67189,-5.24099 -0.696878,-7.38071 -2.941017,-4.59756 -9.415106,-5.02757 -12.889933,-0.85618 -0.688894,0.82699 -1.443268,2.39449 -1.681297,3.49352 -0.240201,1.10909 -0.168737,3.10774 0.14639,4.09384 0.972827,3.04418 3.496076,5.22744 6.545465,5.6635 0.987938,0.14127 1.044198,0.14165 2.064101,0.0138 z m 10.610479,-14.21954 c 0,-0.49271 -0.309557,-1.85806 -0.536688,-2.36714 -0.774741,-1.73648 -4.739742,-4.48673 -8.737104,-6.06033 -3.346508,-1.31738 -7.92774,-2.36812 -11.890556,-2.72718 -2.07765,-0.18825 -5.765038,-0.0841 -7.407486,0.20918 -2.236199,0.39933 -4.192674,1.06847 -5.587619,1.91104 l -0.608276,0.36741 0.588259,0.0778 c 0.323542,0.0428 1.481818,0.15702 2.573947,0.25382 4.026621,0.35693 9.41422,1.11697 12.531559,1.76788 2.862168,0.59762 6.423392,1.73466 10.704868,3.41785 2.392834,0.94071 5.811636,2.381 7.15562,3.01456 0.515728,0.24312 0.999742,0.44581 1.075585,0.45042 0.0809,0.004 0.137891,-0.12541 0.137891,-0.31533 z m -19.690272,-1.37952 c 0.438065,-0.18304 0.825234,-0.74724 0.825829,-1.20346 0.0023,-1.55885 -2.164851,-1.91937 -2.652648,-0.44132 -0.283769,0.85981 0.31745,1.68367 1.305232,1.78859 0.0778,0.008 0.312505,-0.0564 0.521587,-0.14381 z m -5.574668,-1.69608 c 0.153103,-0.11326 0.349337,-0.40669 0.436072,-0.65207 0.469936,-1.32953 -1.223551,-2.37998 -2.223999,-1.37954 -1.173188,1.17318 0.451985,3.01986 1.787927,2.03161 z"
       style="opacity:1;fill:#ffff00;fill-opacity:1;fill-rule:nonzero;stroke:none;stroke-width:0.35714287;stroke-linecap:round;stroke-linejoin:round;stroke-miterlimit:4;stroke-dasharray:none;stroke-dashoffset:0;stroke-opacity:1" />
    <path
       inkscape:connector-curvature="0"
       id="path1746"
       d="m 82.627292,238.17215 c 0.02545,-0.11862 0.148685,-0.82996 0.273858,-1.58076 0.430341,-2.58128 0.511385,-3.38073 0.510048,-5.03133 -0.0012,-1.45201 -0.01646,-1.61956 -0.220407,-2.41816 -0.249943,-0.97864 -1.017311,-3.30708 -1.372995,-4.16612 -0.131599,-0.31783 -0.223435,-0.5937 -0.20408,-0.61307 0.01939,-0.0194 0.430831,-0.0808 0.914379,-0.13655 l 0.879186,-0.1013 0.392872,0.1989 c 1.614696,0.81744 3.213234,2.3607 3.85735,3.72398 0.403117,0.85319 0.496927,1.40461 0.451548,2.65431 -0.04494,1.23745 -0.282788,2.32184 -0.795638,3.62724 -0.371181,0.94478 -1.185558,2.53256 -1.660378,3.23721 l -0.367941,0.54604 -0.780048,0.0851 c -0.429033,0.0468 -1.037449,0.10873 -1.352039,0.13765 l -0.571986,0.0525 z"
       style="opacity:1;fill:#ffff00;fill-opacity:1;fill-rule:nonzero;stroke:none;stroke-width:0.25253814;stroke-linecap:round;stroke-linejoin:round;stroke-miterlimit:4;stroke-dasharray:none;stroke-dashoffset:0;stroke-opacity:1" />
    <path
       inkscape:connector-curvature="0"
       id="path1748"
       d="m 78.743423,236.41694 c -0.0806,-3.60512 -0.254868,-5.77637 -0.559371,-6.96969 -0.158504,-0.62117 -0.71041,-1.74227 -1.190963,-2.41923 -0.216209,-0.30457 -0.681539,-0.85847 -1.034064,-1.23089 -0.352525,-0.37243 -0.625432,-0.69265 -0.606455,-0.71163 0.06268,-0.0627 3.222981,-0.41078 3.27571,-0.36082 0.175956,0.16676 1.329355,3.16029 1.671869,4.33922 0.206801,0.71179 0.226262,0.88242 0.222409,1.95012 -0.0023,0.64355 -0.06735,1.69662 -0.144528,2.34016 -0.195372,1.62919 -0.711244,5.25514 -0.752893,5.29187 -0.01891,0.0167 -0.213186,0.0531 -0.431671,0.081 l -0.397257,0.0506 z"
       style="opacity:1;fill:#ffff00;fill-opacity:1;fill-rule:nonzero;stroke:none;stroke-width:0.25253814;stroke-linecap:round;stroke-linejoin:round;stroke-miterlimit:4;stroke-dasharray:none;stroke-dashoffset:0;stroke-opacity:1" />
  </g>
  <g
     style="display:none"
     transform="translate(0,-198)"
     inkscape:label="verde"
     id="layer17"
     inkscape:groupmode="layer">
    <path
       inkscape:connector-curvature="0"
       id="path1754"
       d="m 45.094712,289.09651 c -0.862167,-0.23235 -1.807112,-0.64033 -2.472627,-1.06755 -4.460776,-2.86358 -7.862437,-10.16457 -9.112818,-19.55887 -0.278031,-2.08889 -0.279659,-7.77078 -0.0028,-9.51681 0.532842,-3.35957 1.58966,-6.00447 2.974493,-7.44429 l 0.63439,-0.65957 0.303296,0.20071 c 4.004624,2.65027 8.160808,4.40832 11.945915,5.0531 0.577835,0.0984 2.190826,0.25336 3.584427,0.34429 4.393344,0.28667 14.465896,1.19278 14.58518,1.31206 0.01955,0.0196 -0.248076,0.17431 -0.594729,0.34391 -1.238663,0.60602 -2.985606,2.55792 -4.326776,4.8344 -1.535661,2.60661 -2.307641,4.50416 -4.419076,10.86225 -1.696573,5.1088 -2.464205,7.13985 -3.447404,9.12134 -1.721441,3.4693 -3.784339,5.57677 -6.048636,6.1793 -0.76959,0.20481 -2.836189,0.20235 -3.602905,-0.004 z m 0.735523,-16.54935 c 0.394379,-0.0925 1.139013,-0.37512 1.65474,-0.62788 0.770484,-0.37762 1.125547,-0.64743 1.991231,-1.51312 0.869432,-0.86943 1.133343,-1.21741 1.510175,-1.99123 0.581361,-1.19383 0.79366,-1.99743 0.875392,-3.31358 0.151878,-2.44569 -0.776375,-4.72735 -2.616264,-6.43081 -1.4786,-1.36896 -3.306153,-2.06796 -5.40096,-2.06575 -2.531579,0.003 -4.573267,0.99797 -6.222841,3.0336 -2.695871,3.3268 -2.139344,8.62762 1.188507,11.3203 2.006496,1.62353 4.483224,2.18397 7.02002,1.58847 z"
       style="opacity:1;fill:#7fff00;fill-opacity:1;fill-rule:nonzero;stroke:none;stroke-width:0.35714287;stroke-linecap:round;stroke-linejoin:round;stroke-miterlimit:4;stroke-dasharray:none;stroke-dashoffset:0;stroke-opacity:1" />
  </g>
  <g
     style="display:none"
     transform="translate(0,-198)"
     inkscape:label="azul"
     id="layer18"
     inkscape:groupmode="layer">
    <path
       inkscape:connector-curvature="0"
       id="path1758"
       d="m 48.420266,264.53618 c -0.01112,-0.39131 -0.03061,-0.6034 -0.0741,-0.80668 -0.261836,-1.22388 -0.970583,-2.28171 -1.972571,-2.94415 -0.136516,-0.0902 -0.306783,-0.19388 -0.378369,-0.23028 l -0.130158,-0.0662 0.25042,-0.38606 c 0.137729,-0.21234 0.261868,-0.38608 0.275863,-0.38608 0.07714,0 0.567928,0.28981 0.873551,0.51582 1.392411,1.02974 2.239532,2.68624 2.242358,4.38484 3.09e-4,0.21622 -0.0072,0.40586 -0.01681,0.4214 -0.01086,0.0177 -0.21171,0.0283 -0.536276,0.0283 l -0.518805,0 z"
       style="opacity:1;fill:#00bfff;fill-opacity:1;fill-rule:nonzero;stroke:none;stroke-width:0.08928572;stroke-linecap:round;stroke-linejoin:round;stroke-miterlimit:4;stroke-dasharray:none;stroke-dashoffset:0;stroke-opacity:1" />
    <path
       inkscape:connector-curvature="0"
       id="path1760"
       d="m 50.168649,264.61892 c -0.0018,-0.96214 -0.211698,-1.8461 -0.649253,-2.73721 -0.542165,-1.10414 -1.386024,-2.0192 -2.431644,-2.6368 -0.157677,-0.0931 -0.286684,-0.17579 -0.286684,-0.18369 0,-0.008 0.107068,-0.1804 0.237925,-0.38333 l 0.237925,-0.36897 0.155075,0.0862 c 0.529357,0.2945 1.091291,0.72459 1.562878,1.19618 0.586043,0.58605 1.008737,1.17585 1.364678,1.90422 0.266303,0.54494 0.387204,0.86956 0.523187,1.40473 0.148556,0.58468 0.197274,0.9413 0.213443,1.56254 l 0.01407,0.54031 -0.255874,0.0182 c -0.140729,0.01 -0.352385,0.0182 -0.470348,0.0182 l -0.214482,0 -0.0012,-0.42058 z"
       style="opacity:1;fill:#00bfff;fill-opacity:1;fill-rule:nonzero;stroke:none;stroke-width:0.08928572;stroke-linecap:round;stroke-linejoin:round;stroke-miterlimit:4;stroke-dasharray:none;stroke-dashoffset:0;stroke-opacity:1" />
    <path
       inkscape:connector-curvature="0"
       id="path1762"
       d="m 43.670853,270.23375 c -0.06067,-0.004 -0.200292,-0.0163 -0.310264,-0.0253 l -0.199949,-0.0164 0,-0.45517 0,-0.45519 0.241318,0.0221 c 0.326095,0.0298 0.837221,0.0219 1.100701,-0.017 1.408089,-0.20812 2.63503,-1.05412 3.32776,-2.29456 l 0.133032,-0.23821 0.418547,0.29206 c 0.230201,0.16063 0.423556,0.29594 0.429673,0.30069 0.01733,0.0134 -0.236871,0.41539 -0.398774,0.63063 -0.990597,1.31694 -2.482483,2.12703 -4.136849,2.24631 -0.21151,0.0152 -0.409384,0.0257 -0.439721,0.0234 -0.03034,-0.002 -0.104796,-0.009 -0.165474,-0.0133 z"
       style="opacity:1;fill:#00bfff;fill-opacity:1;fill-rule:nonzero;stroke:none;stroke-width:0.08928572;stroke-linecap:round;stroke-linejoin:round;stroke-miterlimit:4;stroke-dasharray:none;stroke-dashoffset:0;stroke-opacity:1" />
    <path
       inkscape:connector-curvature="0"
       id="path1764"
       d="m 43.264064,271.8604 -0.131002,-0.0119 4.64e-4,-0.41907 c 3.08e-4,-0.23049 0.0099,-0.43399 0.0215,-0.45224 0.01623,-0.0255 0.106502,-0.0265 0.391674,-0.004 0.610453,0.0479 1.461809,-0.0482 2.084781,-0.23537 1.556648,-0.46761 2.822194,-1.44961 3.659495,-2.83958 l 0.09192,-0.15257 0.377795,0.26454 0.377789,0.26456 -0.07314,0.12678 c -0.245139,0.42497 -0.675509,0.96887 -1.101186,1.3917 -1.08335,1.07607 -2.50411,1.78598 -4.038415,2.01786 -0.308356,0.0465 -1.351432,0.0776 -1.661634,0.0494 z"
       style="opacity:1;fill:#00bfff;fill-opacity:1;fill-rule:nonzero;stroke:none;stroke-width:0.08928572;stroke-linecap:round;stroke-linejoin:round;stroke-miterlimit:4;stroke-dasharray:none;stroke-dashoffset:0;stroke-opacity:1" />
    <path
       inkscape:connector-curvature="0"
       id="path1766"
       d="m 40.73229,269.27493 c -0.549656,-0.37386 -1.016573,-0.81788 -1.387562,-1.31954 -0.779272,-1.05373 -1.173571,-2.40027 -1.069906,-3.65378 0.0185,-0.22365 0.0411,-0.4418 0.05022,-0.48478 l 0.01659,-0.0781 0.361767,0.0169 c 0.198971,0.009 0.440771,0.0238 0.537333,0.0324 l 0.175565,0.0156 -0.01689,0.10087 c -0.195946,1.17046 0.07453,2.41845 0.737602,3.40328 0.320915,0.47664 0.781142,0.93914 1.222433,1.22846 0.10975,0.0719 0.193257,0.14536 0.187041,0.16442 -0.009,0.0276 -0.465938,0.65127 -0.535503,0.73091 -0.01,0.0114 -0.135355,-0.0591 -0.278685,-0.15655 z"
       style="opacity:1;fill:#00bfff;fill-opacity:1;fill-rule:nonzero;stroke:none;stroke-width:0.08928572;stroke-linecap:round;stroke-linejoin:round;stroke-miterlimit:4;stroke-dasharray:none;stroke-dashoffset:0;stroke-opacity:1" />
    <path
       inkscape:connector-curvature="0"
       id="path1768"
       d="m 39.737522,270.56572 c -1.665995,-1.1762 -2.74656,-2.96632 -3.019485,-5.00223 -0.05577,-0.41604 -0.06217,-1.2203 -0.01281,-1.61336 0.01904,-0.15168 0.0367,-0.27798 0.03925,-0.28066 0.0082,-0.009 0.906491,0.0431 0.916147,0.0529 0.0051,0.006 -0.0043,0.0958 -0.02114,0.20132 -0.04957,0.31253 -0.04072,1.24334 0.01545,1.62474 0.05684,0.38591 0.196913,0.94836 0.322005,1.29287 0.1309,0.36052 0.463182,1.01235 0.685985,1.34569 0.436744,0.65344 1.055488,1.27752 1.691885,1.7065 0.101261,0.0683 0.184503,0.13364 0.184984,0.14529 0.0011,0.0274 -0.503843,0.70692 -0.526453,0.70849 -0.0094,5.7e-4 -0.133518,-0.081 -0.27579,-0.18145 z"
       style="opacity:1;fill:#00bfff;fill-opacity:1;fill-rule:nonzero;stroke:none;stroke-width:0.08928572;stroke-linecap:round;stroke-linejoin:round;stroke-miterlimit:4;stroke-dasharray:none;stroke-dashoffset:0;stroke-opacity:1" />
    <path
       inkscape:connector-curvature="0"
       id="path1770"
       d="m 39.603398,261.92366 c -0.204529,-0.1657 -0.375641,-0.31259 -0.380247,-0.32641 -0.01469,-0.0441 0.322727,-0.47445 0.583188,-0.74394 0.867137,-0.89716 1.962301,-1.4723 3.188829,-1.67464 0.317599,-0.0524 1.06072,-0.0875 1.083191,-0.0511 0.0088,0.0141 0.02477,0.22068 0.03567,0.45908 l 0.01982,0.43345 -0.250773,0 c -0.886725,0 -1.771432,0.28013 -2.556442,0.80946 -0.330816,0.22308 -0.912613,0.80564 -1.140256,1.14175 -0.09503,0.14031 -0.181402,0.25477 -0.191946,0.25435 -0.01053,-4.6e-4 -0.186511,-0.13632 -0.391039,-0.30202 z"
       style="opacity:1;fill:#00bfff;fill-opacity:1;fill-rule:nonzero;stroke:none;stroke-width:0.08928572;stroke-linecap:round;stroke-linejoin:round;stroke-miterlimit:4;stroke-dasharray:none;stroke-dashoffset:0;stroke-opacity:1" />
    <path
       inkscape:connector-curvature="0"
       id="path1772"
       d="m 38.320529,260.88669 c -0.182021,-0.1452 -0.342338,-0.27508 -0.356262,-0.28861 -0.06699,-0.0652 0.767618,-1.00962 1.265197,-1.43179 0.972868,-0.82544 2.170939,-1.3776 3.471464,-1.59991 0.350638,-0.06 1.126415,-0.11912 1.224676,-0.0934 0.06942,0.0182 0.07892,0.0693 0.10565,0.56835 l 0.01736,0.32407 -0.257995,0 c -0.319114,0 -0.869642,0.0628 -1.228299,0.14019 -0.930761,0.20076 -1.960315,0.70256 -2.682112,1.30724 -0.391653,0.32811 -0.985206,0.9757 -1.150018,1.25469 -0.02708,0.0458 -0.05586,0.0834 -0.06397,0.0832 -0.0081,-5e-5 -0.163664,-0.11889 -0.345685,-0.2641 z"
       style="opacity:1;fill:#00bfff;fill-opacity:1;fill-rule:nonzero;stroke:none;stroke-width:0.08928572;stroke-linecap:round;stroke-linejoin:round;stroke-miterlimit:4;stroke-dasharray:none;stroke-dashoffset:0;stroke-opacity:1" />
  </g>
</svg>
