<?xml version="1.0" encoding="UTF-8" standalone="no"?>
<!-- Created with Inkscape (http://www.inkscape.org/) -->

<svg
   xmlns:dc="http://purl.org/dc/elements/1.1/"
   xmlns:cc="http://creativecommons.org/ns#"
   xmlns:rdf="http://www.w3.org/1999/02/22-rdf-syntax-ns#"
   xmlns:svg="http://www.w3.org/2000/svg"
   xmlns="http://www.w3.org/2000/svg"
   xmlns:sodipodi="http://sodipodi.sourceforge.net/DTD/sodipodi-0.dtd"
   xmlns:inkscape="http://www.inkscape.org/namespaces/inkscape"
   width="210mm"
   height="297mm"
   viewBox="0 0 210 297"
   version="1.1"
   id="svg1688"
   inkscape:version="0.92.2 (5c3e80d, 2017-08-06)"
   sodipodi:docname="robot capas.svg">
  <defs
     id="defs1682" />
  <sodipodi:namedview
     id="base"
     pagecolor="#ffffff"
     bordercolor="#666666"
     borderopacity="1.0"
     inkscape:pageopacity="0.0"
     inkscape:pageshadow="2"
     inkscape:zoom="0.49497475"
     inkscape:cx="856.43002"
     inkscape:cy="488.34431"
     inkscape:document-units="mm"
     inkscape:current-layer="layer20"
     showgrid="false"
     inkscape:window-width="1366"
     inkscape:window-height="705"
     inkscape:window-x="-8"
     inkscape:window-y="-8"
     inkscape:window-maximized="1" />
  <metadata
     id="metadata1685">
    <rdf:RDF>
      <cc:Work
         rdf:about="">
        <dc:format>image/svg+xml</dc:format>
        <dc:type
           rdf:resource="http://purl.org/dc/dcmitype/StillImage" />
        <dc:title></dc:title>
      </cc:Work>
    </rdf:RDF>
  </metadata>
  <g
     inkscape:label="negro"
     inkscape:groupmode="layer"
     id="layer1">
    <g
       transform="translate(-77.290189,61.075222)"
       style="display:none;opacity:1"
       id="layer1-2"
       inkscape:label="Capa 1" />
    <path
       style="fill:black;fill-rule:evenodd;stroke:black;stroke-width:0.26209074px;stroke-linecap:butt;stroke-linejoin:miter;stroke-opacity:1"
       d="m 114.65064,70.006237 -5.05768,13.5801 5.54269,11.50142 -5.61241,-0.97001 -3.20406,2.18251 c -0.12612,-0.006 -0.67597,-0.0341 -0.67597,-0.0341 l -8.521674,0.55396 -10.60112,-11.43246 c 0,0 -1.05524,-0.11499 -2.64402,-0.13566 -3.49537,-0.0456 -9.572229,0.36548 -12.668456,3.46171 -4.503625,4.50359 -1.385298,17.945143 -1.385298,17.945143 l 6.49754,4.92052 a 12.874656,13.038023 0 0 0 -3.013842,8.46483 12.874656,13.038023 0 0 0 1.645977,6.26338 l -1.655832,11.75299 c 0,0 4.410421,8.72033 25.379341,15.87327 20.968654,7.15294 45.767684,0.80935 45.767684,0.80935 l 6.06558,-22.70877 12.71165,-1.61039 c 0,0 6.85915,-6.5822 5.05768,-15.52011 -1.80137,-8.93793 -8.95059,-10.59961 -8.95059,-10.59961 l -16.80462,1.61642 c 0,0 -0.39133,-0.93034 -1.56718,-1.86119 -1.03926,-0.82273 -7.70122,-2.98265 -9.30827,-3.49734 l -1.06095,-1.455763 -2.84105,-1.17766 7.76004,-5.54268 -4.29606,-18.8462 -3.94899,8.5914 -1.5937,-7.62139 -2.14766,5.12742 -0.90105,-4.01872 -2.28633,4.9887 -1.17765,-5.26607 -0.69264,1.03972 -0.0697,-2.49473 -1.52399,2.35606 z m 0.53503,5.04934 1.22463,3.8217 0.93136,-0.93138 0.83283,2.64631 0.3918,-1.02912 0.93061,3.18435 0.58806,0.49032 1.81271,-4.16497 1.42089,2.93956 1.91046,-4.35972 1.76422,7.15229 3.72315,-8.23067 -1.32314,14.89416 -5.97693,5.04632 -4.65451,-0.53881 -4.556,-11.56279 z m -33.327354,11.50141 h 7.7e-4 c 2.65744,-0.0111 4.6659,0.55094 4.6659,0.55094 l 0.16065,0.17351 -0.16671,-0.16982 c 0,0 -7.73461,3.27881 -10.870136,7.00225 -3.135501,3.72345 -5.193337,9.014253 -5.193337,9.014253 l 0.489553,2.74405 3.037333,2.30227 c 0,0 2.302868,-8.965343 5.634387,-12.247863 3.25464,-3.20679 9.09143,-6.04432 9.36285,-6.17546 l 6.52405,7.02647 -0.0204,-0.0129 c 0,0 -7.24989,3.13526 -11.56127,5.682893 -3.58865,2.12053 -6.69879,6.09921 -7.68731,7.43345 l -5.387335,-3.95962 c 0,0 -2.743996,-11.856023 2.449265,-16.461343 2.596397,-2.30243 5.90411,-2.89008 8.56184,-2.90243 z m 23.262004,10.88531 c 0.20592,2.2e-4 0.41468,0.009 0.62141,0.0111 2.10302,0.16428 8.52216,0.70322 14.0689,1.53154 5.75747,1.139583 11.39067,2.839843 16.39313,4.878843 3.25453,1.45202 4.92836,2.31807 5.79807,2.82286 l -0.11518,0.019 c 0,0 6.07544,5.29103 7.0553,8.9165 0.90549,3.35042 0.80835,13.66967 0.78812,15.27609 l -0.10244,0.0111 -6.08452,22.93538 c 0,0 -30.62451,4.29531 -44.620354,-1.52473 -14.97565,-5.52615 -23.66667,-14.45392 -23.66667,-14.45392 l 1.32542,-9.2416 a 12.874656,13.038023 0 0 0 9.64096,4.37337 12.874656,13.038023 0 0 0 12.83214,-13.03826 l -7.8e-4,-0.17203 a 12.874656,13.038023 0 0 0 -13.00112,-12.86548 12.874656,13.038023 0 0 0 -5.49419,1.32163 c 2.15551,-2.09307 5.19173,-4.86013 7.67367,-6.38312 3.74497,-2.298043 7.59585,-3.500673 8.59291,-3.792863 2.6402,-0.42837 5.427314,-0.62654 8.295074,-0.6237 z m 1.527,1.49517 c -12.536104,-0.004 -17.968634,4.419613 -17.968634,4.419613 0,0 14.687494,0.96746 27.092764,3.55189 12.40525,2.58448 32.1944,11.8356 32.1944,11.8356 0,0 -0.15874,-4.01307 -1.65886,-5.70635 -1.50008,-1.69331 -8.83209,-9.95849 -29.82546,-13.282303 -3.67007,-0.58108 -6.94126,-0.8176 -9.83421,-0.81845 z m 52.68051,6.493753 c 0,0 8.23141,3.62521 8.23141,10.58217 0,6.95697 -4.9978,13.62028 -4.9978,13.62028 l -4.80684,0.47363 c 0.0238,-0.11979 1.86055,-9.40912 1.5164,-13.33305 -0.34644,-3.94932 -3.25635,-10.87772 -3.25635,-10.87772 l -1.41257,0.0796 z m -8.1458,0.93894 c 0.25369,0.55932 3.24476,7.20201 3.37762,10.05776 0.13862,2.97931 -1.59371,13.99614 -1.59371,13.99614 l 3.82168,-0.22203 -5.58739,0.55018 c 0.0218,-1.90718 0.0873,-11.5669 -0.88665,-15.81644 -0.80901,-3.53039 -3.82585,-6.56286 -5.28047,-7.85628 z m -47.90548,2.43637 a 2.2518031,2.2518031 0 0 0 -2.22951,2.26666 2.2518031,2.2518031 0 0 0 2.25981,2.23708 2.2518031,2.2518031 0 0 0 2.2439,-2.25225 v -0.0295 a 2.2518031,2.2518031 0 0 0 -2.2742,-2.22192 z m -17.196424,0.74648 a 10.103206,10.405146 0 0 1 10.2025,10.26768 l 7.8e-4,0.13714 a 10.103206,10.405146 0 0 1 -10.06989,10.40484 10.103206,10.405146 0 0 1 -10.135815,-10.33586 10.103206,10.405146 0 0 1 10.002445,-10.47382 z m 27.267064,1.88619 a 2.2518031,2.2518031 0 0 0 -2.2295,2.26664 2.2518031,2.2518031 0 0 0 2.25906,2.23708 2.2518031,2.2518031 0 0 0 2.24465,-2.25223 l -7.6e-4,-0.0297 a 2.2518031,2.2518031 0 0 0 -2.27347,-2.22187 z m -29.708764,1.33073 c -0.81045,-0.0188 -1.68796,0.35059 -2.56066,1.28451 -2.79256,2.98857 -2.10709,10.09218 0.34254,10.28815 2.44965,0.19599 2.49911,-4.80077 2.89107,-4.80078 0,0 3.47852,-0.098 2.93958,-2.89108 -0.3705,-1.91991 -1.82942,-3.83949 -3.61253,-3.8808 z m 44.463494,2.18783 a 13.636805,13.809843 0 0 0 -13.5013,13.90066 13.636805,13.809843 0 0 0 13.68167,13.71803 13.636805,13.809843 0 0 0 13.59146,-13.80973 l -7.6e-4,-0.18255 A 13.636805,13.809843 0 0 0 128.1019,114.95783 Z m 0.0288,2.78876 a 10.701291,11.021105 0 0 1 10.8065,10.87471 l 0.001,0.14545 a 10.701291,11.021105 0 0 1 -10.6663,11.02095 10.701291,11.021105 0 0 1 -10.73601,-10.94821 10.701291,11.021105 0 0 1 10.59431,-11.09295 z m -88.045627,0.94576 -0.53881,3.65725 a 4.5968032,4.4450413 64.219005 0 1 3.972487,2.60158 4.5968032,4.4450413 64.219005 0 1 -1.950624,6.07998 4.5968032,4.4450413 64.219005 0 1 -6.014807,-2.131 l -0.02654,-0.0546 a 4.5968032,4.4450413 64.219005 0 1 0.405436,-4.74547 l -3.130555,-1.95734 a 8.2371388,8.2839403 64.219005 0 0 -0.731298,8.37237 l 0.04781,0.0978 a 8.2371388,8.2839403 64.219005 0 0 6.108029,4.43779 l 2.7198,4.27637 0.492588,-0.10909 c 6.628303,9.66051 9.150542,12.92113 20.788477,16.35447 a 10.435463,9.7495639 18.890714 0 0 6.688503,6.58165 l 0.130369,0.0432 a 10.435463,9.7495639 18.890714 0 0 2.237083,0.47971 c -1.137817,5.11466 -1.669633,11.44593 -0.827544,19.08491 2.743573,24.88833 20.153139,44.27705 31.377483,37.487 11.22438,-6.79004 13.20574,-8.38526 13.20574,-8.38526 0,0 1.17626,-3.91982 3.4299,-5.38961 2.25367,-1.46978 5.87915,-2.05748 5.87915,-2.05748 0,0 4.40951,-15.97147 8.42694,-16.75536 4.01744,-0.78387 4.40899,-0.7836 4.40899,-0.7836 0,0 0.29721,-0.90699 0.33343,-1.01698 0.006,9.27122 -1.24527,12.1709 -7.08408,19.66312 -0.55647,-0.62478 -0.89272,-1.15569 -0.89272,-1.15569 l -0.68583,0.29406 -2.5599,2.01124 a 8.2839403,8.2371388 45.328291 0 0 -7.82902,2.14918 8.2839403,8.2371388 45.328291 0 0 -2.09385,7.98815 l 3.63449,-0.67446 a 4.4450413,4.5968032 45.328291 0 1 1.17538,-4.60072 4.4450413,4.5968032 45.328291 0 1 6.38387,-0.12274 4.4450413,4.5968032 45.328291 0 1 -0.0688,6.38082 l -0.0432,0.0432 a 4.4450413,4.5968032 45.328291 0 1 -4.62043,1.15262 l -0.8389,3.59587 a 8.2839403,8.2371388 45.328291 0 0 8.15791,-2.01885 l 0.0773,-0.0773 a 8.2839403,8.2371388 45.328291 0 0 2.22116,-7.21596 l 3.16541,-3.95732 -0.26296,-0.4312 c 6.99419,-9.39903 9.26325,-12.84062 8.74371,-24.96331 a 9.7495639,10.435463 0 0 0 4.06115,-8.45953 l -7.7e-4,-0.13714 a 9.7495639,10.435463 0 0 0 -5.57755,-9.28708 c -0.88014,-2.34732 -3.58016,-5.26223 -11.66661,-5.32215 -13.22808,-0.098 -29.29753,-0.58814 -38.018244,-4.80154 -8.72072,-4.21337 -13.37171,-9.10822 -13.37171,-9.10822 0,0 -0.12406,0.12367 -0.29857,0.30768 a 10.435463,9.7495639 18.890714 0 0 -4.060394,-2.43033 10.435463,9.7495639 18.890714 0 0 -12.632847,5.03948 c -8.781328,-2.99718 -11.119583,-5.11885 -16.319622,-13.0716 0.771291,-0.3242 1.383026,-0.47059 1.383026,-0.47059 l -0.05602,-0.74419 -1.074583,-3.07296 a 8.2371388,8.2839403 64.219005 0 0 0.501663,-8.10335 8.2371388,8.2839403 64.219005 0 0 -6.880228,-4.56738 z m 85.402347,3.77774 c -0.81048,-0.0188 -1.68797,0.35058 -2.56067,1.2845 -2.79255,2.98855 -2.10631,10.09216 0.3433,10.28813 2.44964,0.19598 2.49835,-4.80154 2.89033,-4.80154 0,0 3.47852,-0.0973 2.93957,-2.89033 -0.37051,-1.91989 -1.82945,-3.83945 -3.61253,-3.88076 z m -35.502274,11.14069 -1.17765,0.485 c -1.17788,0.48502 -3.67239,0.13881 -3.67239,0.13881 0,0 -1.66308,8.38352 14.27274,13.92642 15.935884,5.54291 24.388894,-5.19635 24.388894,-5.19635 0,0 -0.5545,-0.13881 -2.21738,-0.76236 -1.66286,-0.62358 -3.11767,-1.87031 -3.11767,-1.87031 0,0 -10.53153,0.13807 -17.46014,-1.66342 -6.928654,-1.80143 -11.016404,-5.05766 -11.016404,-5.05766 z m -9.82892,17.67763 c 0,0 11.75844,8.7209 24.790524,9.40678 12.45308,0.65544 27.20305,2.34088 28.52354,2.49324 0.30827,0.004 0.4797,0.0539 0.4797,0.0539 0,0 -0.41831,-0.0469 -0.4797,-0.0539 -1.43578,-0.0223 -6.00321,0.96114 -11.82122,12.82531 -7.0672,14.41154 -9.94196,41.70897 -24.933744,41.31702 -18.67536,0.0185 -27.68126,-39.6562 -21.654664,-58.10573 2.351654,-6.85898 5.095584,-7.93662 5.095564,-7.93662 z m 11.29908,9.91833 a 13.636805,13.809843 0 0 0 -13.50129,13.90066 13.636805,13.809843 0 0 0 13.68165,13.71877 13.636805,13.809843 0 0 0 13.591484,-13.80972 l -7.8e-4,-0.18255 A 13.636805,13.809843 0 0 0 91.455316,161.20674 Z m 0.0118,1.33375 h 7.7e-4 a 12.502733,12.476116 0 0 1 0.42589,0.0166 l 0.10163,1.77857 a 10.657476,10.692022 0 0 0 -0.50926,-0.0111 h -7.7e-4 a 10.657476,10.692022 0 0 0 -8.81569,4.85686 l -1.43305,-1.15643 a 12.502733,12.476116 0 0 1 10.23055,-5.48434 z m 5.88749,1.41029 a 12.502733,12.476116 0 0 1 6.738524,10.90047 l 10e-4,0.1652 a 12.502733,12.476116 0 0 1 -0.0356,0.70857 l -1.83846,0.0417 a 10.657476,10.692022 0 0 0 0.028,-0.75022 v -0.14176 a 10.657476,10.692022 0 0 0 -5.874664,-9.40982 z m -5.86173,1.40576 h 0.001 a 9.7711728,9.6594077 0 0 1 0.56078,0.022 l 0.10308,1.8127 a 7.6781465,7.8513368 0 0 0 -0.64262,-0.0266 h -7.8e-4 a 7.6781465,7.8513368 0 0 0 -6.5377,3.87929 l -1.58156,-1.27693 a 9.7711728,9.6594077 0 0 1 8.09728,-4.4105 z m 4.32715,0.96393 a 9.7711728,9.6594077 0 0 1 5.541174,8.5679 v 0.1281 a 9.7711728,9.6594077 0 0 1 -0.0386,0.77072 l -2.103704,0.0469 a 7.6781465,7.8513368 0 0 0 0.0507,-0.81767 v -0.10466 a 7.6781465,7.8513368 0 0 0 -4.4681,-7.01968 z m -4.29987,1.60281 h 7.8e-4 a 7.0396119,7.0930707 0 0 1 7.10833,6.9992 v 0.0932 a 7.0396119,7.0930707 0 0 1 -7.01587,7.09317 7.0396119,7.0930707 0 0 1 -7.06288,-7.04618 7.0396119,7.0930707 0 0 1 6.96965,-7.13941 z m 0.0478,4.68861 a 2.3495876,2.4041438 0 0 0 -2.32649,2.41972 2.3495876,2.4041438 0 0 0 2.35757,2.38865 2.3495876,2.4041438 0 0 0 2.34165,-2.40456 v -0.0318 a 2.3495876,2.4041438 0 0 0 -2.37273,-2.37197 z m -12.3244,0.54639 1.83999,0.0871 a 10.657476,10.692022 0 0 0 -0.14929,1.84074 10.657476,10.692022 0 0 0 5.14028,9.06806 l -1.08293,1.44061 a 12.502733,12.476116 0 0 1 -5.90339,-10.49654 12.502733,12.476116 0 0 1 0.15534,-1.94001 z m 2.738,0.12958 2.10902,0.0993 a 7.6781465,7.8513368 0 0 0 -0.17733,1.68085 7.6781465,7.8513368 0 0 0 3.90048,6.77263 l -1.13748,1.5126 a 9.7711728,9.6594077 0 0 1 -4.85761,-8.27386 9.7711728,9.6594077 0 0 1 0.16292,-1.79148 z m 16.53636,5.10012 1.686914,1.1769 a 9.7711728,9.6594077 0 0 1 -8.582304,5.11071 9.7711728,9.6594077 0 0 1 -1.40576,-0.10835 l 0.0235,-1.82635 a 7.6781465,7.8513368 0 0 0 1.37619,0.12663 7.6781465,7.8513368 0 0 0 6.90146,-4.47947 z m 2.440944,1.70358 1.51335,1.05563 a 12.502733,12.476116 0 0 1 -10.839084,6.34522 12.502733,12.476116 0 0 1 -1.45272,-0.0888 l 0.0227,-1.79829 a 10.657476,10.692022 0 0 0 1.42318,0.10226 10.657476,10.692022 0 0 0 9.332544,-5.61619 z"
       id="path2125"
       inkscape:connector-curvature="0"
       inkscape:export-xdpi="96"
       inkscape:export-ydpi="96" />
    <path
       style="opacity:1;fill:red;fill-opacity:1;fill-rule:nonzero;stroke:none;stroke-width:0.95447487;stroke-linecap:round;stroke-linejoin:round;stroke-miterlimit:4;stroke-dasharray:none;stroke-dashoffset:0;stroke-opacity:1"
       d="m 476.66822,527.08341 c -12.18413,-2.76147 -22.31322,-10.83357 -27.77716,-22.13624 -5.46252,-11.29976 -5.47744,-25.22398 -0.0391,-36.45358 7.25063,-14.97168 21.68084,-23.67267 37.88032,-22.84069 17.14479,0.88052 31.50407,12.67993 36.49904,29.99225 1.64072,5.68663 1.64443,16.3635 0.008,22.0345 -4.01117,13.89766 -14.08765,24.33717 -27.6447,28.64064 -4.60941,1.4632 -14.14145,1.84753 -18.92608,0.76312 z m -7.59145,-20.70857 c 3.03642,-1.57019 4.82715,-4.98603 6.57168,-12.53552 l 1.11372,-4.81964 2.09246,-0.33802 c 4.90224,-0.79193 8.63756,-3.60431 9.42514,-7.09633 1.26506,-5.60914 -3.68642,-15.14683 -9.2656,-17.84767 -1.40086,-0.67814 -3.15026,-1.04851 -4.91881,-1.04136 -9.94706,0.0402 -17.27552,12.48904 -16.47999,27.99449 0.38596,7.52254 1.76376,11.746 4.72507,14.48408 2.29681,2.12367 4.27028,2.47521 6.73633,1.19997 z"
       id="path1750"
       inkscape:connector-curvature="0"
       transform="scale(0.26458333)" />
    <path
       style="opacity:1;fill:red;fill-opacity:1;fill-rule:nonzero;stroke:none;stroke-width:0.95447487;stroke-linecap:round;stroke-linejoin:round;stroke-miterlimit:4;stroke-dasharray:none;stroke-dashoffset:0;stroke-opacity:1"
       d="m 320.85756,491.92289 c -8.60685,-1.25392 -14.93182,-4.4622 -21.25651,-10.78216 -7.81776,-7.81193 -11.40916,-16.43767 -11.46937,-27.54689 -0.0362,-6.67875 0.83339,-10.8481 3.45946,-16.58685 5.0071,-10.94202 14.19344,-18.68388 25.49096,-21.48271 4.70496,-1.1656 12.91332,-1.08602 17.8357,0.17292 11.07984,2.83374 21.35253,11.974 25.7206,22.88523 2.96037,7.39487 3.59159,17.27073 1.58897,24.86039 -3.99189,15.12869 -16.93241,26.61187 -32.1378,28.51846 -4.65058,0.58314 -4.97514,0.58179 -9.23201,-0.0384 z m -8.54026,-23.3022 c 2.31062,-2.02874 3.76681,-5.25137 5.22155,-11.5555 l 1.12205,-4.86241 2.2218,-0.30454 c 3.29602,-0.45177 6.98968,-2.51557 8.30174,-4.63853 0.96881,-1.56757 1.0923,-2.31745 0.87705,-5.32582 -0.60595,-8.46902 -7.5443,-16.13464 -14.58548,-16.11431 -4.42843,0.0128 -10.35294,4.87418 -13.09036,10.7414 -3.94299,8.45114 -4.08827,21.7278 -0.31903,29.15469 2.35922,4.64857 6.82383,5.91384 10.25068,2.90502 z"
       id="path1752"
       inkscape:connector-curvature="0"
       transform="scale(0.26458333)" />
  </g>
  <g
     inkscape:groupmode="layer"
     id="layer20"
     inkscape:label="silueta">
    <path
       sodipodi:nodetypes="ccccccccccccccccccccccccccccc"
       inkscape:connector-curvature="0"
       id="path5151"
       d="m 114.92137,63.711778 c -8.90759,2.01678 -10.20171,13.619471 -11.96088,21.017461 1.50247,2.92324 2.43414,6.02996 -2.04504,5.17561 -6.189614,-3.94464 -10.123703,-12.73538 -18.960983,-11.64296 -11.054691,-0.49913 -21.122785,8.63292 -20.183983,19.977759 -0.558064,5.964912 2.715152,11.768262 5.808594,16.022312 -2.447507,7.5705 2.202842,16.72409 -1.526622,23.41767 -3.698653,1.44765 -7.249107,4.45826 -10.004629,-0.13751 -5.154197,-5.74799 1.69663,-14.42254 -4.806129,-19.94911 -3.895702,-5.87163 -13.248368,-7.24922 -17.560386,-1.63546 -8.945691,-1.5595 -11.074528,11.80612 -7.275047,17.72651 3.535318,6.23955 10.430842,9.08177 13.874154,15.49244 4.664337,6.59985 12.546546,9.67823 18.588629,14.10044 2.455645,2.5463 7.631853,3.73959 4.823317,8.35771 -1.076534,21.42511 7.74392,47.06522 29.146053,55.37062 7.333242,1.80409 14.108822,-3.48378 20.083742,-5.91455 4.37228,1.50591 5.6043,8.34976 11.80621,7.51566 9.07132,0.13216 14.09684,-8.53743 16.18057,-16.01121 5.93575,-8.44364 10.16281,-18.39945 11.06651,-28.48694 5.65066,-7.58748 1.94907,-18.30544 -3.90101,-24.22823 6.18537,-5.39246 4.10774,-15.36675 8.10565,-21.46716 6.74108,-0.5987 13.82385,-2.671 16.50351,-9.58647 7.579,-12.5906 -2.0269,-33.90878 -18.13894,-30.844511 -4.56168,0.864579 -11.11075,1.35142 -14.16059,-1.58962 5.23478,-5.346131 -1.74445,-12.03498 -0.99101,-18.27643 -0.78395,-5.580601 -5.24892,-12.810291 -11.74035,-9.755471 -4.65783,1.08312 -6.94644,0.525 -9.29717,-3.62034 -0.98067,-0.72663 -2.21589,-1.09352 -3.43417,-1.02824 z"
       style="opacity:1;fill:none;fill-opacity:0.12560389;fill-rule:nonzero;stroke:black;stroke-width:1.04747736;stroke-linecap:round;stroke-linejoin:round;stroke-miterlimit:4;stroke-dasharray:none;stroke-dashoffset:0;stroke-opacity:1" />
  </g>
  <g
     inkscape:groupmode="layer"
     id="layer19"
     inkscape:label="morado">
    <path
       style="opacity:1;fill:#ff1493;fill-opacity:1;fill-rule:nonzero;stroke:none;stroke-width:0.17857143;stroke-linecap:round;stroke-linejoin:round;stroke-miterlimit:4;stroke-dasharray:none;stroke-dashoffset:0;stroke-opacity:1"
       d="m 89.965331,181.79973 c -2.26413,-0.54906 -4.181637,-2.34102 -4.94987,-4.62578 -0.365159,-1.086 -0.423325,-2.60161 -0.144566,-3.76679 0.580552,-2.42661 2.422462,-4.37727 4.829054,-5.11417 0.773821,-0.23694 2.43914,-0.29006 3.307291,-0.10549 0.868334,0.18462 2.021393,0.72952 2.816791,1.33114 1.172716,0.88703 2.122102,2.37278 2.484732,3.88852 0.278762,1.16518 0.220593,2.68079 -0.144566,3.76679 -0.77575,2.30711 -2.69689,4.08886 -4.992301,4.63008 -0.737786,0.17395 -2.48116,0.17162 -3.206565,-0.004 z m 2.674099,-4.5166 c 0.445553,-0.2159 0.899895,-0.66642 1.153332,-1.14361 0.268057,-0.50473 0.289462,-1.7373 0.03821,-2.20071 -0.262433,-0.48405 -0.725591,-0.9635 -1.145519,-1.18583 -0.548151,-0.29022 -1.645217,-0.28907 -2.19578,0.002 -1.180346,0.62466 -1.69009,2.21729 -1.087644,3.39819 0.235061,0.46075 0.929164,1.0933 1.357672,1.23727 0.440087,0.14786 1.474751,0.0886 1.879725,-0.10762 z"
       id="path1756"
       inkscape:connector-curvature="0" />
  </g>
  <g
     inkscape:groupmode="layer"
     id="layer16"
     inkscape:label="amarillo">
    <path
       style="opacity:1;fill:yellow;fill-opacity:1;fill-rule:nonzero;stroke:none;stroke-width:0.50507629;stroke-linecap:round;stroke-linejoin:round;stroke-miterlimit:4;stroke-dasharray:none;stroke-dashoffset:0;stroke-opacity:1"
       d="m 75.109319,108.93906 c -0.549498,-0.39097 -0.999085,-0.79855 -0.999085,-0.90573 0,-0.10718 0.491307,-1.62143 1.091797,-3.365 1.406713,-4.08452 2.952383,-7.038853 4.530059,-8.658595 1.336826,-1.372465 5.28384,-4.088789 7.772992,-5.349349 l 1.501352,-0.760317 3.112543,3.386209 3.112539,3.386209 -5.084267,2.460913 c -2.796347,1.3535 -5.910181,3.00998 -6.919632,3.68106 -1.740371,1.157 -6.711959,6.02959 -6.711959,6.57831 0,0.4138 -0.342307,0.30336 -1.406339,-0.45371 z"
       id="path1740"
       inkscape:connector-curvature="0" />
    <path
       style="opacity:1;fill:yellow;fill-opacity:1;fill-rule:nonzero;stroke:none;stroke-width:0.35714287;stroke-linecap:round;stroke-linejoin:round;stroke-miterlimit:4;stroke-dasharray:none;stroke-dashoffset:0;stroke-opacity:1"
       d="m 70.403916,102.08222 c -0.0693,-0.0693 -0.125992,-1.24878 -0.125992,-2.621078 0,-6.948789 2.039017,-10.446348 7.072233,-12.131108 1.415878,-0.473933 1.759987,-0.511519 4.739521,-0.517695 1.888498,-0.0039 3.348432,0.07395 3.541847,0.188902 0.273336,0.162449 -0.04532,0.386432 -1.882089,1.322917 -3.036959,1.548405 -5.955435,3.506007 -7.436514,4.988123 -1.517449,1.518516 -3.283112,4.158578 -4.585539,6.856419 -0.965327,1.99956 -1.076577,2.16041 -1.323467,1.91352 z"
       id="path1742"
       inkscape:connector-curvature="0" />
    <path
       style="opacity:1;fill:yellow;fill-opacity:1;fill-rule:nonzero;stroke:none;stroke-width:0.35714287;stroke-linecap:round;stroke-linejoin:round;stroke-miterlimit:4;stroke-dasharray:none;stroke-dashoffset:0;stroke-opacity:1"
       d="m 114.18661,155.10464 c -2.86679,-0.1968 -6.9549,-0.70474 -9.02731,-1.12163 -8.685623,-1.74722 -19.896739,-7.56372 -27.967107,-14.50977 -0.961475,-0.82753 -1.748139,-1.65108 -1.748139,-1.83011 0,-0.48253 1.154538,-8.39613 1.237048,-8.47916 0.0389,-0.0392 0.49207,0.28158 1.007034,0.71274 1.405511,1.17676 2.969064,2.0548 4.653984,2.61352 1.313251,0.43548 1.822299,0.50121 3.874256,0.50029 2.085047,-0.001 2.539826,-0.0622 3.874254,-0.52196 2.260275,-0.77872 3.41843,-1.51669 5.224368,-3.32894 2.619983,-2.62916 3.744208,-5.38199 3.749775,-9.1819 0.0092,-6.27852 -4.090294,-11.45585 -10.145376,-12.81282 -2.114037,-0.47377 -5.207373,-0.31225 -6.908006,0.36068 -0.73396,0.29043 -0.240221,-0.32641 1.435999,-1.79404 2.71172,-2.37428 4.447024,-3.60119 6.87609,-4.86162 2.835383,-1.471254 5.568981,-2.485237 7.610157,-2.822862 2.448033,-0.404921 7.281373,-0.535469 10.205353,-0.275645 4.72002,0.419417 10.66092,1.165675 12.94569,1.626153 4.56784,0.920614 11.84534,3.168134 15.57986,4.811534 4.20955,1.85245 4.88326,2.28327 7.14298,4.56778 3.72138,3.76219 4.95652,5.74602 5.33696,8.57202 0.25962,1.92856 0.63779,11.19694 0.51278,12.56771 -0.12268,1.34533 -6.08291,23.63725 -6.36685,23.81273 -0.25691,0.15878 -4.96315,0.6681 -9.82701,1.06351 -3.2673,0.26562 -16.83811,0.4992 -19.27679,0.33179 z m -3.94152,-5.37428 c 4.54045,-0.46163 8.07595,-1.90769 11.60483,-4.74653 1.27993,-1.02965 2.15509,-1.97362 1.95344,-2.10703 -0.0401,-0.0265 -0.54059,-0.20689 -1.11228,-0.40085 -1.27954,-0.43412 -2.74299,-1.15379 -3.49628,-1.71935 -0.52982,-0.39778 -0.86443,-0.43938 -5.10741,-0.63506 -7.44498,-0.34335 -11.32867,-0.92075 -15.47262,-2.30036 -2.401438,-0.79949 -5.748211,-2.39144 -7.542895,-3.5879 l -1.097629,-0.73175 -0.974292,0.38403 c -0.753292,0.29692 -1.306623,0.37033 -2.439405,0.32365 -1.693556,-0.0698 -1.676596,-0.0914 -1.434531,1.82951 0.09096,0.72184 0.427696,1.71325 0.926571,2.72801 1.865116,3.79385 6.754595,7.25784 13.362151,9.46654 3.15816,1.05567 4.57121,1.33122 8.56249,1.66973 0.17089,0.0145 1.19142,-0.0632 2.26786,-0.17264 z m 19.59302,-7.17841 c 4.94674,-0.62027 9.34652,-4.01715 11.15631,-8.61328 1.61221,-4.09439 1.15105,-8.97861 -1.19386,-12.64429 -5.03841,-7.87631 -16.12951,-8.613 -22.08242,-1.46676 -1.18018,1.41675 -2.47254,4.10212 -2.88032,5.98494 -0.4115,1.90003 -0.28907,5.32404 0.25079,7.01337 1.6666,5.21514 5.98931,8.95539 11.21338,9.70244 1.69249,0.24202 1.78887,0.24266 3.53612,0.0236 z m 18.17737,-24.36024 c 0,-0.84408 -0.53032,-3.18314 -0.91943,-4.05528 -1.32725,-2.97485 -8.1199,-7.68645 -14.96799,-10.38226 -5.73308,-2.25688 -13.58143,-4.05695 -20.37034,-4.672083 -3.55933,-0.322503 -9.87639,-0.144116 -12.690153,0.358357 -3.830949,0.684116 -7.182691,1.830456 -9.572445,3.273916 l -1.042069,0.62942 1.007776,0.13332 c 0.554279,0.0733 2.538582,0.269 4.409565,0.43485 6.898216,0.61146 16.127996,1.91353 21.468476,3.02863 4.90333,1.02382 11.00425,2.97173 18.33907,5.85531 4.09929,1.61157 9.95622,4.07901 12.25867,5.1644 0.88352,0.4165 1.71271,0.76374 1.84264,0.77164 0.13859,0.008 0.23623,-0.21486 0.23623,-0.54022 z m -33.73244,-2.36334 c 0.75047,-0.31357 1.41375,-1.28013 1.41477,-2.06168 0.004,-2.67057 -3.70872,-3.28819 -4.54439,-0.75607 -0.48614,1.47299 0.54384,2.88438 2.23606,3.06412 0.13327,0.0142 0.53537,-0.0967 0.89356,-0.24637 z m -9.55026,-2.90563 c 0.26229,-0.19403 0.59847,-0.69673 0.74706,-1.1171 0.80507,-2.27768 -2.09613,-4.07727 -3.81005,-2.36336 -2.00985,2.00985 0.77432,5.17348 3.06299,3.48046 z"
       id="path1744"
       inkscape:connector-curvature="0" />
    <path
       style="opacity:1;fill:yellow;fill-opacity:1;fill-rule:nonzero;stroke:none;stroke-width:0.25253814;stroke-linecap:round;stroke-linejoin:round;stroke-miterlimit:4;stroke-dasharray:none;stroke-dashoffset:0;stroke-opacity:1"
       d="m 157.95938,129.61164 c 0.0436,-0.2032 0.25472,-1.42183 0.46916,-2.70807 0.73724,-4.42213 0.87608,-5.7917 0.87379,-8.61944 -0.002,-2.48751 -0.0282,-2.77454 -0.37759,-4.14267 -0.42819,-1.67656 -1.74281,-5.66554 -2.35215,-7.13719 -0.22545,-0.5445 -0.38278,-1.01712 -0.34962,-1.05028 0.0332,-0.0332 0.73808,-0.13843 1.56647,-0.23393 l 1.50618,-0.17363 0.67305,0.34073 c 2.76622,1.4004 5.50476,4.04425 6.60823,6.37975 0.6906,1.46166 0.85131,2.40632 0.77357,4.54724 -0.077,2.11996 -0.48446,3.97769 -1.36305,6.21402 -0.63589,1.61857 -2.03104,4.33867 -2.84448,5.54584 l -0.63034,0.93544 -1.33634,0.14579 c -0.735,0.0802 -1.77731,0.1863 -2.31625,0.23582 l -0.9799,0.09 z"
       id="path1746"
       inkscape:connector-curvature="0" />
    <path
       style="opacity:1;fill:yellow;fill-opacity:1;fill-rule:nonzero;stroke:none;stroke-width:0.25253814;stroke-linecap:round;stroke-linejoin:round;stroke-miterlimit:4;stroke-dasharray:none;stroke-dashoffset:0;stroke-opacity:1"
       d="m 151.30572,126.60471 c -0.13809,-6.17611 -0.43663,-9.8958 -0.95829,-11.94015 -0.27154,-1.06416 -1.21704,-2.98477 -2.0403,-4.14449 -0.3704,-0.52178 -1.16758,-1.47071 -1.77151,-2.10872 -0.60393,-0.63801 -1.07146,-1.18662 -1.03895,-1.21913 0.10738,-0.10738 5.52146,-0.70373 5.61179,-0.61813 0.30144,0.28567 2.27739,5.41407 2.86417,7.43373 0.35428,1.21942 0.38762,1.51174 0.38102,3.34087 -0.004,1.10249 -0.11539,2.90656 -0.2476,4.00904 -0.3347,2.79107 -1.21847,9.00286 -1.28982,9.06578 -0.0324,0.0286 -0.36522,0.091 -0.73952,0.13873 l -0.68056,0.0867 z"
       id="path1748"
       inkscape:connector-curvature="0" />
  </g>
  <g
     inkscape:groupmode="layer"
     id="layer17"
     inkscape:label="verde">
    <path
       style="opacity:1;fill:#7fff00;fill-opacity:1;fill-rule:nonzero;stroke:none;stroke-width:0.35714287;stroke-linecap:round;stroke-linejoin:round;stroke-miterlimit:4;stroke-dasharray:none;stroke-dashoffset:0;stroke-opacity:1"
       d="m 93.660343,216.85285 c -1.477026,-0.39804 -3.095861,-1.09697 -4.23599,-1.82887 -7.64199,-4.90575 -13.469554,-17.41347 -15.611648,-33.50733 -0.476308,-3.57858 -0.479099,-13.31253 -0.0047,-16.30376 0.912839,-5.75543 2.723328,-10.28655 5.095759,-12.75319 l 1.086808,-1.12996 0.519591,0.34386 c 6.860533,4.54031 13.980711,7.55213 20.46518,8.65673 0.98992,0.16862 3.75322,0.43405 6.14067,0.58983 7.52647,0.4911 24.78229,2.04341 24.98664,2.24776 0.0335,0.0335 -0.42499,0.29862 -1.01886,0.58917 -2.12202,1.03821 -5.1148,4.3821 -7.41243,8.28206 -2.63082,4.46552 -3.95334,7.71631 -7.57055,18.60868 -2.90649,8.75217 -4.22156,12.23166 -5.90593,15.62626 -2.94909,5.94344 -6.48315,9.55386 -10.362241,10.5861 -1.318424,0.35085 -4.858824,0.34663 -6.172324,-0.007 z m 1.260062,-28.35154 c 0.675632,-0.15859 1.951302,-0.64265 2.834822,-1.07567 1.319956,-0.64693 1.928234,-1.10915 3.411283,-2.5922 1.48947,-1.48948 1.94159,-2.08561 2.58716,-3.41129 0.99596,-2.04521 1.35966,-3.42189 1.49968,-5.67667 0.26019,-4.18984 -1.33005,-8.09867 -4.48206,-11.01695 -2.533068,-2.34523 -5.663944,-3.54273 -9.25267,-3.53896 -4.336979,0.005 -7.834704,1.70968 -10.660677,5.19703 -4.618437,5.69932 -3.665021,14.78042 2.036096,19.39341 3.437435,2.78135 7.680447,3.74146 12.026366,2.7213 z"
       id="path1754"
       inkscape:connector-curvature="0" />
  </g>
  <g
     inkscape:groupmode="layer"
     id="layer18"
     inkscape:label="azul">
    <path
       style="opacity:1;fill:#00bfff;fill-opacity:1;fill-rule:nonzero;stroke:none;stroke-width:0.08928572;stroke-linecap:round;stroke-linejoin:round;stroke-miterlimit:4;stroke-dasharray:none;stroke-dashoffset:0;stroke-opacity:1"
       d="m 99.357524,174.77727 c -0.01905,-0.67039 -0.05244,-1.03372 -0.126944,-1.38198 -0.448564,-2.09668 -1.662759,-3.90891 -3.379317,-5.04377 -0.233873,-0.15461 -0.525566,-0.33214 -0.648203,-0.3945 l -0.22298,-0.11338 0.429006,-0.66139 c 0.235953,-0.36377 0.448622,-0.6614 0.472596,-0.6614 0.132165,0 0.972947,0.49647 1.496528,0.88367 2.385412,1.7641 3.83666,4.60194 3.8415,7.51189 5.3e-4,0.37043 -0.0124,0.6953 -0.0288,0.72193 -0.0187,0.0303 -0.36269,0.0484 -0.91872,0.0484 h -0.888793 z"
       id="path1758"
       inkscape:connector-curvature="0" />
    <path
       style="opacity:1;fill:#00bfff;fill-opacity:1;fill-rule:nonzero;stroke:none;stroke-width:0.08928572;stroke-linecap:round;stroke-linejoin:round;stroke-miterlimit:4;stroke-dasharray:none;stroke-dashoffset:0;stroke-opacity:1"
       d="m 102.35277,174.91901 c -0.003,-1.6483 -0.36267,-3.16264 -1.11227,-4.68927 -0.92881,-1.89156 -2.374471,-3.45919 -4.165777,-4.51723 -0.270124,-0.15955 -0.491133,-0.30115 -0.491133,-0.31468 0,-0.0135 0.183422,-0.30905 0.407601,-0.65671 l 0.407601,-0.63211 0.265669,0.1478 c 0.906869,0.50454 1.869548,1.24135 2.677449,2.04925 1.00398,1.00398 1.72812,2.01442 2.3379,3.26223 0.45622,0.93356 0.66334,1.48967 0.8963,2.40651 0.2545,1.00163 0.33796,1.6126 0.36566,2.67686 l 0.0241,0.92564 -0.43835,0.0311 c -0.24109,0.0171 -0.60369,0.0311 -0.80578,0.0311 h -0.36744 l -0.002,-0.72052 z"
       id="path1760"
       inkscape:connector-curvature="0" />
    <path
       style="opacity:1;fill:#00bfff;fill-opacity:1;fill-rule:nonzero;stroke:none;stroke-width:0.08928572;stroke-linecap:round;stroke-linejoin:round;stroke-miterlimit:4;stroke-dasharray:none;stroke-dashoffset:0;stroke-opacity:1"
       d="m 91.221055,184.53808 c -0.103945,-0.008 -0.343133,-0.0279 -0.53153,-0.0433 l -0.342543,-0.0281 v -0.77978 -0.77979 l 0.413412,0.0378 c 0.558652,0.0511 1.43429,0.0376 1.885669,-0.0291 2.412273,-0.35655 4.51421,-1.80588 5.700962,-3.93093 l 0.227904,-0.4081 0.717034,0.50034 c 0.394372,0.27519 0.725617,0.50699 0.736097,0.51512 0.0297,0.023 -0.405797,0.71164 -0.683162,1.08038 -1.697043,2.25611 -4.252873,3.64393 -7.087052,3.84827 -0.36235,0.0261 -0.701339,0.0441 -0.753311,0.04 -0.05197,-0.004 -0.179539,-0.0144 -0.28348,-0.0228 z"
       id="path1762"
       inkscape:connector-curvature="0" />
    <path
       style="opacity:1;fill:#00bfff;fill-opacity:1;fill-rule:nonzero;stroke:none;stroke-width:0.08928572;stroke-linecap:round;stroke-linejoin:round;stroke-miterlimit:4;stroke-dasharray:none;stroke-dashoffset:0;stroke-opacity:1"
       d="m 90.524161,187.32477 -0.224425,-0.0204 7.94e-4,-0.71792 c 5.29e-4,-0.39487 0.01699,-0.7435 0.03684,-0.77476 0.0278,-0.0437 0.182454,-0.0453 0.670999,-0.007 1.045797,0.082 2.5043,-0.0826 3.571547,-0.40322 2.666775,-0.8011 4.834848,-2.48341 6.269274,-4.86463 l 0.15746,-0.26139 0.64722,0.45321 0.64721,0.45321 -0.1253,0.21722 c -0.41996,0.72802 -1.15725,1.65981 -1.8865,2.38417 -1.855943,1.84349 -4.289922,3.05968 -6.91842,3.45692 -0.528262,0.0798 -2.31521,0.13296 -2.846634,0.0846 z"
       id="path1764"
       inkscape:connector-curvature="0" />
    <path
       style="opacity:1;fill:#00bfff;fill-opacity:1;fill-rule:nonzero;stroke:none;stroke-width:0.08928572;stroke-linecap:round;stroke-linejoin:round;stroke-miterlimit:4;stroke-dasharray:none;stroke-dashoffset:0;stroke-opacity:1"
       d="m 86.186846,182.89546 c -0.941644,-0.64048 -1.741545,-1.40116 -2.377104,-2.26056 -1.335013,-1.80521 -2.010508,-4.11204 -1.832914,-6.25948 0.03169,-0.38315 0.0704,-0.75689 0.08603,-0.83051 l 0.02842,-0.13387 0.619763,0.0288 c 0.340868,0.0159 0.755107,0.0408 0.920533,0.0555 l 0.30077,0.0267 -0.02894,0.17283 c -0.335687,2.00519 0.12768,4.14317 1.263624,5.83034 0.549777,0.81656 1.338215,1.60889 2.094214,2.10454 0.18801,0.12327 0.331078,0.24903 0.320429,0.28168 -0.01543,0.0473 -0.798222,1.11572 -0.917398,1.25216 -0.01704,0.0195 -0.231883,-0.10117 -0.47743,-0.26819 z"
       id="path1766"
       inkscape:connector-curvature="0" />
    <path
       style="opacity:1;fill:#00bfff;fill-opacity:1;fill-rule:nonzero;stroke:none;stroke-width:0.08928572;stroke-linecap:round;stroke-linejoin:round;stroke-miterlimit:4;stroke-dasharray:none;stroke-dashoffset:0;stroke-opacity:1"
       d="m 84.482657,185.10679 c -2.854103,-2.01501 -4.705276,-5.08175 -5.172839,-8.56957 -0.09555,-0.71276 -0.106501,-2.09058 -0.02196,-2.76395 0.03262,-0.25986 0.06288,-0.47623 0.06723,-0.48082 0.01402,-0.0148 1.552958,0.0739 1.5695,0.0905 0.0088,0.009 -0.0075,0.16398 -0.03621,0.3449 -0.08492,0.53541 -0.06977,2.13002 0.02646,2.78342 0.09736,0.66112 0.337341,1.62469 0.551643,2.2149 0.224253,0.61761 0.793502,1.7343 1.175197,2.30536 0.74821,1.11943 1.808213,2.18859 2.898458,2.92351 0.173474,0.11693 0.316082,0.22893 0.316905,0.24888 0.0018,0.0469 -0.863161,1.21108 -0.901894,1.21375 -0.01611,0.001 -0.228737,-0.13877 -0.472469,-0.31084 z"
       id="path1768"
       inkscape:connector-curvature="0" />
    <path
       style="opacity:1;fill:#00bfff;fill-opacity:1;fill-rule:nonzero;stroke:none;stroke-width:0.08928572;stroke-linecap:round;stroke-linejoin:round;stroke-miterlimit:4;stroke-dasharray:none;stroke-dashoffset:0;stroke-opacity:1"
       d="m 84.252882,170.30162 c -0.35039,-0.28388 -0.64353,-0.53552 -0.651422,-0.55919 -0.02516,-0.0755 0.552881,-0.81281 0.99909,-1.27448 1.48554,-1.53699 3.361722,-2.52229 5.462953,-2.86892 0.544094,-0.0898 1.817174,-0.14978 1.855671,-0.0875 0.01492,0.0241 0.04243,0.37807 0.06111,0.78647 l 0.03396,0.74256 h -0.429612 c -1.519095,0 -3.034734,0.47991 -4.379576,1.38674 -0.566738,0.38216 -1.563444,1.38017 -1.953432,1.95598 -0.162796,0.24038 -0.310769,0.43646 -0.328832,0.43575 -0.01807,-7.9e-4 -0.319522,-0.23355 -0.66991,-0.51742 z"
       id="path1770"
       inkscape:connector-curvature="0" />
    <path
       style="opacity:1;fill:#00bfff;fill-opacity:1;fill-rule:nonzero;stroke:none;stroke-width:0.08928572;stroke-linecap:round;stroke-linejoin:round;stroke-miterlimit:4;stroke-dasharray:none;stroke-dashoffset:0;stroke-opacity:1"
       d="m 82.055132,168.52513 c -0.31183,-0.24875 -0.586479,-0.47125 -0.610331,-0.49443 -0.11476,-0.11155 1.315046,-1.72963 2.167475,-2.45288 1.666671,-1.41411 3.71915,-2.36005 5.947148,-2.74089 0.600696,-0.10268 1.929722,-0.20405 2.098058,-0.16002 0.118928,0.0311 0.135192,0.11859 0.180994,0.97368 l 0.02973,0.55516 h -0.441984 c -0.54669,0 -1.489829,0.10765 -2.104263,0.24018 -1.594536,0.34393 -3.358318,1.20359 -4.594869,2.23951 -0.67096,0.5621 -1.687809,1.6715 -1.970156,2.14948 -0.04639,0.0785 -0.0957,0.14271 -0.109591,0.14264 -0.01389,-8e-5 -0.280381,-0.20367 -0.592211,-0.45243 z"
       id="path1772"
       inkscape:connector-curvature="0" />
  </g>
</svg>
