<?xml version="1.0" encoding="UTF-8" standalone="no"?>
<!-- Created with Inkscape (http://www.inkscape.org/) -->

<svg
   xmlns:dc="http://purl.org/dc/elements/1.1/"
   xmlns:cc="http://creativecommons.org/ns#"
   xmlns:rdf="http://www.w3.org/1999/02/22-rdf-syntax-ns#"
   xmlns:svg="http://www.w3.org/2000/svg"
   xmlns="http://www.w3.org/2000/svg"
   xmlns:sodipodi="http://sodipodi.sourceforge.net/DTD/sodipodi-0.dtd"
   xmlns:inkscape="http://www.inkscape.org/namespaces/inkscape"
   width="99mm"
   height="99mm"
   viewBox="0 0 99 99"
   version="1.1"
   id="svg1688"
   inkscape:version="0.91 r13725"
   sodipodi:docname="Robot_capas.svg">
  <sodipodi:namedview
     id="base"
     pagecolor="#ffffff"
     bordercolor="#666666"
     borderopacity="1.0"
     inkscape:pageopacity="0.0"
     inkscape:pageshadow="2"
     inkscape:zoom="1.979899"
     inkscape:cx="169.21515"
     inkscape:cy="183.87179"
     inkscape:document-units="mm"
     inkscape:current-layer="layer21"
     showgrid="false"
     inkscape:window-width="1022"
     inkscape:window-height="941"
     inkscape:window-x="871"
     inkscape:window-y="32"
     inkscape:window-maximized="0" />
  <defs
     id="defs1682" />
  <metadata
     id="metadata1685">
    <rdf:RDF>
      <cc:Work
         rdf:about="">
        <dc:format>image/svg+xml</dc:format>
        <dc:type
           rdf:resource="http://purl.org/dc/dcmitype/StillImage" />
        <dc:title></dc:title>
      </cc:Work>
    </rdf:RDF>
  </metadata>
  <g
     style="display:inline"
     inkscape:label="SilkS"
     id="layer21"
     inkscape:groupmode="layer">
    <path
       style="display:inline;opacity:1;fill:#000000;fill-opacity:1;fill-rule:nonzero;stroke:none;stroke-width:0.25253814;stroke-linecap:round;stroke-linejoin:round;stroke-miterlimit:4;stroke-dasharray:none;stroke-dashoffset:0;stroke-opacity:1"
       d="M64.901982 46.354825L63.5281186406 45.8763149687L62.314372875 45.11450425L61.2993319219 44.1001441562L60.521583 42.863986L60.0366024063 41.4630290469L59.873855 39.985509375L60.0334215938 38.5100640156L60.515383 37.11533L61.5718985938 35.5380296563L62.973003 34.379789L64.6387096563 33.6888373438L66.489032 33.513404L67.4803027891 33.6445228984L68.4182341875 33.9270781875L69.2906683672 34.3510796328L70.0854475 34.906537L70.7904137578 35.5834600547L71.3934093125 36.3718585625L71.8822763359 37.2617422891L72.244857 38.243121L72.439281 39.981438625L72.246057 41.717915L71.5986690781 43.2527894531L70.630811875 44.543569375L69.3806987344 45.5506638594L67.886543 46.234482L66.404604125 46.445312L64.901942 46.354825L64.901982 46.354825M63.704827 43.089128L64.29939525 42.454310375L64.741169 41.112302L64.916799 40.352252L65.246776 40.298962L66.23326475 39.899099L66.557177125 39.569499625L66.733098 39.179886L66.7126817031 38.4268375781L66.407264375 37.600626375L65.8994728594 36.8604092344L65.271934 36.365343L64.496251 36.201126L63.9290662969 36.2923372617L63.4107696875 36.5497232812L62.56153725 37.493883L62.0299466875 38.8953319687L61.897391 40.615797L62.117657375 42.0407905L62.642522 42.899909L63.163665375 43.195524125L63.704827 43.08914L63.704827 43.089128"
       id="path1884-6"
       inkscape:connector-curvature="0" />
    <path
       style="display:inline;opacity:1;fill:#000000;fill-opacity:1;fill-rule:nonzero;stroke:none;stroke-width:0.25253814;stroke-linecap:round;stroke-linejoin:round;stroke-miterlimit:4;stroke-dasharray:none;stroke-dashoffset:0;stroke-opacity:1"
       d="M40.330961 40.810082L39.3748484531 40.6011394062L38.519947375 40.25951075L37.7325258594 39.7680864687L36.978852 39.109757L36.1774718906 38.1576375938L35.615748375 37.1327065L35.2834031719 36.0102799062L35.170158 34.765674L35.285384875 33.40222675L35.715704 32.149958L36.4263903125 30.9547269844L37.353647 29.974508875L38.4668999375 29.2350713281L39.735575 28.762182L41.1290455 28.632432L42.548229 28.789422L43.8222537813 29.2998755313L44.97318575 30.116222L45.9256620938 31.1714067188L46.60432 32.398375L46.884831375 33.334604125L47.02310075 34.34707075L47.01462325 35.365297L46.854894 36.318805L46.1346317813 37.9857219219L44.98399125 39.349369125L43.5017850938 40.3220602656L41.786826 40.816109L40.330961 40.810009L40.330961 40.810082M38.98418 37.135375L39.44650575 36.477069375L39.807604 35.313098L39.984552 34.546301L40.334924 34.498261L41.106831875 34.231346625L41.644091 33.766772L41.783267125 33.432042L41.782398 32.926903L41.5388448594 31.9659569687L41.012910625 31.1542735L40.2966955781 30.5936060313L39.4823 30.385708L38.9258364531 30.5210261094L38.350136625 30.886364625L37.8244379844 31.4248498281L37.417978 32.079608L37.0642065781 33.1955315L36.936747375 34.43899475L37.0373284844 35.652172625L37.367678 36.67724L37.7012190313 37.1248072969L38.112797 37.359128875L38.5559432188 37.3670350156L38.984189 37.135356L38.98418 37.135375"
       id="path1886-7"
       inkscape:connector-curvature="0" />
    <path
       inkscape:connector-curvature="0"
       id="path1920-5"
       d="M57.814461 4.9346499L54.810805 13.109996L58.274627 20.037309L55.064306 19.502306L53.632693 20.784833L56.587359375 21.016496125L59.2126982031 21.3183264219L61.654046 21.755046L65.70909125 22.85334475L67.652102 23.444756L67.133436 22.457294L65.142186 21.581331L70.040679 17.857565L67.830128 7.7023721L65.48068 12.322121L64.664169 7.4833816L63.091179 10.549867L62.792422 8.3396323L61.23916 11.22686L60.761447 8.2598593L60.183942 8.7776133L60.163912 7.2443695L59.447197 8.220126L57.814461 4.9346499M58.387347 7.9848122L59.035076 9.8716429L59.541744 9.1955743L59.964331 11.026041L60.189491 10.547404L61.344185 12.884537L62.273434 11.054378L63.202689 12.096047L64.44178 9.7305772L65.371035 13.560605L67.539382 9.8433061L66.75089 17.531081L63.231024 20.713377L60.302211 20.431553L57.542495 13.194388L58.387347 7.9848122"
       style="display:inline;fill:#000000;fill-rule:evenodd;stroke:#000000;stroke-width:0.15769795px;stroke-linecap:butt;stroke-linejoin:miter;stroke-opacity:1" />
    <path
       d="M76.611619 67.2005540503L76.5238133738 68.1054974979L76.2719411477 68.9486298246L75.8733193005 69.7119391689L75.3452648107 70.3774136693L74.705094657 70.9270414641L73.9701258182 71.3428106919L73.157675273 71.606709491L72.28506 71.700726L71.411864543 71.6126876776L70.5977499865 71.3543586847L69.8601477134 70.9436319025L69.2164891065 70.3984002124L68.6842055488 69.7365564957L68.2807284232 68.9759936339L68.0234891126 68.1346045082L67.929919 67.230282L68.0119562484 66.3247569161L68.2584504057 65.4799180115L68.6521996428 64.7138953514L69.1760021303 64.044819001L69.812656039 63.4908190255L70.5449595397 63.07002549L71.3557108031 62.8005684598L72.227708 62.700578L73.1014453933 62.7826344656L73.9171882806 63.0353824926L74.6573916445 63.441048966L75.3045104675 63.9818607706L75.8409997321 64.6400447914L76.2493144207 65.3978279133L76.5119095158 66.2374370212L76.61124 67.141099"
       sodipodi:open="true"
       sodipodi:end="6.2699732"
       sodipodi:start="0"
       sodipodi:ry="4.5001965"
       sodipodi:rx="4.3408976"
       sodipodi:cy="67.200554"
       sodipodi:cx="72.270721"
       sodipodi:type="arc"
       id="path1926-3"
       style="display:inline;fill:#000000;fill-rule:evenodd;stroke:none;stroke-width:0.26458332px;stroke-linecap:butt;stroke-linejoin:miter;stroke-opacity:1" />
    <path
       inkscape:connector-curvature="0"
       id="path1928-5"
       d="M74.74851 72.640976L72.185917 73.401126L72.214015875 75.147157625L71.9482111094 77.2029247031L71.228345 79.934506L70.1036935312 82.5252732187L68.94736 84.2712425L68.0444687187 85.2568812813L67.680144 85.566657L66.835275 85.172411L65.688275 85.948887L64.7044138865 85.617647081L63.675467 85.510613L62.6996579152 85.6229159663L61.7923846306 85.9255720236L60.9728971332 86.3982167563L60.26044541 87.0204857486L59.6742794481 87.7720145848L59.2336492344 88.6324388492L58.957804756 89.5813941262L58.865996 90.598516L59.068966 91.997783L61.189577 91.350674L61.062677 90.582191L61.2640400077 89.5690114621L61.8265144977 88.7383072058L62.6657362388 88.1740378467L63.697341 87.960163L64.7330749785 88.153945359L65.5835739941 88.7017885288L66.1627885127 89.5213906842L66.384669 90.53045L66.384985 90.56496L66.1767235199 91.5768224758L65.6085887116 92.4038492085L64.7655202974 92.962629087L63.732458 93.169751L62.959362 93.05917L62.761005 95.513662L63.739837 95.619623L64.7163060903 95.5140055464L65.6254495258 95.2175805893L66.4478902461 94.7505782489L67.1642511905 94.1332286453L67.7551552986 93.3857618985L68.2012255099 92.5284081286L68.4830847639 91.5813974557L68.581356 90.56496L68.58104 90.49813L68.306613 88.90205L69.623331 87.5379L69.566951 86.946537L71.56599475 84.316662125L73.158750875 81.8953867031L74.34162 79.506391L74.842024 77.2071945L74.933351 74.98349L74.748496 72.640995L74.74851 72.640976"
       style="display:inline;fill:#000000;fill-rule:evenodd;stroke:none;stroke-width:0.26458332px;stroke-linecap:butt;stroke-linejoin:miter;stroke-opacity:1" />
    <path
       transform="matrix(-0.39862887,0.91711233,-0.91711233,-0.39862887,0,0)"
       inkscape:transform-center-y="0.19680639"
       inkscape:transform-center-x="1.0802769"
       style="display:inline;fill:#000000;fill-rule:evenodd;stroke:none;stroke-width:0.26458332px;stroke-linecap:butt;stroke-linejoin:miter;stroke-opacity:1"
       id="path1958-6"
       sodipodi:type="arc"
       sodipodi:cx="37.309822"
       sodipodi:cy="-49.45871"
       sodipodi:rx="4.3408976"
       sodipodi:ry="4.5001965"
       sodipodi:start="0"
       sodipodi:end="6.2699732"
       sodipodi:open="true"
       d="M41.65072 -49.4587099531L41.5629143469 -48.5537663659L41.3110420466 -47.7106339275L40.9124200874 -46.9473245054L40.3843654577 -46.281849967L39.7441951457 -45.7322221799L39.0092261399 -45.3164530113L38.1967754285 -45.0525543289L37.32416 -44.958538L36.4509646721 -45.0465762948L35.6368502187 -45.3049052131L34.8992480172 -45.7156318833L34.2555894451 -46.2608634335L33.7233058799 -46.922706992L33.319828699 -47.6832696871L33.0625892799 -48.524658647L32.969019 -49.428981L33.0510562484 -50.3345060839L33.2975504057 -51.1793449885L33.6912996428 -51.9453676486L34.2151021303 -52.614443999L34.851756039 -53.1684439745L35.5840595397 -53.58923751L36.3948108031 -53.8586945402L37.266808 -53.958685L38.1405454196 -53.8766287442L38.9562883701 -53.62388091L39.6964918297 -53.218214609L40.3436107766 -52.6774029525L40.8801001889 -52.019219052L41.2884150448 -51.2614360187L41.5510103225 -50.4218269643L41.650341 -49.518165" />
    <path
       inkscape:transform-center-y="-18.165476"
       inkscape:transform-center-x="25.154343"
       inkscape:connector-curvature="0"
       style="display:inline;fill:#000000;fill-rule:evenodd;stroke:none;stroke-width:0.26458332px;stroke-linecap:butt;stroke-linejoin:miter;stroke-opacity:1"
       d="M24.509218 54.03666L24.833592 51.38346L23.221086875 50.71320875L21.4416752344 49.64994525L19.223464 47.900857L17.2957607187 45.8366722187L16.15545975 44.0801905L15.6114369062 42.8592327813L15.472568 42.40162L16.170923 41.783937L15.916039 40.422487L16.6120208064 39.6522181005L17.120353 38.751225L17.4063440886 37.8115302708L17.4904392946 36.8588104341L17.3836415288 35.9188377906L17.096953702 35.0173846412L16.641378725 34.1802232866L16.0279195084 33.4331260277L15.2675789632 32.8018651652L14.37136 32.312213L13.007163 31.940569L12.755307 34.143365L13.510672 34.333324L14.3596013912 34.9218791147L14.8972313714 35.7688736263L15.0801916658 36.7634675747L14.865112 37.794821L14.2745187359 38.6674595696L13.4330512403 39.229077686L12.4504916246 39.4335659593L11.436622 39.234815L11.404852 39.221345L10.5598798609 38.6269880203L10.0278787272 37.7762678295L9.85148647999 36.7803337239L10.073341 35.750335L10.482935 35.085399L8.3109606 33.925054L7.8235979 34.780515L7.53121182962 35.7181487725L7.44065557415 36.6700988192L7.54110011298 37.6105298926L7.82171642549 38.5136067452L8.27167549107 39.3534941297L8.88014828909 40.1043567987L9.63630579894 40.7403595046L10.529319 41.235667L10.590739 41.262007L12.163919 41.646567L12.890115 43.397935L13.454943 43.581964L15.069958 46.4636515L16.655620875 48.8895759063L18.375071 50.926723L20.2842178594 52.3021759531L22.287200875 53.272368375L24.509223 54.036626L24.509218 54.03666"
       id="path1960-2" />
    <path
       style="display:inline;opacity:1;fill:#000000;fill-opacity:1;fill-rule:nonzero;stroke:none;stroke-width:0.17857143;stroke-linecap:round;stroke-linejoin:round;stroke-miterlimit:4;stroke-dasharray:none;stroke-dashoffset:0;stroke-opacity:1"
       d="M43.353856 71.591813L42.3879610313 71.2144592188L41.544389 70.60121975L40.8679904688 69.7940081563L40.403616 68.834738L40.216610125 67.729887375L40.317446 66.589642L40.711437 65.5649644062L41.348425 64.687893L42.189482 63.9996543437L43.19568 63.541475L44.16020875 63.415826875L45.166904 63.478605L46.022641125 63.78209725L46.845778 64.271996L47.767317125 65.290298875L48.326736 66.589647L48.427574875 67.729892375L48.240566 68.834743L47.7729705156 69.8006905625L47.092458375 70.609254L46.2421175469 71.2204714375L45.265036 71.594381L44.30667625 71.671318625L43.35385 71.591981L43.353856 71.591813M44.947683 68.899812L45.635096 68.218193L45.762552875 67.55312L45.657866 66.906518L44.975108 66.199735L44.321278375 66.070408375L43.666371 66.200935L43.2177899375 66.5754949844L42.94377025 67.089311125L42.8689861875 67.6652897031L43.018112 68.226337L43.379476125 68.665861375L43.827316 68.963779L44.39534225 69.008614L44.947674 68.899639L44.947683 68.899812"
       id="path1890-9"
       inkscape:connector-curvature="0" />
    <path
       style="display:inline;opacity:1;fill:#000000;fill-opacity:1;fill-rule:nonzero;stroke:none;stroke-width:0.50507629;stroke-linecap:round;stroke-linejoin:round;stroke-miterlimit:4;stroke-dasharray:none;stroke-dashoffset:0;stroke-opacity:1"
       d="M34.499321 28.165122L33.90384 27.625285L34.554579 25.619665L35.866376875 22.488398L36.5539240781 21.3302284375L37.254602 20.458932L39.313489125 18.839751375L41.887489 17.270592L42.782329 16.817429L44.637477 18.835691L46.492625 20.853946L43.462285 22.320715L39.338015 24.514714L36.94878275 26.61108475L35.8167326563 27.78191425L35.337527 28.435543L35.2957398594 28.5607932187L35.156244125 28.56203225L34.499321 28.165122L34.499321 28.165122"
       id="path1892-1"
       inkscape:connector-curvature="0" />
    <path
       style="display:inline;opacity:1;fill:#000000;fill-opacity:1;fill-rule:nonzero;stroke:none;stroke-width:0.35714287;stroke-linecap:round;stroke-linejoin:round;stroke-miterlimit:4;stroke-dasharray:none;stroke-dashoffset:0;stroke-opacity:1"
       d="M31.694785 24.078282L31.619695 22.516056L31.8564598906 19.7802536719L32.1624233184 18.6730108066L32.602336125 17.724281625L33.1828698535 16.9226222402L33.9106960469 16.2565887656L34.792486248 15.7147373145L35.834912 15.285624L36.897855625 15.026798L38.659779 14.977069L40.770805 15.089658L40.8182115 15.175213L40.681553 15.31089725L39.649035 15.878149L37.085113625 17.37948275L35.216698 18.851187L33.802094125 20.630891375L32.483608 22.937779L31.92862 24.010131875L31.799210875 24.1297529219L31.694788 24.078282L31.694785 24.078282"
       id="path1894-2"
       inkscape:connector-curvature="0" />
    <path
       style="display:inline;opacity:1;fill:#000000;fill-opacity:1;fill-rule:nonzero;stroke:none;stroke-width:0.35714287;stroke-linecap:round;stroke-linejoin:round;stroke-miterlimit:4;stroke-dasharray:none;stroke-dashoffset:0;stroke-opacity:1"
       d="M57.790316 55.680905L52.409825 55.012386L50.4045466094 54.5115991035L48.2977280625 53.8039650781L43.93777675 51.850287625L39.6465835625 49.3156176094L37.6257126719 47.8817428809L35.740761 46.364219L34.698828 45.27343L35.436139 40.219649L36.036353 40.644459L37.36084725 41.56145625L38.810242 42.202179L39.799708375 42.448810375L41.119387 42.500363L42.441732625 42.44735075L43.428538 42.189263L45.08700875 41.428202375L46.542381 40.205135L47.5499163437 39.0074337031L48.2442065 37.730493125L48.6463236562 36.3227159844L48.77734 34.732505L48.6670876172 33.3631309902L48.34230425 32.0742808594L47.8180255703 30.8849470801L47.10928725 29.814122125L46.2311249609 28.8807984668L45.198574375 28.1039685781L44.0266711641 27.5026249316L42.730451 27.09576L40.5793865 26.946948625L39.5068821875 27.0682274531L38.613119 27.310733L38.4218054219 27.3396952812L38.502367125 27.16903025L39.469009 26.241443L41.581340625 24.543667125L43.567322 23.343802L46.012750375 22.2491765L48.103152 21.661308L51.03809525 21.43058375L54.185791 21.497014L58.588060625 21.97245225L61.90173 22.46624L66.73096775 23.738588625L71.187697 25.334032L73.752194375 26.598716125L75.445083 28.056538L76.845951625 29.5639690781L77.78228975 30.820348625L78.34526325 31.9721048594L78.626038 33.165666L78.8648205 37.035663625L78.931667 40.65632L77.070313125 48.014267875L75.136873 54.849273L69.279741 55.48315L63.349824625 55.6788135L57.790316 55.680905L57.790316 55.680905M55.441076 52.477706L57.3677282656 52.1575315156L59.125548875 51.594510875L60.7703217969 50.7658265469L62.357831 49.648661L63.271125875 48.8204235L63.522128 48.392821L62.859182 48.153905L61.699627625 47.670896375L60.775316 47.129132L60.083172 46.894705125L57.731179 46.750621L52.3823445 46.296699625L50.3680531562 45.9119027031L48.509129 45.379552L46.12564025 44.3990415L44.01338 43.241078L43.359167 42.804938L42.778467 43.033829L42.136315875 43.207077875L41.324526 43.226732L40.7447992812 43.2185587344L40.464388 43.327005875L40.4002909687 43.6579238281L40.469507 44.317163L41.02177 45.943122L42.1813289688 47.5935589219L43.94386975 49.118558625L46.2364006563 50.4664107656L48.98593 51.585405L51.351444375 52.2432955L54.089378 52.580603L55.441076 52.477706L55.441076 52.477706M67.118982 48.199203L68.2069629746 47.9848286074L69.2501114219 47.6263222969L71.144831375 46.520983125L72.6889831406 44.9713238906L73.2939213535 44.057417502L73.768408 43.065483L74.259152375 41.1656546719L74.29707525 39.201514125L73.89277225 37.2852837656L73.056839 35.529186L71.7746331367 33.969096873L70.2323841562 32.8131416719L68.5082564727 32.066512166L66.6804145 31.734400125L64.8270226523 31.8219973184L63.0262453437 32.3344955156L61.3562469883 33.2770864863L59.895192 34.654962L58.864184125 36.334374625L58.178453 38.222129L58.04055375 40.35928975L58.32793 42.402264L58.7725952012 43.5249202871L59.3534201719 44.5545589844L60.0581485879 45.4805752207L60.874524125 46.292364125L61.790290459 46.9793208262L62.7931912656 47.5308404531L63.8709702207 47.9363181348L65.011371 48.185149L66.05293725 48.29523775L67.118982 48.199219L67.118982 48.199203M77.953127 33.679921L77.76609525 32.477671L77.405125 31.262878L76.9620747207 30.5538182832L76.2514197656 29.7739240781L74.178442625 28.106472875L71.4884871719 26.4702057344L68.483847 25.074804L65.7142328437 24.1237698438L62.649231 23.315522L59.4662354062 22.6907459063L56.34264 22.290127L52.394182375 22.212535375L48.779003 22.503718L45.604179875 23.309666L43.0736 24.455052L42.452501 24.830202L43.053162 24.909662L45.681365 25.168842L52.427396625 25.958842125L58.47709 26.973978L63.398891625 28.303257125L69.407612 30.463882L76.714071 33.541987L77.812328 34.001903L77.953127 33.679919L77.953127 33.679921M57.847791 32.271314L58.43691775 31.761506625L58.691027 31.042504L58.5957614746 30.5042411934L58.3388687344 30.0883521719L57.9664045332 29.8024976582L57.524424625 29.654338375L57.0589847637 29.6515350449L56.6161407031 29.8017483906L56.2419481973 30.1126391348L55.982463 30.591868L55.9266307656 31.2325401562L56.161952375 31.794065L56.6407155469 32.2110633437L57.315208 32.418156L57.847791 32.271314L57.847791 32.271314M52.155609 30.53949L52.600874 29.873671L52.6829629531 29.3814800937L52.5921355625 28.9372048125L52.02845075 28.27720625L51.1832575625 28.0632855625L50.7405447031 28.176607625L50.329994 28.465053L50.008555123 28.9395105L49.9180474219 29.4364573125L50.021525416 29.9139126563L50.282043625 30.32989575L50.6626565684 30.6424258125L51.1264187656 30.8095220625L51.6363847363 30.7892037188L52.155609 30.53949L52.155609 30.53949"
       id="path1896-7"
       inkscape:connector-curvature="0" />
    <path
       style="display:inline;opacity:1;fill:#000000;fill-opacity:1;fill-rule:nonzero;stroke:none;stroke-width:0.25253814;stroke-linecap:round;stroke-linejoin:round;stroke-miterlimit:4;stroke-dasharray:none;stroke-dashoffset:0;stroke-opacity:1"
       d="M83.879927 40.486471L84.159558 38.872397L84.585249375 35.94734075L84.680358 33.735005L84.645472625 32.250249125L84.455305 31.265876L83.053368 27.011941L82.844986 26.385949L83.778639 26.246521L84.676358 26.143033L85.077512 26.346117L86.2959989531 27.0966298125L87.418482625 28.03835475L88.3551464844 29.0845813125L89.016174 30.148599L89.418437875 31.351909875L89.47724 32.858862L89.250199125 34.684704375L88.66483 36.562566L87.856825375 38.3072435L86.969452 39.868018L86.593755 40.425563L85.797264 40.512453L84.416724 40.653008L83.832681 40.706648L83.879927 40.486471"
       id="path1898-0"
       inkscape:connector-curvature="0" />
    <path
       style="display:inline;opacity:1;fill:#000000;fill-opacity:1;fill-rule:nonzero;stroke:none;stroke-width:0.25253814;stroke-linecap:round;stroke-linejoin:round;stroke-miterlimit:4;stroke-dasharray:none;stroke-dashoffset:0;stroke-opacity:1"
       d="M79.914188 38.694269L79.714337375 34.212477L79.343024 31.577656L78.858305125 30.363907L78.126957 29.107441L77.071095 27.850594L76.451856 27.123963L79.796616 26.755543L80.586397125 28.583320875L81.50373 31.186223L81.697938 32.04556625L81.730827 33.177461L81.583251 35.566944L80.814488 40.970364L80.373716 41.053054L79.968086 41.104724L79.914188 38.694269"
       id="path1900-9"
       inkscape:connector-curvature="0" />
    <path
       style="display:inline;opacity:1;fill:#000000;fill-opacity:1;fill-rule:nonzero;stroke:none;stroke-width:0.35714287;stroke-linecap:round;stroke-linejoin:round;stroke-miterlimit:4;stroke-dasharray:none;stroke-dashoffset:0;stroke-opacity:1"
       d="M45.55617 92.484305L44.2184945 92.013900875L43.031419 91.394255L41.3762370566 90.0900626797L39.8355088281 88.3891424375L38.4223028418 86.3195434766L37.149687625 83.909315L36.0307317051 81.1865062109L35.0785036094 78.1791663125L34.3060718652 74.9153445078L33.726505 71.42309L33.512587375 66.43309825L33.5648485469 63.6762058437L33.723505 61.705662L34.2287505156 59.27752875L34.915870375 57.169986L35.7661060469 55.42998L36.760699 54.104457L37.408463 53.430974L37.718151 53.635923L40.805609 55.4911800156L43.901071 56.983643375L46.95450675 58.0921507969L49.915886 58.79554L53.575872 59.147093L62.65874675 59.88104325L68.468503 60.486811L67.861238 60.83797L66.82992925 61.5434446094L65.6914965 62.666495875L64.5334385 64.1093604531L63.443254 65.774275L62.3798843594 67.7171681875L61.407606625 69.8834245L58.931026 76.865491L56.897834 82.719766625L55.410951 86.179113L54.0295171094 88.5729283594L52.530744125 90.431593875L50.9280393281 91.7414107031L49.23481 92.48868L47.39427975 92.644048125L45.555953 92.48448L45.55617 92.484305M46.307196 75.586114L47.996816 74.944989L48.97697 74.359362625L50.030027 73.399976L50.989650875 72.3467605L51.572036 71.366766L52.210268875 69.7218915L52.465881 67.983336L52.37808475 66.148414875L51.8928305 64.415949L51.02624775 62.825585625L49.794466 61.416972L48.5966335156 60.49737475L47.273006625 59.837297L45.8314064219 59.4397305L44.279654 59.307667L42.4331768594 59.5006301875L40.764920625 60.078115L39.2655263281 61.0447643125L37.925635 62.405221L37.0480831348 63.7644139004L36.4761148906 65.2577425781L36.2039737949 66.830378248L36.225903375 68.427492125L36.5361471582 69.9942554238L37.1289486719 71.4758393594L37.9985514434 72.8174151465L39.139199 73.964154L40.7592748125 75.0024544375L42.52014175 75.62480525L44.3825365625 75.8223204375L46.307196 75.586114L46.307196 75.586114"
       id="path1902-3"
       inkscape:connector-curvature="0" />
    <path
       style="opacity:1;fill:#000000;fill-opacity:1;fill-rule:nonzero;stroke:none;stroke-width:0.08928572;stroke-linecap:round;stroke-linejoin:round;stroke-miterlimit:4;stroke-dasharray:none;stroke-dashoffset:0;stroke-opacity:1"
       d="M48.951826 67.40626L48.876166 66.582567L48.592536875 65.680761375L48.1524945 64.864488L47.570748625 64.155702375L46.862009 63.57636L46.475667 63.341229L46.342765 63.273649L46.59846 62.879445L46.88014 62.485235L47.772108 63.011923L48.7292623438 63.9111745781L49.44900025 64.994448125L49.9026985313 66.2057753594L50.061734 67.489188L50.044574 67.919476L49.496995 67.948326L48.967249 67.948326L48.951826 67.40626"
       id="path1904-6"
       inkscape:connector-curvature="0" />
    <path
       style="opacity:1;fill:#000000;fill-opacity:1;fill-rule:nonzero;stroke:none;stroke-width:0.08928572;stroke-linecap:round;stroke-linejoin:round;stroke-miterlimit:4;stroke-dasharray:none;stroke-dashoffset:0;stroke-opacity:1"
       d="M50.737066 67.49074L50.572463625 66.066087375L50.074127 64.695824L49.025451125 63.16333625L47.591222 62.003447L47.298497 61.81589L47.541436 61.424476L47.784375 61.047723L47.942721 61.135813L49.538546 62.357215L50.323375 63.274900125L50.93199 64.301582L51.466206 65.735919L51.684148 67.331391L51.698508 67.883095L51.437241 67.901635L50.956977 67.920175L50.737974 67.920175L50.736774 67.490728L50.737066 67.49074"
       id="path1906-0"
       inkscape:connector-curvature="0" />
    <path
       style="opacity:1;fill:#000000;fill-opacity:1;fill-rule:nonzero;stroke:none;stroke-width:0.08928572;stroke-linecap:round;stroke-linejoin:round;stroke-miterlimit:4;stroke-dasharray:none;stroke-dashoffset:0;stroke-opacity:1"
       d="M44.102295 73.223934L43.785491 73.198124L43.581329 73.181374L43.581329 72.716607L43.581329 72.251834L43.827731 72.274364L44.951635 72.257024L45.9896489219 71.9794009531L46.924503625 71.480835875L47.7224010156 70.7846328594L48.349543 69.914096L48.485384 69.670859L48.912751 69.969073L49.351484 70.276097L48.944298 70.920029L48.0951222656 71.8285801562L47.086432875 72.5254485L45.9506632969 72.9930223438L44.720247 73.21369L44.271256 73.23753L44.102295 73.22394L44.102295 73.223934"
       id="path1908-6"
       inkscape:connector-curvature="0" />
    <path
       style="opacity:1;fill:#000000;fill-opacity:1;fill-rule:nonzero;stroke:none;stroke-width:0.08928572;stroke-linecap:round;stroke-linejoin:round;stroke-miterlimit:4;stroke-dasharray:none;stroke-dashoffset:0;stroke-opacity:1"
       d="M43.686932 74.884868L43.553167 74.872708L43.553643 74.444811L43.575573 73.983035L43.975505 73.978835L45.035072125 73.948658875L46.104228 73.738506L47.238405375 73.2836189375L48.24798975 72.64195975L49.1198535 71.8237149375L49.840869 70.839071L49.934719 70.683277L50.320477 70.953401L50.70623 71.223525L50.63155 71.352993L49.507151 72.774015L48.6164820938 73.5261995625L47.6180485 74.127468L46.5332801563 74.5671114375L45.383607 74.834421L43.686942 74.884841L43.686932 74.884868"
       id="path1910-2"
       inkscape:connector-curvature="0" />
    <path
       style="opacity:1;fill:#000000;fill-opacity:1;fill-rule:nonzero;stroke:none;stroke-width:0.08928572;stroke-linecap:round;stroke-linejoin:round;stroke-miterlimit:4;stroke-dasharray:none;stroke-dashoffset:0;stroke-opacity:1"
       d="M41.101786 72.244894L40.32497075 71.62015075L39.684978 70.897546L39.1637110937 70.0406827031L38.800667 69.108638375L38.6066624062 68.1383483594L38.592514 67.166748L38.643774 66.671744L38.660704 66.591954L39.030101 66.609124L39.578759 66.642204L39.758025 66.658114L39.740805 66.761125L39.6788661562 67.6668850625L39.78845625 68.56971525L40.0625074687 69.4370055625L40.493952 70.236146L41.0719625 70.935049875L41.742157 71.490502L41.933141 71.65839L41.386349 72.404707L41.101789 72.244859L41.101786 72.244894"
       id="path1912-6"
       inkscape:connector-curvature="0" />
    <path
       style="opacity:1;fill:#000000;fill-opacity:1;fill-rule:nonzero;stroke:none;stroke-width:0.08928572;stroke-linecap:round;stroke-linejoin:round;stroke-miterlimit:4;stroke-dasharray:none;stroke-dashoffset:0;stroke-opacity:1"
       d="M40.086049 73.562899L38.9258421719 72.5504911719L38.011070125 71.338251375L37.3630035156 69.9614186406L37.002913 68.455232L36.989803 66.807852L37.029853 66.521272L37.965313 66.575212L37.943733 66.78078L37.959523 68.439765L38.28832 69.759898L38.988761 71.133947L39.77608975 72.091129375L40.716312 72.876429L40.905198 73.024767L40.367644 73.748191L40.086041 73.562923L40.086049 73.562899"
       id="path1914-1"
       inkscape:connector-curvature="0" />
    <path
       style="opacity:1;fill:#000000;fill-opacity:1;fill-rule:nonzero;stroke:none;stroke-width:0.08928572;stroke-linecap:round;stroke-linejoin:round;stroke-miterlimit:4;stroke-dasharray:none;stroke-dashoffset:0;stroke-opacity:1"
       d="M39.9491 64.738666L39.560838 64.405375L40.15632 63.645755L41.64673175 62.524726375L42.4997731875 62.1613241094L43.412368 61.93581L44.518391 61.88366L44.554811 62.352415L44.575081 62.794999L44.319023 62.794999L42.974907875 63.005579125L41.70869 63.621529L40.544399 64.787339L40.348408 65.047057L39.949126 64.738662L39.9491 64.738666"
       id="path1916-8"
       inkscape:connector-curvature="0" />
    <path
       style="opacity:1;fill:#000000;fill-opacity:1;fill-rule:nonzero;stroke:none;stroke-width:0.08928572;stroke-linecap:round;stroke-linejoin:round;stroke-miterlimit:4;stroke-dasharray:none;stroke-dashoffset:0;stroke-opacity:1"
       d="M38.639189 63.679836L38.275418 63.385144L39.567281 61.923169L41.21414025 60.875406125L43.111924 60.289533L44.362418 60.194153L44.470292 60.77449L44.487992 61.105378L44.224562 61.105378L42.970373 61.248531L41.521032875 61.76126625L40.231721 62.583333L39.057459 63.864474L38.992139 63.949494L38.639168 63.679835L38.639189 63.679836"
       id="path1918-7"
       inkscape:connector-curvature="0" />
  </g>
  <g
     inkscape:groupmode="layer"
     id="layer20"
     inkscape:label="Edge.Cut-s"
     transform="translate(0,-198)"
     style="display:none">
    <path
       sodipodi:nodetypes="ccccccccccccccccccccccccccccc"
       inkscape:connector-curvature="0"
       id="path5151"
       d="m 57.505181,199.70514 -0.923984,0.28434 -0.826732,0.40368 -1.389339,1.11827 -1.083224,1.45418 -0.832369,1.69575 -0.636776,1.84299 -0.496442,1.8959 -0.792929,3.57317 0.551149,1.26205 0.161338,1.0754 -0.14828,0.39684 -0.345057,0.26512 -0.574942,0.10506 -0.837936,-0.0834 -1.30132,-0.97927 -1.226858,-1.14371 -2.426207,-2.37772 -1.297286,-1.0325 -1.4187,-0.79393 -1.589083,-0.45459 -1.808435,-0.0145 -2.381394,0.14581 -2.25886,0.62212 -2.067783,1.04768 -1.808163,1.42251 -1.479999,1.74657 -1.083291,2.0199 -0.61804,2.24249 -0.08425,2.41432 -0.0219,1.29969 0.160324,1.28135 0.757573,2.46973 1.15722,2.28247 1.337369,2.01929 -0.359182,1.69585 -0.07663,1.75483 0.270871,3.57595 0.135758,1.76581 -0.0052,1.71416 -0.252018,1.63486 -0.604719,1.52789 -1.597112,0.72119 -1.529281,0.56154 -0.728144,0.0641 -0.697914,-0.164 -0.66326,-0.45479 -0.624182,-0.80833 -0.828658,-1.33136 -0.345163,-1.44995 -0.03513,-1.527 0.101432,-1.5625 0.06453,-1.55644 -0.145831,-1.50882 -0.529659,-1.41967 -0.462972,-0.66341 -0.623979,-0.62554 -0.990093,-1.15946 -1.21691,-0.89644 -1.371917,-0.61634 -1.455117,-0.31917 -1.466509,-0.005 -1.406091,0.32644 -1.273866,0.67487 -1.069831,1.04037 -0.9325782,-0.0718 -0.8400772,0.11329 -0.7483359,0.27922 -0.6573542,0.42602 -1.044803,1.21595 -0.6899936,1.57364 -0.3412624,1.7783 0.00139,1.82995 0.3379662,1.72856 0.6684635,1.47415 0.858037,1.28079 0.9953198,1.14253 2.2160874,2.06084 2.2060176,2.07958 0.982732,1.16593 0.840415,1.31356 1.103279,1.35387 1.244773,1.19444 2.775636,2.04372 2.926427,1.80538 2.800424,1.83329 1.275174,1.01024 1.284858,0.97553 0.462987,0.55646 0.24572,0.64583 -0.04478,0.76788 -0.408501,0.92262 0.03821,4.78061 0.598177,4.86385 0.514813,2.41708 0.661692,2.38262 0.810865,2.32972 0.962333,2.2584 1.116099,2.16866 1.272158,2.06048 1.430513,1.93389 1.591165,1.78887 1.754111,1.62542 1.919353,1.44353 2.086891,1.24324 2.256725,1.02451 1.589672,0.2122 1.557493,-0.10784 1.52365,-0.35983 1.488147,-0.54375 2.863133,-1.36708 2.70117,-1.28613 0.880392,0.46085 0.764022,0.66393 1.400845,1.58095 0.747777,0.73896 0.853316,0.58589 1.014333,0.34379 1.230826,0.0127 1.876222,-0.20052 1.662373,-0.61378 1.456076,-0.95867 1.25733,-1.23517 1.066137,-1.44328 0.882496,-1.583 0.706406,-1.65434 0.537869,-1.65729 2.39687,-3.84945 1.934486,-4.10491 0.766236,-2.12464 0.617505,-2.16018 0.457729,-2.18628 0.286908,-2.20292 0.989217,-1.73748 0.526705,-1.85457 0.11347,-1.91746 -0.250489,-1.92612 -0.56517,-1.88057 -0.830574,-1.78081 -1.046702,-1.62683 -1.213552,-1.41864 1.144201,-1.29611 0.790102,-1.489 0.534084,-1.62405 0.376148,-1.70127 0.670821,-3.4028 0.490837,-1.58586 0.72523,-1.4317 2.945295,-0.45412 1.419554,-0.40564 1.340882,-0.55543 1.229754,-0.72828 1.08617,-0.92416 0.910129,-1.14309 0.701631,-1.38509 0.713471,-1.43299 0.487496,-1.52408 0.270653,-1.58686 0.06294,-1.62132 -0.135641,-1.62749 -0.325091,-1.60533 -0.505411,-1.55487 -0.676599,-1.47609 -0.838656,-1.369 -0.991584,-1.23361 -1.135378,-1.0699 -1.270044,-0.87788 -1.395578,-0.65755 -1.51198,-0.4089 -1.619252,-0.13196 -1.717393,0.17331 -2.164529,0.30934 -2.299309,0.0597 -2.133842,-0.35678 -0.911044,-0.38674 -0.757084,-0.55346 0.834409,-1.20494 0.302457,-1.26617 -0.09305,-1.31515 -0.352111,-1.35191 -0.935631,-2.76505 -0.310631,-1.38866 -0.02392,-1.37642 -0.270435,-1.25308 -0.460556,-1.26169 -0.63936,-1.18868 -0.806845,-1.03402 -0.963012,-0.79775 -1.107861,-0.47983 -1.241393,-0.0803 -1.363606,0.40089 -1.802018,0.2768 -1.416461,-0.18895 -0.605225,-0.30241 -0.55873,-0.45878 -1.044501,-1.43992 -0.950284,-0.47345 -1.054307,-0.12675 0,4e-5"
       style="opacity:1;fill:none;fill-opacity:0.12560389;fill-rule:nonzero;stroke:#000000;stroke-width:0.61143261;stroke-linecap:round;stroke-linejoin:round;stroke-miterlimit:4;stroke-dasharray:none;stroke-dashoffset:0;stroke-opacity:1" />
  </g>
  <g
     inkscape:groupmode="layer"
     id="layer19"
     inkscape:label="morado"
     transform="translate(0,-198)"
     style="display:none">
    <path
       style="opacity:1;fill:#ff1493;fill-opacity:1;fill-rule:nonzero;stroke:none;stroke-width:0.17857143;stroke-linecap:round;stroke-linejoin:round;stroke-miterlimit:4;stroke-dasharray:none;stroke-dashoffset:0;stroke-opacity:1"
       d="m 42.937863,268.63533 c -1.321615,-0.3205 -2.440901,-1.36651 -2.889333,-2.70016 -0.213151,-0.63391 -0.247103,-1.51861 -0.08439,-2.19875 0.338879,-1.41645 1.414037,-2.55509 2.818811,-2.98523 0.451693,-0.13832 1.423772,-0.16932 1.930528,-0.0616 0.506864,0.10774 1.179926,0.42584 1.644216,0.77701 0.684536,0.51778 1.238711,1.38505 1.450385,2.26981 0.162719,0.68013 0.128764,1.56483 -0.08439,2.19875 -0.452821,1.34671 -1.574226,2.38674 -2.914102,2.70267 -0.43066,0.10152 -1.448301,0.10019 -1.871734,-0.002 z m 1.560923,-2.63643 c 0.260079,-0.12603 0.525286,-0.389 0.673223,-0.66754 0.15647,-0.29463 0.168964,-1.0141 0.0223,-1.28461 -0.153187,-0.28254 -0.423541,-0.5624 -0.668662,-0.69218 -0.319966,-0.16941 -0.960344,-0.16874 -1.281718,10e-4 -0.688991,0.36463 -0.986538,1.29427 -0.634878,1.98358 0.137208,0.26896 0.54237,0.63819 0.792499,0.72222 0.256886,0.0863 0.86084,0.0518 1.097231,-0.0628 z"
       id="path1756"
       inkscape:connector-curvature="0" />
  </g>
  <g
     inkscape:groupmode="layer"
     id="layer16"
     inkscape:label="amarillo"
     transform="translate(0,-198)"
     style="display:none">
    <path
       style="opacity:1;fill:#ffff00;fill-opacity:1;fill-rule:nonzero;stroke:none;stroke-width:0.50507629;stroke-linecap:round;stroke-linejoin:round;stroke-miterlimit:4;stroke-dasharray:none;stroke-dashoffset:0;stroke-opacity:1"
       d="m 34.266125,226.10516 c -0.320752,-0.22822 -0.583185,-0.46613 -0.583185,-0.52869 0,-0.0625 0.286785,-0.94646 0.637303,-1.96422 0.821125,-2.38421 1.723362,-4.1087 2.644282,-5.05418 0.780331,-0.80114 3.084278,-2.38671 4.537244,-3.12252 l 0.876368,-0.44381 1.816851,1.97659 1.816848,1.9766 -2.967784,1.43647 c -1.632281,0.79007 -3.449885,1.75699 -4.03912,2.14871 -1.015888,0.67536 -3.917899,3.51959 -3.917899,3.83989 0,0.24154 -0.199812,0.17708 -0.820908,-0.26484 z"
       id="path1740"
       inkscape:connector-curvature="0" />
    <path
       style="opacity:1;fill:#ffff00;fill-opacity:1;fill-rule:nonzero;stroke:none;stroke-width:0.35714287;stroke-linecap:round;stroke-linejoin:round;stroke-miterlimit:4;stroke-dasharray:none;stroke-dashoffset:0;stroke-opacity:1"
       d="m 31.519492,222.10269 c -0.04045,-0.0404 -0.07354,-0.72893 -0.07354,-1.52997 0,-4.05614 1.190214,-6.09773 4.128198,-7.08116 0.826475,-0.27664 1.027338,-0.29859 2.766549,-0.30219 1.102352,-0.002 1.954544,0.0431 2.067444,0.11028 0.159551,0.0949 -0.02646,0.22557 -1.098612,0.77221 -1.772731,0.90384 -3.476301,2.04652 -4.340835,2.91167 -0.885764,0.88638 -1.916415,2.42743 -2.676668,4.00221 -0.563479,1.16718 -0.628418,1.26107 -0.772532,1.11696 z"
       id="path1742"
       inkscape:connector-curvature="0" />
    <path
       style="opacity:1;fill:#ffff00;fill-opacity:1;fill-rule:nonzero;stroke:none;stroke-width:0.35714287;stroke-linecap:round;stroke-linejoin:round;stroke-miterlimit:4;stroke-dasharray:none;stroke-dashoffset:0;stroke-opacity:1"
       d="m 57.076288,253.05289 c -1.6734,-0.11487 -4.059709,-0.41137 -5.269414,-0.65471 -5.069964,-1.01989 -11.614107,-4.41509 -16.324936,-8.46963 -0.561231,-0.48305 -1.020422,-0.96377 -1.020422,-1.06828 0,-0.28166 0.673927,-4.90097 0.722089,-4.94944 0.02271,-0.0228 0.287231,0.16436 0.587825,0.41603 0.820424,0.6869 1.733099,1.19943 2.716619,1.52557 0.766571,0.2542 1.063712,0.29256 2.261478,0.29203 1.217081,-5.9e-4 1.482545,-0.0364 2.261476,-0.30468 1.319366,-0.45455 1.995403,-0.88532 3.049564,-1.94316 1.529334,-1.5347 2.185565,-3.14157 2.188815,-5.35965 0.0053,-3.6649 -2.387583,-6.68701 -5.92205,-7.4791 -1.234004,-0.27655 -3.039643,-0.18226 -4.032335,0.21054 -0.428426,0.16953 -0.140222,-0.19053 0.83822,-1.04721 1.582883,-1.38592 2.595812,-2.10209 4.013705,-2.83782 1.655067,-0.8588 3.250721,-1.45069 4.442194,-1.64776 1.428964,-0.23636 4.250278,-0.31256 5.95706,-0.16089 2.755166,0.24481 6.222983,0.68041 7.556648,0.94921 2.666335,0.53737 6.914352,1.84929 9.094263,2.80857 2.457195,1.08132 2.850452,1.3328 4.169493,2.66631 2.172241,2.19606 2.893217,3.35406 3.115286,5.00365 0.151546,1.12573 0.372291,6.53587 0.29932,7.33601 -0.07161,0.7853 -3.550711,13.79751 -3.716452,13.89995 -0.149964,0.0927 -2.897086,0.38998 -5.736214,0.62079 -1.907186,0.15504 -9.828729,0.29139 -11.252232,0.19367 z m -2.300741,-3.13707 c 2.650348,-0.26946 4.714087,-1.11355 6.773962,-2.77063 0.747119,-0.60104 1.257966,-1.15205 1.140259,-1.22992 -0.02341,-0.0155 -0.315552,-0.12077 -0.649258,-0.23399 -0.746893,-0.25341 -1.601137,-0.67349 -2.040846,-1.00361 -0.309266,-0.23219 -0.504584,-0.25648 -2.981293,-0.37069 -4.345777,-0.20043 -6.612762,-0.53747 -9.031665,-1.34278 -1.401765,-0.46667 -3.35534,-1.39593 -4.402931,-2.09432 l -0.640708,-0.42714 -0.568713,0.22417 c -0.43971,0.17331 -0.7627,0.21617 -1.423926,0.18892 -0.988561,-0.0408 -0.978661,-0.0533 -0.837364,1.06792 0.05309,0.42135 0.249655,1.00005 0.540858,1.5924 1.088704,2.21453 3.942786,4.23653 7.799743,5.52579 1.843477,0.61622 2.668302,0.77706 4.998089,0.97465 0.09975,0.009 0.695454,-0.0369 1.323793,-0.10075 z m 11.436821,-4.19017 c 2.887507,-0.36207 5.455743,-2.34489 6.512152,-5.02774 0.941079,-2.38998 0.67189,-5.24099 -0.696878,-7.38071 -2.941017,-4.59756 -9.415106,-5.02757 -12.889933,-0.85618 -0.688894,0.82699 -1.443268,2.39449 -1.681297,3.49352 -0.240201,1.10909 -0.168737,3.10774 0.14639,4.09384 0.972827,3.04418 3.496076,5.22744 6.545465,5.6635 0.987938,0.14127 1.044198,0.14165 2.064101,0.0138 z m 10.610479,-14.21954 c 0,-0.49271 -0.309557,-1.85806 -0.536688,-2.36714 -0.774741,-1.73648 -4.739742,-4.48673 -8.737104,-6.06033 -3.346508,-1.31738 -7.92774,-2.36812 -11.890556,-2.72718 -2.07765,-0.18825 -5.765038,-0.0841 -7.407486,0.20918 -2.236199,0.39933 -4.192674,1.06847 -5.587619,1.91104 l -0.608276,0.36741 0.588259,0.0778 c 0.323542,0.0428 1.481818,0.15702 2.573947,0.25382 4.026621,0.35693 9.41422,1.11697 12.531559,1.76788 2.862168,0.59762 6.423392,1.73466 10.704868,3.41785 2.392834,0.94071 5.811636,2.381 7.15562,3.01456 0.515728,0.24312 0.999742,0.44581 1.075585,0.45042 0.0809,0.004 0.137891,-0.12541 0.137891,-0.31533 z m -19.690272,-1.37952 c 0.438065,-0.18304 0.825234,-0.74724 0.825829,-1.20346 0.0023,-1.55885 -2.164851,-1.91937 -2.652648,-0.44132 -0.283769,0.85981 0.31745,1.68367 1.305232,1.78859 0.0778,0.008 0.312505,-0.0564 0.521587,-0.14381 z m -5.574668,-1.69608 c 0.153103,-0.11326 0.349337,-0.40669 0.436072,-0.65207 0.469936,-1.32953 -1.223551,-2.37998 -2.223999,-1.37954 -1.173188,1.17318 0.451985,3.01986 1.787927,2.03161 z"
       id="path1744"
       inkscape:connector-curvature="0" />
    <path
       style="opacity:1;fill:#ffff00;fill-opacity:1;fill-rule:nonzero;stroke:none;stroke-width:0.25253814;stroke-linecap:round;stroke-linejoin:round;stroke-miterlimit:4;stroke-dasharray:none;stroke-dashoffset:0;stroke-opacity:1"
       d="m 82.627292,238.17215 c 0.02545,-0.11862 0.148685,-0.82996 0.273858,-1.58076 0.430341,-2.58128 0.511385,-3.38073 0.510048,-5.03133 -0.0012,-1.45201 -0.01646,-1.61956 -0.220407,-2.41816 -0.249943,-0.97864 -1.017311,-3.30708 -1.372995,-4.16612 -0.131599,-0.31783 -0.223435,-0.5937 -0.20408,-0.61307 0.01939,-0.0194 0.430831,-0.0808 0.914379,-0.13655 l 0.879186,-0.1013 0.392872,0.1989 c 1.614696,0.81744 3.213234,2.3607 3.85735,3.72398 0.403117,0.85319 0.496927,1.40461 0.451548,2.65431 -0.04494,1.23745 -0.282788,2.32184 -0.795638,3.62724 -0.371181,0.94478 -1.185558,2.53256 -1.660378,3.23721 l -0.367941,0.54604 -0.780048,0.0851 c -0.429033,0.0468 -1.037449,0.10873 -1.352039,0.13765 l -0.571986,0.0525 z"
       id="path1746"
       inkscape:connector-curvature="0" />
    <path
       style="opacity:1;fill:#ffff00;fill-opacity:1;fill-rule:nonzero;stroke:none;stroke-width:0.25253814;stroke-linecap:round;stroke-linejoin:round;stroke-miterlimit:4;stroke-dasharray:none;stroke-dashoffset:0;stroke-opacity:1"
       d="m 78.743423,236.41694 c -0.0806,-3.60512 -0.254868,-5.77637 -0.559371,-6.96969 -0.158504,-0.62117 -0.71041,-1.74227 -1.190963,-2.41923 -0.216209,-0.30457 -0.681539,-0.85847 -1.034064,-1.23089 -0.352525,-0.37243 -0.625432,-0.69265 -0.606455,-0.71163 0.06268,-0.0627 3.222981,-0.41078 3.27571,-0.36082 0.175956,0.16676 1.329355,3.16029 1.671869,4.33922 0.206801,0.71179 0.226262,0.88242 0.222409,1.95012 -0.0023,0.64355 -0.06735,1.69662 -0.144528,2.34016 -0.195372,1.62919 -0.711244,5.25514 -0.752893,5.29187 -0.01891,0.0167 -0.213186,0.0531 -0.431671,0.081 l -0.397257,0.0506 z"
       id="path1748"
       inkscape:connector-curvature="0" />
  </g>
  <g
     inkscape:groupmode="layer"
     id="layer17"
     inkscape:label="verde"
     transform="translate(0,-198)"
     style="display:none">
    <path
       style="opacity:1;fill:#7fff00;fill-opacity:1;fill-rule:nonzero;stroke:none;stroke-width:0.35714287;stroke-linecap:round;stroke-linejoin:round;stroke-miterlimit:4;stroke-dasharray:none;stroke-dashoffset:0;stroke-opacity:1"
       d="m 45.094712,289.09651 c -0.862167,-0.23235 -1.807112,-0.64033 -2.472627,-1.06755 -4.460776,-2.86358 -7.862437,-10.16457 -9.112818,-19.55887 -0.278031,-2.08889 -0.279659,-7.77078 -0.0028,-9.51681 0.532842,-3.35957 1.58966,-6.00447 2.974493,-7.44429 l 0.63439,-0.65957 0.303296,0.20071 c 4.004624,2.65027 8.160808,4.40832 11.945915,5.0531 0.577835,0.0984 2.190826,0.25336 3.584427,0.34429 4.393344,0.28667 14.465896,1.19278 14.58518,1.31206 0.01955,0.0196 -0.248076,0.17431 -0.594729,0.34391 -1.238663,0.60602 -2.985606,2.55792 -4.326776,4.8344 -1.535661,2.60661 -2.307641,4.50416 -4.419076,10.86225 -1.696573,5.1088 -2.464205,7.13985 -3.447404,9.12134 -1.721441,3.4693 -3.784339,5.57677 -6.048636,6.1793 -0.76959,0.20481 -2.836189,0.20235 -3.602905,-0.004 z m 0.735523,-16.54935 c 0.394379,-0.0925 1.139013,-0.37512 1.65474,-0.62788 0.770484,-0.37762 1.125547,-0.64743 1.991231,-1.51312 0.869432,-0.86943 1.133343,-1.21741 1.510175,-1.99123 0.581361,-1.19383 0.79366,-1.99743 0.875392,-3.31358 0.151878,-2.44569 -0.776375,-4.72735 -2.616264,-6.43081 -1.4786,-1.36896 -3.306153,-2.06796 -5.40096,-2.06575 -2.531579,0.003 -4.573267,0.99797 -6.222841,3.0336 -2.695871,3.3268 -2.139344,8.62762 1.188507,11.3203 2.006496,1.62353 4.483224,2.18397 7.02002,1.58847 z"
       id="path1754"
       inkscape:connector-curvature="0" />
  </g>
  <g
     inkscape:groupmode="layer"
     id="layer18"
     inkscape:label="azul"
     transform="translate(0,-198)"
     style="display:none">
    <path
       style="opacity:1;fill:#00bfff;fill-opacity:1;fill-rule:nonzero;stroke:none;stroke-width:0.08928572;stroke-linecap:round;stroke-linejoin:round;stroke-miterlimit:4;stroke-dasharray:none;stroke-dashoffset:0;stroke-opacity:1"
       d="m 48.420266,264.53618 c -0.01112,-0.39131 -0.03061,-0.6034 -0.0741,-0.80668 -0.261836,-1.22388 -0.970583,-2.28171 -1.972571,-2.94415 -0.136516,-0.0902 -0.306783,-0.19388 -0.378369,-0.23028 l -0.130158,-0.0662 0.25042,-0.38606 c 0.137729,-0.21234 0.261868,-0.38608 0.275863,-0.38608 0.07714,0 0.567928,0.28981 0.873551,0.51582 1.392411,1.02974 2.239532,2.68624 2.242358,4.38484 3.09e-4,0.21622 -0.0072,0.40586 -0.01681,0.4214 -0.01086,0.0177 -0.21171,0.0283 -0.536276,0.0283 l -0.518805,0 z"
       id="path1758"
       inkscape:connector-curvature="0" />
    <path
       style="opacity:1;fill:#00bfff;fill-opacity:1;fill-rule:nonzero;stroke:none;stroke-width:0.08928572;stroke-linecap:round;stroke-linejoin:round;stroke-miterlimit:4;stroke-dasharray:none;stroke-dashoffset:0;stroke-opacity:1"
       d="m 50.168649,264.61892 c -0.0018,-0.96214 -0.211698,-1.8461 -0.649253,-2.73721 -0.542165,-1.10414 -1.386024,-2.0192 -2.431644,-2.6368 -0.157677,-0.0931 -0.286684,-0.17579 -0.286684,-0.18369 0,-0.008 0.107068,-0.1804 0.237925,-0.38333 l 0.237925,-0.36897 0.155075,0.0862 c 0.529357,0.2945 1.091291,0.72459 1.562878,1.19618 0.586043,0.58605 1.008737,1.17585 1.364678,1.90422 0.266303,0.54494 0.387204,0.86956 0.523187,1.40473 0.148556,0.58468 0.197274,0.9413 0.213443,1.56254 l 0.01407,0.54031 -0.255874,0.0182 c -0.140729,0.01 -0.352385,0.0182 -0.470348,0.0182 l -0.214482,0 -0.0012,-0.42058 z"
       id="path1760"
       inkscape:connector-curvature="0" />
    <path
       style="opacity:1;fill:#00bfff;fill-opacity:1;fill-rule:nonzero;stroke:none;stroke-width:0.08928572;stroke-linecap:round;stroke-linejoin:round;stroke-miterlimit:4;stroke-dasharray:none;stroke-dashoffset:0;stroke-opacity:1"
       d="m 43.670853,270.23375 c -0.06067,-0.004 -0.200292,-0.0163 -0.310264,-0.0253 l -0.199949,-0.0164 0,-0.45517 0,-0.45519 0.241318,0.0221 c 0.326095,0.0298 0.837221,0.0219 1.100701,-0.017 1.408089,-0.20812 2.63503,-1.05412 3.32776,-2.29456 l 0.133032,-0.23821 0.418547,0.29206 c 0.230201,0.16063 0.423556,0.29594 0.429673,0.30069 0.01733,0.0134 -0.236871,0.41539 -0.398774,0.63063 -0.990597,1.31694 -2.482483,2.12703 -4.136849,2.24631 -0.21151,0.0152 -0.409384,0.0257 -0.439721,0.0234 -0.03034,-0.002 -0.104796,-0.009 -0.165474,-0.0133 z"
       id="path1762"
       inkscape:connector-curvature="0" />
    <path
       style="opacity:1;fill:#00bfff;fill-opacity:1;fill-rule:nonzero;stroke:none;stroke-width:0.08928572;stroke-linecap:round;stroke-linejoin:round;stroke-miterlimit:4;stroke-dasharray:none;stroke-dashoffset:0;stroke-opacity:1"
       d="m 43.264064,271.8604 -0.131002,-0.0119 4.64e-4,-0.41907 c 3.08e-4,-0.23049 0.0099,-0.43399 0.0215,-0.45224 0.01623,-0.0255 0.106502,-0.0265 0.391674,-0.004 0.610453,0.0479 1.461809,-0.0482 2.084781,-0.23537 1.556648,-0.46761 2.822194,-1.44961 3.659495,-2.83958 l 0.09192,-0.15257 0.377795,0.26454 0.377789,0.26456 -0.07314,0.12678 c -0.245139,0.42497 -0.675509,0.96887 -1.101186,1.3917 -1.08335,1.07607 -2.50411,1.78598 -4.038415,2.01786 -0.308356,0.0465 -1.351432,0.0776 -1.661634,0.0494 z"
       id="path1764"
       inkscape:connector-curvature="0" />
    <path
       style="opacity:1;fill:#00bfff;fill-opacity:1;fill-rule:nonzero;stroke:none;stroke-width:0.08928572;stroke-linecap:round;stroke-linejoin:round;stroke-miterlimit:4;stroke-dasharray:none;stroke-dashoffset:0;stroke-opacity:1"
       d="m 40.73229,269.27493 c -0.549656,-0.37386 -1.016573,-0.81788 -1.387562,-1.31954 -0.779272,-1.05373 -1.173571,-2.40027 -1.069906,-3.65378 0.0185,-0.22365 0.0411,-0.4418 0.05022,-0.48478 l 0.01659,-0.0781 0.361767,0.0169 c 0.198971,0.009 0.440771,0.0238 0.537333,0.0324 l 0.175565,0.0156 -0.01689,0.10087 c -0.195946,1.17046 0.07453,2.41845 0.737602,3.40328 0.320915,0.47664 0.781142,0.93914 1.222433,1.22846 0.10975,0.0719 0.193257,0.14536 0.187041,0.16442 -0.009,0.0276 -0.465938,0.65127 -0.535503,0.73091 -0.01,0.0114 -0.135355,-0.0591 -0.278685,-0.15655 z"
       id="path1766"
       inkscape:connector-curvature="0" />
    <path
       style="opacity:1;fill:#00bfff;fill-opacity:1;fill-rule:nonzero;stroke:none;stroke-width:0.08928572;stroke-linecap:round;stroke-linejoin:round;stroke-miterlimit:4;stroke-dasharray:none;stroke-dashoffset:0;stroke-opacity:1"
       d="m 39.737522,270.56572 c -1.665995,-1.1762 -2.74656,-2.96632 -3.019485,-5.00223 -0.05577,-0.41604 -0.06217,-1.2203 -0.01281,-1.61336 0.01904,-0.15168 0.0367,-0.27798 0.03925,-0.28066 0.0082,-0.009 0.906491,0.0431 0.916147,0.0529 0.0051,0.006 -0.0043,0.0958 -0.02114,0.20132 -0.04957,0.31253 -0.04072,1.24334 0.01545,1.62474 0.05684,0.38591 0.196913,0.94836 0.322005,1.29287 0.1309,0.36052 0.463182,1.01235 0.685985,1.34569 0.436744,0.65344 1.055488,1.27752 1.691885,1.7065 0.101261,0.0683 0.184503,0.13364 0.184984,0.14529 0.0011,0.0274 -0.503843,0.70692 -0.526453,0.70849 -0.0094,5.7e-4 -0.133518,-0.081 -0.27579,-0.18145 z"
       id="path1768"
       inkscape:connector-curvature="0" />
    <path
       style="opacity:1;fill:#00bfff;fill-opacity:1;fill-rule:nonzero;stroke:none;stroke-width:0.08928572;stroke-linecap:round;stroke-linejoin:round;stroke-miterlimit:4;stroke-dasharray:none;stroke-dashoffset:0;stroke-opacity:1"
       d="m 39.603398,261.92366 c -0.204529,-0.1657 -0.375641,-0.31259 -0.380247,-0.32641 -0.01469,-0.0441 0.322727,-0.47445 0.583188,-0.74394 0.867137,-0.89716 1.962301,-1.4723 3.188829,-1.67464 0.317599,-0.0524 1.06072,-0.0875 1.083191,-0.0511 0.0088,0.0141 0.02477,0.22068 0.03567,0.45908 l 0.01982,0.43345 -0.250773,0 c -0.886725,0 -1.771432,0.28013 -2.556442,0.80946 -0.330816,0.22308 -0.912613,0.80564 -1.140256,1.14175 -0.09503,0.14031 -0.181402,0.25477 -0.191946,0.25435 -0.01053,-4.6e-4 -0.186511,-0.13632 -0.391039,-0.30202 z"
       id="path1770"
       inkscape:connector-curvature="0" />
    <path
       style="opacity:1;fill:#00bfff;fill-opacity:1;fill-rule:nonzero;stroke:none;stroke-width:0.08928572;stroke-linecap:round;stroke-linejoin:round;stroke-miterlimit:4;stroke-dasharray:none;stroke-dashoffset:0;stroke-opacity:1"
       d="m 38.320529,260.88669 c -0.182021,-0.1452 -0.342338,-0.27508 -0.356262,-0.28861 -0.06699,-0.0652 0.767618,-1.00962 1.265197,-1.43179 0.972868,-0.82544 2.170939,-1.3776 3.471464,-1.59991 0.350638,-0.06 1.126415,-0.11912 1.224676,-0.0934 0.06942,0.0182 0.07892,0.0693 0.10565,0.56835 l 0.01736,0.32407 -0.257995,0 c -0.319114,0 -0.869642,0.0628 -1.228299,0.14019 -0.930761,0.20076 -1.960315,0.70256 -2.682112,1.30724 -0.391653,0.32811 -0.985206,0.9757 -1.150018,1.25469 -0.02708,0.0458 -0.05586,0.0834 -0.06397,0.0832 -0.0081,-5e-5 -0.163664,-0.11889 -0.345685,-0.2641 z"
       id="path1772"
       inkscape:connector-curvature="0" />
  </g>
</svg>
