G04 #@! TF.FileFunction,Paste,Bot*
%FSLAX46Y46*%
G04 Gerber Fmt 4.6, Leading zero omitted, Abs format (unit mm)*
G04 Created by KiCad (PCBNEW 4.0.7) date Monday, 12 '12e' March '12e' 2018, 16:45:08*
%MOMM*%
%LPD*%
G01*
G04 APERTURE LIST*
%ADD10C,0.100000*%
%ADD11R,1.250000X1.500000*%
%ADD12R,1.800000X2.500000*%
%ADD13R,1.800000X1.000000*%
%ADD14R,1.800000X1.900000*%
%ADD15R,0.400000X1.350000*%
%ADD16R,2.185000X1.900000*%
%ADD17R,0.900000X0.800000*%
%ADD18R,0.800000X0.900000*%
%ADD19R,1.500000X1.300000*%
%ADD20R,1.300000X1.500000*%
%ADD21R,0.270000X0.810000*%
%ADD22R,0.810000X0.270000*%
%ADD23R,2.700000X2.700000*%
%ADD24R,1.300000X0.990000*%
%ADD25R,1.300000X0.590000*%
%ADD26R,3.800000X2.000000*%
%ADD27R,1.500000X2.000000*%
%ADD28O,2.000000X0.900000*%
%ADD29R,2.000000X0.900000*%
%ADD30R,4.300000X4.300000*%
%ADD31R,1.500000X3.200000*%
G04 APERTURE END LIST*
D10*
D11*
X134250000Y-118250000D03*
X134250000Y-115750000D03*
X132000000Y-118250000D03*
X132000000Y-115750000D03*
D12*
X123250000Y-96000000D03*
X123250000Y-100000000D03*
D13*
X146250000Y-124500000D03*
X146250000Y-122000000D03*
D14*
X138080000Y-127250000D03*
D15*
X139230000Y-124445000D03*
X138580000Y-124445000D03*
X137930000Y-124445000D03*
D16*
X135537500Y-127250000D03*
D14*
X140380000Y-127250000D03*
D15*
X140530000Y-124445000D03*
X139880000Y-124445000D03*
D16*
X142922500Y-127250000D03*
D17*
X141000000Y-79450000D03*
X141000000Y-77550000D03*
X143000000Y-78500000D03*
D18*
X141050000Y-70500000D03*
X142950000Y-70500000D03*
X142000000Y-72500000D03*
D19*
X168300000Y-58500000D03*
X171000000Y-58500000D03*
D20*
X138000000Y-79500000D03*
X138000000Y-76800000D03*
X138000000Y-70150000D03*
X138000000Y-72850000D03*
D19*
X167650000Y-77000000D03*
X170350000Y-77000000D03*
D20*
X172400000Y-74300000D03*
X172400000Y-77000000D03*
D19*
X177200000Y-77000000D03*
X174500000Y-77000000D03*
D21*
X140520000Y-120725000D03*
X140020000Y-120725000D03*
X139520000Y-120725000D03*
X139020000Y-120725000D03*
X138520000Y-120725000D03*
X138020000Y-120725000D03*
D22*
X137315000Y-120020000D03*
X137315000Y-119520000D03*
X137315000Y-119020000D03*
X137315000Y-118520000D03*
X137315000Y-118020000D03*
X137315000Y-117520000D03*
D21*
X138020000Y-116815000D03*
X138520000Y-116815000D03*
X139020000Y-116815000D03*
X139520000Y-116815000D03*
X140020000Y-116815000D03*
X140520000Y-116815000D03*
D22*
X141225000Y-117520000D03*
X141225000Y-118020000D03*
X141225000Y-118520000D03*
X141225000Y-119020000D03*
X141225000Y-119520000D03*
X141225000Y-120020000D03*
D23*
X139250000Y-118750000D03*
D24*
X131975000Y-123260000D03*
D25*
X131975000Y-121540000D03*
X134025000Y-121540000D03*
X134025000Y-123460000D03*
D26*
X125750000Y-84100000D03*
D27*
X125750000Y-90400000D03*
X123450000Y-90400000D03*
X128050000Y-90400000D03*
D28*
X142500000Y-67200000D03*
X160500000Y-67200000D03*
D29*
X160500000Y-55200000D03*
D28*
X160500000Y-56700000D03*
X160500000Y-58200000D03*
X160500000Y-59700000D03*
X160500000Y-61200000D03*
X160500000Y-62700000D03*
X160500000Y-64200000D03*
X160500000Y-65700000D03*
X142500000Y-65700000D03*
X142500000Y-64200000D03*
X142500000Y-62700000D03*
X142500000Y-61200000D03*
X142500000Y-59700000D03*
X142500000Y-58200000D03*
X142500000Y-56700000D03*
X142500000Y-55200000D03*
D30*
X150380000Y-61780000D03*
D19*
X168250000Y-63600000D03*
X170950000Y-63600000D03*
X171000000Y-61000000D03*
X168300000Y-61000000D03*
X170950000Y-66200000D03*
X168250000Y-66200000D03*
D31*
X119200000Y-90600000D03*
X119200000Y-86600000D03*
X132800000Y-92600000D03*
X132800000Y-88600000D03*
D19*
X170300000Y-74800000D03*
X167600000Y-74800000D03*
X171000000Y-68600000D03*
X168300000Y-68600000D03*
M02*
