G04 #@! TF.FileFunction,Drawing*
%FSLAX46Y46*%
G04 Gerber Fmt 4.6, Leading zero omitted, Abs format (unit mm)*
G04 Created by KiCad (PCBNEW 4.0.7) date Monday, 12 '12e' March '12e' 2018, 16:45:08*
%MOMM*%
%LPD*%
G01*
G04 APERTURE LIST*
%ADD10C,0.100000*%
%ADD11C,0.127000*%
%ADD12C,0.381000*%
G04 APERTURE END LIST*
D10*
D11*
X135230000Y-128000000D02*
G75*
G03X135470000Y-127760000I0J240000D01*
G01*
X135530000Y-129280000D02*
X135530000Y-124280000D01*
X135230000Y-128000000D02*
X134880000Y-128000000D01*
X135467500Y-126730000D02*
X135467500Y-127790000D01*
X142930000Y-124280000D02*
X135530000Y-124280000D01*
X141650000Y-124555000D02*
G75*
G03X141780000Y-124425000I0J130000D01*
G01*
X134642500Y-126730000D02*
X134642500Y-127780000D01*
X134640000Y-127760000D02*
G75*
G03X134880000Y-128000000I240000J0D01*
G01*
X143580000Y-126500000D02*
X143550000Y-126500000D01*
X143580000Y-128000000D02*
X143230000Y-128000000D01*
X143540000Y-126500000D02*
X143230000Y-126500000D01*
X143820000Y-126740000D02*
G75*
G03X143580000Y-126500000I-240000J0D01*
G01*
X143580000Y-128000000D02*
G75*
G03X143820000Y-127760000I0J240000D01*
G01*
X137330000Y-123825000D02*
G75*
G03X137170000Y-123695000I-145000J-15000D01*
G01*
X137170000Y-124555000D02*
X136780000Y-124555000D01*
X137170000Y-123695000D02*
X136780000Y-123695000D01*
X136680000Y-123825000D02*
X136680000Y-124425000D01*
X136780000Y-123695000D02*
G75*
G03X136680000Y-123825000I15000J-115000D01*
G01*
X137170000Y-124555000D02*
G75*
G03X137330000Y-124425000I15000J145000D01*
G01*
X136680000Y-124425000D02*
G75*
G03X136780000Y-124555000I115000J-15000D01*
G01*
X141780000Y-123825000D02*
G75*
G03X141650000Y-123695000I-130000J0D01*
G01*
X141780000Y-123825000D02*
X141780000Y-124425000D01*
X141650000Y-123695000D02*
X141260000Y-123695000D01*
X141260000Y-123695000D02*
G75*
G03X141130000Y-123825000I0J-130000D01*
G01*
X141650000Y-124555000D02*
X141260000Y-124555000D01*
X137330000Y-123825000D02*
X137330000Y-124425000D01*
X141130000Y-124425000D02*
G75*
G03X141260000Y-124555000I130000J0D01*
G01*
X141130000Y-123825000D02*
X141130000Y-124425000D01*
X142930000Y-129280000D02*
X142930000Y-124280000D01*
X143230000Y-126500000D02*
G75*
G03X142990000Y-126740000I0J-240000D01*
G01*
X143817500Y-126730000D02*
X143817500Y-127790000D01*
X142992500Y-126730000D02*
X142992500Y-127780000D01*
X142990000Y-127760000D02*
G75*
G03X143230000Y-128000000I240000J0D01*
G01*
X135230000Y-126500000D02*
X135200000Y-126500000D01*
X135470000Y-126740000D02*
G75*
G03X135230000Y-126500000I-240000J0D01*
G01*
X135190000Y-126500000D02*
X134880000Y-126500000D01*
X134880000Y-126500000D02*
G75*
G03X134640000Y-126740000I0J-240000D01*
G01*
D12*
G36*
X160798650Y-78995000D02*
X159595000Y-78995000D01*
X159595000Y-78496820D01*
X160798650Y-78496820D01*
X160798650Y-78995000D01*
G37*
X160798650Y-78995000D02*
X159595000Y-78995000D01*
X159595000Y-78496820D01*
X160798650Y-78496820D01*
X160798650Y-78995000D01*
G36*
X155589330Y-78995000D02*
X154395000Y-78995000D01*
X154395000Y-78499510D01*
X155589330Y-78499510D01*
X155589330Y-78995000D01*
G37*
X155589330Y-78995000D02*
X154395000Y-78995000D01*
X154395000Y-78499510D01*
X155589330Y-78499510D01*
X155589330Y-78995000D01*
G36*
X160798680Y-75295000D02*
X159595000Y-75295000D01*
X159595000Y-74792580D01*
X160798680Y-74792580D01*
X160798680Y-75295000D01*
G37*
X160798680Y-75295000D02*
X159595000Y-75295000D01*
X159595000Y-74792580D01*
X160798680Y-74792580D01*
X160798680Y-75295000D01*
G36*
X155591500Y-75295000D02*
X154395000Y-75295000D01*
X154395000Y-74791330D01*
X155591500Y-74791330D01*
X155591500Y-75295000D01*
G37*
X155591500Y-75295000D02*
X154395000Y-75295000D01*
X154395000Y-74791330D01*
X155591500Y-74791330D01*
X155591500Y-75295000D01*
D11*
X160100000Y-75800000D02*
X158700000Y-74400000D01*
X156500000Y-74400000D02*
X155100000Y-75800000D01*
X160100000Y-78000000D02*
X158700000Y-79400000D01*
X156500000Y-79400000D02*
X155100000Y-78000000D01*
X160200000Y-78300000D02*
X159000000Y-79500000D01*
X159000000Y-79500000D02*
X158700000Y-79400000D01*
X160200000Y-78300000D02*
X160100000Y-78000000D01*
X156200000Y-79500000D02*
X155000000Y-78300000D01*
X160200000Y-75500000D02*
X159000000Y-74300000D01*
X159000000Y-74300000D02*
X158700000Y-74400000D01*
X160200000Y-75500000D02*
X160100000Y-75800000D01*
X156200000Y-74300000D02*
X155000000Y-75500000D01*
X155000000Y-75500000D02*
X155100000Y-75800000D01*
X156200000Y-74300000D02*
X156500000Y-74400000D01*
X156200000Y-79500000D02*
X156500000Y-79400000D01*
X155000000Y-78300000D02*
X155100000Y-78000000D01*
D12*
G36*
X197048650Y-67395000D02*
X195845000Y-67395000D01*
X195845000Y-66896820D01*
X197048650Y-66896820D01*
X197048650Y-67395000D01*
G37*
X197048650Y-67395000D02*
X195845000Y-67395000D01*
X195845000Y-66896820D01*
X197048650Y-66896820D01*
X197048650Y-67395000D01*
G36*
X191839330Y-67395000D02*
X190645000Y-67395000D01*
X190645000Y-66899510D01*
X191839330Y-66899510D01*
X191839330Y-67395000D01*
G37*
X191839330Y-67395000D02*
X190645000Y-67395000D01*
X190645000Y-66899510D01*
X191839330Y-66899510D01*
X191839330Y-67395000D01*
G36*
X197048680Y-63695000D02*
X195845000Y-63695000D01*
X195845000Y-63192580D01*
X197048680Y-63192580D01*
X197048680Y-63695000D01*
G37*
X197048680Y-63695000D02*
X195845000Y-63695000D01*
X195845000Y-63192580D01*
X197048680Y-63192580D01*
X197048680Y-63695000D01*
G36*
X191841500Y-63695000D02*
X190645000Y-63695000D01*
X190645000Y-63191330D01*
X191841500Y-63191330D01*
X191841500Y-63695000D01*
G37*
X191841500Y-63695000D02*
X190645000Y-63695000D01*
X190645000Y-63191330D01*
X191841500Y-63191330D01*
X191841500Y-63695000D01*
D11*
X196350000Y-64200000D02*
X194950000Y-62800000D01*
X192750000Y-62800000D02*
X191350000Y-64200000D01*
X196350000Y-66400000D02*
X194950000Y-67800000D01*
X192750000Y-67800000D02*
X191350000Y-66400000D01*
X196450000Y-66700000D02*
X195250000Y-67900000D01*
X195250000Y-67900000D02*
X194950000Y-67800000D01*
X196450000Y-66700000D02*
X196350000Y-66400000D01*
X192450000Y-67900000D02*
X191250000Y-66700000D01*
X196450000Y-63900000D02*
X195250000Y-62700000D01*
X195250000Y-62700000D02*
X194950000Y-62800000D01*
X196450000Y-63900000D02*
X196350000Y-64200000D01*
X192450000Y-62700000D02*
X191250000Y-63900000D01*
X191250000Y-63900000D02*
X191350000Y-64200000D01*
X192450000Y-62700000D02*
X192750000Y-62800000D01*
X192450000Y-67900000D02*
X192750000Y-67800000D01*
X191250000Y-66700000D02*
X191350000Y-66400000D01*
X141270000Y-116770000D02*
X141270000Y-120770000D01*
X141270000Y-120770000D02*
X137270000Y-120770000D01*
X137270000Y-120770000D02*
X137270000Y-116770000D01*
X137270000Y-116770000D02*
X141270000Y-116770000D01*
X133700000Y-124020000D02*
X132300000Y-124020000D01*
X132300000Y-120980000D02*
X133700000Y-120980000D01*
D12*
G36*
X176398650Y-70695000D02*
X175195000Y-70695000D01*
X175195000Y-70196820D01*
X176398650Y-70196820D01*
X176398650Y-70695000D01*
G37*
X176398650Y-70695000D02*
X175195000Y-70695000D01*
X175195000Y-70196820D01*
X176398650Y-70196820D01*
X176398650Y-70695000D01*
G36*
X171189330Y-70695000D02*
X169995000Y-70695000D01*
X169995000Y-70199510D01*
X171189330Y-70199510D01*
X171189330Y-70695000D01*
G37*
X171189330Y-70695000D02*
X169995000Y-70695000D01*
X169995000Y-70199510D01*
X171189330Y-70199510D01*
X171189330Y-70695000D01*
G36*
X176398680Y-66995000D02*
X175195000Y-66995000D01*
X175195000Y-66492580D01*
X176398680Y-66492580D01*
X176398680Y-66995000D01*
G37*
X176398680Y-66995000D02*
X175195000Y-66995000D01*
X175195000Y-66492580D01*
X176398680Y-66492580D01*
X176398680Y-66995000D01*
G36*
X171191500Y-66995000D02*
X169995000Y-66995000D01*
X169995000Y-66491330D01*
X171191500Y-66491330D01*
X171191500Y-66995000D01*
G37*
X171191500Y-66995000D02*
X169995000Y-66995000D01*
X169995000Y-66491330D01*
X171191500Y-66491330D01*
X171191500Y-66995000D01*
D11*
X175700000Y-67500000D02*
X174300000Y-66100000D01*
X172100000Y-66100000D02*
X170700000Y-67500000D01*
X175700000Y-69700000D02*
X174300000Y-71100000D01*
X172100000Y-71100000D02*
X170700000Y-69700000D01*
X175800000Y-70000000D02*
X174600000Y-71200000D01*
X174600000Y-71200000D02*
X174300000Y-71100000D01*
X175800000Y-70000000D02*
X175700000Y-69700000D01*
X171800000Y-71200000D02*
X170600000Y-70000000D01*
X175800000Y-67200000D02*
X174600000Y-66000000D01*
X174600000Y-66000000D02*
X174300000Y-66100000D01*
X175800000Y-67200000D02*
X175700000Y-67500000D01*
X171800000Y-66000000D02*
X170600000Y-67200000D01*
X170600000Y-67200000D02*
X170700000Y-67500000D01*
X171800000Y-66000000D02*
X172100000Y-66100000D01*
X171800000Y-71200000D02*
X172100000Y-71100000D01*
X170600000Y-70000000D02*
X170700000Y-69700000D01*
M02*
