M48
INCH,TZ
T1C0.016
T2C0.022
T3C0.026
T4C0.032
T5C0.035
T6C0.039
T7C0.040
%
G90
G05
T1
X45276Y-36630
X47874Y-33720
X48898Y-47323
X49606Y-42303
X49685Y-43799
X52657Y-42835
X53228Y-35906
X53465Y-46949
X53543Y-45512
X53583Y-48031
X53780Y-38287
X54094Y-24567
X54134Y-29331
X54409Y-23937
X55039Y-25039
X55118Y-48366
X55827Y-47972
X55906Y-38976
X56378Y-38031
X56457Y-37638
X56457Y-39764
X56693Y-47972
X56890Y-29528
X57008Y-38661
X57283Y-46260
X57402Y-28425
X57402Y-31732
X57480Y-26969
X58268Y-33071
X58268Y-35236
X58465Y-44882
X59213Y-33780
X59764Y-27717
X59764Y-28268
X59764Y-28898
X59764Y-29449
X61496Y-33228
X61732Y-25433
X61969Y-33307
X62402Y-25984
X62520Y-28346
X62795Y-37559
X63150Y-27165
X63780Y-28346
X63780Y-32441
X63937Y-24094
X64252Y-22913
X64331Y-23465
X64331Y-29213
X64331Y-33465
X64331Y-36378
X64882Y-27165
X65197Y-28661
X65197Y-36299
X65276Y-30866
X65512Y-25984
X65512Y-26457
X65512Y-27244
X66220Y-28661
X66299Y-27795
X66732Y-38465
X67874Y-28189
X68110Y-38465
X68346Y-27165
X69449Y-23780
X69449Y-24173
X69921Y-23780
X69921Y-24173
X70709Y-29764
X71496Y-23071
X71575Y-28268
X73307Y-25354
X73622Y-29134
X73937Y-34016
X74016Y-24409
X75827Y-27165
X75827Y-37323
T2
X58563Y-23701
X58563Y-24272
X58563Y-24803
X58967Y-23701
X58967Y-24272
X58967Y-24803
X59400Y-23701
X59400Y-24272
X59400Y-24803
X59843Y-23701
X59843Y-24272
X59843Y-24803
T3
X53943Y-48868
X55695Y-48868
T4
X53171Y-50098
X56459Y-50098
T5
X68882Y-33563
X69882Y-33563
X71161Y-33563
X72161Y-33563
T6
X46680Y-44765
X47323Y-45531
X61575Y-46323
X61575Y-47323
X61575Y-48323
X61575Y-49323
T7
X66654Y-50787
X71654Y-50787
T0
M30
