G04 #@! TF.FileFunction,Profile,NP*
%FSLAX46Y46*%
G04 Gerber Fmt 4.6, Leading zero omitted, Abs format (unit mm)*
G04 Created by KiCad (PCBNEW 4.0.7) date Monday, 12 '12e' March '12e' 2018, 16:45:08*
%MOMM*%
%LPD*%
G01*
G04 APERTURE LIST*
%ADD10C,0.100000*%
%ADD11C,0.103269*%
G04 APERTURE END LIST*
D10*
D11*
X112140959Y-38840976D02*
X110276565Y-40019789D01*
X110276565Y-40019789D02*
X109505910Y-41674348D01*
X109505910Y-41674348D02*
X109572350Y-43615016D01*
X109572350Y-43615016D02*
X110219243Y-45652155D01*
X110219243Y-45652155D02*
X111189945Y-47596127D01*
X111189945Y-47596127D02*
X112227816Y-49257296D01*
X112227816Y-49257296D02*
X113817168Y-50932029D01*
X113817168Y-50932029D02*
X115738958Y-52087183D01*
X115738958Y-52087183D02*
X117886242Y-52847927D01*
X117886242Y-52847927D02*
X120152073Y-53339431D01*
X120152073Y-53339431D02*
X122429508Y-53686867D01*
X122429508Y-53686867D02*
X124611602Y-54015404D01*
X124611602Y-54015404D02*
X126591410Y-54450213D01*
X126591410Y-54450213D02*
X124656532Y-56341409D01*
X124656532Y-56341409D02*
X123106525Y-58435160D01*
X123106525Y-58435160D02*
X121895500Y-60699479D01*
X121895500Y-60699479D02*
X120977568Y-63102376D01*
X120977568Y-63102376D02*
X120306839Y-65611864D01*
X120306839Y-65611864D02*
X119837426Y-68195953D01*
X119837426Y-68195953D02*
X119523437Y-70822656D01*
X119523437Y-70822656D02*
X119318985Y-73459982D01*
X119318985Y-73459982D02*
X119178180Y-76075945D01*
X119178180Y-76075945D02*
X119055133Y-78638555D01*
X119055133Y-78638555D02*
X117215481Y-79602117D01*
X117215481Y-79602117D02*
X115269800Y-80587585D01*
X115269800Y-80587585D02*
X113469552Y-81821295D01*
X113469552Y-81821295D02*
X112066198Y-83529584D01*
X112066198Y-83529584D02*
X110776976Y-85859471D01*
X110776976Y-85859471D02*
X109970500Y-88306712D01*
X109970500Y-88306712D02*
X109595578Y-90835432D01*
X109595578Y-90835432D02*
X109601021Y-93409761D01*
X109601021Y-93409761D02*
X109935638Y-95993826D01*
X109935638Y-95993826D02*
X110548240Y-98551753D01*
X110548240Y-98551753D02*
X111387635Y-101047671D01*
X111387635Y-101047671D02*
X112402634Y-103445708D01*
X112402634Y-103445708D02*
X113542046Y-105709989D01*
X113542046Y-105709989D02*
X113053156Y-108024121D01*
X113053156Y-108024121D02*
X113113637Y-110254458D01*
X113113637Y-110254458D02*
X113651279Y-112390095D01*
X113651279Y-112390095D02*
X114593872Y-114420129D01*
X114593872Y-114420129D02*
X115869205Y-116333655D01*
X115869205Y-116333655D02*
X117405069Y-118119766D01*
X117405069Y-118119766D02*
X119129253Y-119767560D01*
X119129253Y-119767560D02*
X120969548Y-121266131D01*
X120969548Y-121266131D02*
X122853743Y-122604574D01*
X122853743Y-122604574D02*
X124709628Y-123771984D01*
X124709628Y-123771984D02*
X126916540Y-125325671D01*
X126916540Y-125325671D02*
X129275066Y-126671463D01*
X129275066Y-126671463D02*
X131755007Y-127779270D01*
X131755007Y-127779270D02*
X134326166Y-128619004D01*
X134326166Y-128619004D02*
X136958348Y-129160574D01*
X136958348Y-129160574D02*
X139621353Y-129373892D01*
X139621353Y-129373892D02*
X142284986Y-129228866D01*
X142284986Y-129228866D02*
X144919049Y-128695408D01*
X144919049Y-128695408D02*
X146797622Y-130303695D01*
X146797622Y-130303695D02*
X148767443Y-131848878D01*
X148767443Y-131848878D02*
X150821085Y-133318056D01*
X150821085Y-133318056D02*
X152951125Y-134698330D01*
X152951125Y-134698330D02*
X155150137Y-135976800D01*
X155150137Y-135976800D02*
X157410697Y-137140566D01*
X157410697Y-137140566D02*
X159725380Y-138176730D01*
X159725380Y-138176730D02*
X162086761Y-139072391D01*
X162086761Y-139072391D02*
X164487416Y-139814649D01*
X164487416Y-139814649D02*
X166919920Y-140390605D01*
X166919920Y-140390605D02*
X169376847Y-140787360D01*
X169376847Y-140787360D02*
X171850774Y-140992014D01*
X171850774Y-140992014D02*
X174334276Y-140991666D01*
X174334276Y-140991666D02*
X176819927Y-140773418D01*
X176819927Y-140773418D02*
X179300304Y-140324370D01*
X179300304Y-140324370D02*
X181767981Y-139631621D01*
X181767981Y-139631621D02*
X183832311Y-138377889D01*
X183832311Y-138377889D02*
X185562429Y-136821498D01*
X185562429Y-136821498D02*
X187024903Y-135023729D01*
X187024903Y-135023729D02*
X188286303Y-133045864D01*
X188286303Y-133045864D02*
X189413199Y-130949183D01*
X189413199Y-130949183D02*
X190472159Y-128794966D01*
X190472159Y-128794966D02*
X191529754Y-126644494D01*
X191529754Y-126644494D02*
X192652553Y-124559049D01*
X192652553Y-124559049D02*
X193907125Y-122599909D01*
X193907125Y-122599909D02*
X195202781Y-120166700D01*
X195202781Y-120166700D02*
X196123733Y-117647907D01*
X196123733Y-117647907D02*
X196712167Y-115061013D01*
X196712167Y-115061013D02*
X197010270Y-112423499D01*
X197010270Y-112423499D02*
X197060228Y-109752847D01*
X197060228Y-109752847D02*
X196904227Y-107066539D01*
X196904227Y-107066539D02*
X196584454Y-104382056D01*
X196584454Y-104382056D02*
X196143095Y-101716882D01*
X196143095Y-101716882D02*
X195622338Y-99088496D01*
X195622338Y-99088496D02*
X197514987Y-98224360D01*
X197514987Y-98224360D02*
X198700191Y-96712938D01*
X198700191Y-96712938D02*
X199434613Y-94784523D01*
X199434613Y-94784523D02*
X199974917Y-92669409D01*
X199974917Y-92669409D02*
X200577764Y-90597891D01*
X200577764Y-90597891D02*
X201499819Y-88800261D01*
X201499819Y-88800261D02*
X202709776Y-86599956D01*
X202709776Y-86599956D02*
X203822344Y-84282961D01*
X203822344Y-84282961D02*
X204777393Y-81878242D01*
X204777393Y-81878242D02*
X205514793Y-79414761D01*
X205514793Y-79414761D02*
X205974414Y-76921485D01*
X205974414Y-76921485D02*
X206096126Y-74427376D01*
X206096126Y-74427376D02*
X205819799Y-71961400D01*
X205819799Y-71961400D02*
X205085303Y-69552520D01*
X205085303Y-69552520D02*
X203832507Y-67229701D01*
X203832507Y-67229701D02*
X202303436Y-65168009D01*
X202303436Y-65168009D02*
X200805904Y-63089509D01*
X200805904Y-63089509D02*
X199384991Y-60967595D01*
X199384991Y-60967595D02*
X198085777Y-58775664D01*
X198085777Y-58775664D02*
X196953340Y-56487109D01*
X196953340Y-56487109D02*
X195232131Y-54556486D01*
X195232131Y-54556486D02*
X193334969Y-52870104D01*
X193334969Y-52870104D02*
X191289470Y-51390479D01*
X191289470Y-51390479D02*
X189123249Y-50080127D01*
X189123249Y-50080127D02*
X186863920Y-48901563D01*
X186863920Y-48901563D02*
X184539101Y-47817301D01*
X184539101Y-47817301D02*
X182176405Y-46789858D01*
X182176405Y-46789858D02*
X179803449Y-45781749D01*
X179803449Y-45781749D02*
X177447847Y-44755488D01*
X177447847Y-44755488D02*
X175137215Y-43673592D01*
X175137215Y-43673592D02*
X172899169Y-42498576D01*
X172899169Y-42498576D02*
X170317180Y-41852357D01*
X170317180Y-41852357D02*
X167690365Y-41735153D01*
X167690365Y-41735153D02*
X165063708Y-42035623D01*
X165063708Y-42035623D02*
X162482190Y-42642426D01*
X162482190Y-42642426D02*
X159990796Y-43444222D01*
X159990796Y-43444222D02*
X157634509Y-44329669D01*
X157634509Y-44329669D02*
X155315990Y-43234412D01*
X155315990Y-43234412D02*
X152879022Y-42601222D01*
X152879022Y-42601222D02*
X150365703Y-42339064D01*
X150365703Y-42339064D02*
X147818131Y-42356905D01*
X147818131Y-42356905D02*
X145278405Y-42563711D01*
X145278405Y-42563711D02*
X142788623Y-42868447D01*
X142788623Y-42868447D02*
X140390883Y-43180080D01*
X140390883Y-43180080D02*
X138150688Y-42025284D01*
X138150688Y-42025284D02*
X135794323Y-41295191D01*
X135794323Y-41295191D02*
X133351137Y-40879188D01*
X133351137Y-40879188D02*
X130850478Y-40666659D01*
X130850478Y-40666659D02*
X128321693Y-40546988D01*
X128321693Y-40546988D02*
X125794130Y-40409562D01*
X125794130Y-40409562D02*
X123297137Y-40143765D01*
X123297137Y-40143765D02*
X120860062Y-39638981D01*
X120860062Y-39638981D02*
X118683391Y-39386151D01*
X118683391Y-39386151D02*
X116502214Y-39098395D01*
X116502214Y-39098395D02*
X114320174Y-38881430D01*
X114320174Y-38881430D02*
X112140910Y-38840976D01*
X112140910Y-38840976D02*
X112140959Y-38840976D01*
M02*
