G04 #@! TF.FileFunction,Copper,L2,Bot,Signal*
%FSLAX46Y46*%
G04 Gerber Fmt 4.6, Leading zero omitted, Abs format (unit mm)*
G04 Created by KiCad (PCBNEW 4.0.7) date Monday, 12 '12e' March '12e' 2018, 16:45:07*
%MOMM*%
%LPD*%
G01*
G04 APERTURE LIST*
%ADD10C,0.100000*%
%ADD11R,2.000000X2.000000*%
%ADD12C,2.000000*%
%ADD13R,1.250000X1.500000*%
%ADD14R,1.800000X1.800000*%
%ADD15C,1.800000*%
%ADD16R,1.800000X2.500000*%
%ADD17R,1.800000X1.000000*%
%ADD18O,1.000000X2.000000*%
%ADD19O,1.050000X2.100000*%
%ADD20R,1.800000X1.900000*%
%ADD21R,0.400000X1.350000*%
%ADD22R,2.185000X1.900000*%
%ADD23R,1.700000X1.700000*%
%ADD24O,1.700000X1.700000*%
%ADD25C,1.700000*%
%ADD26R,0.900000X0.800000*%
%ADD27R,0.800000X0.900000*%
%ADD28R,1.500000X1.300000*%
%ADD29R,1.300000X1.500000*%
%ADD30R,0.270000X0.810000*%
%ADD31R,0.810000X0.270000*%
%ADD32R,2.700000X2.700000*%
%ADD33R,1.300000X0.990000*%
%ADD34R,1.300000X0.590000*%
%ADD35R,3.800000X2.000000*%
%ADD36R,1.500000X2.000000*%
%ADD37O,2.000000X0.900000*%
%ADD38R,2.000000X0.900000*%
%ADD39R,4.300000X4.300000*%
%ADD40C,0.900000*%
%ADD41R,1.500000X3.200000*%
%ADD42C,0.600000*%
%ADD43C,0.250000*%
%ADD44C,0.400000*%
%ADD45C,1.000000*%
%ADD46C,0.350000*%
%ADD47C,0.254000*%
G04 APERTURE END LIST*
D10*
D11*
X182000000Y-129000000D03*
D12*
X169300000Y-129000000D03*
D13*
X134250000Y-118250000D03*
X134250000Y-115750000D03*
X132000000Y-118250000D03*
X132000000Y-115750000D03*
D14*
X174960000Y-85250000D03*
D15*
X177500000Y-85250000D03*
D16*
X123250000Y-96000000D03*
X123250000Y-100000000D03*
D17*
X146250000Y-124500000D03*
X146250000Y-122000000D03*
D18*
X137015000Y-124125000D03*
D19*
X135055000Y-127250000D03*
X143405000Y-127250000D03*
D20*
X138080000Y-127250000D03*
D21*
X139230000Y-124445000D03*
X138580000Y-124445000D03*
X137930000Y-124445000D03*
D22*
X135537500Y-127250000D03*
D20*
X140380000Y-127250000D03*
D21*
X140530000Y-124445000D03*
X139880000Y-124445000D03*
D22*
X142922500Y-127250000D03*
D18*
X141465000Y-124125000D03*
D23*
X156400000Y-125280000D03*
D24*
X156400000Y-122740000D03*
X156400000Y-120200000D03*
X156400000Y-117660000D03*
D10*
G36*
X120304768Y-114452493D02*
X121397507Y-115754768D01*
X120095232Y-116847507D01*
X119002493Y-115545232D01*
X120304768Y-114452493D01*
X120304768Y-114452493D01*
G37*
D25*
X118567319Y-113704247D02*
X118567319Y-113704247D01*
D26*
X141000000Y-79450000D03*
X141000000Y-77550000D03*
X143000000Y-78500000D03*
D27*
X141050000Y-70500000D03*
X142950000Y-70500000D03*
X142000000Y-72500000D03*
D14*
X180750000Y-85250000D03*
D15*
X183290000Y-85250000D03*
D28*
X168300000Y-58500000D03*
X171000000Y-58500000D03*
D29*
X138000000Y-79500000D03*
X138000000Y-76800000D03*
X138000000Y-70150000D03*
X138000000Y-72850000D03*
D28*
X167650000Y-77000000D03*
X170350000Y-77000000D03*
D29*
X172400000Y-74300000D03*
X172400000Y-77000000D03*
D28*
X177200000Y-77000000D03*
X174500000Y-77000000D03*
D30*
X140520000Y-120725000D03*
X140020000Y-120725000D03*
X139520000Y-120725000D03*
X139020000Y-120725000D03*
X138520000Y-120725000D03*
X138020000Y-120725000D03*
D31*
X137315000Y-120020000D03*
X137315000Y-119520000D03*
X137315000Y-119020000D03*
X137315000Y-118520000D03*
X137315000Y-118020000D03*
X137315000Y-117520000D03*
D30*
X138020000Y-116815000D03*
X138520000Y-116815000D03*
X139020000Y-116815000D03*
X139520000Y-116815000D03*
X140020000Y-116815000D03*
X140520000Y-116815000D03*
D31*
X141225000Y-117520000D03*
X141225000Y-118020000D03*
X141225000Y-118520000D03*
X141225000Y-119020000D03*
X141225000Y-119520000D03*
X141225000Y-120020000D03*
D32*
X139250000Y-118750000D03*
D33*
X131975000Y-123260000D03*
D34*
X131975000Y-121540000D03*
X134025000Y-121540000D03*
X134025000Y-123460000D03*
D35*
X125750000Y-84100000D03*
D36*
X125750000Y-90400000D03*
X123450000Y-90400000D03*
X128050000Y-90400000D03*
D37*
X142500000Y-67200000D03*
X160500000Y-67200000D03*
D38*
X160500000Y-55200000D03*
D37*
X160500000Y-56700000D03*
X160500000Y-58200000D03*
X160500000Y-59700000D03*
X160500000Y-61200000D03*
X160500000Y-62700000D03*
X160500000Y-64200000D03*
X160500000Y-65700000D03*
X142500000Y-65700000D03*
X142500000Y-64200000D03*
X142500000Y-62700000D03*
X142500000Y-61200000D03*
X142500000Y-59700000D03*
X142500000Y-58200000D03*
X142500000Y-56700000D03*
X142500000Y-55200000D03*
D39*
X150380000Y-61780000D03*
D40*
X152000000Y-60200000D03*
X150875000Y-60200000D03*
X149775000Y-60200000D03*
X148750000Y-60200000D03*
X152000000Y-61650000D03*
X149775000Y-61650000D03*
X148750000Y-61650000D03*
X150875000Y-61650000D03*
X152000000Y-63000000D03*
X149775000Y-63000000D03*
X148750000Y-63000000D03*
X150875000Y-63000000D03*
D28*
X168250000Y-63600000D03*
X170950000Y-63600000D03*
X171000000Y-61000000D03*
X168300000Y-61000000D03*
X170950000Y-66200000D03*
X168250000Y-66200000D03*
D41*
X119200000Y-90600000D03*
X119200000Y-86600000D03*
X132800000Y-92600000D03*
X132800000Y-88600000D03*
D28*
X170300000Y-74800000D03*
X167600000Y-74800000D03*
X171000000Y-68600000D03*
X168300000Y-68600000D03*
D42*
X165600000Y-72800000D03*
X168200000Y-72800000D03*
X187000000Y-74000000D03*
X135200000Y-91200000D03*
X158800000Y-72000000D03*
X188000000Y-62000000D03*
X186200000Y-64400000D03*
X187800000Y-86400000D03*
X159500000Y-95400000D03*
X136600000Y-97250000D03*
X133750000Y-108800000D03*
X126200000Y-111250000D03*
X126000000Y-107450000D03*
X121600000Y-85650000D03*
X151800000Y-74800000D03*
X151800000Y-73400000D03*
X151800000Y-71800000D03*
X151800000Y-70400000D03*
X166400000Y-66000000D03*
X166400000Y-67200000D03*
X143400000Y-95600000D03*
X143200000Y-96600000D03*
X176400000Y-61400000D03*
X177600000Y-61400000D03*
X177600000Y-60400000D03*
X176400000Y-60400000D03*
X136000000Y-115600000D03*
X173000000Y-97700000D03*
X169500000Y-97700000D03*
X141800000Y-121850000D03*
X115000000Y-93040000D03*
X150400000Y-85800000D03*
X124200000Y-120200000D03*
X135800000Y-119250000D03*
X144000000Y-121850000D03*
X136100000Y-122000000D03*
X140000000Y-122850000D03*
X162400000Y-61200000D03*
X162000000Y-72000000D03*
X162000000Y-82400000D03*
X165600000Y-92200000D03*
X166400000Y-69200000D03*
X163400000Y-92400000D03*
X163400000Y-85000000D03*
X163400000Y-74200000D03*
X163400000Y-59600000D03*
X137500000Y-74500000D03*
X142000000Y-99000000D03*
X144500000Y-75000000D03*
X138200000Y-60800000D03*
X179600000Y-75600000D03*
X158500000Y-66000000D03*
X146000000Y-68500000D03*
X148000000Y-84000000D03*
X148000000Y-89500000D03*
X148500000Y-114000000D03*
X145500000Y-117500000D03*
X163200000Y-58200000D03*
X181600000Y-58600000D03*
X181800000Y-71800000D03*
X173600000Y-69000000D03*
X192600000Y-94800000D03*
X192600000Y-69000000D03*
X137400000Y-62400000D03*
X165800000Y-78400000D03*
X168400000Y-70600000D03*
X156800000Y-64600000D03*
X139800000Y-63600000D03*
X172400000Y-71600000D03*
X143400000Y-101000000D03*
X157400000Y-84600000D03*
X144800000Y-98200000D03*
X156200000Y-84400000D03*
X145800000Y-72200000D03*
X145800000Y-80600000D03*
X164800000Y-69000000D03*
X160400000Y-69000000D03*
D43*
X190500000Y-62000000D02*
X192700000Y-62000000D01*
X192700000Y-62000000D02*
X193000000Y-61700000D01*
D44*
X170300000Y-74800000D02*
X170300000Y-76950000D01*
X170300000Y-76950000D02*
X170350000Y-77000000D01*
D45*
X189200000Y-77600000D02*
X189200000Y-74000000D01*
X189200000Y-74000000D02*
X189200000Y-65250000D01*
D44*
X187000000Y-74000000D02*
X189200000Y-74000000D01*
X170950000Y-68450000D02*
X170350000Y-69050000D01*
X170350000Y-69050000D02*
X170350000Y-77000000D01*
X170950000Y-66200000D02*
X170950000Y-68450000D01*
D45*
X132800000Y-92600000D02*
X135200000Y-92600000D01*
X135200000Y-92600000D02*
X145000000Y-92600000D01*
D44*
X135200000Y-91200000D02*
X135200000Y-92600000D01*
D45*
X152800000Y-88000000D02*
X159200000Y-88000000D01*
X159200000Y-88000000D02*
X159600000Y-88000000D01*
D44*
X159200000Y-72400000D02*
X159200000Y-88000000D01*
X158800000Y-72000000D02*
X159200000Y-72400000D01*
D45*
X146200000Y-92600000D02*
X146200000Y-93400000D01*
X145000000Y-92600000D02*
X145400000Y-92600000D01*
X146200000Y-93400000D02*
X146200000Y-96400000D01*
X145400000Y-92600000D02*
X146200000Y-93400000D01*
X145000000Y-92600000D02*
X146200000Y-92600000D01*
X146200000Y-88000000D02*
X146200000Y-91800000D01*
X146200000Y-91800000D02*
X146200000Y-92600000D01*
X145400000Y-92600000D02*
X146200000Y-91800000D01*
X132200000Y-95000000D02*
X132800000Y-94400000D01*
X132800000Y-94400000D02*
X132800000Y-92600000D01*
X128000000Y-95000000D02*
X132200000Y-95000000D01*
X149400000Y-120400000D02*
X151740000Y-122740000D01*
X151740000Y-122740000D02*
X156400000Y-122740000D01*
X149400000Y-118400000D02*
X149400000Y-120400000D01*
X146600000Y-115600000D02*
X149400000Y-118400000D01*
X146600000Y-96800000D02*
X146600000Y-115600000D01*
X146200000Y-96400000D02*
X146600000Y-96800000D01*
X146200000Y-88000000D02*
X151600000Y-88000000D01*
X152000000Y-88000000D02*
X152800000Y-88000000D01*
X151600000Y-88000000D02*
X152000000Y-88000000D01*
D44*
X152200000Y-87800000D02*
X152000000Y-88000000D01*
X188000000Y-62400000D02*
X188000000Y-62000000D01*
X187400000Y-63000000D02*
X188000000Y-62400000D01*
X187400000Y-63450000D02*
X187400000Y-63000000D01*
D45*
X189200000Y-65250000D02*
X187950000Y-64000000D01*
X187950000Y-64000000D02*
X187400000Y-63450000D01*
D44*
X186800000Y-64050000D02*
X187900000Y-64050000D01*
X187900000Y-64050000D02*
X187950000Y-64000000D01*
X186800000Y-64050000D02*
X187400000Y-63450000D01*
X186450000Y-64400000D02*
X186800000Y-64050000D01*
D45*
X187400000Y-63450000D02*
X186800000Y-62850000D01*
D44*
X186800000Y-64050000D02*
X186800000Y-62850000D01*
D45*
X186800000Y-62850000D02*
X186600000Y-62650000D01*
D44*
X186200000Y-64400000D02*
X186450000Y-64400000D01*
X185750000Y-87750000D02*
X185750000Y-86400000D01*
X185750000Y-86400000D02*
X185750000Y-79500000D01*
X187800000Y-86400000D02*
X185750000Y-86400000D01*
D45*
X185750000Y-79500000D02*
X187300000Y-79500000D01*
X187300000Y-79500000D02*
X189200000Y-77600000D01*
X159600000Y-88000000D02*
X164000000Y-88000000D01*
X164000000Y-88000000D02*
X167000000Y-85000000D01*
X167000000Y-85000000D02*
X167000000Y-80600000D01*
X167000000Y-80600000D02*
X168100000Y-79500000D01*
X168100000Y-79500000D02*
X170500000Y-79500000D01*
X170500000Y-54500000D02*
X171000000Y-54000000D01*
X171000000Y-54000000D02*
X176000000Y-49000000D01*
D44*
X171000000Y-55000000D02*
X171000000Y-54000000D01*
X169800000Y-55200000D02*
X170800000Y-55200000D01*
X170800000Y-55200000D02*
X171000000Y-55000000D01*
D45*
X169800000Y-55200000D02*
X170500000Y-54500000D01*
D44*
X171000000Y-58500000D02*
X171000000Y-55000000D01*
X171000000Y-55000000D02*
X170500000Y-54500000D01*
D45*
X182500000Y-49000000D02*
X186600000Y-53100000D01*
X186600000Y-53100000D02*
X186600000Y-62650000D01*
X176000000Y-49000000D02*
X182500000Y-49000000D01*
X160500000Y-55200000D02*
X169800000Y-55200000D01*
D43*
X138300000Y-121400000D02*
X138190000Y-121400000D01*
X138190000Y-121400000D02*
X138020000Y-121230000D01*
X138520000Y-121180000D02*
X138300000Y-121400000D01*
X138520000Y-120725000D02*
X138520000Y-121180000D01*
D44*
X159500000Y-95400000D02*
X159476060Y-95376060D01*
X159476060Y-95376060D02*
X159476060Y-88123940D01*
X159476060Y-88123940D02*
X159600000Y-88000000D01*
D43*
X137800000Y-121450000D02*
X136950000Y-121450000D01*
X136950000Y-121450000D02*
X136000000Y-120500000D01*
X138020000Y-121230000D02*
X137800000Y-121450000D01*
X138020000Y-120725000D02*
X138020000Y-121230000D01*
D45*
X128000000Y-95000000D02*
X128000000Y-97050000D01*
X128000000Y-97050000D02*
X128000000Y-107450000D01*
D44*
X136600000Y-97250000D02*
X128200000Y-97250000D01*
X128200000Y-97250000D02*
X128000000Y-97050000D01*
D45*
X128000000Y-107450000D02*
X128000000Y-108850000D01*
X128000000Y-108850000D02*
X128000000Y-111250000D01*
D44*
X133750000Y-108800000D02*
X128050000Y-108800000D01*
X128050000Y-108800000D02*
X128000000Y-108850000D01*
D45*
X128000000Y-111250000D02*
X128000000Y-116750000D01*
D44*
X126200000Y-111250000D02*
X128000000Y-111250000D01*
X126000000Y-107450000D02*
X128000000Y-107450000D01*
X121600000Y-84450000D02*
X121950000Y-84100000D01*
X121950000Y-84100000D02*
X125750000Y-84100000D01*
X121600000Y-85650000D02*
X121600000Y-84450000D01*
X125700000Y-84050000D02*
X125750000Y-84100000D01*
X132000000Y-118250000D02*
X134250000Y-118250000D01*
X185250000Y-88250000D02*
X185750000Y-87750000D01*
X183250000Y-88250000D02*
X185250000Y-88250000D01*
D45*
X174500000Y-79500000D02*
X185750000Y-79500000D01*
X172500000Y-79500000D02*
X174500000Y-79500000D01*
D44*
X174500000Y-77000000D02*
X174500000Y-79500000D01*
D45*
X170500000Y-79500000D02*
X172500000Y-79500000D01*
D44*
X172400000Y-77000000D02*
X172400000Y-79400000D01*
X172400000Y-79400000D02*
X172500000Y-79500000D01*
X170250000Y-77000000D02*
X170250000Y-79250000D01*
X170250000Y-79250000D02*
X170500000Y-79500000D01*
X134250000Y-120000000D02*
X134750000Y-120500000D01*
X134750000Y-120500000D02*
X136000000Y-120500000D01*
X134250000Y-118250000D02*
X134250000Y-120000000D01*
D43*
X136480000Y-120020000D02*
X136000000Y-120500000D01*
X137315000Y-120020000D02*
X136480000Y-120020000D01*
D45*
X128000000Y-116750000D02*
X129500000Y-118250000D01*
X129500000Y-118250000D02*
X134250000Y-118250000D01*
X125750000Y-92750000D02*
X128000000Y-95000000D01*
X125750000Y-90400000D02*
X125750000Y-92750000D01*
X125750000Y-90400000D02*
X125750000Y-84100000D01*
D44*
X151800000Y-73400000D02*
X151800000Y-74800000D01*
X151800000Y-70400000D02*
X151800000Y-71800000D01*
X160500000Y-67200000D02*
X166400000Y-67200000D01*
D43*
X143200000Y-96600000D02*
X143400000Y-96400000D01*
X143400000Y-96400000D02*
X143400000Y-95600000D01*
X177600000Y-60400000D02*
X177600000Y-61400000D01*
X171000000Y-61000000D02*
X175800000Y-61000000D01*
X175800000Y-61000000D02*
X176400000Y-60400000D01*
D44*
X145400000Y-55200000D02*
X147200000Y-57000000D01*
X147200000Y-57000000D02*
X147200000Y-60200000D01*
X142500000Y-55200000D02*
X145400000Y-55200000D01*
X152000000Y-60200000D02*
X153800000Y-60200000D01*
X148750000Y-63000000D02*
X147200000Y-63000000D01*
X148750000Y-60200000D02*
X147200000Y-60200000D01*
X148750000Y-60200000D02*
X148750000Y-58450000D01*
X152000000Y-60200000D02*
X152000000Y-58400000D01*
X150875000Y-60200000D02*
X150875000Y-58475000D01*
X149775000Y-60200000D02*
X149775000Y-58575000D01*
X152000000Y-63000000D02*
X154000000Y-63000000D01*
X152000000Y-61650000D02*
X154150000Y-61650000D01*
X148750000Y-61650000D02*
X146650000Y-61650000D01*
D43*
X136000000Y-115600000D02*
X135850000Y-115750000D01*
X135850000Y-115750000D02*
X134250000Y-115750000D01*
D44*
X169500000Y-97700000D02*
X173000000Y-97700000D01*
D43*
X132600000Y-125650000D02*
X131975000Y-125025000D01*
X131975000Y-125025000D02*
X131975000Y-123260000D01*
X137600000Y-125650000D02*
X132600000Y-125650000D01*
X137930000Y-125320000D02*
X137600000Y-125650000D01*
X137930000Y-124445000D02*
X137930000Y-125320000D01*
X137930000Y-124445000D02*
X137930000Y-123520000D01*
X137930000Y-123520000D02*
X138000000Y-123450000D01*
X138400000Y-123450000D02*
X138580000Y-123630000D01*
X138000000Y-123450000D02*
X138400000Y-123450000D01*
X138580000Y-123630000D02*
X138580000Y-124445000D01*
X140200000Y-121850000D02*
X141800000Y-121850000D01*
X140020000Y-121670000D02*
X140200000Y-121850000D01*
X140020000Y-120725000D02*
X140020000Y-121670000D01*
X140020000Y-120725000D02*
X140020000Y-119520000D01*
X140020000Y-119520000D02*
X139250000Y-118750000D01*
D45*
X119200000Y-90600000D02*
X123250000Y-90600000D01*
X123250000Y-90600000D02*
X123450000Y-90400000D01*
X117560000Y-93040000D02*
X118800000Y-91800000D01*
X115000000Y-93040000D02*
X117560000Y-93040000D01*
X123250000Y-96250000D02*
X123250000Y-90600000D01*
X123350000Y-90500000D02*
X123450000Y-90400000D01*
D44*
X174750000Y-85460000D02*
X174960000Y-85250000D01*
X142500000Y-56700000D02*
X136100000Y-56700000D01*
X136100000Y-56700000D02*
X135800000Y-57000000D01*
X138200000Y-85800000D02*
X150400000Y-85800000D01*
X135800000Y-83400000D02*
X138200000Y-85800000D01*
X135800000Y-57000000D02*
X135800000Y-83400000D01*
D45*
X123400000Y-119400000D02*
X124200000Y-120200000D01*
X123400000Y-118250000D02*
X123400000Y-119400000D01*
D43*
X137315000Y-119520000D02*
X136070000Y-119520000D01*
X136070000Y-119520000D02*
X135800000Y-119250000D01*
D45*
X123400000Y-118250000D02*
X123400000Y-100150000D01*
X123400000Y-100150000D02*
X123250000Y-100000000D01*
X146250000Y-122000000D02*
X144150000Y-122000000D01*
X144150000Y-122000000D02*
X144000000Y-121850000D01*
D44*
X144000000Y-124750000D02*
X146000000Y-124750000D01*
X146000000Y-124750000D02*
X146250000Y-124500000D01*
X143000000Y-125750000D02*
X144000000Y-124750000D01*
X140750000Y-125750000D02*
X143000000Y-125750000D01*
X140530000Y-125530000D02*
X140750000Y-125750000D01*
X140530000Y-124445000D02*
X140530000Y-125530000D01*
D46*
X135040000Y-123460000D02*
X135750000Y-122750000D01*
X135750000Y-122750000D02*
X139230000Y-122750000D01*
X134025000Y-123460000D02*
X135040000Y-123460000D01*
X139230000Y-124445000D02*
X139230000Y-122750000D01*
D43*
X139230000Y-122750000D02*
X139230000Y-122020000D01*
X139520000Y-120725000D02*
X139520000Y-121730000D01*
X139520000Y-121730000D02*
X139230000Y-122020000D01*
X136100000Y-122000000D02*
X138500000Y-122000000D01*
X134025000Y-121540000D02*
X135640000Y-121540000D01*
X135640000Y-121540000D02*
X136100000Y-122000000D01*
X139880000Y-124445000D02*
X139880000Y-122970000D01*
X139880000Y-122970000D02*
X140000000Y-122850000D01*
X139020000Y-121480000D02*
X138500000Y-122000000D01*
X139020000Y-120725000D02*
X139020000Y-121480000D01*
D44*
X162000000Y-73400000D02*
X162000000Y-73000000D01*
X162000000Y-73000000D02*
X162000000Y-72000000D01*
X165600000Y-74800000D02*
X163800000Y-73000000D01*
X163800000Y-73000000D02*
X162000000Y-73000000D01*
X167600000Y-74800000D02*
X165600000Y-74800000D01*
X162400000Y-61200000D02*
X160500000Y-61200000D01*
X162000000Y-82400000D02*
X162000000Y-73400000D01*
X165600000Y-117600000D02*
X165600000Y-92200000D01*
X163000000Y-120200000D02*
X165600000Y-117600000D01*
X156400000Y-120200000D02*
X163000000Y-120200000D01*
X167000000Y-68600000D02*
X168300000Y-68600000D01*
X166400000Y-69200000D02*
X167000000Y-68600000D01*
X168300000Y-68600000D02*
X167600000Y-68600000D01*
X163400000Y-75400000D02*
X163400000Y-74200000D01*
X163400000Y-85000000D02*
X163400000Y-75400000D01*
X163400000Y-116400000D02*
X162140000Y-117660000D01*
X162140000Y-117660000D02*
X156400000Y-117660000D01*
X163400000Y-92400000D02*
X163400000Y-116400000D01*
X160500000Y-59700000D02*
X163300000Y-59700000D01*
X163300000Y-59700000D02*
X163400000Y-59600000D01*
X141000000Y-79450000D02*
X138050000Y-79450000D01*
X138050000Y-79450000D02*
X138000000Y-79500000D01*
D43*
X141000000Y-77550000D02*
X139850000Y-77550000D01*
X139850000Y-77550000D02*
X139200000Y-78200000D01*
X139200000Y-78200000D02*
X136800000Y-78200000D01*
X136800000Y-78200000D02*
X136600000Y-78000000D01*
X136600000Y-73400000D02*
X137150000Y-72850000D01*
X136600000Y-78000000D02*
X136600000Y-73400000D01*
X137150000Y-72850000D02*
X138000000Y-72850000D01*
X137500000Y-74500000D02*
X138000000Y-74000000D01*
X138000000Y-74000000D02*
X138000000Y-72850000D01*
X142000000Y-99000000D02*
X142000000Y-117500000D01*
X141980000Y-117520000D02*
X142000000Y-117500000D01*
X141225000Y-117520000D02*
X141980000Y-117520000D01*
X144000000Y-78000000D02*
X144000000Y-75500000D01*
X144000000Y-75500000D02*
X144500000Y-75000000D01*
X143500000Y-78500000D02*
X144000000Y-78000000D01*
X143000000Y-78500000D02*
X143500000Y-78500000D01*
D44*
X138200000Y-60800000D02*
X138200000Y-60000000D01*
X179600000Y-76600000D02*
X179600000Y-75600000D01*
X179600000Y-76600000D02*
X179200000Y-77000000D01*
X179200000Y-77000000D02*
X177200000Y-77000000D01*
X138500000Y-59700000D02*
X138200000Y-60000000D01*
X142500000Y-59700000D02*
X138500000Y-59700000D01*
D43*
X138000000Y-70150000D02*
X140700000Y-70150000D01*
X140700000Y-70150000D02*
X141050000Y-70500000D01*
X158800000Y-66000000D02*
X159100000Y-65700000D01*
X159100000Y-65700000D02*
X160500000Y-65700000D01*
X158500000Y-66000000D02*
X158800000Y-66000000D01*
X143000000Y-70500000D02*
X145000000Y-68500000D01*
X145000000Y-68500000D02*
X146000000Y-68500000D01*
X142950000Y-70500000D02*
X143000000Y-70500000D01*
X147500000Y-70500000D02*
X148000000Y-71000000D01*
X148000000Y-71000000D02*
X148000000Y-84000000D01*
X145000000Y-70500000D02*
X147500000Y-70500000D01*
X144500000Y-71000000D02*
X145000000Y-70500000D01*
X144500000Y-72000000D02*
X144500000Y-71000000D01*
X144000000Y-72500000D02*
X144500000Y-72000000D01*
X142000000Y-72500000D02*
X144000000Y-72500000D01*
X139200000Y-76800000D02*
X142000000Y-74000000D01*
X142000000Y-74000000D02*
X142000000Y-72500000D01*
X138000000Y-76800000D02*
X139200000Y-76800000D01*
X148500000Y-90000000D02*
X148000000Y-89500000D01*
X148500000Y-114000000D02*
X148500000Y-90000000D01*
X143480000Y-119520000D02*
X145500000Y-117500000D01*
X141225000Y-119520000D02*
X143480000Y-119520000D01*
D44*
X163200000Y-58200000D02*
X160500000Y-58200000D01*
X181800000Y-71800000D02*
X181800000Y-58800000D01*
X181800000Y-58800000D02*
X181600000Y-58600000D01*
X180550000Y-85450000D02*
X180750000Y-85250000D01*
X163200000Y-56700000D02*
X165000000Y-58500000D01*
X165000000Y-58500000D02*
X168300000Y-58500000D01*
X160500000Y-56700000D02*
X163200000Y-56700000D01*
X173600000Y-64400000D02*
X172800000Y-63600000D01*
X172800000Y-63600000D02*
X170950000Y-63600000D01*
X173600000Y-69000000D02*
X173600000Y-64400000D01*
X192600000Y-69000000D02*
X192600000Y-94800000D01*
X160500000Y-62700000D02*
X165300000Y-62700000D01*
X165300000Y-62700000D02*
X167000000Y-61000000D01*
X167000000Y-61000000D02*
X168300000Y-61000000D01*
X137400000Y-62400000D02*
X139400000Y-62400000D01*
X139400000Y-62400000D02*
X140600000Y-61200000D01*
X140600000Y-61200000D02*
X142500000Y-61200000D01*
X166400000Y-77000000D02*
X165800000Y-77600000D01*
X165800000Y-77600000D02*
X165800000Y-78400000D01*
X167650000Y-77000000D02*
X166400000Y-77000000D01*
X158600000Y-69600000D02*
X159600000Y-70600000D01*
X159600000Y-70600000D02*
X168400000Y-70600000D01*
X158600000Y-67800000D02*
X158600000Y-69600000D01*
X156800000Y-66000000D02*
X158600000Y-67800000D01*
X156800000Y-64600000D02*
X156800000Y-66000000D01*
X139800000Y-66600000D02*
X139800000Y-63600000D01*
X140400000Y-67200000D02*
X139800000Y-66600000D01*
X142500000Y-67200000D02*
X140400000Y-67200000D01*
X172400000Y-74300000D02*
X172400000Y-71600000D01*
X143400000Y-101000000D02*
X143200000Y-101200000D01*
X143200000Y-101200000D02*
X143200000Y-114200000D01*
X157400000Y-68200000D02*
X157400000Y-84600000D01*
X155800000Y-66600000D02*
X157400000Y-68200000D01*
X148400000Y-66600000D02*
X155800000Y-66600000D01*
X146000000Y-64200000D02*
X148400000Y-66600000D01*
X142500000Y-64200000D02*
X146000000Y-64200000D01*
D43*
X143200000Y-117200000D02*
X143200000Y-114200000D01*
X142380000Y-118020000D02*
X143200000Y-117200000D01*
X141225000Y-118020000D02*
X142380000Y-118020000D01*
D44*
X144400000Y-114400000D02*
X144400000Y-98600000D01*
X144400000Y-98600000D02*
X144800000Y-98200000D01*
X156200000Y-68600000D02*
X156200000Y-84400000D01*
X155200000Y-67600000D02*
X156200000Y-68600000D01*
X147600000Y-67600000D02*
X155200000Y-67600000D01*
X145700000Y-65700000D02*
X147600000Y-67600000D01*
X142500000Y-65700000D02*
X145700000Y-65700000D01*
D43*
X144400000Y-117000000D02*
X144400000Y-114400000D01*
X142880000Y-118520000D02*
X144400000Y-117000000D01*
X141225000Y-118520000D02*
X142880000Y-118520000D01*
D44*
X145800000Y-80600000D02*
X145800000Y-72200000D01*
X160400000Y-69000000D02*
X164800000Y-69000000D01*
X168250000Y-63600000D02*
X168250000Y-66200000D01*
X166000000Y-63500000D02*
X168150000Y-63500000D01*
X168150000Y-63500000D02*
X168250000Y-63600000D01*
X165300000Y-64200000D02*
X166000000Y-63500000D01*
X160500000Y-64200000D02*
X165300000Y-64200000D01*
D47*
G36*
X202873000Y-68802606D02*
X202873000Y-81197394D01*
X197910197Y-86160197D01*
X197882334Y-86202211D01*
X197873000Y-86250000D01*
X197873000Y-93699292D01*
X193157925Y-98662529D01*
X193131148Y-98705243D01*
X193123099Y-98755009D01*
X193134186Y-98802116D01*
X195373000Y-103777258D01*
X195373000Y-116220020D01*
X187895626Y-131174768D01*
X180447394Y-138623000D01*
X165540699Y-138623000D01*
X152521812Y-129323795D01*
X167664716Y-129323795D01*
X167913106Y-129924943D01*
X168372637Y-130385278D01*
X168973352Y-130634716D01*
X169623795Y-130635284D01*
X170224943Y-130386894D01*
X170685278Y-129927363D01*
X170934716Y-129326648D01*
X170934751Y-129285750D01*
X180365000Y-129285750D01*
X180365000Y-130126309D01*
X180461673Y-130359698D01*
X180640301Y-130538327D01*
X180873690Y-130635000D01*
X181714250Y-130635000D01*
X181873000Y-130476250D01*
X181873000Y-129127000D01*
X182127000Y-129127000D01*
X182127000Y-130476250D01*
X182285750Y-130635000D01*
X183126310Y-130635000D01*
X183359699Y-130538327D01*
X183538327Y-130359698D01*
X183635000Y-130126309D01*
X183635000Y-129285750D01*
X183476250Y-129127000D01*
X182127000Y-129127000D01*
X181873000Y-129127000D01*
X180523750Y-129127000D01*
X180365000Y-129285750D01*
X170934751Y-129285750D01*
X170935284Y-128676205D01*
X170686894Y-128075057D01*
X170485880Y-127873691D01*
X180365000Y-127873691D01*
X180365000Y-128714250D01*
X180523750Y-128873000D01*
X181873000Y-128873000D01*
X181873000Y-127523750D01*
X182127000Y-127523750D01*
X182127000Y-128873000D01*
X183476250Y-128873000D01*
X183635000Y-128714250D01*
X183635000Y-127873691D01*
X183538327Y-127640302D01*
X183359699Y-127461673D01*
X183126310Y-127365000D01*
X182285750Y-127365000D01*
X182127000Y-127523750D01*
X181873000Y-127523750D01*
X181714250Y-127365000D01*
X180873690Y-127365000D01*
X180640301Y-127461673D01*
X180461673Y-127640302D01*
X180365000Y-127873691D01*
X170485880Y-127873691D01*
X170227363Y-127614722D01*
X169626648Y-127365284D01*
X168976205Y-127364716D01*
X168375057Y-127613106D01*
X167914722Y-128072637D01*
X167665284Y-128673352D01*
X167664716Y-129323795D01*
X152521812Y-129323795D01*
X148073817Y-126146656D01*
X148027795Y-126126079D01*
X148000000Y-126123000D01*
X145500000Y-126123000D01*
X145450590Y-126133006D01*
X145410197Y-126160197D01*
X144662440Y-126907954D01*
X144662440Y-126300000D01*
X144618162Y-126064683D01*
X144479090Y-125848559D01*
X144266890Y-125703569D01*
X144233966Y-125696902D01*
X144345868Y-125585000D01*
X145081380Y-125585000D01*
X145098110Y-125596431D01*
X145350000Y-125647440D01*
X147150000Y-125647440D01*
X147385317Y-125603162D01*
X147443456Y-125565750D01*
X154915000Y-125565750D01*
X154915000Y-126256310D01*
X155011673Y-126489699D01*
X155190302Y-126668327D01*
X155423691Y-126765000D01*
X156114250Y-126765000D01*
X156273000Y-126606250D01*
X156273000Y-125407000D01*
X156527000Y-125407000D01*
X156527000Y-126606250D01*
X156685750Y-126765000D01*
X157376309Y-126765000D01*
X157609698Y-126668327D01*
X157788327Y-126489699D01*
X157885000Y-126256310D01*
X157885000Y-125565750D01*
X157726250Y-125407000D01*
X156527000Y-125407000D01*
X156273000Y-125407000D01*
X155073750Y-125407000D01*
X154915000Y-125565750D01*
X147443456Y-125565750D01*
X147601441Y-125464090D01*
X147746431Y-125251890D01*
X147797440Y-125000000D01*
X147797440Y-124000000D01*
X147753162Y-123764683D01*
X147614090Y-123548559D01*
X147401890Y-123403569D01*
X147150000Y-123352560D01*
X145350000Y-123352560D01*
X145114683Y-123396838D01*
X144898559Y-123535910D01*
X144753569Y-123748110D01*
X144719773Y-123915000D01*
X144000000Y-123915000D01*
X143680460Y-123978560D01*
X143409566Y-124159566D01*
X142654132Y-124915000D01*
X142548687Y-124915000D01*
X142600000Y-124657032D01*
X142600000Y-123592968D01*
X142513603Y-123158622D01*
X142267566Y-122790402D01*
X141899346Y-122544365D01*
X141465000Y-122457968D01*
X141030654Y-122544365D01*
X140916815Y-122620430D01*
X140793117Y-122321057D01*
X140530327Y-122057808D01*
X140238868Y-121936783D01*
X140256130Y-121850000D01*
X142865000Y-121850000D01*
X142951397Y-122284345D01*
X143197434Y-122652566D01*
X143347434Y-122802566D01*
X143715654Y-123048603D01*
X144150000Y-123135000D01*
X145288569Y-123135000D01*
X145350000Y-123147440D01*
X147150000Y-123147440D01*
X147385317Y-123103162D01*
X147601441Y-122964090D01*
X147746431Y-122751890D01*
X147797440Y-122500000D01*
X147797440Y-121500000D01*
X147753162Y-121264683D01*
X147614090Y-121048559D01*
X147401890Y-120903569D01*
X147150000Y-120852560D01*
X145350000Y-120852560D01*
X145283887Y-120865000D01*
X144529534Y-120865000D01*
X144434345Y-120801397D01*
X144000000Y-120715000D01*
X143565655Y-120801397D01*
X143197434Y-121047434D01*
X142951397Y-121415655D01*
X142865000Y-121850000D01*
X140256130Y-121850000D01*
X140273038Y-121765000D01*
X140281310Y-121765000D01*
X140295186Y-121759252D01*
X140385000Y-121777440D01*
X140655000Y-121777440D01*
X140890317Y-121733162D01*
X141106441Y-121594090D01*
X141251431Y-121381890D01*
X141302440Y-121130000D01*
X141302440Y-120802440D01*
X141630000Y-120802440D01*
X141865317Y-120758162D01*
X142081441Y-120619090D01*
X142226431Y-120406890D01*
X142252127Y-120280000D01*
X143480000Y-120280000D01*
X143770839Y-120222148D01*
X144017401Y-120057401D01*
X145639680Y-118435122D01*
X145685167Y-118435162D01*
X146028943Y-118293117D01*
X146292192Y-118030327D01*
X146434838Y-117686799D01*
X146435162Y-117314833D01*
X146293117Y-116971057D01*
X146030327Y-116707808D01*
X145686799Y-116565162D01*
X145314833Y-116564838D01*
X145160000Y-116628814D01*
X145160000Y-114736661D01*
X145171439Y-114719541D01*
X145235000Y-114400000D01*
X145235000Y-99031933D01*
X145328943Y-98993117D01*
X145465000Y-98857297D01*
X145465000Y-115600000D01*
X145551397Y-116034346D01*
X145727466Y-116297852D01*
X145797434Y-116402566D01*
X148265000Y-118870132D01*
X148265000Y-120400000D01*
X148351397Y-120834346D01*
X148522510Y-121090434D01*
X148597434Y-121202566D01*
X150937434Y-123542566D01*
X151305654Y-123788603D01*
X151740000Y-123875000D01*
X155230554Y-123875000D01*
X155190302Y-123891673D01*
X155011673Y-124070301D01*
X154915000Y-124303690D01*
X154915000Y-124994250D01*
X155073750Y-125153000D01*
X156273000Y-125153000D01*
X156273000Y-125133000D01*
X156527000Y-125133000D01*
X156527000Y-125153000D01*
X157726250Y-125153000D01*
X157885000Y-124994250D01*
X157885000Y-124303690D01*
X157788327Y-124070301D01*
X157609698Y-123891673D01*
X157435223Y-123819403D01*
X157479147Y-123790054D01*
X157801054Y-123308285D01*
X157914093Y-122740000D01*
X157801054Y-122171715D01*
X157479147Y-121689946D01*
X157149974Y-121470000D01*
X157479147Y-121250054D01*
X157622841Y-121035000D01*
X163000000Y-121035000D01*
X163319541Y-120971439D01*
X163590434Y-120790434D01*
X166190434Y-118190434D01*
X166228737Y-118133110D01*
X166371439Y-117919541D01*
X166435000Y-117600000D01*
X166435000Y-105748725D01*
X179614587Y-105748725D01*
X179976916Y-106625629D01*
X180647242Y-107297126D01*
X181523513Y-107660985D01*
X182472325Y-107661813D01*
X183349229Y-107299484D01*
X184020726Y-106629158D01*
X184384585Y-105752887D01*
X184385413Y-104804075D01*
X184023084Y-103927171D01*
X183352758Y-103255674D01*
X182476487Y-102891815D01*
X181527675Y-102890987D01*
X180650771Y-103253316D01*
X179979274Y-103923642D01*
X179615415Y-104799913D01*
X179614587Y-105748725D01*
X166435000Y-105748725D01*
X166435000Y-92627234D01*
X166534838Y-92386799D01*
X166535162Y-92014833D01*
X166393117Y-91671057D01*
X166130327Y-91407808D01*
X165786799Y-91265162D01*
X165414833Y-91264838D01*
X165071057Y-91406883D01*
X164807808Y-91669673D01*
X164665162Y-92013201D01*
X164664838Y-92385167D01*
X164765000Y-92627578D01*
X164765000Y-117254132D01*
X162654132Y-119365000D01*
X157622841Y-119365000D01*
X157479147Y-119149946D01*
X157149974Y-118930000D01*
X157479147Y-118710054D01*
X157622841Y-118495000D01*
X162140000Y-118495000D01*
X162459541Y-118431439D01*
X162730434Y-118250434D01*
X163990434Y-116990434D01*
X164009033Y-116962599D01*
X164171439Y-116719541D01*
X164235000Y-116400000D01*
X164235000Y-92827234D01*
X164334838Y-92586799D01*
X164335162Y-92214833D01*
X164193117Y-91871057D01*
X163930327Y-91607808D01*
X163586799Y-91465162D01*
X163214833Y-91464838D01*
X162871057Y-91606883D01*
X162607808Y-91869673D01*
X162465162Y-92213201D01*
X162464838Y-92585167D01*
X162565000Y-92827578D01*
X162565000Y-116054132D01*
X161794132Y-116825000D01*
X157622841Y-116825000D01*
X157479147Y-116609946D01*
X156997378Y-116288039D01*
X156429093Y-116175000D01*
X156370907Y-116175000D01*
X155802622Y-116288039D01*
X155320853Y-116609946D01*
X154998946Y-117091715D01*
X154885907Y-117660000D01*
X154998946Y-118228285D01*
X155320853Y-118710054D01*
X155650026Y-118930000D01*
X155320853Y-119149946D01*
X154998946Y-119631715D01*
X154885907Y-120200000D01*
X154998946Y-120768285D01*
X155320853Y-121250054D01*
X155650026Y-121470000D01*
X155447984Y-121605000D01*
X152210132Y-121605000D01*
X150535000Y-119929868D01*
X150535000Y-118400000D01*
X150448603Y-117965654D01*
X150202566Y-117597434D01*
X147735000Y-115129868D01*
X147735000Y-114557109D01*
X147969673Y-114792192D01*
X148313201Y-114934838D01*
X148685167Y-114935162D01*
X149028943Y-114793117D01*
X149292192Y-114530327D01*
X149434838Y-114186799D01*
X149435162Y-113814833D01*
X149293117Y-113471057D01*
X149260000Y-113437882D01*
X149260000Y-105748725D01*
X156119587Y-105748725D01*
X156481916Y-106625629D01*
X157152242Y-107297126D01*
X158028513Y-107660985D01*
X158977325Y-107661813D01*
X159854229Y-107299484D01*
X160525726Y-106629158D01*
X160889585Y-105752887D01*
X160890413Y-104804075D01*
X160528084Y-103927171D01*
X159857758Y-103255674D01*
X158981487Y-102891815D01*
X158032675Y-102890987D01*
X157155771Y-103253316D01*
X156484274Y-103923642D01*
X156120415Y-104799913D01*
X156119587Y-105748725D01*
X149260000Y-105748725D01*
X149260000Y-90000000D01*
X149202148Y-89709161D01*
X149037401Y-89462599D01*
X148935122Y-89360320D01*
X148935162Y-89314833D01*
X148860857Y-89135000D01*
X158641060Y-89135000D01*
X158641060Y-95030419D01*
X158565162Y-95213201D01*
X158564838Y-95585167D01*
X158706883Y-95928943D01*
X158969673Y-96192192D01*
X159313201Y-96334838D01*
X159685167Y-96335162D01*
X160028943Y-96193117D01*
X160292192Y-95930327D01*
X160434838Y-95586799D01*
X160435162Y-95214833D01*
X160311060Y-94914482D01*
X160311060Y-89135000D01*
X164000000Y-89135000D01*
X164434346Y-89048603D01*
X164802566Y-88802566D01*
X167802566Y-85802566D01*
X168048604Y-85434345D01*
X168135000Y-85000000D01*
X168135000Y-84350000D01*
X173412560Y-84350000D01*
X173412560Y-86150000D01*
X173456838Y-86385317D01*
X173595910Y-86601441D01*
X173808110Y-86746431D01*
X174060000Y-86797440D01*
X175860000Y-86797440D01*
X176095317Y-86753162D01*
X176311441Y-86614090D01*
X176456431Y-86401890D01*
X176460567Y-86381466D01*
X176629357Y-86550551D01*
X177193330Y-86784733D01*
X177803991Y-86785265D01*
X178368371Y-86552068D01*
X178800551Y-86120643D01*
X179034733Y-85556670D01*
X179035265Y-84946009D01*
X178802068Y-84381629D01*
X178770495Y-84350000D01*
X179202560Y-84350000D01*
X179202560Y-86150000D01*
X179246838Y-86385317D01*
X179385910Y-86601441D01*
X179598110Y-86746431D01*
X179850000Y-86797440D01*
X181650000Y-86797440D01*
X181885317Y-86753162D01*
X182101441Y-86614090D01*
X182240598Y-86410426D01*
X182274890Y-86444718D01*
X182389447Y-86330161D01*
X182475852Y-86586643D01*
X183049336Y-86796458D01*
X183659460Y-86770839D01*
X184104148Y-86586643D01*
X184190554Y-86330159D01*
X183290000Y-85429605D01*
X183275858Y-85443748D01*
X183096253Y-85264143D01*
X183110395Y-85250000D01*
X183469605Y-85250000D01*
X184370159Y-86150554D01*
X184626643Y-86064148D01*
X184836458Y-85490664D01*
X184810839Y-84880540D01*
X184626643Y-84435852D01*
X184370159Y-84349446D01*
X183469605Y-85250000D01*
X183110395Y-85250000D01*
X183096253Y-85235858D01*
X183275858Y-85056253D01*
X183290000Y-85070395D01*
X184190554Y-84169841D01*
X184104148Y-83913357D01*
X183530664Y-83703542D01*
X182920540Y-83729161D01*
X182475852Y-83913357D01*
X182389447Y-84169839D01*
X182274890Y-84055282D01*
X182238412Y-84091760D01*
X182114090Y-83898559D01*
X181901890Y-83753569D01*
X181650000Y-83702560D01*
X179850000Y-83702560D01*
X179614683Y-83746838D01*
X179398559Y-83885910D01*
X179253569Y-84098110D01*
X179202560Y-84350000D01*
X178770495Y-84350000D01*
X178370643Y-83949449D01*
X177806670Y-83715267D01*
X177196009Y-83714735D01*
X176631629Y-83947932D01*
X176463387Y-84115880D01*
X176463162Y-84114683D01*
X176324090Y-83898559D01*
X176111890Y-83753569D01*
X175860000Y-83702560D01*
X174060000Y-83702560D01*
X173824683Y-83746838D01*
X173608559Y-83885910D01*
X173463569Y-84098110D01*
X173412560Y-84350000D01*
X168135000Y-84350000D01*
X168135000Y-81070132D01*
X168570132Y-80635000D01*
X184915000Y-80635000D01*
X184915000Y-87404132D01*
X184904132Y-87415000D01*
X183250000Y-87415000D01*
X182930459Y-87478561D01*
X182659566Y-87659566D01*
X182478561Y-87930459D01*
X182415000Y-88250000D01*
X182478561Y-88569541D01*
X182659566Y-88840434D01*
X182930459Y-89021439D01*
X183250000Y-89085000D01*
X185250000Y-89085000D01*
X185569541Y-89021439D01*
X185840434Y-88840434D01*
X186340434Y-88340434D01*
X186521440Y-88069540D01*
X186585000Y-87750000D01*
X186585000Y-87235000D01*
X187372766Y-87235000D01*
X187613201Y-87334838D01*
X187985167Y-87335162D01*
X188328943Y-87193117D01*
X188592192Y-86930327D01*
X188734838Y-86586799D01*
X188735162Y-86214833D01*
X188593117Y-85871057D01*
X188330327Y-85607808D01*
X187986799Y-85465162D01*
X187614833Y-85464838D01*
X187372422Y-85565000D01*
X186585000Y-85565000D01*
X186585000Y-80635000D01*
X187300000Y-80635000D01*
X187734346Y-80548603D01*
X188102566Y-80302566D01*
X190002566Y-78402566D01*
X190040074Y-78346431D01*
X190248603Y-78034346D01*
X190335000Y-77600000D01*
X190335000Y-69185167D01*
X191664838Y-69185167D01*
X191765000Y-69427578D01*
X191765000Y-94372766D01*
X191665162Y-94613201D01*
X191664838Y-94985167D01*
X191806883Y-95328943D01*
X192069673Y-95592192D01*
X192413201Y-95734838D01*
X192785167Y-95735162D01*
X193128943Y-95593117D01*
X193392192Y-95330327D01*
X193534838Y-94986799D01*
X193535162Y-94614833D01*
X193435000Y-94372422D01*
X193435000Y-69427234D01*
X193534838Y-69186799D01*
X193535162Y-68814833D01*
X193393117Y-68471057D01*
X193130327Y-68207808D01*
X192786799Y-68065162D01*
X192414833Y-68064838D01*
X192071057Y-68206883D01*
X191807808Y-68469673D01*
X191665162Y-68813201D01*
X191664838Y-69185167D01*
X190335000Y-69185167D01*
X190335000Y-65250000D01*
X190248603Y-64815654D01*
X190002566Y-64447434D01*
X188752568Y-63197436D01*
X188752566Y-63197433D01*
X188568000Y-63012868D01*
X188590434Y-62990434D01*
X188617451Y-62950000D01*
X188771439Y-62719541D01*
X188824601Y-62452277D01*
X188934838Y-62186799D01*
X188935000Y-62000000D01*
X189740000Y-62000000D01*
X189797852Y-62290839D01*
X189962599Y-62537401D01*
X190209161Y-62702148D01*
X190500000Y-62760000D01*
X192700000Y-62760000D01*
X192990839Y-62702148D01*
X193237401Y-62537401D01*
X193537401Y-62237401D01*
X193702148Y-61990839D01*
X193760000Y-61700000D01*
X193702148Y-61409161D01*
X193537401Y-61162599D01*
X193290839Y-60997852D01*
X193000000Y-60940000D01*
X192709161Y-60997852D01*
X192462599Y-61162599D01*
X192385198Y-61240000D01*
X190500000Y-61240000D01*
X190209161Y-61297852D01*
X189962599Y-61462599D01*
X189797852Y-61709161D01*
X189740000Y-62000000D01*
X188935000Y-62000000D01*
X188935162Y-61814833D01*
X188793117Y-61471057D01*
X188530327Y-61207808D01*
X188186799Y-61065162D01*
X187814833Y-61064838D01*
X187735000Y-61097824D01*
X187735000Y-53664606D01*
X202873000Y-68802606D01*
X202873000Y-68802606D01*
G37*
X202873000Y-68802606D02*
X202873000Y-81197394D01*
X197910197Y-86160197D01*
X197882334Y-86202211D01*
X197873000Y-86250000D01*
X197873000Y-93699292D01*
X193157925Y-98662529D01*
X193131148Y-98705243D01*
X193123099Y-98755009D01*
X193134186Y-98802116D01*
X195373000Y-103777258D01*
X195373000Y-116220020D01*
X187895626Y-131174768D01*
X180447394Y-138623000D01*
X165540699Y-138623000D01*
X152521812Y-129323795D01*
X167664716Y-129323795D01*
X167913106Y-129924943D01*
X168372637Y-130385278D01*
X168973352Y-130634716D01*
X169623795Y-130635284D01*
X170224943Y-130386894D01*
X170685278Y-129927363D01*
X170934716Y-129326648D01*
X170934751Y-129285750D01*
X180365000Y-129285750D01*
X180365000Y-130126309D01*
X180461673Y-130359698D01*
X180640301Y-130538327D01*
X180873690Y-130635000D01*
X181714250Y-130635000D01*
X181873000Y-130476250D01*
X181873000Y-129127000D01*
X182127000Y-129127000D01*
X182127000Y-130476250D01*
X182285750Y-130635000D01*
X183126310Y-130635000D01*
X183359699Y-130538327D01*
X183538327Y-130359698D01*
X183635000Y-130126309D01*
X183635000Y-129285750D01*
X183476250Y-129127000D01*
X182127000Y-129127000D01*
X181873000Y-129127000D01*
X180523750Y-129127000D01*
X180365000Y-129285750D01*
X170934751Y-129285750D01*
X170935284Y-128676205D01*
X170686894Y-128075057D01*
X170485880Y-127873691D01*
X180365000Y-127873691D01*
X180365000Y-128714250D01*
X180523750Y-128873000D01*
X181873000Y-128873000D01*
X181873000Y-127523750D01*
X182127000Y-127523750D01*
X182127000Y-128873000D01*
X183476250Y-128873000D01*
X183635000Y-128714250D01*
X183635000Y-127873691D01*
X183538327Y-127640302D01*
X183359699Y-127461673D01*
X183126310Y-127365000D01*
X182285750Y-127365000D01*
X182127000Y-127523750D01*
X181873000Y-127523750D01*
X181714250Y-127365000D01*
X180873690Y-127365000D01*
X180640301Y-127461673D01*
X180461673Y-127640302D01*
X180365000Y-127873691D01*
X170485880Y-127873691D01*
X170227363Y-127614722D01*
X169626648Y-127365284D01*
X168976205Y-127364716D01*
X168375057Y-127613106D01*
X167914722Y-128072637D01*
X167665284Y-128673352D01*
X167664716Y-129323795D01*
X152521812Y-129323795D01*
X148073817Y-126146656D01*
X148027795Y-126126079D01*
X148000000Y-126123000D01*
X145500000Y-126123000D01*
X145450590Y-126133006D01*
X145410197Y-126160197D01*
X144662440Y-126907954D01*
X144662440Y-126300000D01*
X144618162Y-126064683D01*
X144479090Y-125848559D01*
X144266890Y-125703569D01*
X144233966Y-125696902D01*
X144345868Y-125585000D01*
X145081380Y-125585000D01*
X145098110Y-125596431D01*
X145350000Y-125647440D01*
X147150000Y-125647440D01*
X147385317Y-125603162D01*
X147443456Y-125565750D01*
X154915000Y-125565750D01*
X154915000Y-126256310D01*
X155011673Y-126489699D01*
X155190302Y-126668327D01*
X155423691Y-126765000D01*
X156114250Y-126765000D01*
X156273000Y-126606250D01*
X156273000Y-125407000D01*
X156527000Y-125407000D01*
X156527000Y-126606250D01*
X156685750Y-126765000D01*
X157376309Y-126765000D01*
X157609698Y-126668327D01*
X157788327Y-126489699D01*
X157885000Y-126256310D01*
X157885000Y-125565750D01*
X157726250Y-125407000D01*
X156527000Y-125407000D01*
X156273000Y-125407000D01*
X155073750Y-125407000D01*
X154915000Y-125565750D01*
X147443456Y-125565750D01*
X147601441Y-125464090D01*
X147746431Y-125251890D01*
X147797440Y-125000000D01*
X147797440Y-124000000D01*
X147753162Y-123764683D01*
X147614090Y-123548559D01*
X147401890Y-123403569D01*
X147150000Y-123352560D01*
X145350000Y-123352560D01*
X145114683Y-123396838D01*
X144898559Y-123535910D01*
X144753569Y-123748110D01*
X144719773Y-123915000D01*
X144000000Y-123915000D01*
X143680460Y-123978560D01*
X143409566Y-124159566D01*
X142654132Y-124915000D01*
X142548687Y-124915000D01*
X142600000Y-124657032D01*
X142600000Y-123592968D01*
X142513603Y-123158622D01*
X142267566Y-122790402D01*
X141899346Y-122544365D01*
X141465000Y-122457968D01*
X141030654Y-122544365D01*
X140916815Y-122620430D01*
X140793117Y-122321057D01*
X140530327Y-122057808D01*
X140238868Y-121936783D01*
X140256130Y-121850000D01*
X142865000Y-121850000D01*
X142951397Y-122284345D01*
X143197434Y-122652566D01*
X143347434Y-122802566D01*
X143715654Y-123048603D01*
X144150000Y-123135000D01*
X145288569Y-123135000D01*
X145350000Y-123147440D01*
X147150000Y-123147440D01*
X147385317Y-123103162D01*
X147601441Y-122964090D01*
X147746431Y-122751890D01*
X147797440Y-122500000D01*
X147797440Y-121500000D01*
X147753162Y-121264683D01*
X147614090Y-121048559D01*
X147401890Y-120903569D01*
X147150000Y-120852560D01*
X145350000Y-120852560D01*
X145283887Y-120865000D01*
X144529534Y-120865000D01*
X144434345Y-120801397D01*
X144000000Y-120715000D01*
X143565655Y-120801397D01*
X143197434Y-121047434D01*
X142951397Y-121415655D01*
X142865000Y-121850000D01*
X140256130Y-121850000D01*
X140273038Y-121765000D01*
X140281310Y-121765000D01*
X140295186Y-121759252D01*
X140385000Y-121777440D01*
X140655000Y-121777440D01*
X140890317Y-121733162D01*
X141106441Y-121594090D01*
X141251431Y-121381890D01*
X141302440Y-121130000D01*
X141302440Y-120802440D01*
X141630000Y-120802440D01*
X141865317Y-120758162D01*
X142081441Y-120619090D01*
X142226431Y-120406890D01*
X142252127Y-120280000D01*
X143480000Y-120280000D01*
X143770839Y-120222148D01*
X144017401Y-120057401D01*
X145639680Y-118435122D01*
X145685167Y-118435162D01*
X146028943Y-118293117D01*
X146292192Y-118030327D01*
X146434838Y-117686799D01*
X146435162Y-117314833D01*
X146293117Y-116971057D01*
X146030327Y-116707808D01*
X145686799Y-116565162D01*
X145314833Y-116564838D01*
X145160000Y-116628814D01*
X145160000Y-114736661D01*
X145171439Y-114719541D01*
X145235000Y-114400000D01*
X145235000Y-99031933D01*
X145328943Y-98993117D01*
X145465000Y-98857297D01*
X145465000Y-115600000D01*
X145551397Y-116034346D01*
X145727466Y-116297852D01*
X145797434Y-116402566D01*
X148265000Y-118870132D01*
X148265000Y-120400000D01*
X148351397Y-120834346D01*
X148522510Y-121090434D01*
X148597434Y-121202566D01*
X150937434Y-123542566D01*
X151305654Y-123788603D01*
X151740000Y-123875000D01*
X155230554Y-123875000D01*
X155190302Y-123891673D01*
X155011673Y-124070301D01*
X154915000Y-124303690D01*
X154915000Y-124994250D01*
X155073750Y-125153000D01*
X156273000Y-125153000D01*
X156273000Y-125133000D01*
X156527000Y-125133000D01*
X156527000Y-125153000D01*
X157726250Y-125153000D01*
X157885000Y-124994250D01*
X157885000Y-124303690D01*
X157788327Y-124070301D01*
X157609698Y-123891673D01*
X157435223Y-123819403D01*
X157479147Y-123790054D01*
X157801054Y-123308285D01*
X157914093Y-122740000D01*
X157801054Y-122171715D01*
X157479147Y-121689946D01*
X157149974Y-121470000D01*
X157479147Y-121250054D01*
X157622841Y-121035000D01*
X163000000Y-121035000D01*
X163319541Y-120971439D01*
X163590434Y-120790434D01*
X166190434Y-118190434D01*
X166228737Y-118133110D01*
X166371439Y-117919541D01*
X166435000Y-117600000D01*
X166435000Y-105748725D01*
X179614587Y-105748725D01*
X179976916Y-106625629D01*
X180647242Y-107297126D01*
X181523513Y-107660985D01*
X182472325Y-107661813D01*
X183349229Y-107299484D01*
X184020726Y-106629158D01*
X184384585Y-105752887D01*
X184385413Y-104804075D01*
X184023084Y-103927171D01*
X183352758Y-103255674D01*
X182476487Y-102891815D01*
X181527675Y-102890987D01*
X180650771Y-103253316D01*
X179979274Y-103923642D01*
X179615415Y-104799913D01*
X179614587Y-105748725D01*
X166435000Y-105748725D01*
X166435000Y-92627234D01*
X166534838Y-92386799D01*
X166535162Y-92014833D01*
X166393117Y-91671057D01*
X166130327Y-91407808D01*
X165786799Y-91265162D01*
X165414833Y-91264838D01*
X165071057Y-91406883D01*
X164807808Y-91669673D01*
X164665162Y-92013201D01*
X164664838Y-92385167D01*
X164765000Y-92627578D01*
X164765000Y-117254132D01*
X162654132Y-119365000D01*
X157622841Y-119365000D01*
X157479147Y-119149946D01*
X157149974Y-118930000D01*
X157479147Y-118710054D01*
X157622841Y-118495000D01*
X162140000Y-118495000D01*
X162459541Y-118431439D01*
X162730434Y-118250434D01*
X163990434Y-116990434D01*
X164009033Y-116962599D01*
X164171439Y-116719541D01*
X164235000Y-116400000D01*
X164235000Y-92827234D01*
X164334838Y-92586799D01*
X164335162Y-92214833D01*
X164193117Y-91871057D01*
X163930327Y-91607808D01*
X163586799Y-91465162D01*
X163214833Y-91464838D01*
X162871057Y-91606883D01*
X162607808Y-91869673D01*
X162465162Y-92213201D01*
X162464838Y-92585167D01*
X162565000Y-92827578D01*
X162565000Y-116054132D01*
X161794132Y-116825000D01*
X157622841Y-116825000D01*
X157479147Y-116609946D01*
X156997378Y-116288039D01*
X156429093Y-116175000D01*
X156370907Y-116175000D01*
X155802622Y-116288039D01*
X155320853Y-116609946D01*
X154998946Y-117091715D01*
X154885907Y-117660000D01*
X154998946Y-118228285D01*
X155320853Y-118710054D01*
X155650026Y-118930000D01*
X155320853Y-119149946D01*
X154998946Y-119631715D01*
X154885907Y-120200000D01*
X154998946Y-120768285D01*
X155320853Y-121250054D01*
X155650026Y-121470000D01*
X155447984Y-121605000D01*
X152210132Y-121605000D01*
X150535000Y-119929868D01*
X150535000Y-118400000D01*
X150448603Y-117965654D01*
X150202566Y-117597434D01*
X147735000Y-115129868D01*
X147735000Y-114557109D01*
X147969673Y-114792192D01*
X148313201Y-114934838D01*
X148685167Y-114935162D01*
X149028943Y-114793117D01*
X149292192Y-114530327D01*
X149434838Y-114186799D01*
X149435162Y-113814833D01*
X149293117Y-113471057D01*
X149260000Y-113437882D01*
X149260000Y-105748725D01*
X156119587Y-105748725D01*
X156481916Y-106625629D01*
X157152242Y-107297126D01*
X158028513Y-107660985D01*
X158977325Y-107661813D01*
X159854229Y-107299484D01*
X160525726Y-106629158D01*
X160889585Y-105752887D01*
X160890413Y-104804075D01*
X160528084Y-103927171D01*
X159857758Y-103255674D01*
X158981487Y-102891815D01*
X158032675Y-102890987D01*
X157155771Y-103253316D01*
X156484274Y-103923642D01*
X156120415Y-104799913D01*
X156119587Y-105748725D01*
X149260000Y-105748725D01*
X149260000Y-90000000D01*
X149202148Y-89709161D01*
X149037401Y-89462599D01*
X148935122Y-89360320D01*
X148935162Y-89314833D01*
X148860857Y-89135000D01*
X158641060Y-89135000D01*
X158641060Y-95030419D01*
X158565162Y-95213201D01*
X158564838Y-95585167D01*
X158706883Y-95928943D01*
X158969673Y-96192192D01*
X159313201Y-96334838D01*
X159685167Y-96335162D01*
X160028943Y-96193117D01*
X160292192Y-95930327D01*
X160434838Y-95586799D01*
X160435162Y-95214833D01*
X160311060Y-94914482D01*
X160311060Y-89135000D01*
X164000000Y-89135000D01*
X164434346Y-89048603D01*
X164802566Y-88802566D01*
X167802566Y-85802566D01*
X168048604Y-85434345D01*
X168135000Y-85000000D01*
X168135000Y-84350000D01*
X173412560Y-84350000D01*
X173412560Y-86150000D01*
X173456838Y-86385317D01*
X173595910Y-86601441D01*
X173808110Y-86746431D01*
X174060000Y-86797440D01*
X175860000Y-86797440D01*
X176095317Y-86753162D01*
X176311441Y-86614090D01*
X176456431Y-86401890D01*
X176460567Y-86381466D01*
X176629357Y-86550551D01*
X177193330Y-86784733D01*
X177803991Y-86785265D01*
X178368371Y-86552068D01*
X178800551Y-86120643D01*
X179034733Y-85556670D01*
X179035265Y-84946009D01*
X178802068Y-84381629D01*
X178770495Y-84350000D01*
X179202560Y-84350000D01*
X179202560Y-86150000D01*
X179246838Y-86385317D01*
X179385910Y-86601441D01*
X179598110Y-86746431D01*
X179850000Y-86797440D01*
X181650000Y-86797440D01*
X181885317Y-86753162D01*
X182101441Y-86614090D01*
X182240598Y-86410426D01*
X182274890Y-86444718D01*
X182389447Y-86330161D01*
X182475852Y-86586643D01*
X183049336Y-86796458D01*
X183659460Y-86770839D01*
X184104148Y-86586643D01*
X184190554Y-86330159D01*
X183290000Y-85429605D01*
X183275858Y-85443748D01*
X183096253Y-85264143D01*
X183110395Y-85250000D01*
X183469605Y-85250000D01*
X184370159Y-86150554D01*
X184626643Y-86064148D01*
X184836458Y-85490664D01*
X184810839Y-84880540D01*
X184626643Y-84435852D01*
X184370159Y-84349446D01*
X183469605Y-85250000D01*
X183110395Y-85250000D01*
X183096253Y-85235858D01*
X183275858Y-85056253D01*
X183290000Y-85070395D01*
X184190554Y-84169841D01*
X184104148Y-83913357D01*
X183530664Y-83703542D01*
X182920540Y-83729161D01*
X182475852Y-83913357D01*
X182389447Y-84169839D01*
X182274890Y-84055282D01*
X182238412Y-84091760D01*
X182114090Y-83898559D01*
X181901890Y-83753569D01*
X181650000Y-83702560D01*
X179850000Y-83702560D01*
X179614683Y-83746838D01*
X179398559Y-83885910D01*
X179253569Y-84098110D01*
X179202560Y-84350000D01*
X178770495Y-84350000D01*
X178370643Y-83949449D01*
X177806670Y-83715267D01*
X177196009Y-83714735D01*
X176631629Y-83947932D01*
X176463387Y-84115880D01*
X176463162Y-84114683D01*
X176324090Y-83898559D01*
X176111890Y-83753569D01*
X175860000Y-83702560D01*
X174060000Y-83702560D01*
X173824683Y-83746838D01*
X173608559Y-83885910D01*
X173463569Y-84098110D01*
X173412560Y-84350000D01*
X168135000Y-84350000D01*
X168135000Y-81070132D01*
X168570132Y-80635000D01*
X184915000Y-80635000D01*
X184915000Y-87404132D01*
X184904132Y-87415000D01*
X183250000Y-87415000D01*
X182930459Y-87478561D01*
X182659566Y-87659566D01*
X182478561Y-87930459D01*
X182415000Y-88250000D01*
X182478561Y-88569541D01*
X182659566Y-88840434D01*
X182930459Y-89021439D01*
X183250000Y-89085000D01*
X185250000Y-89085000D01*
X185569541Y-89021439D01*
X185840434Y-88840434D01*
X186340434Y-88340434D01*
X186521440Y-88069540D01*
X186585000Y-87750000D01*
X186585000Y-87235000D01*
X187372766Y-87235000D01*
X187613201Y-87334838D01*
X187985167Y-87335162D01*
X188328943Y-87193117D01*
X188592192Y-86930327D01*
X188734838Y-86586799D01*
X188735162Y-86214833D01*
X188593117Y-85871057D01*
X188330327Y-85607808D01*
X187986799Y-85465162D01*
X187614833Y-85464838D01*
X187372422Y-85565000D01*
X186585000Y-85565000D01*
X186585000Y-80635000D01*
X187300000Y-80635000D01*
X187734346Y-80548603D01*
X188102566Y-80302566D01*
X190002566Y-78402566D01*
X190040074Y-78346431D01*
X190248603Y-78034346D01*
X190335000Y-77600000D01*
X190335000Y-69185167D01*
X191664838Y-69185167D01*
X191765000Y-69427578D01*
X191765000Y-94372766D01*
X191665162Y-94613201D01*
X191664838Y-94985167D01*
X191806883Y-95328943D01*
X192069673Y-95592192D01*
X192413201Y-95734838D01*
X192785167Y-95735162D01*
X193128943Y-95593117D01*
X193392192Y-95330327D01*
X193534838Y-94986799D01*
X193535162Y-94614833D01*
X193435000Y-94372422D01*
X193435000Y-69427234D01*
X193534838Y-69186799D01*
X193535162Y-68814833D01*
X193393117Y-68471057D01*
X193130327Y-68207808D01*
X192786799Y-68065162D01*
X192414833Y-68064838D01*
X192071057Y-68206883D01*
X191807808Y-68469673D01*
X191665162Y-68813201D01*
X191664838Y-69185167D01*
X190335000Y-69185167D01*
X190335000Y-65250000D01*
X190248603Y-64815654D01*
X190002566Y-64447434D01*
X188752568Y-63197436D01*
X188752566Y-63197433D01*
X188568000Y-63012868D01*
X188590434Y-62990434D01*
X188617451Y-62950000D01*
X188771439Y-62719541D01*
X188824601Y-62452277D01*
X188934838Y-62186799D01*
X188935000Y-62000000D01*
X189740000Y-62000000D01*
X189797852Y-62290839D01*
X189962599Y-62537401D01*
X190209161Y-62702148D01*
X190500000Y-62760000D01*
X192700000Y-62760000D01*
X192990839Y-62702148D01*
X193237401Y-62537401D01*
X193537401Y-62237401D01*
X193702148Y-61990839D01*
X193760000Y-61700000D01*
X193702148Y-61409161D01*
X193537401Y-61162599D01*
X193290839Y-60997852D01*
X193000000Y-60940000D01*
X192709161Y-60997852D01*
X192462599Y-61162599D01*
X192385198Y-61240000D01*
X190500000Y-61240000D01*
X190209161Y-61297852D01*
X189962599Y-61462599D01*
X189797852Y-61709161D01*
X189740000Y-62000000D01*
X188935000Y-62000000D01*
X188935162Y-61814833D01*
X188793117Y-61471057D01*
X188530327Y-61207808D01*
X188186799Y-61065162D01*
X187814833Y-61064838D01*
X187735000Y-61097824D01*
X187735000Y-53664606D01*
X202873000Y-68802606D01*
G36*
X135209566Y-56409566D02*
X135028561Y-56680459D01*
X134965000Y-57000000D01*
X134965000Y-83400000D01*
X135028561Y-83719541D01*
X135148177Y-83898559D01*
X135209566Y-83990434D01*
X137609566Y-86390434D01*
X137880460Y-86571440D01*
X138200000Y-86635000D01*
X149972766Y-86635000D01*
X150213201Y-86734838D01*
X150585167Y-86735162D01*
X150928943Y-86593117D01*
X151192192Y-86330327D01*
X151334838Y-85986799D01*
X151335162Y-85614833D01*
X151193117Y-85271057D01*
X150930327Y-85007808D01*
X150586799Y-84865162D01*
X150214833Y-84864838D01*
X149972422Y-84965000D01*
X138545868Y-84965000D01*
X136635000Y-83054132D01*
X136635000Y-78927179D01*
X136702560Y-78940618D01*
X136702560Y-80250000D01*
X136746838Y-80485317D01*
X136885910Y-80701441D01*
X137098110Y-80846431D01*
X137350000Y-80897440D01*
X138650000Y-80897440D01*
X138885317Y-80853162D01*
X139101441Y-80714090D01*
X139246431Y-80501890D01*
X139290352Y-80285000D01*
X140075331Y-80285000D01*
X140085910Y-80301441D01*
X140298110Y-80446431D01*
X140550000Y-80497440D01*
X141450000Y-80497440D01*
X141685317Y-80453162D01*
X141901441Y-80314090D01*
X142046431Y-80101890D01*
X142097440Y-79850000D01*
X142097440Y-79359319D01*
X142298110Y-79496431D01*
X142550000Y-79547440D01*
X143450000Y-79547440D01*
X143685317Y-79503162D01*
X143901441Y-79364090D01*
X144046431Y-79151890D01*
X144077796Y-78997006D01*
X144537401Y-78537401D01*
X144702148Y-78290839D01*
X144760000Y-78000000D01*
X144760000Y-75904242D01*
X144965000Y-75819538D01*
X144965000Y-80172766D01*
X144865162Y-80413201D01*
X144864838Y-80785167D01*
X145006883Y-81128943D01*
X145269673Y-81392192D01*
X145613201Y-81534838D01*
X145985167Y-81535162D01*
X146328943Y-81393117D01*
X146592192Y-81130327D01*
X146734838Y-80786799D01*
X146735162Y-80414833D01*
X146635000Y-80172422D01*
X146635000Y-72627234D01*
X146734838Y-72386799D01*
X146735162Y-72014833D01*
X146593117Y-71671057D01*
X146330327Y-71407808D01*
X145986799Y-71265162D01*
X145614833Y-71264838D01*
X145271057Y-71406883D01*
X145260000Y-71417921D01*
X145260000Y-71314802D01*
X145314802Y-71260000D01*
X147185198Y-71260000D01*
X147240000Y-71314802D01*
X147240000Y-83437537D01*
X147207808Y-83469673D01*
X147065162Y-83813201D01*
X147064838Y-84185167D01*
X147206883Y-84528943D01*
X147469673Y-84792192D01*
X147813201Y-84934838D01*
X148185167Y-84935162D01*
X148528943Y-84793117D01*
X148792192Y-84530327D01*
X148934838Y-84186799D01*
X148935162Y-83814833D01*
X148793117Y-83471057D01*
X148760000Y-83437882D01*
X148760000Y-71000000D01*
X148702148Y-70709161D01*
X148537401Y-70462599D01*
X148037401Y-69962599D01*
X147790839Y-69797852D01*
X147500000Y-69740000D01*
X145000000Y-69740000D01*
X144793782Y-69781020D01*
X145314802Y-69260000D01*
X145437537Y-69260000D01*
X145469673Y-69292192D01*
X145813201Y-69434838D01*
X146185167Y-69435162D01*
X146528943Y-69293117D01*
X146792192Y-69030327D01*
X146934838Y-68686799D01*
X146935162Y-68314833D01*
X146795179Y-67976047D01*
X147009566Y-68190434D01*
X147280460Y-68371440D01*
X147600000Y-68435000D01*
X154854132Y-68435000D01*
X155365000Y-68945868D01*
X155365000Y-83972766D01*
X155265162Y-84213201D01*
X155264838Y-84585167D01*
X155406883Y-84928943D01*
X155669673Y-85192192D01*
X156013201Y-85334838D01*
X156385167Y-85335162D01*
X156687882Y-85210083D01*
X156869673Y-85392192D01*
X157213201Y-85534838D01*
X157585167Y-85535162D01*
X157928943Y-85393117D01*
X158192192Y-85130327D01*
X158334838Y-84786799D01*
X158335162Y-84414833D01*
X158235000Y-84172422D01*
X158235000Y-72757458D01*
X158269673Y-72792192D01*
X158365000Y-72831775D01*
X158365000Y-86865000D01*
X146200000Y-86865000D01*
X145765654Y-86951397D01*
X145397434Y-87197434D01*
X145151397Y-87565654D01*
X145065000Y-88000000D01*
X145065000Y-91329868D01*
X144929868Y-91465000D01*
X136102366Y-91465000D01*
X136134838Y-91386799D01*
X136135162Y-91014833D01*
X135993117Y-90671057D01*
X135730327Y-90407808D01*
X135386799Y-90265162D01*
X135014833Y-90264838D01*
X134671057Y-90406883D01*
X134407808Y-90669673D01*
X134265162Y-91013201D01*
X134264838Y-91385167D01*
X134297824Y-91465000D01*
X134197440Y-91465000D01*
X134197440Y-91000000D01*
X134153162Y-90764683D01*
X134047518Y-90600507D01*
X134088327Y-90559698D01*
X134185000Y-90326309D01*
X134185000Y-88885750D01*
X134026250Y-88727000D01*
X132927000Y-88727000D01*
X132927000Y-88747000D01*
X132673000Y-88747000D01*
X132673000Y-88727000D01*
X131573750Y-88727000D01*
X131415000Y-88885750D01*
X131415000Y-90326309D01*
X131511673Y-90559698D01*
X131553634Y-90601660D01*
X131453569Y-90748110D01*
X131402560Y-91000000D01*
X131402560Y-93865000D01*
X128470133Y-93865000D01*
X126885000Y-92279868D01*
X126885000Y-91906844D01*
X126899492Y-91897518D01*
X126940301Y-91938327D01*
X127173690Y-92035000D01*
X127764250Y-92035000D01*
X127923000Y-91876250D01*
X127923000Y-90527000D01*
X128177000Y-90527000D01*
X128177000Y-91876250D01*
X128335750Y-92035000D01*
X128926310Y-92035000D01*
X129159699Y-91938327D01*
X129338327Y-91759698D01*
X129435000Y-91526309D01*
X129435000Y-90685750D01*
X129276250Y-90527000D01*
X128177000Y-90527000D01*
X127923000Y-90527000D01*
X127903000Y-90527000D01*
X127903000Y-90273000D01*
X127923000Y-90273000D01*
X127923000Y-88923750D01*
X128177000Y-88923750D01*
X128177000Y-90273000D01*
X129276250Y-90273000D01*
X129435000Y-90114250D01*
X129435000Y-89273691D01*
X129338327Y-89040302D01*
X129159699Y-88861673D01*
X128926310Y-88765000D01*
X128335750Y-88765000D01*
X128177000Y-88923750D01*
X127923000Y-88923750D01*
X127764250Y-88765000D01*
X127173690Y-88765000D01*
X126940301Y-88861673D01*
X126898340Y-88903634D01*
X126885000Y-88894519D01*
X126885000Y-86873691D01*
X131415000Y-86873691D01*
X131415000Y-88314250D01*
X131573750Y-88473000D01*
X132673000Y-88473000D01*
X132673000Y-86523750D01*
X132927000Y-86523750D01*
X132927000Y-88473000D01*
X134026250Y-88473000D01*
X134185000Y-88314250D01*
X134185000Y-86873691D01*
X134088327Y-86640302D01*
X133909699Y-86461673D01*
X133676310Y-86365000D01*
X133085750Y-86365000D01*
X132927000Y-86523750D01*
X132673000Y-86523750D01*
X132514250Y-86365000D01*
X131923690Y-86365000D01*
X131690301Y-86461673D01*
X131511673Y-86640302D01*
X131415000Y-86873691D01*
X126885000Y-86873691D01*
X126885000Y-85747440D01*
X127650000Y-85747440D01*
X127885317Y-85703162D01*
X128101441Y-85564090D01*
X128246431Y-85351890D01*
X128297440Y-85100000D01*
X128297440Y-83100000D01*
X128253162Y-82864683D01*
X128114090Y-82648559D01*
X127901890Y-82503569D01*
X127650000Y-82452560D01*
X123850000Y-82452560D01*
X123614683Y-82496838D01*
X123398559Y-82635910D01*
X123253569Y-82848110D01*
X123202560Y-83100000D01*
X123202560Y-83265000D01*
X121950000Y-83265000D01*
X121630460Y-83328560D01*
X121359566Y-83509566D01*
X121009566Y-83859566D01*
X120828561Y-84130459D01*
X120765000Y-84450000D01*
X120765000Y-85222766D01*
X120665162Y-85463201D01*
X120664838Y-85835167D01*
X120806883Y-86178943D01*
X121069673Y-86442192D01*
X121413201Y-86584838D01*
X121785167Y-86585162D01*
X122128943Y-86443117D01*
X122392192Y-86180327D01*
X122534838Y-85836799D01*
X122535162Y-85464833D01*
X122435000Y-85222422D01*
X122435000Y-84935000D01*
X123202560Y-84935000D01*
X123202560Y-85100000D01*
X123246838Y-85335317D01*
X123385910Y-85551441D01*
X123598110Y-85696431D01*
X123850000Y-85747440D01*
X124615000Y-85747440D01*
X124615000Y-88893156D01*
X124598523Y-88903759D01*
X124451890Y-88803569D01*
X124200000Y-88752560D01*
X122700000Y-88752560D01*
X122464683Y-88796838D01*
X122248559Y-88935910D01*
X122103569Y-89148110D01*
X122052560Y-89400000D01*
X122052560Y-89465000D01*
X120597440Y-89465000D01*
X120597440Y-89000000D01*
X120553162Y-88764683D01*
X120447518Y-88600507D01*
X120488327Y-88559698D01*
X120585000Y-88326309D01*
X120585000Y-86885750D01*
X120426250Y-86727000D01*
X119327000Y-86727000D01*
X119327000Y-86747000D01*
X119073000Y-86747000D01*
X119073000Y-86727000D01*
X117973750Y-86727000D01*
X117815000Y-86885750D01*
X117815000Y-88326309D01*
X117911673Y-88559698D01*
X117953634Y-88601660D01*
X117853569Y-88748110D01*
X117802560Y-89000000D01*
X117802560Y-91192308D01*
X117089868Y-91905000D01*
X115000000Y-91905000D01*
X114565654Y-91991397D01*
X114197434Y-92237434D01*
X113951397Y-92605654D01*
X113865000Y-93040000D01*
X113951397Y-93474346D01*
X114197434Y-93842566D01*
X114565654Y-94088603D01*
X115000000Y-94175000D01*
X117560000Y-94175000D01*
X117994346Y-94088603D01*
X118362566Y-93842566D01*
X119357692Y-92847440D01*
X119950000Y-92847440D01*
X120185317Y-92803162D01*
X120401441Y-92664090D01*
X120546431Y-92451890D01*
X120597440Y-92200000D01*
X120597440Y-91735000D01*
X122115000Y-91735000D01*
X122115000Y-94146778D01*
X122114683Y-94146838D01*
X121898559Y-94285910D01*
X121753569Y-94498110D01*
X121702560Y-94750000D01*
X121702560Y-97250000D01*
X121746838Y-97485317D01*
X121885910Y-97701441D01*
X122098110Y-97846431D01*
X122350000Y-97897440D01*
X124150000Y-97897440D01*
X124385317Y-97853162D01*
X124601441Y-97714090D01*
X124746431Y-97501890D01*
X124797440Y-97250000D01*
X124797440Y-94750000D01*
X124753162Y-94514683D01*
X124614090Y-94298559D01*
X124401890Y-94153569D01*
X124385000Y-94150149D01*
X124385000Y-92012630D01*
X124435317Y-92003162D01*
X124601477Y-91896241D01*
X124615000Y-91905481D01*
X124615000Y-92750000D01*
X124701397Y-93184346D01*
X124826409Y-93371439D01*
X124947434Y-93552566D01*
X126865000Y-95470133D01*
X126865000Y-106615000D01*
X126427234Y-106615000D01*
X126186799Y-106515162D01*
X125814833Y-106514838D01*
X125471057Y-106656883D01*
X125207808Y-106919673D01*
X125065162Y-107263201D01*
X125064838Y-107635167D01*
X125206883Y-107978943D01*
X125469673Y-108242192D01*
X125813201Y-108384838D01*
X126185167Y-108385162D01*
X126427578Y-108285000D01*
X126865000Y-108285000D01*
X126865000Y-110415000D01*
X126627234Y-110415000D01*
X126386799Y-110315162D01*
X126014833Y-110314838D01*
X125671057Y-110456883D01*
X125407808Y-110719673D01*
X125265162Y-111063201D01*
X125264838Y-111435167D01*
X125406883Y-111778943D01*
X125669673Y-112042192D01*
X126013201Y-112184838D01*
X126385167Y-112185162D01*
X126627578Y-112085000D01*
X126865000Y-112085000D01*
X126865000Y-116750000D01*
X126951397Y-117184346D01*
X127175674Y-117520000D01*
X127197434Y-117552566D01*
X128697434Y-119052566D01*
X129065654Y-119298603D01*
X129500000Y-119385000D01*
X130868156Y-119385000D01*
X130910910Y-119451441D01*
X131123110Y-119596431D01*
X131375000Y-119647440D01*
X132625000Y-119647440D01*
X132860317Y-119603162D01*
X133076441Y-119464090D01*
X133124134Y-119394289D01*
X133160910Y-119451441D01*
X133373110Y-119596431D01*
X133415000Y-119604914D01*
X133415000Y-120000000D01*
X133478561Y-120319541D01*
X133536926Y-120406890D01*
X133659566Y-120590434D01*
X133666692Y-120597560D01*
X133375000Y-120597560D01*
X133139683Y-120641838D01*
X132999273Y-120732190D01*
X132876890Y-120648569D01*
X132625000Y-120597560D01*
X131325000Y-120597560D01*
X131089683Y-120641838D01*
X130873559Y-120780910D01*
X130728569Y-120993110D01*
X130677560Y-121245000D01*
X130677560Y-121835000D01*
X130721838Y-122070317D01*
X130860910Y-122286441D01*
X130887420Y-122304554D01*
X130786673Y-122405302D01*
X130690000Y-122638691D01*
X130690000Y-122974250D01*
X130848750Y-123133000D01*
X131848000Y-123133000D01*
X131848000Y-123113000D01*
X132102000Y-123113000D01*
X132102000Y-123133000D01*
X132122000Y-123133000D01*
X132122000Y-123387000D01*
X132102000Y-123387000D01*
X132102000Y-124231250D01*
X132260750Y-124390000D01*
X132751310Y-124390000D01*
X132984699Y-124293327D01*
X133006364Y-124271662D01*
X133123110Y-124351431D01*
X133375000Y-124402440D01*
X134675000Y-124402440D01*
X134910317Y-124358162D01*
X135050602Y-124267891D01*
X135349974Y-124208342D01*
X135612756Y-124032756D01*
X135880000Y-123765512D01*
X135880000Y-124657032D01*
X135966397Y-125091378D01*
X136212434Y-125459598D01*
X136501222Y-125652560D01*
X135547210Y-125652560D01*
X135498913Y-125620289D01*
X135055000Y-125531989D01*
X134611087Y-125620289D01*
X134562790Y-125652560D01*
X134445000Y-125652560D01*
X134209683Y-125696838D01*
X133993559Y-125835910D01*
X133848569Y-126048110D01*
X133797560Y-126300000D01*
X133797560Y-126867954D01*
X133089803Y-126160197D01*
X133047789Y-126132334D01*
X133000000Y-126123000D01*
X130552606Y-126123000D01*
X128089803Y-123660197D01*
X128047789Y-123632334D01*
X128000000Y-123623000D01*
X125690782Y-123623000D01*
X125581054Y-123545750D01*
X130690000Y-123545750D01*
X130690000Y-123881309D01*
X130786673Y-124114698D01*
X130965301Y-124293327D01*
X131198690Y-124390000D01*
X131689250Y-124390000D01*
X131848000Y-124231250D01*
X131848000Y-123387000D01*
X130848750Y-123387000D01*
X130690000Y-123545750D01*
X125581054Y-123545750D01*
X125223957Y-123294351D01*
X118753043Y-116823437D01*
X119246101Y-116823437D01*
X119527604Y-117158919D01*
X119689984Y-117352436D01*
X119914059Y-117469083D01*
X120165717Y-117491099D01*
X120406644Y-117415135D01*
X120935642Y-116971253D01*
X120955209Y-116747600D01*
X120184346Y-115828922D01*
X119265668Y-116599785D01*
X119246101Y-116823437D01*
X118753043Y-116823437D01*
X115627000Y-113697394D01*
X115627000Y-113593521D01*
X117065682Y-113593521D01*
X117128762Y-114169495D01*
X117407456Y-114677487D01*
X117859335Y-115040159D01*
X118415605Y-115202298D01*
X118468119Y-115196547D01*
X118380918Y-115364059D01*
X118358900Y-115615716D01*
X118434864Y-115856643D01*
X118597244Y-116050160D01*
X118878747Y-116385642D01*
X119102400Y-116405209D01*
X119983766Y-115665654D01*
X120378922Y-115665654D01*
X121149785Y-116584332D01*
X121373437Y-116603899D01*
X121902436Y-116160017D01*
X122019082Y-115935941D01*
X122041100Y-115684284D01*
X121965136Y-115443357D01*
X121802756Y-115249840D01*
X121521253Y-114914358D01*
X121297600Y-114894791D01*
X120378922Y-115665654D01*
X119983766Y-115665654D01*
X120021078Y-115634346D01*
X120008223Y-115619026D01*
X120202798Y-115455757D01*
X120215654Y-115471078D01*
X121134332Y-114700215D01*
X121153899Y-114476563D01*
X120872396Y-114141081D01*
X120710016Y-113947564D01*
X120485941Y-113830917D01*
X120234283Y-113808901D01*
X120054173Y-113865689D01*
X120068956Y-113814973D01*
X120005876Y-113238999D01*
X119727182Y-112731007D01*
X119275303Y-112368335D01*
X118719033Y-112206196D01*
X118143058Y-112269276D01*
X117635067Y-112547970D01*
X117590493Y-112585372D01*
X117227821Y-113037251D01*
X117065682Y-113593521D01*
X115627000Y-113593521D01*
X115627000Y-106250000D01*
X115616994Y-106200590D01*
X115589803Y-106160197D01*
X113471118Y-104041512D01*
X113127000Y-103357668D01*
X113127000Y-98750000D01*
X121702560Y-98750000D01*
X121702560Y-101250000D01*
X121746838Y-101485317D01*
X121885910Y-101701441D01*
X122098110Y-101846431D01*
X122265000Y-101880227D01*
X122265000Y-119400000D01*
X122351397Y-119834346D01*
X122518667Y-120084683D01*
X122597434Y-120202566D01*
X123397434Y-121002566D01*
X123765655Y-121248603D01*
X124200000Y-121335000D01*
X124634345Y-121248603D01*
X125002566Y-121002566D01*
X125248603Y-120634345D01*
X125335000Y-120200000D01*
X125248603Y-119765655D01*
X125002566Y-119397434D01*
X124535000Y-118929868D01*
X124535000Y-101756844D01*
X124601441Y-101714090D01*
X124746431Y-101501890D01*
X124797440Y-101250000D01*
X124797440Y-98750000D01*
X124753162Y-98514683D01*
X124614090Y-98298559D01*
X124401890Y-98153569D01*
X124150000Y-98102560D01*
X122350000Y-98102560D01*
X122114683Y-98146838D01*
X121898559Y-98285910D01*
X121753569Y-98498110D01*
X121702560Y-98750000D01*
X113127000Y-98750000D01*
X113127000Y-84873691D01*
X117815000Y-84873691D01*
X117815000Y-86314250D01*
X117973750Y-86473000D01*
X119073000Y-86473000D01*
X119073000Y-84523750D01*
X119327000Y-84523750D01*
X119327000Y-86473000D01*
X120426250Y-86473000D01*
X120585000Y-86314250D01*
X120585000Y-84873691D01*
X120488327Y-84640302D01*
X120309699Y-84461673D01*
X120076310Y-84365000D01*
X119485750Y-84365000D01*
X119327000Y-84523750D01*
X119073000Y-84523750D01*
X118914250Y-84365000D01*
X118323690Y-84365000D01*
X118090301Y-84461673D01*
X117911673Y-84640302D01*
X117815000Y-84873691D01*
X113127000Y-84873691D01*
X113127000Y-83802606D01*
X115552606Y-81377000D01*
X118000000Y-81377000D01*
X118049410Y-81366994D01*
X118089803Y-81339803D01*
X123089803Y-76339803D01*
X123117666Y-76297789D01*
X123127000Y-76250000D01*
X123127000Y-61302606D01*
X128052606Y-56377000D01*
X135242132Y-56377000D01*
X135209566Y-56409566D01*
X135209566Y-56409566D01*
G37*
X135209566Y-56409566D02*
X135028561Y-56680459D01*
X134965000Y-57000000D01*
X134965000Y-83400000D01*
X135028561Y-83719541D01*
X135148177Y-83898559D01*
X135209566Y-83990434D01*
X137609566Y-86390434D01*
X137880460Y-86571440D01*
X138200000Y-86635000D01*
X149972766Y-86635000D01*
X150213201Y-86734838D01*
X150585167Y-86735162D01*
X150928943Y-86593117D01*
X151192192Y-86330327D01*
X151334838Y-85986799D01*
X151335162Y-85614833D01*
X151193117Y-85271057D01*
X150930327Y-85007808D01*
X150586799Y-84865162D01*
X150214833Y-84864838D01*
X149972422Y-84965000D01*
X138545868Y-84965000D01*
X136635000Y-83054132D01*
X136635000Y-78927179D01*
X136702560Y-78940618D01*
X136702560Y-80250000D01*
X136746838Y-80485317D01*
X136885910Y-80701441D01*
X137098110Y-80846431D01*
X137350000Y-80897440D01*
X138650000Y-80897440D01*
X138885317Y-80853162D01*
X139101441Y-80714090D01*
X139246431Y-80501890D01*
X139290352Y-80285000D01*
X140075331Y-80285000D01*
X140085910Y-80301441D01*
X140298110Y-80446431D01*
X140550000Y-80497440D01*
X141450000Y-80497440D01*
X141685317Y-80453162D01*
X141901441Y-80314090D01*
X142046431Y-80101890D01*
X142097440Y-79850000D01*
X142097440Y-79359319D01*
X142298110Y-79496431D01*
X142550000Y-79547440D01*
X143450000Y-79547440D01*
X143685317Y-79503162D01*
X143901441Y-79364090D01*
X144046431Y-79151890D01*
X144077796Y-78997006D01*
X144537401Y-78537401D01*
X144702148Y-78290839D01*
X144760000Y-78000000D01*
X144760000Y-75904242D01*
X144965000Y-75819538D01*
X144965000Y-80172766D01*
X144865162Y-80413201D01*
X144864838Y-80785167D01*
X145006883Y-81128943D01*
X145269673Y-81392192D01*
X145613201Y-81534838D01*
X145985167Y-81535162D01*
X146328943Y-81393117D01*
X146592192Y-81130327D01*
X146734838Y-80786799D01*
X146735162Y-80414833D01*
X146635000Y-80172422D01*
X146635000Y-72627234D01*
X146734838Y-72386799D01*
X146735162Y-72014833D01*
X146593117Y-71671057D01*
X146330327Y-71407808D01*
X145986799Y-71265162D01*
X145614833Y-71264838D01*
X145271057Y-71406883D01*
X145260000Y-71417921D01*
X145260000Y-71314802D01*
X145314802Y-71260000D01*
X147185198Y-71260000D01*
X147240000Y-71314802D01*
X147240000Y-83437537D01*
X147207808Y-83469673D01*
X147065162Y-83813201D01*
X147064838Y-84185167D01*
X147206883Y-84528943D01*
X147469673Y-84792192D01*
X147813201Y-84934838D01*
X148185167Y-84935162D01*
X148528943Y-84793117D01*
X148792192Y-84530327D01*
X148934838Y-84186799D01*
X148935162Y-83814833D01*
X148793117Y-83471057D01*
X148760000Y-83437882D01*
X148760000Y-71000000D01*
X148702148Y-70709161D01*
X148537401Y-70462599D01*
X148037401Y-69962599D01*
X147790839Y-69797852D01*
X147500000Y-69740000D01*
X145000000Y-69740000D01*
X144793782Y-69781020D01*
X145314802Y-69260000D01*
X145437537Y-69260000D01*
X145469673Y-69292192D01*
X145813201Y-69434838D01*
X146185167Y-69435162D01*
X146528943Y-69293117D01*
X146792192Y-69030327D01*
X146934838Y-68686799D01*
X146935162Y-68314833D01*
X146795179Y-67976047D01*
X147009566Y-68190434D01*
X147280460Y-68371440D01*
X147600000Y-68435000D01*
X154854132Y-68435000D01*
X155365000Y-68945868D01*
X155365000Y-83972766D01*
X155265162Y-84213201D01*
X155264838Y-84585167D01*
X155406883Y-84928943D01*
X155669673Y-85192192D01*
X156013201Y-85334838D01*
X156385167Y-85335162D01*
X156687882Y-85210083D01*
X156869673Y-85392192D01*
X157213201Y-85534838D01*
X157585167Y-85535162D01*
X157928943Y-85393117D01*
X158192192Y-85130327D01*
X158334838Y-84786799D01*
X158335162Y-84414833D01*
X158235000Y-84172422D01*
X158235000Y-72757458D01*
X158269673Y-72792192D01*
X158365000Y-72831775D01*
X158365000Y-86865000D01*
X146200000Y-86865000D01*
X145765654Y-86951397D01*
X145397434Y-87197434D01*
X145151397Y-87565654D01*
X145065000Y-88000000D01*
X145065000Y-91329868D01*
X144929868Y-91465000D01*
X136102366Y-91465000D01*
X136134838Y-91386799D01*
X136135162Y-91014833D01*
X135993117Y-90671057D01*
X135730327Y-90407808D01*
X135386799Y-90265162D01*
X135014833Y-90264838D01*
X134671057Y-90406883D01*
X134407808Y-90669673D01*
X134265162Y-91013201D01*
X134264838Y-91385167D01*
X134297824Y-91465000D01*
X134197440Y-91465000D01*
X134197440Y-91000000D01*
X134153162Y-90764683D01*
X134047518Y-90600507D01*
X134088327Y-90559698D01*
X134185000Y-90326309D01*
X134185000Y-88885750D01*
X134026250Y-88727000D01*
X132927000Y-88727000D01*
X132927000Y-88747000D01*
X132673000Y-88747000D01*
X132673000Y-88727000D01*
X131573750Y-88727000D01*
X131415000Y-88885750D01*
X131415000Y-90326309D01*
X131511673Y-90559698D01*
X131553634Y-90601660D01*
X131453569Y-90748110D01*
X131402560Y-91000000D01*
X131402560Y-93865000D01*
X128470133Y-93865000D01*
X126885000Y-92279868D01*
X126885000Y-91906844D01*
X126899492Y-91897518D01*
X126940301Y-91938327D01*
X127173690Y-92035000D01*
X127764250Y-92035000D01*
X127923000Y-91876250D01*
X127923000Y-90527000D01*
X128177000Y-90527000D01*
X128177000Y-91876250D01*
X128335750Y-92035000D01*
X128926310Y-92035000D01*
X129159699Y-91938327D01*
X129338327Y-91759698D01*
X129435000Y-91526309D01*
X129435000Y-90685750D01*
X129276250Y-90527000D01*
X128177000Y-90527000D01*
X127923000Y-90527000D01*
X127903000Y-90527000D01*
X127903000Y-90273000D01*
X127923000Y-90273000D01*
X127923000Y-88923750D01*
X128177000Y-88923750D01*
X128177000Y-90273000D01*
X129276250Y-90273000D01*
X129435000Y-90114250D01*
X129435000Y-89273691D01*
X129338327Y-89040302D01*
X129159699Y-88861673D01*
X128926310Y-88765000D01*
X128335750Y-88765000D01*
X128177000Y-88923750D01*
X127923000Y-88923750D01*
X127764250Y-88765000D01*
X127173690Y-88765000D01*
X126940301Y-88861673D01*
X126898340Y-88903634D01*
X126885000Y-88894519D01*
X126885000Y-86873691D01*
X131415000Y-86873691D01*
X131415000Y-88314250D01*
X131573750Y-88473000D01*
X132673000Y-88473000D01*
X132673000Y-86523750D01*
X132927000Y-86523750D01*
X132927000Y-88473000D01*
X134026250Y-88473000D01*
X134185000Y-88314250D01*
X134185000Y-86873691D01*
X134088327Y-86640302D01*
X133909699Y-86461673D01*
X133676310Y-86365000D01*
X133085750Y-86365000D01*
X132927000Y-86523750D01*
X132673000Y-86523750D01*
X132514250Y-86365000D01*
X131923690Y-86365000D01*
X131690301Y-86461673D01*
X131511673Y-86640302D01*
X131415000Y-86873691D01*
X126885000Y-86873691D01*
X126885000Y-85747440D01*
X127650000Y-85747440D01*
X127885317Y-85703162D01*
X128101441Y-85564090D01*
X128246431Y-85351890D01*
X128297440Y-85100000D01*
X128297440Y-83100000D01*
X128253162Y-82864683D01*
X128114090Y-82648559D01*
X127901890Y-82503569D01*
X127650000Y-82452560D01*
X123850000Y-82452560D01*
X123614683Y-82496838D01*
X123398559Y-82635910D01*
X123253569Y-82848110D01*
X123202560Y-83100000D01*
X123202560Y-83265000D01*
X121950000Y-83265000D01*
X121630460Y-83328560D01*
X121359566Y-83509566D01*
X121009566Y-83859566D01*
X120828561Y-84130459D01*
X120765000Y-84450000D01*
X120765000Y-85222766D01*
X120665162Y-85463201D01*
X120664838Y-85835167D01*
X120806883Y-86178943D01*
X121069673Y-86442192D01*
X121413201Y-86584838D01*
X121785167Y-86585162D01*
X122128943Y-86443117D01*
X122392192Y-86180327D01*
X122534838Y-85836799D01*
X122535162Y-85464833D01*
X122435000Y-85222422D01*
X122435000Y-84935000D01*
X123202560Y-84935000D01*
X123202560Y-85100000D01*
X123246838Y-85335317D01*
X123385910Y-85551441D01*
X123598110Y-85696431D01*
X123850000Y-85747440D01*
X124615000Y-85747440D01*
X124615000Y-88893156D01*
X124598523Y-88903759D01*
X124451890Y-88803569D01*
X124200000Y-88752560D01*
X122700000Y-88752560D01*
X122464683Y-88796838D01*
X122248559Y-88935910D01*
X122103569Y-89148110D01*
X122052560Y-89400000D01*
X122052560Y-89465000D01*
X120597440Y-89465000D01*
X120597440Y-89000000D01*
X120553162Y-88764683D01*
X120447518Y-88600507D01*
X120488327Y-88559698D01*
X120585000Y-88326309D01*
X120585000Y-86885750D01*
X120426250Y-86727000D01*
X119327000Y-86727000D01*
X119327000Y-86747000D01*
X119073000Y-86747000D01*
X119073000Y-86727000D01*
X117973750Y-86727000D01*
X117815000Y-86885750D01*
X117815000Y-88326309D01*
X117911673Y-88559698D01*
X117953634Y-88601660D01*
X117853569Y-88748110D01*
X117802560Y-89000000D01*
X117802560Y-91192308D01*
X117089868Y-91905000D01*
X115000000Y-91905000D01*
X114565654Y-91991397D01*
X114197434Y-92237434D01*
X113951397Y-92605654D01*
X113865000Y-93040000D01*
X113951397Y-93474346D01*
X114197434Y-93842566D01*
X114565654Y-94088603D01*
X115000000Y-94175000D01*
X117560000Y-94175000D01*
X117994346Y-94088603D01*
X118362566Y-93842566D01*
X119357692Y-92847440D01*
X119950000Y-92847440D01*
X120185317Y-92803162D01*
X120401441Y-92664090D01*
X120546431Y-92451890D01*
X120597440Y-92200000D01*
X120597440Y-91735000D01*
X122115000Y-91735000D01*
X122115000Y-94146778D01*
X122114683Y-94146838D01*
X121898559Y-94285910D01*
X121753569Y-94498110D01*
X121702560Y-94750000D01*
X121702560Y-97250000D01*
X121746838Y-97485317D01*
X121885910Y-97701441D01*
X122098110Y-97846431D01*
X122350000Y-97897440D01*
X124150000Y-97897440D01*
X124385317Y-97853162D01*
X124601441Y-97714090D01*
X124746431Y-97501890D01*
X124797440Y-97250000D01*
X124797440Y-94750000D01*
X124753162Y-94514683D01*
X124614090Y-94298559D01*
X124401890Y-94153569D01*
X124385000Y-94150149D01*
X124385000Y-92012630D01*
X124435317Y-92003162D01*
X124601477Y-91896241D01*
X124615000Y-91905481D01*
X124615000Y-92750000D01*
X124701397Y-93184346D01*
X124826409Y-93371439D01*
X124947434Y-93552566D01*
X126865000Y-95470133D01*
X126865000Y-106615000D01*
X126427234Y-106615000D01*
X126186799Y-106515162D01*
X125814833Y-106514838D01*
X125471057Y-106656883D01*
X125207808Y-106919673D01*
X125065162Y-107263201D01*
X125064838Y-107635167D01*
X125206883Y-107978943D01*
X125469673Y-108242192D01*
X125813201Y-108384838D01*
X126185167Y-108385162D01*
X126427578Y-108285000D01*
X126865000Y-108285000D01*
X126865000Y-110415000D01*
X126627234Y-110415000D01*
X126386799Y-110315162D01*
X126014833Y-110314838D01*
X125671057Y-110456883D01*
X125407808Y-110719673D01*
X125265162Y-111063201D01*
X125264838Y-111435167D01*
X125406883Y-111778943D01*
X125669673Y-112042192D01*
X126013201Y-112184838D01*
X126385167Y-112185162D01*
X126627578Y-112085000D01*
X126865000Y-112085000D01*
X126865000Y-116750000D01*
X126951397Y-117184346D01*
X127175674Y-117520000D01*
X127197434Y-117552566D01*
X128697434Y-119052566D01*
X129065654Y-119298603D01*
X129500000Y-119385000D01*
X130868156Y-119385000D01*
X130910910Y-119451441D01*
X131123110Y-119596431D01*
X131375000Y-119647440D01*
X132625000Y-119647440D01*
X132860317Y-119603162D01*
X133076441Y-119464090D01*
X133124134Y-119394289D01*
X133160910Y-119451441D01*
X133373110Y-119596431D01*
X133415000Y-119604914D01*
X133415000Y-120000000D01*
X133478561Y-120319541D01*
X133536926Y-120406890D01*
X133659566Y-120590434D01*
X133666692Y-120597560D01*
X133375000Y-120597560D01*
X133139683Y-120641838D01*
X132999273Y-120732190D01*
X132876890Y-120648569D01*
X132625000Y-120597560D01*
X131325000Y-120597560D01*
X131089683Y-120641838D01*
X130873559Y-120780910D01*
X130728569Y-120993110D01*
X130677560Y-121245000D01*
X130677560Y-121835000D01*
X130721838Y-122070317D01*
X130860910Y-122286441D01*
X130887420Y-122304554D01*
X130786673Y-122405302D01*
X130690000Y-122638691D01*
X130690000Y-122974250D01*
X130848750Y-123133000D01*
X131848000Y-123133000D01*
X131848000Y-123113000D01*
X132102000Y-123113000D01*
X132102000Y-123133000D01*
X132122000Y-123133000D01*
X132122000Y-123387000D01*
X132102000Y-123387000D01*
X132102000Y-124231250D01*
X132260750Y-124390000D01*
X132751310Y-124390000D01*
X132984699Y-124293327D01*
X133006364Y-124271662D01*
X133123110Y-124351431D01*
X133375000Y-124402440D01*
X134675000Y-124402440D01*
X134910317Y-124358162D01*
X135050602Y-124267891D01*
X135349974Y-124208342D01*
X135612756Y-124032756D01*
X135880000Y-123765512D01*
X135880000Y-124657032D01*
X135966397Y-125091378D01*
X136212434Y-125459598D01*
X136501222Y-125652560D01*
X135547210Y-125652560D01*
X135498913Y-125620289D01*
X135055000Y-125531989D01*
X134611087Y-125620289D01*
X134562790Y-125652560D01*
X134445000Y-125652560D01*
X134209683Y-125696838D01*
X133993559Y-125835910D01*
X133848569Y-126048110D01*
X133797560Y-126300000D01*
X133797560Y-126867954D01*
X133089803Y-126160197D01*
X133047789Y-126132334D01*
X133000000Y-126123000D01*
X130552606Y-126123000D01*
X128089803Y-123660197D01*
X128047789Y-123632334D01*
X128000000Y-123623000D01*
X125690782Y-123623000D01*
X125581054Y-123545750D01*
X130690000Y-123545750D01*
X130690000Y-123881309D01*
X130786673Y-124114698D01*
X130965301Y-124293327D01*
X131198690Y-124390000D01*
X131689250Y-124390000D01*
X131848000Y-124231250D01*
X131848000Y-123387000D01*
X130848750Y-123387000D01*
X130690000Y-123545750D01*
X125581054Y-123545750D01*
X125223957Y-123294351D01*
X118753043Y-116823437D01*
X119246101Y-116823437D01*
X119527604Y-117158919D01*
X119689984Y-117352436D01*
X119914059Y-117469083D01*
X120165717Y-117491099D01*
X120406644Y-117415135D01*
X120935642Y-116971253D01*
X120955209Y-116747600D01*
X120184346Y-115828922D01*
X119265668Y-116599785D01*
X119246101Y-116823437D01*
X118753043Y-116823437D01*
X115627000Y-113697394D01*
X115627000Y-113593521D01*
X117065682Y-113593521D01*
X117128762Y-114169495D01*
X117407456Y-114677487D01*
X117859335Y-115040159D01*
X118415605Y-115202298D01*
X118468119Y-115196547D01*
X118380918Y-115364059D01*
X118358900Y-115615716D01*
X118434864Y-115856643D01*
X118597244Y-116050160D01*
X118878747Y-116385642D01*
X119102400Y-116405209D01*
X119983766Y-115665654D01*
X120378922Y-115665654D01*
X121149785Y-116584332D01*
X121373437Y-116603899D01*
X121902436Y-116160017D01*
X122019082Y-115935941D01*
X122041100Y-115684284D01*
X121965136Y-115443357D01*
X121802756Y-115249840D01*
X121521253Y-114914358D01*
X121297600Y-114894791D01*
X120378922Y-115665654D01*
X119983766Y-115665654D01*
X120021078Y-115634346D01*
X120008223Y-115619026D01*
X120202798Y-115455757D01*
X120215654Y-115471078D01*
X121134332Y-114700215D01*
X121153899Y-114476563D01*
X120872396Y-114141081D01*
X120710016Y-113947564D01*
X120485941Y-113830917D01*
X120234283Y-113808901D01*
X120054173Y-113865689D01*
X120068956Y-113814973D01*
X120005876Y-113238999D01*
X119727182Y-112731007D01*
X119275303Y-112368335D01*
X118719033Y-112206196D01*
X118143058Y-112269276D01*
X117635067Y-112547970D01*
X117590493Y-112585372D01*
X117227821Y-113037251D01*
X117065682Y-113593521D01*
X115627000Y-113593521D01*
X115627000Y-106250000D01*
X115616994Y-106200590D01*
X115589803Y-106160197D01*
X113471118Y-104041512D01*
X113127000Y-103357668D01*
X113127000Y-98750000D01*
X121702560Y-98750000D01*
X121702560Y-101250000D01*
X121746838Y-101485317D01*
X121885910Y-101701441D01*
X122098110Y-101846431D01*
X122265000Y-101880227D01*
X122265000Y-119400000D01*
X122351397Y-119834346D01*
X122518667Y-120084683D01*
X122597434Y-120202566D01*
X123397434Y-121002566D01*
X123765655Y-121248603D01*
X124200000Y-121335000D01*
X124634345Y-121248603D01*
X125002566Y-121002566D01*
X125248603Y-120634345D01*
X125335000Y-120200000D01*
X125248603Y-119765655D01*
X125002566Y-119397434D01*
X124535000Y-118929868D01*
X124535000Y-101756844D01*
X124601441Y-101714090D01*
X124746431Y-101501890D01*
X124797440Y-101250000D01*
X124797440Y-98750000D01*
X124753162Y-98514683D01*
X124614090Y-98298559D01*
X124401890Y-98153569D01*
X124150000Y-98102560D01*
X122350000Y-98102560D01*
X122114683Y-98146838D01*
X121898559Y-98285910D01*
X121753569Y-98498110D01*
X121702560Y-98750000D01*
X113127000Y-98750000D01*
X113127000Y-84873691D01*
X117815000Y-84873691D01*
X117815000Y-86314250D01*
X117973750Y-86473000D01*
X119073000Y-86473000D01*
X119073000Y-84523750D01*
X119327000Y-84523750D01*
X119327000Y-86473000D01*
X120426250Y-86473000D01*
X120585000Y-86314250D01*
X120585000Y-84873691D01*
X120488327Y-84640302D01*
X120309699Y-84461673D01*
X120076310Y-84365000D01*
X119485750Y-84365000D01*
X119327000Y-84523750D01*
X119073000Y-84523750D01*
X118914250Y-84365000D01*
X118323690Y-84365000D01*
X118090301Y-84461673D01*
X117911673Y-84640302D01*
X117815000Y-84873691D01*
X113127000Y-84873691D01*
X113127000Y-83802606D01*
X115552606Y-81377000D01*
X118000000Y-81377000D01*
X118049410Y-81366994D01*
X118089803Y-81339803D01*
X123089803Y-76339803D01*
X123117666Y-76297789D01*
X123127000Y-76250000D01*
X123127000Y-61302606D01*
X128052606Y-56377000D01*
X135242132Y-56377000D01*
X135209566Y-56409566D01*
G36*
X139377000Y-118623000D02*
X139397000Y-118623000D01*
X139397000Y-118877000D01*
X139377000Y-118877000D01*
X139377000Y-118897000D01*
X139123000Y-118897000D01*
X139123000Y-118877000D01*
X139103000Y-118877000D01*
X139103000Y-118623000D01*
X139123000Y-118623000D01*
X139123000Y-118603000D01*
X139377000Y-118603000D01*
X139377000Y-118623000D01*
X139377000Y-118623000D01*
G37*
X139377000Y-118623000D02*
X139397000Y-118623000D01*
X139397000Y-118877000D01*
X139377000Y-118877000D01*
X139377000Y-118897000D01*
X139123000Y-118897000D01*
X139123000Y-118877000D01*
X139103000Y-118877000D01*
X139103000Y-118623000D01*
X139123000Y-118623000D01*
X139123000Y-118603000D01*
X139377000Y-118603000D01*
X139377000Y-118623000D01*
G36*
X145065000Y-93870132D02*
X145065000Y-96400000D01*
X145151397Y-96834346D01*
X145257988Y-96993870D01*
X145397434Y-97202566D01*
X145465000Y-97270132D01*
X145465000Y-97542716D01*
X145330327Y-97407808D01*
X144986799Y-97265162D01*
X144614833Y-97264838D01*
X144271057Y-97406883D01*
X144007808Y-97669673D01*
X143907222Y-97911910D01*
X143809566Y-98009566D01*
X143628561Y-98280459D01*
X143565000Y-98600000D01*
X143565000Y-100065143D01*
X143214833Y-100064838D01*
X142871057Y-100206883D01*
X142760000Y-100317746D01*
X142760000Y-99562463D01*
X142792192Y-99530327D01*
X142934838Y-99186799D01*
X142935162Y-98814833D01*
X142793117Y-98471057D01*
X142530327Y-98207808D01*
X142186799Y-98065162D01*
X141814833Y-98064838D01*
X141471057Y-98206883D01*
X141207808Y-98469673D01*
X141065162Y-98813201D01*
X141064838Y-99185167D01*
X141206883Y-99528943D01*
X141240000Y-99562118D01*
X141240000Y-116146458D01*
X141119090Y-115958559D01*
X140906890Y-115813569D01*
X140655000Y-115762560D01*
X140385000Y-115762560D01*
X140265778Y-115784993D01*
X140155000Y-115762560D01*
X139885000Y-115762560D01*
X139765778Y-115784993D01*
X139655000Y-115762560D01*
X139385000Y-115762560D01*
X139265778Y-115784993D01*
X139155000Y-115762560D01*
X138885000Y-115762560D01*
X138765778Y-115784993D01*
X138655000Y-115762560D01*
X138385000Y-115762560D01*
X138265778Y-115784993D01*
X138155000Y-115762560D01*
X137885000Y-115762560D01*
X137649683Y-115806838D01*
X137433559Y-115945910D01*
X137288569Y-116158110D01*
X137237560Y-116410000D01*
X137237560Y-116737560D01*
X136910000Y-116737560D01*
X136674683Y-116781838D01*
X136458559Y-116920910D01*
X136313569Y-117133110D01*
X136262560Y-117385000D01*
X136262560Y-117655000D01*
X136284993Y-117774222D01*
X136262560Y-117885000D01*
X136262560Y-118155000D01*
X136284993Y-118274222D01*
X136262560Y-118385000D01*
X136262560Y-118429669D01*
X135986799Y-118315162D01*
X135614833Y-118314838D01*
X135522440Y-118353014D01*
X135522440Y-117500000D01*
X135478162Y-117264683D01*
X135339090Y-117048559D01*
X135270994Y-117002031D01*
X135413327Y-116859698D01*
X135510000Y-116626309D01*
X135510000Y-116035750D01*
X135351250Y-115877000D01*
X134377000Y-115877000D01*
X134377000Y-115897000D01*
X134123000Y-115897000D01*
X134123000Y-115877000D01*
X133148750Y-115877000D01*
X133125000Y-115900750D01*
X133101250Y-115877000D01*
X132127000Y-115877000D01*
X132127000Y-115897000D01*
X131873000Y-115897000D01*
X131873000Y-115877000D01*
X130898750Y-115877000D01*
X130740000Y-116035750D01*
X130740000Y-116626309D01*
X130836673Y-116859698D01*
X130977910Y-117000936D01*
X130923559Y-117035910D01*
X130869519Y-117115000D01*
X129970132Y-117115000D01*
X129135000Y-116279868D01*
X129135000Y-114873691D01*
X130740000Y-114873691D01*
X130740000Y-115464250D01*
X130898750Y-115623000D01*
X131873000Y-115623000D01*
X131873000Y-114523750D01*
X132127000Y-114523750D01*
X132127000Y-115623000D01*
X133101250Y-115623000D01*
X133125000Y-115599250D01*
X133148750Y-115623000D01*
X134123000Y-115623000D01*
X134123000Y-114523750D01*
X134377000Y-114523750D01*
X134377000Y-115623000D01*
X135351250Y-115623000D01*
X135510000Y-115464250D01*
X135510000Y-114873691D01*
X135413327Y-114640302D01*
X135234699Y-114461673D01*
X135001310Y-114365000D01*
X134535750Y-114365000D01*
X134377000Y-114523750D01*
X134123000Y-114523750D01*
X133964250Y-114365000D01*
X133498690Y-114365000D01*
X133265301Y-114461673D01*
X133125000Y-114601975D01*
X132984699Y-114461673D01*
X132751310Y-114365000D01*
X132285750Y-114365000D01*
X132127000Y-114523750D01*
X131873000Y-114523750D01*
X131714250Y-114365000D01*
X131248690Y-114365000D01*
X131015301Y-114461673D01*
X130836673Y-114640302D01*
X130740000Y-114873691D01*
X129135000Y-114873691D01*
X129135000Y-109635000D01*
X133322766Y-109635000D01*
X133563201Y-109734838D01*
X133935167Y-109735162D01*
X134278943Y-109593117D01*
X134542192Y-109330327D01*
X134684838Y-108986799D01*
X134685162Y-108614833D01*
X134543117Y-108271057D01*
X134280327Y-108007808D01*
X133936799Y-107865162D01*
X133564833Y-107864838D01*
X133322422Y-107965000D01*
X129135000Y-107965000D01*
X129135000Y-98085000D01*
X136172766Y-98085000D01*
X136413201Y-98184838D01*
X136785167Y-98185162D01*
X137128943Y-98043117D01*
X137392192Y-97780327D01*
X137534838Y-97436799D01*
X137535162Y-97064833D01*
X137393117Y-96721057D01*
X137130327Y-96457808D01*
X136786799Y-96315162D01*
X136414833Y-96314838D01*
X136172422Y-96415000D01*
X129135000Y-96415000D01*
X129135000Y-96135000D01*
X132200000Y-96135000D01*
X132634346Y-96048603D01*
X133002566Y-95802566D01*
X133602566Y-95202566D01*
X133647864Y-95134773D01*
X133848603Y-94834346D01*
X133865006Y-94751884D01*
X134001441Y-94664090D01*
X134146431Y-94451890D01*
X134197440Y-94200000D01*
X134197440Y-93735000D01*
X144929868Y-93735000D01*
X145065000Y-93870132D01*
X145065000Y-93870132D01*
G37*
X145065000Y-93870132D02*
X145065000Y-96400000D01*
X145151397Y-96834346D01*
X145257988Y-96993870D01*
X145397434Y-97202566D01*
X145465000Y-97270132D01*
X145465000Y-97542716D01*
X145330327Y-97407808D01*
X144986799Y-97265162D01*
X144614833Y-97264838D01*
X144271057Y-97406883D01*
X144007808Y-97669673D01*
X143907222Y-97911910D01*
X143809566Y-98009566D01*
X143628561Y-98280459D01*
X143565000Y-98600000D01*
X143565000Y-100065143D01*
X143214833Y-100064838D01*
X142871057Y-100206883D01*
X142760000Y-100317746D01*
X142760000Y-99562463D01*
X142792192Y-99530327D01*
X142934838Y-99186799D01*
X142935162Y-98814833D01*
X142793117Y-98471057D01*
X142530327Y-98207808D01*
X142186799Y-98065162D01*
X141814833Y-98064838D01*
X141471057Y-98206883D01*
X141207808Y-98469673D01*
X141065162Y-98813201D01*
X141064838Y-99185167D01*
X141206883Y-99528943D01*
X141240000Y-99562118D01*
X141240000Y-116146458D01*
X141119090Y-115958559D01*
X140906890Y-115813569D01*
X140655000Y-115762560D01*
X140385000Y-115762560D01*
X140265778Y-115784993D01*
X140155000Y-115762560D01*
X139885000Y-115762560D01*
X139765778Y-115784993D01*
X139655000Y-115762560D01*
X139385000Y-115762560D01*
X139265778Y-115784993D01*
X139155000Y-115762560D01*
X138885000Y-115762560D01*
X138765778Y-115784993D01*
X138655000Y-115762560D01*
X138385000Y-115762560D01*
X138265778Y-115784993D01*
X138155000Y-115762560D01*
X137885000Y-115762560D01*
X137649683Y-115806838D01*
X137433559Y-115945910D01*
X137288569Y-116158110D01*
X137237560Y-116410000D01*
X137237560Y-116737560D01*
X136910000Y-116737560D01*
X136674683Y-116781838D01*
X136458559Y-116920910D01*
X136313569Y-117133110D01*
X136262560Y-117385000D01*
X136262560Y-117655000D01*
X136284993Y-117774222D01*
X136262560Y-117885000D01*
X136262560Y-118155000D01*
X136284993Y-118274222D01*
X136262560Y-118385000D01*
X136262560Y-118429669D01*
X135986799Y-118315162D01*
X135614833Y-118314838D01*
X135522440Y-118353014D01*
X135522440Y-117500000D01*
X135478162Y-117264683D01*
X135339090Y-117048559D01*
X135270994Y-117002031D01*
X135413327Y-116859698D01*
X135510000Y-116626309D01*
X135510000Y-116035750D01*
X135351250Y-115877000D01*
X134377000Y-115877000D01*
X134377000Y-115897000D01*
X134123000Y-115897000D01*
X134123000Y-115877000D01*
X133148750Y-115877000D01*
X133125000Y-115900750D01*
X133101250Y-115877000D01*
X132127000Y-115877000D01*
X132127000Y-115897000D01*
X131873000Y-115897000D01*
X131873000Y-115877000D01*
X130898750Y-115877000D01*
X130740000Y-116035750D01*
X130740000Y-116626309D01*
X130836673Y-116859698D01*
X130977910Y-117000936D01*
X130923559Y-117035910D01*
X130869519Y-117115000D01*
X129970132Y-117115000D01*
X129135000Y-116279868D01*
X129135000Y-114873691D01*
X130740000Y-114873691D01*
X130740000Y-115464250D01*
X130898750Y-115623000D01*
X131873000Y-115623000D01*
X131873000Y-114523750D01*
X132127000Y-114523750D01*
X132127000Y-115623000D01*
X133101250Y-115623000D01*
X133125000Y-115599250D01*
X133148750Y-115623000D01*
X134123000Y-115623000D01*
X134123000Y-114523750D01*
X134377000Y-114523750D01*
X134377000Y-115623000D01*
X135351250Y-115623000D01*
X135510000Y-115464250D01*
X135510000Y-114873691D01*
X135413327Y-114640302D01*
X135234699Y-114461673D01*
X135001310Y-114365000D01*
X134535750Y-114365000D01*
X134377000Y-114523750D01*
X134123000Y-114523750D01*
X133964250Y-114365000D01*
X133498690Y-114365000D01*
X133265301Y-114461673D01*
X133125000Y-114601975D01*
X132984699Y-114461673D01*
X132751310Y-114365000D01*
X132285750Y-114365000D01*
X132127000Y-114523750D01*
X131873000Y-114523750D01*
X131714250Y-114365000D01*
X131248690Y-114365000D01*
X131015301Y-114461673D01*
X130836673Y-114640302D01*
X130740000Y-114873691D01*
X129135000Y-114873691D01*
X129135000Y-109635000D01*
X133322766Y-109635000D01*
X133563201Y-109734838D01*
X133935167Y-109735162D01*
X134278943Y-109593117D01*
X134542192Y-109330327D01*
X134684838Y-108986799D01*
X134685162Y-108614833D01*
X134543117Y-108271057D01*
X134280327Y-108007808D01*
X133936799Y-107865162D01*
X133564833Y-107864838D01*
X133322422Y-107965000D01*
X129135000Y-107965000D01*
X129135000Y-98085000D01*
X136172766Y-98085000D01*
X136413201Y-98184838D01*
X136785167Y-98185162D01*
X137128943Y-98043117D01*
X137392192Y-97780327D01*
X137534838Y-97436799D01*
X137535162Y-97064833D01*
X137393117Y-96721057D01*
X137130327Y-96457808D01*
X136786799Y-96315162D01*
X136414833Y-96314838D01*
X136172422Y-96415000D01*
X129135000Y-96415000D01*
X129135000Y-96135000D01*
X132200000Y-96135000D01*
X132634346Y-96048603D01*
X133002566Y-95802566D01*
X133602566Y-95202566D01*
X133647864Y-95134773D01*
X133848603Y-94834346D01*
X133865006Y-94751884D01*
X134001441Y-94664090D01*
X134146431Y-94451890D01*
X134197440Y-94200000D01*
X134197440Y-93735000D01*
X144929868Y-93735000D01*
X145065000Y-93870132D01*
G36*
X185465000Y-53570132D02*
X185465000Y-62650000D01*
X185551397Y-63084346D01*
X185689101Y-63290434D01*
X185797434Y-63452566D01*
X185869681Y-63524813D01*
X185671057Y-63606883D01*
X185407808Y-63869673D01*
X185265162Y-64213201D01*
X185264838Y-64585167D01*
X185406883Y-64928943D01*
X185669673Y-65192192D01*
X186013201Y-65334838D01*
X186385167Y-65335162D01*
X186728943Y-65193117D01*
X186745960Y-65176130D01*
X186769541Y-65171439D01*
X187040434Y-64990434D01*
X187145868Y-64885000D01*
X187229868Y-64885000D01*
X188065000Y-65720132D01*
X188065000Y-73165000D01*
X187427234Y-73165000D01*
X187186799Y-73065162D01*
X186814833Y-73064838D01*
X186471057Y-73206883D01*
X186207808Y-73469673D01*
X186065162Y-73813201D01*
X186064838Y-74185167D01*
X186206883Y-74528943D01*
X186469673Y-74792192D01*
X186813201Y-74934838D01*
X187185167Y-74935162D01*
X187427578Y-74835000D01*
X188065000Y-74835000D01*
X188065000Y-77129868D01*
X186829868Y-78365000D01*
X175335000Y-78365000D01*
X175335000Y-78281446D01*
X175485317Y-78253162D01*
X175701441Y-78114090D01*
X175846431Y-77901890D01*
X175849081Y-77888803D01*
X175985910Y-78101441D01*
X176198110Y-78246431D01*
X176450000Y-78297440D01*
X177950000Y-78297440D01*
X178185317Y-78253162D01*
X178401441Y-78114090D01*
X178546431Y-77901890D01*
X178559977Y-77835000D01*
X179200000Y-77835000D01*
X179519541Y-77771439D01*
X179790434Y-77590434D01*
X180190434Y-77190434D01*
X180256981Y-77090839D01*
X180371439Y-76919541D01*
X180435000Y-76600000D01*
X180435000Y-76027234D01*
X180534838Y-75786799D01*
X180535162Y-75414833D01*
X180393117Y-75071057D01*
X180130327Y-74807808D01*
X179786799Y-74665162D01*
X179414833Y-74664838D01*
X179071057Y-74806883D01*
X178807808Y-75069673D01*
X178665162Y-75413201D01*
X178664838Y-75785167D01*
X178765000Y-76027578D01*
X178765000Y-76165000D01*
X178562630Y-76165000D01*
X178553162Y-76114683D01*
X178414090Y-75898559D01*
X178201890Y-75753569D01*
X177950000Y-75702560D01*
X176450000Y-75702560D01*
X176214683Y-75746838D01*
X175998559Y-75885910D01*
X175853569Y-76098110D01*
X175850919Y-76111197D01*
X175714090Y-75898559D01*
X175501890Y-75753569D01*
X175250000Y-75702560D01*
X173750000Y-75702560D01*
X173514683Y-75746838D01*
X173475394Y-75772119D01*
X173301890Y-75653569D01*
X173288803Y-75650919D01*
X173501441Y-75514090D01*
X173646431Y-75301890D01*
X173697440Y-75050000D01*
X173697440Y-73550000D01*
X173653162Y-73314683D01*
X173514090Y-73098559D01*
X173301890Y-72953569D01*
X173235000Y-72940023D01*
X173235000Y-72027234D01*
X173334838Y-71786799D01*
X173335162Y-71414833D01*
X173193117Y-71071057D01*
X172930327Y-70807808D01*
X172586799Y-70665162D01*
X172214833Y-70664838D01*
X171871057Y-70806883D01*
X171607808Y-71069673D01*
X171465162Y-71413201D01*
X171464838Y-71785167D01*
X171565000Y-72027578D01*
X171565000Y-72937370D01*
X171514683Y-72946838D01*
X171298559Y-73085910D01*
X171185000Y-73252109D01*
X171185000Y-69897440D01*
X171750000Y-69897440D01*
X171985317Y-69853162D01*
X172201441Y-69714090D01*
X172346431Y-69501890D01*
X172397440Y-69250000D01*
X172397440Y-67950000D01*
X172353162Y-67714683D01*
X172214090Y-67498559D01*
X172044667Y-67382797D01*
X172151441Y-67314090D01*
X172296431Y-67101890D01*
X172347440Y-66850000D01*
X172347440Y-65550000D01*
X172303162Y-65314683D01*
X172164090Y-65098559D01*
X171951890Y-64953569D01*
X171700000Y-64902560D01*
X170200000Y-64902560D01*
X169964683Y-64946838D01*
X169748559Y-65085910D01*
X169603569Y-65298110D01*
X169600919Y-65311197D01*
X169464090Y-65098559D01*
X169251890Y-64953569D01*
X169085000Y-64919773D01*
X169085000Y-64881446D01*
X169235317Y-64853162D01*
X169451441Y-64714090D01*
X169596431Y-64501890D01*
X169599081Y-64488803D01*
X169735910Y-64701441D01*
X169948110Y-64846431D01*
X170200000Y-64897440D01*
X171700000Y-64897440D01*
X171935317Y-64853162D01*
X172151441Y-64714090D01*
X172296431Y-64501890D01*
X172309977Y-64435000D01*
X172454132Y-64435000D01*
X172765000Y-64745868D01*
X172765000Y-68572766D01*
X172665162Y-68813201D01*
X172664838Y-69185167D01*
X172806883Y-69528943D01*
X173069673Y-69792192D01*
X173413201Y-69934838D01*
X173785167Y-69935162D01*
X174128943Y-69793117D01*
X174392192Y-69530327D01*
X174534838Y-69186799D01*
X174535162Y-68814833D01*
X174435000Y-68572422D01*
X174435000Y-64400000D01*
X174371439Y-64080459D01*
X174190434Y-63809566D01*
X173390434Y-63009566D01*
X173345289Y-62979401D01*
X173119541Y-62828561D01*
X172800000Y-62765000D01*
X172312630Y-62765000D01*
X172303162Y-62714683D01*
X172164090Y-62498559D01*
X171951890Y-62353569D01*
X171700000Y-62302560D01*
X170200000Y-62302560D01*
X169964683Y-62346838D01*
X169748559Y-62485910D01*
X169603569Y-62698110D01*
X169600919Y-62711197D01*
X169464090Y-62498559D01*
X169251890Y-62353569D01*
X169000000Y-62302560D01*
X167500000Y-62302560D01*
X167264683Y-62346838D01*
X167048559Y-62485910D01*
X166926192Y-62665000D01*
X166515868Y-62665000D01*
X167083372Y-62097496D01*
X167085910Y-62101441D01*
X167298110Y-62246431D01*
X167550000Y-62297440D01*
X169050000Y-62297440D01*
X169285317Y-62253162D01*
X169501441Y-62114090D01*
X169646431Y-61901890D01*
X169653191Y-61868510D01*
X169711673Y-62009699D01*
X169890302Y-62188327D01*
X170123691Y-62285000D01*
X170714250Y-62285000D01*
X170873000Y-62126250D01*
X170873000Y-61127000D01*
X171127000Y-61127000D01*
X171127000Y-62126250D01*
X171285750Y-62285000D01*
X171876309Y-62285000D01*
X172109698Y-62188327D01*
X172288327Y-62009699D01*
X172385000Y-61776310D01*
X172385000Y-61285750D01*
X172226250Y-61127000D01*
X171127000Y-61127000D01*
X170873000Y-61127000D01*
X170853000Y-61127000D01*
X170853000Y-60873000D01*
X170873000Y-60873000D01*
X170873000Y-60853000D01*
X171127000Y-60853000D01*
X171127000Y-60873000D01*
X172226250Y-60873000D01*
X172385000Y-60714250D01*
X172385000Y-60223690D01*
X172288327Y-59990301D01*
X172109698Y-59811673D01*
X171973712Y-59755346D01*
X171985317Y-59753162D01*
X172201441Y-59614090D01*
X172346431Y-59401890D01*
X172397440Y-59150000D01*
X172397440Y-58785167D01*
X180664838Y-58785167D01*
X180806883Y-59128943D01*
X180965000Y-59287336D01*
X180965000Y-71372766D01*
X180865162Y-71613201D01*
X180864838Y-71985167D01*
X181006883Y-72328943D01*
X181269673Y-72592192D01*
X181613201Y-72734838D01*
X181985167Y-72735162D01*
X182328943Y-72593117D01*
X182592192Y-72330327D01*
X182734838Y-71986799D01*
X182735162Y-71614833D01*
X182635000Y-71372422D01*
X182635000Y-58800000D01*
X182620866Y-58728943D01*
X182571440Y-58480460D01*
X182535152Y-58426152D01*
X182535162Y-58414833D01*
X182393117Y-58071057D01*
X182130327Y-57807808D01*
X181786799Y-57665162D01*
X181414833Y-57664838D01*
X181071057Y-57806883D01*
X180807808Y-58069673D01*
X180665162Y-58413201D01*
X180664838Y-58785167D01*
X172397440Y-58785167D01*
X172397440Y-57850000D01*
X172353162Y-57614683D01*
X172214090Y-57398559D01*
X172001890Y-57253569D01*
X171835000Y-57219773D01*
X171835000Y-54770132D01*
X176470132Y-50135000D01*
X182029868Y-50135000D01*
X185465000Y-53570132D01*
X185465000Y-53570132D01*
G37*
X185465000Y-53570132D02*
X185465000Y-62650000D01*
X185551397Y-63084346D01*
X185689101Y-63290434D01*
X185797434Y-63452566D01*
X185869681Y-63524813D01*
X185671057Y-63606883D01*
X185407808Y-63869673D01*
X185265162Y-64213201D01*
X185264838Y-64585167D01*
X185406883Y-64928943D01*
X185669673Y-65192192D01*
X186013201Y-65334838D01*
X186385167Y-65335162D01*
X186728943Y-65193117D01*
X186745960Y-65176130D01*
X186769541Y-65171439D01*
X187040434Y-64990434D01*
X187145868Y-64885000D01*
X187229868Y-64885000D01*
X188065000Y-65720132D01*
X188065000Y-73165000D01*
X187427234Y-73165000D01*
X187186799Y-73065162D01*
X186814833Y-73064838D01*
X186471057Y-73206883D01*
X186207808Y-73469673D01*
X186065162Y-73813201D01*
X186064838Y-74185167D01*
X186206883Y-74528943D01*
X186469673Y-74792192D01*
X186813201Y-74934838D01*
X187185167Y-74935162D01*
X187427578Y-74835000D01*
X188065000Y-74835000D01*
X188065000Y-77129868D01*
X186829868Y-78365000D01*
X175335000Y-78365000D01*
X175335000Y-78281446D01*
X175485317Y-78253162D01*
X175701441Y-78114090D01*
X175846431Y-77901890D01*
X175849081Y-77888803D01*
X175985910Y-78101441D01*
X176198110Y-78246431D01*
X176450000Y-78297440D01*
X177950000Y-78297440D01*
X178185317Y-78253162D01*
X178401441Y-78114090D01*
X178546431Y-77901890D01*
X178559977Y-77835000D01*
X179200000Y-77835000D01*
X179519541Y-77771439D01*
X179790434Y-77590434D01*
X180190434Y-77190434D01*
X180256981Y-77090839D01*
X180371439Y-76919541D01*
X180435000Y-76600000D01*
X180435000Y-76027234D01*
X180534838Y-75786799D01*
X180535162Y-75414833D01*
X180393117Y-75071057D01*
X180130327Y-74807808D01*
X179786799Y-74665162D01*
X179414833Y-74664838D01*
X179071057Y-74806883D01*
X178807808Y-75069673D01*
X178665162Y-75413201D01*
X178664838Y-75785167D01*
X178765000Y-76027578D01*
X178765000Y-76165000D01*
X178562630Y-76165000D01*
X178553162Y-76114683D01*
X178414090Y-75898559D01*
X178201890Y-75753569D01*
X177950000Y-75702560D01*
X176450000Y-75702560D01*
X176214683Y-75746838D01*
X175998559Y-75885910D01*
X175853569Y-76098110D01*
X175850919Y-76111197D01*
X175714090Y-75898559D01*
X175501890Y-75753569D01*
X175250000Y-75702560D01*
X173750000Y-75702560D01*
X173514683Y-75746838D01*
X173475394Y-75772119D01*
X173301890Y-75653569D01*
X173288803Y-75650919D01*
X173501441Y-75514090D01*
X173646431Y-75301890D01*
X173697440Y-75050000D01*
X173697440Y-73550000D01*
X173653162Y-73314683D01*
X173514090Y-73098559D01*
X173301890Y-72953569D01*
X173235000Y-72940023D01*
X173235000Y-72027234D01*
X173334838Y-71786799D01*
X173335162Y-71414833D01*
X173193117Y-71071057D01*
X172930327Y-70807808D01*
X172586799Y-70665162D01*
X172214833Y-70664838D01*
X171871057Y-70806883D01*
X171607808Y-71069673D01*
X171465162Y-71413201D01*
X171464838Y-71785167D01*
X171565000Y-72027578D01*
X171565000Y-72937370D01*
X171514683Y-72946838D01*
X171298559Y-73085910D01*
X171185000Y-73252109D01*
X171185000Y-69897440D01*
X171750000Y-69897440D01*
X171985317Y-69853162D01*
X172201441Y-69714090D01*
X172346431Y-69501890D01*
X172397440Y-69250000D01*
X172397440Y-67950000D01*
X172353162Y-67714683D01*
X172214090Y-67498559D01*
X172044667Y-67382797D01*
X172151441Y-67314090D01*
X172296431Y-67101890D01*
X172347440Y-66850000D01*
X172347440Y-65550000D01*
X172303162Y-65314683D01*
X172164090Y-65098559D01*
X171951890Y-64953569D01*
X171700000Y-64902560D01*
X170200000Y-64902560D01*
X169964683Y-64946838D01*
X169748559Y-65085910D01*
X169603569Y-65298110D01*
X169600919Y-65311197D01*
X169464090Y-65098559D01*
X169251890Y-64953569D01*
X169085000Y-64919773D01*
X169085000Y-64881446D01*
X169235317Y-64853162D01*
X169451441Y-64714090D01*
X169596431Y-64501890D01*
X169599081Y-64488803D01*
X169735910Y-64701441D01*
X169948110Y-64846431D01*
X170200000Y-64897440D01*
X171700000Y-64897440D01*
X171935317Y-64853162D01*
X172151441Y-64714090D01*
X172296431Y-64501890D01*
X172309977Y-64435000D01*
X172454132Y-64435000D01*
X172765000Y-64745868D01*
X172765000Y-68572766D01*
X172665162Y-68813201D01*
X172664838Y-69185167D01*
X172806883Y-69528943D01*
X173069673Y-69792192D01*
X173413201Y-69934838D01*
X173785167Y-69935162D01*
X174128943Y-69793117D01*
X174392192Y-69530327D01*
X174534838Y-69186799D01*
X174535162Y-68814833D01*
X174435000Y-68572422D01*
X174435000Y-64400000D01*
X174371439Y-64080459D01*
X174190434Y-63809566D01*
X173390434Y-63009566D01*
X173345289Y-62979401D01*
X173119541Y-62828561D01*
X172800000Y-62765000D01*
X172312630Y-62765000D01*
X172303162Y-62714683D01*
X172164090Y-62498559D01*
X171951890Y-62353569D01*
X171700000Y-62302560D01*
X170200000Y-62302560D01*
X169964683Y-62346838D01*
X169748559Y-62485910D01*
X169603569Y-62698110D01*
X169600919Y-62711197D01*
X169464090Y-62498559D01*
X169251890Y-62353569D01*
X169000000Y-62302560D01*
X167500000Y-62302560D01*
X167264683Y-62346838D01*
X167048559Y-62485910D01*
X166926192Y-62665000D01*
X166515868Y-62665000D01*
X167083372Y-62097496D01*
X167085910Y-62101441D01*
X167298110Y-62246431D01*
X167550000Y-62297440D01*
X169050000Y-62297440D01*
X169285317Y-62253162D01*
X169501441Y-62114090D01*
X169646431Y-61901890D01*
X169653191Y-61868510D01*
X169711673Y-62009699D01*
X169890302Y-62188327D01*
X170123691Y-62285000D01*
X170714250Y-62285000D01*
X170873000Y-62126250D01*
X170873000Y-61127000D01*
X171127000Y-61127000D01*
X171127000Y-62126250D01*
X171285750Y-62285000D01*
X171876309Y-62285000D01*
X172109698Y-62188327D01*
X172288327Y-62009699D01*
X172385000Y-61776310D01*
X172385000Y-61285750D01*
X172226250Y-61127000D01*
X171127000Y-61127000D01*
X170873000Y-61127000D01*
X170853000Y-61127000D01*
X170853000Y-60873000D01*
X170873000Y-60873000D01*
X170873000Y-60853000D01*
X171127000Y-60853000D01*
X171127000Y-60873000D01*
X172226250Y-60873000D01*
X172385000Y-60714250D01*
X172385000Y-60223690D01*
X172288327Y-59990301D01*
X172109698Y-59811673D01*
X171973712Y-59755346D01*
X171985317Y-59753162D01*
X172201441Y-59614090D01*
X172346431Y-59401890D01*
X172397440Y-59150000D01*
X172397440Y-58785167D01*
X180664838Y-58785167D01*
X180806883Y-59128943D01*
X180965000Y-59287336D01*
X180965000Y-71372766D01*
X180865162Y-71613201D01*
X180864838Y-71985167D01*
X181006883Y-72328943D01*
X181269673Y-72592192D01*
X181613201Y-72734838D01*
X181985167Y-72735162D01*
X182328943Y-72593117D01*
X182592192Y-72330327D01*
X182734838Y-71986799D01*
X182735162Y-71614833D01*
X182635000Y-71372422D01*
X182635000Y-58800000D01*
X182620866Y-58728943D01*
X182571440Y-58480460D01*
X182535152Y-58426152D01*
X182535162Y-58414833D01*
X182393117Y-58071057D01*
X182130327Y-57807808D01*
X181786799Y-57665162D01*
X181414833Y-57664838D01*
X181071057Y-57806883D01*
X180807808Y-58069673D01*
X180665162Y-58413201D01*
X180664838Y-58785167D01*
X172397440Y-58785167D01*
X172397440Y-57850000D01*
X172353162Y-57614683D01*
X172214090Y-57398559D01*
X172001890Y-57253569D01*
X171835000Y-57219773D01*
X171835000Y-54770132D01*
X176470132Y-50135000D01*
X182029868Y-50135000D01*
X185465000Y-53570132D01*
G36*
X166896838Y-64485317D02*
X167035910Y-64701441D01*
X167248110Y-64846431D01*
X167415000Y-64880227D01*
X167415000Y-64918554D01*
X167264683Y-64946838D01*
X167048559Y-65085910D01*
X166903569Y-65298110D01*
X166852560Y-65550000D01*
X166852560Y-66850000D01*
X166896838Y-67085317D01*
X167035910Y-67301441D01*
X167205333Y-67417203D01*
X167098559Y-67485910D01*
X166953569Y-67698110D01*
X166937506Y-67777431D01*
X166680459Y-67828561D01*
X166544298Y-67919541D01*
X166409566Y-68009566D01*
X166111667Y-68307465D01*
X165871057Y-68406883D01*
X165655508Y-68622056D01*
X165593117Y-68471057D01*
X165330327Y-68207808D01*
X164986799Y-68065162D01*
X164614833Y-68064838D01*
X164372422Y-68165000D01*
X161547947Y-68165000D01*
X161582544Y-68153808D01*
X161907013Y-67877408D01*
X162094408Y-67494001D01*
X161967502Y-67327000D01*
X160627000Y-67327000D01*
X160627000Y-67347000D01*
X160373000Y-67347000D01*
X160373000Y-67327000D01*
X160353000Y-67327000D01*
X160353000Y-67073000D01*
X160373000Y-67073000D01*
X160373000Y-67053000D01*
X160627000Y-67053000D01*
X160627000Y-67073000D01*
X161967502Y-67073000D01*
X162094408Y-66905999D01*
X161907013Y-66522592D01*
X161845184Y-66469923D01*
X161849243Y-66467211D01*
X162084441Y-66115212D01*
X162167032Y-65700000D01*
X162084441Y-65284788D01*
X161917538Y-65035000D01*
X165300000Y-65035000D01*
X165619541Y-64971439D01*
X165890434Y-64790434D01*
X166345869Y-64335000D01*
X166868554Y-64335000D01*
X166896838Y-64485317D01*
X166896838Y-64485317D01*
G37*
X166896838Y-64485317D02*
X167035910Y-64701441D01*
X167248110Y-64846431D01*
X167415000Y-64880227D01*
X167415000Y-64918554D01*
X167264683Y-64946838D01*
X167048559Y-65085910D01*
X166903569Y-65298110D01*
X166852560Y-65550000D01*
X166852560Y-66850000D01*
X166896838Y-67085317D01*
X167035910Y-67301441D01*
X167205333Y-67417203D01*
X167098559Y-67485910D01*
X166953569Y-67698110D01*
X166937506Y-67777431D01*
X166680459Y-67828561D01*
X166544298Y-67919541D01*
X166409566Y-68009566D01*
X166111667Y-68307465D01*
X165871057Y-68406883D01*
X165655508Y-68622056D01*
X165593117Y-68471057D01*
X165330327Y-68207808D01*
X164986799Y-68065162D01*
X164614833Y-68064838D01*
X164372422Y-68165000D01*
X161547947Y-68165000D01*
X161582544Y-68153808D01*
X161907013Y-67877408D01*
X162094408Y-67494001D01*
X161967502Y-67327000D01*
X160627000Y-67327000D01*
X160627000Y-67347000D01*
X160373000Y-67347000D01*
X160373000Y-67327000D01*
X160353000Y-67327000D01*
X160353000Y-67073000D01*
X160373000Y-67073000D01*
X160373000Y-67053000D01*
X160627000Y-67053000D01*
X160627000Y-67073000D01*
X161967502Y-67073000D01*
X162094408Y-66905999D01*
X161907013Y-66522592D01*
X161845184Y-66469923D01*
X161849243Y-66467211D01*
X162084441Y-66115212D01*
X162167032Y-65700000D01*
X162084441Y-65284788D01*
X161917538Y-65035000D01*
X165300000Y-65035000D01*
X165619541Y-64971439D01*
X165890434Y-64790434D01*
X166345869Y-64335000D01*
X166868554Y-64335000D01*
X166896838Y-64485317D01*
G36*
X158832968Y-56700000D02*
X158915559Y-57115212D01*
X159139257Y-57450000D01*
X158915559Y-57784788D01*
X158832968Y-58200000D01*
X158915559Y-58615212D01*
X159139257Y-58950000D01*
X158915559Y-59284788D01*
X158832968Y-59700000D01*
X158915559Y-60115212D01*
X159139257Y-60450000D01*
X158915559Y-60784788D01*
X158832968Y-61200000D01*
X158915559Y-61615212D01*
X159139257Y-61950000D01*
X158915559Y-62284788D01*
X158832968Y-62700000D01*
X158915559Y-63115212D01*
X159139257Y-63450000D01*
X158915559Y-63784788D01*
X158832968Y-64200000D01*
X158915559Y-64615212D01*
X159132575Y-64940000D01*
X159100000Y-64940000D01*
X158809161Y-64997852D01*
X158700136Y-65070700D01*
X158686799Y-65065162D01*
X158314833Y-65064838D01*
X157971057Y-65206883D01*
X157707808Y-65469673D01*
X157635000Y-65645013D01*
X157635000Y-65027234D01*
X157734838Y-64786799D01*
X157735162Y-64414833D01*
X157593117Y-64071057D01*
X157330327Y-63807808D01*
X156986799Y-63665162D01*
X156614833Y-63664838D01*
X156271057Y-63806883D01*
X156007808Y-64069673D01*
X155865162Y-64413201D01*
X155864838Y-64785167D01*
X155965000Y-65027578D01*
X155965000Y-65797821D01*
X155800000Y-65765000D01*
X148745868Y-65765000D01*
X146590434Y-63609566D01*
X146561801Y-63590434D01*
X146319541Y-63428561D01*
X146000000Y-63365000D01*
X143913078Y-63365000D01*
X144094408Y-62994001D01*
X143967502Y-62827000D01*
X142627000Y-62827000D01*
X142627000Y-62847000D01*
X142373000Y-62847000D01*
X142373000Y-62827000D01*
X141032498Y-62827000D01*
X140905592Y-62994001D01*
X141092987Y-63377408D01*
X141154816Y-63430077D01*
X141150757Y-63432789D01*
X140915559Y-63784788D01*
X140832968Y-64200000D01*
X140915559Y-64615212D01*
X141139257Y-64950000D01*
X140915559Y-65284788D01*
X140832968Y-65700000D01*
X140915559Y-66115212D01*
X141082462Y-66365000D01*
X140745868Y-66365000D01*
X140635000Y-66254132D01*
X140635000Y-64027234D01*
X140734838Y-63786799D01*
X140735162Y-63414833D01*
X140593117Y-63071057D01*
X140330327Y-62807808D01*
X140219203Y-62761665D01*
X140945868Y-62035000D01*
X141086922Y-62035000D01*
X140905592Y-62405999D01*
X141032498Y-62573000D01*
X142373000Y-62573000D01*
X142373000Y-62553000D01*
X142627000Y-62553000D01*
X142627000Y-62573000D01*
X143967502Y-62573000D01*
X144094408Y-62405999D01*
X143907013Y-62022592D01*
X143845184Y-61969923D01*
X143849243Y-61967211D01*
X144084441Y-61615212D01*
X144167032Y-61200000D01*
X144084441Y-60784788D01*
X143860743Y-60450000D01*
X144084441Y-60115212D01*
X144167032Y-59700000D01*
X144127984Y-59503690D01*
X147595000Y-59503690D01*
X147595000Y-61494250D01*
X147654574Y-61553824D01*
X147684454Y-61947349D01*
X147692932Y-61967818D01*
X147595000Y-62065750D01*
X147595000Y-64056310D01*
X147691673Y-64289699D01*
X147870302Y-64468327D01*
X148103691Y-64565000D01*
X150094250Y-64565000D01*
X150253000Y-64406250D01*
X150253000Y-63990718D01*
X150318197Y-63963712D01*
X150325000Y-63917550D01*
X150331803Y-63963712D01*
X150507000Y-64021171D01*
X150507000Y-64406250D01*
X150665750Y-64565000D01*
X152656309Y-64565000D01*
X152889698Y-64468327D01*
X153068327Y-64289699D01*
X153165000Y-64056310D01*
X153165000Y-62065750D01*
X153044899Y-61945649D01*
X153098226Y-61783052D01*
X153082557Y-61576693D01*
X153165000Y-61494250D01*
X153165000Y-59503690D01*
X153068327Y-59270301D01*
X152889698Y-59091673D01*
X152656309Y-58995000D01*
X150665750Y-58995000D01*
X150507000Y-59153750D01*
X150507000Y-59163719D01*
X150331803Y-59236288D01*
X150325000Y-59282450D01*
X150318197Y-59236288D01*
X150253000Y-59214906D01*
X150253000Y-59153750D01*
X150094250Y-58995000D01*
X148103691Y-58995000D01*
X147870302Y-59091673D01*
X147691673Y-59270301D01*
X147595000Y-59503690D01*
X144127984Y-59503690D01*
X144084441Y-59284788D01*
X143860743Y-58950000D01*
X144084441Y-58615212D01*
X144167032Y-58200000D01*
X144084441Y-57784788D01*
X143860743Y-57450000D01*
X144084441Y-57115212D01*
X144167032Y-56700000D01*
X144102783Y-56377000D01*
X158897217Y-56377000D01*
X158832968Y-56700000D01*
X158832968Y-56700000D01*
G37*
X158832968Y-56700000D02*
X158915559Y-57115212D01*
X159139257Y-57450000D01*
X158915559Y-57784788D01*
X158832968Y-58200000D01*
X158915559Y-58615212D01*
X159139257Y-58950000D01*
X158915559Y-59284788D01*
X158832968Y-59700000D01*
X158915559Y-60115212D01*
X159139257Y-60450000D01*
X158915559Y-60784788D01*
X158832968Y-61200000D01*
X158915559Y-61615212D01*
X159139257Y-61950000D01*
X158915559Y-62284788D01*
X158832968Y-62700000D01*
X158915559Y-63115212D01*
X159139257Y-63450000D01*
X158915559Y-63784788D01*
X158832968Y-64200000D01*
X158915559Y-64615212D01*
X159132575Y-64940000D01*
X159100000Y-64940000D01*
X158809161Y-64997852D01*
X158700136Y-65070700D01*
X158686799Y-65065162D01*
X158314833Y-65064838D01*
X157971057Y-65206883D01*
X157707808Y-65469673D01*
X157635000Y-65645013D01*
X157635000Y-65027234D01*
X157734838Y-64786799D01*
X157735162Y-64414833D01*
X157593117Y-64071057D01*
X157330327Y-63807808D01*
X156986799Y-63665162D01*
X156614833Y-63664838D01*
X156271057Y-63806883D01*
X156007808Y-64069673D01*
X155865162Y-64413201D01*
X155864838Y-64785167D01*
X155965000Y-65027578D01*
X155965000Y-65797821D01*
X155800000Y-65765000D01*
X148745868Y-65765000D01*
X146590434Y-63609566D01*
X146561801Y-63590434D01*
X146319541Y-63428561D01*
X146000000Y-63365000D01*
X143913078Y-63365000D01*
X144094408Y-62994001D01*
X143967502Y-62827000D01*
X142627000Y-62827000D01*
X142627000Y-62847000D01*
X142373000Y-62847000D01*
X142373000Y-62827000D01*
X141032498Y-62827000D01*
X140905592Y-62994001D01*
X141092987Y-63377408D01*
X141154816Y-63430077D01*
X141150757Y-63432789D01*
X140915559Y-63784788D01*
X140832968Y-64200000D01*
X140915559Y-64615212D01*
X141139257Y-64950000D01*
X140915559Y-65284788D01*
X140832968Y-65700000D01*
X140915559Y-66115212D01*
X141082462Y-66365000D01*
X140745868Y-66365000D01*
X140635000Y-66254132D01*
X140635000Y-64027234D01*
X140734838Y-63786799D01*
X140735162Y-63414833D01*
X140593117Y-63071057D01*
X140330327Y-62807808D01*
X140219203Y-62761665D01*
X140945868Y-62035000D01*
X141086922Y-62035000D01*
X140905592Y-62405999D01*
X141032498Y-62573000D01*
X142373000Y-62573000D01*
X142373000Y-62553000D01*
X142627000Y-62553000D01*
X142627000Y-62573000D01*
X143967502Y-62573000D01*
X144094408Y-62405999D01*
X143907013Y-62022592D01*
X143845184Y-61969923D01*
X143849243Y-61967211D01*
X144084441Y-61615212D01*
X144167032Y-61200000D01*
X144084441Y-60784788D01*
X143860743Y-60450000D01*
X144084441Y-60115212D01*
X144167032Y-59700000D01*
X144127984Y-59503690D01*
X147595000Y-59503690D01*
X147595000Y-61494250D01*
X147654574Y-61553824D01*
X147684454Y-61947349D01*
X147692932Y-61967818D01*
X147595000Y-62065750D01*
X147595000Y-64056310D01*
X147691673Y-64289699D01*
X147870302Y-64468327D01*
X148103691Y-64565000D01*
X150094250Y-64565000D01*
X150253000Y-64406250D01*
X150253000Y-63990718D01*
X150318197Y-63963712D01*
X150325000Y-63917550D01*
X150331803Y-63963712D01*
X150507000Y-64021171D01*
X150507000Y-64406250D01*
X150665750Y-64565000D01*
X152656309Y-64565000D01*
X152889698Y-64468327D01*
X153068327Y-64289699D01*
X153165000Y-64056310D01*
X153165000Y-62065750D01*
X153044899Y-61945649D01*
X153098226Y-61783052D01*
X153082557Y-61576693D01*
X153165000Y-61494250D01*
X153165000Y-59503690D01*
X153068327Y-59270301D01*
X152889698Y-59091673D01*
X152656309Y-58995000D01*
X150665750Y-58995000D01*
X150507000Y-59153750D01*
X150507000Y-59163719D01*
X150331803Y-59236288D01*
X150325000Y-59282450D01*
X150318197Y-59236288D01*
X150253000Y-59214906D01*
X150253000Y-59153750D01*
X150094250Y-58995000D01*
X148103691Y-58995000D01*
X147870302Y-59091673D01*
X147691673Y-59270301D01*
X147595000Y-59503690D01*
X144127984Y-59503690D01*
X144084441Y-59284788D01*
X143860743Y-58950000D01*
X144084441Y-58615212D01*
X144167032Y-58200000D01*
X144084441Y-57784788D01*
X143860743Y-57450000D01*
X144084441Y-57115212D01*
X144167032Y-56700000D01*
X144102783Y-56377000D01*
X158897217Y-56377000D01*
X158832968Y-56700000D01*
M02*
