G04 #@! TF.FileFunction,Paste,Top*
%FSLAX46Y46*%
G04 Gerber Fmt 4.6, Leading zero omitted, Abs format (unit mm)*
G04 Created by KiCad (PCBNEW 4.0.7) date Monday, 12 '12e' March '12e' 2018, 16:45:08*
%MOMM*%
%LPD*%
G01*
G04 APERTURE LIST*
%ADD10C,0.100000*%
%ADD11R,1.250000X1.500000*%
%ADD12R,1.500000X1.250000*%
%ADD13R,1.500000X1.300000*%
%ADD14R,1.700000X1.000000*%
%ADD15R,1.600000X1.000000*%
%ADD16R,1.000000X1.600000*%
G04 APERTURE END LIST*
D10*
G36*
X187470181Y-91409123D02*
X186753211Y-90385183D01*
X187981939Y-89524819D01*
X188698909Y-90548759D01*
X187470181Y-91409123D01*
X187470181Y-91409123D01*
G37*
G36*
X189518061Y-89975181D02*
X188801091Y-88951241D01*
X190029819Y-88090877D01*
X190746789Y-89114817D01*
X189518061Y-89975181D01*
X189518061Y-89975181D01*
G37*
G36*
X159220181Y-99409123D02*
X158503211Y-98385183D01*
X159731939Y-97524819D01*
X160448909Y-98548759D01*
X159220181Y-99409123D01*
X159220181Y-99409123D01*
G37*
G36*
X161268061Y-97975181D02*
X160551091Y-96951241D01*
X161779819Y-96090877D01*
X162496789Y-97114817D01*
X161268061Y-97975181D01*
X161268061Y-97975181D01*
G37*
D11*
X126250000Y-113250000D03*
X126250000Y-115750000D03*
D12*
X133750000Y-107250000D03*
X136250000Y-107250000D03*
X126000000Y-105750000D03*
X128500000Y-105750000D03*
X123500000Y-91750000D03*
X126000000Y-91750000D03*
X138750000Y-97250000D03*
X141250000Y-97250000D03*
D11*
X193400000Y-59650000D03*
X193400000Y-57150000D03*
D13*
X171000000Y-94500000D03*
X168300000Y-94500000D03*
X187000000Y-72500000D03*
X184300000Y-72500000D03*
D14*
X160750000Y-78800000D03*
X154450000Y-78800000D03*
X160750000Y-75000000D03*
X154450000Y-75000000D03*
X197000000Y-67200000D03*
X190700000Y-67200000D03*
X197000000Y-63400000D03*
X190700000Y-63400000D03*
D15*
X188250000Y-98100000D03*
X188250000Y-94900000D03*
X183250000Y-98100000D03*
X183250000Y-94900000D03*
X168250000Y-104600000D03*
X168250000Y-101400000D03*
X163250000Y-104600000D03*
X163250000Y-101400000D03*
X134000000Y-116100000D03*
X134000000Y-112900000D03*
X129000000Y-116100000D03*
X129000000Y-112900000D03*
D16*
X136700000Y-99750000D03*
X133500000Y-99750000D03*
X136700000Y-104750000D03*
X133500000Y-104750000D03*
X129100000Y-97750000D03*
X125900000Y-97750000D03*
X129100000Y-102750000D03*
X125900000Y-102750000D03*
X126350000Y-83750000D03*
X123150000Y-83750000D03*
X126350000Y-88750000D03*
X123150000Y-88750000D03*
X141600000Y-89750000D03*
X138400000Y-89750000D03*
X141600000Y-94750000D03*
X138400000Y-94750000D03*
D15*
X165500000Y-60400000D03*
X165500000Y-63600000D03*
X170500000Y-60400000D03*
X170500000Y-63600000D03*
X185700000Y-56800000D03*
X185700000Y-60000000D03*
X190700000Y-56800000D03*
X190700000Y-60000000D03*
D11*
X173800000Y-63250000D03*
X173800000Y-60750000D03*
X157400000Y-71650000D03*
X157400000Y-69150000D03*
D12*
X137350000Y-86800000D03*
X139850000Y-86800000D03*
X128900000Y-83000000D03*
X131400000Y-83000000D03*
D14*
X176350000Y-70500000D03*
X170050000Y-70500000D03*
X176350000Y-66700000D03*
X170050000Y-66700000D03*
D16*
X131800000Y-75500000D03*
X128600000Y-75500000D03*
X131800000Y-80500000D03*
X128600000Y-80500000D03*
X140200000Y-79500000D03*
X137000000Y-79500000D03*
X140200000Y-84500000D03*
X137000000Y-84500000D03*
D15*
X149500000Y-69000000D03*
X149500000Y-72200000D03*
X154500000Y-69000000D03*
X154500000Y-72200000D03*
M02*
