G04 #@! TF.FileFunction,Legend,Top*
%FSLAX46Y46*%
G04 Gerber Fmt 4.6, Leading zero omitted, Abs format (unit mm)*
G04 Created by KiCad (PCBNEW 4.0.7) date Monday, 12 '12e' March '12e' 2018, 16:45:08*
%MOMM*%
%LPD*%
G01*
G04 APERTURE LIST*
%ADD10C,0.100000*%
%ADD11C,0.120000*%
%ADD12C,0.127000*%
%ADD13C,0.150000*%
G04 APERTURE END LIST*
D10*
D11*
X188672036Y-88766933D02*
X187852884Y-89340509D01*
X188827964Y-90733067D02*
X189647116Y-90159491D01*
X160422036Y-96766933D02*
X159602884Y-97340509D01*
X160577964Y-98733067D02*
X161397116Y-98159491D01*
X127100000Y-115000000D02*
X127100000Y-114000000D01*
X125400000Y-114000000D02*
X125400000Y-115000000D01*
X135500000Y-106400000D02*
X134500000Y-106400000D01*
X134500000Y-108100000D02*
X135500000Y-108100000D01*
X127750000Y-104900000D02*
X126750000Y-104900000D01*
X126750000Y-106600000D02*
X127750000Y-106600000D01*
X125250000Y-90900000D02*
X124250000Y-90900000D01*
X124250000Y-92600000D02*
X125250000Y-92600000D01*
X140500000Y-96400000D02*
X139500000Y-96400000D01*
X139500000Y-98100000D02*
X140500000Y-98100000D01*
X192550000Y-57900000D02*
X192550000Y-58900000D01*
X194250000Y-58900000D02*
X194250000Y-57900000D01*
X177902335Y-84171392D02*
G75*
G03X174670000Y-84014484I-1672335J-1078608D01*
G01*
X177902335Y-86328608D02*
G75*
G02X174670000Y-86485516I-1672335J1078608D01*
G01*
X177271130Y-84170163D02*
G75*
G03X175189039Y-84170000I-1041130J-1079837D01*
G01*
X177271130Y-86329837D02*
G75*
G02X175189039Y-86330000I-1041130J1079837D01*
G01*
X174670000Y-84014000D02*
X174670000Y-84170000D01*
X174670000Y-86330000D02*
X174670000Y-86486000D01*
X157730000Y-116330000D02*
X155070000Y-116330000D01*
X157730000Y-124010000D02*
X157730000Y-116330000D01*
X155070000Y-124010000D02*
X155070000Y-116330000D01*
X157730000Y-124010000D02*
X155070000Y-124010000D01*
X157730000Y-125280000D02*
X157730000Y-126610000D01*
X157730000Y-126610000D02*
X156400000Y-126610000D01*
X118731251Y-111830500D02*
X116693573Y-113540316D01*
X120402499Y-113822216D02*
X118731251Y-111830500D01*
X118364821Y-115532031D02*
X116693573Y-113540316D01*
X120402499Y-113822216D02*
X118364821Y-115532031D01*
X121218839Y-114795092D02*
X122073747Y-115813932D01*
X122073747Y-115813932D02*
X121054908Y-116668839D01*
X185010000Y-85250462D02*
G75*
G03X179460000Y-83705170I-2990000J462D01*
G01*
X185010000Y-85249538D02*
G75*
G02X179460000Y-86794830I-2990000J-462D01*
G01*
X184520000Y-85250000D02*
G75*
G03X184520000Y-85250000I-2500000J0D01*
G01*
X179460000Y-83705000D02*
X179460000Y-86795000D01*
X169050000Y-93620000D02*
X170250000Y-93620000D01*
X170250000Y-95380000D02*
X169050000Y-95380000D01*
X185050000Y-71620000D02*
X186250000Y-71620000D01*
X186250000Y-73380000D02*
X185050000Y-73380000D01*
D12*
X158600000Y-76900000D02*
G75*
G03X158600000Y-76900000I-1000000J0D01*
G01*
X158700000Y-79500000D02*
X156500000Y-79500000D01*
X158700000Y-74300000D02*
X156500000Y-74300000D01*
X158700000Y-79500000D02*
X158700000Y-79400000D01*
X156500000Y-79400000D02*
X156500000Y-79500000D01*
X158700000Y-74400000D02*
X158700000Y-74300000D01*
X156500000Y-74400000D02*
X156500000Y-74300000D01*
D10*
X161977000Y-74150000D02*
G75*
G03X161977000Y-74150000I-127000J0D01*
G01*
D12*
X194850000Y-65300000D02*
G75*
G03X194850000Y-65300000I-1000000J0D01*
G01*
X194950000Y-67900000D02*
X192750000Y-67900000D01*
X194950000Y-62700000D02*
X192750000Y-62700000D01*
X194950000Y-67900000D02*
X194950000Y-67800000D01*
X192750000Y-67800000D02*
X192750000Y-67900000D01*
X194950000Y-62800000D02*
X194950000Y-62700000D01*
X192750000Y-62800000D02*
X192750000Y-62700000D01*
D10*
X198227000Y-62550000D02*
G75*
G03X198227000Y-62550000I-127000J0D01*
G01*
D11*
X182250000Y-93900000D02*
X189250000Y-93900000D01*
X182250000Y-99100000D02*
X189250000Y-99100000D01*
X189250000Y-99100000D02*
X189250000Y-98100000D01*
X162250000Y-100400000D02*
X169250000Y-100400000D01*
X162250000Y-105600000D02*
X169250000Y-105600000D01*
X169250000Y-105600000D02*
X169250000Y-104600000D01*
X128000000Y-111900000D02*
X135000000Y-111900000D01*
X128000000Y-117100000D02*
X135000000Y-117100000D01*
X135000000Y-117100000D02*
X135000000Y-116100000D01*
X132500000Y-105750000D02*
X132500000Y-98750000D01*
X137700000Y-105750000D02*
X137700000Y-98750000D01*
X137700000Y-98750000D02*
X136700000Y-98750000D01*
X124900000Y-103750000D02*
X124900000Y-96750000D01*
X130100000Y-103750000D02*
X130100000Y-96750000D01*
X130100000Y-96750000D02*
X129100000Y-96750000D01*
X122150000Y-89750000D02*
X122150000Y-82750000D01*
X127350000Y-89750000D02*
X127350000Y-82750000D01*
X127350000Y-82750000D02*
X126350000Y-82750000D01*
X137400000Y-95750000D02*
X137400000Y-88750000D01*
X142600000Y-95750000D02*
X142600000Y-88750000D01*
X142600000Y-88750000D02*
X141600000Y-88750000D01*
X171500000Y-64600000D02*
X164500000Y-64600000D01*
X171500000Y-59400000D02*
X164500000Y-59400000D01*
X164500000Y-59400000D02*
X164500000Y-60400000D01*
X191700000Y-61000000D02*
X184700000Y-61000000D01*
X191700000Y-55800000D02*
X184700000Y-55800000D01*
X184700000Y-55800000D02*
X184700000Y-56800000D01*
X172950000Y-61500000D02*
X172950000Y-62500000D01*
X174650000Y-62500000D02*
X174650000Y-61500000D01*
X156550000Y-69900000D02*
X156550000Y-70900000D01*
X158250000Y-70900000D02*
X158250000Y-69900000D01*
X139100000Y-85950000D02*
X138100000Y-85950000D01*
X138100000Y-87650000D02*
X139100000Y-87650000D01*
X130650000Y-82150000D02*
X129650000Y-82150000D01*
X129650000Y-83850000D02*
X130650000Y-83850000D01*
D12*
X174200000Y-68600000D02*
G75*
G03X174200000Y-68600000I-1000000J0D01*
G01*
X174300000Y-71200000D02*
X172100000Y-71200000D01*
X174300000Y-66000000D02*
X172100000Y-66000000D01*
X174300000Y-71200000D02*
X174300000Y-71100000D01*
X172100000Y-71100000D02*
X172100000Y-71200000D01*
X174300000Y-66100000D02*
X174300000Y-66000000D01*
X172100000Y-66100000D02*
X172100000Y-66000000D01*
D10*
X177577000Y-65850000D02*
G75*
G03X177577000Y-65850000I-127000J0D01*
G01*
D11*
X127600000Y-81500000D02*
X127600000Y-74500000D01*
X132800000Y-81500000D02*
X132800000Y-74500000D01*
X132800000Y-74500000D02*
X131800000Y-74500000D01*
X136000000Y-85500000D02*
X136000000Y-78500000D01*
X141200000Y-85500000D02*
X141200000Y-78500000D01*
X141200000Y-78500000D02*
X140200000Y-78500000D01*
X155500000Y-73200000D02*
X148500000Y-73200000D01*
X155500000Y-68000000D02*
X148500000Y-68000000D01*
X148500000Y-68000000D02*
X148500000Y-69000000D01*
D10*
G36*
X139822229Y-75111702D02*
X137990777Y-73113398D01*
X136580991Y-71883029D01*
X134974943Y-71249515D01*
X132589142Y-70953760D01*
X132457578Y-70947360D01*
X133216971Y-69973994D01*
X134017657Y-69011424D01*
X134723549Y-69392444D01*
X136822461Y-70544661D01*
X140391335Y-72510613D01*
X141322779Y-73032927D01*
X140162624Y-75482071D01*
X139822229Y-75111061D01*
X139822229Y-75111702D01*
X139822229Y-75111702D01*
G37*
G36*
X138306970Y-67316309D02*
X137307557Y-66700106D01*
X137134960Y-65907949D01*
X136691609Y-63824338D01*
X136044652Y-60765920D01*
X135261233Y-57049345D01*
X134476021Y-53335285D01*
X133824184Y-50283738D01*
X133373612Y-48210317D01*
X133192196Y-47430635D01*
X132510480Y-47284970D01*
X130697718Y-46937820D01*
X128029843Y-46441152D01*
X124782785Y-45846934D01*
X116432061Y-44330124D01*
X115943306Y-43356257D01*
X115484612Y-42313377D01*
X116332878Y-42407093D01*
X118552704Y-42694103D01*
X121687589Y-43112161D01*
X125281030Y-43599019D01*
X128876528Y-44092430D01*
X132017580Y-44530148D01*
X134247687Y-44849925D01*
X135110347Y-44989516D01*
X135227550Y-45572757D01*
X135534727Y-47174691D01*
X135996127Y-49606852D01*
X136575995Y-52680774D01*
X137238578Y-56207989D01*
X137902246Y-59744904D01*
X138485129Y-62845779D01*
X138951119Y-65318967D01*
X139264105Y-66972820D01*
X139387978Y-67615691D01*
X139355370Y-67835957D01*
X138306971Y-67316309D01*
X138306970Y-67316309D01*
X138306970Y-67316309D01*
G37*
G36*
X137897214Y-70167680D02*
X135972465Y-68927819D01*
X136867310Y-67791329D01*
X138767967Y-68738037D01*
X140613668Y-69688001D01*
X140260926Y-70470314D01*
X139865074Y-71299968D01*
X137897214Y-70167680D01*
X137897214Y-70167680D01*
G37*
G36*
X171056223Y-139055860D02*
X168736339Y-138697219D01*
X166371013Y-138127599D01*
X163978650Y-137355201D01*
X161577649Y-136388224D01*
X159186414Y-135234868D01*
X156823347Y-133903331D01*
X154506851Y-132401813D01*
X152255327Y-130738514D01*
X150087178Y-128921633D01*
X148020806Y-126959370D01*
X146231548Y-125027478D01*
X147261917Y-122992513D01*
X148291303Y-120529770D01*
X147917064Y-118902708D01*
X147539012Y-117615850D01*
X147937019Y-117578624D01*
X148671084Y-116646277D01*
X149190546Y-114849289D01*
X149589978Y-113787929D01*
X151026023Y-113249633D01*
X152459700Y-114146402D01*
X153186801Y-115591466D01*
X153164550Y-117609161D01*
X152795868Y-120331046D01*
X151946971Y-123202889D01*
X151518965Y-125677449D01*
X153185490Y-126966818D01*
X155322704Y-128555325D01*
X157423444Y-130071427D01*
X158980547Y-131143584D01*
X160983282Y-132342102D01*
X163196017Y-133505745D01*
X165255280Y-134454762D01*
X166797593Y-135009408D01*
X169314568Y-135502220D01*
X171707040Y-135654968D01*
X173991844Y-135463511D01*
X176185815Y-134923706D01*
X178305787Y-134031413D01*
X180368597Y-132782488D01*
X182391079Y-131172790D01*
X183854161Y-129962561D01*
X186556732Y-129573697D01*
X187876160Y-129809376D01*
X187563010Y-130802879D01*
X186991677Y-132004836D01*
X186308266Y-133532577D01*
X184944764Y-136086199D01*
X183347186Y-137691921D01*
X181160951Y-138706125D01*
X179453967Y-139124281D01*
X176327173Y-139317663D01*
X173303889Y-139236715D01*
X171056358Y-139055809D01*
X171056223Y-139055860D01*
X171056223Y-139055860D01*
G37*
G36*
X131638267Y-105070421D02*
X134131871Y-100602550D01*
X135561929Y-99584056D01*
X136775142Y-98041999D01*
X137736565Y-96067973D01*
X138411255Y-93753573D01*
X138764270Y-91190392D01*
X138760666Y-88470026D01*
X138309323Y-85451714D01*
X137451255Y-82874335D01*
X136257512Y-80830611D01*
X134799144Y-79413263D01*
X133147200Y-78715015D01*
X131372730Y-78828587D01*
X129743622Y-79739188D01*
X128345442Y-81372142D01*
X127225024Y-83654633D01*
X126429202Y-86513846D01*
X126260017Y-88519416D01*
X126260134Y-91143041D01*
X126429202Y-93145653D01*
X127118208Y-95721179D01*
X128065383Y-97817338D01*
X129269076Y-99430453D01*
X130835946Y-100612915D01*
X132462288Y-101004985D01*
X134131039Y-100602550D01*
X134131871Y-100602550D01*
X131638267Y-105070421D01*
X129581812Y-104351132D01*
X127686867Y-102892565D01*
X126026287Y-100768142D01*
X124672928Y-98051285D01*
X123992247Y-95874842D01*
X123482430Y-93492095D01*
X123308324Y-91660370D01*
X123249199Y-89492231D01*
X123321628Y-87595617D01*
X123765312Y-84694544D01*
X124514582Y-82060258D01*
X125532032Y-79741391D01*
X126780253Y-77786576D01*
X128221839Y-76244444D01*
X129819382Y-75163628D01*
X131535474Y-74592759D01*
X133332708Y-74580471D01*
X135348008Y-75253054D01*
X137238446Y-76714613D01*
X138692796Y-78466954D01*
X139882997Y-80587808D01*
X140807313Y-83073399D01*
X141464013Y-85919949D01*
X141647173Y-87441217D01*
X141686156Y-89829751D01*
X141647724Y-92205745D01*
X141470445Y-93690059D01*
X140927413Y-96165297D01*
X140205901Y-98324015D01*
X139277936Y-100235250D01*
X138115544Y-101968042D01*
X136155725Y-103866500D01*
X133935581Y-104929866D01*
X131638267Y-105070421D01*
X131638267Y-105070421D01*
G37*
G36*
X147248060Y-116050006D02*
X147528172Y-114639425D01*
X147729571Y-114068619D01*
X147353206Y-114214752D01*
X146198793Y-114473556D01*
X144169058Y-115304768D01*
X142430634Y-116162135D01*
X141464956Y-116162100D01*
X140438257Y-115029777D01*
X139725987Y-112812769D01*
X139438857Y-109855712D01*
X139826608Y-107406026D01*
X141302446Y-105330030D01*
X143789971Y-103157115D01*
X145621078Y-102156705D01*
X147412546Y-103213794D01*
X148087619Y-104434127D01*
X149012505Y-106607125D01*
X150126422Y-109275595D01*
X150126422Y-110968139D01*
X150126422Y-112660673D01*
X149805342Y-112580139D01*
X149227899Y-112782829D01*
X148446121Y-115312024D01*
X147509745Y-117003478D01*
X147482620Y-117273271D01*
X147248064Y-116050049D01*
X147248060Y-116050006D01*
X147248060Y-116050006D01*
G37*
G36*
X188003179Y-129342410D02*
X187486103Y-128983594D01*
X187105024Y-128795263D01*
X186409592Y-128797396D01*
X185157371Y-128950880D01*
X184600607Y-129101864D01*
X184600607Y-127628586D01*
X184600607Y-126155317D01*
X184835686Y-126069877D01*
X186839755Y-124952232D01*
X187270037Y-124181556D01*
X187659735Y-123478325D01*
X188563060Y-123170890D01*
X190617815Y-122662719D01*
X191895979Y-122337641D01*
X192454819Y-122205971D01*
X191301076Y-124296820D01*
X190078201Y-126353023D01*
X188780354Y-128509570D01*
X188163960Y-129509589D01*
X188003179Y-129342035D01*
X188003179Y-129342410D01*
X188003179Y-129342410D01*
G37*
G36*
X196198846Y-79481961D02*
X196091795Y-78939541D01*
X195726467Y-77366582D01*
X195039594Y-74985046D01*
X194347746Y-72657847D01*
X194209000Y-72150410D01*
X194831015Y-72150410D01*
X197128505Y-72959200D01*
X197730766Y-75090027D01*
X197537122Y-76803341D01*
X196591555Y-79123629D01*
X196198846Y-79481961D01*
X196198846Y-79481961D01*
G37*
G36*
X168108306Y-134648546D02*
X167770108Y-132405744D01*
X167511994Y-129366800D01*
X167380148Y-127873803D01*
X168058800Y-127101514D01*
X169012818Y-127177161D01*
X171067797Y-127308128D01*
X173089733Y-127155939D01*
X174833052Y-126792871D01*
X176584523Y-126159169D01*
X178941746Y-125170666D01*
X180568085Y-125696379D01*
X182189080Y-125907181D01*
X183928752Y-126123701D01*
X183798831Y-127674933D01*
X183547591Y-129570015D01*
X183081483Y-129826592D01*
X182005880Y-130567901D01*
X180427213Y-131811082D01*
X178518542Y-133168743D01*
X175982473Y-134323958D01*
X173050723Y-134932449D01*
X170231515Y-135015348D01*
X168108306Y-134648546D01*
X168108306Y-134648546D01*
G37*
G36*
X169768305Y-126236789D02*
X179966022Y-118312738D01*
X179095911Y-117308226D01*
X178136511Y-116029652D01*
X177522496Y-114800001D01*
X177339688Y-114288246D01*
X177333395Y-115006061D01*
X177869692Y-116865928D01*
X179301663Y-118188843D01*
X179965880Y-118312738D01*
X179966022Y-118312738D01*
X169768305Y-126236789D01*
X183348742Y-116875800D01*
X183348742Y-116875798D01*
X183719460Y-116048118D01*
X184396342Y-115227978D01*
X184174499Y-115109064D01*
X182191642Y-115069206D01*
X179566974Y-115168406D01*
X181454229Y-116929347D01*
X183348742Y-116875800D01*
X169768305Y-126236789D01*
X168272414Y-125757668D01*
X167006254Y-125052235D01*
X166691203Y-124388144D01*
X166365681Y-122153462D01*
X166037508Y-119520011D01*
X164123397Y-117602228D01*
X162411240Y-115718809D01*
X162423426Y-114726200D01*
X164169072Y-113882262D01*
X165736387Y-113386935D01*
X166420844Y-114078304D01*
X166642840Y-114413099D01*
X168664476Y-113268960D01*
X170945585Y-111918340D01*
X170980513Y-111408033D01*
X170748733Y-110932545D01*
X171903585Y-110334560D01*
X173670340Y-109519730D01*
X175310703Y-108487816D01*
X176998411Y-107129526D01*
X179686839Y-104965011D01*
X181883165Y-103621258D01*
X183486993Y-103159691D01*
X184245832Y-103334678D01*
X185069797Y-105952842D01*
X185934488Y-108015471D01*
X187157432Y-110279957D01*
X188478544Y-112764520D01*
X188780650Y-114152433D01*
X188216230Y-115144203D01*
X186559538Y-116396068D01*
X184186491Y-117679221D01*
X183276616Y-118089429D01*
X183746626Y-118334964D01*
X186137714Y-117645556D01*
X187973069Y-116313312D01*
X189101334Y-114998840D01*
X189593197Y-113619810D01*
X189362184Y-112117246D01*
X188079764Y-109991915D01*
X187145150Y-108586160D01*
X186483461Y-107429142D01*
X185728526Y-105297405D01*
X185382398Y-103738260D01*
X186461562Y-104355496D01*
X188561559Y-105695786D01*
X188464354Y-106223071D01*
X188236376Y-106663945D01*
X190121578Y-107590164D01*
X192006780Y-108516395D01*
X192344877Y-108123339D01*
X192682948Y-107730294D01*
X193545218Y-107972226D01*
X194546307Y-108128365D01*
X194687677Y-108155789D01*
X194893101Y-109598870D01*
X195184973Y-112439153D01*
X195092292Y-114925980D01*
X194583219Y-117317511D01*
X193625913Y-119871906D01*
X193001836Y-121296931D01*
X190378937Y-121729581D01*
X187711623Y-122046455D01*
X186685526Y-120834155D01*
X184500331Y-121485003D01*
X184099079Y-121886282D01*
X183127913Y-121555446D01*
X180896946Y-121372759D01*
X179797353Y-122098882D01*
X178797227Y-123495094D01*
X178377254Y-124301142D01*
X176977453Y-124847885D01*
X174407877Y-125719539D01*
X172148054Y-126251169D01*
X169768360Y-126236779D01*
X169768305Y-126236789D01*
X169768305Y-126236789D01*
G37*
G36*
X180326726Y-92146261D02*
X182932082Y-89545972D01*
X184444051Y-88014405D01*
X185065528Y-85628132D01*
X184605824Y-83119296D01*
X183337023Y-81485872D01*
X181769673Y-80993041D01*
X180231890Y-81625993D01*
X179051786Y-83369921D01*
X178737538Y-85399663D01*
X179051786Y-87429408D01*
X179783034Y-88703607D01*
X180788409Y-89512831D01*
X182932082Y-89545897D01*
X182932082Y-89545972D01*
X180326726Y-92146261D01*
X178542083Y-91250437D01*
X177161781Y-89762369D01*
X176274503Y-87816356D01*
X175968930Y-85546698D01*
X176343461Y-83155376D01*
X177368390Y-81179268D01*
X178943072Y-79750158D01*
X180966861Y-78999830D01*
X183075524Y-79167305D01*
X184926431Y-80247684D01*
X186346397Y-82024291D01*
X187162239Y-84280447D01*
X187200774Y-86799476D01*
X186540174Y-88843144D01*
X185340155Y-90584607D01*
X183770822Y-91777002D01*
X182043223Y-92257327D01*
X180326726Y-92146261D01*
X180326726Y-92146261D01*
G37*
G36*
X191610653Y-106142197D02*
X188810067Y-104723174D01*
X186324222Y-103391870D01*
X185190410Y-102703818D01*
X184958323Y-101533852D01*
X184639877Y-99530614D01*
X184558586Y-98954529D01*
X185186279Y-98868555D01*
X187138813Y-97990572D01*
X188021362Y-96282452D01*
X187710474Y-95168896D01*
X186693921Y-94624822D01*
X188436443Y-94383327D01*
X189840182Y-94208042D01*
X190295130Y-94126336D01*
X190295130Y-95195511D01*
X189923906Y-97364429D01*
X189934359Y-98916885D01*
X191184641Y-97121016D01*
X191519022Y-95044168D01*
X191015740Y-93344642D01*
X190773433Y-93023394D01*
X188541713Y-93440823D01*
X186271934Y-93820173D01*
X187040872Y-92724285D01*
X188503707Y-91000214D01*
X190379157Y-89434237D01*
X192997344Y-87790283D01*
X194008491Y-87325230D01*
X193634013Y-89616034D01*
X193269391Y-91928211D01*
X193133644Y-94507446D01*
X193127435Y-96618992D01*
X193250743Y-98662367D01*
X193543964Y-101069217D01*
X194047491Y-104271190D01*
X194456157Y-106641032D01*
X194553317Y-107540449D01*
X193603557Y-107110299D01*
X191610951Y-106142231D01*
X191610653Y-106142197D01*
X191610653Y-106142197D01*
G37*
G36*
X166413603Y-134121141D02*
X164819623Y-133377883D01*
X162787319Y-132249807D01*
X160506705Y-130853269D01*
X158167794Y-129304627D01*
X155960600Y-127720235D01*
X153357868Y-125757043D01*
X152547365Y-124972683D01*
X152807682Y-123718042D01*
X153357750Y-121036609D01*
X153938973Y-118047616D01*
X154179973Y-116334944D01*
X154152848Y-115268833D01*
X156840347Y-114600450D01*
X159428867Y-113944459D01*
X161789443Y-116474549D01*
X163580699Y-118399051D01*
X164572473Y-119473152D01*
X164994961Y-119941674D01*
X166084158Y-127002368D01*
X166629122Y-130581738D01*
X167010761Y-133178302D01*
X167146448Y-134229921D01*
X166413492Y-134121141D01*
X166413603Y-134121141D01*
X166413603Y-134121141D01*
G37*
G36*
X131669750Y-99869290D02*
X130155483Y-99039662D01*
X128846144Y-97487849D01*
X127817606Y-95334119D01*
X127145744Y-92698742D01*
X126918453Y-89920246D01*
X127117954Y-87183742D01*
X127706538Y-84651463D01*
X128646496Y-82485643D01*
X129900119Y-80848513D01*
X131637974Y-79796639D01*
X133414692Y-79815828D01*
X135124481Y-80904939D01*
X136621009Y-83025631D01*
X137299165Y-84690973D01*
X137764477Y-86544216D01*
X138021698Y-88604244D01*
X138005346Y-90021686D01*
X137867936Y-89543413D01*
X137262974Y-86894267D01*
X136176145Y-84789305D01*
X134757672Y-83519467D01*
X133684879Y-83284929D01*
X132633536Y-83501718D01*
X131211826Y-84722459D01*
X130156396Y-86712400D01*
X129527967Y-89228432D01*
X129387259Y-92027444D01*
X129794992Y-94866326D01*
X130654214Y-97122890D01*
X131962772Y-98805220D01*
X133571858Y-99480534D01*
X134068344Y-99526934D01*
X133823398Y-99658261D01*
X131669775Y-99869229D01*
X131669750Y-99869290D01*
X131669750Y-99869290D01*
G37*
G36*
X156007280Y-117741653D02*
X155727325Y-118914006D01*
X156686392Y-119635803D01*
X158971572Y-121352444D01*
X161694831Y-123390802D01*
X163968137Y-125077749D01*
X164903456Y-125740159D01*
X164482772Y-123389321D01*
X163106282Y-122465113D01*
X160198631Y-120528367D01*
X157314177Y-118610181D01*
X156007280Y-117741653D01*
X156007280Y-117741653D01*
G37*
G36*
X155549646Y-119801216D02*
X155128962Y-121310709D01*
X156166096Y-122139782D01*
X158639262Y-124005794D01*
X161591104Y-126199636D01*
X164064270Y-128012197D01*
X165101404Y-128734369D01*
X164977683Y-126927945D01*
X155549646Y-119801216D01*
X155549646Y-119801216D01*
G37*
G36*
X154733020Y-122696457D02*
X154312366Y-124255423D01*
X164284807Y-131703829D01*
X164062088Y-129798421D01*
X154733020Y-122696457D01*
X154733020Y-122696457D01*
G37*
G36*
X182448041Y-132050271D02*
X184972101Y-130961472D01*
X185463918Y-132189471D01*
X185046373Y-134920758D01*
X183181188Y-136785957D01*
X182225400Y-137147860D01*
X182448041Y-132050271D01*
X182448041Y-132050271D01*
G37*
G36*
X182448041Y-132050271D02*
X184972101Y-130961472D01*
X185463918Y-132189471D01*
X185046373Y-134920758D01*
X183181188Y-136785957D01*
X182225400Y-137147860D01*
X182448041Y-132050271D01*
X182448041Y-132050271D01*
G37*
G36*
X182448041Y-132050271D02*
X184972101Y-130961472D01*
X185463918Y-132189471D01*
X185046373Y-134920758D01*
X183181188Y-136785957D01*
X182225400Y-137147860D01*
X182448041Y-132050271D01*
X182448041Y-132050271D01*
G37*
G36*
X182448041Y-132050271D02*
X184972101Y-130961472D01*
X185463918Y-132189471D01*
X185046373Y-134920758D01*
X183181188Y-136785957D01*
X182225400Y-137147860D01*
X182448041Y-132050271D01*
X182448041Y-132050271D01*
G37*
G36*
X192398869Y-70141255D02*
X182128629Y-77542423D01*
X184134506Y-77932685D01*
X185798297Y-79051857D01*
X187097887Y-80653265D01*
X187971331Y-82598860D01*
X188356684Y-84750591D01*
X188192000Y-86970410D01*
X187400774Y-89378889D01*
X186142539Y-91198058D01*
X184391925Y-92464376D01*
X182333835Y-93054157D01*
X180314219Y-92843638D01*
X178475988Y-91905745D01*
X176962054Y-90313403D01*
X175915328Y-88139539D01*
X175481919Y-85693250D01*
X175671359Y-83313994D01*
X176431275Y-81150923D01*
X177709291Y-79353187D01*
X179453034Y-78069938D01*
X182128629Y-77542423D01*
X192398869Y-70141255D01*
X190460810Y-71511027D01*
X188683929Y-72737937D01*
X187068064Y-73684466D01*
X185566560Y-74431363D01*
X182046506Y-74467747D01*
X159500054Y-97707074D01*
X161455357Y-96122764D01*
X163395613Y-95012372D01*
X165233877Y-94436062D01*
X167207787Y-94347848D01*
X167207787Y-94347875D01*
X169468874Y-94436088D01*
X171969193Y-94802706D01*
X174374078Y-95274822D01*
X175306240Y-95582062D01*
X174172394Y-95581459D01*
X171357333Y-95441448D01*
X168864822Y-95381894D01*
X166474996Y-95417561D01*
X165040405Y-95535742D01*
X163326977Y-96370576D01*
X161271760Y-98470963D01*
X160036525Y-99840545D01*
X159280763Y-100464713D01*
X157369147Y-100748029D01*
X157616645Y-99705139D01*
X159500054Y-97707074D01*
X182046506Y-74467747D01*
X178525888Y-74503576D01*
X177815370Y-75849642D01*
X176393237Y-77728736D01*
X174632822Y-79289589D01*
X173954112Y-80424729D01*
X173294655Y-81926952D01*
X171572412Y-83833118D01*
X169171570Y-85783820D01*
X166476320Y-87419651D01*
X163911112Y-88476036D01*
X160563279Y-89618700D01*
X157656911Y-90459447D01*
X156416101Y-90610080D01*
X157516325Y-89766720D01*
X159357132Y-88190467D01*
X160245947Y-86939542D01*
X159492685Y-86246843D01*
X157590942Y-85704035D01*
X155077775Y-85380301D01*
X157708699Y-103954431D01*
X158161797Y-103113279D01*
X158665605Y-103001375D01*
X159561883Y-103884424D01*
X158351419Y-104774077D01*
X157708699Y-103954431D01*
X155077775Y-85380301D01*
X152490246Y-85344824D01*
X150365413Y-85666787D01*
X148462469Y-86816454D01*
X147517829Y-89368746D01*
X161016581Y-105494697D01*
X161457563Y-105356895D01*
X161457509Y-105356724D01*
X161879195Y-105451551D01*
X162412219Y-106275613D01*
X161976763Y-107063848D01*
X161441531Y-107164755D01*
X161384251Y-107159422D01*
X160980208Y-107065662D01*
X160488528Y-106287349D01*
X161016581Y-105494697D01*
X147517829Y-89368746D01*
X147217764Y-92104736D01*
X163817440Y-106771994D01*
X164497653Y-106495834D01*
X164497515Y-106496254D01*
X164722965Y-106517171D01*
X165398197Y-107170909D01*
X164149696Y-108272243D01*
X163894485Y-108094749D01*
X163796352Y-108011549D01*
X163794219Y-108009415D01*
X163771072Y-107983495D01*
X163768939Y-107981362D01*
X163588693Y-107391558D01*
X163817440Y-106771994D01*
X147217764Y-92104736D01*
X147742171Y-94075573D01*
X167849045Y-108739248D01*
X167330901Y-107928410D01*
X168200160Y-107016145D01*
X168200160Y-107016177D01*
X168996672Y-107334779D01*
X168868234Y-108665968D01*
X167849045Y-108739248D01*
X147742171Y-94075573D01*
X148892093Y-95406378D01*
X150620624Y-96445248D01*
X162820661Y-104420755D01*
X161284167Y-103244999D01*
X160474149Y-102230771D01*
X161809733Y-101638770D01*
X166508882Y-100177499D01*
X169575550Y-99273355D01*
X171415479Y-98813566D01*
X172434410Y-98685363D01*
X173709920Y-99379891D01*
X174848909Y-100931288D01*
X175358058Y-102064861D01*
X173992693Y-100917235D01*
X172529770Y-99683614D01*
X170519317Y-100174573D01*
X167828448Y-100934322D01*
X167017067Y-101192287D01*
X167508203Y-101584200D01*
X167999328Y-103022324D01*
X167999328Y-104067975D01*
X169081920Y-103863475D01*
X170056469Y-104144596D01*
X168310243Y-104902321D01*
X166235087Y-105220522D01*
X164307840Y-105025993D01*
X162820661Y-104420755D01*
X150620624Y-96445248D01*
X151029627Y-97720757D01*
X150135509Y-98655020D01*
X148007312Y-100073898D01*
X146142555Y-101356577D01*
X147416955Y-102438612D01*
X148699088Y-103407093D01*
X150480059Y-107364267D01*
X151467818Y-109558136D01*
X152345302Y-111505206D01*
X152922501Y-112783818D01*
X153607653Y-114230208D01*
X154611672Y-114057739D01*
X156713211Y-113650324D01*
X159529915Y-113073205D01*
X160240987Y-113629931D01*
X161103632Y-114180043D01*
X162527740Y-113712574D01*
X165689184Y-112487264D01*
X168707886Y-111317427D01*
X171044260Y-110259903D01*
X173014835Y-109133832D01*
X174936144Y-107758353D01*
X177124714Y-105952608D01*
X179348994Y-104183224D01*
X181093918Y-103213010D01*
X182923488Y-102728553D01*
X184449258Y-102491531D01*
X184121824Y-99141792D01*
X184335701Y-95792064D01*
X184987232Y-94485674D01*
X186011652Y-92817277D01*
X187411988Y-91123136D01*
X189125779Y-89463712D01*
X191090564Y-87899464D01*
X193243882Y-86490852D01*
X194688348Y-85527954D01*
X195058485Y-84611761D01*
X195167005Y-83260575D01*
X195199061Y-81285727D01*
X195135464Y-79492906D01*
X194874605Y-77963657D01*
X194249301Y-75719003D01*
X193456002Y-73128865D01*
X192777419Y-71083483D01*
X192398869Y-70141258D01*
X192398869Y-70141255D01*
X192398869Y-70141255D01*
G37*
D13*
X187814565Y-88704634D02*
X187802871Y-88770954D01*
X187713162Y-88891901D01*
X187635148Y-88946527D01*
X187490813Y-88989460D01*
X187358172Y-88966072D01*
X187264538Y-88915371D01*
X187116279Y-88786655D01*
X187034339Y-88669633D01*
X186964093Y-88486291D01*
X186948474Y-88380963D01*
X186971862Y-88248322D01*
X187061572Y-88127375D01*
X187139586Y-88072749D01*
X187283921Y-88029817D01*
X187350241Y-88041511D01*
X187568665Y-87772305D02*
X188114767Y-87389920D01*
X188337278Y-88454891D01*
X159564565Y-96704634D02*
X159552871Y-96770954D01*
X159463162Y-96891901D01*
X159385148Y-96946527D01*
X159240813Y-96989460D01*
X159108172Y-96966072D01*
X159014538Y-96915371D01*
X158866279Y-96786655D01*
X158784339Y-96669633D01*
X158714093Y-96486291D01*
X158698474Y-96380963D01*
X158721862Y-96248322D01*
X158811572Y-96127375D01*
X158889586Y-96072749D01*
X159033921Y-96029817D01*
X159100241Y-96041511D01*
X159759519Y-95986804D02*
X159654192Y-96002423D01*
X159587872Y-95990729D01*
X159494238Y-95940027D01*
X159466925Y-95901020D01*
X159451306Y-95795693D01*
X159463000Y-95729372D01*
X159513701Y-95635739D01*
X159669731Y-95526486D01*
X159775058Y-95510867D01*
X159841379Y-95522561D01*
X159935012Y-95573262D01*
X159962325Y-95612269D01*
X159977944Y-95717597D01*
X159966250Y-95783917D01*
X159915549Y-95877551D01*
X159759519Y-95986804D01*
X159708818Y-96080437D01*
X159697124Y-96146757D01*
X159712744Y-96252086D01*
X159821996Y-96408115D01*
X159915630Y-96458816D01*
X159981950Y-96470510D01*
X160087278Y-96454891D01*
X160243307Y-96345638D01*
X160294009Y-96252004D01*
X160305703Y-96185684D01*
X160290084Y-96080356D01*
X160180831Y-95924328D01*
X160087197Y-95873626D01*
X160020877Y-95861931D01*
X159915549Y-95877551D01*
X126033334Y-111157143D02*
X125985715Y-111204762D01*
X125842858Y-111252381D01*
X125747620Y-111252381D01*
X125604762Y-111204762D01*
X125509524Y-111109524D01*
X125461905Y-111014286D01*
X125414286Y-110823810D01*
X125414286Y-110680952D01*
X125461905Y-110490476D01*
X125509524Y-110395238D01*
X125604762Y-110300000D01*
X125747620Y-110252381D01*
X125842858Y-110252381D01*
X125985715Y-110300000D01*
X126033334Y-110347619D01*
X126509524Y-111252381D02*
X126700000Y-111252381D01*
X126795239Y-111204762D01*
X126842858Y-111157143D01*
X126938096Y-111014286D01*
X126985715Y-110823810D01*
X126985715Y-110442857D01*
X126938096Y-110347619D01*
X126890477Y-110300000D01*
X126795239Y-110252381D01*
X126604762Y-110252381D01*
X126509524Y-110300000D01*
X126461905Y-110347619D01*
X126414286Y-110442857D01*
X126414286Y-110680952D01*
X126461905Y-110776190D01*
X126509524Y-110823810D01*
X126604762Y-110871429D01*
X126795239Y-110871429D01*
X126890477Y-110823810D01*
X126938096Y-110776190D01*
X126985715Y-110680952D01*
X130757143Y-107757143D02*
X130709524Y-107804762D01*
X130566667Y-107852381D01*
X130471429Y-107852381D01*
X130328571Y-107804762D01*
X130233333Y-107709524D01*
X130185714Y-107614286D01*
X130138095Y-107423810D01*
X130138095Y-107280952D01*
X130185714Y-107090476D01*
X130233333Y-106995238D01*
X130328571Y-106900000D01*
X130471429Y-106852381D01*
X130566667Y-106852381D01*
X130709524Y-106900000D01*
X130757143Y-106947619D01*
X131709524Y-107852381D02*
X131138095Y-107852381D01*
X131423809Y-107852381D02*
X131423809Y-106852381D01*
X131328571Y-106995238D01*
X131233333Y-107090476D01*
X131138095Y-107138095D01*
X132328571Y-106852381D02*
X132423810Y-106852381D01*
X132519048Y-106900000D01*
X132566667Y-106947619D01*
X132614286Y-107042857D01*
X132661905Y-107233333D01*
X132661905Y-107471429D01*
X132614286Y-107661905D01*
X132566667Y-107757143D01*
X132519048Y-107804762D01*
X132423810Y-107852381D01*
X132328571Y-107852381D01*
X132233333Y-107804762D01*
X132185714Y-107757143D01*
X132138095Y-107661905D01*
X132090476Y-107471429D01*
X132090476Y-107233333D01*
X132138095Y-107042857D01*
X132185714Y-106947619D01*
X132233333Y-106900000D01*
X132328571Y-106852381D01*
X126357143Y-107957143D02*
X126309524Y-108004762D01*
X126166667Y-108052381D01*
X126071429Y-108052381D01*
X125928571Y-108004762D01*
X125833333Y-107909524D01*
X125785714Y-107814286D01*
X125738095Y-107623810D01*
X125738095Y-107480952D01*
X125785714Y-107290476D01*
X125833333Y-107195238D01*
X125928571Y-107100000D01*
X126071429Y-107052381D01*
X126166667Y-107052381D01*
X126309524Y-107100000D01*
X126357143Y-107147619D01*
X127309524Y-108052381D02*
X126738095Y-108052381D01*
X127023809Y-108052381D02*
X127023809Y-107052381D01*
X126928571Y-107195238D01*
X126833333Y-107290476D01*
X126738095Y-107338095D01*
X128261905Y-108052381D02*
X127690476Y-108052381D01*
X127976190Y-108052381D02*
X127976190Y-107052381D01*
X127880952Y-107195238D01*
X127785714Y-107290476D01*
X127690476Y-107338095D01*
X120157143Y-91957143D02*
X120109524Y-92004762D01*
X119966667Y-92052381D01*
X119871429Y-92052381D01*
X119728571Y-92004762D01*
X119633333Y-91909524D01*
X119585714Y-91814286D01*
X119538095Y-91623810D01*
X119538095Y-91480952D01*
X119585714Y-91290476D01*
X119633333Y-91195238D01*
X119728571Y-91100000D01*
X119871429Y-91052381D01*
X119966667Y-91052381D01*
X120109524Y-91100000D01*
X120157143Y-91147619D01*
X121109524Y-92052381D02*
X120538095Y-92052381D01*
X120823809Y-92052381D02*
X120823809Y-91052381D01*
X120728571Y-91195238D01*
X120633333Y-91290476D01*
X120538095Y-91338095D01*
X121490476Y-91147619D02*
X121538095Y-91100000D01*
X121633333Y-91052381D01*
X121871429Y-91052381D01*
X121966667Y-91100000D01*
X122014286Y-91147619D01*
X122061905Y-91242857D01*
X122061905Y-91338095D01*
X122014286Y-91480952D01*
X121442857Y-92052381D01*
X122061905Y-92052381D01*
X142957143Y-97757143D02*
X142909524Y-97804762D01*
X142766667Y-97852381D01*
X142671429Y-97852381D01*
X142528571Y-97804762D01*
X142433333Y-97709524D01*
X142385714Y-97614286D01*
X142338095Y-97423810D01*
X142338095Y-97280952D01*
X142385714Y-97090476D01*
X142433333Y-96995238D01*
X142528571Y-96900000D01*
X142671429Y-96852381D01*
X142766667Y-96852381D01*
X142909524Y-96900000D01*
X142957143Y-96947619D01*
X143909524Y-97852381D02*
X143338095Y-97852381D01*
X143623809Y-97852381D02*
X143623809Y-96852381D01*
X143528571Y-96995238D01*
X143433333Y-97090476D01*
X143338095Y-97138095D01*
X144814286Y-96852381D02*
X144338095Y-96852381D01*
X144290476Y-97328571D01*
X144338095Y-97280952D01*
X144433333Y-97233333D01*
X144671429Y-97233333D01*
X144766667Y-97280952D01*
X144814286Y-97328571D01*
X144861905Y-97423810D01*
X144861905Y-97661905D01*
X144814286Y-97757143D01*
X144766667Y-97804762D01*
X144671429Y-97852381D01*
X144433333Y-97852381D01*
X144338095Y-97804762D01*
X144290476Y-97757143D01*
X193557143Y-55157143D02*
X193509524Y-55204762D01*
X193366667Y-55252381D01*
X193271429Y-55252381D01*
X193128571Y-55204762D01*
X193033333Y-55109524D01*
X192985714Y-55014286D01*
X192938095Y-54823810D01*
X192938095Y-54680952D01*
X192985714Y-54490476D01*
X193033333Y-54395238D01*
X193128571Y-54300000D01*
X193271429Y-54252381D01*
X193366667Y-54252381D01*
X193509524Y-54300000D01*
X193557143Y-54347619D01*
X194509524Y-55252381D02*
X193938095Y-55252381D01*
X194223809Y-55252381D02*
X194223809Y-54252381D01*
X194128571Y-54395238D01*
X194033333Y-54490476D01*
X193938095Y-54538095D01*
X195080952Y-54680952D02*
X194985714Y-54633333D01*
X194938095Y-54585714D01*
X194890476Y-54490476D01*
X194890476Y-54442857D01*
X194938095Y-54347619D01*
X194985714Y-54300000D01*
X195080952Y-54252381D01*
X195271429Y-54252381D01*
X195366667Y-54300000D01*
X195414286Y-54347619D01*
X195461905Y-54442857D01*
X195461905Y-54490476D01*
X195414286Y-54585714D01*
X195366667Y-54633333D01*
X195271429Y-54680952D01*
X195080952Y-54680952D01*
X194985714Y-54728571D01*
X194938095Y-54776190D01*
X194890476Y-54871429D01*
X194890476Y-55061905D01*
X194938095Y-55157143D01*
X194985714Y-55204762D01*
X195080952Y-55252381D01*
X195271429Y-55252381D01*
X195366667Y-55204762D01*
X195414286Y-55157143D01*
X195461905Y-55061905D01*
X195461905Y-54871429D01*
X195414286Y-54776190D01*
X195366667Y-54728571D01*
X195271429Y-54680952D01*
X175491905Y-82742381D02*
X175491905Y-81742381D01*
X175730000Y-81742381D01*
X175872858Y-81790000D01*
X175968096Y-81885238D01*
X176015715Y-81980476D01*
X176063334Y-82170952D01*
X176063334Y-82313810D01*
X176015715Y-82504286D01*
X175968096Y-82599524D01*
X175872858Y-82694762D01*
X175730000Y-82742381D01*
X175491905Y-82742381D01*
X177015715Y-82742381D02*
X176444286Y-82742381D01*
X176730000Y-82742381D02*
X176730000Y-81742381D01*
X176634762Y-81885238D01*
X176539524Y-81980476D01*
X176444286Y-82028095D01*
X155661905Y-128062381D02*
X155661905Y-127062381D01*
X156042858Y-127062381D01*
X156138096Y-127110000D01*
X156185715Y-127157619D01*
X156233334Y-127252857D01*
X156233334Y-127395714D01*
X156185715Y-127490952D01*
X156138096Y-127538571D01*
X156042858Y-127586190D01*
X155661905Y-127586190D01*
X156614286Y-127157619D02*
X156661905Y-127110000D01*
X156757143Y-127062381D01*
X156995239Y-127062381D01*
X157090477Y-127110000D01*
X157138096Y-127157619D01*
X157185715Y-127252857D01*
X157185715Y-127348095D01*
X157138096Y-127490952D01*
X156566667Y-128062381D01*
X157185715Y-128062381D01*
X121423066Y-118255866D02*
X120780279Y-117489822D01*
X121072106Y-117244950D01*
X121175671Y-117220210D01*
X121242758Y-117226080D01*
X121340454Y-117268427D01*
X121432281Y-117377862D01*
X121457021Y-117481428D01*
X121451151Y-117548515D01*
X121408804Y-117646211D01*
X121116977Y-117891083D01*
X122088891Y-116826901D02*
X122517416Y-117337598D01*
X121661627Y-116688120D02*
X121938370Y-117388340D01*
X122412588Y-116990423D01*
X181924762Y-81837619D02*
X181829524Y-81790000D01*
X181734286Y-81694762D01*
X181591429Y-81551905D01*
X181496190Y-81504286D01*
X181400952Y-81504286D01*
X181448571Y-81742381D02*
X181353333Y-81694762D01*
X181258095Y-81599524D01*
X181210476Y-81409048D01*
X181210476Y-81075714D01*
X181258095Y-80885238D01*
X181353333Y-80790000D01*
X181448571Y-80742381D01*
X181639048Y-80742381D01*
X181734286Y-80790000D01*
X181829524Y-80885238D01*
X181877143Y-81075714D01*
X181877143Y-81409048D01*
X181829524Y-81599524D01*
X181734286Y-81694762D01*
X181639048Y-81742381D01*
X181448571Y-81742381D01*
X182210476Y-80742381D02*
X182829524Y-80742381D01*
X182496190Y-81123333D01*
X182639048Y-81123333D01*
X182734286Y-81170952D01*
X182781905Y-81218571D01*
X182829524Y-81313810D01*
X182829524Y-81551905D01*
X182781905Y-81647143D01*
X182734286Y-81694762D01*
X182639048Y-81742381D01*
X182353333Y-81742381D01*
X182258095Y-81694762D01*
X182210476Y-81647143D01*
X166133334Y-94952381D02*
X165800000Y-94476190D01*
X165561905Y-94952381D02*
X165561905Y-93952381D01*
X165942858Y-93952381D01*
X166038096Y-94000000D01*
X166085715Y-94047619D01*
X166133334Y-94142857D01*
X166133334Y-94285714D01*
X166085715Y-94380952D01*
X166038096Y-94428571D01*
X165942858Y-94476190D01*
X165561905Y-94476190D01*
X166609524Y-94952381D02*
X166800000Y-94952381D01*
X166895239Y-94904762D01*
X166942858Y-94857143D01*
X167038096Y-94714286D01*
X167085715Y-94523810D01*
X167085715Y-94142857D01*
X167038096Y-94047619D01*
X166990477Y-94000000D01*
X166895239Y-93952381D01*
X166704762Y-93952381D01*
X166609524Y-94000000D01*
X166561905Y-94047619D01*
X166514286Y-94142857D01*
X166514286Y-94380952D01*
X166561905Y-94476190D01*
X166609524Y-94523810D01*
X166704762Y-94571429D01*
X166895239Y-94571429D01*
X166990477Y-94523810D01*
X167038096Y-94476190D01*
X167085715Y-94380952D01*
X188857143Y-72952381D02*
X188523809Y-72476190D01*
X188285714Y-72952381D02*
X188285714Y-71952381D01*
X188666667Y-71952381D01*
X188761905Y-72000000D01*
X188809524Y-72047619D01*
X188857143Y-72142857D01*
X188857143Y-72285714D01*
X188809524Y-72380952D01*
X188761905Y-72428571D01*
X188666667Y-72476190D01*
X188285714Y-72476190D01*
X189809524Y-72952381D02*
X189238095Y-72952381D01*
X189523809Y-72952381D02*
X189523809Y-71952381D01*
X189428571Y-72095238D01*
X189333333Y-72190476D01*
X189238095Y-72238095D01*
X190666667Y-72285714D02*
X190666667Y-72952381D01*
X190428571Y-71904762D02*
X190190476Y-72619048D01*
X190809524Y-72619048D01*
X162795239Y-76928571D02*
X162938096Y-76976190D01*
X162985715Y-77023810D01*
X163033334Y-77119048D01*
X163033334Y-77261905D01*
X162985715Y-77357143D01*
X162938096Y-77404762D01*
X162842858Y-77452381D01*
X162461905Y-77452381D01*
X162461905Y-76452381D01*
X162795239Y-76452381D01*
X162890477Y-76500000D01*
X162938096Y-76547619D01*
X162985715Y-76642857D01*
X162985715Y-76738095D01*
X162938096Y-76833333D01*
X162890477Y-76880952D01*
X162795239Y-76928571D01*
X162461905Y-76928571D01*
X163985715Y-77452381D02*
X163414286Y-77452381D01*
X163700000Y-77452381D02*
X163700000Y-76452381D01*
X163604762Y-76595238D01*
X163509524Y-76690476D01*
X163414286Y-76738095D01*
X198652381Y-65852381D02*
X198319047Y-65376190D01*
X198080952Y-65852381D02*
X198080952Y-64852381D01*
X198461905Y-64852381D01*
X198557143Y-64900000D01*
X198604762Y-64947619D01*
X198652381Y-65042857D01*
X198652381Y-65185714D01*
X198604762Y-65280952D01*
X198557143Y-65328571D01*
X198461905Y-65376190D01*
X198080952Y-65376190D01*
X199033333Y-65804762D02*
X199176190Y-65852381D01*
X199414286Y-65852381D01*
X199509524Y-65804762D01*
X199557143Y-65757143D01*
X199604762Y-65661905D01*
X199604762Y-65566667D01*
X199557143Y-65471429D01*
X199509524Y-65423810D01*
X199414286Y-65376190D01*
X199223809Y-65328571D01*
X199128571Y-65280952D01*
X199080952Y-65233333D01*
X199033333Y-65138095D01*
X199033333Y-65042857D01*
X199080952Y-64947619D01*
X199128571Y-64900000D01*
X199223809Y-64852381D01*
X199461905Y-64852381D01*
X199604762Y-64900000D01*
X199890476Y-64852381D02*
X200461905Y-64852381D01*
X200176190Y-65852381D02*
X200176190Y-64852381D01*
X184988095Y-92452381D02*
X184988095Y-93261905D01*
X185035714Y-93357143D01*
X185083333Y-93404762D01*
X185178571Y-93452381D01*
X185369048Y-93452381D01*
X185464286Y-93404762D01*
X185511905Y-93357143D01*
X185559524Y-93261905D01*
X185559524Y-92452381D01*
X186511905Y-92452381D02*
X186035714Y-92452381D01*
X185988095Y-92928571D01*
X186035714Y-92880952D01*
X186130952Y-92833333D01*
X186369048Y-92833333D01*
X186464286Y-92880952D01*
X186511905Y-92928571D01*
X186559524Y-93023810D01*
X186559524Y-93261905D01*
X186511905Y-93357143D01*
X186464286Y-93404762D01*
X186369048Y-93452381D01*
X186130952Y-93452381D01*
X186035714Y-93404762D01*
X185988095Y-93357143D01*
X164988095Y-96952381D02*
X164988095Y-97761905D01*
X165035714Y-97857143D01*
X165083333Y-97904762D01*
X165178571Y-97952381D01*
X165369048Y-97952381D01*
X165464286Y-97904762D01*
X165511905Y-97857143D01*
X165559524Y-97761905D01*
X165559524Y-96952381D01*
X166464286Y-96952381D02*
X166273809Y-96952381D01*
X166178571Y-97000000D01*
X166130952Y-97047619D01*
X166035714Y-97190476D01*
X165988095Y-97380952D01*
X165988095Y-97761905D01*
X166035714Y-97857143D01*
X166083333Y-97904762D01*
X166178571Y-97952381D01*
X166369048Y-97952381D01*
X166464286Y-97904762D01*
X166511905Y-97857143D01*
X166559524Y-97761905D01*
X166559524Y-97523810D01*
X166511905Y-97428571D01*
X166464286Y-97380952D01*
X166369048Y-97333333D01*
X166178571Y-97333333D01*
X166083333Y-97380952D01*
X166035714Y-97428571D01*
X165988095Y-97523810D01*
X130738095Y-110452381D02*
X130738095Y-111261905D01*
X130785714Y-111357143D01*
X130833333Y-111404762D01*
X130928571Y-111452381D01*
X131119048Y-111452381D01*
X131214286Y-111404762D01*
X131261905Y-111357143D01*
X131309524Y-111261905D01*
X131309524Y-110452381D01*
X131690476Y-110452381D02*
X132357143Y-110452381D01*
X131928571Y-111452381D01*
X134238095Y-97652381D02*
X134238095Y-98461905D01*
X134285714Y-98557143D01*
X134333333Y-98604762D01*
X134428571Y-98652381D01*
X134619048Y-98652381D01*
X134714286Y-98604762D01*
X134761905Y-98557143D01*
X134809524Y-98461905D01*
X134809524Y-97652381D01*
X135428571Y-98080952D02*
X135333333Y-98033333D01*
X135285714Y-97985714D01*
X135238095Y-97890476D01*
X135238095Y-97842857D01*
X135285714Y-97747619D01*
X135333333Y-97700000D01*
X135428571Y-97652381D01*
X135619048Y-97652381D01*
X135714286Y-97700000D01*
X135761905Y-97747619D01*
X135809524Y-97842857D01*
X135809524Y-97890476D01*
X135761905Y-97985714D01*
X135714286Y-98033333D01*
X135619048Y-98080952D01*
X135428571Y-98080952D01*
X135333333Y-98128571D01*
X135285714Y-98176190D01*
X135238095Y-98271429D01*
X135238095Y-98461905D01*
X135285714Y-98557143D01*
X135333333Y-98604762D01*
X135428571Y-98652381D01*
X135619048Y-98652381D01*
X135714286Y-98604762D01*
X135761905Y-98557143D01*
X135809524Y-98461905D01*
X135809524Y-98271429D01*
X135761905Y-98176190D01*
X135714286Y-98128571D01*
X135619048Y-98080952D01*
X122838095Y-99652381D02*
X122838095Y-100461905D01*
X122885714Y-100557143D01*
X122933333Y-100604762D01*
X123028571Y-100652381D01*
X123219048Y-100652381D01*
X123314286Y-100604762D01*
X123361905Y-100557143D01*
X123409524Y-100461905D01*
X123409524Y-99652381D01*
X123933333Y-100652381D02*
X124123809Y-100652381D01*
X124219048Y-100604762D01*
X124266667Y-100557143D01*
X124361905Y-100414286D01*
X124409524Y-100223810D01*
X124409524Y-99842857D01*
X124361905Y-99747619D01*
X124314286Y-99700000D01*
X124219048Y-99652381D01*
X124028571Y-99652381D01*
X123933333Y-99700000D01*
X123885714Y-99747619D01*
X123838095Y-99842857D01*
X123838095Y-100080952D01*
X123885714Y-100176190D01*
X123933333Y-100223810D01*
X124028571Y-100271429D01*
X124219048Y-100271429D01*
X124314286Y-100223810D01*
X124361905Y-100176190D01*
X124409524Y-100080952D01*
X120761905Y-81452381D02*
X120761905Y-82261905D01*
X120809524Y-82357143D01*
X120857143Y-82404762D01*
X120952381Y-82452381D01*
X121142858Y-82452381D01*
X121238096Y-82404762D01*
X121285715Y-82357143D01*
X121333334Y-82261905D01*
X121333334Y-81452381D01*
X122333334Y-82452381D02*
X121761905Y-82452381D01*
X122047619Y-82452381D02*
X122047619Y-81452381D01*
X121952381Y-81595238D01*
X121857143Y-81690476D01*
X121761905Y-81738095D01*
X122952381Y-81452381D02*
X123047620Y-81452381D01*
X123142858Y-81500000D01*
X123190477Y-81547619D01*
X123238096Y-81642857D01*
X123285715Y-81833333D01*
X123285715Y-82071429D01*
X123238096Y-82261905D01*
X123190477Y-82357143D01*
X123142858Y-82404762D01*
X123047620Y-82452381D01*
X122952381Y-82452381D01*
X122857143Y-82404762D01*
X122809524Y-82357143D01*
X122761905Y-82261905D01*
X122714286Y-82071429D01*
X122714286Y-81833333D01*
X122761905Y-81642857D01*
X122809524Y-81547619D01*
X122857143Y-81500000D01*
X122952381Y-81452381D01*
X134561905Y-91652381D02*
X134561905Y-92461905D01*
X134609524Y-92557143D01*
X134657143Y-92604762D01*
X134752381Y-92652381D01*
X134942858Y-92652381D01*
X135038096Y-92604762D01*
X135085715Y-92557143D01*
X135133334Y-92461905D01*
X135133334Y-91652381D01*
X136133334Y-92652381D02*
X135561905Y-92652381D01*
X135847619Y-92652381D02*
X135847619Y-91652381D01*
X135752381Y-91795238D01*
X135657143Y-91890476D01*
X135561905Y-91938095D01*
X136466667Y-91652381D02*
X137085715Y-91652381D01*
X136752381Y-92033333D01*
X136895239Y-92033333D01*
X136990477Y-92080952D01*
X137038096Y-92128571D01*
X137085715Y-92223810D01*
X137085715Y-92461905D01*
X137038096Y-92557143D01*
X136990477Y-92604762D01*
X136895239Y-92652381D01*
X136609524Y-92652381D01*
X136514286Y-92604762D01*
X136466667Y-92557143D01*
X166161905Y-58052381D02*
X166161905Y-58861905D01*
X166209524Y-58957143D01*
X166257143Y-59004762D01*
X166352381Y-59052381D01*
X166542858Y-59052381D01*
X166638096Y-59004762D01*
X166685715Y-58957143D01*
X166733334Y-58861905D01*
X166733334Y-58052381D01*
X167733334Y-59052381D02*
X167161905Y-59052381D01*
X167447619Y-59052381D02*
X167447619Y-58052381D01*
X167352381Y-58195238D01*
X167257143Y-58290476D01*
X167161905Y-58338095D01*
X168638096Y-58052381D02*
X168161905Y-58052381D01*
X168114286Y-58528571D01*
X168161905Y-58480952D01*
X168257143Y-58433333D01*
X168495239Y-58433333D01*
X168590477Y-58480952D01*
X168638096Y-58528571D01*
X168685715Y-58623810D01*
X168685715Y-58861905D01*
X168638096Y-58957143D01*
X168590477Y-59004762D01*
X168495239Y-59052381D01*
X168257143Y-59052381D01*
X168161905Y-59004762D01*
X168114286Y-58957143D01*
X186961905Y-54252381D02*
X186961905Y-55061905D01*
X187009524Y-55157143D01*
X187057143Y-55204762D01*
X187152381Y-55252381D01*
X187342858Y-55252381D01*
X187438096Y-55204762D01*
X187485715Y-55157143D01*
X187533334Y-55061905D01*
X187533334Y-54252381D01*
X188533334Y-55252381D02*
X187961905Y-55252381D01*
X188247619Y-55252381D02*
X188247619Y-54252381D01*
X188152381Y-54395238D01*
X188057143Y-54490476D01*
X187961905Y-54538095D01*
X189390477Y-54252381D02*
X189200000Y-54252381D01*
X189104762Y-54300000D01*
X189057143Y-54347619D01*
X188961905Y-54490476D01*
X188914286Y-54680952D01*
X188914286Y-55061905D01*
X188961905Y-55157143D01*
X189009524Y-55204762D01*
X189104762Y-55252381D01*
X189295239Y-55252381D01*
X189390477Y-55204762D01*
X189438096Y-55157143D01*
X189485715Y-55061905D01*
X189485715Y-54823810D01*
X189438096Y-54728571D01*
X189390477Y-54680952D01*
X189295239Y-54633333D01*
X189104762Y-54633333D01*
X189009524Y-54680952D01*
X188961905Y-54728571D01*
X188914286Y-54823810D01*
X173757143Y-59157143D02*
X173709524Y-59204762D01*
X173566667Y-59252381D01*
X173471429Y-59252381D01*
X173328571Y-59204762D01*
X173233333Y-59109524D01*
X173185714Y-59014286D01*
X173138095Y-58823810D01*
X173138095Y-58680952D01*
X173185714Y-58490476D01*
X173233333Y-58395238D01*
X173328571Y-58300000D01*
X173471429Y-58252381D01*
X173566667Y-58252381D01*
X173709524Y-58300000D01*
X173757143Y-58347619D01*
X174709524Y-59252381D02*
X174138095Y-59252381D01*
X174423809Y-59252381D02*
X174423809Y-58252381D01*
X174328571Y-58395238D01*
X174233333Y-58490476D01*
X174138095Y-58538095D01*
X175042857Y-58252381D02*
X175661905Y-58252381D01*
X175328571Y-58633333D01*
X175471429Y-58633333D01*
X175566667Y-58680952D01*
X175614286Y-58728571D01*
X175661905Y-58823810D01*
X175661905Y-59061905D01*
X175614286Y-59157143D01*
X175566667Y-59204762D01*
X175471429Y-59252381D01*
X175185714Y-59252381D01*
X175090476Y-59204762D01*
X175042857Y-59157143D01*
X157957143Y-67607143D02*
X157909524Y-67654762D01*
X157766667Y-67702381D01*
X157671429Y-67702381D01*
X157528571Y-67654762D01*
X157433333Y-67559524D01*
X157385714Y-67464286D01*
X157338095Y-67273810D01*
X157338095Y-67130952D01*
X157385714Y-66940476D01*
X157433333Y-66845238D01*
X157528571Y-66750000D01*
X157671429Y-66702381D01*
X157766667Y-66702381D01*
X157909524Y-66750000D01*
X157957143Y-66797619D01*
X158909524Y-67702381D02*
X158338095Y-67702381D01*
X158623809Y-67702381D02*
X158623809Y-66702381D01*
X158528571Y-66845238D01*
X158433333Y-66940476D01*
X158338095Y-66988095D01*
X159766667Y-67035714D02*
X159766667Y-67702381D01*
X159528571Y-66654762D02*
X159290476Y-67369048D01*
X159909524Y-67369048D01*
X142757143Y-87357143D02*
X142709524Y-87404762D01*
X142566667Y-87452381D01*
X142471429Y-87452381D01*
X142328571Y-87404762D01*
X142233333Y-87309524D01*
X142185714Y-87214286D01*
X142138095Y-87023810D01*
X142138095Y-86880952D01*
X142185714Y-86690476D01*
X142233333Y-86595238D01*
X142328571Y-86500000D01*
X142471429Y-86452381D01*
X142566667Y-86452381D01*
X142709524Y-86500000D01*
X142757143Y-86547619D01*
X143709524Y-87452381D02*
X143138095Y-87452381D01*
X143423809Y-87452381D02*
X143423809Y-86452381D01*
X143328571Y-86595238D01*
X143233333Y-86690476D01*
X143138095Y-86738095D01*
X144566667Y-86452381D02*
X144376190Y-86452381D01*
X144280952Y-86500000D01*
X144233333Y-86547619D01*
X144138095Y-86690476D01*
X144090476Y-86880952D01*
X144090476Y-87261905D01*
X144138095Y-87357143D01*
X144185714Y-87404762D01*
X144280952Y-87452381D01*
X144471429Y-87452381D01*
X144566667Y-87404762D01*
X144614286Y-87357143D01*
X144661905Y-87261905D01*
X144661905Y-87023810D01*
X144614286Y-86928571D01*
X144566667Y-86880952D01*
X144471429Y-86833333D01*
X144280952Y-86833333D01*
X144185714Y-86880952D01*
X144138095Y-86928571D01*
X144090476Y-87023810D01*
X129507143Y-81607143D02*
X129459524Y-81654762D01*
X129316667Y-81702381D01*
X129221429Y-81702381D01*
X129078571Y-81654762D01*
X128983333Y-81559524D01*
X128935714Y-81464286D01*
X128888095Y-81273810D01*
X128888095Y-81130952D01*
X128935714Y-80940476D01*
X128983333Y-80845238D01*
X129078571Y-80750000D01*
X129221429Y-80702381D01*
X129316667Y-80702381D01*
X129459524Y-80750000D01*
X129507143Y-80797619D01*
X130459524Y-81702381D02*
X129888095Y-81702381D01*
X130173809Y-81702381D02*
X130173809Y-80702381D01*
X130078571Y-80845238D01*
X129983333Y-80940476D01*
X129888095Y-80988095D01*
X130792857Y-80702381D02*
X131459524Y-80702381D01*
X131030952Y-81702381D01*
X178195239Y-68528571D02*
X178338096Y-68576190D01*
X178385715Y-68623810D01*
X178433334Y-68719048D01*
X178433334Y-68861905D01*
X178385715Y-68957143D01*
X178338096Y-69004762D01*
X178242858Y-69052381D01*
X177861905Y-69052381D01*
X177861905Y-68052381D01*
X178195239Y-68052381D01*
X178290477Y-68100000D01*
X178338096Y-68147619D01*
X178385715Y-68242857D01*
X178385715Y-68338095D01*
X178338096Y-68433333D01*
X178290477Y-68480952D01*
X178195239Y-68528571D01*
X177861905Y-68528571D01*
X178814286Y-68147619D02*
X178861905Y-68100000D01*
X178957143Y-68052381D01*
X179195239Y-68052381D01*
X179290477Y-68100000D01*
X179338096Y-68147619D01*
X179385715Y-68242857D01*
X179385715Y-68338095D01*
X179338096Y-68480952D01*
X178766667Y-69052381D01*
X179385715Y-69052381D01*
X128361905Y-72452381D02*
X128361905Y-73261905D01*
X128409524Y-73357143D01*
X128457143Y-73404762D01*
X128552381Y-73452381D01*
X128742858Y-73452381D01*
X128838096Y-73404762D01*
X128885715Y-73357143D01*
X128933334Y-73261905D01*
X128933334Y-72452381D01*
X129933334Y-73452381D02*
X129361905Y-73452381D01*
X129647619Y-73452381D02*
X129647619Y-72452381D01*
X129552381Y-72595238D01*
X129457143Y-72690476D01*
X129361905Y-72738095D01*
X130885715Y-73452381D02*
X130314286Y-73452381D01*
X130600000Y-73452381D02*
X130600000Y-72452381D01*
X130504762Y-72595238D01*
X130409524Y-72690476D01*
X130314286Y-72738095D01*
X139761905Y-76852381D02*
X139761905Y-77661905D01*
X139809524Y-77757143D01*
X139857143Y-77804762D01*
X139952381Y-77852381D01*
X140142858Y-77852381D01*
X140238096Y-77804762D01*
X140285715Y-77757143D01*
X140333334Y-77661905D01*
X140333334Y-76852381D01*
X141333334Y-77852381D02*
X140761905Y-77852381D01*
X141047619Y-77852381D02*
X141047619Y-76852381D01*
X140952381Y-76995238D01*
X140857143Y-77090476D01*
X140761905Y-77138095D01*
X141714286Y-76947619D02*
X141761905Y-76900000D01*
X141857143Y-76852381D01*
X142095239Y-76852381D01*
X142190477Y-76900000D01*
X142238096Y-76947619D01*
X142285715Y-77042857D01*
X142285715Y-77138095D01*
X142238096Y-77280952D01*
X141666667Y-77852381D01*
X142285715Y-77852381D01*
X151161905Y-66652381D02*
X151161905Y-67461905D01*
X151209524Y-67557143D01*
X151257143Y-67604762D01*
X151352381Y-67652381D01*
X151542858Y-67652381D01*
X151638096Y-67604762D01*
X151685715Y-67557143D01*
X151733334Y-67461905D01*
X151733334Y-66652381D01*
X152733334Y-67652381D02*
X152161905Y-67652381D01*
X152447619Y-67652381D02*
X152447619Y-66652381D01*
X152352381Y-66795238D01*
X152257143Y-66890476D01*
X152161905Y-66938095D01*
X153590477Y-66985714D02*
X153590477Y-67652381D01*
X153352381Y-66604762D02*
X153114286Y-67319048D01*
X153733334Y-67319048D01*
M02*
