G04 #@! TF.FileFunction,Copper,L1,Top,Signal*
%FSLAX46Y46*%
G04 Gerber Fmt 4.6, Leading zero omitted, Abs format (unit mm)*
G04 Created by KiCad (PCBNEW 4.0.7) date Monday, 12 '12e' March '12e' 2018, 16:25:27*
%MOMM*%
%LPD*%
G01*
G04 APERTURE LIST*
%ADD10C,0.100000*%
%ADD11C,0.900000*%
%ADD12C,1.000000*%
%ADD13R,1.500000X1.250000*%
%ADD14C,1.800000*%
%ADD15C,1.050000*%
%ADD16R,1.700000X1.700000*%
%ADD17O,1.700000X1.700000*%
%ADD18C,1.700000*%
%ADD19R,1.000000X1.700000*%
%ADD20R,1.000000X1.600000*%
%ADD21R,1.600000X1.000000*%
%ADD22R,2.000000X2.000000*%
%ADD23C,2.000000*%
%ADD24C,1.200000*%
%ADD25C,0.800000*%
%ADD26C,0.600000*%
%ADD27C,0.400000*%
%ADD28C,0.600000*%
%ADD29C,0.250000*%
%ADD30C,0.254000*%
G04 APERTURE END LIST*
D10*
D11*
X137990000Y-48390000D03*
X136865000Y-48390000D03*
X135765000Y-48390000D03*
X134740000Y-48390000D03*
X137990000Y-49840000D03*
X135765000Y-49840000D03*
X134740000Y-49840000D03*
X136865000Y-49840000D03*
X137990000Y-51190000D03*
X135765000Y-51190000D03*
X134740000Y-51190000D03*
X136865000Y-51190000D03*
D10*
G36*
X105846241Y-70326094D02*
X105129271Y-69302154D01*
X106357999Y-68441790D01*
X107074969Y-69465730D01*
X105846241Y-70326094D01*
X105846241Y-70326094D01*
G37*
G36*
X107894121Y-68892152D02*
X107177151Y-67868212D01*
X108405879Y-67007848D01*
X109122849Y-68031788D01*
X107894121Y-68892152D01*
X107894121Y-68892152D01*
G37*
G36*
X73238709Y-65741843D02*
X73868029Y-66518989D01*
X73324027Y-66959513D01*
X72694707Y-66182367D01*
X73238709Y-65741843D01*
X73238709Y-65741843D01*
G37*
G36*
X74961105Y-68464706D02*
X75590425Y-69241852D01*
X74346991Y-70248764D01*
X73717671Y-69471618D01*
X74961105Y-68464706D01*
X74961105Y-68464706D01*
G37*
G36*
X76833009Y-62831236D02*
X77462329Y-63608382D01*
X76218895Y-64615294D01*
X75589575Y-63838148D01*
X76833009Y-62831236D01*
X76833009Y-62831236D01*
G37*
G36*
X78846835Y-65318104D02*
X79476155Y-66095250D01*
X78232721Y-67102162D01*
X77603401Y-66325016D01*
X78846835Y-65318104D01*
X78846835Y-65318104D01*
G37*
D12*
X73535981Y-66884383D02*
X73128757Y-67214147D01*
D10*
G36*
X157373032Y-71210859D02*
X157311984Y-70212724D01*
X158909000Y-70115047D01*
X158970048Y-71113182D01*
X157373032Y-71210859D01*
X157373032Y-71210859D01*
G37*
G36*
X157177676Y-68016828D02*
X157116628Y-67018693D01*
X158713644Y-66921016D01*
X158774692Y-67919151D01*
X157177676Y-68016828D01*
X157177676Y-68016828D01*
G37*
G36*
X152382358Y-71516102D02*
X152321310Y-70517967D01*
X153918326Y-70420290D01*
X153979374Y-71418425D01*
X152382358Y-71516102D01*
X152382358Y-71516102D01*
G37*
G36*
X152187002Y-68322071D02*
X152125954Y-67323936D01*
X153722970Y-67226259D01*
X153784018Y-68224394D01*
X152187002Y-68322071D01*
X152187002Y-68322071D01*
G37*
G36*
X151889554Y-66219621D02*
X151813244Y-64971952D01*
X153310446Y-64880379D01*
X153386756Y-66128048D01*
X151889554Y-66219621D01*
X151889554Y-66219621D01*
G37*
G36*
X154384890Y-66066999D02*
X154308580Y-64819330D01*
X155805782Y-64727757D01*
X155882092Y-65975426D01*
X154384890Y-66066999D01*
X154384890Y-66066999D01*
G37*
G36*
X142591886Y-68545932D02*
X142515576Y-67298263D01*
X144012778Y-67206690D01*
X144089088Y-68454359D01*
X142591886Y-68545932D01*
X142591886Y-68545932D01*
G37*
G36*
X145087222Y-68393310D02*
X145010912Y-67145641D01*
X146508114Y-67054068D01*
X146584424Y-68301737D01*
X145087222Y-68393310D01*
X145087222Y-68393310D01*
G37*
G36*
X132268318Y-72256799D02*
X132040524Y-71027730D01*
X133515406Y-70754377D01*
X133743200Y-71983446D01*
X132268318Y-72256799D01*
X132268318Y-72256799D01*
G37*
G36*
X134726456Y-71801211D02*
X134498662Y-70572142D01*
X135973544Y-70298789D01*
X136201338Y-71527858D01*
X134726456Y-71801211D01*
X134726456Y-71801211D01*
G37*
D13*
X129800000Y-75250000D03*
X127300000Y-75250000D03*
D10*
G36*
X118296241Y-89326094D02*
X117579271Y-88302154D01*
X118807999Y-87441790D01*
X119524969Y-88465730D01*
X118296241Y-89326094D01*
X118296241Y-89326094D01*
G37*
G36*
X120344121Y-87892152D02*
X119627151Y-86868212D01*
X120855879Y-86007848D01*
X121572849Y-87031788D01*
X120344121Y-87892152D01*
X120344121Y-87892152D01*
G37*
G36*
X110583832Y-94206798D02*
X109780347Y-95164353D01*
X108631280Y-94200172D01*
X109434765Y-93242617D01*
X110583832Y-94206798D01*
X110583832Y-94206798D01*
G37*
G36*
X108668720Y-92599828D02*
X107865235Y-93557383D01*
X106716168Y-92593202D01*
X107519653Y-91635647D01*
X108668720Y-92599828D01*
X108668720Y-92599828D01*
G37*
D13*
X119700000Y-83850000D03*
X117200000Y-83850000D03*
D10*
G36*
X122066168Y-66493202D02*
X122869653Y-65535647D01*
X124018720Y-66499828D01*
X123215235Y-67457383D01*
X122066168Y-66493202D01*
X122066168Y-66493202D01*
G37*
G36*
X123981280Y-68100172D02*
X124784765Y-67142617D01*
X125933832Y-68106798D01*
X125130347Y-69064353D01*
X123981280Y-68100172D01*
X123981280Y-68100172D01*
G37*
D13*
X103700000Y-84750000D03*
X106200000Y-84750000D03*
X86800000Y-79850000D03*
X89300000Y-79850000D03*
D10*
G36*
X81369357Y-65010966D02*
X80397924Y-65797617D01*
X79453943Y-64631898D01*
X80425376Y-63845247D01*
X81369357Y-65010966D01*
X81369357Y-65010966D01*
G37*
G36*
X79796057Y-63068102D02*
X78824624Y-63854753D01*
X77880643Y-62689034D01*
X78852076Y-61902383D01*
X79796057Y-63068102D01*
X79796057Y-63068102D01*
G37*
G36*
X154300577Y-95329423D02*
X153400577Y-93770577D01*
X154959423Y-92870577D01*
X155859423Y-94429423D01*
X154300577Y-95329423D01*
X154300577Y-95329423D01*
G37*
D14*
X156829705Y-92830000D03*
D12*
X88490816Y-49734817D02*
X89356842Y-50234817D01*
D15*
X84782837Y-49857227D02*
X85692163Y-50382227D01*
X88957837Y-42625914D02*
X89867163Y-43150914D01*
D10*
G36*
X87122724Y-48754423D02*
X85477276Y-47804423D01*
X86377276Y-46245577D01*
X88022724Y-47195577D01*
X87122724Y-48754423D01*
X87122724Y-48754423D01*
G37*
G36*
X89269634Y-47395866D02*
X90438768Y-48070866D01*
X90238768Y-48417276D01*
X89069634Y-47742276D01*
X89269634Y-47395866D01*
X89269634Y-47395866D01*
G37*
G36*
X88944634Y-47958782D02*
X90113768Y-48633782D01*
X89913768Y-48980192D01*
X88744634Y-48305192D01*
X88944634Y-47958782D01*
X88944634Y-47958782D01*
G37*
G36*
X88619634Y-48521699D02*
X89788768Y-49196699D01*
X89588768Y-49543109D01*
X88419634Y-48868109D01*
X88619634Y-48521699D01*
X88619634Y-48521699D01*
G37*
G36*
X85202276Y-48280736D02*
X86847724Y-49230736D01*
X85755224Y-51123002D01*
X84109776Y-50173002D01*
X85202276Y-48280736D01*
X85202276Y-48280736D01*
G37*
G36*
X88272724Y-46762564D02*
X86627276Y-45812564D01*
X87527276Y-44253718D01*
X89172724Y-45203718D01*
X88272724Y-46762564D01*
X88272724Y-46762564D01*
G37*
G36*
X89919634Y-46270032D02*
X91088768Y-46945032D01*
X90888768Y-47291442D01*
X89719634Y-46616442D01*
X89919634Y-46270032D01*
X89919634Y-46270032D01*
G37*
G36*
X89594634Y-46832949D02*
X90763768Y-47507949D01*
X90563768Y-47854359D01*
X89394634Y-47179359D01*
X89594634Y-46832949D01*
X89594634Y-46832949D01*
G37*
G36*
X88894776Y-41885139D02*
X90540224Y-42835139D01*
X89447724Y-44727405D01*
X87802276Y-43777405D01*
X88894776Y-41885139D01*
X88894776Y-41885139D01*
G37*
D12*
X90715816Y-45881004D02*
X91581842Y-46381004D01*
D16*
X100750000Y-64500000D03*
D17*
X100750000Y-61960000D03*
X100750000Y-59420000D03*
X100750000Y-56880000D03*
D10*
G36*
X109068938Y-34594266D02*
X110685734Y-34068938D01*
X111211062Y-35685734D01*
X109594266Y-36211062D01*
X109068938Y-34594266D01*
X109068938Y-34594266D01*
G37*
D18*
X107724316Y-35924903D02*
X107724316Y-35924903D01*
D10*
G36*
X149840577Y-99029423D02*
X148940577Y-97470577D01*
X150499423Y-96570577D01*
X151399423Y-98129423D01*
X149840577Y-99029423D01*
X149840577Y-99029423D01*
G37*
D14*
X152369705Y-96530000D03*
D10*
G36*
X154284519Y-89492083D02*
X154934519Y-90617917D01*
X153635481Y-91367917D01*
X152985481Y-90242083D01*
X154284519Y-89492083D01*
X154284519Y-89492083D01*
G37*
G36*
X151946251Y-90842083D02*
X152596251Y-91967917D01*
X151297213Y-92717917D01*
X150647213Y-91592083D01*
X151946251Y-90842083D01*
X151946251Y-90842083D01*
G37*
G36*
X149813653Y-92107083D02*
X150463653Y-93232917D01*
X149164615Y-93982917D01*
X148514615Y-92857083D01*
X149813653Y-92107083D01*
X149813653Y-92107083D01*
G37*
G36*
X147475385Y-93457083D02*
X148125385Y-94582917D01*
X146826347Y-95332917D01*
X146176347Y-94207083D01*
X147475385Y-93457083D01*
X147475385Y-93457083D01*
G37*
D19*
X113990000Y-130240000D03*
X113990000Y-123940000D03*
X117790000Y-130240000D03*
X117790000Y-123940000D03*
X124440000Y-125290000D03*
X124440000Y-118990000D03*
X128240000Y-125290000D03*
X128240000Y-118990000D03*
X104000000Y-125300000D03*
X104000000Y-119000000D03*
X107800000Y-125300000D03*
X107800000Y-119000000D03*
D10*
G36*
X148075031Y-73542300D02*
X148013983Y-72544165D01*
X149610999Y-72446488D01*
X149672047Y-73444623D01*
X148075031Y-73542300D01*
X148075031Y-73542300D01*
G37*
G36*
X147879675Y-70348269D02*
X147818627Y-69350134D01*
X149415643Y-69252457D01*
X149476691Y-70250592D01*
X147879675Y-70348269D01*
X147879675Y-70348269D01*
G37*
G36*
X143084357Y-73847543D02*
X143023309Y-72849408D01*
X144620325Y-72751731D01*
X144681373Y-73749866D01*
X143084357Y-73847543D01*
X143084357Y-73847543D01*
G37*
G36*
X142889001Y-70653512D02*
X142827953Y-69655377D01*
X144424969Y-69557700D01*
X144486017Y-70555835D01*
X142889001Y-70653512D01*
X142889001Y-70653512D01*
G37*
G36*
X138294228Y-76545035D02*
X138111992Y-75561780D01*
X139685200Y-75270203D01*
X139867436Y-76253458D01*
X138294228Y-76545035D01*
X138294228Y-76545035D01*
G37*
G36*
X137711074Y-73398619D02*
X137528838Y-72415364D01*
X139102046Y-72123787D01*
X139284282Y-73107042D01*
X137711074Y-73398619D01*
X137711074Y-73398619D01*
G37*
G36*
X133377954Y-77456213D02*
X133195718Y-76472958D01*
X134768926Y-76181381D01*
X134951162Y-77164636D01*
X133377954Y-77456213D01*
X133377954Y-77456213D01*
G37*
G36*
X132794800Y-74309797D02*
X132612564Y-73326542D01*
X134185772Y-73034965D01*
X134368008Y-74018220D01*
X132794800Y-74309797D01*
X132794800Y-74309797D01*
G37*
D20*
X126400000Y-82500000D03*
X129600000Y-82500000D03*
X126400000Y-77500000D03*
X129600000Y-77500000D03*
D10*
G36*
X125597069Y-90745139D02*
X125023492Y-89925987D01*
X126334135Y-89008265D01*
X126907712Y-89827417D01*
X125597069Y-90745139D01*
X125597069Y-90745139D01*
G37*
G36*
X123761625Y-88123853D02*
X123188048Y-87304701D01*
X124498691Y-86386979D01*
X125072268Y-87206131D01*
X123761625Y-88123853D01*
X123761625Y-88123853D01*
G37*
G36*
X121501309Y-93613021D02*
X120927732Y-92793869D01*
X122238375Y-91876147D01*
X122811952Y-92695299D01*
X121501309Y-93613021D01*
X121501309Y-93613021D01*
G37*
G36*
X119665865Y-90991735D02*
X119092288Y-90172583D01*
X120402931Y-89254861D01*
X120976508Y-90074013D01*
X119665865Y-90991735D01*
X119665865Y-90991735D01*
G37*
G36*
X110047578Y-86798568D02*
X109404791Y-87564612D01*
X108179120Y-86536152D01*
X108821907Y-85770108D01*
X110047578Y-86798568D01*
X110047578Y-86798568D01*
G37*
G36*
X107990658Y-89249910D02*
X107347871Y-90015954D01*
X106122200Y-88987494D01*
X106764987Y-88221450D01*
X107990658Y-89249910D01*
X107990658Y-89249910D01*
G37*
G36*
X113877800Y-90012506D02*
X113235013Y-90778550D01*
X112009342Y-89750090D01*
X112652129Y-88984046D01*
X113877800Y-90012506D01*
X113877800Y-90012506D01*
G37*
G36*
X111820880Y-92463848D02*
X111178093Y-93229892D01*
X109952422Y-92201432D01*
X110595209Y-91435388D01*
X111820880Y-92463848D01*
X111820880Y-92463848D01*
G37*
D21*
X114500000Y-78400000D03*
X114500000Y-81600000D03*
X119500000Y-78400000D03*
X119500000Y-81600000D03*
D10*
G36*
X122565771Y-73868792D02*
X123208558Y-73102748D01*
X124434229Y-74131208D01*
X123791442Y-74897252D01*
X122565771Y-73868792D01*
X122565771Y-73868792D01*
G37*
G36*
X124622691Y-71417450D02*
X125265478Y-70651406D01*
X126491149Y-71679866D01*
X125848362Y-72445910D01*
X124622691Y-71417450D01*
X124622691Y-71417450D01*
G37*
G36*
X118735549Y-70654854D02*
X119378336Y-69888810D01*
X120604007Y-70917270D01*
X119961220Y-71683314D01*
X118735549Y-70654854D01*
X118735549Y-70654854D01*
G37*
G36*
X120792469Y-68203512D02*
X121435256Y-67437468D01*
X122660927Y-68465928D01*
X122018140Y-69231972D01*
X120792469Y-68203512D01*
X120792469Y-68203512D01*
G37*
G36*
X113097069Y-71745139D02*
X112523492Y-70925987D01*
X113834135Y-70008265D01*
X114407712Y-70827417D01*
X113097069Y-71745139D01*
X113097069Y-71745139D01*
G37*
G36*
X111261625Y-69123853D02*
X110688048Y-68304701D01*
X111998691Y-67386979D01*
X112572268Y-68206131D01*
X111261625Y-69123853D01*
X111261625Y-69123853D01*
G37*
G36*
X109001309Y-74613021D02*
X108427732Y-73793869D01*
X109738375Y-72876147D01*
X110311952Y-73695299D01*
X109001309Y-74613021D01*
X109001309Y-74613021D01*
G37*
G36*
X107165865Y-71991735D02*
X106592288Y-71172583D01*
X107902931Y-70254861D01*
X108476508Y-71074013D01*
X107165865Y-71991735D01*
X107165865Y-71991735D01*
G37*
D20*
X107100000Y-77500000D03*
X103900000Y-77500000D03*
X107100000Y-82500000D03*
X103900000Y-82500000D03*
D21*
X92025000Y-85325000D03*
X92025000Y-82125000D03*
X87025000Y-85325000D03*
X87025000Y-82125000D03*
D22*
X95440000Y-98240000D03*
D23*
X95440000Y-85540000D03*
D24*
X123750000Y-44990000D03*
X152840000Y-53690000D03*
X148240000Y-63140000D03*
X103700000Y-90840000D03*
X152840000Y-63140000D03*
D25*
X147440000Y-74840000D03*
X149040000Y-74740000D03*
X150740000Y-74540000D03*
X150740000Y-72940000D03*
X157740000Y-72240000D03*
X156540000Y-72240000D03*
X156340000Y-70740000D03*
X148740000Y-55740000D03*
X148740000Y-57740000D03*
X146740000Y-57740000D03*
X84290000Y-51680000D03*
X86630000Y-51830000D03*
X88490000Y-51750000D03*
X90720000Y-51040000D03*
X103430000Y-46720000D03*
X101510000Y-46730000D03*
X101510000Y-47930000D03*
X103400000Y-47930000D03*
X77840000Y-61740000D03*
X80090000Y-62040000D03*
X117740000Y-125740000D03*
X116240000Y-123990000D03*
X119240000Y-123990000D03*
X117790000Y-122190000D03*
X89340000Y-81440000D03*
X90840000Y-79840000D03*
X89240000Y-78240000D03*
X92040000Y-83840000D03*
X90240000Y-85340000D03*
X92040000Y-86940000D03*
X111940000Y-125340000D03*
X110740000Y-125340000D03*
X109640000Y-125340000D03*
X112140000Y-118740000D03*
X110940000Y-118740000D03*
X109840000Y-118740000D03*
X91840000Y-49940000D03*
X155440000Y-89540000D03*
X102840000Y-38630000D03*
X98840000Y-38670000D03*
X100360000Y-38660000D03*
X101500000Y-38660000D03*
D24*
X128880000Y-62400000D03*
D25*
X91360000Y-43640000D03*
X96890000Y-45320000D03*
D26*
X93090000Y-46960000D03*
X93440000Y-49140000D03*
X94040000Y-48040000D03*
D25*
X149040000Y-53840000D03*
X149990000Y-52640000D03*
X98240000Y-81940000D03*
X106240000Y-122240000D03*
X143740000Y-57140000D03*
X116290000Y-60960000D03*
X155790000Y-67690000D03*
X99840000Y-81940000D03*
X113990000Y-127340000D03*
X101240000Y-81940000D03*
X124440000Y-122140000D03*
X125240000Y-52340000D03*
X98940000Y-52140000D03*
X125240000Y-53890000D03*
X98740000Y-53340000D03*
D12*
X143700000Y-44990000D02*
X144988528Y-44990000D01*
X144988528Y-44990000D02*
X152840000Y-52841472D01*
X152840000Y-52841472D02*
X152840000Y-53690000D01*
X123750000Y-44990000D02*
X143700000Y-44990000D01*
X152840000Y-52841472D02*
X150408528Y-50410000D01*
X123240000Y-95140000D02*
X130440000Y-95140000D01*
X148284134Y-91840000D02*
X133740000Y-91840000D01*
X149489134Y-93045000D02*
X148284134Y-91840000D01*
X133740000Y-91840000D02*
X130440000Y-95140000D01*
X144670000Y-63140000D02*
X148240000Y-63140000D01*
X148240000Y-63140000D02*
X152840000Y-63140000D01*
X143302332Y-67876311D02*
X143302332Y-64507668D01*
X143302332Y-64507668D02*
X144670000Y-63140000D01*
X143302332Y-67876311D02*
X143302332Y-67150143D01*
X143302332Y-67150143D02*
X143240000Y-67087811D01*
X143302332Y-69140000D02*
X143302332Y-66377678D01*
X105582651Y-65740000D02*
X105582651Y-65557349D01*
X105582651Y-65557349D02*
X106640000Y-64500000D01*
X105582651Y-65740000D02*
X105582651Y-64632651D01*
X105582651Y-64632651D02*
X105450000Y-64500000D01*
X121045929Y-64500000D02*
X109015000Y-64500000D01*
X109015000Y-64500000D02*
X106640000Y-64500000D01*
X102910000Y-61960000D02*
X105450000Y-64500000D01*
X105450000Y-64500000D02*
X109015000Y-64500000D01*
X100750000Y-61960000D02*
X102910000Y-61960000D01*
X123430000Y-83850000D02*
X124440000Y-82840000D01*
X124440000Y-82840000D02*
X124440000Y-81140000D01*
X119700000Y-83850000D02*
X123430000Y-83850000D01*
X98320000Y-61960000D02*
X95780000Y-64500000D01*
X95780000Y-64500000D02*
X86240000Y-64500000D01*
X100750000Y-61960000D02*
X98320000Y-61960000D01*
X100750000Y-61960000D02*
X101952081Y-61960000D01*
D27*
X108671041Y-95140000D02*
X108740000Y-95140000D01*
X108740000Y-95140000D02*
X109040000Y-95440000D01*
X109040000Y-95440000D02*
X110244071Y-95440000D01*
X110244071Y-95440000D02*
X110544071Y-95140000D01*
D12*
X111440000Y-95140000D02*
X110544071Y-95140000D01*
X123240000Y-95140000D02*
X111440000Y-95140000D01*
D27*
X111440000Y-95140000D02*
X108671041Y-95140000D01*
D12*
X103700000Y-94400000D02*
X103700000Y-90840000D01*
X103700000Y-90840000D02*
X103700000Y-84750000D01*
X143302332Y-67876311D02*
X139640000Y-67876311D01*
X139640000Y-67876311D02*
X133840000Y-67876311D01*
X88040000Y-64500000D02*
X86240000Y-64500000D01*
X86800000Y-65740000D02*
X88040000Y-64500000D01*
X86800000Y-65740000D02*
X86800000Y-65060000D01*
X86800000Y-79850000D02*
X86800000Y-65740000D01*
X86240000Y-64500000D02*
X85640000Y-64500000D01*
X85640000Y-64500000D02*
X80733082Y-64500000D01*
X86800000Y-65740000D02*
X86800000Y-65660000D01*
X86800000Y-65660000D02*
X85640000Y-64500000D01*
X86800000Y-65060000D02*
X86240000Y-64500000D01*
X87025000Y-82125000D02*
X87025000Y-80075000D01*
X87025000Y-80075000D02*
X86800000Y-79850000D01*
X80411650Y-64821432D02*
X79817696Y-64821432D01*
X79817696Y-64821432D02*
X78535730Y-66103398D01*
X80733082Y-64500000D02*
X80411650Y-64821432D01*
X105582651Y-68864473D02*
X105582651Y-65740000D01*
X105582651Y-65740000D02*
X105582651Y-65242651D01*
X106102120Y-69383942D02*
X105582651Y-68864473D01*
X107534398Y-71123298D02*
X107534398Y-70816220D01*
X107534398Y-70816220D02*
X106102120Y-69383942D01*
X123042444Y-66496515D02*
X121045929Y-64500000D01*
X103700000Y-84750000D02*
X103700000Y-82700000D01*
X103700000Y-82700000D02*
X103900000Y-82500000D01*
X104440000Y-95140000D02*
X103700000Y-94400000D01*
X109607556Y-94203485D02*
X108671041Y-95140000D01*
X108671041Y-95140000D02*
X104440000Y-95140000D01*
X119500000Y-81600000D02*
X119500000Y-83650000D01*
X119500000Y-83650000D02*
X119700000Y-83850000D01*
D28*
X125842080Y-73724999D02*
X126227079Y-73340000D01*
X126227079Y-73340000D02*
X126640000Y-73340000D01*
D12*
X124440000Y-76540000D02*
X124440000Y-81140000D01*
D28*
X125440000Y-75540000D02*
X124440000Y-76540000D01*
X125440000Y-74114998D02*
X125440000Y-75540000D01*
X125829999Y-73724999D02*
X125440000Y-74114998D01*
D12*
X129800000Y-73340000D02*
X129800000Y-75250000D01*
X129800000Y-72780000D02*
X129800000Y-73340000D01*
D28*
X129800000Y-73340000D02*
X126640000Y-73340000D01*
D12*
X110544071Y-95140000D02*
X109607556Y-94203485D01*
X124240000Y-94140000D02*
X123240000Y-95140000D01*
X124240000Y-91140000D02*
X124240000Y-94140000D01*
X122578177Y-89478177D02*
X124240000Y-91140000D01*
X120034398Y-90123298D02*
X120679519Y-89478177D01*
X120679519Y-89478177D02*
X122578177Y-89478177D01*
X109607556Y-94203485D02*
X109607556Y-93611735D01*
X109607556Y-93611735D02*
X110886651Y-92332640D01*
X118440000Y-85540000D02*
X119635000Y-85540000D01*
X119635000Y-85540000D02*
X119700000Y-85475000D01*
X119700000Y-85475000D02*
X119700000Y-83850000D01*
X118032651Y-85947349D02*
X118440000Y-85540000D01*
X118552120Y-88383942D02*
X118032651Y-87864473D01*
X118032651Y-87864473D02*
X118032651Y-85947349D01*
X120034398Y-90123298D02*
X120034398Y-89866220D01*
X120034398Y-89866220D02*
X118552120Y-88383942D01*
X121726698Y-68334720D02*
X121726698Y-67812261D01*
X121726698Y-67812261D02*
X123042444Y-66496515D01*
X131074412Y-71505588D02*
X129800000Y-72780000D01*
X132891862Y-71505588D02*
X131074412Y-71505588D01*
X129800000Y-75250000D02*
X129800000Y-77300000D01*
X129800000Y-77300000D02*
X129600000Y-77500000D01*
X132891862Y-69340000D02*
X132891862Y-71505588D01*
X132891862Y-67888138D02*
X132891862Y-69340000D01*
X133840000Y-67876311D02*
X132903689Y-67876311D01*
X132891862Y-69340000D02*
X132891862Y-68824449D01*
X132891862Y-68824449D02*
X133840000Y-67876311D01*
X132903689Y-67876311D02*
X131009554Y-65982176D01*
X131009554Y-65982176D02*
X123556783Y-65982176D01*
X123556783Y-65982176D02*
X123042444Y-66496515D01*
X132903689Y-67876311D02*
X132891862Y-67888138D01*
X133490286Y-73672381D02*
X133490286Y-72104012D01*
X133490286Y-72104012D02*
X132891862Y-71505588D01*
X143302332Y-69140000D02*
X143302332Y-69750953D01*
X143302332Y-67876311D02*
X143302332Y-69140000D01*
X143302332Y-69750953D02*
X143656985Y-70105606D01*
X152954986Y-67774165D02*
X152954986Y-65904986D01*
X152954986Y-65904986D02*
X152600000Y-65550000D01*
X152840000Y-63140000D02*
X152840000Y-65310000D01*
X152840000Y-65310000D02*
X152600000Y-65550000D01*
D27*
X150740000Y-74540000D02*
X149240000Y-74540000D01*
X149240000Y-74540000D02*
X149040000Y-74740000D01*
X148843015Y-72994394D02*
X150685606Y-72994394D01*
X150685606Y-72994394D02*
X150740000Y-72940000D01*
X156540000Y-72240000D02*
X157740000Y-72240000D01*
X158141016Y-70662953D02*
X156417047Y-70662953D01*
X156417047Y-70662953D02*
X156340000Y-70740000D01*
X136865000Y-48390000D02*
X136865000Y-46825000D01*
X135765000Y-48390000D02*
X135765000Y-47345000D01*
X135765000Y-51190000D02*
X135765000Y-52365000D01*
X136865000Y-51190000D02*
X136865000Y-52245000D01*
X136865000Y-51190000D02*
X137990000Y-51190000D01*
X136865000Y-49840000D02*
X136865000Y-51190000D01*
X136865000Y-48390000D02*
X136865000Y-49840000D01*
X137990000Y-48390000D02*
X136865000Y-48390000D01*
X137990000Y-49840000D02*
X137990000Y-48390000D01*
X136865000Y-49840000D02*
X137990000Y-49840000D01*
X135765000Y-49840000D02*
X136865000Y-49840000D01*
X134740000Y-49840000D02*
X135765000Y-49840000D01*
X135765000Y-49840000D02*
X135765000Y-51190000D01*
X135765000Y-48390000D02*
X135765000Y-49840000D01*
X134740000Y-49840000D02*
X134740000Y-48390000D01*
X134740000Y-51190000D02*
X134740000Y-49840000D01*
X146740000Y-57740000D02*
X148740000Y-57740000D01*
X88490000Y-51750000D02*
X86710000Y-51750000D01*
X86710000Y-51750000D02*
X86630000Y-51830000D01*
X91840000Y-49940000D02*
X91820000Y-49940000D01*
X91820000Y-49940000D02*
X90720000Y-51040000D01*
X101510000Y-46730000D02*
X103420000Y-46730000D01*
X103420000Y-46730000D02*
X103430000Y-46720000D01*
X103400000Y-47930000D02*
X101510000Y-47930000D01*
X73698882Y-66031118D02*
X74140000Y-65590000D01*
X73281368Y-66350678D02*
X73600928Y-66031118D01*
X73600928Y-66031118D02*
X73698882Y-66031118D01*
X73332369Y-67049265D02*
X73332369Y-66401679D01*
X73332369Y-66401679D02*
X73281368Y-66350678D01*
X78838350Y-62878568D02*
X78838350Y-62738350D01*
X78838350Y-62738350D02*
X77840000Y-61740000D01*
X78838350Y-62878568D02*
X79251432Y-62878568D01*
X79251432Y-62878568D02*
X80090000Y-62040000D01*
X117790000Y-123940000D02*
X117790000Y-125690000D01*
X117790000Y-125690000D02*
X117740000Y-125740000D01*
X116240000Y-123990000D02*
X117740000Y-123990000D01*
X117740000Y-123990000D02*
X117790000Y-123940000D01*
X117790000Y-123940000D02*
X119190000Y-123940000D01*
X119190000Y-123940000D02*
X119240000Y-123990000D01*
X117790000Y-123940000D02*
X117790000Y-122190000D01*
X89300000Y-79850000D02*
X90830000Y-79850000D01*
X90830000Y-79850000D02*
X90840000Y-79840000D01*
X89300000Y-79850000D02*
X89300000Y-78300000D01*
X89300000Y-78300000D02*
X89240000Y-78240000D01*
X90240000Y-85340000D02*
X92010000Y-85340000D01*
X92010000Y-85340000D02*
X92025000Y-85325000D01*
X92040000Y-86940000D02*
X92040000Y-85340000D01*
X92040000Y-85340000D02*
X92025000Y-85325000D01*
X128040000Y-75940000D02*
X128040000Y-77240000D01*
X127350000Y-75250000D02*
X128040000Y-75940000D01*
X127300000Y-75250000D02*
X127350000Y-75250000D01*
X123500000Y-74000000D02*
X123280000Y-74000000D01*
X110740000Y-125340000D02*
X111940000Y-125340000D01*
X107800000Y-125300000D02*
X109600000Y-125300000D01*
X109600000Y-125300000D02*
X109640000Y-125340000D01*
X110940000Y-118740000D02*
X112140000Y-118740000D01*
X107800000Y-119000000D02*
X109580000Y-119000000D01*
X109580000Y-119000000D02*
X109840000Y-118740000D01*
X117790000Y-122190000D02*
X117740000Y-122140000D01*
X108150000Y-67950000D02*
X108430000Y-67950000D01*
X108430000Y-67950000D02*
X109540000Y-66840000D01*
X89604200Y-49032404D02*
X90511796Y-49940000D01*
X90511796Y-49940000D02*
X91840000Y-49940000D01*
X153960000Y-90430000D02*
X154550000Y-90430000D01*
X154550000Y-90430000D02*
X155440000Y-89540000D01*
X102840000Y-38630000D02*
X102840000Y-37770000D01*
X102840000Y-37770000D02*
X102820000Y-37750000D01*
X101500000Y-38660000D02*
X100360000Y-38660000D01*
X89104201Y-49032404D02*
X89604200Y-49032404D01*
X89604200Y-49032404D02*
X89801796Y-49230000D01*
X89104201Y-49032404D02*
X89104201Y-48794487D01*
X89104201Y-48794487D02*
X89429201Y-48469487D01*
D12*
X107724316Y-35924903D02*
X107724316Y-40524316D01*
X155830000Y-59550000D02*
X154330000Y-61050000D01*
X107724316Y-40524316D02*
X110040000Y-42840000D01*
X154880000Y-50440000D02*
X154940000Y-50440000D01*
X110040000Y-42840000D02*
X147280000Y-42840000D01*
X147280000Y-42840000D02*
X154880000Y-50440000D01*
X154940000Y-50440000D02*
X155830000Y-51330000D01*
X155830000Y-51330000D02*
X155830000Y-59550000D01*
X154330000Y-61050000D02*
X130230000Y-61050000D01*
X130230000Y-61050000D02*
X128880000Y-62400000D01*
D27*
X151621732Y-91780000D02*
X152310000Y-91780000D01*
X152310000Y-91780000D02*
X154630000Y-94100000D01*
X92170000Y-44870000D02*
X91360000Y-44060000D01*
X91360000Y-44060000D02*
X91360000Y-43640000D01*
X92190000Y-44870000D02*
X92170000Y-44870000D01*
X92190000Y-44870000D02*
X92640000Y-45320000D01*
X92640000Y-45320000D02*
X96890000Y-45320000D01*
D29*
X92590000Y-47300000D02*
X92750000Y-47300000D01*
X92750000Y-47300000D02*
X93090000Y-46960000D01*
X91050000Y-47300000D02*
X92590000Y-47300000D01*
X90404201Y-46780737D02*
X90530737Y-46780737D01*
X90530737Y-46780737D02*
X91050000Y-47300000D01*
X90690000Y-48530000D02*
X92140000Y-48530000D01*
X93440000Y-49140000D02*
X92830000Y-48530000D01*
X92830000Y-48530000D02*
X92140000Y-48530000D01*
X89754201Y-47906571D02*
X90017638Y-48170008D01*
X90017638Y-48170008D02*
X90330008Y-48170008D01*
X90330008Y-48170008D02*
X90690000Y-48530000D01*
X90147061Y-48250000D02*
X90420000Y-48250000D01*
X89754201Y-47906571D02*
X89803632Y-47906571D01*
X89803632Y-47906571D02*
X90147061Y-48250000D01*
X90750000Y-47820000D02*
X90940000Y-47820000D01*
X93515736Y-47940000D02*
X91060000Y-47940000D01*
X91060000Y-47940000D02*
X90940000Y-47820000D01*
X94040000Y-48040000D02*
X93615736Y-48040000D01*
X93615736Y-48040000D02*
X93515736Y-47940000D01*
X90273654Y-47343654D02*
X90750000Y-47820000D01*
X90079201Y-47343654D02*
X90273654Y-47343654D01*
D27*
X100730000Y-59440000D02*
X100750000Y-59420000D01*
X100750000Y-59420000D02*
X119340000Y-59420000D01*
X119340000Y-59420000D02*
X119860000Y-59420000D01*
X127140000Y-58340000D02*
X126060000Y-59420000D01*
X126060000Y-59420000D02*
X119340000Y-59420000D01*
X141740000Y-58340000D02*
X127140000Y-58340000D01*
X142190000Y-57890000D02*
X141740000Y-58340000D01*
X142190000Y-54740000D02*
X142190000Y-57890000D01*
X143090000Y-53840000D02*
X142190000Y-54740000D01*
X149040000Y-53840000D02*
X145790000Y-53840000D01*
X145790000Y-53840000D02*
X143090000Y-53840000D01*
X147240000Y-52640000D02*
X142340000Y-52640000D01*
X141240000Y-56690000D02*
X140540000Y-57390000D01*
X142340000Y-52640000D02*
X141240000Y-53740000D01*
X141240000Y-53740000D02*
X141240000Y-56690000D01*
X103200000Y-58140000D02*
X101940000Y-56880000D01*
X140540000Y-57390000D02*
X126140000Y-57390000D01*
X126140000Y-57390000D02*
X125390000Y-58140000D01*
X125390000Y-58140000D02*
X103200000Y-58140000D01*
X101940000Y-56880000D02*
X100750000Y-56880000D01*
X147240000Y-52640000D02*
X147640000Y-52640000D01*
X149990000Y-52640000D02*
X147240000Y-52640000D01*
X100800000Y-119000000D02*
X98240000Y-116440000D01*
X98240000Y-116440000D02*
X98240000Y-81940000D01*
X104000000Y-119000000D02*
X100800000Y-119000000D01*
X104000000Y-119000000D02*
X104000000Y-118650000D01*
X104000000Y-122740000D02*
X104000000Y-121840000D01*
X104000000Y-122640000D02*
X104400000Y-122240000D01*
X104000000Y-124950000D02*
X104000000Y-122740000D01*
X104000000Y-122740000D02*
X104000000Y-122640000D01*
X104000000Y-121840000D02*
X104000000Y-119000000D01*
X106240000Y-122240000D02*
X104400000Y-122240000D01*
X104400000Y-122240000D02*
X104000000Y-121840000D01*
X104000000Y-125300000D02*
X104000000Y-124950000D01*
X116290000Y-60960000D02*
X126170000Y-60960000D01*
X143740000Y-58890000D02*
X143740000Y-57140000D01*
X143240000Y-59390000D02*
X143740000Y-58890000D01*
X126170000Y-60960000D02*
X127740000Y-59390000D01*
X127740000Y-59390000D02*
X143240000Y-59390000D01*
X150170000Y-97800000D02*
X147150866Y-94780866D01*
X147150866Y-94780866D02*
X147150866Y-94395000D01*
X157945660Y-67468922D02*
X156011078Y-67468922D01*
X156011078Y-67468922D02*
X155790000Y-67690000D01*
X100640000Y-116940000D02*
X99840000Y-116140000D01*
X99840000Y-116140000D02*
X99840000Y-81940000D01*
X112440000Y-116940000D02*
X100640000Y-116940000D01*
X113990000Y-118490000D02*
X112440000Y-116940000D01*
X113990000Y-127340000D02*
X113990000Y-118490000D01*
X113990000Y-127340000D02*
X113990000Y-130240000D01*
X113990000Y-123940000D02*
X113990000Y-127340000D01*
X102440000Y-115540000D02*
X101240000Y-114340000D01*
X101240000Y-114340000D02*
X101240000Y-81940000D01*
X123240000Y-115540000D02*
X102440000Y-115540000D01*
X124440000Y-116740000D02*
X123240000Y-115540000D01*
X124440000Y-122140000D02*
X124440000Y-116740000D01*
X124440000Y-122140000D02*
X124440000Y-125290000D01*
X124440000Y-122140000D02*
X124440000Y-118990000D01*
X98940000Y-52140000D02*
X123640000Y-52140000D01*
X125240000Y-52340000D02*
X123840000Y-52340000D01*
X123840000Y-52340000D02*
X123640000Y-52140000D01*
X102440000Y-52140000D02*
X102740000Y-52140000D01*
X98940000Y-52140000D02*
X102440000Y-52140000D01*
X102440000Y-52140000D02*
X105190000Y-52140000D01*
X98740000Y-53340000D02*
X123100000Y-53340000D01*
X125240000Y-53890000D02*
X123650000Y-53890000D01*
X123650000Y-53890000D02*
X123100000Y-53340000D01*
X149168196Y-70968196D02*
X148647659Y-70447659D01*
X148647659Y-70447659D02*
X148647659Y-69800363D01*
X153150342Y-70968196D02*
X149168196Y-70968196D01*
X138406560Y-72761203D02*
X139028797Y-72761203D01*
X139028797Y-72761203D02*
X139310000Y-72480000D01*
X139310000Y-72480000D02*
X140530000Y-72480000D01*
X140530000Y-72480000D02*
X141349637Y-73299637D01*
X141349637Y-73299637D02*
X143852341Y-73299637D01*
X134073440Y-81496560D02*
X133070000Y-82500000D01*
X133070000Y-82500000D02*
X129600000Y-82500000D01*
X134073440Y-76818797D02*
X134073440Y-81496560D01*
X124130158Y-87255416D02*
X125095574Y-86290000D01*
X125095574Y-86290000D02*
X126720000Y-86290000D01*
X128000000Y-85010000D02*
X128000000Y-81000000D01*
X126720000Y-86290000D02*
X128000000Y-85010000D01*
X128000000Y-81000000D02*
X126400000Y-79400000D01*
X126400000Y-79400000D02*
X126400000Y-77500000D01*
X121869842Y-92744584D02*
X113474584Y-92744584D01*
X113474584Y-92744584D02*
X111070000Y-90340000D01*
X111070000Y-90340000D02*
X108277727Y-90340000D01*
X108277727Y-90340000D02*
X107056429Y-89118702D01*
X112943571Y-89881298D02*
X112943571Y-81956429D01*
X112943571Y-81956429D02*
X113300000Y-81600000D01*
X113300000Y-81600000D02*
X114500000Y-81600000D01*
X121640000Y-72260000D02*
X123270000Y-70630000D01*
X119500000Y-78400000D02*
X119800000Y-78400000D01*
X119800000Y-78400000D02*
X121640000Y-76560000D01*
X121640000Y-76560000D02*
X121640000Y-72260000D01*
X123270000Y-70630000D02*
X124638262Y-70630000D01*
X124638262Y-70630000D02*
X125556920Y-71548658D01*
X111630158Y-68255416D02*
X117139132Y-68255416D01*
X117139132Y-68255416D02*
X119669778Y-70786062D01*
X105195416Y-73744584D02*
X103900000Y-75040000D01*
X103900000Y-75040000D02*
X103900000Y-77500000D01*
X109369842Y-73744584D02*
X105195416Y-73744584D01*
X92025000Y-82125000D02*
X92025000Y-81225000D01*
X92025000Y-81225000D02*
X92670000Y-80580000D01*
X92670000Y-80580000D02*
X106380000Y-80580000D01*
X106380000Y-80580000D02*
X107100000Y-81300000D01*
X107100000Y-81300000D02*
X107100000Y-82500000D01*
X87025000Y-85325000D02*
X85695000Y-85325000D01*
X85695000Y-85325000D02*
X84940000Y-84570000D01*
X83840000Y-70140000D02*
X75540000Y-70140000D01*
X84940000Y-84570000D02*
X84940000Y-71240000D01*
X84940000Y-71240000D02*
X83840000Y-70140000D01*
X75540000Y-70140000D02*
X74650000Y-69250000D01*
D30*
G36*
X106761673Y-117790302D02*
X106665000Y-118023691D01*
X106665000Y-118714250D01*
X106823750Y-118873000D01*
X107673000Y-118873000D01*
X107673000Y-118853000D01*
X107927000Y-118853000D01*
X107927000Y-118873000D01*
X108776250Y-118873000D01*
X108935000Y-118714250D01*
X108935000Y-118023691D01*
X108838327Y-117790302D01*
X108823025Y-117775000D01*
X112094132Y-117775000D01*
X113155000Y-118835868D01*
X113155000Y-122550982D01*
X113038559Y-122625910D01*
X112893569Y-122838110D01*
X112842560Y-123090000D01*
X112842560Y-124790000D01*
X112886838Y-125025317D01*
X113025910Y-125241441D01*
X113155000Y-125329644D01*
X113155000Y-126711108D01*
X113113081Y-126752954D01*
X112955180Y-127133223D01*
X112954821Y-127544971D01*
X113112058Y-127925515D01*
X113155000Y-127968532D01*
X113155000Y-128850982D01*
X113038559Y-128925910D01*
X112893569Y-129138110D01*
X112842560Y-129390000D01*
X112842560Y-130860074D01*
X112382230Y-130866684D01*
X110549972Y-130738554D01*
X108781373Y-130440015D01*
X107103000Y-129924719D01*
X105610856Y-129185963D01*
X103684359Y-126797440D01*
X104500000Y-126797440D01*
X104735317Y-126753162D01*
X104951441Y-126614090D01*
X105096431Y-126401890D01*
X105147440Y-126150000D01*
X105147440Y-125585750D01*
X106665000Y-125585750D01*
X106665000Y-126276309D01*
X106761673Y-126509698D01*
X106940301Y-126688327D01*
X107173690Y-126785000D01*
X107514250Y-126785000D01*
X107673000Y-126626250D01*
X107673000Y-125427000D01*
X107927000Y-125427000D01*
X107927000Y-126626250D01*
X108085750Y-126785000D01*
X108426310Y-126785000D01*
X108659699Y-126688327D01*
X108838327Y-126509698D01*
X108935000Y-126276309D01*
X108935000Y-125585750D01*
X108776250Y-125427000D01*
X107927000Y-125427000D01*
X107673000Y-125427000D01*
X106823750Y-125427000D01*
X106665000Y-125585750D01*
X105147440Y-125585750D01*
X105147440Y-124450000D01*
X105123674Y-124323691D01*
X106665000Y-124323691D01*
X106665000Y-125014250D01*
X106823750Y-125173000D01*
X107673000Y-125173000D01*
X107673000Y-123973750D01*
X107927000Y-123973750D01*
X107927000Y-125173000D01*
X108776250Y-125173000D01*
X108935000Y-125014250D01*
X108935000Y-124323691D01*
X108838327Y-124090302D01*
X108659699Y-123911673D01*
X108426310Y-123815000D01*
X108085750Y-123815000D01*
X107927000Y-123973750D01*
X107673000Y-123973750D01*
X107514250Y-123815000D01*
X107173690Y-123815000D01*
X106940301Y-123911673D01*
X106761673Y-124090302D01*
X106665000Y-124323691D01*
X105123674Y-124323691D01*
X105103162Y-124214683D01*
X104964090Y-123998559D01*
X104835000Y-123910356D01*
X104835000Y-123075000D01*
X105611108Y-123075000D01*
X105652954Y-123116919D01*
X106033223Y-123274820D01*
X106444971Y-123275179D01*
X106825515Y-123117942D01*
X107116919Y-122827046D01*
X107274820Y-122446777D01*
X107275179Y-122035029D01*
X107117942Y-121654485D01*
X106827046Y-121363081D01*
X106446777Y-121205180D01*
X106035029Y-121204821D01*
X105654485Y-121362058D01*
X105611468Y-121405000D01*
X104835000Y-121405000D01*
X104835000Y-120389018D01*
X104951441Y-120314090D01*
X105096431Y-120101890D01*
X105147440Y-119850000D01*
X105147440Y-119285750D01*
X106665000Y-119285750D01*
X106665000Y-119976309D01*
X106761673Y-120209698D01*
X106940301Y-120388327D01*
X107173690Y-120485000D01*
X107514250Y-120485000D01*
X107673000Y-120326250D01*
X107673000Y-119127000D01*
X107927000Y-119127000D01*
X107927000Y-120326250D01*
X108085750Y-120485000D01*
X108426310Y-120485000D01*
X108659699Y-120388327D01*
X108838327Y-120209698D01*
X108935000Y-119976309D01*
X108935000Y-119285750D01*
X108776250Y-119127000D01*
X107927000Y-119127000D01*
X107673000Y-119127000D01*
X106823750Y-119127000D01*
X106665000Y-119285750D01*
X105147440Y-119285750D01*
X105147440Y-118150000D01*
X105103162Y-117914683D01*
X105013278Y-117775000D01*
X106776975Y-117775000D01*
X106761673Y-117790302D01*
X106761673Y-117790302D01*
G37*
X106761673Y-117790302D02*
X106665000Y-118023691D01*
X106665000Y-118714250D01*
X106823750Y-118873000D01*
X107673000Y-118873000D01*
X107673000Y-118853000D01*
X107927000Y-118853000D01*
X107927000Y-118873000D01*
X108776250Y-118873000D01*
X108935000Y-118714250D01*
X108935000Y-118023691D01*
X108838327Y-117790302D01*
X108823025Y-117775000D01*
X112094132Y-117775000D01*
X113155000Y-118835868D01*
X113155000Y-122550982D01*
X113038559Y-122625910D01*
X112893569Y-122838110D01*
X112842560Y-123090000D01*
X112842560Y-124790000D01*
X112886838Y-125025317D01*
X113025910Y-125241441D01*
X113155000Y-125329644D01*
X113155000Y-126711108D01*
X113113081Y-126752954D01*
X112955180Y-127133223D01*
X112954821Y-127544971D01*
X113112058Y-127925515D01*
X113155000Y-127968532D01*
X113155000Y-128850982D01*
X113038559Y-128925910D01*
X112893569Y-129138110D01*
X112842560Y-129390000D01*
X112842560Y-130860074D01*
X112382230Y-130866684D01*
X110549972Y-130738554D01*
X108781373Y-130440015D01*
X107103000Y-129924719D01*
X105610856Y-129185963D01*
X103684359Y-126797440D01*
X104500000Y-126797440D01*
X104735317Y-126753162D01*
X104951441Y-126614090D01*
X105096431Y-126401890D01*
X105147440Y-126150000D01*
X105147440Y-125585750D01*
X106665000Y-125585750D01*
X106665000Y-126276309D01*
X106761673Y-126509698D01*
X106940301Y-126688327D01*
X107173690Y-126785000D01*
X107514250Y-126785000D01*
X107673000Y-126626250D01*
X107673000Y-125427000D01*
X107927000Y-125427000D01*
X107927000Y-126626250D01*
X108085750Y-126785000D01*
X108426310Y-126785000D01*
X108659699Y-126688327D01*
X108838327Y-126509698D01*
X108935000Y-126276309D01*
X108935000Y-125585750D01*
X108776250Y-125427000D01*
X107927000Y-125427000D01*
X107673000Y-125427000D01*
X106823750Y-125427000D01*
X106665000Y-125585750D01*
X105147440Y-125585750D01*
X105147440Y-124450000D01*
X105123674Y-124323691D01*
X106665000Y-124323691D01*
X106665000Y-125014250D01*
X106823750Y-125173000D01*
X107673000Y-125173000D01*
X107673000Y-123973750D01*
X107927000Y-123973750D01*
X107927000Y-125173000D01*
X108776250Y-125173000D01*
X108935000Y-125014250D01*
X108935000Y-124323691D01*
X108838327Y-124090302D01*
X108659699Y-123911673D01*
X108426310Y-123815000D01*
X108085750Y-123815000D01*
X107927000Y-123973750D01*
X107673000Y-123973750D01*
X107514250Y-123815000D01*
X107173690Y-123815000D01*
X106940301Y-123911673D01*
X106761673Y-124090302D01*
X106665000Y-124323691D01*
X105123674Y-124323691D01*
X105103162Y-124214683D01*
X104964090Y-123998559D01*
X104835000Y-123910356D01*
X104835000Y-123075000D01*
X105611108Y-123075000D01*
X105652954Y-123116919D01*
X106033223Y-123274820D01*
X106444971Y-123275179D01*
X106825515Y-123117942D01*
X107116919Y-122827046D01*
X107274820Y-122446777D01*
X107275179Y-122035029D01*
X107117942Y-121654485D01*
X106827046Y-121363081D01*
X106446777Y-121205180D01*
X106035029Y-121204821D01*
X105654485Y-121362058D01*
X105611468Y-121405000D01*
X104835000Y-121405000D01*
X104835000Y-120389018D01*
X104951441Y-120314090D01*
X105096431Y-120101890D01*
X105147440Y-119850000D01*
X105147440Y-119285750D01*
X106665000Y-119285750D01*
X106665000Y-119976309D01*
X106761673Y-120209698D01*
X106940301Y-120388327D01*
X107173690Y-120485000D01*
X107514250Y-120485000D01*
X107673000Y-120326250D01*
X107673000Y-119127000D01*
X107927000Y-119127000D01*
X107927000Y-120326250D01*
X108085750Y-120485000D01*
X108426310Y-120485000D01*
X108659699Y-120388327D01*
X108838327Y-120209698D01*
X108935000Y-119976309D01*
X108935000Y-119285750D01*
X108776250Y-119127000D01*
X107927000Y-119127000D01*
X107673000Y-119127000D01*
X106823750Y-119127000D01*
X106665000Y-119285750D01*
X105147440Y-119285750D01*
X105147440Y-118150000D01*
X105103162Y-117914683D01*
X105013278Y-117775000D01*
X106776975Y-117775000D01*
X106761673Y-117790302D01*
G36*
X157432833Y-52060118D02*
X157862058Y-53223531D01*
X158135600Y-54504689D01*
X158281967Y-55856626D01*
X158335851Y-58666510D01*
X158356167Y-58759306D01*
X158364408Y-58853932D01*
X158385952Y-58895358D01*
X158395938Y-58940971D01*
X158450213Y-59018921D01*
X158494043Y-59103199D01*
X158529804Y-59133230D01*
X158556482Y-59171545D01*
X158636452Y-59222789D01*
X158709201Y-59283882D01*
X160063840Y-60027753D01*
X160899124Y-60938316D01*
X161381899Y-62030727D01*
X161546405Y-63275061D01*
X161408248Y-64611697D01*
X160990676Y-65960787D01*
X160328516Y-67237819D01*
X159422629Y-68415979D01*
X159367611Y-68527267D01*
X159307504Y-68635899D01*
X159305604Y-68652693D01*
X159298114Y-68667843D01*
X159289871Y-68791724D01*
X159275913Y-68915078D01*
X159280583Y-68931318D01*
X159279461Y-68948184D01*
X159319250Y-69065782D01*
X159353561Y-69185095D01*
X159364093Y-69198315D01*
X159369510Y-69214324D01*
X159451271Y-69307741D01*
X159528632Y-69404845D01*
X160636743Y-70341477D01*
X161603451Y-71389017D01*
X162457195Y-72558473D01*
X163180366Y-73812831D01*
X164254379Y-76582591D01*
X164737904Y-79431747D01*
X164211417Y-82982380D01*
X163277555Y-86638870D01*
X161946076Y-90211937D01*
X160217148Y-93589096D01*
X158092561Y-96659569D01*
X155563222Y-99328294D01*
X154169323Y-100459513D01*
X152665822Y-101458464D01*
X151063577Y-102303617D01*
X149324661Y-102997454D01*
X149244418Y-103049569D01*
X149158248Y-103091117D01*
X149127616Y-103125427D01*
X149089032Y-103150486D01*
X149034842Y-103229340D01*
X148971130Y-103300702D01*
X148955958Y-103344128D01*
X148929904Y-103382040D01*
X148910017Y-103475620D01*
X148878460Y-103565941D01*
X148439913Y-106683038D01*
X147813479Y-109809304D01*
X147345864Y-111273695D01*
X146723177Y-112659545D01*
X145914515Y-113935845D01*
X144861239Y-115109286D01*
X139302483Y-120246140D01*
X136421512Y-122764389D01*
X133441111Y-125103635D01*
X130331822Y-127162930D01*
X127064067Y-128843906D01*
X123590770Y-130056692D01*
X121792217Y-130450837D01*
X119920867Y-130694011D01*
X118925000Y-130725526D01*
X118925000Y-130525750D01*
X118766250Y-130367000D01*
X117917000Y-130367000D01*
X117917000Y-130387000D01*
X117663000Y-130387000D01*
X117663000Y-130367000D01*
X116813750Y-130367000D01*
X116655000Y-130525750D01*
X116655000Y-130797362D01*
X116193854Y-130811955D01*
X115137440Y-130827124D01*
X115137440Y-129390000D01*
X115113674Y-129263691D01*
X116655000Y-129263691D01*
X116655000Y-129954250D01*
X116813750Y-130113000D01*
X117663000Y-130113000D01*
X117663000Y-128913750D01*
X117917000Y-128913750D01*
X117917000Y-130113000D01*
X118766250Y-130113000D01*
X118925000Y-129954250D01*
X118925000Y-129263691D01*
X118828327Y-129030302D01*
X118649699Y-128851673D01*
X118416310Y-128755000D01*
X118075750Y-128755000D01*
X117917000Y-128913750D01*
X117663000Y-128913750D01*
X117504250Y-128755000D01*
X117163690Y-128755000D01*
X116930301Y-128851673D01*
X116751673Y-129030302D01*
X116655000Y-129263691D01*
X115113674Y-129263691D01*
X115093162Y-129154683D01*
X114954090Y-128938559D01*
X114825000Y-128850356D01*
X114825000Y-127968892D01*
X114866919Y-127927046D01*
X115024820Y-127546777D01*
X115025179Y-127135029D01*
X114867942Y-126754485D01*
X114825000Y-126711468D01*
X114825000Y-125329018D01*
X114941441Y-125254090D01*
X115086431Y-125041890D01*
X115137440Y-124790000D01*
X115137440Y-124225750D01*
X116655000Y-124225750D01*
X116655000Y-124916309D01*
X116751673Y-125149698D01*
X116930301Y-125328327D01*
X117163690Y-125425000D01*
X117504250Y-125425000D01*
X117663000Y-125266250D01*
X117663000Y-124067000D01*
X117917000Y-124067000D01*
X117917000Y-125266250D01*
X118075750Y-125425000D01*
X118416310Y-125425000D01*
X118649699Y-125328327D01*
X118828327Y-125149698D01*
X118925000Y-124916309D01*
X118925000Y-124225750D01*
X118766250Y-124067000D01*
X117917000Y-124067000D01*
X117663000Y-124067000D01*
X116813750Y-124067000D01*
X116655000Y-124225750D01*
X115137440Y-124225750D01*
X115137440Y-123090000D01*
X115113674Y-122963691D01*
X116655000Y-122963691D01*
X116655000Y-123654250D01*
X116813750Y-123813000D01*
X117663000Y-123813000D01*
X117663000Y-122613750D01*
X117917000Y-122613750D01*
X117917000Y-123813000D01*
X118766250Y-123813000D01*
X118925000Y-123654250D01*
X118925000Y-122963691D01*
X118828327Y-122730302D01*
X118649699Y-122551673D01*
X118416310Y-122455000D01*
X118075750Y-122455000D01*
X117917000Y-122613750D01*
X117663000Y-122613750D01*
X117504250Y-122455000D01*
X117163690Y-122455000D01*
X116930301Y-122551673D01*
X116751673Y-122730302D01*
X116655000Y-122963691D01*
X115113674Y-122963691D01*
X115093162Y-122854683D01*
X114954090Y-122638559D01*
X114825000Y-122550356D01*
X114825000Y-118490000D01*
X114761439Y-118170459D01*
X114580434Y-117899566D01*
X113055868Y-116375000D01*
X122894132Y-116375000D01*
X123605000Y-117085868D01*
X123605000Y-117600982D01*
X123488559Y-117675910D01*
X123343569Y-117888110D01*
X123292560Y-118140000D01*
X123292560Y-119840000D01*
X123336838Y-120075317D01*
X123475910Y-120291441D01*
X123605000Y-120379644D01*
X123605000Y-121511108D01*
X123563081Y-121552954D01*
X123405180Y-121933223D01*
X123404821Y-122344971D01*
X123562058Y-122725515D01*
X123605000Y-122768532D01*
X123605000Y-123900982D01*
X123488559Y-123975910D01*
X123343569Y-124188110D01*
X123292560Y-124440000D01*
X123292560Y-126140000D01*
X123336838Y-126375317D01*
X123475910Y-126591441D01*
X123688110Y-126736431D01*
X123940000Y-126787440D01*
X124940000Y-126787440D01*
X125175317Y-126743162D01*
X125391441Y-126604090D01*
X125536431Y-126391890D01*
X125587440Y-126140000D01*
X125587440Y-125575750D01*
X127105000Y-125575750D01*
X127105000Y-126266309D01*
X127201673Y-126499698D01*
X127380301Y-126678327D01*
X127613690Y-126775000D01*
X127954250Y-126775000D01*
X128113000Y-126616250D01*
X128113000Y-125417000D01*
X128367000Y-125417000D01*
X128367000Y-126616250D01*
X128525750Y-126775000D01*
X128866310Y-126775000D01*
X129099699Y-126678327D01*
X129278327Y-126499698D01*
X129375000Y-126266309D01*
X129375000Y-125575750D01*
X129216250Y-125417000D01*
X128367000Y-125417000D01*
X128113000Y-125417000D01*
X127263750Y-125417000D01*
X127105000Y-125575750D01*
X125587440Y-125575750D01*
X125587440Y-124440000D01*
X125563674Y-124313691D01*
X127105000Y-124313691D01*
X127105000Y-125004250D01*
X127263750Y-125163000D01*
X128113000Y-125163000D01*
X128113000Y-123963750D01*
X128367000Y-123963750D01*
X128367000Y-125163000D01*
X129216250Y-125163000D01*
X129375000Y-125004250D01*
X129375000Y-124313691D01*
X129278327Y-124080302D01*
X129099699Y-123901673D01*
X128866310Y-123805000D01*
X128525750Y-123805000D01*
X128367000Y-123963750D01*
X128113000Y-123963750D01*
X127954250Y-123805000D01*
X127613690Y-123805000D01*
X127380301Y-123901673D01*
X127201673Y-124080302D01*
X127105000Y-124313691D01*
X125563674Y-124313691D01*
X125543162Y-124204683D01*
X125404090Y-123988559D01*
X125275000Y-123900356D01*
X125275000Y-122768892D01*
X125316919Y-122727046D01*
X125474820Y-122346777D01*
X125475179Y-121935029D01*
X125317942Y-121554485D01*
X125275000Y-121511468D01*
X125275000Y-120379018D01*
X125391441Y-120304090D01*
X125536431Y-120091890D01*
X125587440Y-119840000D01*
X125587440Y-119275750D01*
X127105000Y-119275750D01*
X127105000Y-119966309D01*
X127201673Y-120199698D01*
X127380301Y-120378327D01*
X127613690Y-120475000D01*
X127954250Y-120475000D01*
X128113000Y-120316250D01*
X128113000Y-119117000D01*
X128367000Y-119117000D01*
X128367000Y-120316250D01*
X128525750Y-120475000D01*
X128866310Y-120475000D01*
X129099699Y-120378327D01*
X129278327Y-120199698D01*
X129375000Y-119966309D01*
X129375000Y-119275750D01*
X129216250Y-119117000D01*
X128367000Y-119117000D01*
X128113000Y-119117000D01*
X127263750Y-119117000D01*
X127105000Y-119275750D01*
X125587440Y-119275750D01*
X125587440Y-118140000D01*
X125563674Y-118013691D01*
X127105000Y-118013691D01*
X127105000Y-118704250D01*
X127263750Y-118863000D01*
X128113000Y-118863000D01*
X128113000Y-117663750D01*
X128367000Y-117663750D01*
X128367000Y-118863000D01*
X129216250Y-118863000D01*
X129375000Y-118704250D01*
X129375000Y-118013691D01*
X129278327Y-117780302D01*
X129099699Y-117601673D01*
X128866310Y-117505000D01*
X128525750Y-117505000D01*
X128367000Y-117663750D01*
X128113000Y-117663750D01*
X127954250Y-117505000D01*
X127613690Y-117505000D01*
X127380301Y-117601673D01*
X127201673Y-117780302D01*
X127105000Y-118013691D01*
X125563674Y-118013691D01*
X125543162Y-117904683D01*
X125404090Y-117688559D01*
X125275000Y-117600356D01*
X125275000Y-116740000D01*
X125211439Y-116420459D01*
X125030434Y-116149566D01*
X123830434Y-114949566D01*
X123749948Y-114895787D01*
X123559541Y-114768561D01*
X123240000Y-114705000D01*
X102785868Y-114705000D01*
X102075000Y-113994132D01*
X102075000Y-82568892D01*
X102116919Y-82527046D01*
X102274820Y-82146777D01*
X102275179Y-81735029D01*
X102142946Y-81415000D01*
X102826192Y-81415000D01*
X102803569Y-81448110D01*
X102752560Y-81700000D01*
X102752560Y-82114253D01*
X102651397Y-82265654D01*
X102565000Y-82700000D01*
X102565000Y-83618156D01*
X102498559Y-83660910D01*
X102353569Y-83873110D01*
X102302560Y-84125000D01*
X102302560Y-85375000D01*
X102346838Y-85610317D01*
X102485910Y-85826441D01*
X102565000Y-85880481D01*
X102565000Y-90352957D01*
X102465215Y-90593266D01*
X102464786Y-91084579D01*
X102565000Y-91327114D01*
X102565000Y-94400000D01*
X102651397Y-94834346D01*
X102888104Y-95188603D01*
X102897434Y-95202566D01*
X103637434Y-95942566D01*
X104005654Y-96188603D01*
X104440000Y-96275000D01*
X108671041Y-96275000D01*
X108855521Y-96238305D01*
X109040000Y-96275000D01*
X110244071Y-96275000D01*
X110394071Y-96245163D01*
X110544071Y-96275000D01*
X117756186Y-96275000D01*
X117142874Y-96887242D01*
X116779015Y-97763513D01*
X116778187Y-98712325D01*
X117140516Y-99589229D01*
X117810842Y-100260726D01*
X118687113Y-100624585D01*
X119635925Y-100625413D01*
X120512829Y-100263084D01*
X121184326Y-99592758D01*
X121548185Y-98716487D01*
X121549013Y-97767675D01*
X121186684Y-96890771D01*
X120571987Y-96275000D01*
X130440000Y-96275000D01*
X130874346Y-96188603D01*
X131242566Y-95942566D01*
X134210132Y-92975000D01*
X147015498Y-92975000D01*
X145852627Y-93646384D01*
X145670976Y-93802388D01*
X145553343Y-94030890D01*
X145533877Y-94287155D01*
X145615647Y-94530803D01*
X146265647Y-95656637D01*
X146421652Y-95838288D01*
X146650154Y-95955921D01*
X146906419Y-95975386D01*
X147099664Y-95910532D01*
X148373968Y-97184836D01*
X148317573Y-97294384D01*
X148298108Y-97550649D01*
X148379877Y-97794297D01*
X149279877Y-99353143D01*
X149435882Y-99534794D01*
X149664384Y-99652427D01*
X149920649Y-99671892D01*
X150164297Y-99590123D01*
X151723143Y-98690123D01*
X151904794Y-98534118D01*
X152022427Y-98305616D01*
X152041892Y-98049351D01*
X151997047Y-97915723D01*
X152129882Y-97915723D01*
X152332954Y-98094641D01*
X152934513Y-97989604D01*
X153450086Y-97662355D01*
X153743099Y-97280493D01*
X153689688Y-97015168D01*
X152459508Y-96685543D01*
X152129882Y-97915723D01*
X151997047Y-97915723D01*
X151960123Y-97805703D01*
X151916601Y-97730320D01*
X152124359Y-96954954D01*
X152355564Y-96723749D01*
X152175956Y-96544141D01*
X152124357Y-96595740D01*
X151543864Y-96440197D01*
X152525248Y-96440197D01*
X153755428Y-96769823D01*
X153934346Y-96566751D01*
X153829309Y-95965192D01*
X153502060Y-95449619D01*
X153120198Y-95156606D01*
X152854873Y-95210017D01*
X152525248Y-96440197D01*
X151543864Y-96440197D01*
X151103646Y-96322241D01*
X151060123Y-96246857D01*
X150904118Y-96065206D01*
X150675616Y-95947573D01*
X150419351Y-95928108D01*
X150175703Y-96009877D01*
X149785835Y-96234967D01*
X149330375Y-95779507D01*
X150996311Y-95779507D01*
X151049722Y-96044832D01*
X152279902Y-96374457D01*
X152609528Y-95144277D01*
X152406456Y-94965359D01*
X151804897Y-95070396D01*
X151289324Y-95397645D01*
X150996311Y-95779507D01*
X149330375Y-95779507D01*
X148581114Y-95030246D01*
X148630756Y-94987612D01*
X148748389Y-94759110D01*
X148767855Y-94502845D01*
X148763606Y-94490186D01*
X148988422Y-94605921D01*
X149244687Y-94625386D01*
X149488335Y-94543616D01*
X150787373Y-93793616D01*
X150969024Y-93637612D01*
X151086657Y-93409110D01*
X151092935Y-93326463D01*
X151121020Y-93340921D01*
X151377285Y-93360386D01*
X151620933Y-93278616D01*
X152259228Y-92910096D01*
X152833968Y-93484836D01*
X152777573Y-93594384D01*
X152758108Y-93850649D01*
X152839877Y-94094297D01*
X153739877Y-95653143D01*
X153895882Y-95834794D01*
X154124384Y-95952427D01*
X154380649Y-95971892D01*
X154624297Y-95890123D01*
X156183143Y-94990123D01*
X156364794Y-94834118D01*
X156482427Y-94605616D01*
X156501406Y-94355752D01*
X156523035Y-94364733D01*
X157133696Y-94365265D01*
X157698076Y-94132068D01*
X158130256Y-93700643D01*
X158364438Y-93136670D01*
X158364970Y-92526009D01*
X158131773Y-91961629D01*
X157700348Y-91529449D01*
X157136375Y-91295267D01*
X156525714Y-91294735D01*
X155961334Y-91527932D01*
X155529154Y-91959357D01*
X155361245Y-92363727D01*
X155135616Y-92247573D01*
X154879351Y-92228108D01*
X154635703Y-92309877D01*
X154245835Y-92534967D01*
X153709516Y-91998648D01*
X153843594Y-91980997D01*
X154355033Y-91685718D01*
X154413140Y-91468861D01*
X153913515Y-90603485D01*
X153896194Y-90613485D01*
X153817097Y-90476485D01*
X154133485Y-90476485D01*
X154633110Y-91341861D01*
X154849967Y-91399968D01*
X155361406Y-91104688D01*
X155515190Y-90904272D01*
X155580573Y-90660261D01*
X155547600Y-90409804D01*
X155421291Y-90191030D01*
X155302320Y-89984967D01*
X155085464Y-89926860D01*
X154133485Y-90476485D01*
X153817097Y-90476485D01*
X153769194Y-90393515D01*
X153786515Y-90383515D01*
X153286890Y-89518139D01*
X153070033Y-89460032D01*
X152558594Y-89755312D01*
X152404810Y-89955728D01*
X152339427Y-90199739D01*
X152358639Y-90345670D01*
X152350946Y-90336712D01*
X152122444Y-90219079D01*
X151866179Y-90199614D01*
X151622531Y-90281384D01*
X150323493Y-91031384D01*
X150141842Y-91187388D01*
X150024209Y-91415890D01*
X150017931Y-91498537D01*
X149989846Y-91484079D01*
X149733581Y-91464614D01*
X149569086Y-91519820D01*
X149086700Y-91037434D01*
X149051735Y-91014071D01*
X148718480Y-90791397D01*
X148284134Y-90705000D01*
X133740000Y-90705000D01*
X133305654Y-90791397D01*
X132972399Y-91014071D01*
X132937434Y-91037434D01*
X129969868Y-94005000D01*
X125375000Y-94005000D01*
X125375000Y-91350779D01*
X125611193Y-91392425D01*
X125857823Y-91337749D01*
X126382539Y-90970339D01*
X126421524Y-90749243D01*
X125934414Y-90053579D01*
X125918031Y-90065051D01*
X125807986Y-89907890D01*
X126142479Y-89907890D01*
X126629588Y-90603555D01*
X126850684Y-90642540D01*
X127375399Y-90275131D01*
X127511131Y-90062074D01*
X127554998Y-89813293D01*
X127500322Y-89566663D01*
X127377419Y-89391139D01*
X153506860Y-89391139D01*
X154006485Y-90256515D01*
X154958464Y-89706890D01*
X155016570Y-89490033D01*
X154897600Y-89283970D01*
X154771290Y-89065196D01*
X154570874Y-88911412D01*
X154326863Y-88846030D01*
X154076406Y-88879003D01*
X153564967Y-89174282D01*
X153506860Y-89391139D01*
X127377419Y-89391139D01*
X127355426Y-89359730D01*
X127304985Y-89287693D01*
X127083889Y-89248707D01*
X126142479Y-89907890D01*
X125807986Y-89907890D01*
X125772342Y-89856985D01*
X125788725Y-89845514D01*
X125301616Y-89149849D01*
X125080520Y-89110864D01*
X124555805Y-89478273D01*
X124420073Y-89691330D01*
X124416534Y-89711402D01*
X123709293Y-89004161D01*
X125509680Y-89004161D01*
X125996790Y-89699825D01*
X126938201Y-89040643D01*
X126977186Y-88819547D01*
X126926745Y-88747510D01*
X126781849Y-88540577D01*
X126568792Y-88404845D01*
X126320011Y-88360979D01*
X126073381Y-88415655D01*
X125548665Y-88783065D01*
X125509680Y-89004161D01*
X123709293Y-89004161D01*
X123380743Y-88675611D01*
X123328796Y-88640901D01*
X123012523Y-88429574D01*
X122578177Y-88343177D01*
X120807080Y-88343177D01*
X121088634Y-88146031D01*
X121127619Y-87924935D01*
X120568812Y-87126877D01*
X120552429Y-87138349D01*
X120442384Y-86981188D01*
X120776877Y-86981188D01*
X121335683Y-87779247D01*
X121556779Y-87818232D01*
X122040537Y-87479501D01*
X122176268Y-87266445D01*
X122220136Y-87017664D01*
X122165459Y-86771034D01*
X122020563Y-86564100D01*
X121898425Y-86389669D01*
X121677329Y-86350684D01*
X120776877Y-86981188D01*
X120442384Y-86981188D01*
X120406740Y-86930283D01*
X120423123Y-86918812D01*
X120411651Y-86902429D01*
X120619717Y-86756740D01*
X120631188Y-86773123D01*
X121531641Y-86142620D01*
X121570626Y-85921524D01*
X121448488Y-85747093D01*
X121303592Y-85540160D01*
X121090536Y-85404428D01*
X120841754Y-85360562D01*
X120835000Y-85362059D01*
X120835000Y-84985000D01*
X123430000Y-84985000D01*
X123864346Y-84898603D01*
X124232566Y-84652566D01*
X125242566Y-83642566D01*
X125311712Y-83539082D01*
X125361673Y-83659698D01*
X125540301Y-83838327D01*
X125773690Y-83935000D01*
X126114250Y-83935000D01*
X126273000Y-83776250D01*
X126273000Y-82627000D01*
X126253000Y-82627000D01*
X126253000Y-82373000D01*
X126273000Y-82373000D01*
X126273000Y-81223750D01*
X126114250Y-81065000D01*
X125773690Y-81065000D01*
X125575000Y-81147300D01*
X125575000Y-79450273D01*
X125628561Y-79719541D01*
X125709671Y-79840930D01*
X125809566Y-79990434D01*
X126884132Y-81065000D01*
X126685750Y-81065000D01*
X126527000Y-81223750D01*
X126527000Y-82373000D01*
X126547000Y-82373000D01*
X126547000Y-82627000D01*
X126527000Y-82627000D01*
X126527000Y-83776250D01*
X126685750Y-83935000D01*
X127026310Y-83935000D01*
X127165000Y-83877553D01*
X127165000Y-84664132D01*
X126374132Y-85455000D01*
X125095574Y-85455000D01*
X124776033Y-85518561D01*
X124587492Y-85644540D01*
X124505140Y-85699566D01*
X124451791Y-85752915D01*
X124362929Y-85753933D01*
X124127335Y-85856627D01*
X122816692Y-86774349D01*
X122649328Y-86945592D01*
X122552058Y-87183477D01*
X122555002Y-87440463D01*
X122657696Y-87676058D01*
X123231273Y-88495210D01*
X123402516Y-88662573D01*
X123640401Y-88759843D01*
X123897387Y-88756899D01*
X124132981Y-88654205D01*
X125443624Y-87736483D01*
X125610988Y-87565240D01*
X125708258Y-87327355D01*
X125705940Y-87125000D01*
X126720000Y-87125000D01*
X127039541Y-87061439D01*
X127310434Y-86880434D01*
X128590434Y-85600434D01*
X128630815Y-85540000D01*
X128771439Y-85329541D01*
X128835000Y-85010000D01*
X128835000Y-83887473D01*
X128848110Y-83896431D01*
X129100000Y-83947440D01*
X130100000Y-83947440D01*
X130335317Y-83903162D01*
X130551441Y-83764090D01*
X130696431Y-83551890D01*
X130740352Y-83335000D01*
X133070000Y-83335000D01*
X133389541Y-83271439D01*
X133660434Y-83090434D01*
X134663874Y-82086994D01*
X134735524Y-81979762D01*
X134844879Y-81816101D01*
X134908440Y-81496560D01*
X134908440Y-77831021D01*
X135069149Y-77801235D01*
X135292456Y-77714815D01*
X135479617Y-77538686D01*
X135583509Y-77303617D01*
X135587761Y-77046649D01*
X135477196Y-76450092D01*
X137630817Y-76450092D01*
X137646843Y-76536560D01*
X137692879Y-76784949D01*
X137830465Y-76996813D01*
X138038655Y-77139897D01*
X138285753Y-77192420D01*
X138915586Y-77075687D01*
X139042748Y-76890666D01*
X138887985Y-76055636D01*
X137757979Y-76265070D01*
X137630817Y-76450092D01*
X135477196Y-76450092D01*
X135405525Y-76063394D01*
X135319105Y-75840087D01*
X135142976Y-75652926D01*
X134917572Y-75553305D01*
X137464607Y-75553305D01*
X137510643Y-75801693D01*
X137526669Y-75888162D01*
X137711691Y-76015324D01*
X137743934Y-76009348D01*
X139137731Y-76009348D01*
X139292495Y-76844378D01*
X139477516Y-76971540D01*
X140107349Y-76854807D01*
X140319213Y-76717221D01*
X140462298Y-76509032D01*
X140514821Y-76261933D01*
X140468785Y-76013545D01*
X140452759Y-75927076D01*
X140267737Y-75799914D01*
X139137731Y-76009348D01*
X137743934Y-76009348D01*
X138841697Y-75805890D01*
X138686933Y-74970860D01*
X138619584Y-74924572D01*
X138936680Y-74924572D01*
X139091443Y-75759602D01*
X140221449Y-75550168D01*
X140348611Y-75365146D01*
X140332585Y-75278678D01*
X140286549Y-75030289D01*
X140148963Y-74818425D01*
X139940773Y-74675341D01*
X139693675Y-74622818D01*
X139063842Y-74739551D01*
X138936680Y-74924572D01*
X138619584Y-74924572D01*
X138501912Y-74843698D01*
X137872079Y-74960431D01*
X137660215Y-75098017D01*
X137517130Y-75306206D01*
X137464607Y-75553305D01*
X134917572Y-75553305D01*
X134907908Y-75549034D01*
X134650939Y-75544782D01*
X133077731Y-75836359D01*
X132854424Y-75922779D01*
X132667263Y-76098908D01*
X132563371Y-76333977D01*
X132559119Y-76590945D01*
X132741355Y-77574200D01*
X132827775Y-77797507D01*
X133003904Y-77984668D01*
X133238440Y-78088325D01*
X133238440Y-81150692D01*
X132724132Y-81665000D01*
X130740854Y-81665000D01*
X130703162Y-81464683D01*
X130564090Y-81248559D01*
X130351890Y-81103569D01*
X130100000Y-81052560D01*
X129100000Y-81052560D01*
X128864683Y-81096838D01*
X128835000Y-81115938D01*
X128835000Y-81000000D01*
X128816068Y-80904821D01*
X128771440Y-80680460D01*
X128590434Y-80409566D01*
X127235000Y-79054132D01*
X127235000Y-78839018D01*
X127351441Y-78764090D01*
X127496431Y-78551890D01*
X127547440Y-78300000D01*
X127547440Y-76700000D01*
X127503162Y-76464683D01*
X127435891Y-76360141D01*
X127585750Y-76510000D01*
X128176309Y-76510000D01*
X128409698Y-76413327D01*
X128550936Y-76272090D01*
X128585910Y-76326441D01*
X128586450Y-76326810D01*
X128503569Y-76448110D01*
X128452560Y-76700000D01*
X128452560Y-78300000D01*
X128496838Y-78535317D01*
X128635910Y-78751441D01*
X128848110Y-78896431D01*
X129100000Y-78947440D01*
X130100000Y-78947440D01*
X130335317Y-78903162D01*
X130551441Y-78764090D01*
X130696431Y-78551890D01*
X130747440Y-78300000D01*
X130747440Y-77885747D01*
X130848603Y-77734346D01*
X130935000Y-77300000D01*
X130935000Y-76381844D01*
X131001441Y-76339090D01*
X131146431Y-76126890D01*
X131197440Y-75875000D01*
X131197440Y-74625000D01*
X131153162Y-74389683D01*
X131014090Y-74173559D01*
X130935000Y-74119519D01*
X130935000Y-73250132D01*
X131544544Y-72640588D01*
X131758129Y-72640588D01*
X131894268Y-72785254D01*
X132129336Y-72889146D01*
X132151041Y-72889505D01*
X132084109Y-72952492D01*
X131980217Y-73187561D01*
X131975965Y-73444529D01*
X132158201Y-74427784D01*
X132244621Y-74651091D01*
X132420750Y-74838252D01*
X132655818Y-74942144D01*
X132912787Y-74946396D01*
X134485995Y-74654819D01*
X134709302Y-74568399D01*
X134896463Y-74392270D01*
X135000355Y-74157201D01*
X135004607Y-73900233D01*
X134822371Y-72916978D01*
X134735951Y-72693671D01*
X134625286Y-72576074D01*
X134625286Y-72533351D01*
X136892239Y-72533351D01*
X137074475Y-73516606D01*
X137160895Y-73739913D01*
X137337024Y-73927074D01*
X137572092Y-74030966D01*
X137829061Y-74035218D01*
X139402269Y-73743641D01*
X139625576Y-73657221D01*
X139812737Y-73481092D01*
X139886144Y-73315000D01*
X140184132Y-73315000D01*
X140759203Y-73890071D01*
X141030097Y-74071077D01*
X141349637Y-74134637D01*
X142507978Y-74134637D01*
X142648692Y-74326474D01*
X142869347Y-74458239D01*
X143123882Y-74493775D01*
X144720898Y-74396098D01*
X144953073Y-74337538D01*
X145160304Y-74185531D01*
X145292069Y-73964876D01*
X145327605Y-73710341D01*
X145306619Y-73367216D01*
X147428136Y-73367216D01*
X147433505Y-73454993D01*
X147448927Y-73707140D01*
X147559668Y-73934192D01*
X147748868Y-74101582D01*
X147987724Y-74183827D01*
X148627088Y-74144722D01*
X148775851Y-73976576D01*
X148724005Y-73128910D01*
X147576899Y-73199070D01*
X147428136Y-73367216D01*
X145306619Y-73367216D01*
X145291096Y-73113404D01*
X148977531Y-73113404D01*
X149029377Y-73961070D01*
X149197522Y-74109832D01*
X149836886Y-74070727D01*
X150063938Y-73959986D01*
X150231329Y-73770787D01*
X150313574Y-73531931D01*
X150298152Y-73279783D01*
X150292783Y-73192006D01*
X150124638Y-73043244D01*
X148977531Y-73113404D01*
X145291096Y-73113404D01*
X145266557Y-72712206D01*
X145207996Y-72480031D01*
X145190998Y-72456857D01*
X147372456Y-72456857D01*
X147387878Y-72709005D01*
X147393247Y-72796782D01*
X147561392Y-72945544D01*
X148708499Y-72875384D01*
X148656653Y-72027718D01*
X148639127Y-72012212D01*
X148910179Y-72012212D01*
X148962025Y-72859878D01*
X150109131Y-72789718D01*
X150257894Y-72621572D01*
X150252525Y-72533795D01*
X150237103Y-72281648D01*
X150126362Y-72054596D01*
X149937162Y-71887206D01*
X149698306Y-71804961D01*
X149058942Y-71844066D01*
X148910179Y-72012212D01*
X148639127Y-72012212D01*
X148488508Y-71878956D01*
X147849144Y-71918061D01*
X147622092Y-72028802D01*
X147454701Y-72218001D01*
X147372456Y-72456857D01*
X145190998Y-72456857D01*
X145055990Y-72272800D01*
X144835335Y-72141035D01*
X144580800Y-72105499D01*
X142983784Y-72203176D01*
X142751609Y-72261736D01*
X142544378Y-72413743D01*
X142513986Y-72464637D01*
X141695505Y-72464637D01*
X141120434Y-71889566D01*
X141104555Y-71878956D01*
X140849541Y-71708561D01*
X140530000Y-71645000D01*
X139522836Y-71645000D01*
X139476096Y-71595332D01*
X139241028Y-71491440D01*
X138984059Y-71487188D01*
X137410851Y-71778765D01*
X137187544Y-71865185D01*
X137000383Y-72041314D01*
X136896491Y-72276383D01*
X136892239Y-72533351D01*
X134625286Y-72533351D01*
X134625286Y-72428893D01*
X134717982Y-72448596D01*
X135298652Y-72340975D01*
X135425813Y-72155953D01*
X135248271Y-71198017D01*
X135228606Y-71201662D01*
X135219352Y-71151729D01*
X135498017Y-71151729D01*
X135675560Y-72109666D01*
X135860582Y-72236827D01*
X136441252Y-72129207D01*
X136653116Y-71991621D01*
X136796201Y-71783431D01*
X136848723Y-71536333D01*
X136802687Y-71287944D01*
X136763882Y-71078569D01*
X136578860Y-70951407D01*
X135498017Y-71151729D01*
X135219352Y-71151729D01*
X135182318Y-70951916D01*
X135201983Y-70948271D01*
X135024440Y-69990334D01*
X134957092Y-69944047D01*
X135274187Y-69944047D01*
X135451729Y-70901983D01*
X136532572Y-70701660D01*
X136659734Y-70516639D01*
X136620929Y-70307263D01*
X136574893Y-70058875D01*
X136437307Y-69847011D01*
X136229116Y-69703927D01*
X135982018Y-69651404D01*
X135401348Y-69759025D01*
X135274187Y-69944047D01*
X134957092Y-69944047D01*
X134839418Y-69863173D01*
X134258748Y-69970793D01*
X134046884Y-70108379D01*
X134026862Y-70137511D01*
X134026862Y-69294581D01*
X134310132Y-69011311D01*
X142146280Y-69011311D01*
X142156221Y-69024863D01*
X142167332Y-69031498D01*
X142167332Y-69750953D01*
X142193060Y-69880297D01*
X142242769Y-70693037D01*
X142301330Y-70925212D01*
X142453336Y-71132443D01*
X142673991Y-71264208D01*
X142928526Y-71299744D01*
X144525542Y-71202067D01*
X144757717Y-71143507D01*
X144964948Y-70991500D01*
X145096713Y-70770845D01*
X145132249Y-70516310D01*
X145071201Y-69518175D01*
X145038786Y-69389659D01*
X147172395Y-69389659D01*
X147233443Y-70387794D01*
X147292004Y-70619969D01*
X147444010Y-70827200D01*
X147664665Y-70958965D01*
X147919200Y-70994501D01*
X148023822Y-70988102D01*
X148057225Y-71038093D01*
X148577761Y-71558630D01*
X148703342Y-71642540D01*
X148848655Y-71739635D01*
X149168196Y-71803196D01*
X151805979Y-71803196D01*
X151946693Y-71995033D01*
X152167348Y-72126798D01*
X152421883Y-72162334D01*
X154018899Y-72064657D01*
X154251074Y-72006097D01*
X154458305Y-71854090D01*
X154590070Y-71633435D01*
X154625606Y-71378900D01*
X154604620Y-71035775D01*
X156726137Y-71035775D01*
X156731506Y-71123552D01*
X156746928Y-71375699D01*
X156857669Y-71602751D01*
X157046869Y-71770141D01*
X157285725Y-71852386D01*
X157925089Y-71813281D01*
X158073852Y-71645135D01*
X158022006Y-70797469D01*
X156874900Y-70867629D01*
X156726137Y-71035775D01*
X154604620Y-71035775D01*
X154589097Y-70781963D01*
X158275532Y-70781963D01*
X158327378Y-71629629D01*
X158495523Y-71778391D01*
X159134887Y-71739286D01*
X159361939Y-71628545D01*
X159529330Y-71439346D01*
X159611575Y-71200490D01*
X159596153Y-70948342D01*
X159590784Y-70860565D01*
X159422639Y-70711803D01*
X158275532Y-70781963D01*
X154589097Y-70781963D01*
X154564558Y-70380765D01*
X154505997Y-70148590D01*
X154488999Y-70125416D01*
X156670457Y-70125416D01*
X156685879Y-70377564D01*
X156691248Y-70465341D01*
X156859393Y-70614103D01*
X158006500Y-70543943D01*
X157954654Y-69696277D01*
X157937128Y-69680771D01*
X158208180Y-69680771D01*
X158260026Y-70528437D01*
X159407132Y-70458277D01*
X159555895Y-70290131D01*
X159550526Y-70202354D01*
X159535104Y-69950207D01*
X159424363Y-69723155D01*
X159235163Y-69555765D01*
X158996307Y-69473520D01*
X158356943Y-69512625D01*
X158208180Y-69680771D01*
X157937128Y-69680771D01*
X157786509Y-69547515D01*
X157147145Y-69586620D01*
X156920093Y-69697361D01*
X156752702Y-69886560D01*
X156670457Y-70125416D01*
X154488999Y-70125416D01*
X154353991Y-69941359D01*
X154133336Y-69809594D01*
X153878801Y-69774058D01*
X152281785Y-69871735D01*
X152049610Y-69930295D01*
X151842379Y-70082302D01*
X151811987Y-70133196D01*
X150118160Y-70133196D01*
X150061875Y-69212932D01*
X150003314Y-68980757D01*
X149851308Y-68773526D01*
X149630653Y-68641761D01*
X149376118Y-68606225D01*
X147779102Y-68703902D01*
X147546927Y-68762462D01*
X147339696Y-68914469D01*
X147207931Y-69135124D01*
X147172395Y-69389659D01*
X145038786Y-69389659D01*
X145012640Y-69286000D01*
X144860634Y-69078769D01*
X144639979Y-68947004D01*
X144514266Y-68929453D01*
X144568019Y-68890024D01*
X144610303Y-68819215D01*
X144761059Y-68952592D01*
X144999915Y-69034836D01*
X145589372Y-68998783D01*
X145738135Y-68830638D01*
X145678658Y-67858205D01*
X145658695Y-67859426D01*
X145657672Y-67842699D01*
X145932184Y-67842699D01*
X145991661Y-68815132D01*
X146159806Y-68963894D01*
X146749264Y-68927841D01*
X146976316Y-68817101D01*
X147143706Y-68627901D01*
X147225951Y-68389045D01*
X147210529Y-68136898D01*
X147197529Y-67924354D01*
X147029384Y-67775591D01*
X145932184Y-67842699D01*
X145657672Y-67842699D01*
X145643189Y-67605900D01*
X145663152Y-67604679D01*
X145603675Y-66632246D01*
X145586149Y-66616740D01*
X145857201Y-66616740D01*
X145916678Y-67589173D01*
X147013878Y-67522065D01*
X147162640Y-67353920D01*
X147149640Y-67141376D01*
X147134218Y-66889228D01*
X147023478Y-66662176D01*
X146834277Y-66494786D01*
X146595421Y-66412542D01*
X146005964Y-66448595D01*
X145857201Y-66616740D01*
X145586149Y-66616740D01*
X145435530Y-66483484D01*
X144846072Y-66519537D01*
X144619020Y-66630277D01*
X144486669Y-66779873D01*
X144448443Y-66727759D01*
X144437332Y-66721124D01*
X144437332Y-64977800D01*
X145140132Y-64275000D01*
X147752957Y-64275000D01*
X147993266Y-64374785D01*
X148484579Y-64375214D01*
X148727114Y-64275000D01*
X151705000Y-64275000D01*
X151705000Y-64343053D01*
X151541544Y-64384280D01*
X151334313Y-64536287D01*
X151202548Y-64756942D01*
X151167012Y-65011477D01*
X151243322Y-66259146D01*
X151301883Y-66491321D01*
X151453889Y-66698552D01*
X151674545Y-66830317D01*
X151717799Y-66836356D01*
X151647023Y-66888271D01*
X151515258Y-67108926D01*
X151479722Y-67363461D01*
X151540770Y-68361596D01*
X151599331Y-68593771D01*
X151751337Y-68801002D01*
X151971992Y-68932767D01*
X152226527Y-68968303D01*
X153823543Y-68870626D01*
X154055718Y-68812066D01*
X154262949Y-68660059D01*
X154394714Y-68439404D01*
X154430250Y-68184869D01*
X154412520Y-67894971D01*
X154754821Y-67894971D01*
X154912058Y-68275515D01*
X155202954Y-68566919D01*
X155583223Y-68724820D01*
X155994971Y-68725179D01*
X156375515Y-68567942D01*
X156617655Y-68326224D01*
X156742011Y-68495759D01*
X156962666Y-68627524D01*
X157217201Y-68663060D01*
X158814217Y-68565383D01*
X159046392Y-68506823D01*
X159253623Y-68354816D01*
X159385388Y-68134161D01*
X159420924Y-67879626D01*
X159359876Y-66881491D01*
X159301315Y-66649316D01*
X159149309Y-66442085D01*
X158928654Y-66310320D01*
X158674119Y-66274784D01*
X157077103Y-66372461D01*
X156844928Y-66431021D01*
X156637697Y-66583028D01*
X156607305Y-66633922D01*
X156011078Y-66633922D01*
X155904610Y-66655100D01*
X155585029Y-66654821D01*
X155204485Y-66812058D01*
X154913081Y-67102954D01*
X154755180Y-67483223D01*
X154754821Y-67894971D01*
X154412520Y-67894971D01*
X154369202Y-67186734D01*
X154310641Y-66954559D01*
X154158635Y-66747328D01*
X154089986Y-66706334D01*
X154089986Y-66637044D01*
X154297583Y-66708525D01*
X154887040Y-66672472D01*
X155035803Y-66504327D01*
X154976326Y-65531894D01*
X154956363Y-65533115D01*
X154955340Y-65516388D01*
X155229852Y-65516388D01*
X155289329Y-66488821D01*
X155457474Y-66637583D01*
X156046932Y-66601530D01*
X156273984Y-66490790D01*
X156441374Y-66301590D01*
X156523619Y-66062734D01*
X156508197Y-65810587D01*
X156495197Y-65598043D01*
X156327052Y-65449280D01*
X155229852Y-65516388D01*
X154955340Y-65516388D01*
X154940857Y-65279589D01*
X154960820Y-65278368D01*
X154901343Y-64305935D01*
X154883817Y-64290429D01*
X155154869Y-64290429D01*
X155214346Y-65262862D01*
X156311546Y-65195754D01*
X156460308Y-65027609D01*
X156447308Y-64815065D01*
X156431886Y-64562917D01*
X156321146Y-64335865D01*
X156131945Y-64168475D01*
X155893089Y-64086231D01*
X155303632Y-64122284D01*
X155154869Y-64290429D01*
X154883817Y-64290429D01*
X154733198Y-64157173D01*
X154143740Y-64193226D01*
X153975000Y-64275526D01*
X153975000Y-63627043D01*
X154074785Y-63386734D01*
X154075214Y-62895421D01*
X153887592Y-62441343D01*
X153631696Y-62185000D01*
X154330000Y-62185000D01*
X154764346Y-62098603D01*
X155132566Y-61852566D01*
X156632566Y-60352566D01*
X156878603Y-59984346D01*
X156893811Y-59907888D01*
X156965000Y-59550000D01*
X156965000Y-51330000D01*
X156951274Y-51260995D01*
X157432833Y-52060118D01*
X157432833Y-52060118D01*
G37*
X157432833Y-52060118D02*
X157862058Y-53223531D01*
X158135600Y-54504689D01*
X158281967Y-55856626D01*
X158335851Y-58666510D01*
X158356167Y-58759306D01*
X158364408Y-58853932D01*
X158385952Y-58895358D01*
X158395938Y-58940971D01*
X158450213Y-59018921D01*
X158494043Y-59103199D01*
X158529804Y-59133230D01*
X158556482Y-59171545D01*
X158636452Y-59222789D01*
X158709201Y-59283882D01*
X160063840Y-60027753D01*
X160899124Y-60938316D01*
X161381899Y-62030727D01*
X161546405Y-63275061D01*
X161408248Y-64611697D01*
X160990676Y-65960787D01*
X160328516Y-67237819D01*
X159422629Y-68415979D01*
X159367611Y-68527267D01*
X159307504Y-68635899D01*
X159305604Y-68652693D01*
X159298114Y-68667843D01*
X159289871Y-68791724D01*
X159275913Y-68915078D01*
X159280583Y-68931318D01*
X159279461Y-68948184D01*
X159319250Y-69065782D01*
X159353561Y-69185095D01*
X159364093Y-69198315D01*
X159369510Y-69214324D01*
X159451271Y-69307741D01*
X159528632Y-69404845D01*
X160636743Y-70341477D01*
X161603451Y-71389017D01*
X162457195Y-72558473D01*
X163180366Y-73812831D01*
X164254379Y-76582591D01*
X164737904Y-79431747D01*
X164211417Y-82982380D01*
X163277555Y-86638870D01*
X161946076Y-90211937D01*
X160217148Y-93589096D01*
X158092561Y-96659569D01*
X155563222Y-99328294D01*
X154169323Y-100459513D01*
X152665822Y-101458464D01*
X151063577Y-102303617D01*
X149324661Y-102997454D01*
X149244418Y-103049569D01*
X149158248Y-103091117D01*
X149127616Y-103125427D01*
X149089032Y-103150486D01*
X149034842Y-103229340D01*
X148971130Y-103300702D01*
X148955958Y-103344128D01*
X148929904Y-103382040D01*
X148910017Y-103475620D01*
X148878460Y-103565941D01*
X148439913Y-106683038D01*
X147813479Y-109809304D01*
X147345864Y-111273695D01*
X146723177Y-112659545D01*
X145914515Y-113935845D01*
X144861239Y-115109286D01*
X139302483Y-120246140D01*
X136421512Y-122764389D01*
X133441111Y-125103635D01*
X130331822Y-127162930D01*
X127064067Y-128843906D01*
X123590770Y-130056692D01*
X121792217Y-130450837D01*
X119920867Y-130694011D01*
X118925000Y-130725526D01*
X118925000Y-130525750D01*
X118766250Y-130367000D01*
X117917000Y-130367000D01*
X117917000Y-130387000D01*
X117663000Y-130387000D01*
X117663000Y-130367000D01*
X116813750Y-130367000D01*
X116655000Y-130525750D01*
X116655000Y-130797362D01*
X116193854Y-130811955D01*
X115137440Y-130827124D01*
X115137440Y-129390000D01*
X115113674Y-129263691D01*
X116655000Y-129263691D01*
X116655000Y-129954250D01*
X116813750Y-130113000D01*
X117663000Y-130113000D01*
X117663000Y-128913750D01*
X117917000Y-128913750D01*
X117917000Y-130113000D01*
X118766250Y-130113000D01*
X118925000Y-129954250D01*
X118925000Y-129263691D01*
X118828327Y-129030302D01*
X118649699Y-128851673D01*
X118416310Y-128755000D01*
X118075750Y-128755000D01*
X117917000Y-128913750D01*
X117663000Y-128913750D01*
X117504250Y-128755000D01*
X117163690Y-128755000D01*
X116930301Y-128851673D01*
X116751673Y-129030302D01*
X116655000Y-129263691D01*
X115113674Y-129263691D01*
X115093162Y-129154683D01*
X114954090Y-128938559D01*
X114825000Y-128850356D01*
X114825000Y-127968892D01*
X114866919Y-127927046D01*
X115024820Y-127546777D01*
X115025179Y-127135029D01*
X114867942Y-126754485D01*
X114825000Y-126711468D01*
X114825000Y-125329018D01*
X114941441Y-125254090D01*
X115086431Y-125041890D01*
X115137440Y-124790000D01*
X115137440Y-124225750D01*
X116655000Y-124225750D01*
X116655000Y-124916309D01*
X116751673Y-125149698D01*
X116930301Y-125328327D01*
X117163690Y-125425000D01*
X117504250Y-125425000D01*
X117663000Y-125266250D01*
X117663000Y-124067000D01*
X117917000Y-124067000D01*
X117917000Y-125266250D01*
X118075750Y-125425000D01*
X118416310Y-125425000D01*
X118649699Y-125328327D01*
X118828327Y-125149698D01*
X118925000Y-124916309D01*
X118925000Y-124225750D01*
X118766250Y-124067000D01*
X117917000Y-124067000D01*
X117663000Y-124067000D01*
X116813750Y-124067000D01*
X116655000Y-124225750D01*
X115137440Y-124225750D01*
X115137440Y-123090000D01*
X115113674Y-122963691D01*
X116655000Y-122963691D01*
X116655000Y-123654250D01*
X116813750Y-123813000D01*
X117663000Y-123813000D01*
X117663000Y-122613750D01*
X117917000Y-122613750D01*
X117917000Y-123813000D01*
X118766250Y-123813000D01*
X118925000Y-123654250D01*
X118925000Y-122963691D01*
X118828327Y-122730302D01*
X118649699Y-122551673D01*
X118416310Y-122455000D01*
X118075750Y-122455000D01*
X117917000Y-122613750D01*
X117663000Y-122613750D01*
X117504250Y-122455000D01*
X117163690Y-122455000D01*
X116930301Y-122551673D01*
X116751673Y-122730302D01*
X116655000Y-122963691D01*
X115113674Y-122963691D01*
X115093162Y-122854683D01*
X114954090Y-122638559D01*
X114825000Y-122550356D01*
X114825000Y-118490000D01*
X114761439Y-118170459D01*
X114580434Y-117899566D01*
X113055868Y-116375000D01*
X122894132Y-116375000D01*
X123605000Y-117085868D01*
X123605000Y-117600982D01*
X123488559Y-117675910D01*
X123343569Y-117888110D01*
X123292560Y-118140000D01*
X123292560Y-119840000D01*
X123336838Y-120075317D01*
X123475910Y-120291441D01*
X123605000Y-120379644D01*
X123605000Y-121511108D01*
X123563081Y-121552954D01*
X123405180Y-121933223D01*
X123404821Y-122344971D01*
X123562058Y-122725515D01*
X123605000Y-122768532D01*
X123605000Y-123900982D01*
X123488559Y-123975910D01*
X123343569Y-124188110D01*
X123292560Y-124440000D01*
X123292560Y-126140000D01*
X123336838Y-126375317D01*
X123475910Y-126591441D01*
X123688110Y-126736431D01*
X123940000Y-126787440D01*
X124940000Y-126787440D01*
X125175317Y-126743162D01*
X125391441Y-126604090D01*
X125536431Y-126391890D01*
X125587440Y-126140000D01*
X125587440Y-125575750D01*
X127105000Y-125575750D01*
X127105000Y-126266309D01*
X127201673Y-126499698D01*
X127380301Y-126678327D01*
X127613690Y-126775000D01*
X127954250Y-126775000D01*
X128113000Y-126616250D01*
X128113000Y-125417000D01*
X128367000Y-125417000D01*
X128367000Y-126616250D01*
X128525750Y-126775000D01*
X128866310Y-126775000D01*
X129099699Y-126678327D01*
X129278327Y-126499698D01*
X129375000Y-126266309D01*
X129375000Y-125575750D01*
X129216250Y-125417000D01*
X128367000Y-125417000D01*
X128113000Y-125417000D01*
X127263750Y-125417000D01*
X127105000Y-125575750D01*
X125587440Y-125575750D01*
X125587440Y-124440000D01*
X125563674Y-124313691D01*
X127105000Y-124313691D01*
X127105000Y-125004250D01*
X127263750Y-125163000D01*
X128113000Y-125163000D01*
X128113000Y-123963750D01*
X128367000Y-123963750D01*
X128367000Y-125163000D01*
X129216250Y-125163000D01*
X129375000Y-125004250D01*
X129375000Y-124313691D01*
X129278327Y-124080302D01*
X129099699Y-123901673D01*
X128866310Y-123805000D01*
X128525750Y-123805000D01*
X128367000Y-123963750D01*
X128113000Y-123963750D01*
X127954250Y-123805000D01*
X127613690Y-123805000D01*
X127380301Y-123901673D01*
X127201673Y-124080302D01*
X127105000Y-124313691D01*
X125563674Y-124313691D01*
X125543162Y-124204683D01*
X125404090Y-123988559D01*
X125275000Y-123900356D01*
X125275000Y-122768892D01*
X125316919Y-122727046D01*
X125474820Y-122346777D01*
X125475179Y-121935029D01*
X125317942Y-121554485D01*
X125275000Y-121511468D01*
X125275000Y-120379018D01*
X125391441Y-120304090D01*
X125536431Y-120091890D01*
X125587440Y-119840000D01*
X125587440Y-119275750D01*
X127105000Y-119275750D01*
X127105000Y-119966309D01*
X127201673Y-120199698D01*
X127380301Y-120378327D01*
X127613690Y-120475000D01*
X127954250Y-120475000D01*
X128113000Y-120316250D01*
X128113000Y-119117000D01*
X128367000Y-119117000D01*
X128367000Y-120316250D01*
X128525750Y-120475000D01*
X128866310Y-120475000D01*
X129099699Y-120378327D01*
X129278327Y-120199698D01*
X129375000Y-119966309D01*
X129375000Y-119275750D01*
X129216250Y-119117000D01*
X128367000Y-119117000D01*
X128113000Y-119117000D01*
X127263750Y-119117000D01*
X127105000Y-119275750D01*
X125587440Y-119275750D01*
X125587440Y-118140000D01*
X125563674Y-118013691D01*
X127105000Y-118013691D01*
X127105000Y-118704250D01*
X127263750Y-118863000D01*
X128113000Y-118863000D01*
X128113000Y-117663750D01*
X128367000Y-117663750D01*
X128367000Y-118863000D01*
X129216250Y-118863000D01*
X129375000Y-118704250D01*
X129375000Y-118013691D01*
X129278327Y-117780302D01*
X129099699Y-117601673D01*
X128866310Y-117505000D01*
X128525750Y-117505000D01*
X128367000Y-117663750D01*
X128113000Y-117663750D01*
X127954250Y-117505000D01*
X127613690Y-117505000D01*
X127380301Y-117601673D01*
X127201673Y-117780302D01*
X127105000Y-118013691D01*
X125563674Y-118013691D01*
X125543162Y-117904683D01*
X125404090Y-117688559D01*
X125275000Y-117600356D01*
X125275000Y-116740000D01*
X125211439Y-116420459D01*
X125030434Y-116149566D01*
X123830434Y-114949566D01*
X123749948Y-114895787D01*
X123559541Y-114768561D01*
X123240000Y-114705000D01*
X102785868Y-114705000D01*
X102075000Y-113994132D01*
X102075000Y-82568892D01*
X102116919Y-82527046D01*
X102274820Y-82146777D01*
X102275179Y-81735029D01*
X102142946Y-81415000D01*
X102826192Y-81415000D01*
X102803569Y-81448110D01*
X102752560Y-81700000D01*
X102752560Y-82114253D01*
X102651397Y-82265654D01*
X102565000Y-82700000D01*
X102565000Y-83618156D01*
X102498559Y-83660910D01*
X102353569Y-83873110D01*
X102302560Y-84125000D01*
X102302560Y-85375000D01*
X102346838Y-85610317D01*
X102485910Y-85826441D01*
X102565000Y-85880481D01*
X102565000Y-90352957D01*
X102465215Y-90593266D01*
X102464786Y-91084579D01*
X102565000Y-91327114D01*
X102565000Y-94400000D01*
X102651397Y-94834346D01*
X102888104Y-95188603D01*
X102897434Y-95202566D01*
X103637434Y-95942566D01*
X104005654Y-96188603D01*
X104440000Y-96275000D01*
X108671041Y-96275000D01*
X108855521Y-96238305D01*
X109040000Y-96275000D01*
X110244071Y-96275000D01*
X110394071Y-96245163D01*
X110544071Y-96275000D01*
X117756186Y-96275000D01*
X117142874Y-96887242D01*
X116779015Y-97763513D01*
X116778187Y-98712325D01*
X117140516Y-99589229D01*
X117810842Y-100260726D01*
X118687113Y-100624585D01*
X119635925Y-100625413D01*
X120512829Y-100263084D01*
X121184326Y-99592758D01*
X121548185Y-98716487D01*
X121549013Y-97767675D01*
X121186684Y-96890771D01*
X120571987Y-96275000D01*
X130440000Y-96275000D01*
X130874346Y-96188603D01*
X131242566Y-95942566D01*
X134210132Y-92975000D01*
X147015498Y-92975000D01*
X145852627Y-93646384D01*
X145670976Y-93802388D01*
X145553343Y-94030890D01*
X145533877Y-94287155D01*
X145615647Y-94530803D01*
X146265647Y-95656637D01*
X146421652Y-95838288D01*
X146650154Y-95955921D01*
X146906419Y-95975386D01*
X147099664Y-95910532D01*
X148373968Y-97184836D01*
X148317573Y-97294384D01*
X148298108Y-97550649D01*
X148379877Y-97794297D01*
X149279877Y-99353143D01*
X149435882Y-99534794D01*
X149664384Y-99652427D01*
X149920649Y-99671892D01*
X150164297Y-99590123D01*
X151723143Y-98690123D01*
X151904794Y-98534118D01*
X152022427Y-98305616D01*
X152041892Y-98049351D01*
X151997047Y-97915723D01*
X152129882Y-97915723D01*
X152332954Y-98094641D01*
X152934513Y-97989604D01*
X153450086Y-97662355D01*
X153743099Y-97280493D01*
X153689688Y-97015168D01*
X152459508Y-96685543D01*
X152129882Y-97915723D01*
X151997047Y-97915723D01*
X151960123Y-97805703D01*
X151916601Y-97730320D01*
X152124359Y-96954954D01*
X152355564Y-96723749D01*
X152175956Y-96544141D01*
X152124357Y-96595740D01*
X151543864Y-96440197D01*
X152525248Y-96440197D01*
X153755428Y-96769823D01*
X153934346Y-96566751D01*
X153829309Y-95965192D01*
X153502060Y-95449619D01*
X153120198Y-95156606D01*
X152854873Y-95210017D01*
X152525248Y-96440197D01*
X151543864Y-96440197D01*
X151103646Y-96322241D01*
X151060123Y-96246857D01*
X150904118Y-96065206D01*
X150675616Y-95947573D01*
X150419351Y-95928108D01*
X150175703Y-96009877D01*
X149785835Y-96234967D01*
X149330375Y-95779507D01*
X150996311Y-95779507D01*
X151049722Y-96044832D01*
X152279902Y-96374457D01*
X152609528Y-95144277D01*
X152406456Y-94965359D01*
X151804897Y-95070396D01*
X151289324Y-95397645D01*
X150996311Y-95779507D01*
X149330375Y-95779507D01*
X148581114Y-95030246D01*
X148630756Y-94987612D01*
X148748389Y-94759110D01*
X148767855Y-94502845D01*
X148763606Y-94490186D01*
X148988422Y-94605921D01*
X149244687Y-94625386D01*
X149488335Y-94543616D01*
X150787373Y-93793616D01*
X150969024Y-93637612D01*
X151086657Y-93409110D01*
X151092935Y-93326463D01*
X151121020Y-93340921D01*
X151377285Y-93360386D01*
X151620933Y-93278616D01*
X152259228Y-92910096D01*
X152833968Y-93484836D01*
X152777573Y-93594384D01*
X152758108Y-93850649D01*
X152839877Y-94094297D01*
X153739877Y-95653143D01*
X153895882Y-95834794D01*
X154124384Y-95952427D01*
X154380649Y-95971892D01*
X154624297Y-95890123D01*
X156183143Y-94990123D01*
X156364794Y-94834118D01*
X156482427Y-94605616D01*
X156501406Y-94355752D01*
X156523035Y-94364733D01*
X157133696Y-94365265D01*
X157698076Y-94132068D01*
X158130256Y-93700643D01*
X158364438Y-93136670D01*
X158364970Y-92526009D01*
X158131773Y-91961629D01*
X157700348Y-91529449D01*
X157136375Y-91295267D01*
X156525714Y-91294735D01*
X155961334Y-91527932D01*
X155529154Y-91959357D01*
X155361245Y-92363727D01*
X155135616Y-92247573D01*
X154879351Y-92228108D01*
X154635703Y-92309877D01*
X154245835Y-92534967D01*
X153709516Y-91998648D01*
X153843594Y-91980997D01*
X154355033Y-91685718D01*
X154413140Y-91468861D01*
X153913515Y-90603485D01*
X153896194Y-90613485D01*
X153817097Y-90476485D01*
X154133485Y-90476485D01*
X154633110Y-91341861D01*
X154849967Y-91399968D01*
X155361406Y-91104688D01*
X155515190Y-90904272D01*
X155580573Y-90660261D01*
X155547600Y-90409804D01*
X155421291Y-90191030D01*
X155302320Y-89984967D01*
X155085464Y-89926860D01*
X154133485Y-90476485D01*
X153817097Y-90476485D01*
X153769194Y-90393515D01*
X153786515Y-90383515D01*
X153286890Y-89518139D01*
X153070033Y-89460032D01*
X152558594Y-89755312D01*
X152404810Y-89955728D01*
X152339427Y-90199739D01*
X152358639Y-90345670D01*
X152350946Y-90336712D01*
X152122444Y-90219079D01*
X151866179Y-90199614D01*
X151622531Y-90281384D01*
X150323493Y-91031384D01*
X150141842Y-91187388D01*
X150024209Y-91415890D01*
X150017931Y-91498537D01*
X149989846Y-91484079D01*
X149733581Y-91464614D01*
X149569086Y-91519820D01*
X149086700Y-91037434D01*
X149051735Y-91014071D01*
X148718480Y-90791397D01*
X148284134Y-90705000D01*
X133740000Y-90705000D01*
X133305654Y-90791397D01*
X132972399Y-91014071D01*
X132937434Y-91037434D01*
X129969868Y-94005000D01*
X125375000Y-94005000D01*
X125375000Y-91350779D01*
X125611193Y-91392425D01*
X125857823Y-91337749D01*
X126382539Y-90970339D01*
X126421524Y-90749243D01*
X125934414Y-90053579D01*
X125918031Y-90065051D01*
X125807986Y-89907890D01*
X126142479Y-89907890D01*
X126629588Y-90603555D01*
X126850684Y-90642540D01*
X127375399Y-90275131D01*
X127511131Y-90062074D01*
X127554998Y-89813293D01*
X127500322Y-89566663D01*
X127377419Y-89391139D01*
X153506860Y-89391139D01*
X154006485Y-90256515D01*
X154958464Y-89706890D01*
X155016570Y-89490033D01*
X154897600Y-89283970D01*
X154771290Y-89065196D01*
X154570874Y-88911412D01*
X154326863Y-88846030D01*
X154076406Y-88879003D01*
X153564967Y-89174282D01*
X153506860Y-89391139D01*
X127377419Y-89391139D01*
X127355426Y-89359730D01*
X127304985Y-89287693D01*
X127083889Y-89248707D01*
X126142479Y-89907890D01*
X125807986Y-89907890D01*
X125772342Y-89856985D01*
X125788725Y-89845514D01*
X125301616Y-89149849D01*
X125080520Y-89110864D01*
X124555805Y-89478273D01*
X124420073Y-89691330D01*
X124416534Y-89711402D01*
X123709293Y-89004161D01*
X125509680Y-89004161D01*
X125996790Y-89699825D01*
X126938201Y-89040643D01*
X126977186Y-88819547D01*
X126926745Y-88747510D01*
X126781849Y-88540577D01*
X126568792Y-88404845D01*
X126320011Y-88360979D01*
X126073381Y-88415655D01*
X125548665Y-88783065D01*
X125509680Y-89004161D01*
X123709293Y-89004161D01*
X123380743Y-88675611D01*
X123328796Y-88640901D01*
X123012523Y-88429574D01*
X122578177Y-88343177D01*
X120807080Y-88343177D01*
X121088634Y-88146031D01*
X121127619Y-87924935D01*
X120568812Y-87126877D01*
X120552429Y-87138349D01*
X120442384Y-86981188D01*
X120776877Y-86981188D01*
X121335683Y-87779247D01*
X121556779Y-87818232D01*
X122040537Y-87479501D01*
X122176268Y-87266445D01*
X122220136Y-87017664D01*
X122165459Y-86771034D01*
X122020563Y-86564100D01*
X121898425Y-86389669D01*
X121677329Y-86350684D01*
X120776877Y-86981188D01*
X120442384Y-86981188D01*
X120406740Y-86930283D01*
X120423123Y-86918812D01*
X120411651Y-86902429D01*
X120619717Y-86756740D01*
X120631188Y-86773123D01*
X121531641Y-86142620D01*
X121570626Y-85921524D01*
X121448488Y-85747093D01*
X121303592Y-85540160D01*
X121090536Y-85404428D01*
X120841754Y-85360562D01*
X120835000Y-85362059D01*
X120835000Y-84985000D01*
X123430000Y-84985000D01*
X123864346Y-84898603D01*
X124232566Y-84652566D01*
X125242566Y-83642566D01*
X125311712Y-83539082D01*
X125361673Y-83659698D01*
X125540301Y-83838327D01*
X125773690Y-83935000D01*
X126114250Y-83935000D01*
X126273000Y-83776250D01*
X126273000Y-82627000D01*
X126253000Y-82627000D01*
X126253000Y-82373000D01*
X126273000Y-82373000D01*
X126273000Y-81223750D01*
X126114250Y-81065000D01*
X125773690Y-81065000D01*
X125575000Y-81147300D01*
X125575000Y-79450273D01*
X125628561Y-79719541D01*
X125709671Y-79840930D01*
X125809566Y-79990434D01*
X126884132Y-81065000D01*
X126685750Y-81065000D01*
X126527000Y-81223750D01*
X126527000Y-82373000D01*
X126547000Y-82373000D01*
X126547000Y-82627000D01*
X126527000Y-82627000D01*
X126527000Y-83776250D01*
X126685750Y-83935000D01*
X127026310Y-83935000D01*
X127165000Y-83877553D01*
X127165000Y-84664132D01*
X126374132Y-85455000D01*
X125095574Y-85455000D01*
X124776033Y-85518561D01*
X124587492Y-85644540D01*
X124505140Y-85699566D01*
X124451791Y-85752915D01*
X124362929Y-85753933D01*
X124127335Y-85856627D01*
X122816692Y-86774349D01*
X122649328Y-86945592D01*
X122552058Y-87183477D01*
X122555002Y-87440463D01*
X122657696Y-87676058D01*
X123231273Y-88495210D01*
X123402516Y-88662573D01*
X123640401Y-88759843D01*
X123897387Y-88756899D01*
X124132981Y-88654205D01*
X125443624Y-87736483D01*
X125610988Y-87565240D01*
X125708258Y-87327355D01*
X125705940Y-87125000D01*
X126720000Y-87125000D01*
X127039541Y-87061439D01*
X127310434Y-86880434D01*
X128590434Y-85600434D01*
X128630815Y-85540000D01*
X128771439Y-85329541D01*
X128835000Y-85010000D01*
X128835000Y-83887473D01*
X128848110Y-83896431D01*
X129100000Y-83947440D01*
X130100000Y-83947440D01*
X130335317Y-83903162D01*
X130551441Y-83764090D01*
X130696431Y-83551890D01*
X130740352Y-83335000D01*
X133070000Y-83335000D01*
X133389541Y-83271439D01*
X133660434Y-83090434D01*
X134663874Y-82086994D01*
X134735524Y-81979762D01*
X134844879Y-81816101D01*
X134908440Y-81496560D01*
X134908440Y-77831021D01*
X135069149Y-77801235D01*
X135292456Y-77714815D01*
X135479617Y-77538686D01*
X135583509Y-77303617D01*
X135587761Y-77046649D01*
X135477196Y-76450092D01*
X137630817Y-76450092D01*
X137646843Y-76536560D01*
X137692879Y-76784949D01*
X137830465Y-76996813D01*
X138038655Y-77139897D01*
X138285753Y-77192420D01*
X138915586Y-77075687D01*
X139042748Y-76890666D01*
X138887985Y-76055636D01*
X137757979Y-76265070D01*
X137630817Y-76450092D01*
X135477196Y-76450092D01*
X135405525Y-76063394D01*
X135319105Y-75840087D01*
X135142976Y-75652926D01*
X134917572Y-75553305D01*
X137464607Y-75553305D01*
X137510643Y-75801693D01*
X137526669Y-75888162D01*
X137711691Y-76015324D01*
X137743934Y-76009348D01*
X139137731Y-76009348D01*
X139292495Y-76844378D01*
X139477516Y-76971540D01*
X140107349Y-76854807D01*
X140319213Y-76717221D01*
X140462298Y-76509032D01*
X140514821Y-76261933D01*
X140468785Y-76013545D01*
X140452759Y-75927076D01*
X140267737Y-75799914D01*
X139137731Y-76009348D01*
X137743934Y-76009348D01*
X138841697Y-75805890D01*
X138686933Y-74970860D01*
X138619584Y-74924572D01*
X138936680Y-74924572D01*
X139091443Y-75759602D01*
X140221449Y-75550168D01*
X140348611Y-75365146D01*
X140332585Y-75278678D01*
X140286549Y-75030289D01*
X140148963Y-74818425D01*
X139940773Y-74675341D01*
X139693675Y-74622818D01*
X139063842Y-74739551D01*
X138936680Y-74924572D01*
X138619584Y-74924572D01*
X138501912Y-74843698D01*
X137872079Y-74960431D01*
X137660215Y-75098017D01*
X137517130Y-75306206D01*
X137464607Y-75553305D01*
X134917572Y-75553305D01*
X134907908Y-75549034D01*
X134650939Y-75544782D01*
X133077731Y-75836359D01*
X132854424Y-75922779D01*
X132667263Y-76098908D01*
X132563371Y-76333977D01*
X132559119Y-76590945D01*
X132741355Y-77574200D01*
X132827775Y-77797507D01*
X133003904Y-77984668D01*
X133238440Y-78088325D01*
X133238440Y-81150692D01*
X132724132Y-81665000D01*
X130740854Y-81665000D01*
X130703162Y-81464683D01*
X130564090Y-81248559D01*
X130351890Y-81103569D01*
X130100000Y-81052560D01*
X129100000Y-81052560D01*
X128864683Y-81096838D01*
X128835000Y-81115938D01*
X128835000Y-81000000D01*
X128816068Y-80904821D01*
X128771440Y-80680460D01*
X128590434Y-80409566D01*
X127235000Y-79054132D01*
X127235000Y-78839018D01*
X127351441Y-78764090D01*
X127496431Y-78551890D01*
X127547440Y-78300000D01*
X127547440Y-76700000D01*
X127503162Y-76464683D01*
X127435891Y-76360141D01*
X127585750Y-76510000D01*
X128176309Y-76510000D01*
X128409698Y-76413327D01*
X128550936Y-76272090D01*
X128585910Y-76326441D01*
X128586450Y-76326810D01*
X128503569Y-76448110D01*
X128452560Y-76700000D01*
X128452560Y-78300000D01*
X128496838Y-78535317D01*
X128635910Y-78751441D01*
X128848110Y-78896431D01*
X129100000Y-78947440D01*
X130100000Y-78947440D01*
X130335317Y-78903162D01*
X130551441Y-78764090D01*
X130696431Y-78551890D01*
X130747440Y-78300000D01*
X130747440Y-77885747D01*
X130848603Y-77734346D01*
X130935000Y-77300000D01*
X130935000Y-76381844D01*
X131001441Y-76339090D01*
X131146431Y-76126890D01*
X131197440Y-75875000D01*
X131197440Y-74625000D01*
X131153162Y-74389683D01*
X131014090Y-74173559D01*
X130935000Y-74119519D01*
X130935000Y-73250132D01*
X131544544Y-72640588D01*
X131758129Y-72640588D01*
X131894268Y-72785254D01*
X132129336Y-72889146D01*
X132151041Y-72889505D01*
X132084109Y-72952492D01*
X131980217Y-73187561D01*
X131975965Y-73444529D01*
X132158201Y-74427784D01*
X132244621Y-74651091D01*
X132420750Y-74838252D01*
X132655818Y-74942144D01*
X132912787Y-74946396D01*
X134485995Y-74654819D01*
X134709302Y-74568399D01*
X134896463Y-74392270D01*
X135000355Y-74157201D01*
X135004607Y-73900233D01*
X134822371Y-72916978D01*
X134735951Y-72693671D01*
X134625286Y-72576074D01*
X134625286Y-72533351D01*
X136892239Y-72533351D01*
X137074475Y-73516606D01*
X137160895Y-73739913D01*
X137337024Y-73927074D01*
X137572092Y-74030966D01*
X137829061Y-74035218D01*
X139402269Y-73743641D01*
X139625576Y-73657221D01*
X139812737Y-73481092D01*
X139886144Y-73315000D01*
X140184132Y-73315000D01*
X140759203Y-73890071D01*
X141030097Y-74071077D01*
X141349637Y-74134637D01*
X142507978Y-74134637D01*
X142648692Y-74326474D01*
X142869347Y-74458239D01*
X143123882Y-74493775D01*
X144720898Y-74396098D01*
X144953073Y-74337538D01*
X145160304Y-74185531D01*
X145292069Y-73964876D01*
X145327605Y-73710341D01*
X145306619Y-73367216D01*
X147428136Y-73367216D01*
X147433505Y-73454993D01*
X147448927Y-73707140D01*
X147559668Y-73934192D01*
X147748868Y-74101582D01*
X147987724Y-74183827D01*
X148627088Y-74144722D01*
X148775851Y-73976576D01*
X148724005Y-73128910D01*
X147576899Y-73199070D01*
X147428136Y-73367216D01*
X145306619Y-73367216D01*
X145291096Y-73113404D01*
X148977531Y-73113404D01*
X149029377Y-73961070D01*
X149197522Y-74109832D01*
X149836886Y-74070727D01*
X150063938Y-73959986D01*
X150231329Y-73770787D01*
X150313574Y-73531931D01*
X150298152Y-73279783D01*
X150292783Y-73192006D01*
X150124638Y-73043244D01*
X148977531Y-73113404D01*
X145291096Y-73113404D01*
X145266557Y-72712206D01*
X145207996Y-72480031D01*
X145190998Y-72456857D01*
X147372456Y-72456857D01*
X147387878Y-72709005D01*
X147393247Y-72796782D01*
X147561392Y-72945544D01*
X148708499Y-72875384D01*
X148656653Y-72027718D01*
X148639127Y-72012212D01*
X148910179Y-72012212D01*
X148962025Y-72859878D01*
X150109131Y-72789718D01*
X150257894Y-72621572D01*
X150252525Y-72533795D01*
X150237103Y-72281648D01*
X150126362Y-72054596D01*
X149937162Y-71887206D01*
X149698306Y-71804961D01*
X149058942Y-71844066D01*
X148910179Y-72012212D01*
X148639127Y-72012212D01*
X148488508Y-71878956D01*
X147849144Y-71918061D01*
X147622092Y-72028802D01*
X147454701Y-72218001D01*
X147372456Y-72456857D01*
X145190998Y-72456857D01*
X145055990Y-72272800D01*
X144835335Y-72141035D01*
X144580800Y-72105499D01*
X142983784Y-72203176D01*
X142751609Y-72261736D01*
X142544378Y-72413743D01*
X142513986Y-72464637D01*
X141695505Y-72464637D01*
X141120434Y-71889566D01*
X141104555Y-71878956D01*
X140849541Y-71708561D01*
X140530000Y-71645000D01*
X139522836Y-71645000D01*
X139476096Y-71595332D01*
X139241028Y-71491440D01*
X138984059Y-71487188D01*
X137410851Y-71778765D01*
X137187544Y-71865185D01*
X137000383Y-72041314D01*
X136896491Y-72276383D01*
X136892239Y-72533351D01*
X134625286Y-72533351D01*
X134625286Y-72428893D01*
X134717982Y-72448596D01*
X135298652Y-72340975D01*
X135425813Y-72155953D01*
X135248271Y-71198017D01*
X135228606Y-71201662D01*
X135219352Y-71151729D01*
X135498017Y-71151729D01*
X135675560Y-72109666D01*
X135860582Y-72236827D01*
X136441252Y-72129207D01*
X136653116Y-71991621D01*
X136796201Y-71783431D01*
X136848723Y-71536333D01*
X136802687Y-71287944D01*
X136763882Y-71078569D01*
X136578860Y-70951407D01*
X135498017Y-71151729D01*
X135219352Y-71151729D01*
X135182318Y-70951916D01*
X135201983Y-70948271D01*
X135024440Y-69990334D01*
X134957092Y-69944047D01*
X135274187Y-69944047D01*
X135451729Y-70901983D01*
X136532572Y-70701660D01*
X136659734Y-70516639D01*
X136620929Y-70307263D01*
X136574893Y-70058875D01*
X136437307Y-69847011D01*
X136229116Y-69703927D01*
X135982018Y-69651404D01*
X135401348Y-69759025D01*
X135274187Y-69944047D01*
X134957092Y-69944047D01*
X134839418Y-69863173D01*
X134258748Y-69970793D01*
X134046884Y-70108379D01*
X134026862Y-70137511D01*
X134026862Y-69294581D01*
X134310132Y-69011311D01*
X142146280Y-69011311D01*
X142156221Y-69024863D01*
X142167332Y-69031498D01*
X142167332Y-69750953D01*
X142193060Y-69880297D01*
X142242769Y-70693037D01*
X142301330Y-70925212D01*
X142453336Y-71132443D01*
X142673991Y-71264208D01*
X142928526Y-71299744D01*
X144525542Y-71202067D01*
X144757717Y-71143507D01*
X144964948Y-70991500D01*
X145096713Y-70770845D01*
X145132249Y-70516310D01*
X145071201Y-69518175D01*
X145038786Y-69389659D01*
X147172395Y-69389659D01*
X147233443Y-70387794D01*
X147292004Y-70619969D01*
X147444010Y-70827200D01*
X147664665Y-70958965D01*
X147919200Y-70994501D01*
X148023822Y-70988102D01*
X148057225Y-71038093D01*
X148577761Y-71558630D01*
X148703342Y-71642540D01*
X148848655Y-71739635D01*
X149168196Y-71803196D01*
X151805979Y-71803196D01*
X151946693Y-71995033D01*
X152167348Y-72126798D01*
X152421883Y-72162334D01*
X154018899Y-72064657D01*
X154251074Y-72006097D01*
X154458305Y-71854090D01*
X154590070Y-71633435D01*
X154625606Y-71378900D01*
X154604620Y-71035775D01*
X156726137Y-71035775D01*
X156731506Y-71123552D01*
X156746928Y-71375699D01*
X156857669Y-71602751D01*
X157046869Y-71770141D01*
X157285725Y-71852386D01*
X157925089Y-71813281D01*
X158073852Y-71645135D01*
X158022006Y-70797469D01*
X156874900Y-70867629D01*
X156726137Y-71035775D01*
X154604620Y-71035775D01*
X154589097Y-70781963D01*
X158275532Y-70781963D01*
X158327378Y-71629629D01*
X158495523Y-71778391D01*
X159134887Y-71739286D01*
X159361939Y-71628545D01*
X159529330Y-71439346D01*
X159611575Y-71200490D01*
X159596153Y-70948342D01*
X159590784Y-70860565D01*
X159422639Y-70711803D01*
X158275532Y-70781963D01*
X154589097Y-70781963D01*
X154564558Y-70380765D01*
X154505997Y-70148590D01*
X154488999Y-70125416D01*
X156670457Y-70125416D01*
X156685879Y-70377564D01*
X156691248Y-70465341D01*
X156859393Y-70614103D01*
X158006500Y-70543943D01*
X157954654Y-69696277D01*
X157937128Y-69680771D01*
X158208180Y-69680771D01*
X158260026Y-70528437D01*
X159407132Y-70458277D01*
X159555895Y-70290131D01*
X159550526Y-70202354D01*
X159535104Y-69950207D01*
X159424363Y-69723155D01*
X159235163Y-69555765D01*
X158996307Y-69473520D01*
X158356943Y-69512625D01*
X158208180Y-69680771D01*
X157937128Y-69680771D01*
X157786509Y-69547515D01*
X157147145Y-69586620D01*
X156920093Y-69697361D01*
X156752702Y-69886560D01*
X156670457Y-70125416D01*
X154488999Y-70125416D01*
X154353991Y-69941359D01*
X154133336Y-69809594D01*
X153878801Y-69774058D01*
X152281785Y-69871735D01*
X152049610Y-69930295D01*
X151842379Y-70082302D01*
X151811987Y-70133196D01*
X150118160Y-70133196D01*
X150061875Y-69212932D01*
X150003314Y-68980757D01*
X149851308Y-68773526D01*
X149630653Y-68641761D01*
X149376118Y-68606225D01*
X147779102Y-68703902D01*
X147546927Y-68762462D01*
X147339696Y-68914469D01*
X147207931Y-69135124D01*
X147172395Y-69389659D01*
X145038786Y-69389659D01*
X145012640Y-69286000D01*
X144860634Y-69078769D01*
X144639979Y-68947004D01*
X144514266Y-68929453D01*
X144568019Y-68890024D01*
X144610303Y-68819215D01*
X144761059Y-68952592D01*
X144999915Y-69034836D01*
X145589372Y-68998783D01*
X145738135Y-68830638D01*
X145678658Y-67858205D01*
X145658695Y-67859426D01*
X145657672Y-67842699D01*
X145932184Y-67842699D01*
X145991661Y-68815132D01*
X146159806Y-68963894D01*
X146749264Y-68927841D01*
X146976316Y-68817101D01*
X147143706Y-68627901D01*
X147225951Y-68389045D01*
X147210529Y-68136898D01*
X147197529Y-67924354D01*
X147029384Y-67775591D01*
X145932184Y-67842699D01*
X145657672Y-67842699D01*
X145643189Y-67605900D01*
X145663152Y-67604679D01*
X145603675Y-66632246D01*
X145586149Y-66616740D01*
X145857201Y-66616740D01*
X145916678Y-67589173D01*
X147013878Y-67522065D01*
X147162640Y-67353920D01*
X147149640Y-67141376D01*
X147134218Y-66889228D01*
X147023478Y-66662176D01*
X146834277Y-66494786D01*
X146595421Y-66412542D01*
X146005964Y-66448595D01*
X145857201Y-66616740D01*
X145586149Y-66616740D01*
X145435530Y-66483484D01*
X144846072Y-66519537D01*
X144619020Y-66630277D01*
X144486669Y-66779873D01*
X144448443Y-66727759D01*
X144437332Y-66721124D01*
X144437332Y-64977800D01*
X145140132Y-64275000D01*
X147752957Y-64275000D01*
X147993266Y-64374785D01*
X148484579Y-64375214D01*
X148727114Y-64275000D01*
X151705000Y-64275000D01*
X151705000Y-64343053D01*
X151541544Y-64384280D01*
X151334313Y-64536287D01*
X151202548Y-64756942D01*
X151167012Y-65011477D01*
X151243322Y-66259146D01*
X151301883Y-66491321D01*
X151453889Y-66698552D01*
X151674545Y-66830317D01*
X151717799Y-66836356D01*
X151647023Y-66888271D01*
X151515258Y-67108926D01*
X151479722Y-67363461D01*
X151540770Y-68361596D01*
X151599331Y-68593771D01*
X151751337Y-68801002D01*
X151971992Y-68932767D01*
X152226527Y-68968303D01*
X153823543Y-68870626D01*
X154055718Y-68812066D01*
X154262949Y-68660059D01*
X154394714Y-68439404D01*
X154430250Y-68184869D01*
X154412520Y-67894971D01*
X154754821Y-67894971D01*
X154912058Y-68275515D01*
X155202954Y-68566919D01*
X155583223Y-68724820D01*
X155994971Y-68725179D01*
X156375515Y-68567942D01*
X156617655Y-68326224D01*
X156742011Y-68495759D01*
X156962666Y-68627524D01*
X157217201Y-68663060D01*
X158814217Y-68565383D01*
X159046392Y-68506823D01*
X159253623Y-68354816D01*
X159385388Y-68134161D01*
X159420924Y-67879626D01*
X159359876Y-66881491D01*
X159301315Y-66649316D01*
X159149309Y-66442085D01*
X158928654Y-66310320D01*
X158674119Y-66274784D01*
X157077103Y-66372461D01*
X156844928Y-66431021D01*
X156637697Y-66583028D01*
X156607305Y-66633922D01*
X156011078Y-66633922D01*
X155904610Y-66655100D01*
X155585029Y-66654821D01*
X155204485Y-66812058D01*
X154913081Y-67102954D01*
X154755180Y-67483223D01*
X154754821Y-67894971D01*
X154412520Y-67894971D01*
X154369202Y-67186734D01*
X154310641Y-66954559D01*
X154158635Y-66747328D01*
X154089986Y-66706334D01*
X154089986Y-66637044D01*
X154297583Y-66708525D01*
X154887040Y-66672472D01*
X155035803Y-66504327D01*
X154976326Y-65531894D01*
X154956363Y-65533115D01*
X154955340Y-65516388D01*
X155229852Y-65516388D01*
X155289329Y-66488821D01*
X155457474Y-66637583D01*
X156046932Y-66601530D01*
X156273984Y-66490790D01*
X156441374Y-66301590D01*
X156523619Y-66062734D01*
X156508197Y-65810587D01*
X156495197Y-65598043D01*
X156327052Y-65449280D01*
X155229852Y-65516388D01*
X154955340Y-65516388D01*
X154940857Y-65279589D01*
X154960820Y-65278368D01*
X154901343Y-64305935D01*
X154883817Y-64290429D01*
X155154869Y-64290429D01*
X155214346Y-65262862D01*
X156311546Y-65195754D01*
X156460308Y-65027609D01*
X156447308Y-64815065D01*
X156431886Y-64562917D01*
X156321146Y-64335865D01*
X156131945Y-64168475D01*
X155893089Y-64086231D01*
X155303632Y-64122284D01*
X155154869Y-64290429D01*
X154883817Y-64290429D01*
X154733198Y-64157173D01*
X154143740Y-64193226D01*
X153975000Y-64275526D01*
X153975000Y-63627043D01*
X154074785Y-63386734D01*
X154075214Y-62895421D01*
X153887592Y-62441343D01*
X153631696Y-62185000D01*
X154330000Y-62185000D01*
X154764346Y-62098603D01*
X155132566Y-61852566D01*
X156632566Y-60352566D01*
X156878603Y-59984346D01*
X156893811Y-59907888D01*
X156965000Y-59550000D01*
X156965000Y-51330000D01*
X156951274Y-51260995D01*
X157432833Y-52060118D01*
G36*
X99540302Y-63111673D02*
X99361673Y-63290301D01*
X99265000Y-63523690D01*
X99265000Y-64214250D01*
X99423750Y-64373000D01*
X100623000Y-64373000D01*
X100623000Y-64353000D01*
X100877000Y-64353000D01*
X100877000Y-64373000D01*
X102076250Y-64373000D01*
X102235000Y-64214250D01*
X102235000Y-63523690D01*
X102138327Y-63290301D01*
X101959698Y-63111673D01*
X101919446Y-63095000D01*
X102439868Y-63095000D01*
X104447651Y-65102784D01*
X104447651Y-68864473D01*
X104504931Y-69152438D01*
X104493281Y-69180929D01*
X104496225Y-69437916D01*
X104598919Y-69673510D01*
X105315889Y-70697450D01*
X105487132Y-70864814D01*
X105725016Y-70962084D01*
X105982003Y-70959140D01*
X105996609Y-70952773D01*
X105956298Y-71051359D01*
X105959242Y-71308345D01*
X106061936Y-71543940D01*
X106635513Y-72363092D01*
X106806756Y-72530455D01*
X107044641Y-72627725D01*
X107301627Y-72624781D01*
X107537221Y-72522087D01*
X108377300Y-71933857D01*
X112454018Y-71933857D01*
X112504459Y-72005894D01*
X112649355Y-72212827D01*
X112862412Y-72348559D01*
X113111193Y-72392425D01*
X113357823Y-72337749D01*
X113882539Y-71970339D01*
X113921524Y-71749243D01*
X113434414Y-71053579D01*
X112493003Y-71712761D01*
X112454018Y-71933857D01*
X108377300Y-71933857D01*
X108847864Y-71604365D01*
X109015228Y-71433122D01*
X109112498Y-71195237D01*
X109109576Y-70940111D01*
X111876206Y-70940111D01*
X111930882Y-71186741D01*
X112075778Y-71393674D01*
X112126219Y-71465711D01*
X112347315Y-71504697D01*
X113199642Y-70907890D01*
X113642479Y-70907890D01*
X114129588Y-71603555D01*
X114350684Y-71642540D01*
X114875399Y-71275131D01*
X115011131Y-71062074D01*
X115054998Y-70813293D01*
X115000322Y-70566663D01*
X114855426Y-70359730D01*
X114804985Y-70287693D01*
X114583889Y-70248707D01*
X113642479Y-70907890D01*
X113199642Y-70907890D01*
X113288725Y-70845514D01*
X112801616Y-70149849D01*
X112580520Y-70110864D01*
X112055805Y-70478273D01*
X111920073Y-70691330D01*
X111876206Y-70940111D01*
X109109576Y-70940111D01*
X109109554Y-70938251D01*
X109006860Y-70702656D01*
X108517769Y-70004161D01*
X113009680Y-70004161D01*
X113496790Y-70699825D01*
X114438201Y-70040643D01*
X114477186Y-69819547D01*
X114426745Y-69747510D01*
X114281849Y-69540577D01*
X114068792Y-69404845D01*
X113820011Y-69360979D01*
X113573381Y-69415655D01*
X113048665Y-69783065D01*
X113009680Y-70004161D01*
X108517769Y-70004161D01*
X108433283Y-69883504D01*
X108262040Y-69716141D01*
X108024155Y-69618871D01*
X107943109Y-69619799D01*
X107853008Y-69529698D01*
X107908246Y-69539438D01*
X108154876Y-69484762D01*
X108638634Y-69146031D01*
X108677619Y-68924935D01*
X108118812Y-68126877D01*
X108102429Y-68138349D01*
X107992384Y-67981188D01*
X108326877Y-67981188D01*
X108885683Y-68779247D01*
X109106779Y-68818232D01*
X109590537Y-68479501D01*
X109726268Y-68266445D01*
X109740897Y-68183477D01*
X110052058Y-68183477D01*
X110055002Y-68440463D01*
X110157696Y-68676058D01*
X110731273Y-69495210D01*
X110902516Y-69662573D01*
X111140401Y-69759843D01*
X111397387Y-69756899D01*
X111632981Y-69654205D01*
X112438155Y-69090416D01*
X116793264Y-69090416D01*
X118132324Y-70429476D01*
X118122241Y-70447412D01*
X118089855Y-70702367D01*
X118159211Y-70949835D01*
X118319383Y-71150822D01*
X119545054Y-72179282D01*
X119753778Y-72296622D01*
X120008733Y-72329008D01*
X120256201Y-72259652D01*
X120457188Y-72099480D01*
X121099975Y-71333436D01*
X121217315Y-71124712D01*
X121249701Y-70869757D01*
X121180345Y-70622289D01*
X121020173Y-70421302D01*
X119794502Y-69392842D01*
X119585778Y-69275502D01*
X119330823Y-69243116D01*
X119312762Y-69248178D01*
X117729566Y-67664982D01*
X117679479Y-67631515D01*
X117458673Y-67483977D01*
X117139132Y-67420416D01*
X112812483Y-67420416D01*
X112529043Y-67015622D01*
X112357800Y-66848259D01*
X112119915Y-66750989D01*
X111862929Y-66753933D01*
X111627335Y-66856627D01*
X110316692Y-67774349D01*
X110149328Y-67945592D01*
X110052058Y-68183477D01*
X109740897Y-68183477D01*
X109770136Y-68017664D01*
X109715459Y-67771034D01*
X109570563Y-67564100D01*
X109448425Y-67389669D01*
X109227329Y-67350684D01*
X108326877Y-67981188D01*
X107992384Y-67981188D01*
X107956740Y-67930283D01*
X107973123Y-67918812D01*
X107414317Y-67120753D01*
X107193221Y-67081768D01*
X106717651Y-67414766D01*
X106717651Y-66975065D01*
X107622381Y-66975065D01*
X108181188Y-67773123D01*
X109081641Y-67142620D01*
X109120626Y-66921524D01*
X108998488Y-66747093D01*
X108853592Y-66540160D01*
X108640536Y-66404428D01*
X108391754Y-66360562D01*
X108145124Y-66415238D01*
X107661366Y-66753969D01*
X107622381Y-66975065D01*
X106717651Y-66975065D01*
X106717651Y-66027481D01*
X107110132Y-65635000D01*
X120575797Y-65635000D01*
X121427354Y-66486557D01*
X121424455Y-66509372D01*
X120924132Y-67009695D01*
X120826808Y-67155350D01*
X120296501Y-67787346D01*
X120179161Y-67996070D01*
X120146775Y-68251025D01*
X120216131Y-68498493D01*
X120376303Y-68699480D01*
X121601974Y-69727940D01*
X121810698Y-69845280D01*
X122065653Y-69877666D01*
X122313121Y-69808310D01*
X122514108Y-69648138D01*
X123033857Y-69028725D01*
X124346974Y-69028725D01*
X124366541Y-69252378D01*
X124818935Y-69631982D01*
X125059862Y-69707945D01*
X125311519Y-69685929D01*
X125535595Y-69569283D01*
X125697975Y-69375765D01*
X125834851Y-69212643D01*
X125815284Y-68988991D01*
X124973210Y-68282407D01*
X124346974Y-69028725D01*
X123033857Y-69028725D01*
X123156895Y-68882094D01*
X123274235Y-68673370D01*
X123306621Y-68418415D01*
X123237265Y-68170947D01*
X123174215Y-68091831D01*
X123262747Y-68103077D01*
X123342162Y-68080820D01*
X123359706Y-68281345D01*
X123476352Y-68505420D01*
X123928746Y-68885024D01*
X124152399Y-68865457D01*
X124778634Y-68119139D01*
X124763313Y-68106283D01*
X124778796Y-68087831D01*
X125136478Y-68087831D01*
X125978552Y-68794416D01*
X126202204Y-68774849D01*
X126339080Y-68611726D01*
X126501460Y-68418209D01*
X126577424Y-68177282D01*
X126555406Y-67925625D01*
X126438760Y-67701550D01*
X125986366Y-67321946D01*
X125762713Y-67341513D01*
X125136478Y-68087831D01*
X124778796Y-68087831D01*
X124926582Y-67911708D01*
X124941902Y-67924563D01*
X125568138Y-67178245D01*
X125562795Y-67117176D01*
X130539422Y-67117176D01*
X131756862Y-68334616D01*
X131756862Y-70370588D01*
X131074412Y-70370588D01*
X130640066Y-70456985D01*
X130341904Y-70656211D01*
X130271846Y-70703022D01*
X128997434Y-71977434D01*
X128751397Y-72345654D01*
X128739592Y-72405000D01*
X126727862Y-72405000D01*
X126987117Y-72096032D01*
X127104457Y-71887308D01*
X127136843Y-71632353D01*
X127067487Y-71384885D01*
X126907315Y-71183898D01*
X125681644Y-70155438D01*
X125472920Y-70038098D01*
X125217965Y-70005712D01*
X125189831Y-70013597D01*
X125175709Y-70004161D01*
X124957803Y-69858561D01*
X124638262Y-69795000D01*
X123270000Y-69795000D01*
X122950459Y-69858561D01*
X122732553Y-70004161D01*
X122679566Y-70039566D01*
X121049566Y-71669566D01*
X120868561Y-71940459D01*
X120805000Y-72260000D01*
X120805000Y-73013420D01*
X120516358Y-72724274D01*
X119640087Y-72360415D01*
X118691275Y-72359587D01*
X117814371Y-72721916D01*
X117142874Y-73392242D01*
X116779015Y-74268513D01*
X116778187Y-75217325D01*
X117140516Y-76094229D01*
X117810842Y-76765726D01*
X118687113Y-77129585D01*
X119635925Y-77130413D01*
X120066719Y-76952413D01*
X119766572Y-77252560D01*
X118700000Y-77252560D01*
X118464683Y-77296838D01*
X118248559Y-77435910D01*
X118103569Y-77648110D01*
X118052560Y-77900000D01*
X118052560Y-78900000D01*
X118096838Y-79135317D01*
X118235910Y-79351441D01*
X118448110Y-79496431D01*
X118700000Y-79547440D01*
X120300000Y-79547440D01*
X120535317Y-79503162D01*
X120751441Y-79364090D01*
X120896431Y-79151890D01*
X120947440Y-78900000D01*
X120947440Y-78433428D01*
X122230434Y-77150434D01*
X122280378Y-77075687D01*
X122411439Y-76879541D01*
X122475000Y-76560000D01*
X122475000Y-74621560D01*
X122551539Y-74685784D01*
X122775191Y-74666217D01*
X123321078Y-74015654D01*
X123305757Y-74002798D01*
X123469026Y-73808223D01*
X123484346Y-73821078D01*
X124030234Y-73170515D01*
X124010667Y-72946863D01*
X123519970Y-72535120D01*
X123279044Y-72459156D01*
X123027386Y-72481172D01*
X122803311Y-72597818D01*
X122640930Y-72791336D01*
X122584403Y-72858703D01*
X122603970Y-73082352D01*
X122482362Y-72980311D01*
X122475000Y-72989085D01*
X122475000Y-72605868D01*
X123615868Y-71465000D01*
X123977007Y-71465000D01*
X124046353Y-71712431D01*
X124206525Y-71913418D01*
X125361898Y-72882891D01*
X125205262Y-73039527D01*
X125168854Y-73063854D01*
X124778855Y-73453853D01*
X124719945Y-73542018D01*
X124448461Y-73314216D01*
X124224809Y-73333783D01*
X123678922Y-73984346D01*
X123694243Y-73997202D01*
X123530974Y-74191777D01*
X123515654Y-74178922D01*
X122969766Y-74829485D01*
X122989333Y-75053137D01*
X123480030Y-75464880D01*
X123720956Y-75540844D01*
X123963393Y-75519635D01*
X123637434Y-75737434D01*
X123391397Y-76105654D01*
X123305000Y-76540000D01*
X123305000Y-82369868D01*
X122959868Y-82715000D01*
X120828386Y-82715000D01*
X120701890Y-82628569D01*
X120663362Y-82620767D01*
X120751441Y-82564090D01*
X120896431Y-82351890D01*
X120947440Y-82100000D01*
X120947440Y-81100000D01*
X120903162Y-80864683D01*
X120764090Y-80648559D01*
X120551890Y-80503569D01*
X120300000Y-80452560D01*
X118700000Y-80452560D01*
X118464683Y-80496838D01*
X118248559Y-80635910D01*
X118103569Y-80848110D01*
X118052560Y-81100000D01*
X118052560Y-82100000D01*
X118096838Y-82335317D01*
X118235910Y-82551441D01*
X118365000Y-82639644D01*
X118365000Y-82741975D01*
X118309698Y-82686673D01*
X118076309Y-82590000D01*
X117485750Y-82590000D01*
X117327000Y-82748750D01*
X117327000Y-83723000D01*
X117347000Y-83723000D01*
X117347000Y-83977000D01*
X117327000Y-83977000D01*
X117327000Y-84951250D01*
X117375309Y-84999559D01*
X117230085Y-85144783D01*
X116984048Y-85513003D01*
X116897651Y-85947349D01*
X116897651Y-87864473D01*
X116954931Y-88152438D01*
X116943281Y-88180929D01*
X116946225Y-88437916D01*
X117048919Y-88673510D01*
X117765889Y-89697450D01*
X117937132Y-89864814D01*
X118175016Y-89962084D01*
X118432003Y-89959140D01*
X118494809Y-89931763D01*
X118502184Y-89939138D01*
X118456298Y-90051359D01*
X118459242Y-90308345D01*
X118561936Y-90543940D01*
X119135513Y-91363092D01*
X119306756Y-91530455D01*
X119544641Y-91627725D01*
X119801627Y-91624781D01*
X120037221Y-91522087D01*
X121335279Y-90613177D01*
X122108045Y-90613177D01*
X123105000Y-91610132D01*
X123105000Y-91985037D01*
X122768727Y-91504790D01*
X122597484Y-91337427D01*
X122359599Y-91240157D01*
X122102613Y-91243101D01*
X121867019Y-91345795D01*
X121061845Y-91909584D01*
X113820452Y-91909584D01*
X113323600Y-91412732D01*
X113529994Y-91354888D01*
X113730981Y-91194716D01*
X114373768Y-90428672D01*
X114491108Y-90219948D01*
X114523494Y-89964993D01*
X114454138Y-89717525D01*
X114293966Y-89516538D01*
X113778571Y-89084070D01*
X113778571Y-84135750D01*
X115815000Y-84135750D01*
X115815000Y-84601310D01*
X115911673Y-84834699D01*
X116090302Y-85013327D01*
X116323691Y-85110000D01*
X116914250Y-85110000D01*
X117073000Y-84951250D01*
X117073000Y-83977000D01*
X115973750Y-83977000D01*
X115815000Y-84135750D01*
X113778571Y-84135750D01*
X113778571Y-83098690D01*
X115815000Y-83098690D01*
X115815000Y-83564250D01*
X115973750Y-83723000D01*
X117073000Y-83723000D01*
X117073000Y-82748750D01*
X116914250Y-82590000D01*
X116323691Y-82590000D01*
X116090302Y-82686673D01*
X115911673Y-82865301D01*
X115815000Y-83098690D01*
X113778571Y-83098690D01*
X113778571Y-82747440D01*
X115300000Y-82747440D01*
X115535317Y-82703162D01*
X115751441Y-82564090D01*
X115896431Y-82351890D01*
X115947440Y-82100000D01*
X115947440Y-81100000D01*
X115903162Y-80864683D01*
X115764090Y-80648559D01*
X115551890Y-80503569D01*
X115300000Y-80452560D01*
X113700000Y-80452560D01*
X113464683Y-80496838D01*
X113248559Y-80635910D01*
X113138391Y-80797146D01*
X112980460Y-80828560D01*
X112709566Y-81009566D01*
X112353137Y-81365995D01*
X112172132Y-81636888D01*
X112108571Y-81956429D01*
X112108571Y-88624596D01*
X111513374Y-89333924D01*
X111396034Y-89542648D01*
X111392492Y-89570533D01*
X111389541Y-89568561D01*
X111070000Y-89505000D01*
X108623595Y-89505000D01*
X108593883Y-89475288D01*
X108603966Y-89457352D01*
X108636352Y-89202397D01*
X108566996Y-88954929D01*
X108406824Y-88753942D01*
X107181153Y-87725482D01*
X106972429Y-87608142D01*
X106717474Y-87575756D01*
X106470006Y-87645112D01*
X106269019Y-87805284D01*
X105626232Y-88571328D01*
X105508892Y-88780052D01*
X105476506Y-89035007D01*
X105545862Y-89282475D01*
X105706034Y-89483462D01*
X106931705Y-90511922D01*
X107140429Y-90629262D01*
X107395384Y-90661648D01*
X107413445Y-90656586D01*
X107687293Y-90930434D01*
X107958186Y-91111439D01*
X108277727Y-91175000D01*
X109968528Y-91175000D01*
X109456454Y-91785266D01*
X109339114Y-91993990D01*
X109306728Y-92248945D01*
X109319531Y-92294628D01*
X109257842Y-92356316D01*
X109173648Y-92194580D01*
X108721254Y-91814976D01*
X108497601Y-91834543D01*
X107871366Y-92580861D01*
X107886687Y-92593717D01*
X107723418Y-92788292D01*
X107708098Y-92775437D01*
X107081862Y-93521755D01*
X107101429Y-93745408D01*
X107410798Y-94005000D01*
X104910132Y-94005000D01*
X104835000Y-93929868D01*
X104835000Y-92522718D01*
X106072576Y-92522718D01*
X106094594Y-92774375D01*
X106211240Y-92998450D01*
X106663634Y-93378054D01*
X106887287Y-93358487D01*
X107513522Y-92612169D01*
X106671448Y-91905584D01*
X106447796Y-91925151D01*
X106310920Y-92088274D01*
X106148540Y-92281791D01*
X106072576Y-92522718D01*
X104835000Y-92522718D01*
X104835000Y-91487357D01*
X106815149Y-91487357D01*
X106834716Y-91711009D01*
X107676790Y-92417593D01*
X108303026Y-91671275D01*
X108283459Y-91447622D01*
X107831065Y-91068018D01*
X107590138Y-90992055D01*
X107338481Y-91014071D01*
X107114405Y-91130717D01*
X106952025Y-91324235D01*
X106815149Y-91487357D01*
X104835000Y-91487357D01*
X104835000Y-91327043D01*
X104934785Y-91086734D01*
X104935214Y-90595421D01*
X104835000Y-90352886D01*
X104835000Y-87496845D01*
X108583115Y-87496845D01*
X108602682Y-87720497D01*
X109093379Y-88132240D01*
X109334305Y-88208204D01*
X109585963Y-88186188D01*
X109810038Y-88069542D01*
X109972419Y-87876024D01*
X110028946Y-87808657D01*
X110009379Y-87585005D01*
X109129003Y-86846282D01*
X108583115Y-87496845D01*
X104835000Y-87496845D01*
X104835000Y-86465668D01*
X107535527Y-86465668D01*
X107557545Y-86717325D01*
X107674191Y-86941400D01*
X108164888Y-87353144D01*
X108388540Y-87333577D01*
X108934427Y-86683014D01*
X108897116Y-86651706D01*
X109292271Y-86651706D01*
X110172647Y-87390430D01*
X110396299Y-87370863D01*
X110452827Y-87303496D01*
X110615207Y-87109979D01*
X110691171Y-86869052D01*
X110669153Y-86617395D01*
X110552507Y-86393320D01*
X110061810Y-85981576D01*
X109838158Y-86001143D01*
X109292271Y-86651706D01*
X108897116Y-86651706D01*
X108054051Y-85944290D01*
X107830399Y-85963857D01*
X107773871Y-86031224D01*
X107611491Y-86224741D01*
X107535527Y-86465668D01*
X104835000Y-86465668D01*
X104835000Y-85881844D01*
X104901441Y-85839090D01*
X104947969Y-85770994D01*
X105090302Y-85913327D01*
X105323691Y-86010000D01*
X105914250Y-86010000D01*
X106073000Y-85851250D01*
X106073000Y-84877000D01*
X106327000Y-84877000D01*
X106327000Y-85851250D01*
X106485750Y-86010000D01*
X107076309Y-86010000D01*
X107309698Y-85913327D01*
X107488327Y-85734699D01*
X107574746Y-85526063D01*
X108197752Y-85526063D01*
X108217319Y-85749715D01*
X109097695Y-86488438D01*
X109643583Y-85837875D01*
X109624016Y-85614223D01*
X109133319Y-85202480D01*
X108892393Y-85126516D01*
X108640735Y-85148532D01*
X108416660Y-85265178D01*
X108254279Y-85458696D01*
X108197752Y-85526063D01*
X107574746Y-85526063D01*
X107585000Y-85501310D01*
X107585000Y-85035750D01*
X107426250Y-84877000D01*
X106327000Y-84877000D01*
X106073000Y-84877000D01*
X106053000Y-84877000D01*
X106053000Y-84623000D01*
X106073000Y-84623000D01*
X106073000Y-84603000D01*
X106327000Y-84603000D01*
X106327000Y-84623000D01*
X107426250Y-84623000D01*
X107585000Y-84464250D01*
X107585000Y-83998690D01*
X107563772Y-83947440D01*
X107600000Y-83947440D01*
X107835317Y-83903162D01*
X108051441Y-83764090D01*
X108196431Y-83551890D01*
X108247440Y-83300000D01*
X108247440Y-81700000D01*
X108203162Y-81464683D01*
X108064090Y-81248559D01*
X107902854Y-81138391D01*
X107871440Y-80980460D01*
X107690434Y-80709566D01*
X106970434Y-79989566D01*
X106863774Y-79918298D01*
X106699541Y-79808561D01*
X106380000Y-79745000D01*
X92670000Y-79745000D01*
X92350460Y-79808560D01*
X92079566Y-79989566D01*
X91434566Y-80634566D01*
X91253561Y-80905459D01*
X91239219Y-80977560D01*
X91225000Y-80977560D01*
X90989683Y-81021838D01*
X90773559Y-81160910D01*
X90628569Y-81373110D01*
X90577560Y-81625000D01*
X90577560Y-82625000D01*
X90621838Y-82860317D01*
X90760910Y-83076441D01*
X90973110Y-83221431D01*
X91225000Y-83272440D01*
X92825000Y-83272440D01*
X93060317Y-83228162D01*
X93276441Y-83089090D01*
X93421431Y-82876890D01*
X93472440Y-82625000D01*
X93472440Y-81625000D01*
X93432926Y-81415000D01*
X97337317Y-81415000D01*
X97205180Y-81733223D01*
X97204821Y-82144971D01*
X97362058Y-82525515D01*
X97405000Y-82568532D01*
X97405000Y-116440000D01*
X97418316Y-116506942D01*
X96486619Y-114663162D01*
X92735449Y-106679863D01*
X92732352Y-106675664D01*
X92731024Y-106670616D01*
X90804155Y-102717048D01*
X90795647Y-102705853D01*
X90791551Y-102692401D01*
X88727579Y-98840891D01*
X88637945Y-98731909D01*
X88549581Y-98624285D01*
X88549306Y-98624138D01*
X88549106Y-98623895D01*
X88425304Y-98557892D01*
X88365140Y-98525750D01*
X93805000Y-98525750D01*
X93805000Y-99366310D01*
X93901673Y-99599699D01*
X94080302Y-99778327D01*
X94313691Y-99875000D01*
X95154250Y-99875000D01*
X95313000Y-99716250D01*
X95313000Y-98367000D01*
X95567000Y-98367000D01*
X95567000Y-99716250D01*
X95725750Y-99875000D01*
X96566309Y-99875000D01*
X96799698Y-99778327D01*
X96978327Y-99599699D01*
X97075000Y-99366310D01*
X97075000Y-98525750D01*
X96916250Y-98367000D01*
X95567000Y-98367000D01*
X95313000Y-98367000D01*
X93963750Y-98367000D01*
X93805000Y-98525750D01*
X88365140Y-98525750D01*
X88301766Y-98491894D01*
X86692786Y-98004196D01*
X85196641Y-97354237D01*
X84776859Y-97113690D01*
X93805000Y-97113690D01*
X93805000Y-97954250D01*
X93963750Y-98113000D01*
X95313000Y-98113000D01*
X95313000Y-96763750D01*
X95567000Y-96763750D01*
X95567000Y-98113000D01*
X96916250Y-98113000D01*
X97075000Y-97954250D01*
X97075000Y-97113690D01*
X96978327Y-96880301D01*
X96799698Y-96701673D01*
X96566309Y-96605000D01*
X95725750Y-96605000D01*
X95567000Y-96763750D01*
X95313000Y-96763750D01*
X95154250Y-96605000D01*
X94313691Y-96605000D01*
X94080302Y-96701673D01*
X93901673Y-96880301D01*
X93805000Y-97113690D01*
X84776859Y-97113690D01*
X83780639Y-96542828D01*
X82454075Y-95583574D01*
X81226563Y-94490461D01*
X80107836Y-93277798D01*
X79107661Y-91960294D01*
X78235631Y-90552843D01*
X77501187Y-89070600D01*
X76913479Y-87528722D01*
X76481391Y-85942398D01*
X76213506Y-84326704D01*
X76118141Y-82696394D01*
X76203443Y-81065759D01*
X76477578Y-79448497D01*
X76922212Y-77948085D01*
X77491936Y-77227924D01*
X77552782Y-77109007D01*
X77615948Y-76991281D01*
X77847460Y-76232410D01*
X77849487Y-76212155D01*
X77858099Y-76193705D01*
X77863413Y-76073023D01*
X77875441Y-75952846D01*
X77869562Y-75933356D01*
X77870458Y-75913015D01*
X77762262Y-75208322D01*
X77719828Y-75091600D01*
X77682826Y-74973062D01*
X77319622Y-74306502D01*
X77265826Y-74242015D01*
X77222964Y-74169793D01*
X76073595Y-72890500D01*
X74920621Y-71571270D01*
X74898586Y-71554302D01*
X74882922Y-71531318D01*
X74211754Y-70872326D01*
X74270426Y-70891661D01*
X74526581Y-70870798D01*
X74754438Y-70751920D01*
X74874129Y-70654997D01*
X74949566Y-70730434D01*
X75220459Y-70911439D01*
X75540000Y-70975000D01*
X83494132Y-70975000D01*
X84105000Y-71585868D01*
X84105000Y-84570000D01*
X84168561Y-84889541D01*
X84312963Y-85105654D01*
X84349566Y-85160434D01*
X85104566Y-85915434D01*
X85375459Y-86096439D01*
X85684659Y-86157943D01*
X85760910Y-86276441D01*
X85973110Y-86421431D01*
X86225000Y-86472440D01*
X87825000Y-86472440D01*
X88060317Y-86428162D01*
X88276441Y-86289090D01*
X88421431Y-86076890D01*
X88472440Y-85825000D01*
X88472440Y-85610750D01*
X90590000Y-85610750D01*
X90590000Y-85951310D01*
X90686673Y-86184699D01*
X90865302Y-86363327D01*
X91098691Y-86460000D01*
X91739250Y-86460000D01*
X91898000Y-86301250D01*
X91898000Y-85452000D01*
X92152000Y-85452000D01*
X92152000Y-86301250D01*
X92310750Y-86460000D01*
X92951309Y-86460000D01*
X93184698Y-86363327D01*
X93363327Y-86184699D01*
X93460000Y-85951310D01*
X93460000Y-85863795D01*
X93804716Y-85863795D01*
X94053106Y-86464943D01*
X94512637Y-86925278D01*
X95113352Y-87174716D01*
X95763795Y-87175284D01*
X96364943Y-86926894D01*
X96825278Y-86467363D01*
X97074716Y-85866648D01*
X97075284Y-85216205D01*
X96826894Y-84615057D01*
X96367363Y-84154722D01*
X95766648Y-83905284D01*
X95116205Y-83904716D01*
X94515057Y-84153106D01*
X94054722Y-84612637D01*
X93805284Y-85213352D01*
X93804716Y-85863795D01*
X93460000Y-85863795D01*
X93460000Y-85610750D01*
X93301250Y-85452000D01*
X92152000Y-85452000D01*
X91898000Y-85452000D01*
X90748750Y-85452000D01*
X90590000Y-85610750D01*
X88472440Y-85610750D01*
X88472440Y-84825000D01*
X88448674Y-84698690D01*
X90590000Y-84698690D01*
X90590000Y-85039250D01*
X90748750Y-85198000D01*
X91898000Y-85198000D01*
X91898000Y-84348750D01*
X92152000Y-84348750D01*
X92152000Y-85198000D01*
X93301250Y-85198000D01*
X93460000Y-85039250D01*
X93460000Y-84698690D01*
X93363327Y-84465301D01*
X93184698Y-84286673D01*
X92951309Y-84190000D01*
X92310750Y-84190000D01*
X92152000Y-84348750D01*
X91898000Y-84348750D01*
X91739250Y-84190000D01*
X91098691Y-84190000D01*
X90865302Y-84286673D01*
X90686673Y-84465301D01*
X90590000Y-84698690D01*
X88448674Y-84698690D01*
X88428162Y-84589683D01*
X88289090Y-84373559D01*
X88076890Y-84228569D01*
X87825000Y-84177560D01*
X86225000Y-84177560D01*
X85989683Y-84221838D01*
X85857660Y-84306792D01*
X85775000Y-84224132D01*
X85775000Y-83086068D01*
X85973110Y-83221431D01*
X86225000Y-83272440D01*
X87825000Y-83272440D01*
X88060317Y-83228162D01*
X88276441Y-83089090D01*
X88421431Y-82876890D01*
X88472440Y-82625000D01*
X88472440Y-81625000D01*
X88428162Y-81389683D01*
X88289090Y-81173559D01*
X88160000Y-81085356D01*
X88160000Y-80983025D01*
X88190302Y-81013327D01*
X88423691Y-81110000D01*
X89014250Y-81110000D01*
X89173000Y-80951250D01*
X89173000Y-79977000D01*
X89427000Y-79977000D01*
X89427000Y-80951250D01*
X89585750Y-81110000D01*
X90176309Y-81110000D01*
X90409698Y-81013327D01*
X90588327Y-80834699D01*
X90685000Y-80601310D01*
X90685000Y-80135750D01*
X90526250Y-79977000D01*
X89427000Y-79977000D01*
X89173000Y-79977000D01*
X89153000Y-79977000D01*
X89153000Y-79723000D01*
X89173000Y-79723000D01*
X89173000Y-78748750D01*
X89427000Y-78748750D01*
X89427000Y-79723000D01*
X90526250Y-79723000D01*
X90685000Y-79564250D01*
X90685000Y-79098690D01*
X90588327Y-78865301D01*
X90409698Y-78686673D01*
X90176309Y-78590000D01*
X89585750Y-78590000D01*
X89427000Y-78748750D01*
X89173000Y-78748750D01*
X89014250Y-78590000D01*
X88423691Y-78590000D01*
X88190302Y-78686673D01*
X88049064Y-78827910D01*
X88014090Y-78773559D01*
X87935000Y-78719519D01*
X87935000Y-76700000D01*
X102752560Y-76700000D01*
X102752560Y-78300000D01*
X102796838Y-78535317D01*
X102935910Y-78751441D01*
X103148110Y-78896431D01*
X103400000Y-78947440D01*
X104400000Y-78947440D01*
X104635317Y-78903162D01*
X104851441Y-78764090D01*
X104996431Y-78551890D01*
X105047440Y-78300000D01*
X105047440Y-77785750D01*
X105965000Y-77785750D01*
X105965000Y-78426309D01*
X106061673Y-78659698D01*
X106240301Y-78838327D01*
X106473690Y-78935000D01*
X106814250Y-78935000D01*
X106973000Y-78776250D01*
X106973000Y-77627000D01*
X107227000Y-77627000D01*
X107227000Y-78776250D01*
X107385750Y-78935000D01*
X107726310Y-78935000D01*
X107959699Y-78838327D01*
X108112275Y-78685750D01*
X113065000Y-78685750D01*
X113065000Y-79026310D01*
X113161673Y-79259699D01*
X113340302Y-79438327D01*
X113573691Y-79535000D01*
X114214250Y-79535000D01*
X114373000Y-79376250D01*
X114373000Y-78527000D01*
X114627000Y-78527000D01*
X114627000Y-79376250D01*
X114785750Y-79535000D01*
X115426309Y-79535000D01*
X115659698Y-79438327D01*
X115838327Y-79259699D01*
X115935000Y-79026310D01*
X115935000Y-78685750D01*
X115776250Y-78527000D01*
X114627000Y-78527000D01*
X114373000Y-78527000D01*
X113223750Y-78527000D01*
X113065000Y-78685750D01*
X108112275Y-78685750D01*
X108138327Y-78659698D01*
X108235000Y-78426309D01*
X108235000Y-77785750D01*
X108222940Y-77773690D01*
X113065000Y-77773690D01*
X113065000Y-78114250D01*
X113223750Y-78273000D01*
X114373000Y-78273000D01*
X114373000Y-77423750D01*
X114627000Y-77423750D01*
X114627000Y-78273000D01*
X115776250Y-78273000D01*
X115935000Y-78114250D01*
X115935000Y-77773690D01*
X115838327Y-77540301D01*
X115659698Y-77361673D01*
X115426309Y-77265000D01*
X114785750Y-77265000D01*
X114627000Y-77423750D01*
X114373000Y-77423750D01*
X114214250Y-77265000D01*
X113573691Y-77265000D01*
X113340302Y-77361673D01*
X113161673Y-77540301D01*
X113065000Y-77773690D01*
X108222940Y-77773690D01*
X108076250Y-77627000D01*
X107227000Y-77627000D01*
X106973000Y-77627000D01*
X106123750Y-77627000D01*
X105965000Y-77785750D01*
X105047440Y-77785750D01*
X105047440Y-76700000D01*
X105023674Y-76573691D01*
X105965000Y-76573691D01*
X105965000Y-77214250D01*
X106123750Y-77373000D01*
X106973000Y-77373000D01*
X106973000Y-76223750D01*
X107227000Y-76223750D01*
X107227000Y-77373000D01*
X108076250Y-77373000D01*
X108235000Y-77214250D01*
X108235000Y-76573691D01*
X108138327Y-76340302D01*
X107959699Y-76161673D01*
X107726310Y-76065000D01*
X107385750Y-76065000D01*
X107227000Y-76223750D01*
X106973000Y-76223750D01*
X106814250Y-76065000D01*
X106473690Y-76065000D01*
X106240301Y-76161673D01*
X106061673Y-76340302D01*
X105965000Y-76573691D01*
X105023674Y-76573691D01*
X105003162Y-76464683D01*
X104864090Y-76248559D01*
X104735000Y-76160356D01*
X104735000Y-75385868D01*
X105541284Y-74579584D01*
X108187517Y-74579584D01*
X108470957Y-74984378D01*
X108642200Y-75151741D01*
X108880085Y-75249011D01*
X109137071Y-75246067D01*
X109372665Y-75143373D01*
X110683308Y-74225651D01*
X110850672Y-74054408D01*
X110947942Y-73816523D01*
X110944998Y-73559537D01*
X110842304Y-73323942D01*
X110268727Y-72504790D01*
X110097484Y-72337427D01*
X109859599Y-72240157D01*
X109602613Y-72243101D01*
X109367019Y-72345795D01*
X108561845Y-72909584D01*
X105195416Y-72909584D01*
X104875875Y-72973145D01*
X104665963Y-73113404D01*
X104604982Y-73154150D01*
X103309566Y-74449566D01*
X103128561Y-74720459D01*
X103065000Y-75040000D01*
X103065000Y-76160982D01*
X102948559Y-76235910D01*
X102803569Y-76448110D01*
X102752560Y-76700000D01*
X87935000Y-76700000D01*
X87935000Y-66210132D01*
X88510132Y-65635000D01*
X95780000Y-65635000D01*
X96214346Y-65548603D01*
X96582566Y-65302566D01*
X97099382Y-64785750D01*
X99265000Y-64785750D01*
X99265000Y-65476310D01*
X99361673Y-65709699D01*
X99540302Y-65888327D01*
X99773691Y-65985000D01*
X100464250Y-65985000D01*
X100623000Y-65826250D01*
X100623000Y-64627000D01*
X100877000Y-64627000D01*
X100877000Y-65826250D01*
X101035750Y-65985000D01*
X101726309Y-65985000D01*
X101959698Y-65888327D01*
X102138327Y-65709699D01*
X102235000Y-65476310D01*
X102235000Y-64785750D01*
X102076250Y-64627000D01*
X100877000Y-64627000D01*
X100623000Y-64627000D01*
X99423750Y-64627000D01*
X99265000Y-64785750D01*
X97099382Y-64785750D01*
X98790133Y-63095000D01*
X99580554Y-63095000D01*
X99540302Y-63111673D01*
X99540302Y-63111673D01*
G37*
X99540302Y-63111673D02*
X99361673Y-63290301D01*
X99265000Y-63523690D01*
X99265000Y-64214250D01*
X99423750Y-64373000D01*
X100623000Y-64373000D01*
X100623000Y-64353000D01*
X100877000Y-64353000D01*
X100877000Y-64373000D01*
X102076250Y-64373000D01*
X102235000Y-64214250D01*
X102235000Y-63523690D01*
X102138327Y-63290301D01*
X101959698Y-63111673D01*
X101919446Y-63095000D01*
X102439868Y-63095000D01*
X104447651Y-65102784D01*
X104447651Y-68864473D01*
X104504931Y-69152438D01*
X104493281Y-69180929D01*
X104496225Y-69437916D01*
X104598919Y-69673510D01*
X105315889Y-70697450D01*
X105487132Y-70864814D01*
X105725016Y-70962084D01*
X105982003Y-70959140D01*
X105996609Y-70952773D01*
X105956298Y-71051359D01*
X105959242Y-71308345D01*
X106061936Y-71543940D01*
X106635513Y-72363092D01*
X106806756Y-72530455D01*
X107044641Y-72627725D01*
X107301627Y-72624781D01*
X107537221Y-72522087D01*
X108377300Y-71933857D01*
X112454018Y-71933857D01*
X112504459Y-72005894D01*
X112649355Y-72212827D01*
X112862412Y-72348559D01*
X113111193Y-72392425D01*
X113357823Y-72337749D01*
X113882539Y-71970339D01*
X113921524Y-71749243D01*
X113434414Y-71053579D01*
X112493003Y-71712761D01*
X112454018Y-71933857D01*
X108377300Y-71933857D01*
X108847864Y-71604365D01*
X109015228Y-71433122D01*
X109112498Y-71195237D01*
X109109576Y-70940111D01*
X111876206Y-70940111D01*
X111930882Y-71186741D01*
X112075778Y-71393674D01*
X112126219Y-71465711D01*
X112347315Y-71504697D01*
X113199642Y-70907890D01*
X113642479Y-70907890D01*
X114129588Y-71603555D01*
X114350684Y-71642540D01*
X114875399Y-71275131D01*
X115011131Y-71062074D01*
X115054998Y-70813293D01*
X115000322Y-70566663D01*
X114855426Y-70359730D01*
X114804985Y-70287693D01*
X114583889Y-70248707D01*
X113642479Y-70907890D01*
X113199642Y-70907890D01*
X113288725Y-70845514D01*
X112801616Y-70149849D01*
X112580520Y-70110864D01*
X112055805Y-70478273D01*
X111920073Y-70691330D01*
X111876206Y-70940111D01*
X109109576Y-70940111D01*
X109109554Y-70938251D01*
X109006860Y-70702656D01*
X108517769Y-70004161D01*
X113009680Y-70004161D01*
X113496790Y-70699825D01*
X114438201Y-70040643D01*
X114477186Y-69819547D01*
X114426745Y-69747510D01*
X114281849Y-69540577D01*
X114068792Y-69404845D01*
X113820011Y-69360979D01*
X113573381Y-69415655D01*
X113048665Y-69783065D01*
X113009680Y-70004161D01*
X108517769Y-70004161D01*
X108433283Y-69883504D01*
X108262040Y-69716141D01*
X108024155Y-69618871D01*
X107943109Y-69619799D01*
X107853008Y-69529698D01*
X107908246Y-69539438D01*
X108154876Y-69484762D01*
X108638634Y-69146031D01*
X108677619Y-68924935D01*
X108118812Y-68126877D01*
X108102429Y-68138349D01*
X107992384Y-67981188D01*
X108326877Y-67981188D01*
X108885683Y-68779247D01*
X109106779Y-68818232D01*
X109590537Y-68479501D01*
X109726268Y-68266445D01*
X109740897Y-68183477D01*
X110052058Y-68183477D01*
X110055002Y-68440463D01*
X110157696Y-68676058D01*
X110731273Y-69495210D01*
X110902516Y-69662573D01*
X111140401Y-69759843D01*
X111397387Y-69756899D01*
X111632981Y-69654205D01*
X112438155Y-69090416D01*
X116793264Y-69090416D01*
X118132324Y-70429476D01*
X118122241Y-70447412D01*
X118089855Y-70702367D01*
X118159211Y-70949835D01*
X118319383Y-71150822D01*
X119545054Y-72179282D01*
X119753778Y-72296622D01*
X120008733Y-72329008D01*
X120256201Y-72259652D01*
X120457188Y-72099480D01*
X121099975Y-71333436D01*
X121217315Y-71124712D01*
X121249701Y-70869757D01*
X121180345Y-70622289D01*
X121020173Y-70421302D01*
X119794502Y-69392842D01*
X119585778Y-69275502D01*
X119330823Y-69243116D01*
X119312762Y-69248178D01*
X117729566Y-67664982D01*
X117679479Y-67631515D01*
X117458673Y-67483977D01*
X117139132Y-67420416D01*
X112812483Y-67420416D01*
X112529043Y-67015622D01*
X112357800Y-66848259D01*
X112119915Y-66750989D01*
X111862929Y-66753933D01*
X111627335Y-66856627D01*
X110316692Y-67774349D01*
X110149328Y-67945592D01*
X110052058Y-68183477D01*
X109740897Y-68183477D01*
X109770136Y-68017664D01*
X109715459Y-67771034D01*
X109570563Y-67564100D01*
X109448425Y-67389669D01*
X109227329Y-67350684D01*
X108326877Y-67981188D01*
X107992384Y-67981188D01*
X107956740Y-67930283D01*
X107973123Y-67918812D01*
X107414317Y-67120753D01*
X107193221Y-67081768D01*
X106717651Y-67414766D01*
X106717651Y-66975065D01*
X107622381Y-66975065D01*
X108181188Y-67773123D01*
X109081641Y-67142620D01*
X109120626Y-66921524D01*
X108998488Y-66747093D01*
X108853592Y-66540160D01*
X108640536Y-66404428D01*
X108391754Y-66360562D01*
X108145124Y-66415238D01*
X107661366Y-66753969D01*
X107622381Y-66975065D01*
X106717651Y-66975065D01*
X106717651Y-66027481D01*
X107110132Y-65635000D01*
X120575797Y-65635000D01*
X121427354Y-66486557D01*
X121424455Y-66509372D01*
X120924132Y-67009695D01*
X120826808Y-67155350D01*
X120296501Y-67787346D01*
X120179161Y-67996070D01*
X120146775Y-68251025D01*
X120216131Y-68498493D01*
X120376303Y-68699480D01*
X121601974Y-69727940D01*
X121810698Y-69845280D01*
X122065653Y-69877666D01*
X122313121Y-69808310D01*
X122514108Y-69648138D01*
X123033857Y-69028725D01*
X124346974Y-69028725D01*
X124366541Y-69252378D01*
X124818935Y-69631982D01*
X125059862Y-69707945D01*
X125311519Y-69685929D01*
X125535595Y-69569283D01*
X125697975Y-69375765D01*
X125834851Y-69212643D01*
X125815284Y-68988991D01*
X124973210Y-68282407D01*
X124346974Y-69028725D01*
X123033857Y-69028725D01*
X123156895Y-68882094D01*
X123274235Y-68673370D01*
X123306621Y-68418415D01*
X123237265Y-68170947D01*
X123174215Y-68091831D01*
X123262747Y-68103077D01*
X123342162Y-68080820D01*
X123359706Y-68281345D01*
X123476352Y-68505420D01*
X123928746Y-68885024D01*
X124152399Y-68865457D01*
X124778634Y-68119139D01*
X124763313Y-68106283D01*
X124778796Y-68087831D01*
X125136478Y-68087831D01*
X125978552Y-68794416D01*
X126202204Y-68774849D01*
X126339080Y-68611726D01*
X126501460Y-68418209D01*
X126577424Y-68177282D01*
X126555406Y-67925625D01*
X126438760Y-67701550D01*
X125986366Y-67321946D01*
X125762713Y-67341513D01*
X125136478Y-68087831D01*
X124778796Y-68087831D01*
X124926582Y-67911708D01*
X124941902Y-67924563D01*
X125568138Y-67178245D01*
X125562795Y-67117176D01*
X130539422Y-67117176D01*
X131756862Y-68334616D01*
X131756862Y-70370588D01*
X131074412Y-70370588D01*
X130640066Y-70456985D01*
X130341904Y-70656211D01*
X130271846Y-70703022D01*
X128997434Y-71977434D01*
X128751397Y-72345654D01*
X128739592Y-72405000D01*
X126727862Y-72405000D01*
X126987117Y-72096032D01*
X127104457Y-71887308D01*
X127136843Y-71632353D01*
X127067487Y-71384885D01*
X126907315Y-71183898D01*
X125681644Y-70155438D01*
X125472920Y-70038098D01*
X125217965Y-70005712D01*
X125189831Y-70013597D01*
X125175709Y-70004161D01*
X124957803Y-69858561D01*
X124638262Y-69795000D01*
X123270000Y-69795000D01*
X122950459Y-69858561D01*
X122732553Y-70004161D01*
X122679566Y-70039566D01*
X121049566Y-71669566D01*
X120868561Y-71940459D01*
X120805000Y-72260000D01*
X120805000Y-73013420D01*
X120516358Y-72724274D01*
X119640087Y-72360415D01*
X118691275Y-72359587D01*
X117814371Y-72721916D01*
X117142874Y-73392242D01*
X116779015Y-74268513D01*
X116778187Y-75217325D01*
X117140516Y-76094229D01*
X117810842Y-76765726D01*
X118687113Y-77129585D01*
X119635925Y-77130413D01*
X120066719Y-76952413D01*
X119766572Y-77252560D01*
X118700000Y-77252560D01*
X118464683Y-77296838D01*
X118248559Y-77435910D01*
X118103569Y-77648110D01*
X118052560Y-77900000D01*
X118052560Y-78900000D01*
X118096838Y-79135317D01*
X118235910Y-79351441D01*
X118448110Y-79496431D01*
X118700000Y-79547440D01*
X120300000Y-79547440D01*
X120535317Y-79503162D01*
X120751441Y-79364090D01*
X120896431Y-79151890D01*
X120947440Y-78900000D01*
X120947440Y-78433428D01*
X122230434Y-77150434D01*
X122280378Y-77075687D01*
X122411439Y-76879541D01*
X122475000Y-76560000D01*
X122475000Y-74621560D01*
X122551539Y-74685784D01*
X122775191Y-74666217D01*
X123321078Y-74015654D01*
X123305757Y-74002798D01*
X123469026Y-73808223D01*
X123484346Y-73821078D01*
X124030234Y-73170515D01*
X124010667Y-72946863D01*
X123519970Y-72535120D01*
X123279044Y-72459156D01*
X123027386Y-72481172D01*
X122803311Y-72597818D01*
X122640930Y-72791336D01*
X122584403Y-72858703D01*
X122603970Y-73082352D01*
X122482362Y-72980311D01*
X122475000Y-72989085D01*
X122475000Y-72605868D01*
X123615868Y-71465000D01*
X123977007Y-71465000D01*
X124046353Y-71712431D01*
X124206525Y-71913418D01*
X125361898Y-72882891D01*
X125205262Y-73039527D01*
X125168854Y-73063854D01*
X124778855Y-73453853D01*
X124719945Y-73542018D01*
X124448461Y-73314216D01*
X124224809Y-73333783D01*
X123678922Y-73984346D01*
X123694243Y-73997202D01*
X123530974Y-74191777D01*
X123515654Y-74178922D01*
X122969766Y-74829485D01*
X122989333Y-75053137D01*
X123480030Y-75464880D01*
X123720956Y-75540844D01*
X123963393Y-75519635D01*
X123637434Y-75737434D01*
X123391397Y-76105654D01*
X123305000Y-76540000D01*
X123305000Y-82369868D01*
X122959868Y-82715000D01*
X120828386Y-82715000D01*
X120701890Y-82628569D01*
X120663362Y-82620767D01*
X120751441Y-82564090D01*
X120896431Y-82351890D01*
X120947440Y-82100000D01*
X120947440Y-81100000D01*
X120903162Y-80864683D01*
X120764090Y-80648559D01*
X120551890Y-80503569D01*
X120300000Y-80452560D01*
X118700000Y-80452560D01*
X118464683Y-80496838D01*
X118248559Y-80635910D01*
X118103569Y-80848110D01*
X118052560Y-81100000D01*
X118052560Y-82100000D01*
X118096838Y-82335317D01*
X118235910Y-82551441D01*
X118365000Y-82639644D01*
X118365000Y-82741975D01*
X118309698Y-82686673D01*
X118076309Y-82590000D01*
X117485750Y-82590000D01*
X117327000Y-82748750D01*
X117327000Y-83723000D01*
X117347000Y-83723000D01*
X117347000Y-83977000D01*
X117327000Y-83977000D01*
X117327000Y-84951250D01*
X117375309Y-84999559D01*
X117230085Y-85144783D01*
X116984048Y-85513003D01*
X116897651Y-85947349D01*
X116897651Y-87864473D01*
X116954931Y-88152438D01*
X116943281Y-88180929D01*
X116946225Y-88437916D01*
X117048919Y-88673510D01*
X117765889Y-89697450D01*
X117937132Y-89864814D01*
X118175016Y-89962084D01*
X118432003Y-89959140D01*
X118494809Y-89931763D01*
X118502184Y-89939138D01*
X118456298Y-90051359D01*
X118459242Y-90308345D01*
X118561936Y-90543940D01*
X119135513Y-91363092D01*
X119306756Y-91530455D01*
X119544641Y-91627725D01*
X119801627Y-91624781D01*
X120037221Y-91522087D01*
X121335279Y-90613177D01*
X122108045Y-90613177D01*
X123105000Y-91610132D01*
X123105000Y-91985037D01*
X122768727Y-91504790D01*
X122597484Y-91337427D01*
X122359599Y-91240157D01*
X122102613Y-91243101D01*
X121867019Y-91345795D01*
X121061845Y-91909584D01*
X113820452Y-91909584D01*
X113323600Y-91412732D01*
X113529994Y-91354888D01*
X113730981Y-91194716D01*
X114373768Y-90428672D01*
X114491108Y-90219948D01*
X114523494Y-89964993D01*
X114454138Y-89717525D01*
X114293966Y-89516538D01*
X113778571Y-89084070D01*
X113778571Y-84135750D01*
X115815000Y-84135750D01*
X115815000Y-84601310D01*
X115911673Y-84834699D01*
X116090302Y-85013327D01*
X116323691Y-85110000D01*
X116914250Y-85110000D01*
X117073000Y-84951250D01*
X117073000Y-83977000D01*
X115973750Y-83977000D01*
X115815000Y-84135750D01*
X113778571Y-84135750D01*
X113778571Y-83098690D01*
X115815000Y-83098690D01*
X115815000Y-83564250D01*
X115973750Y-83723000D01*
X117073000Y-83723000D01*
X117073000Y-82748750D01*
X116914250Y-82590000D01*
X116323691Y-82590000D01*
X116090302Y-82686673D01*
X115911673Y-82865301D01*
X115815000Y-83098690D01*
X113778571Y-83098690D01*
X113778571Y-82747440D01*
X115300000Y-82747440D01*
X115535317Y-82703162D01*
X115751441Y-82564090D01*
X115896431Y-82351890D01*
X115947440Y-82100000D01*
X115947440Y-81100000D01*
X115903162Y-80864683D01*
X115764090Y-80648559D01*
X115551890Y-80503569D01*
X115300000Y-80452560D01*
X113700000Y-80452560D01*
X113464683Y-80496838D01*
X113248559Y-80635910D01*
X113138391Y-80797146D01*
X112980460Y-80828560D01*
X112709566Y-81009566D01*
X112353137Y-81365995D01*
X112172132Y-81636888D01*
X112108571Y-81956429D01*
X112108571Y-88624596D01*
X111513374Y-89333924D01*
X111396034Y-89542648D01*
X111392492Y-89570533D01*
X111389541Y-89568561D01*
X111070000Y-89505000D01*
X108623595Y-89505000D01*
X108593883Y-89475288D01*
X108603966Y-89457352D01*
X108636352Y-89202397D01*
X108566996Y-88954929D01*
X108406824Y-88753942D01*
X107181153Y-87725482D01*
X106972429Y-87608142D01*
X106717474Y-87575756D01*
X106470006Y-87645112D01*
X106269019Y-87805284D01*
X105626232Y-88571328D01*
X105508892Y-88780052D01*
X105476506Y-89035007D01*
X105545862Y-89282475D01*
X105706034Y-89483462D01*
X106931705Y-90511922D01*
X107140429Y-90629262D01*
X107395384Y-90661648D01*
X107413445Y-90656586D01*
X107687293Y-90930434D01*
X107958186Y-91111439D01*
X108277727Y-91175000D01*
X109968528Y-91175000D01*
X109456454Y-91785266D01*
X109339114Y-91993990D01*
X109306728Y-92248945D01*
X109319531Y-92294628D01*
X109257842Y-92356316D01*
X109173648Y-92194580D01*
X108721254Y-91814976D01*
X108497601Y-91834543D01*
X107871366Y-92580861D01*
X107886687Y-92593717D01*
X107723418Y-92788292D01*
X107708098Y-92775437D01*
X107081862Y-93521755D01*
X107101429Y-93745408D01*
X107410798Y-94005000D01*
X104910132Y-94005000D01*
X104835000Y-93929868D01*
X104835000Y-92522718D01*
X106072576Y-92522718D01*
X106094594Y-92774375D01*
X106211240Y-92998450D01*
X106663634Y-93378054D01*
X106887287Y-93358487D01*
X107513522Y-92612169D01*
X106671448Y-91905584D01*
X106447796Y-91925151D01*
X106310920Y-92088274D01*
X106148540Y-92281791D01*
X106072576Y-92522718D01*
X104835000Y-92522718D01*
X104835000Y-91487357D01*
X106815149Y-91487357D01*
X106834716Y-91711009D01*
X107676790Y-92417593D01*
X108303026Y-91671275D01*
X108283459Y-91447622D01*
X107831065Y-91068018D01*
X107590138Y-90992055D01*
X107338481Y-91014071D01*
X107114405Y-91130717D01*
X106952025Y-91324235D01*
X106815149Y-91487357D01*
X104835000Y-91487357D01*
X104835000Y-91327043D01*
X104934785Y-91086734D01*
X104935214Y-90595421D01*
X104835000Y-90352886D01*
X104835000Y-87496845D01*
X108583115Y-87496845D01*
X108602682Y-87720497D01*
X109093379Y-88132240D01*
X109334305Y-88208204D01*
X109585963Y-88186188D01*
X109810038Y-88069542D01*
X109972419Y-87876024D01*
X110028946Y-87808657D01*
X110009379Y-87585005D01*
X109129003Y-86846282D01*
X108583115Y-87496845D01*
X104835000Y-87496845D01*
X104835000Y-86465668D01*
X107535527Y-86465668D01*
X107557545Y-86717325D01*
X107674191Y-86941400D01*
X108164888Y-87353144D01*
X108388540Y-87333577D01*
X108934427Y-86683014D01*
X108897116Y-86651706D01*
X109292271Y-86651706D01*
X110172647Y-87390430D01*
X110396299Y-87370863D01*
X110452827Y-87303496D01*
X110615207Y-87109979D01*
X110691171Y-86869052D01*
X110669153Y-86617395D01*
X110552507Y-86393320D01*
X110061810Y-85981576D01*
X109838158Y-86001143D01*
X109292271Y-86651706D01*
X108897116Y-86651706D01*
X108054051Y-85944290D01*
X107830399Y-85963857D01*
X107773871Y-86031224D01*
X107611491Y-86224741D01*
X107535527Y-86465668D01*
X104835000Y-86465668D01*
X104835000Y-85881844D01*
X104901441Y-85839090D01*
X104947969Y-85770994D01*
X105090302Y-85913327D01*
X105323691Y-86010000D01*
X105914250Y-86010000D01*
X106073000Y-85851250D01*
X106073000Y-84877000D01*
X106327000Y-84877000D01*
X106327000Y-85851250D01*
X106485750Y-86010000D01*
X107076309Y-86010000D01*
X107309698Y-85913327D01*
X107488327Y-85734699D01*
X107574746Y-85526063D01*
X108197752Y-85526063D01*
X108217319Y-85749715D01*
X109097695Y-86488438D01*
X109643583Y-85837875D01*
X109624016Y-85614223D01*
X109133319Y-85202480D01*
X108892393Y-85126516D01*
X108640735Y-85148532D01*
X108416660Y-85265178D01*
X108254279Y-85458696D01*
X108197752Y-85526063D01*
X107574746Y-85526063D01*
X107585000Y-85501310D01*
X107585000Y-85035750D01*
X107426250Y-84877000D01*
X106327000Y-84877000D01*
X106073000Y-84877000D01*
X106053000Y-84877000D01*
X106053000Y-84623000D01*
X106073000Y-84623000D01*
X106073000Y-84603000D01*
X106327000Y-84603000D01*
X106327000Y-84623000D01*
X107426250Y-84623000D01*
X107585000Y-84464250D01*
X107585000Y-83998690D01*
X107563772Y-83947440D01*
X107600000Y-83947440D01*
X107835317Y-83903162D01*
X108051441Y-83764090D01*
X108196431Y-83551890D01*
X108247440Y-83300000D01*
X108247440Y-81700000D01*
X108203162Y-81464683D01*
X108064090Y-81248559D01*
X107902854Y-81138391D01*
X107871440Y-80980460D01*
X107690434Y-80709566D01*
X106970434Y-79989566D01*
X106863774Y-79918298D01*
X106699541Y-79808561D01*
X106380000Y-79745000D01*
X92670000Y-79745000D01*
X92350460Y-79808560D01*
X92079566Y-79989566D01*
X91434566Y-80634566D01*
X91253561Y-80905459D01*
X91239219Y-80977560D01*
X91225000Y-80977560D01*
X90989683Y-81021838D01*
X90773559Y-81160910D01*
X90628569Y-81373110D01*
X90577560Y-81625000D01*
X90577560Y-82625000D01*
X90621838Y-82860317D01*
X90760910Y-83076441D01*
X90973110Y-83221431D01*
X91225000Y-83272440D01*
X92825000Y-83272440D01*
X93060317Y-83228162D01*
X93276441Y-83089090D01*
X93421431Y-82876890D01*
X93472440Y-82625000D01*
X93472440Y-81625000D01*
X93432926Y-81415000D01*
X97337317Y-81415000D01*
X97205180Y-81733223D01*
X97204821Y-82144971D01*
X97362058Y-82525515D01*
X97405000Y-82568532D01*
X97405000Y-116440000D01*
X97418316Y-116506942D01*
X96486619Y-114663162D01*
X92735449Y-106679863D01*
X92732352Y-106675664D01*
X92731024Y-106670616D01*
X90804155Y-102717048D01*
X90795647Y-102705853D01*
X90791551Y-102692401D01*
X88727579Y-98840891D01*
X88637945Y-98731909D01*
X88549581Y-98624285D01*
X88549306Y-98624138D01*
X88549106Y-98623895D01*
X88425304Y-98557892D01*
X88365140Y-98525750D01*
X93805000Y-98525750D01*
X93805000Y-99366310D01*
X93901673Y-99599699D01*
X94080302Y-99778327D01*
X94313691Y-99875000D01*
X95154250Y-99875000D01*
X95313000Y-99716250D01*
X95313000Y-98367000D01*
X95567000Y-98367000D01*
X95567000Y-99716250D01*
X95725750Y-99875000D01*
X96566309Y-99875000D01*
X96799698Y-99778327D01*
X96978327Y-99599699D01*
X97075000Y-99366310D01*
X97075000Y-98525750D01*
X96916250Y-98367000D01*
X95567000Y-98367000D01*
X95313000Y-98367000D01*
X93963750Y-98367000D01*
X93805000Y-98525750D01*
X88365140Y-98525750D01*
X88301766Y-98491894D01*
X86692786Y-98004196D01*
X85196641Y-97354237D01*
X84776859Y-97113690D01*
X93805000Y-97113690D01*
X93805000Y-97954250D01*
X93963750Y-98113000D01*
X95313000Y-98113000D01*
X95313000Y-96763750D01*
X95567000Y-96763750D01*
X95567000Y-98113000D01*
X96916250Y-98113000D01*
X97075000Y-97954250D01*
X97075000Y-97113690D01*
X96978327Y-96880301D01*
X96799698Y-96701673D01*
X96566309Y-96605000D01*
X95725750Y-96605000D01*
X95567000Y-96763750D01*
X95313000Y-96763750D01*
X95154250Y-96605000D01*
X94313691Y-96605000D01*
X94080302Y-96701673D01*
X93901673Y-96880301D01*
X93805000Y-97113690D01*
X84776859Y-97113690D01*
X83780639Y-96542828D01*
X82454075Y-95583574D01*
X81226563Y-94490461D01*
X80107836Y-93277798D01*
X79107661Y-91960294D01*
X78235631Y-90552843D01*
X77501187Y-89070600D01*
X76913479Y-87528722D01*
X76481391Y-85942398D01*
X76213506Y-84326704D01*
X76118141Y-82696394D01*
X76203443Y-81065759D01*
X76477578Y-79448497D01*
X76922212Y-77948085D01*
X77491936Y-77227924D01*
X77552782Y-77109007D01*
X77615948Y-76991281D01*
X77847460Y-76232410D01*
X77849487Y-76212155D01*
X77858099Y-76193705D01*
X77863413Y-76073023D01*
X77875441Y-75952846D01*
X77869562Y-75933356D01*
X77870458Y-75913015D01*
X77762262Y-75208322D01*
X77719828Y-75091600D01*
X77682826Y-74973062D01*
X77319622Y-74306502D01*
X77265826Y-74242015D01*
X77222964Y-74169793D01*
X76073595Y-72890500D01*
X74920621Y-71571270D01*
X74898586Y-71554302D01*
X74882922Y-71531318D01*
X74211754Y-70872326D01*
X74270426Y-70891661D01*
X74526581Y-70870798D01*
X74754438Y-70751920D01*
X74874129Y-70654997D01*
X74949566Y-70730434D01*
X75220459Y-70911439D01*
X75540000Y-70975000D01*
X83494132Y-70975000D01*
X84105000Y-71585868D01*
X84105000Y-84570000D01*
X84168561Y-84889541D01*
X84312963Y-85105654D01*
X84349566Y-85160434D01*
X85104566Y-85915434D01*
X85375459Y-86096439D01*
X85684659Y-86157943D01*
X85760910Y-86276441D01*
X85973110Y-86421431D01*
X86225000Y-86472440D01*
X87825000Y-86472440D01*
X88060317Y-86428162D01*
X88276441Y-86289090D01*
X88421431Y-86076890D01*
X88472440Y-85825000D01*
X88472440Y-85610750D01*
X90590000Y-85610750D01*
X90590000Y-85951310D01*
X90686673Y-86184699D01*
X90865302Y-86363327D01*
X91098691Y-86460000D01*
X91739250Y-86460000D01*
X91898000Y-86301250D01*
X91898000Y-85452000D01*
X92152000Y-85452000D01*
X92152000Y-86301250D01*
X92310750Y-86460000D01*
X92951309Y-86460000D01*
X93184698Y-86363327D01*
X93363327Y-86184699D01*
X93460000Y-85951310D01*
X93460000Y-85863795D01*
X93804716Y-85863795D01*
X94053106Y-86464943D01*
X94512637Y-86925278D01*
X95113352Y-87174716D01*
X95763795Y-87175284D01*
X96364943Y-86926894D01*
X96825278Y-86467363D01*
X97074716Y-85866648D01*
X97075284Y-85216205D01*
X96826894Y-84615057D01*
X96367363Y-84154722D01*
X95766648Y-83905284D01*
X95116205Y-83904716D01*
X94515057Y-84153106D01*
X94054722Y-84612637D01*
X93805284Y-85213352D01*
X93804716Y-85863795D01*
X93460000Y-85863795D01*
X93460000Y-85610750D01*
X93301250Y-85452000D01*
X92152000Y-85452000D01*
X91898000Y-85452000D01*
X90748750Y-85452000D01*
X90590000Y-85610750D01*
X88472440Y-85610750D01*
X88472440Y-84825000D01*
X88448674Y-84698690D01*
X90590000Y-84698690D01*
X90590000Y-85039250D01*
X90748750Y-85198000D01*
X91898000Y-85198000D01*
X91898000Y-84348750D01*
X92152000Y-84348750D01*
X92152000Y-85198000D01*
X93301250Y-85198000D01*
X93460000Y-85039250D01*
X93460000Y-84698690D01*
X93363327Y-84465301D01*
X93184698Y-84286673D01*
X92951309Y-84190000D01*
X92310750Y-84190000D01*
X92152000Y-84348750D01*
X91898000Y-84348750D01*
X91739250Y-84190000D01*
X91098691Y-84190000D01*
X90865302Y-84286673D01*
X90686673Y-84465301D01*
X90590000Y-84698690D01*
X88448674Y-84698690D01*
X88428162Y-84589683D01*
X88289090Y-84373559D01*
X88076890Y-84228569D01*
X87825000Y-84177560D01*
X86225000Y-84177560D01*
X85989683Y-84221838D01*
X85857660Y-84306792D01*
X85775000Y-84224132D01*
X85775000Y-83086068D01*
X85973110Y-83221431D01*
X86225000Y-83272440D01*
X87825000Y-83272440D01*
X88060317Y-83228162D01*
X88276441Y-83089090D01*
X88421431Y-82876890D01*
X88472440Y-82625000D01*
X88472440Y-81625000D01*
X88428162Y-81389683D01*
X88289090Y-81173559D01*
X88160000Y-81085356D01*
X88160000Y-80983025D01*
X88190302Y-81013327D01*
X88423691Y-81110000D01*
X89014250Y-81110000D01*
X89173000Y-80951250D01*
X89173000Y-79977000D01*
X89427000Y-79977000D01*
X89427000Y-80951250D01*
X89585750Y-81110000D01*
X90176309Y-81110000D01*
X90409698Y-81013327D01*
X90588327Y-80834699D01*
X90685000Y-80601310D01*
X90685000Y-80135750D01*
X90526250Y-79977000D01*
X89427000Y-79977000D01*
X89173000Y-79977000D01*
X89153000Y-79977000D01*
X89153000Y-79723000D01*
X89173000Y-79723000D01*
X89173000Y-78748750D01*
X89427000Y-78748750D01*
X89427000Y-79723000D01*
X90526250Y-79723000D01*
X90685000Y-79564250D01*
X90685000Y-79098690D01*
X90588327Y-78865301D01*
X90409698Y-78686673D01*
X90176309Y-78590000D01*
X89585750Y-78590000D01*
X89427000Y-78748750D01*
X89173000Y-78748750D01*
X89014250Y-78590000D01*
X88423691Y-78590000D01*
X88190302Y-78686673D01*
X88049064Y-78827910D01*
X88014090Y-78773559D01*
X87935000Y-78719519D01*
X87935000Y-76700000D01*
X102752560Y-76700000D01*
X102752560Y-78300000D01*
X102796838Y-78535317D01*
X102935910Y-78751441D01*
X103148110Y-78896431D01*
X103400000Y-78947440D01*
X104400000Y-78947440D01*
X104635317Y-78903162D01*
X104851441Y-78764090D01*
X104996431Y-78551890D01*
X105047440Y-78300000D01*
X105047440Y-77785750D01*
X105965000Y-77785750D01*
X105965000Y-78426309D01*
X106061673Y-78659698D01*
X106240301Y-78838327D01*
X106473690Y-78935000D01*
X106814250Y-78935000D01*
X106973000Y-78776250D01*
X106973000Y-77627000D01*
X107227000Y-77627000D01*
X107227000Y-78776250D01*
X107385750Y-78935000D01*
X107726310Y-78935000D01*
X107959699Y-78838327D01*
X108112275Y-78685750D01*
X113065000Y-78685750D01*
X113065000Y-79026310D01*
X113161673Y-79259699D01*
X113340302Y-79438327D01*
X113573691Y-79535000D01*
X114214250Y-79535000D01*
X114373000Y-79376250D01*
X114373000Y-78527000D01*
X114627000Y-78527000D01*
X114627000Y-79376250D01*
X114785750Y-79535000D01*
X115426309Y-79535000D01*
X115659698Y-79438327D01*
X115838327Y-79259699D01*
X115935000Y-79026310D01*
X115935000Y-78685750D01*
X115776250Y-78527000D01*
X114627000Y-78527000D01*
X114373000Y-78527000D01*
X113223750Y-78527000D01*
X113065000Y-78685750D01*
X108112275Y-78685750D01*
X108138327Y-78659698D01*
X108235000Y-78426309D01*
X108235000Y-77785750D01*
X108222940Y-77773690D01*
X113065000Y-77773690D01*
X113065000Y-78114250D01*
X113223750Y-78273000D01*
X114373000Y-78273000D01*
X114373000Y-77423750D01*
X114627000Y-77423750D01*
X114627000Y-78273000D01*
X115776250Y-78273000D01*
X115935000Y-78114250D01*
X115935000Y-77773690D01*
X115838327Y-77540301D01*
X115659698Y-77361673D01*
X115426309Y-77265000D01*
X114785750Y-77265000D01*
X114627000Y-77423750D01*
X114373000Y-77423750D01*
X114214250Y-77265000D01*
X113573691Y-77265000D01*
X113340302Y-77361673D01*
X113161673Y-77540301D01*
X113065000Y-77773690D01*
X108222940Y-77773690D01*
X108076250Y-77627000D01*
X107227000Y-77627000D01*
X106973000Y-77627000D01*
X106123750Y-77627000D01*
X105965000Y-77785750D01*
X105047440Y-77785750D01*
X105047440Y-76700000D01*
X105023674Y-76573691D01*
X105965000Y-76573691D01*
X105965000Y-77214250D01*
X106123750Y-77373000D01*
X106973000Y-77373000D01*
X106973000Y-76223750D01*
X107227000Y-76223750D01*
X107227000Y-77373000D01*
X108076250Y-77373000D01*
X108235000Y-77214250D01*
X108235000Y-76573691D01*
X108138327Y-76340302D01*
X107959699Y-76161673D01*
X107726310Y-76065000D01*
X107385750Y-76065000D01*
X107227000Y-76223750D01*
X106973000Y-76223750D01*
X106814250Y-76065000D01*
X106473690Y-76065000D01*
X106240301Y-76161673D01*
X106061673Y-76340302D01*
X105965000Y-76573691D01*
X105023674Y-76573691D01*
X105003162Y-76464683D01*
X104864090Y-76248559D01*
X104735000Y-76160356D01*
X104735000Y-75385868D01*
X105541284Y-74579584D01*
X108187517Y-74579584D01*
X108470957Y-74984378D01*
X108642200Y-75151741D01*
X108880085Y-75249011D01*
X109137071Y-75246067D01*
X109372665Y-75143373D01*
X110683308Y-74225651D01*
X110850672Y-74054408D01*
X110947942Y-73816523D01*
X110944998Y-73559537D01*
X110842304Y-73323942D01*
X110268727Y-72504790D01*
X110097484Y-72337427D01*
X109859599Y-72240157D01*
X109602613Y-72243101D01*
X109367019Y-72345795D01*
X108561845Y-72909584D01*
X105195416Y-72909584D01*
X104875875Y-72973145D01*
X104665963Y-73113404D01*
X104604982Y-73154150D01*
X103309566Y-74449566D01*
X103128561Y-74720459D01*
X103065000Y-75040000D01*
X103065000Y-76160982D01*
X102948559Y-76235910D01*
X102803569Y-76448110D01*
X102752560Y-76700000D01*
X87935000Y-76700000D01*
X87935000Y-66210132D01*
X88510132Y-65635000D01*
X95780000Y-65635000D01*
X96214346Y-65548603D01*
X96582566Y-65302566D01*
X97099382Y-64785750D01*
X99265000Y-64785750D01*
X99265000Y-65476310D01*
X99361673Y-65709699D01*
X99540302Y-65888327D01*
X99773691Y-65985000D01*
X100464250Y-65985000D01*
X100623000Y-65826250D01*
X100623000Y-64627000D01*
X100877000Y-64627000D01*
X100877000Y-65826250D01*
X101035750Y-65985000D01*
X101726309Y-65985000D01*
X101959698Y-65888327D01*
X102138327Y-65709699D01*
X102235000Y-65476310D01*
X102235000Y-64785750D01*
X102076250Y-64627000D01*
X100877000Y-64627000D01*
X100623000Y-64627000D01*
X99423750Y-64627000D01*
X99265000Y-64785750D01*
X97099382Y-64785750D01*
X98790133Y-63095000D01*
X99580554Y-63095000D01*
X99540302Y-63111673D01*
G36*
X127427000Y-75123000D02*
X127447000Y-75123000D01*
X127447000Y-75377000D01*
X127427000Y-75377000D01*
X127427000Y-75397000D01*
X127173000Y-75397000D01*
X127173000Y-75377000D01*
X127153000Y-75377000D01*
X127153000Y-75123000D01*
X127173000Y-75123000D01*
X127173000Y-75103000D01*
X127427000Y-75103000D01*
X127427000Y-75123000D01*
X127427000Y-75123000D01*
G37*
X127427000Y-75123000D02*
X127447000Y-75123000D01*
X127447000Y-75377000D01*
X127427000Y-75377000D01*
X127427000Y-75397000D01*
X127173000Y-75397000D01*
X127173000Y-75377000D01*
X127153000Y-75377000D01*
X127153000Y-75123000D01*
X127173000Y-75123000D01*
X127173000Y-75103000D01*
X127427000Y-75103000D01*
X127427000Y-75123000D01*
G36*
X106392185Y-35223049D02*
X106234905Y-35780712D01*
X106303004Y-36356115D01*
X106320984Y-36411453D01*
X106589316Y-36890601D01*
X106589316Y-40524316D01*
X106675713Y-40958662D01*
X106837020Y-41200074D01*
X106921750Y-41326882D01*
X109237434Y-43642566D01*
X109605654Y-43888603D01*
X110040000Y-43975000D01*
X123018694Y-43975000D01*
X122703629Y-44289515D01*
X122515215Y-44743266D01*
X122514786Y-45234579D01*
X122702408Y-45688657D01*
X123049515Y-46036371D01*
X123503266Y-46224785D01*
X123994579Y-46225214D01*
X124237114Y-46125000D01*
X144518396Y-46125000D01*
X149998403Y-51605007D01*
X149785029Y-51604821D01*
X149404485Y-51762058D01*
X149361468Y-51805000D01*
X142340000Y-51805000D01*
X142020459Y-51868561D01*
X141829551Y-51996122D01*
X141749566Y-52049566D01*
X140649566Y-53149566D01*
X140468561Y-53420459D01*
X140405000Y-53740000D01*
X140405000Y-56344131D01*
X140194132Y-56555000D01*
X126140000Y-56555000D01*
X125820459Y-56618561D01*
X125549566Y-56799566D01*
X125044132Y-57305000D01*
X103545868Y-57305000D01*
X102530434Y-56289566D01*
X102489265Y-56262058D01*
X102259541Y-56108561D01*
X101977875Y-56052534D01*
X101829147Y-55829946D01*
X101347378Y-55508039D01*
X100779093Y-55395000D01*
X100720907Y-55395000D01*
X100152622Y-55508039D01*
X99670853Y-55829946D01*
X99348946Y-56311715D01*
X99235907Y-56880000D01*
X99348946Y-57448285D01*
X99670853Y-57930054D01*
X100000026Y-58150000D01*
X99670853Y-58369946D01*
X99348946Y-58851715D01*
X99235907Y-59420000D01*
X99348946Y-59988285D01*
X99670853Y-60470054D01*
X100000026Y-60690000D01*
X99797984Y-60825000D01*
X98320000Y-60825000D01*
X97917814Y-60905000D01*
X97885654Y-60911397D01*
X97517433Y-61157434D01*
X95309868Y-63365000D01*
X80842821Y-63365000D01*
X80746031Y-63282789D01*
X80501941Y-63202350D01*
X80419740Y-63209045D01*
X80440780Y-63008860D01*
X80369033Y-62766644D01*
X79997382Y-62307694D01*
X79774106Y-62284226D01*
X79016971Y-62897342D01*
X79029558Y-62912885D01*
X78832162Y-63072732D01*
X78819576Y-63057189D01*
X78804033Y-63069776D01*
X78644186Y-62872380D01*
X78659729Y-62859794D01*
X77967948Y-62005516D01*
X77744672Y-61982049D01*
X77579186Y-62116057D01*
X77382864Y-62275036D01*
X77312850Y-62403986D01*
X77153665Y-62268778D01*
X76909574Y-62188339D01*
X76653419Y-62209202D01*
X76425562Y-62328080D01*
X75182128Y-63334992D01*
X75027117Y-63517492D01*
X74946678Y-63761583D01*
X74967541Y-64017738D01*
X75086419Y-64245595D01*
X75715739Y-65022741D01*
X75898239Y-65177752D01*
X76142330Y-65258191D01*
X76398485Y-65237328D01*
X76626342Y-65118450D01*
X77869776Y-64111538D01*
X78024787Y-63929038D01*
X78040146Y-63882432D01*
X78038974Y-63893581D01*
X78410625Y-64352532D01*
X78586158Y-64447838D01*
X77733164Y-65300832D01*
X77607944Y-65488238D01*
X77195954Y-65821860D01*
X77040943Y-66004360D01*
X76960504Y-66248451D01*
X76981367Y-66504606D01*
X77100245Y-66732463D01*
X77729565Y-67509609D01*
X77912065Y-67664620D01*
X78156156Y-67745059D01*
X78412311Y-67724196D01*
X78640168Y-67605318D01*
X79883602Y-66598406D01*
X80038613Y-66415906D01*
X80061442Y-66346632D01*
X80077269Y-66360075D01*
X80321359Y-66440514D01*
X80577514Y-66419651D01*
X80805371Y-66300772D01*
X81627531Y-65635000D01*
X85169868Y-65635000D01*
X85665000Y-66130132D01*
X85665000Y-70850958D01*
X85530434Y-70649566D01*
X84430434Y-69549566D01*
X84410779Y-69536433D01*
X84159541Y-69368561D01*
X83840000Y-69305000D01*
X76232229Y-69305000D01*
X76212459Y-69062262D01*
X76093581Y-68834405D01*
X75464261Y-68057259D01*
X75281761Y-67902248D01*
X75037670Y-67821809D01*
X74781515Y-67842672D01*
X74553658Y-67961550D01*
X73310224Y-68968462D01*
X73177613Y-69124590D01*
X73129695Y-69010442D01*
X72986114Y-68331679D01*
X73329344Y-68338477D01*
X73744338Y-68176131D01*
X73947950Y-68011249D01*
X73572877Y-67548073D01*
X73625485Y-67532490D01*
X73773577Y-67412567D01*
X73775462Y-67394634D01*
X74145345Y-67851402D01*
X74348957Y-67686520D01*
X74594037Y-67314348D01*
X74678038Y-66876719D01*
X74576247Y-66430432D01*
X74497757Y-66409120D01*
X74441006Y-66217532D01*
X74282028Y-66021210D01*
X74226685Y-65952867D01*
X74164007Y-65946279D01*
X73791805Y-65773915D01*
X73843561Y-65732004D01*
X73867028Y-65508728D01*
X73811685Y-65440385D01*
X73652707Y-65244063D01*
X73430702Y-65123524D01*
X73395497Y-65119824D01*
X73715482Y-64234099D01*
X74914459Y-62561571D01*
X75640632Y-61902028D01*
X75725670Y-61845669D01*
X78165343Y-61845669D01*
X78857124Y-62699947D01*
X79614258Y-62086831D01*
X79637726Y-61863555D01*
X79266075Y-61404604D01*
X79044069Y-61284065D01*
X78792834Y-61257659D01*
X78550619Y-61329406D01*
X78354297Y-61488384D01*
X78188811Y-61622393D01*
X78165343Y-61845669D01*
X75725670Y-61845669D01*
X76466393Y-61354758D01*
X77359057Y-60955385D01*
X78307226Y-60720925D01*
X79304040Y-60668499D01*
X80415464Y-60828302D01*
X80545385Y-60821339D01*
X80675445Y-60818196D01*
X80685280Y-60813841D01*
X80696023Y-60813265D01*
X80813382Y-60757116D01*
X80932346Y-60704438D01*
X80939767Y-60696649D01*
X80949470Y-60692007D01*
X81036403Y-60595228D01*
X81126158Y-60501028D01*
X81130034Y-60490993D01*
X81137222Y-60482990D01*
X81180505Y-60360301D01*
X81227376Y-60238932D01*
X81753424Y-57214168D01*
X82463507Y-54051480D01*
X82613407Y-53544971D01*
X97704821Y-53544971D01*
X97862058Y-53925515D01*
X98152954Y-54216919D01*
X98533223Y-54374820D01*
X98944971Y-54375179D01*
X99325515Y-54217942D01*
X99368532Y-54175000D01*
X122754132Y-54175000D01*
X123059566Y-54480434D01*
X123330459Y-54661439D01*
X123650000Y-54725000D01*
X124611108Y-54725000D01*
X124652954Y-54766919D01*
X125033223Y-54924820D01*
X125444971Y-54925179D01*
X125825515Y-54767942D01*
X126116919Y-54477046D01*
X126274820Y-54096777D01*
X126275179Y-53685029D01*
X126117942Y-53304485D01*
X125928712Y-53114925D01*
X126116919Y-52927046D01*
X126274820Y-52546777D01*
X126275179Y-52135029D01*
X126117942Y-51754485D01*
X125827046Y-51463081D01*
X125446777Y-51305180D01*
X125035029Y-51304821D01*
X124654485Y-51462058D01*
X124611468Y-51505000D01*
X124163736Y-51505000D01*
X124139196Y-51488603D01*
X123959541Y-51368561D01*
X123640000Y-51305000D01*
X99568892Y-51305000D01*
X99527046Y-51263081D01*
X99146777Y-51105180D01*
X98735029Y-51104821D01*
X98354485Y-51262058D01*
X98063081Y-51552954D01*
X97905180Y-51933223D01*
X97904821Y-52344971D01*
X98011979Y-52604315D01*
X97863081Y-52752954D01*
X97705180Y-53133223D01*
X97704821Y-53544971D01*
X82613407Y-53544971D01*
X83408812Y-50857335D01*
X83555831Y-50485330D01*
X83593417Y-50563581D01*
X83786056Y-50733701D01*
X85431504Y-51683701D01*
X85657433Y-51763014D01*
X85914138Y-51750636D01*
X86145803Y-51639361D01*
X86315924Y-51446722D01*
X86374819Y-51344712D01*
X86426916Y-51319021D01*
X86725342Y-50978731D01*
X86870828Y-50550141D01*
X86867029Y-50492180D01*
X87344034Y-49665983D01*
X87366750Y-50012560D01*
X87562620Y-50409745D01*
X87895576Y-50701740D01*
X88817082Y-51233772D01*
X89236435Y-51376123D01*
X89678342Y-51347159D01*
X90075526Y-51151290D01*
X90367521Y-50818333D01*
X90509872Y-50398980D01*
X90480908Y-49957074D01*
X90297604Y-49585369D01*
X90302195Y-49577417D01*
X90290294Y-49570546D01*
X90285039Y-49559890D01*
X90246005Y-49525658D01*
X90305340Y-49480128D01*
X90368069Y-49463320D01*
X90401849Y-49404812D01*
X90434319Y-49348571D01*
X90417511Y-49285844D01*
X90423932Y-49237075D01*
X90690000Y-49290000D01*
X92504869Y-49290000D01*
X92504838Y-49325167D01*
X92646883Y-49668943D01*
X92909673Y-49932192D01*
X93253201Y-50074838D01*
X93625167Y-50075162D01*
X93968943Y-49933117D01*
X94195507Y-49706948D01*
X133641774Y-49706948D01*
X133674454Y-50137349D01*
X133776288Y-50383197D01*
X133958924Y-50410112D01*
X133869714Y-50499322D01*
X133885392Y-50515000D01*
X133869714Y-50530678D01*
X133958924Y-50619888D01*
X133776288Y-50646803D01*
X133641774Y-51056948D01*
X133674454Y-51487349D01*
X133776288Y-51733197D01*
X133986255Y-51764140D01*
X134560395Y-51190000D01*
X134546253Y-51175858D01*
X134667561Y-51054549D01*
X134666774Y-51056948D01*
X134694006Y-51415599D01*
X134165860Y-51943745D01*
X134196803Y-52153712D01*
X134606948Y-52288226D01*
X135037349Y-52255546D01*
X135256067Y-52164950D01*
X135631948Y-52288226D01*
X136062349Y-52255546D01*
X136308197Y-52153712D01*
X136315000Y-52107550D01*
X136321803Y-52153712D01*
X136731948Y-52288226D01*
X137162349Y-52255546D01*
X137408197Y-52153712D01*
X137427500Y-52022729D01*
X137446803Y-52153712D01*
X137856948Y-52288226D01*
X138287349Y-52255546D01*
X138533197Y-52153712D01*
X138564140Y-51943745D01*
X137990000Y-51369605D01*
X137975858Y-51383748D01*
X137951356Y-51359246D01*
X137963226Y-51323052D01*
X137941055Y-51031055D01*
X137975858Y-50996253D01*
X137990000Y-51010395D01*
X138004143Y-50996253D01*
X138183748Y-51175858D01*
X138169605Y-51190000D01*
X138743745Y-51764140D01*
X138953712Y-51733197D01*
X139088226Y-51323052D01*
X139055546Y-50892651D01*
X138953712Y-50646803D01*
X138771076Y-50619888D01*
X138860286Y-50530678D01*
X138844608Y-50515000D01*
X138860286Y-50499322D01*
X138771076Y-50410112D01*
X138953712Y-50383197D01*
X139088226Y-49973052D01*
X139055546Y-49542651D01*
X138953712Y-49296803D01*
X138743745Y-49265860D01*
X138169605Y-49840000D01*
X138183748Y-49854143D01*
X138004143Y-50033748D01*
X137990000Y-50019605D01*
X137975858Y-50033748D01*
X137951356Y-50009246D01*
X137963226Y-49973052D01*
X137941055Y-49681055D01*
X137975858Y-49646253D01*
X137990000Y-49660395D01*
X138187248Y-49463147D01*
X138287349Y-49455546D01*
X138533197Y-49353712D01*
X138564140Y-49143745D01*
X138535395Y-49115000D01*
X138564140Y-49086255D01*
X138533197Y-48876288D01*
X138181259Y-48760864D01*
X137990000Y-48569605D01*
X137975858Y-48583748D01*
X137951356Y-48559246D01*
X137963226Y-48523052D01*
X137953124Y-48390000D01*
X138169605Y-48390000D01*
X138743745Y-48964140D01*
X138953712Y-48933197D01*
X139088226Y-48523052D01*
X139055546Y-48092651D01*
X138953712Y-47846803D01*
X138743745Y-47815860D01*
X138169605Y-48390000D01*
X137953124Y-48390000D01*
X137941055Y-48231055D01*
X137975858Y-48196253D01*
X137990000Y-48210395D01*
X138564140Y-47636255D01*
X138533197Y-47426288D01*
X138123052Y-47291774D01*
X137692651Y-47324454D01*
X137446803Y-47426288D01*
X137427500Y-47557271D01*
X137408197Y-47426288D01*
X136998052Y-47291774D01*
X136567651Y-47324454D01*
X136321803Y-47426288D01*
X136315000Y-47472450D01*
X136308197Y-47426288D01*
X135898052Y-47291774D01*
X135467651Y-47324454D01*
X135248933Y-47415050D01*
X134873052Y-47291774D01*
X134442651Y-47324454D01*
X134196803Y-47426288D01*
X134165860Y-47636255D01*
X134696356Y-48166751D01*
X134666774Y-48256948D01*
X134694006Y-48615599D01*
X134542752Y-48766853D01*
X134442651Y-48774454D01*
X134196803Y-48876288D01*
X134165860Y-49086255D01*
X134194605Y-49115000D01*
X134165860Y-49143745D01*
X134196803Y-49353712D01*
X134548741Y-49469136D01*
X134696356Y-49616751D01*
X134666774Y-49706948D01*
X134688772Y-49996662D01*
X134546253Y-49854143D01*
X134560395Y-49840000D01*
X133986255Y-49265860D01*
X133776288Y-49296803D01*
X133641774Y-49706948D01*
X94195507Y-49706948D01*
X94232192Y-49670327D01*
X94374838Y-49326799D01*
X94375162Y-48954833D01*
X94360463Y-48919259D01*
X94568943Y-48833117D01*
X94832192Y-48570327D01*
X94962318Y-48256948D01*
X133641774Y-48256948D01*
X133674454Y-48687349D01*
X133776288Y-48933197D01*
X133986255Y-48964140D01*
X134560395Y-48390000D01*
X133986255Y-47815860D01*
X133776288Y-47846803D01*
X133641774Y-48256948D01*
X94962318Y-48256948D01*
X94974838Y-48226799D01*
X94975162Y-47854833D01*
X94833117Y-47511057D01*
X94570327Y-47247808D01*
X94226799Y-47105162D01*
X94024874Y-47104986D01*
X94025162Y-46774833D01*
X93883117Y-46431057D01*
X93620327Y-46167808D01*
X93589482Y-46155000D01*
X96261108Y-46155000D01*
X96302954Y-46196919D01*
X96683223Y-46354820D01*
X97094971Y-46355179D01*
X97475515Y-46197942D01*
X97766919Y-45907046D01*
X97924820Y-45526777D01*
X97925179Y-45115029D01*
X97767942Y-44734485D01*
X97477046Y-44443081D01*
X97096777Y-44285180D01*
X96685029Y-44284821D01*
X96304485Y-44442058D01*
X96261468Y-44485000D01*
X92985868Y-44485000D01*
X92780434Y-44279566D01*
X92720161Y-44239293D01*
X92375111Y-43894243D01*
X92394820Y-43846777D01*
X92395179Y-43435029D01*
X92237942Y-43054485D01*
X91947046Y-42763081D01*
X91566777Y-42605180D01*
X91155029Y-42604821D01*
X91137116Y-42612223D01*
X91056583Y-42444560D01*
X90863944Y-42274440D01*
X89218496Y-41324440D01*
X89081479Y-41276340D01*
X89234631Y-41119911D01*
X90459564Y-40099383D01*
X91800935Y-39209666D01*
X93209122Y-38492149D01*
X96181891Y-37962505D01*
X96204099Y-37953823D01*
X96227918Y-37952743D01*
X99261232Y-37205075D01*
X99280594Y-37196006D01*
X99301855Y-37193790D01*
X105292187Y-35339273D01*
X105296234Y-35337080D01*
X105300807Y-35336545D01*
X106645556Y-34901655D01*
X106392185Y-35223049D01*
X106392185Y-35223049D01*
G37*
X106392185Y-35223049D02*
X106234905Y-35780712D01*
X106303004Y-36356115D01*
X106320984Y-36411453D01*
X106589316Y-36890601D01*
X106589316Y-40524316D01*
X106675713Y-40958662D01*
X106837020Y-41200074D01*
X106921750Y-41326882D01*
X109237434Y-43642566D01*
X109605654Y-43888603D01*
X110040000Y-43975000D01*
X123018694Y-43975000D01*
X122703629Y-44289515D01*
X122515215Y-44743266D01*
X122514786Y-45234579D01*
X122702408Y-45688657D01*
X123049515Y-46036371D01*
X123503266Y-46224785D01*
X123994579Y-46225214D01*
X124237114Y-46125000D01*
X144518396Y-46125000D01*
X149998403Y-51605007D01*
X149785029Y-51604821D01*
X149404485Y-51762058D01*
X149361468Y-51805000D01*
X142340000Y-51805000D01*
X142020459Y-51868561D01*
X141829551Y-51996122D01*
X141749566Y-52049566D01*
X140649566Y-53149566D01*
X140468561Y-53420459D01*
X140405000Y-53740000D01*
X140405000Y-56344131D01*
X140194132Y-56555000D01*
X126140000Y-56555000D01*
X125820459Y-56618561D01*
X125549566Y-56799566D01*
X125044132Y-57305000D01*
X103545868Y-57305000D01*
X102530434Y-56289566D01*
X102489265Y-56262058D01*
X102259541Y-56108561D01*
X101977875Y-56052534D01*
X101829147Y-55829946D01*
X101347378Y-55508039D01*
X100779093Y-55395000D01*
X100720907Y-55395000D01*
X100152622Y-55508039D01*
X99670853Y-55829946D01*
X99348946Y-56311715D01*
X99235907Y-56880000D01*
X99348946Y-57448285D01*
X99670853Y-57930054D01*
X100000026Y-58150000D01*
X99670853Y-58369946D01*
X99348946Y-58851715D01*
X99235907Y-59420000D01*
X99348946Y-59988285D01*
X99670853Y-60470054D01*
X100000026Y-60690000D01*
X99797984Y-60825000D01*
X98320000Y-60825000D01*
X97917814Y-60905000D01*
X97885654Y-60911397D01*
X97517433Y-61157434D01*
X95309868Y-63365000D01*
X80842821Y-63365000D01*
X80746031Y-63282789D01*
X80501941Y-63202350D01*
X80419740Y-63209045D01*
X80440780Y-63008860D01*
X80369033Y-62766644D01*
X79997382Y-62307694D01*
X79774106Y-62284226D01*
X79016971Y-62897342D01*
X79029558Y-62912885D01*
X78832162Y-63072732D01*
X78819576Y-63057189D01*
X78804033Y-63069776D01*
X78644186Y-62872380D01*
X78659729Y-62859794D01*
X77967948Y-62005516D01*
X77744672Y-61982049D01*
X77579186Y-62116057D01*
X77382864Y-62275036D01*
X77312850Y-62403986D01*
X77153665Y-62268778D01*
X76909574Y-62188339D01*
X76653419Y-62209202D01*
X76425562Y-62328080D01*
X75182128Y-63334992D01*
X75027117Y-63517492D01*
X74946678Y-63761583D01*
X74967541Y-64017738D01*
X75086419Y-64245595D01*
X75715739Y-65022741D01*
X75898239Y-65177752D01*
X76142330Y-65258191D01*
X76398485Y-65237328D01*
X76626342Y-65118450D01*
X77869776Y-64111538D01*
X78024787Y-63929038D01*
X78040146Y-63882432D01*
X78038974Y-63893581D01*
X78410625Y-64352532D01*
X78586158Y-64447838D01*
X77733164Y-65300832D01*
X77607944Y-65488238D01*
X77195954Y-65821860D01*
X77040943Y-66004360D01*
X76960504Y-66248451D01*
X76981367Y-66504606D01*
X77100245Y-66732463D01*
X77729565Y-67509609D01*
X77912065Y-67664620D01*
X78156156Y-67745059D01*
X78412311Y-67724196D01*
X78640168Y-67605318D01*
X79883602Y-66598406D01*
X80038613Y-66415906D01*
X80061442Y-66346632D01*
X80077269Y-66360075D01*
X80321359Y-66440514D01*
X80577514Y-66419651D01*
X80805371Y-66300772D01*
X81627531Y-65635000D01*
X85169868Y-65635000D01*
X85665000Y-66130132D01*
X85665000Y-70850958D01*
X85530434Y-70649566D01*
X84430434Y-69549566D01*
X84410779Y-69536433D01*
X84159541Y-69368561D01*
X83840000Y-69305000D01*
X76232229Y-69305000D01*
X76212459Y-69062262D01*
X76093581Y-68834405D01*
X75464261Y-68057259D01*
X75281761Y-67902248D01*
X75037670Y-67821809D01*
X74781515Y-67842672D01*
X74553658Y-67961550D01*
X73310224Y-68968462D01*
X73177613Y-69124590D01*
X73129695Y-69010442D01*
X72986114Y-68331679D01*
X73329344Y-68338477D01*
X73744338Y-68176131D01*
X73947950Y-68011249D01*
X73572877Y-67548073D01*
X73625485Y-67532490D01*
X73773577Y-67412567D01*
X73775462Y-67394634D01*
X74145345Y-67851402D01*
X74348957Y-67686520D01*
X74594037Y-67314348D01*
X74678038Y-66876719D01*
X74576247Y-66430432D01*
X74497757Y-66409120D01*
X74441006Y-66217532D01*
X74282028Y-66021210D01*
X74226685Y-65952867D01*
X74164007Y-65946279D01*
X73791805Y-65773915D01*
X73843561Y-65732004D01*
X73867028Y-65508728D01*
X73811685Y-65440385D01*
X73652707Y-65244063D01*
X73430702Y-65123524D01*
X73395497Y-65119824D01*
X73715482Y-64234099D01*
X74914459Y-62561571D01*
X75640632Y-61902028D01*
X75725670Y-61845669D01*
X78165343Y-61845669D01*
X78857124Y-62699947D01*
X79614258Y-62086831D01*
X79637726Y-61863555D01*
X79266075Y-61404604D01*
X79044069Y-61284065D01*
X78792834Y-61257659D01*
X78550619Y-61329406D01*
X78354297Y-61488384D01*
X78188811Y-61622393D01*
X78165343Y-61845669D01*
X75725670Y-61845669D01*
X76466393Y-61354758D01*
X77359057Y-60955385D01*
X78307226Y-60720925D01*
X79304040Y-60668499D01*
X80415464Y-60828302D01*
X80545385Y-60821339D01*
X80675445Y-60818196D01*
X80685280Y-60813841D01*
X80696023Y-60813265D01*
X80813382Y-60757116D01*
X80932346Y-60704438D01*
X80939767Y-60696649D01*
X80949470Y-60692007D01*
X81036403Y-60595228D01*
X81126158Y-60501028D01*
X81130034Y-60490993D01*
X81137222Y-60482990D01*
X81180505Y-60360301D01*
X81227376Y-60238932D01*
X81753424Y-57214168D01*
X82463507Y-54051480D01*
X82613407Y-53544971D01*
X97704821Y-53544971D01*
X97862058Y-53925515D01*
X98152954Y-54216919D01*
X98533223Y-54374820D01*
X98944971Y-54375179D01*
X99325515Y-54217942D01*
X99368532Y-54175000D01*
X122754132Y-54175000D01*
X123059566Y-54480434D01*
X123330459Y-54661439D01*
X123650000Y-54725000D01*
X124611108Y-54725000D01*
X124652954Y-54766919D01*
X125033223Y-54924820D01*
X125444971Y-54925179D01*
X125825515Y-54767942D01*
X126116919Y-54477046D01*
X126274820Y-54096777D01*
X126275179Y-53685029D01*
X126117942Y-53304485D01*
X125928712Y-53114925D01*
X126116919Y-52927046D01*
X126274820Y-52546777D01*
X126275179Y-52135029D01*
X126117942Y-51754485D01*
X125827046Y-51463081D01*
X125446777Y-51305180D01*
X125035029Y-51304821D01*
X124654485Y-51462058D01*
X124611468Y-51505000D01*
X124163736Y-51505000D01*
X124139196Y-51488603D01*
X123959541Y-51368561D01*
X123640000Y-51305000D01*
X99568892Y-51305000D01*
X99527046Y-51263081D01*
X99146777Y-51105180D01*
X98735029Y-51104821D01*
X98354485Y-51262058D01*
X98063081Y-51552954D01*
X97905180Y-51933223D01*
X97904821Y-52344971D01*
X98011979Y-52604315D01*
X97863081Y-52752954D01*
X97705180Y-53133223D01*
X97704821Y-53544971D01*
X82613407Y-53544971D01*
X83408812Y-50857335D01*
X83555831Y-50485330D01*
X83593417Y-50563581D01*
X83786056Y-50733701D01*
X85431504Y-51683701D01*
X85657433Y-51763014D01*
X85914138Y-51750636D01*
X86145803Y-51639361D01*
X86315924Y-51446722D01*
X86374819Y-51344712D01*
X86426916Y-51319021D01*
X86725342Y-50978731D01*
X86870828Y-50550141D01*
X86867029Y-50492180D01*
X87344034Y-49665983D01*
X87366750Y-50012560D01*
X87562620Y-50409745D01*
X87895576Y-50701740D01*
X88817082Y-51233772D01*
X89236435Y-51376123D01*
X89678342Y-51347159D01*
X90075526Y-51151290D01*
X90367521Y-50818333D01*
X90509872Y-50398980D01*
X90480908Y-49957074D01*
X90297604Y-49585369D01*
X90302195Y-49577417D01*
X90290294Y-49570546D01*
X90285039Y-49559890D01*
X90246005Y-49525658D01*
X90305340Y-49480128D01*
X90368069Y-49463320D01*
X90401849Y-49404812D01*
X90434319Y-49348571D01*
X90417511Y-49285844D01*
X90423932Y-49237075D01*
X90690000Y-49290000D01*
X92504869Y-49290000D01*
X92504838Y-49325167D01*
X92646883Y-49668943D01*
X92909673Y-49932192D01*
X93253201Y-50074838D01*
X93625167Y-50075162D01*
X93968943Y-49933117D01*
X94195507Y-49706948D01*
X133641774Y-49706948D01*
X133674454Y-50137349D01*
X133776288Y-50383197D01*
X133958924Y-50410112D01*
X133869714Y-50499322D01*
X133885392Y-50515000D01*
X133869714Y-50530678D01*
X133958924Y-50619888D01*
X133776288Y-50646803D01*
X133641774Y-51056948D01*
X133674454Y-51487349D01*
X133776288Y-51733197D01*
X133986255Y-51764140D01*
X134560395Y-51190000D01*
X134546253Y-51175858D01*
X134667561Y-51054549D01*
X134666774Y-51056948D01*
X134694006Y-51415599D01*
X134165860Y-51943745D01*
X134196803Y-52153712D01*
X134606948Y-52288226D01*
X135037349Y-52255546D01*
X135256067Y-52164950D01*
X135631948Y-52288226D01*
X136062349Y-52255546D01*
X136308197Y-52153712D01*
X136315000Y-52107550D01*
X136321803Y-52153712D01*
X136731948Y-52288226D01*
X137162349Y-52255546D01*
X137408197Y-52153712D01*
X137427500Y-52022729D01*
X137446803Y-52153712D01*
X137856948Y-52288226D01*
X138287349Y-52255546D01*
X138533197Y-52153712D01*
X138564140Y-51943745D01*
X137990000Y-51369605D01*
X137975858Y-51383748D01*
X137951356Y-51359246D01*
X137963226Y-51323052D01*
X137941055Y-51031055D01*
X137975858Y-50996253D01*
X137990000Y-51010395D01*
X138004143Y-50996253D01*
X138183748Y-51175858D01*
X138169605Y-51190000D01*
X138743745Y-51764140D01*
X138953712Y-51733197D01*
X139088226Y-51323052D01*
X139055546Y-50892651D01*
X138953712Y-50646803D01*
X138771076Y-50619888D01*
X138860286Y-50530678D01*
X138844608Y-50515000D01*
X138860286Y-50499322D01*
X138771076Y-50410112D01*
X138953712Y-50383197D01*
X139088226Y-49973052D01*
X139055546Y-49542651D01*
X138953712Y-49296803D01*
X138743745Y-49265860D01*
X138169605Y-49840000D01*
X138183748Y-49854143D01*
X138004143Y-50033748D01*
X137990000Y-50019605D01*
X137975858Y-50033748D01*
X137951356Y-50009246D01*
X137963226Y-49973052D01*
X137941055Y-49681055D01*
X137975858Y-49646253D01*
X137990000Y-49660395D01*
X138187248Y-49463147D01*
X138287349Y-49455546D01*
X138533197Y-49353712D01*
X138564140Y-49143745D01*
X138535395Y-49115000D01*
X138564140Y-49086255D01*
X138533197Y-48876288D01*
X138181259Y-48760864D01*
X137990000Y-48569605D01*
X137975858Y-48583748D01*
X137951356Y-48559246D01*
X137963226Y-48523052D01*
X137953124Y-48390000D01*
X138169605Y-48390000D01*
X138743745Y-48964140D01*
X138953712Y-48933197D01*
X139088226Y-48523052D01*
X139055546Y-48092651D01*
X138953712Y-47846803D01*
X138743745Y-47815860D01*
X138169605Y-48390000D01*
X137953124Y-48390000D01*
X137941055Y-48231055D01*
X137975858Y-48196253D01*
X137990000Y-48210395D01*
X138564140Y-47636255D01*
X138533197Y-47426288D01*
X138123052Y-47291774D01*
X137692651Y-47324454D01*
X137446803Y-47426288D01*
X137427500Y-47557271D01*
X137408197Y-47426288D01*
X136998052Y-47291774D01*
X136567651Y-47324454D01*
X136321803Y-47426288D01*
X136315000Y-47472450D01*
X136308197Y-47426288D01*
X135898052Y-47291774D01*
X135467651Y-47324454D01*
X135248933Y-47415050D01*
X134873052Y-47291774D01*
X134442651Y-47324454D01*
X134196803Y-47426288D01*
X134165860Y-47636255D01*
X134696356Y-48166751D01*
X134666774Y-48256948D01*
X134694006Y-48615599D01*
X134542752Y-48766853D01*
X134442651Y-48774454D01*
X134196803Y-48876288D01*
X134165860Y-49086255D01*
X134194605Y-49115000D01*
X134165860Y-49143745D01*
X134196803Y-49353712D01*
X134548741Y-49469136D01*
X134696356Y-49616751D01*
X134666774Y-49706948D01*
X134688772Y-49996662D01*
X134546253Y-49854143D01*
X134560395Y-49840000D01*
X133986255Y-49265860D01*
X133776288Y-49296803D01*
X133641774Y-49706948D01*
X94195507Y-49706948D01*
X94232192Y-49670327D01*
X94374838Y-49326799D01*
X94375162Y-48954833D01*
X94360463Y-48919259D01*
X94568943Y-48833117D01*
X94832192Y-48570327D01*
X94962318Y-48256948D01*
X133641774Y-48256948D01*
X133674454Y-48687349D01*
X133776288Y-48933197D01*
X133986255Y-48964140D01*
X134560395Y-48390000D01*
X133986255Y-47815860D01*
X133776288Y-47846803D01*
X133641774Y-48256948D01*
X94962318Y-48256948D01*
X94974838Y-48226799D01*
X94975162Y-47854833D01*
X94833117Y-47511057D01*
X94570327Y-47247808D01*
X94226799Y-47105162D01*
X94024874Y-47104986D01*
X94025162Y-46774833D01*
X93883117Y-46431057D01*
X93620327Y-46167808D01*
X93589482Y-46155000D01*
X96261108Y-46155000D01*
X96302954Y-46196919D01*
X96683223Y-46354820D01*
X97094971Y-46355179D01*
X97475515Y-46197942D01*
X97766919Y-45907046D01*
X97924820Y-45526777D01*
X97925179Y-45115029D01*
X97767942Y-44734485D01*
X97477046Y-44443081D01*
X97096777Y-44285180D01*
X96685029Y-44284821D01*
X96304485Y-44442058D01*
X96261468Y-44485000D01*
X92985868Y-44485000D01*
X92780434Y-44279566D01*
X92720161Y-44239293D01*
X92375111Y-43894243D01*
X92394820Y-43846777D01*
X92395179Y-43435029D01*
X92237942Y-43054485D01*
X91947046Y-42763081D01*
X91566777Y-42605180D01*
X91155029Y-42604821D01*
X91137116Y-42612223D01*
X91056583Y-42444560D01*
X90863944Y-42274440D01*
X89218496Y-41324440D01*
X89081479Y-41276340D01*
X89234631Y-41119911D01*
X90459564Y-40099383D01*
X91800935Y-39209666D01*
X93209122Y-38492149D01*
X96181891Y-37962505D01*
X96204099Y-37953823D01*
X96227918Y-37952743D01*
X99261232Y-37205075D01*
X99280594Y-37196006D01*
X99301855Y-37193790D01*
X105292187Y-35339273D01*
X105296234Y-35337080D01*
X105300807Y-35336545D01*
X106645556Y-34901655D01*
X106392185Y-35223049D01*
G36*
X136903644Y-51020754D02*
X136891774Y-51056948D01*
X136913945Y-51348945D01*
X136879143Y-51383748D01*
X136865000Y-51369605D01*
X136850858Y-51383748D01*
X136845181Y-51378071D01*
X136863226Y-51323052D01*
X136839291Y-51007819D01*
X136850858Y-50996253D01*
X136865000Y-51010395D01*
X136879143Y-50996253D01*
X136903644Y-51020754D01*
X136903644Y-51020754D01*
G37*
X136903644Y-51020754D02*
X136891774Y-51056948D01*
X136913945Y-51348945D01*
X136879143Y-51383748D01*
X136865000Y-51369605D01*
X136850858Y-51383748D01*
X136845181Y-51378071D01*
X136863226Y-51323052D01*
X136839291Y-51007819D01*
X136850858Y-50996253D01*
X136865000Y-51010395D01*
X136879143Y-50996253D01*
X136903644Y-51020754D01*
G36*
X136903644Y-49670754D02*
X136891774Y-49706948D01*
X136913945Y-49998945D01*
X136879143Y-50033748D01*
X136865000Y-50019605D01*
X136850858Y-50033748D01*
X136845181Y-50028071D01*
X136863226Y-49973052D01*
X136839291Y-49657819D01*
X136850858Y-49646253D01*
X136865000Y-49660395D01*
X136879143Y-49646253D01*
X136903644Y-49670754D01*
X136903644Y-49670754D01*
G37*
X136903644Y-49670754D02*
X136891774Y-49706948D01*
X136913945Y-49998945D01*
X136879143Y-50033748D01*
X136865000Y-50019605D01*
X136850858Y-50033748D01*
X136845181Y-50028071D01*
X136863226Y-49973052D01*
X136839291Y-49657819D01*
X136850858Y-49646253D01*
X136865000Y-49660395D01*
X136879143Y-49646253D01*
X136903644Y-49670754D01*
G36*
X136903644Y-48220754D02*
X136891774Y-48256948D01*
X136913945Y-48548945D01*
X136879143Y-48583748D01*
X136865000Y-48569605D01*
X136850858Y-48583748D01*
X136845181Y-48578071D01*
X136863226Y-48523052D01*
X136839291Y-48207819D01*
X136850858Y-48196253D01*
X136865000Y-48210395D01*
X136879143Y-48196253D01*
X136903644Y-48220754D01*
X136903644Y-48220754D01*
G37*
X136903644Y-48220754D02*
X136891774Y-48256948D01*
X136913945Y-48548945D01*
X136879143Y-48583748D01*
X136865000Y-48569605D01*
X136850858Y-48583748D01*
X136845181Y-48578071D01*
X136863226Y-48523052D01*
X136839291Y-48207819D01*
X136850858Y-48196253D01*
X136865000Y-48210395D01*
X136879143Y-48196253D01*
X136903644Y-48220754D01*
G36*
X154077434Y-51242566D02*
X154258255Y-51363387D01*
X154695000Y-51800132D01*
X154695000Y-59079868D01*
X153859868Y-59915000D01*
X143895868Y-59915000D01*
X144330434Y-59480434D01*
X144511440Y-59209540D01*
X144575000Y-58890000D01*
X144575000Y-57768892D01*
X144616919Y-57727046D01*
X144774820Y-57346777D01*
X144775179Y-56935029D01*
X144617942Y-56554485D01*
X144327046Y-56263081D01*
X143946777Y-56105180D01*
X143535029Y-56104821D01*
X143154485Y-56262058D01*
X143025000Y-56391317D01*
X143025000Y-55085868D01*
X143435868Y-54675000D01*
X148411108Y-54675000D01*
X148452954Y-54716919D01*
X148833223Y-54874820D01*
X149244971Y-54875179D01*
X149625515Y-54717942D01*
X149916919Y-54427046D01*
X150074820Y-54046777D01*
X150075144Y-53675075D01*
X150194971Y-53675179D01*
X150575515Y-53517942D01*
X150866919Y-53227046D01*
X151024820Y-52846777D01*
X151025008Y-52631612D01*
X151673123Y-53279727D01*
X151605215Y-53443266D01*
X151604786Y-53934579D01*
X151792408Y-54388657D01*
X152139515Y-54736371D01*
X152593266Y-54924785D01*
X153084579Y-54925214D01*
X153538657Y-54737592D01*
X153886371Y-54390485D01*
X154074785Y-53936734D01*
X154075214Y-53445421D01*
X153975000Y-53202886D01*
X153975000Y-52841472D01*
X153938812Y-52659541D01*
X153888604Y-52407127D01*
X153642566Y-52038906D01*
X145791094Y-44187434D01*
X145658086Y-44098561D01*
X145473164Y-43975000D01*
X146809868Y-43975000D01*
X154077434Y-51242566D01*
X154077434Y-51242566D01*
G37*
X154077434Y-51242566D02*
X154258255Y-51363387D01*
X154695000Y-51800132D01*
X154695000Y-59079868D01*
X153859868Y-59915000D01*
X143895868Y-59915000D01*
X144330434Y-59480434D01*
X144511440Y-59209540D01*
X144575000Y-58890000D01*
X144575000Y-57768892D01*
X144616919Y-57727046D01*
X144774820Y-57346777D01*
X144775179Y-56935029D01*
X144617942Y-56554485D01*
X144327046Y-56263081D01*
X143946777Y-56105180D01*
X143535029Y-56104821D01*
X143154485Y-56262058D01*
X143025000Y-56391317D01*
X143025000Y-55085868D01*
X143435868Y-54675000D01*
X148411108Y-54675000D01*
X148452954Y-54716919D01*
X148833223Y-54874820D01*
X149244971Y-54875179D01*
X149625515Y-54717942D01*
X149916919Y-54427046D01*
X150074820Y-54046777D01*
X150075144Y-53675075D01*
X150194971Y-53675179D01*
X150575515Y-53517942D01*
X150866919Y-53227046D01*
X151024820Y-52846777D01*
X151025008Y-52631612D01*
X151673123Y-53279727D01*
X151605215Y-53443266D01*
X151604786Y-53934579D01*
X151792408Y-54388657D01*
X152139515Y-54736371D01*
X152593266Y-54924785D01*
X153084579Y-54925214D01*
X153538657Y-54737592D01*
X153886371Y-54390485D01*
X154074785Y-53936734D01*
X154075214Y-53445421D01*
X153975000Y-53202886D01*
X153975000Y-52841472D01*
X153938812Y-52659541D01*
X153888604Y-52407127D01*
X153642566Y-52038906D01*
X145791094Y-44187434D01*
X145658086Y-44098561D01*
X145473164Y-43975000D01*
X146809868Y-43975000D01*
X154077434Y-51242566D01*
G36*
X133475410Y-29845445D02*
X137364199Y-30468563D01*
X141119455Y-31629013D01*
X144599498Y-33303928D01*
X148168189Y-36485787D01*
X149846368Y-38273395D01*
X151360310Y-40182029D01*
X152639846Y-42199139D01*
X153623506Y-44318802D01*
X154253284Y-46538046D01*
X154427715Y-48382583D01*
X148082566Y-42037434D01*
X148070557Y-42029410D01*
X147714346Y-41791397D01*
X147280000Y-41705000D01*
X146615328Y-41705000D01*
X146596999Y-36389562D01*
X146588289Y-36343775D01*
X146560985Y-36301396D01*
X146519345Y-36272978D01*
X146469929Y-36263000D01*
X128499929Y-36273000D01*
X128453841Y-36281685D01*
X128411447Y-36308965D01*
X128383006Y-36350590D01*
X128373000Y-36400000D01*
X128373000Y-41705000D01*
X110510132Y-41705000D01*
X108859316Y-40054184D01*
X108859316Y-36876812D01*
X109056447Y-36626757D01*
X109070790Y-36575903D01*
X109193440Y-36719508D01*
X109418525Y-36834195D01*
X109670364Y-36854015D01*
X109910619Y-36775952D01*
X110327126Y-36640621D01*
X110429050Y-36440584D01*
X110058461Y-35300029D01*
X110039439Y-35306210D01*
X110011929Y-35221539D01*
X110300029Y-35221539D01*
X110670618Y-36362094D01*
X110870655Y-36464017D01*
X111287161Y-36328686D01*
X111527416Y-36250623D01*
X111719509Y-36086560D01*
X111834195Y-35861475D01*
X111854015Y-35609635D01*
X111640621Y-34952874D01*
X111440584Y-34850950D01*
X110300029Y-35221539D01*
X110011929Y-35221539D01*
X109960950Y-35064641D01*
X109979971Y-35058461D01*
X109973790Y-35039439D01*
X110215359Y-34960950D01*
X110221539Y-34979971D01*
X111362094Y-34609382D01*
X111464017Y-34409345D01*
X111250623Y-33752585D01*
X111086560Y-33560492D01*
X110972440Y-33502345D01*
X111272565Y-33405285D01*
X114267756Y-32565122D01*
X114898591Y-32423230D01*
X114431332Y-32735442D01*
X114235442Y-32931332D01*
X113801897Y-33580179D01*
X113777376Y-33639379D01*
X113695883Y-33836119D01*
X113543642Y-34601486D01*
X113543643Y-34740000D01*
X113543642Y-34878514D01*
X113695883Y-35643881D01*
X113743882Y-35759759D01*
X113801897Y-35899821D01*
X114235442Y-36548668D01*
X114431332Y-36744558D01*
X115080178Y-37178103D01*
X115208149Y-37231110D01*
X115336119Y-37284117D01*
X116101485Y-37436357D01*
X116171413Y-37436357D01*
X116240000Y-37450000D01*
X126240000Y-37450000D01*
X126308584Y-37436358D01*
X126378514Y-37436358D01*
X127143881Y-37284117D01*
X127291615Y-37222923D01*
X127399821Y-37178103D01*
X128048668Y-36744558D01*
X128244558Y-36548668D01*
X128678103Y-35899822D01*
X128771976Y-35673191D01*
X128784117Y-35643881D01*
X128936357Y-34878515D01*
X128936357Y-34601485D01*
X128784117Y-33836119D01*
X128731110Y-33708149D01*
X128678103Y-33580178D01*
X128244558Y-32931332D01*
X128048668Y-32735442D01*
X127399821Y-32301897D01*
X127245448Y-32237954D01*
X127143881Y-32195883D01*
X126378514Y-32043642D01*
X126308584Y-32043642D01*
X126240000Y-32030000D01*
X116646836Y-32030000D01*
X117217414Y-31901661D01*
X118717135Y-31998850D01*
X118772189Y-31991561D01*
X118827396Y-31997534D01*
X120382915Y-31859402D01*
X120434341Y-31844340D01*
X120487884Y-31842193D01*
X123518134Y-31112112D01*
X123533751Y-31104897D01*
X123550889Y-31103400D01*
X126550992Y-30229332D01*
X128036959Y-29915357D01*
X129552120Y-29762131D01*
X133475410Y-29845445D01*
X133475410Y-29845445D01*
G37*
X133475410Y-29845445D02*
X137364199Y-30468563D01*
X141119455Y-31629013D01*
X144599498Y-33303928D01*
X148168189Y-36485787D01*
X149846368Y-38273395D01*
X151360310Y-40182029D01*
X152639846Y-42199139D01*
X153623506Y-44318802D01*
X154253284Y-46538046D01*
X154427715Y-48382583D01*
X148082566Y-42037434D01*
X148070557Y-42029410D01*
X147714346Y-41791397D01*
X147280000Y-41705000D01*
X146615328Y-41705000D01*
X146596999Y-36389562D01*
X146588289Y-36343775D01*
X146560985Y-36301396D01*
X146519345Y-36272978D01*
X146469929Y-36263000D01*
X128499929Y-36273000D01*
X128453841Y-36281685D01*
X128411447Y-36308965D01*
X128383006Y-36350590D01*
X128373000Y-36400000D01*
X128373000Y-41705000D01*
X110510132Y-41705000D01*
X108859316Y-40054184D01*
X108859316Y-36876812D01*
X109056447Y-36626757D01*
X109070790Y-36575903D01*
X109193440Y-36719508D01*
X109418525Y-36834195D01*
X109670364Y-36854015D01*
X109910619Y-36775952D01*
X110327126Y-36640621D01*
X110429050Y-36440584D01*
X110058461Y-35300029D01*
X110039439Y-35306210D01*
X110011929Y-35221539D01*
X110300029Y-35221539D01*
X110670618Y-36362094D01*
X110870655Y-36464017D01*
X111287161Y-36328686D01*
X111527416Y-36250623D01*
X111719509Y-36086560D01*
X111834195Y-35861475D01*
X111854015Y-35609635D01*
X111640621Y-34952874D01*
X111440584Y-34850950D01*
X110300029Y-35221539D01*
X110011929Y-35221539D01*
X109960950Y-35064641D01*
X109979971Y-35058461D01*
X109973790Y-35039439D01*
X110215359Y-34960950D01*
X110221539Y-34979971D01*
X111362094Y-34609382D01*
X111464017Y-34409345D01*
X111250623Y-33752585D01*
X111086560Y-33560492D01*
X110972440Y-33502345D01*
X111272565Y-33405285D01*
X114267756Y-32565122D01*
X114898591Y-32423230D01*
X114431332Y-32735442D01*
X114235442Y-32931332D01*
X113801897Y-33580179D01*
X113777376Y-33639379D01*
X113695883Y-33836119D01*
X113543642Y-34601486D01*
X113543643Y-34740000D01*
X113543642Y-34878514D01*
X113695883Y-35643881D01*
X113743882Y-35759759D01*
X113801897Y-35899821D01*
X114235442Y-36548668D01*
X114431332Y-36744558D01*
X115080178Y-37178103D01*
X115208149Y-37231110D01*
X115336119Y-37284117D01*
X116101485Y-37436357D01*
X116171413Y-37436357D01*
X116240000Y-37450000D01*
X126240000Y-37450000D01*
X126308584Y-37436358D01*
X126378514Y-37436358D01*
X127143881Y-37284117D01*
X127291615Y-37222923D01*
X127399821Y-37178103D01*
X128048668Y-36744558D01*
X128244558Y-36548668D01*
X128678103Y-35899822D01*
X128771976Y-35673191D01*
X128784117Y-35643881D01*
X128936357Y-34878515D01*
X128936357Y-34601485D01*
X128784117Y-33836119D01*
X128731110Y-33708149D01*
X128678103Y-33580178D01*
X128244558Y-32931332D01*
X128048668Y-32735442D01*
X127399821Y-32301897D01*
X127245448Y-32237954D01*
X127143881Y-32195883D01*
X126378514Y-32043642D01*
X126308584Y-32043642D01*
X126240000Y-32030000D01*
X116646836Y-32030000D01*
X117217414Y-31901661D01*
X118717135Y-31998850D01*
X118772189Y-31991561D01*
X118827396Y-31997534D01*
X120382915Y-31859402D01*
X120434341Y-31844340D01*
X120487884Y-31842193D01*
X123518134Y-31112112D01*
X123533751Y-31104897D01*
X123550889Y-31103400D01*
X126550992Y-30229332D01*
X128036959Y-29915357D01*
X129552120Y-29762131D01*
X133475410Y-29845445D01*
M02*
