M48
INCH,TZ
T1C0.016
T2C0.022
T3C0.024
T4C0.026
T5C0.032
T6C0.035
T7C0.039
T8C0.040
%
G90
G05
T1
X36650Y-18488
X36787Y-19346
X37024Y-18913
T2
X53047Y-19051
X53047Y-19622
X53047Y-20154
X53451Y-19051
X53451Y-19622
X53451Y-20154
X53884Y-19051
X53884Y-19622
X53884Y-20154
X54327Y-19051
X54327Y-19622
X54327Y-20154
T3
X30646Y-24307
X31531Y-24425
X33185Y-20346
X34106Y-20406
X34839Y-20374
X35134Y-30803
X35173Y-32063
X35528Y-33598
X35717Y-20094
X35764Y-31433
X35969Y-17181
X36157Y-19661
X36236Y-33008
X36236Y-34228
X38146Y-17843
X38677Y-32260
X38874Y-21000
X38913Y-15224
X38953Y-20528
X39307Y-32260
X39512Y-15220
X39858Y-32260
X39961Y-15220
X39965Y-18398
X39965Y-18870
X40488Y-15209
X40709Y-18870
X40720Y-18394
X40827Y-35764
X41827Y-48126
X43165Y-49346
X43244Y-46748
X43598Y-49346
X43677Y-46748
X44071Y-49346
X44150Y-46748
X44878Y-50134
X45764Y-48815
X45783Y-24000
X46354Y-49504
X46374Y-48106
X46945Y-48815
X48720Y-17713
X48992Y-48087
X49307Y-20606
X49307Y-21217
X50740Y-24567
X56591Y-22496
X57772Y-22732
X58047Y-29465
X58362Y-24858
X58559Y-21945
X58559Y-22732
X58677Y-21197
X58677Y-29425
X59051Y-20724
X59346Y-28717
X59346Y-29346
X60173Y-21138
X60173Y-24858
X61197Y-35252
X61335Y-26650
X61551Y-27850
X61630Y-28441
X62102Y-28441
T4
X35009Y-19679
X35885Y-18162
T5
X33558Y-19732
X35202Y-16885
T6
X59122Y-38504
X59988Y-38004
X60878Y-37047
X61744Y-36547
T7
X39665Y-22394
X39665Y-23394
X39665Y-24394
X39665Y-25394
X42411Y-14144
X43362Y-13835
T8
X37575Y-33677
X37575Y-38677
T0
M30
