G04 #@! TF.FileFunction,Paste,Bot*
%FSLAX46Y46*%
G04 Gerber Fmt 4.6, Leading zero omitted, Abs format (unit mm)*
G04 Created by KiCad (PCBNEW 4.0.7) date Monday, 12 '12e' March '12e' 2018, 16:25:27*
%MOMM*%
%LPD*%
G01*
G04 APERTURE LIST*
%ADD10C,0.100000*%
%ADD11O,2.000000X0.900000*%
%ADD12R,2.000000X0.900000*%
%ADD13R,4.300000X4.300000*%
%ADD14R,1.300000X1.500000*%
%ADD15R,2.000000X3.800000*%
%ADD16R,2.000000X1.500000*%
%ADD17R,3.200000X1.500000*%
%ADD18R,1.500000X1.300000*%
%ADD19R,1.250000X1.500000*%
%ADD20R,2.500000X1.800000*%
%ADD21R,1.800000X1.000000*%
%ADD22R,0.900000X0.800000*%
%ADD23R,0.810000X0.270000*%
%ADD24R,0.270000X0.810000*%
%ADD25R,2.700000X2.700000*%
%ADD26R,0.990000X1.300000*%
%ADD27R,0.590000X1.300000*%
G04 APERTURE END LIST*
D10*
D11*
X128490000Y-55390000D03*
X146490000Y-55390000D03*
D12*
X146490000Y-43390000D03*
D11*
X146490000Y-44890000D03*
X146490000Y-46390000D03*
X146490000Y-47890000D03*
X146490000Y-49390000D03*
X146490000Y-50890000D03*
X146490000Y-52390000D03*
X146490000Y-53890000D03*
X128490000Y-53890000D03*
X128490000Y-52390000D03*
X128490000Y-50890000D03*
X128490000Y-49390000D03*
X128490000Y-47890000D03*
X128490000Y-46390000D03*
X128490000Y-44890000D03*
X128490000Y-43390000D03*
D13*
X136370000Y-49970000D03*
D14*
X144340000Y-61740000D03*
X144340000Y-59040000D03*
D15*
X119250000Y-44950000D03*
D16*
X112950000Y-44950000D03*
X112950000Y-42650000D03*
X112950000Y-47250000D03*
D17*
X116040000Y-50390000D03*
X112040000Y-50390000D03*
D18*
X149590000Y-43440000D03*
X152290000Y-43440000D03*
D19*
X99155000Y-42714999D03*
X99155000Y-40214999D03*
X101550000Y-42700000D03*
X101550000Y-40200000D03*
D20*
X108850000Y-40850000D03*
X104850000Y-40850000D03*
D21*
X93050000Y-42200000D03*
X93050000Y-39700000D03*
D22*
X112517052Y-55673168D03*
X112517052Y-53773168D03*
X114517052Y-54723168D03*
X114517052Y-57573168D03*
X114517052Y-59473168D03*
X112517052Y-58523168D03*
D14*
X141890000Y-59040000D03*
X141890000Y-61740000D03*
X139490000Y-61740000D03*
X139490000Y-59040000D03*
X116967052Y-56023168D03*
X116967052Y-58723168D03*
X110267052Y-56723168D03*
X110267052Y-54023168D03*
D18*
X104640000Y-119940000D03*
X101940000Y-119940000D03*
X104640000Y-117540000D03*
X101940000Y-117540000D03*
X104640000Y-122240000D03*
X101940000Y-122240000D03*
D23*
X95735000Y-49830000D03*
X95735000Y-49330000D03*
X95735000Y-48830000D03*
X95735000Y-48330000D03*
X95735000Y-47830000D03*
X95735000Y-47330000D03*
D24*
X96440000Y-46625000D03*
X96940000Y-46625000D03*
X97440000Y-46625000D03*
X97940000Y-46625000D03*
X98440000Y-46625000D03*
X98940000Y-46625000D03*
D23*
X99645000Y-47330000D03*
X99645000Y-47830000D03*
X99645000Y-48330000D03*
X99645000Y-48830000D03*
X99645000Y-49330000D03*
X99645000Y-49830000D03*
D24*
X98940000Y-50535000D03*
X98440000Y-50535000D03*
X97940000Y-50535000D03*
X97440000Y-50535000D03*
X96940000Y-50535000D03*
X96440000Y-50535000D03*
D25*
X97710000Y-48560000D03*
D26*
X95590000Y-40075000D03*
D27*
X97310000Y-40075000D03*
X97310000Y-42125000D03*
X95390000Y-42125000D03*
D17*
X112580000Y-39340000D03*
X116580000Y-39340000D03*
D18*
X94590000Y-59440000D03*
X97290000Y-59440000D03*
X94590000Y-56890000D03*
X97290000Y-56890000D03*
M02*
