G04 #@! TF.FileFunction,Legend,Top*
%FSLAX46Y46*%
G04 Gerber Fmt 4.6, Leading zero omitted, Abs format (unit mm)*
G04 Created by KiCad (PCBNEW 4.0.7) date Monday, 12 '12e' March '12e' 2018, 16:25:27*
%MOMM*%
%LPD*%
G01*
G04 APERTURE LIST*
%ADD10C,0.100000*%
%ADD11C,0.150000*%
%ADD12C,0.120000*%
%ADD13C,0.254000*%
%ADD14C,0.127000*%
G04 APERTURE END LIST*
D10*
D11*
X107048096Y-67683904D02*
X106228944Y-68257480D01*
X107204024Y-69650038D02*
X108023176Y-69076462D01*
X79946244Y-66357958D02*
X74506222Y-70763201D01*
X76673778Y-62316799D02*
X72885191Y-65384736D01*
X151895803Y-66837078D02*
X158882747Y-66409739D01*
X152213255Y-72027379D02*
X159200199Y-71600040D01*
X159200199Y-71600040D02*
X159139150Y-70601905D01*
D10*
G36*
X110244628Y-129901655D02*
X147754306Y-95666774D01*
X147023686Y-96986013D01*
X147867096Y-98597591D01*
X149493585Y-99228061D01*
X151864196Y-98475554D01*
X154107745Y-96891132D01*
X155009897Y-95213525D01*
X154683622Y-94393608D01*
X153040810Y-95254431D01*
X151807390Y-95795550D01*
X150669840Y-96387038D01*
X150649248Y-97526495D01*
X150054498Y-98059100D01*
X148646395Y-97398169D01*
X148121600Y-96064957D01*
X147754306Y-95666774D01*
X110244628Y-129901655D01*
X150513185Y-88957336D01*
X149925312Y-91050704D01*
X149125329Y-92525360D01*
X148640932Y-93450248D01*
X150490615Y-93358947D01*
X151609144Y-92315836D01*
X153748321Y-91779824D01*
X155509715Y-91634230D01*
X156740888Y-90639571D01*
X157881142Y-88307364D01*
X157607251Y-86394999D01*
X157333343Y-85674585D01*
X156171620Y-86922012D01*
X155009897Y-88459473D01*
X154308508Y-89481599D01*
X152938423Y-90193597D01*
X151616617Y-89561137D01*
X150513185Y-88957336D01*
X110244628Y-129901655D01*
X152725955Y-83431118D01*
X152120621Y-84565157D01*
X153260872Y-86755151D01*
X154737359Y-86885661D01*
X154338265Y-85009248D01*
X153687312Y-83671818D01*
X152725955Y-83431118D01*
X110244628Y-129901655D01*
X155401438Y-76367964D01*
X155662465Y-76767327D01*
X158325388Y-77588930D01*
X159466449Y-78744162D01*
X159709867Y-80864997D01*
X159760949Y-82675525D01*
X159882661Y-84713517D01*
X160105349Y-86331435D01*
X160386564Y-85838560D01*
X160764938Y-83167191D01*
X160920058Y-79546869D01*
X160387356Y-77255106D01*
X159164973Y-76283913D01*
X157106661Y-76144232D01*
X155401438Y-76367964D01*
X110244628Y-129901655D01*
X154393214Y-79851195D01*
X153077664Y-81723915D01*
X153863468Y-82905077D01*
X155277959Y-81795733D01*
X155768764Y-79828860D01*
X155549419Y-78728726D01*
X154393214Y-79851195D01*
X110244628Y-129901655D01*
X107761331Y-129559280D01*
X106436109Y-128687397D01*
X105015204Y-126461146D01*
X103438886Y-123732440D01*
X101865401Y-120877039D01*
X100381378Y-118063061D01*
X99073444Y-115458626D01*
X98028226Y-113231852D01*
X97332351Y-111550858D01*
X96438278Y-109274622D01*
X95235226Y-106443442D01*
X93914748Y-103486294D01*
X92668397Y-100832152D01*
X91687725Y-98909989D01*
X90991178Y-97181348D01*
X92382427Y-96894132D01*
X94060669Y-96419742D01*
X95944128Y-95570782D01*
X97454552Y-94607897D01*
X99313649Y-93380534D01*
X100861865Y-92562889D01*
X100872528Y-93529746D01*
X100510833Y-95772710D01*
X99935845Y-98305373D01*
X99060028Y-101786087D01*
X99161625Y-102762221D01*
X100649092Y-103676741D01*
X102142663Y-104354790D01*
X100707050Y-106276391D01*
X99020696Y-107977347D01*
X98930179Y-110606094D01*
X98839662Y-113234838D01*
X99452215Y-113053342D01*
X101051907Y-112228600D01*
X102022436Y-111362881D01*
X103347031Y-110722317D01*
X104916241Y-110055870D01*
X106829002Y-109005935D01*
X109016318Y-107833129D01*
X110694601Y-107570371D01*
X112720422Y-108083554D01*
X114675342Y-108613548D01*
X116635757Y-108471580D01*
X118883882Y-108294827D01*
X121534374Y-108270501D01*
X123608493Y-108267121D01*
X124470866Y-108140728D01*
X123558756Y-106626317D01*
X122025733Y-104970519D01*
X119923839Y-104098845D01*
X116799817Y-103780454D01*
X114511115Y-103588887D01*
X112509203Y-103128072D01*
X113074268Y-102146335D01*
X114171125Y-100322753D01*
X113793564Y-98226776D01*
X112555722Y-96456295D01*
X112009842Y-96107215D01*
X112806426Y-97739644D01*
X113420219Y-99677774D01*
X112377830Y-100750991D01*
X111378779Y-101238939D01*
X110664709Y-100383601D01*
X109135126Y-99551453D01*
X107696699Y-99956837D01*
X106755934Y-101288578D01*
X105463965Y-102936449D01*
X103124831Y-103198478D01*
X100615674Y-102764986D01*
X100028280Y-100973465D01*
X100330729Y-99295236D01*
X100823659Y-97357590D01*
X101322775Y-95343144D01*
X101640141Y-93480272D01*
X102773579Y-91310745D01*
X104009116Y-91005770D01*
X105807257Y-90913439D01*
X107535750Y-91012878D01*
X109518598Y-91541233D01*
X113246386Y-92895693D01*
X115101020Y-93302005D01*
X117514654Y-93431160D01*
X120150602Y-93284333D01*
X122672180Y-92862705D01*
X125752360Y-91980102D01*
X128587798Y-90883200D01*
X130962557Y-89667831D01*
X132660700Y-88429827D01*
X134034182Y-86842808D01*
X135310549Y-84870529D01*
X136238852Y-82900763D01*
X137114625Y-81276048D01*
X139007976Y-79224272D01*
X140613065Y-77759050D01*
X141343517Y-77314679D01*
X142049989Y-78593525D01*
X143597385Y-81271362D01*
X145249742Y-84113619D01*
X146208570Y-85787772D01*
X146808260Y-86495326D01*
X147124299Y-85558353D01*
X147694869Y-83494873D01*
X148803864Y-79825015D01*
X149580382Y-78729701D01*
X150800317Y-79267383D01*
X151988972Y-79685782D01*
X153150677Y-77966324D01*
X154609074Y-75844772D01*
X156418889Y-74673866D01*
X158062633Y-73962613D01*
X159625404Y-73870175D01*
X161037093Y-74478764D01*
X161647545Y-75378329D01*
X162488328Y-76887934D01*
X163331153Y-78836232D01*
X163463882Y-80803263D01*
X163241079Y-82835472D01*
X162637037Y-85079632D01*
X161663023Y-87507652D01*
X160330306Y-90091444D01*
X158650154Y-92802917D01*
X156759258Y-95353227D01*
X154819908Y-97441962D01*
X152874701Y-99034256D01*
X150966231Y-100095240D01*
X149137096Y-100590049D01*
X147746321Y-100116173D01*
X147364298Y-100730665D01*
X146562380Y-104585304D01*
X146041312Y-107328800D01*
X145598064Y-109643262D01*
X145328595Y-111027622D01*
X144617590Y-112907634D01*
X143268812Y-114948473D01*
X141419381Y-116942652D01*
X140049317Y-118110486D01*
X137965485Y-119775997D01*
X135619026Y-121578609D01*
X132318633Y-124015369D01*
X129604819Y-125903171D01*
X127345205Y-127318843D01*
X125407413Y-128339213D01*
X123659062Y-129041110D01*
X121967775Y-129501360D01*
X120190008Y-129749818D01*
X117732645Y-129927604D01*
X114991850Y-130021190D01*
X112363790Y-130017050D01*
X110244628Y-129901655D01*
X110244628Y-129901655D01*
G37*
G36*
X101894718Y-72006724D02*
X99679860Y-71290417D01*
X97420908Y-70991327D01*
X94058912Y-70710772D01*
X90704230Y-70525723D01*
X88467220Y-70513151D01*
X87036157Y-70396831D01*
X86810382Y-67820609D01*
X86493657Y-65587066D01*
X86921064Y-64989397D01*
X87758138Y-64251115D01*
X88461753Y-63323890D01*
X89788417Y-61851755D01*
X91262492Y-60161844D01*
X92154654Y-58806343D01*
X92981380Y-57500078D01*
X94132293Y-56023856D01*
X95405522Y-54691327D01*
X96375873Y-54097481D01*
X98156288Y-54094612D01*
X99074908Y-54420874D01*
X99613571Y-53904802D01*
X100636270Y-52400504D01*
X101248710Y-50937922D01*
X102537164Y-49224960D01*
X103412882Y-48854010D01*
X103889257Y-49776861D01*
X105061779Y-50146001D01*
X106298871Y-49869145D01*
X108471028Y-49756889D01*
X110394110Y-49473630D01*
X111581922Y-49865842D01*
X110657803Y-51105315D01*
X110653196Y-51376286D01*
X112989708Y-51428314D01*
X114699192Y-51465050D01*
X116312471Y-51614844D01*
X118287096Y-51956973D01*
X121080618Y-52570714D01*
X125150586Y-53535346D01*
X130154544Y-54709097D01*
X133161169Y-55311742D01*
X134856110Y-55451559D01*
X135925020Y-55236824D01*
X138258332Y-55240789D01*
X139530232Y-57375696D01*
X139538462Y-58486600D01*
X139415676Y-60584582D01*
X139193165Y-63238962D01*
X138902221Y-66019060D01*
X138717916Y-67608728D01*
X137286085Y-67851007D01*
X135416230Y-68166344D01*
X132929273Y-68613507D01*
X130813356Y-68965242D01*
X129835554Y-69051143D01*
X128644636Y-68868453D01*
X125879989Y-68521460D01*
X122436396Y-68115620D01*
X119208639Y-67756384D01*
X117091504Y-67549206D01*
X115163316Y-67613932D01*
X113142268Y-68066228D01*
X111135736Y-68872538D01*
X109251095Y-69999306D01*
X107002929Y-71315057D01*
X104625948Y-72187926D01*
X103146188Y-72437535D01*
X101894718Y-72006724D01*
X101894718Y-72006724D01*
G37*
G36*
X133691452Y-78200358D02*
X133089112Y-77186506D01*
X134084253Y-77637420D01*
X135149375Y-78089156D01*
X136203807Y-77878165D01*
X137188277Y-77666353D01*
X138129755Y-76910605D01*
X139071232Y-76154860D01*
X139366829Y-75478108D01*
X139662426Y-74801357D01*
X139478103Y-73501012D01*
X139284059Y-72188204D01*
X137829426Y-72070360D01*
X136384512Y-71964982D01*
X135100297Y-72464033D01*
X133774131Y-73022351D01*
X133288948Y-73652604D01*
X132847234Y-74386729D01*
X132968904Y-75868187D01*
X133089112Y-77186506D01*
X133691452Y-78200358D01*
X132499271Y-77625896D01*
X132324777Y-75804079D01*
X132150303Y-73982262D01*
X132721288Y-73205664D01*
X133292274Y-72429063D01*
X134838393Y-71813241D01*
X136384512Y-71197417D01*
X138090599Y-71344148D01*
X139813989Y-71508181D01*
X140056114Y-73036028D01*
X140283110Y-74647750D01*
X139953601Y-75552897D01*
X139622996Y-76360162D01*
X138560269Y-77249541D01*
X137425040Y-78196215D01*
X134965197Y-78758985D01*
X133691452Y-78200358D01*
X133691452Y-78200358D01*
G37*
G36*
X129532685Y-73118693D02*
X128780702Y-72492288D01*
X128685708Y-72004326D01*
X128791775Y-71491810D01*
X129773776Y-70886592D01*
X130750995Y-71558713D01*
X130837785Y-72037531D01*
X130751397Y-72515460D01*
X129532685Y-73118693D01*
X129532685Y-73118693D01*
X129532685Y-73118693D01*
G37*
G36*
X115639994Y-92244221D02*
X113372470Y-91107140D01*
X115801844Y-91695649D01*
X117242881Y-91721902D01*
X118662691Y-91632366D01*
X118662326Y-91632366D01*
X120159944Y-91271708D01*
X121592386Y-90683373D01*
X123812908Y-89237804D01*
X125630276Y-87241328D01*
X126905621Y-84856446D01*
X127592687Y-82169666D01*
X127666618Y-80718098D01*
X127592687Y-79262680D01*
X126983927Y-76738922D01*
X125872684Y-74467986D01*
X124271889Y-72476295D01*
X122339520Y-70930147D01*
X120142657Y-69863212D01*
X117776266Y-69321615D01*
X115308183Y-69343506D01*
X112997745Y-69919879D01*
X110884986Y-70992953D01*
X109056640Y-72505817D01*
X107599439Y-74401558D01*
X106693957Y-76261210D01*
X106153052Y-78223719D01*
X105973474Y-80300889D01*
X106161787Y-82432688D01*
X106722685Y-84458070D01*
X107650106Y-86355127D01*
X109213005Y-88382116D01*
X111148325Y-89984374D01*
X113372470Y-91107140D01*
X115639994Y-92244221D01*
X113525839Y-91789427D01*
X111483705Y-90931913D01*
X109618371Y-89715679D01*
X107801906Y-87914413D01*
X106696631Y-86258228D01*
X105856371Y-84479797D01*
X105256352Y-82123517D01*
X105155151Y-80653381D01*
X105186135Y-79180045D01*
X105789104Y-76480915D01*
X106974441Y-74034034D01*
X108701195Y-71923930D01*
X110719623Y-70365306D01*
X113016632Y-69307359D01*
X115570782Y-68759968D01*
X116996894Y-68734040D01*
X118428871Y-68834030D01*
X120758828Y-69451286D01*
X122894390Y-70509369D01*
X124771824Y-71959069D01*
X126327398Y-73751174D01*
X127497382Y-75836475D01*
X128256674Y-78197419D01*
X128498242Y-80646954D01*
X128204945Y-83332367D01*
X127291407Y-85861068D01*
X126365561Y-87436507D01*
X125170465Y-88853930D01*
X123171329Y-90493312D01*
X120876470Y-91626729D01*
X118340710Y-92227106D01*
X115639994Y-92244226D01*
X115639994Y-92244221D01*
X115639994Y-92244221D01*
G37*
G36*
X111739642Y-86500609D02*
X111047169Y-85849870D01*
X111968073Y-84039619D01*
X113333213Y-85196214D01*
X112631458Y-86472829D01*
X111739642Y-86500609D01*
X111739642Y-86500609D01*
G37*
G36*
X110692610Y-83403303D02*
X109926110Y-82263170D01*
X109519193Y-80021298D01*
X109630767Y-77577320D01*
X110227312Y-75281350D01*
X111260307Y-73320133D01*
X112446787Y-72032830D01*
X112383147Y-72355829D01*
X112061093Y-74031444D01*
X111981226Y-75805212D01*
X112104050Y-79349075D01*
X112115520Y-81102412D01*
X111967671Y-82170088D01*
X111071141Y-83418717D01*
X110692610Y-83403296D01*
X110692610Y-83403303D01*
X110692610Y-83403303D01*
G37*
G36*
X95970117Y-92991428D02*
X95790489Y-92242737D01*
X94925149Y-91562786D01*
X93961033Y-90697117D01*
X93948609Y-90319789D01*
X94214186Y-90135220D01*
X95008522Y-89434650D01*
X95537282Y-88918653D01*
X95699241Y-89060844D01*
X97615396Y-89375332D01*
X97959741Y-89281582D01*
X98906773Y-90510941D01*
X98060034Y-91671883D01*
X96044665Y-93402439D01*
X95970153Y-92991428D01*
X95970117Y-92991428D01*
X95970117Y-92991428D01*
G37*
G36*
X90830973Y-95105114D02*
X90478222Y-93101202D01*
X90090409Y-92682338D01*
X90330972Y-91745326D01*
X90743909Y-91570690D01*
X92307368Y-91175822D01*
X92540732Y-91091519D01*
X92696533Y-91411463D01*
X94190944Y-92494506D01*
X94584312Y-92586942D01*
X94898948Y-93818460D01*
X94866772Y-94118923D01*
X94304776Y-94371275D01*
X92803308Y-94927315D01*
X91251108Y-95258917D01*
X90754287Y-95325418D01*
X90830973Y-95105114D01*
X90830973Y-95105114D01*
X90830973Y-95105114D01*
G37*
G36*
X88520774Y-95321967D02*
X86775276Y-95021614D01*
X85677175Y-94693071D01*
X85932300Y-94404571D01*
X86497823Y-93456810D01*
X86264678Y-92419279D01*
X86168533Y-91945154D01*
X86766231Y-91320595D01*
X87019694Y-91167836D01*
X87474272Y-91307509D01*
X88344125Y-91521688D01*
X88759400Y-91596192D01*
X88759400Y-92111557D01*
X88905427Y-92935135D01*
X89578495Y-93740340D01*
X89889897Y-94240979D01*
X89582570Y-95130156D01*
X89429619Y-95372405D01*
X89186790Y-95366065D01*
X88520774Y-95321972D01*
X88520774Y-95321967D01*
X88520774Y-95321967D01*
G37*
G36*
X83862738Y-93857616D02*
X81731253Y-92273755D01*
X81456321Y-91949324D01*
X81724584Y-91821535D01*
X82453436Y-91433582D01*
X82907155Y-89976884D01*
X83937505Y-89389399D01*
X84237432Y-89366012D01*
X84583495Y-89674828D01*
X85229485Y-90194978D01*
X85547100Y-90419179D01*
X85413334Y-90604526D01*
X85141873Y-91032895D01*
X85021848Y-91825070D01*
X85194879Y-92692500D01*
X85367911Y-93154602D01*
X84776644Y-93928236D01*
X84406755Y-94126555D01*
X83862738Y-93857616D01*
X83862738Y-93857616D01*
G37*
G36*
X80171887Y-90496388D02*
X79368216Y-89169456D01*
X78773566Y-87879991D01*
X78674206Y-87608892D01*
X78779541Y-87642463D01*
X79334868Y-87699753D01*
X80040241Y-87598525D01*
X80795604Y-86733448D01*
X81062478Y-86375843D01*
X82259758Y-86522587D01*
X82601435Y-86889533D01*
X82942364Y-87589720D01*
X83184937Y-88028756D01*
X82852523Y-88193037D01*
X81802019Y-90102477D01*
X81700996Y-90525947D01*
X80781846Y-90881108D01*
X80453726Y-90903698D01*
X80171887Y-90496388D01*
X80171887Y-90496388D01*
G37*
G36*
X78640623Y-86461999D02*
X78171592Y-85509012D01*
X78073986Y-82960045D01*
X78245208Y-81672609D01*
X78485406Y-81864434D01*
X79289171Y-82316092D01*
X80361655Y-82055103D01*
X81148391Y-81826060D01*
X81924840Y-82560253D01*
X82086671Y-82798546D01*
X82035346Y-83333817D01*
X82026393Y-84395095D01*
X82068747Y-84921105D01*
X81630394Y-84921140D01*
X80963684Y-85026421D01*
X79870955Y-86184752D01*
X79230976Y-86556404D01*
X78640641Y-86461999D01*
X78640623Y-86461999D01*
X78640623Y-86461999D01*
G37*
G36*
X79511097Y-81152389D02*
X78770880Y-80620431D01*
X78796351Y-79697742D01*
X79690012Y-77838217D01*
X80158604Y-77192219D01*
X80334394Y-77483805D01*
X81049506Y-78297669D01*
X82171305Y-78391501D01*
X82678870Y-78467085D01*
X83110097Y-79343400D01*
X83207831Y-79764234D01*
X82995881Y-80137759D01*
X82783931Y-80530382D01*
X82664691Y-80809922D01*
X82545470Y-81070364D01*
X82316472Y-80902275D01*
X80038450Y-80997939D01*
X79511097Y-81152389D01*
X79511097Y-81152389D01*
G37*
G36*
X84176972Y-78146552D02*
X82050329Y-77305758D01*
X81673789Y-77306124D01*
X81046929Y-76203742D01*
X81020728Y-76012645D01*
X81575397Y-75477892D01*
X83465880Y-73994051D01*
X83902405Y-73731491D01*
X83916657Y-74204452D01*
X85175913Y-75783580D01*
X85674507Y-76638460D01*
X85324370Y-77572448D01*
X84713790Y-78051184D01*
X84313405Y-78388241D01*
X84176972Y-78146552D01*
X84176972Y-78146552D01*
G37*
G36*
X87102629Y-76367793D02*
X86530784Y-75289933D01*
X85660274Y-74793537D01*
X85333871Y-74722501D01*
X85127421Y-74503675D01*
X85029266Y-73893024D01*
X85097291Y-73294776D01*
X85575567Y-72957242D01*
X87628904Y-72396607D01*
X89826970Y-72230024D01*
X89980286Y-72258787D01*
X89796749Y-72527658D01*
X89396620Y-73469669D01*
X89956588Y-74762252D01*
X89771077Y-75974511D01*
X89570803Y-76210294D01*
X89118966Y-76243228D01*
X87187464Y-76623008D01*
X87102629Y-76367793D01*
X87102629Y-76367793D01*
G37*
G36*
X92012447Y-76635191D02*
X91355841Y-76432905D01*
X91229877Y-76406503D01*
X91328342Y-76164900D01*
X91320120Y-74862019D01*
X90818767Y-74093428D01*
X90586737Y-73502932D01*
X91084783Y-72660167D01*
X91355439Y-72372226D01*
X91889589Y-72476328D01*
X93014074Y-72768276D01*
X94504082Y-73356563D01*
X94260942Y-73512426D01*
X93414166Y-74315775D01*
X93391108Y-75466847D01*
X93489061Y-76015110D01*
X93335672Y-76380055D01*
X92582811Y-76817077D01*
X92012483Y-76635191D01*
X92012447Y-76635191D01*
X92012447Y-76635191D01*
G37*
G36*
X95611575Y-79138542D02*
X94417913Y-77932421D01*
X94045302Y-77638918D01*
X94210805Y-77455713D01*
X94477953Y-75347824D01*
X94355224Y-75074345D01*
X94456393Y-74865362D01*
X95571633Y-74075409D01*
X95745889Y-74013925D01*
X96174776Y-74316480D01*
X97590389Y-75484645D01*
X98750442Y-76778162D01*
X98939132Y-77030721D01*
X98486601Y-77056865D01*
X97369644Y-77406588D01*
X96875600Y-78388649D01*
X96440554Y-79116070D01*
X95611575Y-79138542D01*
X95611575Y-79138542D01*
X95611575Y-79138542D01*
G37*
G36*
X97789524Y-84019038D02*
X97478049Y-83835177D01*
X97272713Y-83423840D01*
X96670100Y-80900554D01*
X96534433Y-80561330D01*
X96661329Y-80493767D01*
X97425335Y-79951558D01*
X97872531Y-78909550D01*
X98224605Y-78250371D01*
X98979987Y-78140072D01*
X99619893Y-78201586D01*
X99994770Y-78823288D01*
X100766154Y-80923294D01*
X101099924Y-83121434D01*
X101127277Y-83779712D01*
X100812696Y-83588049D01*
X98699428Y-83685708D01*
X98302424Y-84014462D01*
X97789524Y-84019030D01*
X97789524Y-84019038D01*
X97789524Y-84019038D01*
G37*
G36*
X99482747Y-89141107D02*
X97574102Y-88263737D01*
X96997014Y-88335915D01*
X96490545Y-87809457D01*
X96399955Y-87631891D01*
X96600101Y-87176279D01*
X97135128Y-85560246D01*
X97190583Y-85276532D01*
X97335165Y-85317996D01*
X99269390Y-84629371D01*
X99558939Y-84378757D01*
X100836138Y-84945589D01*
X101069977Y-85154643D01*
X100991245Y-85637728D01*
X100426892Y-87799708D01*
X99667746Y-89420009D01*
X99482747Y-89141107D01*
X99482747Y-89141107D01*
G37*
G36*
X89013192Y-90726101D02*
X90346905Y-90039566D01*
X90583887Y-88446867D01*
X90214272Y-86713032D01*
X90125436Y-86512215D01*
X89965468Y-86588497D01*
X89328595Y-86473342D01*
X88800786Y-86282108D01*
X88528649Y-86616847D01*
X87012002Y-88575643D01*
X86573649Y-89160815D01*
X87765207Y-89451016D01*
X89359255Y-89988819D01*
X90346905Y-90039566D01*
X89013192Y-90726101D01*
X90871590Y-89927578D01*
X91328963Y-89655078D01*
X91328982Y-89655078D01*
X93396735Y-88594158D01*
X94194105Y-88083143D01*
X93827468Y-87043381D01*
X91820742Y-85519464D01*
X91642211Y-85645075D01*
X91084088Y-86003504D01*
X90582498Y-86279238D01*
X90693991Y-87066738D01*
X90879995Y-89362332D01*
X90871590Y-89927578D01*
X89013192Y-90726101D01*
X86891156Y-90104125D01*
X86189436Y-88648903D01*
X87660824Y-87112879D01*
X88144198Y-86172002D01*
X88006778Y-86032402D01*
X87641858Y-85473646D01*
X87420773Y-84954862D01*
X86539847Y-85092202D01*
X84710409Y-85243015D01*
X83752962Y-85254051D01*
X84004964Y-85650673D01*
X85096615Y-87732660D01*
X86189436Y-88648903D01*
X86891156Y-90104125D01*
X85042933Y-88777549D01*
X83840680Y-87184140D01*
X83594165Y-84565033D01*
X84214282Y-84856121D01*
X85932629Y-84779749D01*
X87044653Y-84439398D01*
X87022599Y-84244225D01*
X87155105Y-83586112D01*
X87357407Y-83075402D01*
X87250866Y-82996487D01*
X86382986Y-82353560D01*
X84681376Y-80821104D01*
X84519417Y-80659605D01*
X84403740Y-81202067D01*
X83735002Y-83456135D01*
X83594165Y-84565033D01*
X83840680Y-87184140D01*
X83140610Y-85275608D01*
X87601350Y-84829570D01*
X87942992Y-85606505D01*
X88743376Y-85918205D01*
X89589897Y-86233303D01*
X90451400Y-85886402D01*
X91266767Y-85536102D01*
X91593426Y-84735964D01*
X91920797Y-83897824D01*
X91229146Y-82301785D01*
X89566820Y-81667991D01*
X88703362Y-82002410D01*
X87909098Y-82337121D01*
X87584394Y-83130999D01*
X87259691Y-83988756D01*
X87601350Y-84829570D01*
X83140610Y-85275608D01*
X83038984Y-83859825D01*
X83145653Y-82406333D01*
X83820830Y-80580351D01*
X85756309Y-79420691D01*
X84806463Y-80413062D01*
X85610792Y-81383895D01*
X86957333Y-82319384D01*
X87514688Y-82354685D01*
X88037455Y-81980067D01*
X88543705Y-81735927D01*
X88418326Y-81014658D01*
X88120171Y-78772672D01*
X88046080Y-78115140D01*
X87538515Y-78408320D01*
X85756309Y-79420691D01*
X83820830Y-80580351D01*
X84995902Y-79036789D01*
X86184105Y-78074125D01*
X89557903Y-77757858D01*
X89157903Y-77870903D01*
X88960972Y-78211606D01*
X88960972Y-80376066D01*
X89245113Y-81322928D01*
X89439979Y-81298051D01*
X90074166Y-81477810D01*
X90564574Y-81712280D01*
X90907439Y-81264309D01*
X90907677Y-81264309D01*
X91932091Y-79993351D01*
X92809506Y-79156649D01*
X93011699Y-78960592D01*
X92486155Y-78806489D01*
X90486445Y-78068639D01*
X89557903Y-77757858D01*
X86184105Y-78074125D01*
X87542151Y-77449448D01*
X89613047Y-77132751D01*
X91063140Y-77284791D01*
X93683617Y-79358973D01*
X92943729Y-79454871D01*
X91928510Y-80453995D01*
X91168302Y-81654030D01*
X91092274Y-81847646D01*
X91251072Y-81905070D01*
X91785533Y-82902373D01*
X91863570Y-83006193D01*
X92706820Y-82881170D01*
X92706820Y-82881165D01*
X94492552Y-82755343D01*
X95473076Y-82741439D01*
X95245559Y-82365297D01*
X94320398Y-80537564D01*
X93683617Y-79358973D01*
X91063140Y-77284791D01*
X92450799Y-77789614D01*
X94152181Y-78966601D01*
X95417278Y-80602868D01*
X96168345Y-82597857D01*
X94640990Y-87135950D01*
X95366571Y-84970724D01*
X95416106Y-83415918D01*
X93395511Y-83284937D01*
X92217673Y-83579019D01*
X92211095Y-83773360D01*
X92097008Y-84323727D01*
X91871171Y-84839718D01*
X92509798Y-85485605D01*
X94272947Y-87153401D01*
X94554036Y-87445532D01*
X94640936Y-87135950D01*
X94640990Y-87135950D01*
X96168345Y-82597857D01*
X96260890Y-84874962D01*
X95693632Y-86877535D01*
X94582613Y-88583979D01*
X93011516Y-89866705D01*
X91413636Y-90535978D01*
X89705318Y-90750488D01*
X89013192Y-90726101D01*
X89013192Y-90726101D01*
G37*
G36*
X75019368Y-68262027D02*
X73876865Y-67376397D01*
X73718380Y-65952115D01*
X75030989Y-64637556D01*
X76506653Y-64730389D01*
X77561469Y-66686399D01*
X76650653Y-68026908D01*
X75019368Y-68262027D01*
X75019368Y-68262027D01*
G37*
G36*
X76437769Y-70547500D02*
X76195525Y-70288485D01*
X76129200Y-69657073D01*
X77447610Y-68529054D01*
X78891272Y-67355771D01*
X79172361Y-67275020D01*
X79735307Y-68229083D01*
X78274826Y-69463399D01*
X76705977Y-70595582D01*
X76437769Y-70547500D01*
X76437769Y-70547500D01*
G37*
G36*
X77866001Y-72106073D02*
X77577621Y-71847876D01*
X77511021Y-71182898D01*
X78715534Y-70154195D01*
X80250126Y-68899855D01*
X80881225Y-68966990D01*
X81097542Y-69757616D01*
X79671416Y-70982638D01*
X78219884Y-72121695D01*
X77866001Y-72106073D01*
X77866001Y-72106073D01*
G37*
G36*
X79263371Y-73701946D02*
X78755806Y-73032585D01*
X78955083Y-72651808D01*
X80660432Y-71228058D01*
X81874721Y-70366272D01*
X82376531Y-70673665D01*
X82495607Y-71284939D01*
X81061389Y-72509055D01*
X79562970Y-73688668D01*
X79263371Y-73701951D01*
X79263371Y-73701946D01*
X79263371Y-73701946D01*
G37*
G36*
X130684779Y-87045998D02*
X130089657Y-85989071D01*
X130403434Y-85288098D01*
X131121176Y-84974329D01*
X132074329Y-85529060D01*
X131609209Y-87058017D01*
X130684779Y-87045994D01*
X130684779Y-87045998D01*
X130684779Y-87045998D01*
G37*
G36*
X85563726Y-64175077D02*
X87086422Y-62583157D01*
X88175049Y-61468898D01*
X89858399Y-59852196D01*
X91008552Y-58245748D01*
X92139043Y-56276997D01*
X94053958Y-54062153D01*
X96061165Y-52847066D01*
X98105849Y-52953770D01*
X98783568Y-53285417D01*
X99481473Y-52526949D01*
X100352415Y-50955221D01*
X101056095Y-49444048D01*
X102105848Y-48348159D01*
X104274552Y-47656020D01*
X104828251Y-48394303D01*
X107181533Y-48578874D01*
X108641859Y-48541278D01*
X111266003Y-48293476D01*
X112833995Y-48809589D01*
X112926284Y-50332293D01*
X113824219Y-50356656D01*
X116111968Y-50460753D01*
X119180450Y-50691097D01*
X122420583Y-51094198D01*
X125223286Y-51716570D01*
X127719049Y-52391359D01*
X130305618Y-52895606D01*
X132774800Y-53191657D01*
X134918398Y-53241861D01*
X136528218Y-53008565D01*
X138727688Y-52965838D01*
X140650300Y-54081806D01*
X141650061Y-56284687D01*
X141642123Y-58983310D01*
X141309750Y-62265924D01*
X140916817Y-65038085D01*
X140727201Y-66205348D01*
X155769685Y-65282495D01*
X156798496Y-64896264D01*
X158463051Y-64038354D01*
X158630528Y-63159935D01*
X156554113Y-61902551D01*
X155861973Y-60575951D01*
X156293121Y-58877327D01*
X156542578Y-55984762D01*
X156290235Y-53334444D01*
X155215979Y-52362564D01*
X153671639Y-51519021D01*
X152343594Y-49213334D01*
X151413530Y-46821128D01*
X151063134Y-45718031D01*
X150300603Y-44250229D01*
X148747746Y-41238431D01*
X147506672Y-38770047D01*
X146504903Y-37275287D01*
X144802653Y-35352289D01*
X142739454Y-33465998D01*
X140654842Y-32081359D01*
X138338781Y-31265665D01*
X135634248Y-30743620D01*
X132960303Y-30466284D01*
X130736010Y-30384715D01*
X127522182Y-30449971D01*
X126168128Y-30515227D01*
X126351658Y-30923073D01*
X128321557Y-31330919D01*
X131335547Y-31371705D01*
X132856823Y-31559313D01*
X135108134Y-31755080D01*
X136845558Y-31836650D01*
X137946748Y-31918220D01*
X138305655Y-33158073D01*
X137228933Y-32929679D01*
X135401775Y-33647489D01*
X132424495Y-32901130D01*
X130474986Y-32277123D01*
X137163681Y-36290337D01*
X133933531Y-36159825D01*
X132240965Y-35213621D01*
X129691919Y-34071650D01*
X129822436Y-35054561D01*
X131323312Y-36942892D01*
X133207569Y-37962510D01*
X135336529Y-38248003D01*
X136706898Y-38737419D01*
X138281183Y-39789662D01*
X139414992Y-40401431D01*
X138277101Y-40499315D01*
X136478503Y-40401431D01*
X135471123Y-39989512D01*
X134390320Y-40434095D01*
X133052588Y-42163364D01*
X132453053Y-42791448D01*
X130997042Y-42685407D01*
X129300402Y-41086650D01*
X128876229Y-41249792D01*
X127571126Y-41021397D01*
X127375361Y-42391759D01*
X125221919Y-40956138D01*
X125434001Y-42024697D01*
X124471489Y-42848549D01*
X122864571Y-41869716D01*
X120915061Y-40988768D01*
X118720850Y-40597234D01*
X117848053Y-39520518D01*
X116632670Y-38337762D01*
X114095867Y-37987014D01*
X110971758Y-37905445D01*
X109364836Y-37823876D01*
X111011009Y-37681130D01*
X114630142Y-37318146D01*
X118243155Y-36832808D01*
X119870970Y-36322999D01*
X119838374Y-35246283D01*
X121067351Y-35687362D01*
X123492676Y-36512724D01*
X125221940Y-36975555D01*
X126983845Y-37236576D01*
X127730205Y-37314066D01*
X127473265Y-36681905D01*
X125071046Y-35678602D01*
X122742233Y-34724240D01*
X121157977Y-33722448D01*
X118855907Y-32822163D01*
X116575594Y-32733947D01*
X114250874Y-33676074D01*
X113443340Y-34202196D01*
X112406298Y-34568671D01*
X109908053Y-35458234D01*
X106867924Y-36556092D01*
X104205234Y-37547454D01*
X102839304Y-38117526D01*
X100326968Y-39324752D01*
X100196469Y-40988768D01*
X99804932Y-41608692D01*
X100718512Y-43207456D01*
X98956606Y-46502859D01*
X96020110Y-49341472D01*
X95922227Y-48101616D01*
X94323471Y-48852053D01*
X93801435Y-48623658D01*
X94095076Y-47579573D01*
X97162084Y-45458767D01*
X97977781Y-43631616D01*
X96933689Y-43762128D01*
X95139167Y-45915557D01*
X93540404Y-46404969D01*
X94519229Y-44479935D01*
X94682378Y-43240079D01*
X96705294Y-41054020D01*
X97977781Y-38867963D01*
X97291188Y-38849106D01*
X95531261Y-38994956D01*
X93147775Y-39609147D01*
X90590505Y-40995310D01*
X88309228Y-43457079D01*
X86569969Y-46399151D01*
X85290767Y-48990886D01*
X84399376Y-51182915D01*
X83823555Y-52925869D01*
X83491060Y-54170379D01*
X83001646Y-55663098D01*
X82708000Y-57302640D01*
X82869914Y-59693709D01*
X83371970Y-61544977D01*
X84588985Y-63275328D01*
X85563746Y-64175112D01*
X85563726Y-64175077D01*
X85563726Y-64175077D01*
G37*
D11*
X154294844Y-64594750D02*
X153296709Y-64655799D01*
X153400492Y-66352628D02*
X154398627Y-66291579D01*
X144997176Y-66921061D02*
X143999041Y-66982110D01*
X144102824Y-68678939D02*
X145100959Y-68617890D01*
X134457658Y-70350910D02*
X133474403Y-70533145D01*
X133784204Y-72204678D02*
X134767459Y-72022443D01*
X128050000Y-76100000D02*
X129050000Y-76100000D01*
X129050000Y-74400000D02*
X128050000Y-74400000D01*
X119498096Y-86683904D02*
X118678944Y-87257480D01*
X119654024Y-88650038D02*
X120473176Y-88076462D01*
X107720608Y-93729744D02*
X108486653Y-94372532D01*
X109579392Y-93070256D02*
X108813347Y-92427468D01*
X117950000Y-84700000D02*
X118950000Y-84700000D01*
X118950000Y-83000000D02*
X117950000Y-83000000D01*
X124929392Y-66970256D02*
X124163347Y-66327468D01*
X123070608Y-67629744D02*
X123836653Y-68272532D01*
X105450000Y-83900000D02*
X104450000Y-83900000D01*
X104450000Y-85600000D02*
X105450000Y-85600000D01*
X88550000Y-79000000D02*
X87550000Y-79000000D01*
X87550000Y-80700000D02*
X88550000Y-80700000D01*
X78649766Y-63996349D02*
X79279086Y-64773495D01*
X80600234Y-63703651D02*
X79970914Y-62926505D01*
D12*
X156638832Y-91694731D02*
G75*
G03X153761095Y-93175012I-908980J-1770269D01*
G01*
X157717440Y-93562934D02*
G75*
G02X154996611Y-95314988I-1987588J97934D01*
G01*
X156091578Y-92009270D02*
G75*
G03X154288354Y-93050173I-361726J-1455730D01*
G01*
X157171416Y-93879601D02*
G75*
G02X155368354Y-94920788I-1441564J414601D01*
G01*
X153760853Y-93174593D02*
X153838853Y-93309693D01*
X154918853Y-95180307D02*
X154996853Y-95315407D01*
D13*
X89527243Y-46297520D02*
G75*
G03X89527243Y-46297520I-120000J0D01*
G01*
D14*
X87416968Y-42284777D02*
X83716968Y-48693365D01*
X84470410Y-49128365D02*
X83716968Y-48693365D01*
X88414595Y-50556836D02*
X88047095Y-51193365D01*
X88047095Y-51193365D02*
X86462269Y-50278365D01*
X88161750Y-42714777D02*
X87416968Y-42284777D01*
X91747095Y-44784777D02*
X90153609Y-43864777D01*
X91377095Y-45425635D02*
X91747095Y-44784777D01*
D12*
X102080000Y-55550000D02*
X99420000Y-55550000D01*
X102080000Y-63230000D02*
X102080000Y-55550000D01*
X99420000Y-63230000D02*
X99420000Y-55550000D01*
X102080000Y-63230000D02*
X99420000Y-63230000D01*
X102080000Y-64500000D02*
X102080000Y-65830000D01*
X102080000Y-65830000D02*
X100750000Y-65830000D01*
X106048419Y-35070991D02*
X106870404Y-37600801D01*
X108521166Y-34267546D02*
X106048419Y-35070991D01*
X109343151Y-36797357D02*
X106870404Y-37600801D01*
X108521166Y-34267546D02*
X109343151Y-36797357D01*
X109729007Y-33875095D02*
X110993913Y-33464102D01*
X110993913Y-33464102D02*
X111404905Y-34729007D01*
X153859499Y-95670400D02*
G75*
G03X148280412Y-97107138I-2589647J-1494600D01*
G01*
X153859037Y-95669600D02*
G75*
G02X149825242Y-99782862I-2589185J-1495400D01*
G01*
X153769852Y-97165000D02*
G75*
G03X153769852Y-97165000I-2500000J0D01*
G01*
X148280327Y-97106991D02*
X149825327Y-99783009D01*
D11*
X151833751Y-90647228D02*
X152872981Y-90047228D01*
X153747981Y-91562772D02*
X152708751Y-92162772D01*
X147362885Y-93262228D02*
X148402115Y-92662228D01*
X149277115Y-94177772D02*
X148237885Y-94777772D01*
D14*
X116890000Y-127090000D02*
G75*
G03X116890000Y-127090000I-1000000J0D01*
G01*
X113290000Y-128190000D02*
X113290000Y-125990000D01*
X118490000Y-128190000D02*
X118490000Y-125990000D01*
X113290000Y-128190000D02*
X113390000Y-128190000D01*
X113390000Y-125990000D02*
X113290000Y-125990000D01*
X118390000Y-128190000D02*
X118490000Y-128190000D01*
X118390000Y-125990000D02*
X118490000Y-125990000D01*
D10*
X118767000Y-131340000D02*
G75*
G03X118767000Y-131340000I-127000J0D01*
G01*
D14*
X127340000Y-122140000D02*
G75*
G03X127340000Y-122140000I-1000000J0D01*
G01*
X123740000Y-123240000D02*
X123740000Y-121040000D01*
X128940000Y-123240000D02*
X128940000Y-121040000D01*
X123740000Y-123240000D02*
X123840000Y-123240000D01*
X123840000Y-121040000D02*
X123740000Y-121040000D01*
X128840000Y-123240000D02*
X128940000Y-123240000D01*
X128840000Y-121040000D02*
X128940000Y-121040000D01*
D10*
X129217000Y-126390000D02*
G75*
G03X129217000Y-126390000I-127000J0D01*
G01*
D14*
X106900000Y-122150000D02*
G75*
G03X106900000Y-122150000I-1000000J0D01*
G01*
X103300000Y-123250000D02*
X103300000Y-121050000D01*
X108500000Y-123250000D02*
X108500000Y-121050000D01*
X103300000Y-123250000D02*
X103400000Y-123250000D01*
X103400000Y-121050000D02*
X103300000Y-121050000D01*
X108400000Y-123250000D02*
X108500000Y-123250000D01*
X108400000Y-121050000D02*
X108500000Y-121050000D01*
D10*
X108777000Y-126400000D02*
G75*
G03X108777000Y-126400000I-127000J0D01*
G01*
D11*
X142597802Y-69168519D02*
X149584746Y-68741180D01*
X142915254Y-74358820D02*
X149902198Y-73931481D01*
X149902198Y-73931481D02*
X149841149Y-72933346D01*
X132324795Y-72871362D02*
X139207580Y-71595713D01*
X133272420Y-77984287D02*
X140155205Y-76708638D01*
X140155205Y-76708638D02*
X139972969Y-75725384D01*
X130600000Y-76500000D02*
X130600000Y-83500000D01*
X125400000Y-76500000D02*
X125400000Y-83500000D01*
X125400000Y-83500000D02*
X126400000Y-83500000D01*
X118641669Y-89877722D02*
X124375733Y-85862687D01*
X121624267Y-94137313D02*
X127358331Y-90122278D01*
X127358331Y-90122278D02*
X126784754Y-89303126D01*
X111009908Y-93741472D02*
X105647597Y-89241959D01*
X114352403Y-89758041D02*
X108990092Y-85258528D01*
X108990092Y-85258528D02*
X108347305Y-86024572D01*
X120500000Y-82600000D02*
X113500000Y-82600000D01*
X120500000Y-77400000D02*
X113500000Y-77400000D01*
X113500000Y-77400000D02*
X113500000Y-78400000D01*
X121603441Y-66925888D02*
X126965752Y-71425401D01*
X118260946Y-70909319D02*
X123623257Y-75408832D01*
X123623257Y-75408832D02*
X124266044Y-74642788D01*
X106141669Y-70877722D02*
X111875733Y-66862687D01*
X109124267Y-75137313D02*
X114858331Y-71122278D01*
X114858331Y-71122278D02*
X114284754Y-70303126D01*
X102900000Y-83500000D02*
X102900000Y-76500000D01*
X108100000Y-83500000D02*
X108100000Y-76500000D01*
X108100000Y-76500000D02*
X107100000Y-76500000D01*
X86025000Y-81125000D02*
X93025000Y-81125000D01*
X86025000Y-86325000D02*
X93025000Y-86325000D01*
X93025000Y-86325000D02*
X93025000Y-85325000D01*
X105599800Y-67608034D02*
X105588106Y-67674354D01*
X105498398Y-67795301D01*
X105420383Y-67849927D01*
X105276048Y-67892860D01*
X105143407Y-67869472D01*
X105049774Y-67818771D01*
X104901514Y-67690055D01*
X104819574Y-67573033D01*
X104749328Y-67389691D01*
X104733709Y-67284363D01*
X104757098Y-67151722D01*
X104846807Y-67030775D01*
X104924821Y-66976149D01*
X105069156Y-66933217D01*
X105135476Y-66944911D01*
X106434571Y-67139785D02*
X105966484Y-67467543D01*
X106200527Y-67303665D02*
X105626951Y-66484512D01*
X105630876Y-66656160D01*
X105607488Y-66788801D01*
X105556786Y-66882435D01*
X106602133Y-65801683D02*
X106212060Y-66074815D01*
X106446184Y-66492200D01*
X106457878Y-66425880D01*
X106508579Y-66332246D01*
X106703616Y-66195680D01*
X106808944Y-66180061D01*
X106875264Y-66191755D01*
X106968898Y-66242457D01*
X107105464Y-66437493D01*
X107121083Y-66542821D01*
X107109389Y-66609141D01*
X107058687Y-66702774D01*
X106863651Y-66839341D01*
X106758323Y-66854960D01*
X106692003Y-66843266D01*
X76485813Y-69613590D02*
X76995263Y-70242708D01*
X77092205Y-70286754D01*
X77159179Y-70293793D01*
X77263161Y-70270865D01*
X77411189Y-70150994D01*
X77455235Y-70054052D01*
X77462275Y-69987077D01*
X77439346Y-69883096D01*
X76929896Y-69253978D01*
X78336363Y-69401803D02*
X77892279Y-69761415D01*
X78114321Y-69581609D02*
X77485000Y-68804463D01*
X77500889Y-68975419D01*
X77486810Y-69109368D01*
X77442764Y-69206311D01*
X78373168Y-68085240D02*
X78225139Y-68205111D01*
X78181093Y-68302053D01*
X78174054Y-68369027D01*
X78189943Y-68539983D01*
X78272806Y-68717979D01*
X78512548Y-69014035D01*
X78609490Y-69058081D01*
X78676464Y-69065120D01*
X78780446Y-69042192D01*
X78928474Y-68922321D01*
X78972520Y-68825379D01*
X78979560Y-68758404D01*
X78956631Y-68654423D01*
X78806793Y-68469388D01*
X78709851Y-68425341D01*
X78642876Y-68418302D01*
X78538895Y-68441230D01*
X78390866Y-68561101D01*
X78346820Y-68658043D01*
X78339781Y-68725018D01*
X78362710Y-68829000D01*
X154540416Y-65225003D02*
X154589836Y-66033017D01*
X154643180Y-66125170D01*
X154693618Y-66169793D01*
X154791585Y-66211509D01*
X154981707Y-66199881D01*
X155073860Y-66146536D01*
X155118483Y-66096099D01*
X155160199Y-65998132D01*
X155110779Y-65190118D01*
X156061384Y-65131976D02*
X155586081Y-65161047D01*
X155567621Y-65639256D01*
X155612244Y-65588819D01*
X155704398Y-65535474D01*
X155942050Y-65520939D01*
X156040017Y-65562655D01*
X156090454Y-65607278D01*
X156143799Y-65699432D01*
X156158334Y-65937083D01*
X156116618Y-66035051D01*
X156071995Y-66085488D01*
X155979842Y-66138832D01*
X155742190Y-66153368D01*
X155644222Y-66111652D01*
X155593785Y-66067029D01*
X153574914Y-63744258D02*
X153530291Y-63794695D01*
X153390607Y-63850946D01*
X153295547Y-63856760D01*
X153150048Y-63817951D01*
X153049174Y-63728705D01*
X152995830Y-63636552D01*
X152936671Y-63449338D01*
X152927950Y-63306747D01*
X152963852Y-63113719D01*
X153005568Y-63015752D01*
X153094814Y-62914877D01*
X153234498Y-62858626D01*
X153329559Y-62852811D01*
X153475056Y-62891620D01*
X153525494Y-62936243D01*
X153852391Y-62820834D02*
X154517814Y-62780135D01*
X154151090Y-63804433D01*
X144277246Y-66070569D02*
X144232623Y-66121006D01*
X144092939Y-66177257D01*
X143997879Y-66183071D01*
X143852380Y-66144262D01*
X143751506Y-66055016D01*
X143698162Y-65962863D01*
X143639003Y-65775649D01*
X143630282Y-65633058D01*
X143666184Y-65440030D01*
X143707900Y-65342063D01*
X143797146Y-65241188D01*
X143936830Y-65184937D01*
X144031891Y-65179122D01*
X144177388Y-65217931D01*
X144227826Y-65262554D01*
X144818537Y-65560381D02*
X144720570Y-65518665D01*
X144670133Y-65474042D01*
X144616788Y-65381888D01*
X144613881Y-65334358D01*
X144655597Y-65236391D01*
X144700220Y-65185954D01*
X144792374Y-65132609D01*
X144982495Y-65120981D01*
X145080463Y-65162697D01*
X145130900Y-65207320D01*
X145184244Y-65299473D01*
X145187151Y-65347004D01*
X145145435Y-65444971D01*
X145100812Y-65495408D01*
X145008659Y-65548753D01*
X144818537Y-65560381D01*
X144726384Y-65613725D01*
X144681761Y-65664162D01*
X144640045Y-65762131D01*
X144651673Y-65952252D01*
X144705018Y-66044405D01*
X144755455Y-66089028D01*
X144853422Y-66130744D01*
X145043544Y-66119116D01*
X145135697Y-66065771D01*
X145180320Y-66015334D01*
X145222036Y-65917367D01*
X145210408Y-65727246D01*
X145157064Y-65635092D01*
X145106626Y-65590469D01*
X145008659Y-65548753D01*
X135147171Y-69772717D02*
X135109027Y-69828217D01*
X134977240Y-69901072D01*
X134883597Y-69918428D01*
X134734453Y-69897640D01*
X134623454Y-69821352D01*
X134559277Y-69736387D01*
X134477744Y-69557778D01*
X134451710Y-69417312D01*
X134463820Y-69221348D01*
X134493286Y-69119027D01*
X134569574Y-69008028D01*
X134701362Y-68935173D01*
X134795005Y-68917817D01*
X134944147Y-68938605D01*
X134999647Y-68976749D01*
X135632743Y-69779582D02*
X135820029Y-69744870D01*
X135904996Y-69680693D01*
X135943139Y-69625193D01*
X136010749Y-69467372D01*
X136022859Y-69271408D01*
X135953436Y-68896834D01*
X135889259Y-68811869D01*
X135833759Y-68773725D01*
X135731438Y-68744259D01*
X135544151Y-68778971D01*
X135459185Y-68843148D01*
X135421041Y-68898648D01*
X135391576Y-69000969D01*
X135434965Y-69235077D01*
X135499142Y-69320042D01*
X135554642Y-69358187D01*
X135656963Y-69387653D01*
X135844251Y-69352941D01*
X135929216Y-69288764D01*
X135967359Y-69233263D01*
X135996825Y-69130942D01*
X127257143Y-74057143D02*
X127209524Y-74104762D01*
X127066667Y-74152381D01*
X126971429Y-74152381D01*
X126828571Y-74104762D01*
X126733333Y-74009524D01*
X126685714Y-73914286D01*
X126638095Y-73723810D01*
X126638095Y-73580952D01*
X126685714Y-73390476D01*
X126733333Y-73295238D01*
X126828571Y-73200000D01*
X126971429Y-73152381D01*
X127066667Y-73152381D01*
X127209524Y-73200000D01*
X127257143Y-73247619D01*
X128209524Y-74152381D02*
X127638095Y-74152381D01*
X127923809Y-74152381D02*
X127923809Y-73152381D01*
X127828571Y-73295238D01*
X127733333Y-73390476D01*
X127638095Y-73438095D01*
X128828571Y-73152381D02*
X128923810Y-73152381D01*
X129019048Y-73200000D01*
X129066667Y-73247619D01*
X129114286Y-73342857D01*
X129161905Y-73533333D01*
X129161905Y-73771429D01*
X129114286Y-73961905D01*
X129066667Y-74057143D01*
X129019048Y-74104762D01*
X128923810Y-74152381D01*
X128828571Y-74152381D01*
X128733333Y-74104762D01*
X128685714Y-74057143D01*
X128638095Y-73961905D01*
X128590476Y-73771429D01*
X128590476Y-73533333D01*
X128638095Y-73342857D01*
X128685714Y-73247619D01*
X128733333Y-73200000D01*
X128828571Y-73152381D01*
X122378251Y-86211282D02*
X122366557Y-86277602D01*
X122276849Y-86398549D01*
X122198834Y-86453175D01*
X122054499Y-86496108D01*
X121921858Y-86472720D01*
X121828225Y-86422019D01*
X121679965Y-86293303D01*
X121598025Y-86176281D01*
X121527779Y-85992939D01*
X121512160Y-85887611D01*
X121535549Y-85754970D01*
X121625258Y-85634023D01*
X121703272Y-85579397D01*
X121847607Y-85536465D01*
X121913927Y-85548159D01*
X123213022Y-85743033D02*
X122744935Y-86070791D01*
X122978978Y-85906913D02*
X122405402Y-85087760D01*
X122409327Y-85259408D01*
X122385939Y-85392049D01*
X122335237Y-85485683D01*
X123993167Y-85196770D02*
X123525080Y-85524528D01*
X123759123Y-85360649D02*
X123185547Y-84541497D01*
X123189472Y-84713145D01*
X123166084Y-84845786D01*
X123115382Y-84939419D01*
X106173931Y-92161522D02*
X106179800Y-92228609D01*
X106124452Y-92368653D01*
X106063234Y-92441610D01*
X105934928Y-92520436D01*
X105800754Y-92532175D01*
X105697189Y-92507435D01*
X105520667Y-92421478D01*
X105411231Y-92329651D01*
X105295927Y-92170737D01*
X105253579Y-92073041D01*
X105241840Y-91938866D01*
X105297190Y-91798822D01*
X105358407Y-91725865D01*
X105486712Y-91647039D01*
X105553800Y-91641170D01*
X106859066Y-91493174D02*
X106491759Y-91930914D01*
X106675412Y-91712044D02*
X105909368Y-91069257D01*
X105957585Y-91234040D01*
X105969323Y-91368214D01*
X105944584Y-91471780D01*
X106410849Y-90619778D02*
X106404980Y-90552691D01*
X106429720Y-90449125D01*
X106582765Y-90266733D01*
X106680461Y-90224385D01*
X106747548Y-90218516D01*
X106851113Y-90243256D01*
X106924070Y-90304473D01*
X107002896Y-90432778D01*
X107073328Y-91237826D01*
X107471245Y-90763608D01*
X121607143Y-84157143D02*
X121559524Y-84204762D01*
X121416667Y-84252381D01*
X121321429Y-84252381D01*
X121178571Y-84204762D01*
X121083333Y-84109524D01*
X121035714Y-84014286D01*
X120988095Y-83823810D01*
X120988095Y-83680952D01*
X121035714Y-83490476D01*
X121083333Y-83395238D01*
X121178571Y-83300000D01*
X121321429Y-83252381D01*
X121416667Y-83252381D01*
X121559524Y-83300000D01*
X121607143Y-83347619D01*
X122559524Y-84252381D02*
X121988095Y-84252381D01*
X122273809Y-84252381D02*
X122273809Y-83252381D01*
X122178571Y-83395238D01*
X122083333Y-83490476D01*
X121988095Y-83538095D01*
X122892857Y-83252381D02*
X123511905Y-83252381D01*
X123178571Y-83633333D01*
X123321429Y-83633333D01*
X123416667Y-83680952D01*
X123464286Y-83728571D01*
X123511905Y-83823810D01*
X123511905Y-84061905D01*
X123464286Y-84157143D01*
X123416667Y-84204762D01*
X123321429Y-84252381D01*
X123035714Y-84252381D01*
X122940476Y-84204762D01*
X122892857Y-84157143D01*
X126127976Y-69610367D02*
X126060889Y-69616236D01*
X125920845Y-69560888D01*
X125847888Y-69499670D01*
X125769062Y-69371364D01*
X125757323Y-69237190D01*
X125782063Y-69133625D01*
X125868020Y-68957103D01*
X125959847Y-68847667D01*
X126118761Y-68732363D01*
X126216457Y-68690015D01*
X126350632Y-68678276D01*
X126490676Y-68733626D01*
X126563633Y-68794843D01*
X126642459Y-68923148D01*
X126648328Y-68990236D01*
X126796324Y-70295502D02*
X126358584Y-69928195D01*
X126577454Y-70111848D02*
X127220241Y-69345804D01*
X127055458Y-69394021D01*
X126921284Y-69405759D01*
X126817718Y-69381020D01*
X127881459Y-70335766D02*
X127452934Y-70846463D01*
X127943938Y-69890895D02*
X127302413Y-70285025D01*
X127776631Y-70682942D01*
X103207143Y-86807143D02*
X103159524Y-86854762D01*
X103016667Y-86902381D01*
X102921429Y-86902381D01*
X102778571Y-86854762D01*
X102683333Y-86759524D01*
X102635714Y-86664286D01*
X102588095Y-86473810D01*
X102588095Y-86330952D01*
X102635714Y-86140476D01*
X102683333Y-86045238D01*
X102778571Y-85950000D01*
X102921429Y-85902381D01*
X103016667Y-85902381D01*
X103159524Y-85950000D01*
X103207143Y-85997619D01*
X104159524Y-86902381D02*
X103588095Y-86902381D01*
X103873809Y-86902381D02*
X103873809Y-85902381D01*
X103778571Y-86045238D01*
X103683333Y-86140476D01*
X103588095Y-86188095D01*
X105016667Y-85902381D02*
X104826190Y-85902381D01*
X104730952Y-85950000D01*
X104683333Y-85997619D01*
X104588095Y-86140476D01*
X104540476Y-86330952D01*
X104540476Y-86711905D01*
X104588095Y-86807143D01*
X104635714Y-86854762D01*
X104730952Y-86902381D01*
X104921429Y-86902381D01*
X105016667Y-86854762D01*
X105064286Y-86807143D01*
X105111905Y-86711905D01*
X105111905Y-86473810D01*
X105064286Y-86378571D01*
X105016667Y-86330952D01*
X104921429Y-86283333D01*
X104730952Y-86283333D01*
X104635714Y-86330952D01*
X104588095Y-86378571D01*
X104540476Y-86473810D01*
X87407143Y-78107143D02*
X87359524Y-78154762D01*
X87216667Y-78202381D01*
X87121429Y-78202381D01*
X86978571Y-78154762D01*
X86883333Y-78059524D01*
X86835714Y-77964286D01*
X86788095Y-77773810D01*
X86788095Y-77630952D01*
X86835714Y-77440476D01*
X86883333Y-77345238D01*
X86978571Y-77250000D01*
X87121429Y-77202381D01*
X87216667Y-77202381D01*
X87359524Y-77250000D01*
X87407143Y-77297619D01*
X88359524Y-78202381D02*
X87788095Y-78202381D01*
X88073809Y-78202381D02*
X88073809Y-77202381D01*
X87978571Y-77345238D01*
X87883333Y-77440476D01*
X87788095Y-77488095D01*
X88692857Y-77202381D02*
X89359524Y-77202381D01*
X88930952Y-78202381D01*
X77310878Y-64896737D02*
X77243903Y-64889697D01*
X77116993Y-64808644D01*
X77057058Y-64734630D01*
X77004162Y-64593641D01*
X77018240Y-64459692D01*
X77062287Y-64362750D01*
X77180347Y-64205873D01*
X77291368Y-64115969D01*
X77469363Y-64033106D01*
X77573345Y-64010177D01*
X77707294Y-64024256D01*
X77834204Y-64105310D01*
X77894139Y-64179324D01*
X77947035Y-64320312D01*
X77939996Y-64387287D01*
X77836217Y-65696811D02*
X77476605Y-65252727D01*
X77656410Y-65474769D02*
X78433556Y-64845448D01*
X78262600Y-64861337D01*
X78128651Y-64847259D01*
X78031709Y-64803212D01*
X78639912Y-65781282D02*
X78616983Y-65677301D01*
X78624023Y-65610326D01*
X78668069Y-65513384D01*
X78705076Y-65483416D01*
X78809057Y-65460488D01*
X78876032Y-65467527D01*
X78972974Y-65511573D01*
X79092845Y-65659602D01*
X79115773Y-65763583D01*
X79108734Y-65830558D01*
X79064688Y-65927500D01*
X79027681Y-65957468D01*
X78923699Y-65980396D01*
X78856725Y-65973357D01*
X78759783Y-65929310D01*
X78639912Y-65781282D01*
X78542970Y-65737236D01*
X78475995Y-65730196D01*
X78372013Y-65753125D01*
X78223985Y-65872996D01*
X78179939Y-65969938D01*
X78172900Y-66036912D01*
X78195828Y-66140894D01*
X78315699Y-66288922D01*
X78412641Y-66332969D01*
X78479616Y-66340008D01*
X78583597Y-66317080D01*
X78731625Y-66197209D01*
X78775672Y-66100266D01*
X78782711Y-66033292D01*
X78759783Y-65929310D01*
X159266981Y-93950821D02*
X158766981Y-93084796D01*
X158973178Y-92965748D01*
X159120706Y-92935558D01*
X159250803Y-92970418D01*
X159339662Y-93029087D01*
X159476139Y-93170234D01*
X159547568Y-93293953D01*
X159601567Y-93482720D01*
X159607946Y-93589008D01*
X159573087Y-93719105D01*
X159473178Y-93831773D01*
X159266981Y-93950821D01*
X160586640Y-93188916D02*
X160091768Y-93474630D01*
X160339203Y-93331773D02*
X159839203Y-92465748D01*
X159828153Y-92637085D01*
X159793294Y-92767182D01*
X159734625Y-92856041D01*
X84230034Y-47285101D02*
X84931102Y-47689863D01*
X85037390Y-47696242D01*
X85102439Y-47678813D01*
X85191297Y-47620144D01*
X85286535Y-47455186D01*
X85292915Y-47348898D01*
X85275485Y-47283849D01*
X85216816Y-47194991D01*
X84515748Y-46790229D01*
X85554820Y-46895266D02*
X85667487Y-46795357D01*
X85786535Y-46589160D01*
X85792915Y-46482872D01*
X85775485Y-46417823D01*
X85716816Y-46328965D01*
X85634338Y-46281346D01*
X85528050Y-46274966D01*
X85463001Y-46292396D01*
X85374142Y-46351065D01*
X85237664Y-46492213D01*
X85148806Y-46550882D01*
X85083757Y-46568312D01*
X84977469Y-46561932D01*
X84894991Y-46514313D01*
X84836322Y-46425455D01*
X84818892Y-46360406D01*
X84825272Y-46254118D01*
X84944320Y-46047921D01*
X85056987Y-45948013D01*
X85809093Y-45502469D02*
X85921761Y-45402561D01*
X85986811Y-45385132D01*
X86093099Y-45391511D01*
X86216816Y-45462940D01*
X86275485Y-45551798D01*
X86292915Y-45616847D01*
X86286535Y-45723135D01*
X86096059Y-46053050D01*
X85230034Y-45553050D01*
X85396701Y-45264374D01*
X85485559Y-45205705D01*
X85550608Y-45188275D01*
X85656896Y-45194655D01*
X85739374Y-45242274D01*
X85798043Y-45331132D01*
X85815473Y-45396181D01*
X85809093Y-45502469D01*
X85642426Y-45791145D01*
X86559490Y-45440840D02*
X86940442Y-44781011D01*
X86705766Y-44425578D02*
X86943862Y-44013184D01*
X86905583Y-44650913D02*
X86206224Y-43862238D01*
X87238916Y-44073563D01*
X100011905Y-67282381D02*
X100011905Y-66282381D01*
X100392858Y-66282381D01*
X100488096Y-66330000D01*
X100535715Y-66377619D01*
X100583334Y-66472857D01*
X100583334Y-66615714D01*
X100535715Y-66710952D01*
X100488096Y-66758571D01*
X100392858Y-66806190D01*
X100011905Y-66806190D01*
X100964286Y-66377619D02*
X101011905Y-66330000D01*
X101107143Y-66282381D01*
X101345239Y-66282381D01*
X101440477Y-66330000D01*
X101488096Y-66377619D01*
X101535715Y-66472857D01*
X101535715Y-66568095D01*
X101488096Y-66710952D01*
X100916667Y-67282381D01*
X101535715Y-67282381D01*
X111697638Y-33857813D02*
X112648695Y-33548796D01*
X112766416Y-33911104D01*
X112750557Y-34016396D01*
X112719984Y-34076399D01*
X112644123Y-34151118D01*
X112508257Y-34195263D01*
X112402966Y-34179405D01*
X112342962Y-34148832D01*
X112268244Y-34072970D01*
X112150523Y-33710662D01*
X112928282Y-34409276D02*
X113119578Y-34998026D01*
X112654265Y-34798727D01*
X112698411Y-34934593D01*
X112682553Y-35039885D01*
X112651979Y-35099888D01*
X112576117Y-35174607D01*
X112349675Y-35248182D01*
X112244383Y-35232324D01*
X112184380Y-35201751D01*
X112109661Y-35125889D01*
X112021370Y-34854158D01*
X112037228Y-34748866D01*
X112067802Y-34688863D01*
X149181331Y-102391871D02*
X149075043Y-102398251D01*
X148944945Y-102363391D01*
X148749799Y-102311102D01*
X148643510Y-102317482D01*
X148561032Y-102365101D01*
X148721318Y-102547488D02*
X148615030Y-102553868D01*
X148484933Y-102519008D01*
X148348456Y-102377861D01*
X148181789Y-102089185D01*
X148127790Y-101900418D01*
X148162649Y-101770321D01*
X148221318Y-101681463D01*
X148386276Y-101586224D01*
X148492564Y-101579844D01*
X148622662Y-101614704D01*
X148759139Y-101755851D01*
X148925806Y-102044527D01*
X148979805Y-102233294D01*
X148944945Y-102363391D01*
X148886276Y-102452249D01*
X148721318Y-102547488D01*
X148881148Y-101300510D02*
X149417259Y-100990986D01*
X149319059Y-101487567D01*
X149442778Y-101416138D01*
X149549066Y-101409758D01*
X149614115Y-101427188D01*
X149702973Y-101485858D01*
X149822021Y-101692054D01*
X149828401Y-101798342D01*
X149810971Y-101863391D01*
X149752302Y-101952249D01*
X149504865Y-102095107D01*
X149398577Y-102101487D01*
X149333529Y-102084057D01*
X155000439Y-89636854D02*
X155246165Y-89110082D01*
X154714724Y-89141981D02*
X155580749Y-88641981D01*
X155771226Y-88971896D01*
X155777606Y-89078184D01*
X155760176Y-89143233D01*
X155701507Y-89232092D01*
X155577789Y-89303520D01*
X155471501Y-89309900D01*
X155406452Y-89292470D01*
X155317594Y-89233801D01*
X155127118Y-88903886D01*
X155238534Y-90049246D02*
X155333772Y-90214203D01*
X155422630Y-90272873D01*
X155487679Y-90290303D01*
X155659016Y-90301353D01*
X155847782Y-90247354D01*
X156177697Y-90056878D01*
X156236366Y-89968019D01*
X156253796Y-89902971D01*
X156247416Y-89796683D01*
X156152178Y-89631725D01*
X156063320Y-89573056D01*
X155998271Y-89555626D01*
X155891983Y-89562006D01*
X155685787Y-89681053D01*
X155627118Y-89769911D01*
X155609687Y-89834961D01*
X155616067Y-89941249D01*
X155711305Y-90106207D01*
X155800163Y-90164876D01*
X155865213Y-90182305D01*
X155971501Y-90175925D01*
X150409459Y-91143202D02*
X149882688Y-90897475D01*
X149914587Y-91428916D02*
X149414587Y-90562891D01*
X149744502Y-90372415D01*
X149850790Y-90366035D01*
X149915839Y-90383465D01*
X150004697Y-90442134D01*
X150076126Y-90565851D01*
X150082505Y-90672139D01*
X150065075Y-90737188D01*
X150006406Y-90826046D01*
X149676491Y-91016523D01*
X151234245Y-90667011D02*
X150739373Y-90952726D01*
X150986809Y-90809869D02*
X150486809Y-89943844D01*
X150475759Y-90115180D01*
X150440899Y-90245278D01*
X150382230Y-90334136D01*
X151643219Y-89661089D02*
X151976553Y-90238440D01*
X151246546Y-89450223D02*
X151397493Y-90187861D01*
X151933604Y-89878337D01*
X119542351Y-128923131D02*
X119589970Y-128780274D01*
X119637590Y-128732655D01*
X119732828Y-128685036D01*
X119875685Y-128685036D01*
X119970923Y-128732655D01*
X120018542Y-128780274D01*
X120066161Y-128875512D01*
X120066161Y-129256465D01*
X119066161Y-129256465D01*
X119066161Y-128923131D01*
X119113780Y-128827893D01*
X119161399Y-128780274D01*
X119256637Y-128732655D01*
X119351875Y-128732655D01*
X119447113Y-128780274D01*
X119494732Y-128827893D01*
X119542351Y-128923131D01*
X119542351Y-129256465D01*
X120066161Y-127732655D02*
X120066161Y-128304084D01*
X120066161Y-128018370D02*
X119066161Y-128018370D01*
X119209018Y-128113608D01*
X119304256Y-128208846D01*
X119351875Y-128304084D01*
X129992351Y-123973131D02*
X130039970Y-123830274D01*
X130087590Y-123782655D01*
X130182828Y-123735036D01*
X130325685Y-123735036D01*
X130420923Y-123782655D01*
X130468542Y-123830274D01*
X130516161Y-123925512D01*
X130516161Y-124306465D01*
X129516161Y-124306465D01*
X129516161Y-123973131D01*
X129563780Y-123877893D01*
X129611399Y-123830274D01*
X129706637Y-123782655D01*
X129801875Y-123782655D01*
X129897113Y-123830274D01*
X129944732Y-123877893D01*
X129992351Y-123973131D01*
X129992351Y-124306465D01*
X129611399Y-123354084D02*
X129563780Y-123306465D01*
X129516161Y-123211227D01*
X129516161Y-122973131D01*
X129563780Y-122877893D01*
X129611399Y-122830274D01*
X129706637Y-122782655D01*
X129801875Y-122782655D01*
X129944732Y-122830274D01*
X130516161Y-123401703D01*
X130516161Y-122782655D01*
X110076161Y-124125989D02*
X109599970Y-124459323D01*
X110076161Y-124697418D02*
X109076161Y-124697418D01*
X109076161Y-124316465D01*
X109123780Y-124221227D01*
X109171399Y-124173608D01*
X109266637Y-124125989D01*
X109409494Y-124125989D01*
X109504732Y-124173608D01*
X109552351Y-124221227D01*
X109599970Y-124316465D01*
X109599970Y-124697418D01*
X110028542Y-123745037D02*
X110076161Y-123602180D01*
X110076161Y-123364084D01*
X110028542Y-123268846D01*
X109980923Y-123221227D01*
X109885685Y-123173608D01*
X109790447Y-123173608D01*
X109695209Y-123221227D01*
X109647590Y-123268846D01*
X109599970Y-123364084D01*
X109552351Y-123554561D01*
X109504732Y-123649799D01*
X109457113Y-123697418D01*
X109361875Y-123745037D01*
X109266637Y-123745037D01*
X109171399Y-123697418D01*
X109123780Y-123649799D01*
X109076161Y-123554561D01*
X109076161Y-123316465D01*
X109123780Y-123173608D01*
X109076161Y-122887894D02*
X109076161Y-122316465D01*
X110076161Y-122602180D02*
X109076161Y-122602180D01*
X145242415Y-67556444D02*
X145291835Y-68364458D01*
X145345179Y-68456611D01*
X145395617Y-68501234D01*
X145493584Y-68542950D01*
X145683706Y-68531322D01*
X145775859Y-68477977D01*
X145820482Y-68427540D01*
X145862198Y-68329573D01*
X145812778Y-67521559D01*
X146715852Y-67466324D02*
X146525731Y-67477953D01*
X146433577Y-67531297D01*
X146388954Y-67581734D01*
X146302615Y-67730139D01*
X146266713Y-67923167D01*
X146289970Y-68303409D01*
X146343314Y-68395562D01*
X146393751Y-68440186D01*
X146491719Y-68481902D01*
X146681841Y-68470273D01*
X146773994Y-68416929D01*
X146818617Y-68366492D01*
X146860333Y-68268524D01*
X146845798Y-68030873D01*
X146792453Y-67938719D01*
X146742016Y-67894096D01*
X146644049Y-67852380D01*
X146453927Y-67864008D01*
X146361774Y-67917353D01*
X146317150Y-67967790D01*
X146275434Y-68065758D01*
X137259071Y-70448979D02*
X137406595Y-71244948D01*
X137470772Y-71329913D01*
X137526271Y-71368057D01*
X137628593Y-71397523D01*
X137815880Y-71362811D01*
X137900845Y-71298633D01*
X137938989Y-71243134D01*
X137968455Y-71140813D01*
X137820931Y-70344844D01*
X138195504Y-70275421D02*
X138851007Y-70153931D01*
X138611847Y-71215287D01*
X129637381Y-85416904D02*
X130446905Y-85416904D01*
X130542143Y-85369285D01*
X130589762Y-85321666D01*
X130637381Y-85226428D01*
X130637381Y-85035951D01*
X130589762Y-84940713D01*
X130542143Y-84893094D01*
X130446905Y-84845475D01*
X129637381Y-84845475D01*
X130065952Y-84226428D02*
X130018333Y-84321666D01*
X129970714Y-84369285D01*
X129875476Y-84416904D01*
X129827857Y-84416904D01*
X129732619Y-84369285D01*
X129685000Y-84321666D01*
X129637381Y-84226428D01*
X129637381Y-84035951D01*
X129685000Y-83940713D01*
X129732619Y-83893094D01*
X129827857Y-83845475D01*
X129875476Y-83845475D01*
X129970714Y-83893094D01*
X130018333Y-83940713D01*
X130065952Y-84035951D01*
X130065952Y-84226428D01*
X130113571Y-84321666D01*
X130161190Y-84369285D01*
X130256429Y-84416904D01*
X130446905Y-84416904D01*
X130542143Y-84369285D01*
X130589762Y-84321666D01*
X130637381Y-84226428D01*
X130637381Y-84035951D01*
X130589762Y-83940713D01*
X130542143Y-83893094D01*
X130446905Y-83845475D01*
X130256429Y-83845475D01*
X130161190Y-83893094D01*
X130113571Y-83940713D01*
X130065952Y-84035951D01*
X127611572Y-87911783D02*
X126948449Y-88376106D01*
X126897748Y-88469740D01*
X126886054Y-88536060D01*
X126901673Y-88641388D01*
X127010926Y-88797417D01*
X127104560Y-88848119D01*
X127170880Y-88859813D01*
X127276207Y-88844194D01*
X127939331Y-88379870D01*
X127420623Y-89382525D02*
X127529876Y-89538554D01*
X127623510Y-89589256D01*
X127689830Y-89600950D01*
X127861478Y-89597025D01*
X128044820Y-89526780D01*
X128356878Y-89308274D01*
X128407580Y-89214641D01*
X128419274Y-89148321D01*
X128403655Y-89042993D01*
X128294401Y-88886963D01*
X128200768Y-88836262D01*
X128134448Y-88824568D01*
X128029120Y-88840187D01*
X127834084Y-88976753D01*
X127783383Y-89070386D01*
X127771688Y-89136707D01*
X127787307Y-89242035D01*
X127896560Y-89398064D01*
X127990194Y-89448766D01*
X128056515Y-89460459D01*
X128161842Y-89444840D01*
X104384668Y-88296433D02*
X105004800Y-88816785D01*
X105108365Y-88841525D01*
X105175452Y-88835655D01*
X105273148Y-88793308D01*
X105395585Y-88647394D01*
X105420324Y-88543828D01*
X105414455Y-88476741D01*
X105372107Y-88379045D01*
X104751976Y-87858693D01*
X106160808Y-87735436D02*
X105793500Y-88173176D01*
X105977154Y-87954307D02*
X105211109Y-87311519D01*
X105259326Y-87476302D01*
X105271065Y-87610477D01*
X105246326Y-87714042D01*
X105792679Y-86618431D02*
X105853898Y-86545474D01*
X105951594Y-86503126D01*
X106018681Y-86497257D01*
X106122246Y-86521996D01*
X106298768Y-86607954D01*
X106481160Y-86760999D01*
X106596465Y-86919913D01*
X106638812Y-87017609D01*
X106644682Y-87084696D01*
X106619942Y-87188261D01*
X106558724Y-87261219D01*
X106461028Y-87303566D01*
X106393940Y-87309436D01*
X106290375Y-87284696D01*
X106113853Y-87198739D01*
X105931461Y-87045694D01*
X105816157Y-86886780D01*
X105773809Y-86789084D01*
X105767940Y-86721997D01*
X105792679Y-86618431D01*
X113211905Y-76002381D02*
X113211905Y-76811905D01*
X113259524Y-76907143D01*
X113307143Y-76954762D01*
X113402381Y-77002381D01*
X113592858Y-77002381D01*
X113688096Y-76954762D01*
X113735715Y-76907143D01*
X113783334Y-76811905D01*
X113783334Y-76002381D01*
X114783334Y-77002381D02*
X114211905Y-77002381D01*
X114497619Y-77002381D02*
X114497619Y-76002381D01*
X114402381Y-76145238D01*
X114307143Y-76240476D01*
X114211905Y-76288095D01*
X115735715Y-77002381D02*
X115164286Y-77002381D01*
X115450000Y-77002381D02*
X115450000Y-76002381D01*
X115354762Y-76145238D01*
X115259524Y-76240476D01*
X115164286Y-76288095D01*
X117903567Y-71184667D02*
X117383215Y-71804799D01*
X117358475Y-71908364D01*
X117364345Y-71975451D01*
X117406692Y-72073147D01*
X117552606Y-72195584D01*
X117656172Y-72220323D01*
X117723259Y-72214454D01*
X117820955Y-72172106D01*
X118341307Y-71551975D01*
X118464564Y-72960807D02*
X118026824Y-72593499D01*
X118245693Y-72777153D02*
X118888481Y-72011108D01*
X118723698Y-72059325D01*
X118589523Y-72071064D01*
X118485958Y-72046325D01*
X119337960Y-72512590D02*
X119405047Y-72506721D01*
X119508612Y-72531460D01*
X119691004Y-72684506D01*
X119733352Y-72782202D01*
X119739221Y-72849289D01*
X119714482Y-72952854D01*
X119653264Y-73025811D01*
X119524959Y-73104637D01*
X118719912Y-73175069D01*
X119194130Y-73572986D01*
X113171711Y-72861559D02*
X113636034Y-73524682D01*
X113729668Y-73575383D01*
X113795988Y-73587077D01*
X113901316Y-73571458D01*
X114057345Y-73462205D01*
X114108047Y-73368572D01*
X114119741Y-73302251D01*
X114104122Y-73196924D01*
X113639798Y-72533801D01*
X115032526Y-72779376D02*
X114564439Y-73107135D01*
X114798482Y-72943256D02*
X114224906Y-72124104D01*
X114228831Y-72295752D01*
X114205443Y-72428392D01*
X114154741Y-72522026D01*
X114732000Y-71769032D02*
X115239095Y-71413961D01*
X115184549Y-71917211D01*
X115301571Y-71835271D01*
X115406899Y-71819652D01*
X115473219Y-71831346D01*
X115566853Y-71882048D01*
X115703419Y-72077084D01*
X115719038Y-72182412D01*
X115707344Y-72248732D01*
X115656642Y-72342366D01*
X115422598Y-72506245D01*
X115317271Y-72521864D01*
X115250950Y-72510170D01*
X102661905Y-75052381D02*
X102661905Y-75861905D01*
X102709524Y-75957143D01*
X102757143Y-76004762D01*
X102852381Y-76052381D01*
X103042858Y-76052381D01*
X103138096Y-76004762D01*
X103185715Y-75957143D01*
X103233334Y-75861905D01*
X103233334Y-75052381D01*
X104233334Y-76052381D02*
X103661905Y-76052381D01*
X103947619Y-76052381D02*
X103947619Y-75052381D01*
X103852381Y-75195238D01*
X103757143Y-75290476D01*
X103661905Y-75338095D01*
X105090477Y-75385714D02*
X105090477Y-76052381D01*
X104852381Y-75004762D02*
X104614286Y-75719048D01*
X105233334Y-75719048D01*
X88311905Y-83352381D02*
X88311905Y-84161905D01*
X88359524Y-84257143D01*
X88407143Y-84304762D01*
X88502381Y-84352381D01*
X88692858Y-84352381D01*
X88788096Y-84304762D01*
X88835715Y-84257143D01*
X88883334Y-84161905D01*
X88883334Y-83352381D01*
X89883334Y-84352381D02*
X89311905Y-84352381D01*
X89597619Y-84352381D02*
X89597619Y-83352381D01*
X89502381Y-83495238D01*
X89407143Y-83590476D01*
X89311905Y-83638095D01*
X90788096Y-83352381D02*
X90311905Y-83352381D01*
X90264286Y-83828571D01*
X90311905Y-83780952D01*
X90407143Y-83733333D01*
X90645239Y-83733333D01*
X90740477Y-83780952D01*
X90788096Y-83828571D01*
X90835715Y-83923810D01*
X90835715Y-84161905D01*
X90788096Y-84257143D01*
X90740477Y-84304762D01*
X90645239Y-84352381D01*
X90407143Y-84352381D01*
X90311905Y-84304762D01*
X90264286Y-84257143D01*
M02*
