G04 #@! TF.FileFunction,Soldermask,Bot*
%FSLAX46Y46*%
G04 Gerber Fmt 4.6, Leading zero omitted, Abs format (unit mm)*
G04 Created by KiCad (PCBNEW 4.0.7) date Monday, 12 '12e' March '12e' 2018, 16:25:27*
%MOMM*%
%LPD*%
G01*
G04 APERTURE LIST*
%ADD10C,0.100000*%
%ADD11O,2.400000X1.300000*%
%ADD12R,2.400000X1.300000*%
%ADD13R,4.700000X4.700000*%
%ADD14C,1.300000*%
%ADD15R,1.700000X1.900000*%
%ADD16R,2.400000X4.200000*%
%ADD17R,2.400000X1.900000*%
%ADD18R,3.600000X1.900000*%
%ADD19R,1.900000X1.700000*%
%ADD20R,1.650000X1.900000*%
%ADD21C,2.200000*%
%ADD22R,2.900000X2.200000*%
%ADD23R,2.200000X1.400000*%
%ADD24C,1.400000*%
%ADD25C,1.450000*%
%ADD26R,2.100000X2.100000*%
%ADD27O,2.100000X2.100000*%
%ADD28C,2.100000*%
%ADD29R,1.300000X1.200000*%
%ADD30R,1.210000X0.670000*%
%ADD31R,0.670000X1.210000*%
%ADD32R,3.100000X3.100000*%
%ADD33R,1.390000X1.700000*%
%ADD34R,0.990000X1.700000*%
%ADD35R,2.400000X2.400000*%
%ADD36C,2.400000*%
%ADD37C,3.900000*%
G04 APERTURE END LIST*
D10*
D11*
X128490000Y-55390000D03*
X146490000Y-55390000D03*
D12*
X146490000Y-43390000D03*
D11*
X146490000Y-44890000D03*
X146490000Y-46390000D03*
X146490000Y-47890000D03*
X146490000Y-49390000D03*
X146490000Y-50890000D03*
X146490000Y-52390000D03*
X146490000Y-53890000D03*
X128490000Y-53890000D03*
X128490000Y-52390000D03*
X128490000Y-50890000D03*
X128490000Y-49390000D03*
X128490000Y-47890000D03*
X128490000Y-46390000D03*
X128490000Y-44890000D03*
X128490000Y-43390000D03*
D13*
X136370000Y-49970000D03*
D14*
X137990000Y-48390000D03*
X136865000Y-48390000D03*
X135765000Y-48390000D03*
X134740000Y-48390000D03*
X137990000Y-49840000D03*
X135765000Y-49840000D03*
X134740000Y-49840000D03*
X136865000Y-49840000D03*
X137990000Y-51190000D03*
X135765000Y-51190000D03*
X134740000Y-51190000D03*
X136865000Y-51190000D03*
D15*
X144340000Y-61740000D03*
X144340000Y-59040000D03*
D16*
X119250000Y-44950000D03*
D17*
X112950000Y-44950000D03*
X112950000Y-42650000D03*
X112950000Y-47250000D03*
D18*
X116040000Y-50390000D03*
X112040000Y-50390000D03*
D19*
X149590000Y-43440000D03*
X152290000Y-43440000D03*
D20*
X99155000Y-42714999D03*
X99155000Y-40214999D03*
X101550000Y-42700000D03*
X101550000Y-40200000D03*
D10*
G36*
X154227372Y-95602628D02*
X153127372Y-93697372D01*
X155032628Y-92597372D01*
X156132628Y-94502628D01*
X154227372Y-95602628D01*
X154227372Y-95602628D01*
G37*
D21*
X156829705Y-92830000D03*
D22*
X108850000Y-40850000D03*
X104850000Y-40850000D03*
D23*
X93050000Y-42200000D03*
X93050000Y-39700000D03*
D24*
X88490816Y-49734817D02*
X89356842Y-50234817D01*
D25*
X84782837Y-49857227D02*
X85692163Y-50382227D01*
X88957837Y-42625914D02*
X89867163Y-43150914D01*
D24*
X90715816Y-45881004D02*
X91581842Y-46381004D01*
D26*
X100750000Y-64500000D03*
D27*
X100750000Y-61960000D03*
X100750000Y-59420000D03*
X100750000Y-56880000D03*
D10*
G36*
X108816923Y-34465859D02*
X110814141Y-33816923D01*
X111463077Y-35814141D01*
X109465859Y-36463077D01*
X108816923Y-34465859D01*
X108816923Y-34465859D01*
G37*
D28*
X107724316Y-35924903D02*
X107724316Y-35924903D01*
D29*
X112517052Y-55673168D03*
X112517052Y-53773168D03*
X114517052Y-54723168D03*
X114517052Y-57573168D03*
X114517052Y-59473168D03*
X112517052Y-58523168D03*
D10*
G36*
X149767372Y-99302628D02*
X148667372Y-97397372D01*
X150572628Y-96297372D01*
X151672628Y-98202628D01*
X149767372Y-99302628D01*
X149767372Y-99302628D01*
G37*
D21*
X152369705Y-96530000D03*
D15*
X141890000Y-59040000D03*
X141890000Y-61740000D03*
X139490000Y-61740000D03*
X139490000Y-59040000D03*
X116967052Y-56023168D03*
X116967052Y-58723168D03*
X110267052Y-56723168D03*
X110267052Y-54023168D03*
D19*
X104640000Y-119940000D03*
X101940000Y-119940000D03*
X104640000Y-117540000D03*
X101940000Y-117540000D03*
X104640000Y-122240000D03*
X101940000Y-122240000D03*
D30*
X95735000Y-49830000D03*
X95735000Y-49330000D03*
X95735000Y-48830000D03*
X95735000Y-48330000D03*
X95735000Y-47830000D03*
X95735000Y-47330000D03*
D31*
X96440000Y-46625000D03*
X96940000Y-46625000D03*
X97440000Y-46625000D03*
X97940000Y-46625000D03*
X98440000Y-46625000D03*
X98940000Y-46625000D03*
D30*
X99645000Y-47330000D03*
X99645000Y-47830000D03*
X99645000Y-48330000D03*
X99645000Y-48830000D03*
X99645000Y-49330000D03*
X99645000Y-49830000D03*
D31*
X98940000Y-50535000D03*
X98440000Y-50535000D03*
X97940000Y-50535000D03*
X97440000Y-50535000D03*
X96940000Y-50535000D03*
X96440000Y-50535000D03*
D32*
X97710000Y-48560000D03*
D33*
X95590000Y-40075000D03*
D34*
X97310000Y-40075000D03*
X97310000Y-42125000D03*
X95390000Y-42125000D03*
D18*
X112580000Y-39340000D03*
X116580000Y-39340000D03*
D35*
X95440000Y-98240000D03*
D36*
X95440000Y-85540000D03*
D37*
X119163600Y-74745000D03*
X119163600Y-98240000D03*
D19*
X94590000Y-59440000D03*
X97290000Y-59440000D03*
X94590000Y-56890000D03*
X97290000Y-56890000D03*
M02*
