<?xml version="1.0" encoding="UTF-8" standalone="no"?>
<!-- Created with Inkscape (http://www.inkscape.org/) -->

<svg
   xmlns:dc="http://purl.org/dc/elements/1.1/"
   xmlns:cc="http://creativecommons.org/ns#"
   xmlns:rdf="http://www.w3.org/1999/02/22-rdf-syntax-ns#"
   xmlns:svg="http://www.w3.org/2000/svg"
   xmlns="http://www.w3.org/2000/svg"
   xmlns:sodipodi="http://sodipodi.sourceforge.net/DTD/sodipodi-0.dtd"
   xmlns:inkscape="http://www.inkscape.org/namespaces/inkscape"
   width="99mm"
   height="99mm"
   viewBox="0 0 99 99"
   version="1.1"
   id="svg2302"
   inkscape:version="0.91 r13725"
   sodipodi:docname="CatBackToTheFuture.svg">
  <sodipodi:namedview
     id="base"
     pagecolor="#ffffff"
     bordercolor="#666666"
     borderopacity="1.0"
     inkscape:pageopacity="0.0"
     inkscape:pageshadow="2"
     inkscape:zoom="1.979899"
     inkscape:cx="131.07493"
     inkscape:cy="179.72146"
     inkscape:document-units="mm"
     inkscape:current-layer="layer1"
     showgrid="false"
     inkscape:window-width="1920"
     inkscape:window-height="1027"
     inkscape:window-x="0"
     inkscape:window-y="27"
     inkscape:window-maximized="1" />
  <defs
     id="defs2296">
    <inkscape:path-effect
       effect="skeletal"
       id="path-effect3811"
       is_visible="true"
       pattern="M 0,5 C 0,2.24 2.24,0 5,0 7.76,0 10,2.24 10,5 10,7.76 7.76,10 5,10 2.24,10 0,7.76 0,5 Z"
       copytype="single_stretched"
       prop_scale="1"
       scale_y_rel="false"
       spacing="0"
       normal_offset="0"
       tang_offset="0"
       prop_units="false"
       vertical_pattern="false"
       fuse_tolerance="0" />
    <inkscape:path-effect
       effect="skeletal"
       id="path-effect3807"
       is_visible="true"
       pattern="M 0,5 C 0,2.24 2.24,0 5,0 7.76,0 10,2.24 10,5 10,7.76 7.76,10 5,10 2.24,10 0,7.76 0,5 Z"
       copytype="single_stretched"
       prop_scale="1"
       scale_y_rel="false"
       spacing="0"
       normal_offset="0"
       tang_offset="0"
       prop_units="false"
       vertical_pattern="false"
       fuse_tolerance="0" />
  </defs>
  <metadata
     id="metadata2299">
    <rdf:RDF>
      <cc:Work
         rdf:about="">
        <dc:format>image/svg+xml</dc:format>
        <dc:type
           rdf:resource="http://purl.org/dc/dcmitype/StillImage" />
        <dc:title></dc:title>
      </cc:Work>
    </rdf:RDF>
  </metadata>
  <g
     transform="translate(0,-198)"
     style="display:inline"
     id="layer1"
     inkscape:groupmode="layer"
     inkscape:label="SilkS">
    <g
       transform="translate(16.891256,58.75153)"
       style="display:inline;opacity:0.26600001"
       id="layer1-3"
       inkscape:label="Capa 1" />
    <path
       inkscape:connector-curvature="0"
       style="fill:#000000;fill-rule:evenodd;stroke:none;stroke-width:0.99999994px;stroke-linecap:butt;stroke-linejoin:miter;stroke-opacity:1"
       d="M51.921726 203.84654L52.022027 204.2731425L51.9139989375 204.49956875L51.493048 204.46201L50.52724075 204.19896625L50.190721 204.17365L50.324468375 204.366775L50.318385 204.85357L49.894019875 205.41051125L49.609502 205.67379L49.423112 206.10247L49.180834 206.55031L48.509481 207.37054L47.909914 207.98397L47.58035 208.31354L47.579933 208.31354L47.40944 208.24704L47.017886 207.82734L46.54231 207.10948L46.127443125 206.82623L44.901449 206.49402L44.1309149219 206.506998125L43.526494875 206.65372L42.990583 206.90432L42.654897 207.36115L42.440365 207.55691L42.035935875 207.78410125L41.246936 208.06023L40.89393 208.07788L40.883524 208.03253L40.286804 207.82737L39.478088625 207.9811L38.991007 208.19078L38.254398 208.6476L37.657679 209.28183L37.275501 209.35653L36.944666375 209.2585225L36.529912 208.99271L35.8504915 208.7503475L34.954306 208.67579L33.378711 208.89972L32.183126625 209.36338375L31.504959 209.70119L31.253303 210.33543L30.852361 211.39793L29.994608 212.78713L29.649554 213.09467L29.062223 213.37446L28.586647 213.64488L28.186122 214.07354L27.691782 214.81016L27.290839 215.37874L26.23732 216.27401L25.929776 216.30171L25.80633525 216.16781L25.501108 216.01294L23.645704 216.48811L22.901023125 216.92973375L22.526918 217.39235L21.827829 218.47402L20.355007 220.14262L19.329216 221.38255L18.499607 222.49196L16.662968 224.48725L14.61913 225.90133L13.838058 227.0136L13.017831 228.18826L12.411737 229.47469L11.432849 231.34885L11.124150375 232.13071375L10.948297 233.01745L10.779216375 234.4089L10.910777 235.89824L11.1855060156 236.423053594L11.570361375 236.83858375L12.215962 237.43632L12.489632 238.08851L12.615267 238.98052L12.82460925 240.21648125L13.459149 241.63044L14.0390044531 242.223305L14.765892625 242.68513L15.924317 243.26519L17.898723 243.88495375L19.932454 244.54428L20.2952382812 245.093706562L20.68893175 246.06216L21.1394830937 247.112190937L21.672841 247.90635L22.6420779687 248.496519844L24.20583 249.11755125L28.053965 250.20021L29.7912231094 250.715665781L31.203419125 251.33745375L33.037737 252.45492L33.6269021562 253.044919687L34.18144975 253.85247L34.909862 255.21048L35.254448125 257.17659875L35.529822 259.35037L35.599602 259.6163L35.443795 259.36668L34.977597 259.2174L33.877577 258.97513L33.182974 258.60845L32.605009 258.51505L32.269343 258.44035L31.896543 257.93704L30.964158 256.85577L29.845372 255.86751L28.297909 255.32667L27.664076 255.19614L26.768804 255.06563L25.575782 255.08443L24.773993625 255.6508025L23.804398 256.20321L22.536337 255.86754L21.52481675 256.5504375L20.709078 257.24736L18.751298 257.80655L18.527786 258.04882L16.625885 260.77136L15.656379 261.83386L14.816981 262.54233L14.146034 263.92215L13.418802 264.66815L13.101887 264.64935L12.467648 264.05264L12.094857 262.87797L11.479788 260.90184L11.591544 263.17653L11.684534 265.15307L12.262895 266.30898L12.411767 267.07332L12.896725 268.19211L13.64231 268.93812L15.656375 269.92597L17.259712 270.67197L18.340975 271.99591L19.273368 272.9279L20.336274 273.43162L19.963484 272.64851L19.515641 271.62271L19.478531 270.933L19.925963 271.43631L20.690725 271.99591L22.499219 272.70438L24.885672 272.89078L26.400755625 272.90718375L27.99975 272.85368L29.18823 272.322165L29.901249 271.90252L29.831505625 272.07277875L29.957579 272.59265L30.2042966875 272.802640156L30.5191275 272.80456625L31.150591 272.61095L32.064344125 272.32896625L34.320568 272.03301L35.69835975 272.074074062L36.6388715 272.2553825L37.348998 272.54773L37.491349 272.60043L37.807039 273.20774L38.068083 273.76734L38.030953 274.81149L37.3737565 275.79492875L36.352978 276.86227L36.0703445781 277.227595L35.993933875 277.631365L36.054415 278.09281L38.096190125 279.742905L39.7358890469 280.956008125L40.977 281.67269L41.5654684062 282.022343125L41.7693235 282.4280025L41.722589 282.90364L40.454934 284.9173L40.3133468437 285.363018594L40.32907875 285.79821375L40.454934 286.2596L43.475207 288.64644L47.912829 291.44322L49.8380365 292.39868625L52.238705 293.49399L53.837583375 293.52665875L55.184752 293.30759L56.862727 292.07705L59.697017 289.01923L65.439835 282.19475L67.989657125 281.37906875L70.3326167969 280.511515156L72.637104 279.47264L73.6057915117 278.875189512L74.4293945937 278.182052969L75.73224475 276.55939125L76.7274490312 274.705993906L77.596802 272.7232L78.1969208125 270.954171094L78.3704805 269.64657125L78.2783399375 268.758493281L78.081358 268.24803L78.2631751875 267.54127375L78.948443 266.341595L80.31894 263.95969L80.924940375 261.66158125L81.0531477656 260.314983906L80.915649 259.11175L80.2065073125 257.727312187L79.046325 256.0631825L77.484639 254.07741L76.92546 250.98249L76.5670801719 250.043785625L75.988410625 249.17848L74.799635 247.96181L73.079759125 246.6285625L72.1831298281 245.801106875L71.779362 245.12751L72.007210625 244.326353437L72.56715925 243.1651275L73.190022 241.913005312L73.606613 240.83916L73.6217645703 240.249788574L73.4760921875 239.438419844L72.898061 237.52026875L71.965751 235.09636L71.965751 233.23198L71.863737 232.31385L72.002823 232.15031L73.643684 231.96391L73.569004 231.5536L74.91172 231.7404L74.240357 230.54697L74.948823 230.54697L74.3071095 229.63827125L73.408296 228.19561L72.960049 227.02216L72.103121 226.7191L73.237 229.35599L73.368731 230.19946L73.1841725 230.6510325L72.999614 230.72684L72.498754 230.569L72.472254 230.67422L71.31185 230.09424L71.400861875 230.97748875L71.39102 231.93984L69.650637 233.62761L69.967152 234.84062L69.149777 235.02498L68.797062 236.17210125L68.385016 237.24012L67.778512 235.55235L66.776793 237.1875L65.563785 238.42661L65.194657 237.1875L64.113402 238.82225L63.460648875 239.65615125L63.242997 239.79787L62.873872 238.79574L62.214755 239.77136L62.1022594063 239.777141406L62.08616975 239.48134125L62.135585 238.954L61.739952 239.534L61.31162375 240.199815L60.9615192188 240.461036562L60.369094 240.66787L60.080271877 240.675963984L59.9422357656 240.549651875L59.980098625 240.058185L60.342604 239.27051L59.577853 240.4309L59.1132375 241.1164175L59.024369 240.93177L58.8924485 240.45701L58.918736 240.06136L58.572546625 240.33498125L58.206588 240.90525L58.097953 241.29414875L57.732233 241.6435L57.5369212813 241.77455625L57.43550525 241.702955L57.099224 241.24827L56.8849790781 241.117648437L56.769626625 241.2119725L56.202721 241.90739L55.911908 242.18025L55.87478675 242.2395L55.911908 242.18025L55.701861 242.06564L55.4467816875 241.979488281L55.40178675 241.75240875L55.4012919375 241.372064844L55.279713 240.82612L55.1396492031 240.481671406L55.108395875 240.60195375L55.0573656094 241.018881719L54.857971 241.56437L54.534939625 242.04561625L54.172339 242.25L53.8987825 242.52695L53.724103 242.88301L53.5382491406 243.025577969L53.463601625 242.87644375L53.460201 242.51389L53.381031 241.90739L53.3015536875 241.711252656L53.19984375 241.78207125L53.038428 242.17087L52.827470125 242.48401375L52.062797 242.77738L51.3665070625 242.6463675L50.6059605 242.203895L49.742425 241.51176L49.557663 242.80389L48.766804 241.22176L48.845974 242.77738L47.448204 240.95827L46.393444 240.35177L46.22211525 240.59566L46.03757725 240.729964062L45.813455 240.7209L44.916962 239.95614L44.521329 240.11438L44.01055075 239.5440175L43.361342 238.47924L42.8470405 237.1245725L42.58986875 236.317459687L42.490947 235.55236L42.242507625 234.649250781L41.67021075 233.58794875L40.829682 232.33549L43.413955 232.78374L43.413955 232.44113L40.328823 231.30725L40.354903 230.91162L43.25568 231.93985L43.22918 231.57074L40.487068 230.22599L39.933188 229.80425L39.959678 229.43512L44.046541 231.35987L44.310432 231.01725L39.906658 228.4595L39.906658 227.95823L39.906658 226.05959L40.197054 225.53221L40.223234 224.42485L40.3192469063 224.052387187L40.516612 223.77881L40.908867 223.3701L41.3045 222.4736L41.541875 221.33972L41.752746 220.99711L42.35925 219.75758L42.85236 219.41987L42.35925 220.1006L42.253616 220.0476L44.475178375 221.7550925L46.2138642031 223.2293475L47.448249 224.53051L48.0028248438 225.522590312L48.24593975 226.316845L48.292129 227.03524L45.451715 223.74128L44.3522181094 222.839894687L43.060437625 222.165765L41.53617 221.59711L41.53617 223.64829L41.5851432656 224.528080625L41.815944375 225.8483125L42.3543952969 227.182528125L42.7783088027 227.721611875L43.326318 228.10427L44.4575394531 228.513618437L45.370209875 228.652065L46.0346608594 228.605224062L46.421224 228.45871L47.111171125 227.904005L47.745175 227.54508L48.192608 227.71272L48.440283875 227.65151125L48.738341 227.27915L49.143362 228.42118L48.938604 228.58923L48.845244 229.14843L48.22977 229.52162L48.19264 229.9503L46.27198 229.44698L46.02271575 230.0272L45.8552763438 230.7132125L45.787424 231.62826L46.077879625 232.575429375L46.69867875 233.33211L47.595931 234.01512L47.689291 235.50671L47.1007482969 235.378522031L45.861889125 234.73292125L43.922615 233.67945L44.0642144688 233.918309375L44.59388175 234.4438L45.432955 235.20815L45.489285 236.28982L45.7013592188 236.938912812L46.095207 237.3852375L46.645194 237.72551L46.516897875 237.4224975L46.346631 236.47621L46.4191695938 236.056127812L46.63336425 235.968185L46.962105 236.10342L47.465416 236.90488L47.892065625 237.10316875L48.752243 237.09169L49.989667875 237.278085L50.653741 237.46448L51.138694 238.75091L51.6025251719 239.333292187L52.150298125 239.5783225L52.798321 239.60865L52.294603 238.97482L52.0874868281 238.495848906L52.049964875 238.02384625L52.126968 237.52036L53.76782 237.44566L54.3088012969 237.30349125L54.753593125 237.063455L55.166007 236.7372L53.30142475 236.9516225L51.5790249375 236.941716562L49.870622 236.60668L49.1949579102 236.277183164L48.7129102813 235.872515937L48.20202725 234.98451L48.0826985938 234.236341562L48.09965 233.92169L49.106272 233.66065L49.803168625 233.1596675L50.486101 232.00143L50.5775770625 231.366868281L50.37888525 230.95251125L49.964024 230.65873L51.511478 231.08781L49.404835 229.57746L49.665868 229.40943L49.553705 228.83147L50.075781 228.81267L48.740419 227.27336L48.898666 225.95431L48.6446218555 225.166003535L47.9891134688 224.196786406L45.99703325 222.05742375L42.951924 219.36761L44.547923 218.62365L43.21422 218.53925L41.862533625 218.74441L39.336183 218.94957L38.5006261875 219.007818437L38.18946375 219.135965L38.217408 219.32236L35.979827 220.9257L35.4787408496 221.16226748L34.7609167344 221.321920469L33.024636125 221.46642125L30.796616 221.44777L32.586347 221.96985L29.938863 224.09566L29.975993 225.36333L29.262235125 225.59609625L28.5768492031 225.694936406L27.856291 225.61131L27.3289508594 225.311001875L27.038969125 224.8698475L26.617186 223.71308L25.985324375 221.07077625L25.650117 218.27821L25.8082126875 217.5715925L26.16986625 217.0212375L26.828046 216.40895L27.497076375 215.9573025L28.304538 215.32768L29.303316 214.4509725L30.361425 213.69293L30.7281471094 213.302745312L31.099841625 212.64803L31.521819 211.26692L31.67921075 210.715205469L32.12829025 210.17580875L32.893791375 209.720462656L34.000448 209.4209L35.088148125 209.362027031L35.859418 209.50343875L36.927333 209.92218L37.804004875 210.0374525L38.403815 209.81653L38.819092875 209.40783L39.748564 208.84091L40.089880041 208.797543301L40.3827080781 208.978508281L40.826573125 209.74398875L41.17285 211.00304L41.14636 208.76178L42.069358 208.28702L42.4623710938 208.198055937L42.91959375 208.227785L43.4262567813 208.465166562L43.967591 208.99916L44.3244452656 209.836378125L44.389663625 210.75271L44.257997 211.7943L42.939346 212.21603L42.611013 212.36124L42.755001 212.53254L42.49721475 212.53989L42.4244948438 212.492630625L42.611013 212.36124L42.438486 212.16342L41.726349 211.1878L41.119845 211.89953L40.118115 213.34991L39.5807962813 213.657314844L38.96430625 213.61373375L38.245583 213.32381L38.245583 212.69079L37.87646 211.77118375L37.507337 211.18778L37.454657 213.16555L37.316209 213.9598675L37.217271 213.90379L36.940442 213.6466225L36.5498824688 213.458695L35.95165 213.3499L35.4316857656 213.389485937L35.213295875 213.5279575L35.186889 213.74554L34.9890725 213.35995625L34.791256 212.63817L34.501181 212.02178125L33.578259 211.42517L33.2140555313 211.144193437L33.23549925 210.9373975L33.525579 210.76605L33.0374403438 210.756607031L32.9187935 210.98014875L33.201721 211.80816L33.99409525 213.0551025L34.618663 213.84057L34.83305925 214.52584875L34.9489928125 215.130701719L34.935584 215.68659L34.35757225 217.03373L33.891432 217.9054L34.583764875 217.50205375L36.017256 216.35755L36.870108 215.24344875L37.135635 214.71668L37.732344 214.39976L37.9001825 214.847225L38.068021 215.6303L37.732344 217.40169L38.608862 216.32042L39.04693425 215.23426375L39.093418 214.73544L39.417468 214.68192375L40.230959 214.30677L40.645850875 214.03626625L41.088711 213.93356L41.3156257695 213.963617031L41.4846479688 214.170463125L41.683088 214.8916225L41.760064 216.00351L42.130615875 215.42777375L42.599051 214.41853L43.251649 212.72179L43.53104 213.26262L43.6071065781 213.844954531L43.538119875 214.63524625L43.363405 215.6303L43.68510425 215.31333125L44.426313 213.93356L44.6447699062 213.088157187L44.57999325 212.609885L44.314149 212.34899L44.837863 211.87341L45.06994 211.35502L44.93023525 211.7666375L44.837863 211.87341L44.92345525 212.68753125L44.859932125 213.486411094L44.573962 214.35204L43.723600875 215.6604825L43.308341 216.11853L43.156832375 215.986725L43.123985 215.38029L43.334856 213.77205L41.805344 216.80416L48.028619 219.49406L48.5810848906 218.786176719L49.936923125 217.33167125L50.7747508848 216.638096621L51.6437945469 216.134260156L52.4875117168 215.945626426L53.24936 216.19766L53.8152041602 216.781699355L54.1421763437 217.468353594L54.2806476055 218.201993223L54.280989 218.92698875L54.0687664062 220.128529531L53.908477 220.62794L57.29369075 222.0055275L60.0381865937 222.96374375L62.162145 223.42267L63.9103061719 223.123976719L65.942751375 222.47677625L67.8911446406 221.972962656L68.7187168066 221.928542832L69.38715 222.10443L70.5601689375 223.061853594L71.64965925 224.37119125L72.765129 226.02488L73.979368 224.80412L72.7789732031 222.918816094L71.3972778965 220.940769629L69.600182375 218.60897875L67.4668854316 216.175832402L65.0765858594 213.893719531L62.5084824512 212.015029082L61.1825039314 211.305838811L59.841774 210.79215L57.1321794844 210.080710918L54.4510134375 209.550349844L49.58433075 208.92656375L46.0624539375 208.708195781L44.706111 208.68265L44.866819 209.40294L44.706111 208.68265L44.5854621875 208.452940156L44.31446425 208.35327375L43.699082 208.11653L43.177006 207.44517L43.61747475 207.11418375L44.2388755 206.941691719L45.190667 206.97897L46.1290655781 207.314125937L46.721022375 207.796955L47.11867 208.41916L47.459784875 208.5492675L47.8917597344 208.513567187L48.502974 208.2344L49.2430164219 207.557468594L49.973795125 206.63130375L50.896361 205.31935L50.975628125 205.1282875L51.362549 205.07707L52.033505 205.03997L54.569232 209.01139L57.11650375 209.6085175L59.3405327812 210.235966562L61.34477 210.97693L63.3496687031 212.093030937L65.631077875 213.61011L67.6320753594 215.095186562L68.795739 216.11528L72.487782 220.88857L70.50666375 218.02637375L69.1367833125 215.822631719L68.679747 214.928350684L68.497593 214.32513L68.6683556562 212.897603281L69.0803425 210.84780625L69.691022 208.20953L70.772486 211.35595625L71.5159925 213.731506719L71.85395 215.25752L72.152106 217.6116325L72.450262 219.2106L72.711295 218.98668L71.704673 211.78941L70.529999 207.70622L70.063811 205.74844L68.914781625 206.6993925L67.192408 208.43345L64.470281 211.9758L61.5059235 210.5679125L59.0430059375 209.542475625L57.030733 208.95553L55.016258 208.68265L51.921726 203.84654M24.771029 217.14718L24.797529 219.70494L25.146921625 221.923265L25.773161 224.31958L26.3687037187 225.139332656L27.3800125 225.80597375L28.5384360312 226.201832969L29.575323 226.20924L29.13354475 226.6605275L28.484273 226.92955L27.6902949062 226.82631625L27.04070775 226.4169325L26.411479 225.7198L26.694531 226.37036L27.1950055 226.933180469L28.0415315 227.51693625L29.192749 228.16009L28.628803125 228.10418L27.589397 227.71266L26.214328625 226.2211025L25.314713 225.06517L26.433509 227.07882L27.0779011719 228.006463125L27.841117625 228.73836L28.745306 229.39104L27.69177875 228.91074875L26.8573554687 228.431092969L26.246702 227.89906L23.785608 223.64823L23.785608 225.54972L24.1119039375 226.373062344L24.829755 227.49359875L25.873902 228.90608L25.2725305 228.514495L24.419441 227.7873L22.839320625 224.4311675L21.510919 221.41066L22.12630475 223.801855L22.9269550937 226.020024062L24.084171 228.23473L24.7737628887 229.108670664L25.4781373594 229.719029687L26.1643987441 230.111132617L26.799651375 230.330305L27.7855477031 230.431160312L28.172661 230.3842L27.9320125 230.5555425L26.880524 230.9642L24.959057625 231.7817425L23.848423 232.36197L25.763348125 232.13785L29.833915 231.91373L31.6768784844 232.0991175L32.929063875 232.50697L33.868571 233.10021L32.846774375 233.70015625L31.9774256094 234.479720156L31.231685 235.60535L30.5394015 237.6159825L30.440419 238.32136L32.118156375 239.56058625L33.4106531406 240.657286094L34.290302 241.66997L34.4047535137 242.053899023L34.2963489844 242.344246563L33.666911875 242.69646L32.549106 242.8528L34.451 246.43267L34.9678274609 247.829568301L35.4951389375 249.818615156L36.4833305 254.61348125L37.508804 260.75259L37.061371 255.90464L36.69298075 253.25698125L35.905066 248.59561L35.3096502344 246.611467031L34.545108625 244.86417875L33.604669 243.14646L34.02987125 243.06077625L35.186805 242.61909L35.6602220469 242.266410625L35.750487625 241.95329L35.582438 241.64347L31.574298 237.74096L31.785168 236.81836L32.1395178437 236.076670313L32.91909275 235.2755825L34.1733047812 234.474498438L35.951566 233.73282L37.8171663281 233.252848125L39.247702625 233.0967375L40.487082 233.15283L40.276211 231.99284L38.034552 232.52022L35.944955875 232.9057225L34.844192 232.99457L33.947689 232.15069L32.8236990781 231.617611406L31.225042875 231.26753375L29.174798 231.01722L29.6923795 230.36128L30.941685 228.30122L31.218399416 227.600532324L31.3409140781 226.918064844L31.267966125 225.70050875L30.862515 224.50394L31.653364 223.79221L34.000261 222.07793L34.936276375 221.96924875L35.9135143281 221.710978906L37.058878 221.20794L39.049737625 219.99818125L39.854011 219.44105L40.618762 219.44105L42.410131 219.16573L41.755591125 219.38545125L41.383523 219.54668L41.48875 219.73104L41.198761 220.25842L40.908761 220.73317L40.882271 222.10444L40.8353103437 222.789627188L40.68455475 223.0175L40.3558162812 223.131657813L39.774907 223.4757L39.34686475 223.872420781L39.35642275 223.99963375L39.66967 223.95005L38.931017 224.71481L38.8099167187 225.102942656L39.10910725 225.28840375L39.722283 225.34782L39.649830875 225.453275L39.063166 225.71695L38.76733025 225.861947188L38.8126305 225.98715L39.353165 226.21781L39.4923975 226.371100156L39.438778 226.55408375L39.247521 226.7717L39.511423 228.45946L35.714143 226.82431L39.300552 229.4877L39.564036 229.80421L34.791134 228.38034L39.959669 230.80593L40.091401 231.41245L38.98720825 230.90819625L37.8109143437 230.511464219L36.399775 230.22596L35.3264644062 230.150561406L34.89339375 230.21608125L34.8311332187 230.326100469L34.870253 230.3842L40.276174 231.99284L40.7011215 233.24165625L41.237933 235.24561L41.9012845 236.8611225L43.068855 238.95845L43.62478 242.80385L43.7821953594 244.21042625L43.796237625 245.8295675L43.6916180781 247.3201625L43.493048 248.3411L42.647577875 250.202935L42.2063389531 251.702436875L41.983511 253.74171L42.1260950625 256.071383281L42.5124955 258.21175375L43.097415 261.02465L42.94405 262.06103L40.807163125 261.77151125L38.641018 261.26201L37.3555685156 260.731353125L36.683218625 260.1215975L36.3569579219 259.482175625L36.109776 258.86252L35.8097235 257.91323875L35.766756 257.28039L35.7042235 255.90253625L35.5703563125 254.914471406L35.265896 254.01049L34.7269670156 253.20132L33.940800625 252.3822875L32.9074261719 251.59292125L31.626873 250.87275L30.2561523906 250.037197188L29.065939625 249.0731075L27.909139 247.94587L28.304365 249.58061L26.310255 249.13903125L24.6445107812 248.690829219L23.26799 248.18326L22.4724265937 247.547909531L22.0847925 246.81858875L21.949753 245.96811L20.97412 244.22773L19.537084 242.16111625L18.812002 241.37998L19.233742 243.48948L17.025280125 242.833465L15.4068451094 242.254525313L14.460845 241.72259L13.62375675 240.06462625L13.3263674375 238.945174531L13.300861 237.8727L13.5381502187 237.094006094L13.85452 236.66634875L14.249974 236.44882L12.94479 235.684195L12.047476 235.002775938L11.639606 234.36583L11.745081125 233.182465L12.166982 231.78157L13.41607425 229.10512875L14.3508404375 227.554302344L15.357343 226.42868L18.89113 223.71308L19.550248 222.34182L20.1740462344 221.484834844L20.980794125 220.62784875L21.976257 219.70494L22.239741 219.96842L22.477124 219.07192L22.5900024062 218.81111125L22.767126 218.7455875L23.057119 218.99272L24.111869 220.97048L24.111869 218.78185L24.2148560312 218.23719125L24.4414275 217.7073825L24.770986 217.1471L24.771029 217.14718M42.162611 222.46582L42.319241 222.56658L43.461273 223.10508625L44.411609375 223.660160156L45.190645 224.30084L47.353572 226.83658L47.323228625 227.002055L46.887385 227.48916L46.216032 227.95536L46.1695665 227.27928375L45.9016364062 226.665025781L45.284043 226.07181L44.4546229531 225.740573281L43.710864625 225.71525125L43.1523939844 225.854233594L42.878837 226.01591L42.524396 226.35159L42.491783375 225.4497275L42.207485 223.77874L42.010508375 222.80176375L42.162635 222.46582L42.162611 222.46582M57.686157 223.11515L56.571846 223.18565L54.4129446094 223.66849125L52.669379625 224.3984875L51.3806748281 225.1878125L50.586354 225.84864L50.1747244688 226.374757031L49.9633005 226.85388375L49.874217 227.48337L50.507225 228.88114L50.26985 229.25028L50.164206 229.22378L50.111526 229.61941L51.693661 230.64765L51.772831 231.35979L51.403713 231.64978L51.00808 231.43891L51.100287625 231.89707625L51.429811 232.49367L52.036315 232.78366L52.379335 231.83455L59.656974 232.59931L60.1517801406 232.527159219L61.281882875 232.22010375L62.5158086719 231.542238906L63.0056197402 231.021782754L63.322084 230.35766L63.5557036094 228.938291406L63.529745875 227.74390875L63.322084 226.61341L62.567282 226.05976125L61.7313106562 225.745870469L60.685209 225.74342L59.145954 226.13881625L58.733955 226.29689L59.976697375 226.69911875L60.9478837031 227.120267656L61.634732 227.61554L62.046746625 228.22853875L62.162107 228.56466L62.478612 228.93378L62.056463 229.40854L60.527221125 229.67546625L59.1866359531 230.020279844L57.969601 230.51591L55.935877875 231.570735L54.9400118594 231.813881563L53.96147 231.6763L53.0884300469 231.136984375L52.415647125 230.4073225L51.720217 229.19767L51.113714 226.27079L52.53433525 226.34988125L53.7501855313 226.337492656L54.80535 226.19159L57.765041875 225.0707975L59.4475670156 224.455990625L60.60608 224.18732L60.8260914746 224.141348828L60.8541251094 224.020130625L60.383926625 223.652125L59.2948200781 223.283646875L57.686141 223.11504L57.686157 223.11515M61.239928 224.68503L60.200271 224.74823L58.2675435625 225.218427813L56.96060375 225.8669025L55.9683095625 226.473425937L54.979519 226.81777L51.697807 227.06004L51.828914875 227.713835781L52.27117825 229.14379625L52.6319337578 229.900731895L53.09800675 230.552781094L53.6785734297 231.000301309L54.38281 231.14365L55.9814113281 230.813280937L57.606284875 230.17877L59.1157939844 229.523281562L60.368302 229.12998L61.804009 228.90606L61.449568 228.51451L61.300339875 228.10421875L60.8359098906 227.696287656L59.864585 227.24644L58.065409375 226.7245375L57.552777 226.65013L58.1679555 225.936915L58.9684671563 225.42298L60.125628 225.13979L61.4022679531 225.229485469L62.465663875 225.53588875L63.463229 226.01589L63.4144527344 225.814463594L63.147883875 225.36784625L62.4831623281 224.912530781L61.239928 224.68501L61.239928 224.68503M44.437712 226.22148L44.943475 226.32349L45.4215948437 226.767610156L45.66363325 227.38473375L45.760849 228.1691L45.233464 228.0899L45.132919375 227.5988925L44.9163924531 227.177890625L44.508277 226.81123L43.9765381719 226.673172031L43.488008625 226.75508625L42.991814 226.99559L42.807459 226.7056L43.334345125 226.45903625L44.437712 226.22145L44.437712 226.22148M57.249332 227.19466L58.109361375 227.2947825L59.137354 227.67554L60.36341975 228.33515125L60.610581 228.53328L60.209668375 228.60322375L58.578164 229.26053L56.601626 230.15538L56.345377 229.43059625L55.8466933437 228.904777969L54.942417 228.60793L53.9711028437 228.625646563L53.3249165 228.79188L52.854112 229.07372L52.425037 228.08585L53.665019125 227.647595L54.8164172969 227.346294688L55.967794 227.20934L57.249332 227.19464L57.249332 227.19466M54.424012 228.90446L54.884087 228.98686L55.3894254062 229.322806094L55.742733 229.76621875L56.017966 230.31814L55.424918 230.55553L55.1744205 230.1699725L54.846459875 229.865966875L54.370168 229.64598L53.480273625 229.6096125L53.144111 229.71168L53.025418 229.31646L53.467884625 229.1082425L54.424012 228.90451L54.424012 228.90446M49.535275 231.83337L49.315841 232.37787L48.929488875 232.97410625L48.304327 233.47423L47.6829617344 233.528995625L47.206748375 233.2131675L46.794393 232.61648L47.066934 232.78434625L48.248448 232.89627L48.930933625 232.71498375L49.315841 232.37787L49.535275 231.83337L49.535275 231.83337M52.87247 232.44884L52.94757 233.04556L62.26985 233.23196L52.87247 232.44884M52.695865 233.60108L52.88022 233.99671L61.951252 234.65583L52.695865 233.60108M70.37826 234.0579L70.41863 234.18474L70.36272 234.07584L70.37826 234.0579M52.32633 234.41845L52.32633 235.10408L61.872123 237.31922L52.352845 234.49758L52.32633 234.41845M69.624513 235.60535L70.362759 236.07971L70.964324125 236.29085L71.292704 236.17961L72.338484 238.34051L72.4722062266 238.931048105L72.45035975 239.638707969L72.08678875 241.23058625L71.107931 243.89693L70.862531625 244.9979925L70.834663 245.73601L67.382854 250.95185L66.4434745 250.95183125L64.297732 250.7936L62.7621784844 250.931227344L60.952233625 251.43968375L58.813099 252.24398L58.839599 255.80348L58.6211974375 256.250959844L58.140714 256.51554375L57.441829 256.67386L55.849905 257.36273125L53.40758 258.62512L52.69314825 259.25755875L52.22097925 259.9270925L51.825465 260.89287L51.3172865 261.13846375L50.099758 261.45125L51.114498 258.07728875L51.867395125 255.842018281L52.511087 254.35349L53.249333 253.16659L53.064977 254.24786L53.308804125 253.7104975L53.7322908594 253.146386562L54.46234 252.48096L55.520797375 251.40688875L56.72015875 249.880485L58.602223 247.33935L62.346473 242.96209L63.098143125 241.91052L63.61249 241.03694L63.61669 240.93451L64.41309475 239.38114L64.799104 238.45303L65.458221 239.61301L65.702127 240.14692L66.348654375 238.967585L66.855585 238.13652L66.512982 241.08991L67.251218 239.95603L67.5071084687 239.345074687L67.632228 238.634045L67.65094 237.39543L67.64674 237.37173L67.6221925 237.09469125L67.65094 237.39543L67.9330578437 238.218190156L68.42271175 238.87875625L68.9143625312 239.200429219L69.0967057539 239.178962324L69.202471 239.00651L69.624619 235.60528L69.624513 235.60535M65.702031 240.14699L65.589857 240.35174L65.712601375 240.4267625L65.702031 240.14699L65.702031 240.14699M17.619841 236.52265L17.440786 236.52765L18.17242525 237.088015L21.395905 240.37754L22.4903143984 241.680625117L23.3084843125 242.852069062L24.276772 244.748125L24.6221006875 245.961890937L24.665803 246.38955L24.907233 246.036055156L25.25248025 244.94589625L25.2863590547 244.11065791L25.132980625 243.074561719L24.7212744453 241.83204373L23.98017 240.37754L23.1174531348 239.165088164L22.1854612656 238.236723437L21.2284998574 237.554766992L20.290874375 237.08154L18.6508530469 236.610559062L17.619841 236.52235L17.619841 236.52265M62.69439 240.19226L62.694807 240.19226L62.742167 240.29872L62.751567 240.87299L58.787466 245.96811L57.284289125 247.67547125L55.939312 249.50149L54.7738580312 250.839022656L53.154145 252.22944625L50.983276 253.84042L50.995958875 253.9753225L50.929456 253.87882L50.983276 253.84042L50.561138 252.80973L49.423703375 249.49999875L48.845633 247.47681L52.985108 245.12749L52.950478 245.14049L53.581859 244.79216L56.075521375 243.39821L57.5745 242.64554L59.050992 242.09164L59.815742 241.30079L60.053128 241.98643L61.846125 240.4569L61.85940275 240.77338875L61.9130267812 240.946481719L62.030887 240.93168L62.6945 240.1922L62.69439 240.19226M45.135173 241.24742L45.414565 241.32412L45.74083375 241.43133875L45.980873125 241.591576094L46.12303 241.8462L46.23866075 242.8673275L46.4245690937 243.641837813L46.793976 244.48349L46.868246 244.88688L47.289977 246.36378L46.61102825 246.39329875L46.0441345625 246.530399531L45.57611 246.83813L44.468746 248.18329L44.36651875 247.1285075L44.3685565937 245.891622812L44.521426 244.25427L45.135273 241.24745L45.135173 241.24742M49.248134 245.53046L49.403127 245.53046L49.92683 245.61246L50.2507267031 245.7450875L50.338790125 245.9034175L49.98879 246.26261L48.218231 246.93316L47.776097 245.62797L48.1439901875 245.790657187L48.450806 245.7453975L49.248104 245.53047L49.248134 245.53046M71.326145 246.50527L71.779294 247.06691L75.396277 249.63975L76.0814295469 250.296652051L76.472493125 251.077247031L76.6319546406 251.916414434L76.622301 252.74903375L76.345595875 254.134146094L76.142273 254.71162L77.302934625 255.9375625L78.4548613906 257.33888875L79.722163 259.14925L80.1791893711 260.142037852L80.3368599687 261.120379062L80.2629132695 262.062868867L80.02508775 262.9481025L79.3287541562 264.461182188L78.789767 265.48838L77.8482845 266.98933125L77.4789535625 267.858677656L77.522102 268.88185L77.5936969609 269.479460176L77.4935398125 270.152690156L76.9020895 271.72074125L75.023487 275.70633L74.4115296934 276.760164805L73.5399895469 277.662359688L72.4709223457 278.422091602L71.266383875 279.0485375L68.6991162656 279.938279062L66.334633 280.405L64.4555401719 280.527333906L63.048448125 280.43288125L61.859888 280.18108L61.990433125 280.69391875L62.456607 281.71018L62.5515198125 282.179233125L62.29327525 282.60983L61.486691 283.53744L61.1336077969 284.012900781L60.647697625 284.40445625L59.025597 285.10366L58.4758413945 285.155517402L57.9278311563 284.987119844L56.89997975 284.22729625L55.557484 282.67969L50.448896 278.46598L49.923565 277.96349L50.187873 277.90629L51.879775625 276.13503125L53.2868051719 274.413861094L54.438688 272.5738L55.0878045 271.087979687L55.380347 269.91679L55.435159 268.619742812L55.371084 266.75635L55.233074834 265.684239668L54.9388340469 264.760248594L54.096958375 263.35024875L53.2760585156 262.513599531L52.906736 262.23755L53.5659275 262.389165L54.1748585 262.68251L54.77885 263.21317L56.308362 265.42792L56.084147375 264.49191375L55.7297625469 263.536928594L55.147978 262.44842L54.3231261094 261.545303594L53.433993125 260.99818125L52.431963 260.65543L52.570499875 260.39504L53.22323 259.60068L53.7678974531 259.242645312L54.297704875 259.14913L54.857979 259.23155L55.385354 260.04892L56.861846 261.34105L57.8391394219 262.561801875L58.549463875 263.9876975L59.129604 265.6653L59.208774 263.76706L58.971388 262.42191L61.054801 262.92318L62.1066385 263.052137812L62.38964875 262.84737L62.282075875 262.548664687L62.162164 262.39581L61.14373425 262.04317L57.89054 260.68193L56.328546375 259.904412812L55.79733475 259.505055L55.8248105 259.357847187L55.938879 259.33678L56.41366175 259.33679L58.628785 259.57416L63.981676 260.44456L61.370898 259.41591L59.5625894219 258.923575625L58.078113875 258.7402675L56.70364 258.7568L57.471634875 258.69093625L60.474395 258.7041L62.5390205469 258.876309219L64.176033125 259.15233625L65.64293 259.52147L62.979539 258.44021L60.9569989219 258.051283437L58.744133875 258.01835L56.229285 258.22934L57.969261 257.51761L60.184395 256.22547L61.5790889531 255.641630781L63.233393625 255.15417875L65.194683 254.69596L59.841793 255.51333L60.54707225 254.88057875L61.6437924062 254.134081406L63.427785 253.14034L65.38071275 252.406110625L66.8491195 252.23053L67.7736735 252.331819375L68.095043 252.4282L68.595903 251.34734L71.326187 246.50511L71.326145 246.50527M47.659072 247.18112L47.984557 247.18112L46.957291375 249.7980925L46.2603787656 251.816719062L45.750241 253.7046L45.5643010937 255.853531875L45.60170275 258.46308L45.843181 262.10019L45.233412 262.13199L43.568497 262.10719L43.710458 261.4880275L43.783029 260.28646L43.5568039687 258.529659531L43.1204175 256.14002875L42.8373025312 253.700956094L42.8667946523 252.645187949L43.070892 251.79583L44.18495725 249.56419625L45.022145 248.34117L45.836334875 247.55668875L46.551647 247.20729L47.659021 247.18109L47.659072 247.18112M48.265576 248.20935L48.792961625 249.96625875L49.399455 252.534L49.715959 254.40612L50.085087 254.45882L51.614599 254.0897L49.715959 260.47083L49.570761 261.5627L46.903699 261.99667L46.643725375 258.0030625L46.5863239844 255.155322812L46.762579 253.03495L47.6920585 249.8706875L48.265576 248.20944L48.265576 248.20935M26.143922 255.5608L28.27831 255.88262L29.3540418125 256.348645938L30.36793725 257.12868L31.745609 258.53296L32.178050625 258.8342975L32.702476 258.97305L33.0602077812 259.571555156L33.486699 260.68414875L33.7203217187 262.271565469L33.499448 264.29454L32.7307682812 266.535069844L31.70204575 268.59994875L30.054168 271.20345L29.913635625 271.2051075L29.882862 271.28745L29.435429 271.62272L29.06237625 271.888445L28.018081 272.34995L26.442538125 272.47579375L25.538231 272.40585L24.769245625 272.51786875L23.301057 272.51801L22.5517109844 272.283164219L21.809321875 271.86997125L21.2347488281 271.379860156L20.988851 270.91426L21.03138475 270.655023281L21.16127775 270.63006875L21.361642 270.76539L22.058605125 271.12655875L23.412824 271.58561L24.282197625 271.5645575L24.662131 271.36169L25.37526175 271.194005L26.73166 270.74663L27.316090375 270.291280156L27.561415 269.76077375L27.719935 269.12453L28.37007625 269.15708875L29.509666 269.10573L29.9714694375 268.972028906L30.16936325 268.80513375L30.199773 268.60242L29.239534625 268.17827125L28.111489 267.5024L28.1653924219 267.363408594L28.570660625 267.39743375L29.882862 267.67004L30.617033625 267.70500375L30.665982 267.61414L29.640187 267.12918L28.9561686094 266.642085313L28.433007875 266.0431375L27.980967 265.32068L27.869211 264.18313L28.391287 263.71735L28.339892875 263.3793125L28.092724 262.5798L28.1687581094 262.177445L28.463281375 262.07398L28.931722 262.16948L28.092724 261.89009L27.7629299687 261.732130938L27.81770125 261.5636175L28.297879 261.18121L28.3409860312 261.056843281L28.19529875 261.02516625L27.9517240937 260.969033594L27.701169 260.7713L27.6510836719 260.225304219L27.831770625 259.42404875L28.186122 258.38444L27.589413 259.46612L26.489357625 260.9762575L25.836795 261.70329L26.619904 261.55441L26.722427875 262.25824375L26.936815 263.04598L27.048620875 262.92948L27.048571 262.72907L27.51478 264.64933L27.5637465 265.3929375L27.40207525 265.7796175L27.067337 266.12255L26.6620591562 266.299667188L26.314437 266.2809875L25.799275 266.04785L24.5546535 264.52349875L23.505815 263.08305L23.170546 260.60319L23.1332375 259.6593775L22.99745575 259.41036375L22.704348 259.59656L22.5467093281 260.449592969L22.743883375 261.72214875L23.1263477344 262.910800156L23.52458 263.51212L23.9444302812 263.902189063L24.44997725 264.63309L25.389362 266.1596L25.8210771875 266.556681094L26.29818425 266.72126875L26.843417 266.73756L26.787507 267.33427L26.6648837187 267.660567344L26.44962475 267.83301625L26.153675 267.91222L24.4196725 267.4742025L23.0859577812 267.0472075L22.182246 266.58869L21.5086577656 265.620269375L20.681223625 264.0714875L19.683632 262.00178L20.338583 263.90600875L21.455006 266.7192L22.1107820625 267.43237875L22.99551175 267.851865L23.8697515625 268.12451625L24.494058 268.39719L24.7207084844 268.85631375L24.629207375 269.4832275L24.3209515781 270.117135L23.897338 270.59724L23.3056811094 270.752226875L22.548019125 270.6065575L21.268619 269.94464L19.895785125 267.77016625L18.90052 265.91733L19.571875 267.80047L19.6569096094 268.502029531L19.511162375 269.17564875L19.142796 269.90753L19.068156 270.20567L19.422594 272.62965L17.222543 270.13104L17.116495 270.09154L17.097745 270.01644L16.55392875 268.8001925L15.832121 266.93131L15.192163875 265.27529875L14.6701 264.13495L14.74271 263.84782L14.93604175 263.30007L15.618816 262.59851L16.450988 261.843305L16.961524 261.14405L18.706393 258.66459L19.098424875 258.387509531L19.64743925 258.18827625L20.895024 257.78115L21.878917875 257.05441L22.516716 256.51553L22.9978295 256.61759625L23.716267 256.77901L24.1915249219 256.632113125L24.640836125 256.3158925L25.417086 255.6847L26.14391 255.56071L26.143922 255.5608M35.799844 259.92991L35.859404 260.04656L35.832074 260.02176L35.799844 259.92991M77.77213 261.31464L76.86917525 263.20011L75.9702892187 264.696609375L74.977404 265.79754L74.0240052812 266.558892031L73.2041 267.41907625L72.6116277187 268.378142344L72.340528 269.43614L72.3099800312 270.681280469L72.05688625 272.07973875L71.6970345039 272.779280137L71.1017260937 273.448532656L70.2110209492 274.064623535L68.964979 274.60468L67.3271418652 275.023993242L65.4044087344 275.309188437L61.324729625 275.5736475L56.571846 275.5538L58.0353121094 276.107548281L61.515987875 277.17549375L63.5863469277 277.624181348L65.6492894531 277.867687344L67.5342424707 277.794768105L68.3566688577 277.604885388L69.070633 277.29418L71.1183604062 275.871087656L72.281115 274.53205625L72.9197898437 273.163364219L73.395278 271.65129L74.1327718437 269.938952969L75.14219075 268.19693375L76.928657 265.53364L77.3719368437 264.407198906L77.627271 263.00883125L77.77213 261.31464L77.77213 261.31464M51.508955 261.76288L52.108931125 262.056573906L52.90239375 262.88449375L53.6849705 264.166896719L54.252289 265.82404L54.3465442734 266.840231621L54.2581439375 268.031241094L53.6557215 270.69996125L52.6897118125 273.354695781L51.604805 275.51994L51.0651072969 276.249555312L50.486553875 276.7707475L49.338278 277.32476L48.535997 277.05762L44.349353875 274.8642575L38.561943 272.12605L37.131128 271.57828L37.844580375 270.0508875L38.77321 267.33929L39.0552406094 265.762431562L39.099707125 264.2814475L38.86375 262.13364L40.980928625 262.49536625L43.941327 262.58026L47.4339089687 262.374670469L49.6335695 262.10234875L51.508945 261.76288L51.508955 261.76288M11.852557 263.00852L12.561026 264.83578L12.997775125 265.07570625L13.626384 265.16003L13.643514 265.19103L14.4676285 265.9095775L15.045334875 266.540776875L15.410408 267.22142L15.779531 269.38353L16.918304 270.0145L14.388286 268.88185L13.8426936328 268.520523906L13.425156125 268.07835625L12.90605625 267.11056L12.654431 265.95457L12.188233 265.56301L12.0020537344 265.014423281L11.901523625 264.15292625L11.852556 263.00853L11.852557 263.00852M38.954718 273.07761L40.976451125 273.91772375L43.150072 274.9999L45.536105 276.259L47.492179 277.8583375L49.814667 279.43549L51.5999666719 280.751117656L54.112447125 282.88476375L56.6948510156 284.962472969L57.8068813301 285.707240215L58.689921 286.11029L59.3663215625 286.213723242L59.9199229375 286.161594062L60.69893525 285.765435L61.1073721875 285.271385937L61.225648 285.02902L61.225648 285.96142L60.5451251719 287.059733125L58.913727125 288.8747125L56.9467095156 290.696685625L55.259328 291.81598L53.8632549219 292.179003594L52.537115875 292.28683875L51.157382 292.2263L46.5984945 289.3548325L43.417065875 287.19191375L42.3350330625 286.344696016L41.871808 285.81213L41.8187721406 285.256815625L41.978984625 284.80985L42.841307 283.49992L43.1251004375 282.675450312L42.985904 282.1341675L42.543161 281.7473L37.658096 278.46598L38.18949075 277.37510375L39.224314 275.55705L39.4783056562 274.780929844L39.38263025 274.01879625L39.037518 273.20772L38.954718 273.07761"
       id="path56" />
  </g>
  <g
     style="display:none"
     transform="translate(0,-198)"
     inkscape:label="Edge.Cut-s"
     id="layer2"
     inkscape:groupmode="layer">
    <path
       style="display:inline;fill:none;fill-rule:evenodd;stroke:#000000;stroke-width:0.20634085px;stroke-linecap:butt;stroke-linejoin:miter;stroke-opacity:1"
       d="m 50.781335,199.41114 c -1.542109,0.45187 -1.366638,2.13707 -3.070742,2.2208 -1.342594,0.97943 0.19156,3.12766 -1.992328,2.06087 -3.598535,0.0733 -6.44586,3.31168 -10.059119,2.18882 -3.506167,-0.29236 -6.281307,2.43536 -7.629634,5.27936 -1.452611,1.25118 -2.447523,2.98804 -4.586312,2.74021 -4.226565,2.30177 -5.813766,7.46297 -9.85044,10.12156 -3.9042295,3.91156 -6.7942364,10.79905 -3.060082,15.68424 0.136213,4.39766 4.796222,6.53632 8.159704,7.6723 0.588125,2.75927 4.673362,4.21506 5.870362,4.98995 -2.740841,0.4374 -5.292859,2.07363 -7.491027,3.48657 -1.28497,1.75764 -1.846095,3.22191 -3.25809,0.95504 -3.550573,-1.75585 -4.8304742,3.35689 -4.3563127,5.94347 -0.098459,4.30039 2.3146647,8.93128 6.6410847,10.14137 3.083181,2.505 7.68098,2.05664 11.58078,2.81333 1.979055,0.14066 6.171392,-1.3414 6.504007,-0.30312 -2.567944,3.3889 2.249194,6.05976 4.077563,7.78348 -1.85189,5.30123 5.146134,7.73729 8.331829,10.22514 4.075263,3.15255 10.456183,3.82659 13.854891,-0.72199 3.164787,-2.39997 5.081944,-6.55918 8.357722,-8.40798 7.631154,-1.70034 13.208175,-9.13449 13.138993,-16.81902 3.772134,-4.26856 2.833832,-10.91756 -1.00378,-14.79469 -0.68861,-3.16317 -2.009501,-6.92917 -5.143795,-8.11707 2.246715,-2.70638 0.500708,-6.72196 0.290931,-9.21222 3.176882,0.37331 4.422438,-3.53434 2.370075,-5.61294 -2.198379,-1.49527 -1.064735,-2.66806 -0.546823,-4.57108 -2.201934,-6.42182 -2.404568,-13.46174 -4.475118,-19.98571 0.01864,-2.93125 -3.841769,-4.04752 -5.143802,-1.28557 -2.489348,1.24539 -3.574976,5.80352 -6.627375,3.62974 -5.003629,-0.10017 -6.054949,-5.28729 -9.457464,-7.81394 -0.421115,-0.24943 -0.938926,-0.38847 -1.425698,-0.29092 z"
       id="path22"
       inkscape:connector-curvature="0"
       sodipodi:nodetypes="ccccccccccccccccccccccccccccccc" />
  </g>
  <g
     transform="translate(0,-198)"
     style="display:none"
     inkscape:label="10"
     id="layer30"
     inkscape:groupmode="layer">
    <path
       inkscape:connector-curvature="0"
       id="path2384"
       d="m 117.66376,219.32849 c -0.57706,-0.22635 -7.72698,-4.86404 -9.59303,-6.22237 -2.70274,-1.96738 -2.75449,-2.11295 -1.46085,-4.10996 0.86047,-1.32833 0.98512,-1.76632 0.67015,-2.35486 -0.0969,-0.18112 -1.63296,-1.29707 -3.41338,-2.47988 -3.74637,-2.48886 -3.57408,-2.09094 -2.06494,-4.76943 1.01507,-1.80159 1.17221,-2.71896 0.64153,-3.74518 -0.15858,-0.30667 -0.21577,-0.55758 -0.12708,-0.55758 0.3333,0 3.63937,1.51637 5.81332,2.66636 1.34182,0.70979 3.06028,1.83375 4.24049,2.77347 1.09141,0.86901 2.53716,1.9073 3.2128,2.30731 0.67563,0.40001 2.92691,2.14284 5.00285,3.87296 4.2328,3.5277 5.63926,4.53236 6.772,4.83737 0.92268,0.24845 1.9607,0.007 2.49227,-0.58084 0.18895,-0.20878 0.4154,-0.3796 0.50324,-0.3796 0.28286,0 0.16874,0.83362 -0.19405,1.41741 -1.02837,1.65483 -4.92937,5.48392 -6.5701,6.449 -1.30341,0.76667 -4.86238,1.29272 -5.92522,0.87582 z"
       style="opacity:1;fill:#7fff00;fill-opacity:1;fill-rule:nonzero;stroke:none;stroke-width:0.35714287;stroke-linecap:round;stroke-linejoin:round;stroke-miterlimit:4;stroke-dasharray:none;stroke-dashoffset:0;stroke-opacity:1" />
    <path
       inkscape:connector-curvature="0"
       id="path2390"
       d="m 108.1408,180.70496 c 0.23396,-1.00748 0.12677,-2.63969 -0.34417,-5.24075 -0.63565,-3.51074 -0.81264,-5.34291 -0.62116,-6.42995 0.32953,-1.87076 2.51209,-5.50428 3.83107,-6.37793 0.57681,-0.38207 0.74548,-0.42637 1.62305,-0.42637 0.53865,0 0.97935,0.0374 0.97935,0.083 0,0.0457 -0.38635,1.08799 -0.85856,2.31627 -1.04047,2.70643 -1.72702,4.93192 -1.95233,6.32866 -0.16637,1.03126 -0.10558,7.37017 0.0903,9.41297 l 0.0801,0.83521 -1.47198,0 -1.47197,0 z"
       style="opacity:1;fill:#7fff00;fill-opacity:1;fill-rule:nonzero;stroke:none;stroke-width:0.25253814;stroke-linecap:round;stroke-linejoin:round;stroke-miterlimit:4;stroke-dasharray:none;stroke-dashoffset:0;stroke-opacity:1" />
    <path
       inkscape:connector-curvature="0"
       id="path2392"
       d="m 112.22881,180.56653 c -0.18995,-1.2338 -0.38242,-6.20542 -0.32211,-8.32033 0.056,-1.96561 0.12017,-2.52132 0.40784,-3.53496 0.66596,-2.34657 1.50048,-4.79045 1.6532,-4.84136 0.26734,-0.0891 1.10034,2.90539 1.5822,5.68774 0.16972,0.98001 0.34531,1.81856 0.3902,1.86345 0.0449,0.0449 0.45581,0.002 0.91315,-0.0965 0.45733,-0.098 0.96769,-0.20705 1.13412,-0.24237 0.2151,-0.0456 0.28452,-0.0113 0.24009,0.11877 -0.48377,1.41608 -2.39771,8.10451 -2.46151,8.60199 l -0.0857,0.66817 -1.06908,0.21238 c -0.588,0.11681 -1.34738,0.24995 -1.68753,0.29588 l -0.61846,0.0835 z"
       style="opacity:1;fill:#7fff00;fill-opacity:1;fill-rule:nonzero;stroke:none;stroke-width:0.25253814;stroke-linecap:round;stroke-linejoin:round;stroke-miterlimit:4;stroke-dasharray:none;stroke-dashoffset:0;stroke-opacity:1" />
    <path
       inkscape:connector-curvature="0"
       id="path2394"
       d="m 109.18825,163.48049 c -0.0801,-0.13106 -0.13934,-1.41578 -0.11603,-2.51583 0.0272,-1.28547 0.10634,-2.06021 0.36483,-3.57269 0.19856,-1.16179 0.51544,-2.53714 0.6063,-2.63146 0.0473,-0.0491 0.62284,0.11792 0.85724,0.2488 0.33527,0.18721 0.38212,0.28709 0.45609,0.97224 0.12406,1.14929 0.26057,1.70587 0.60661,2.47336 0.1113,0.24687 0.226,0.56578 0.25489,0.7087 0.0289,0.14293 0.1672,0.65319 0.30737,1.13393 0.14017,0.48074 0.24549,0.89002 0.23404,0.90951 -0.0115,0.0195 -0.19495,0.0358 -0.4078,0.0363 -0.66496,0.001 -1.31698,0.18864 -1.61011,0.46237 -0.12572,0.11739 -1.11834,1.28807 -1.40473,1.65669 -0.068,0.0875 -0.13491,0.14068 -0.1487,0.11812 z"
       style="opacity:1;fill:#7fff00;fill-opacity:1;fill-rule:nonzero;stroke:none;stroke-width:0.08928572;stroke-linecap:round;stroke-linejoin:round;stroke-miterlimit:4;stroke-dasharray:none;stroke-dashoffset:0;stroke-opacity:1" />
    <path
       inkscape:connector-curvature="0"
       id="path2396"
       d="m 113.67506,161.16031 c -0.14907,-0.43554 -0.27063,-0.8068 -0.27014,-0.82502 5.3e-4,-0.0182 0.0913,0.008 0.2017,0.058 0.27156,0.12326 0.32283,0.11892 0.91474,-0.0775 0.48452,-0.1608 0.54063,-0.16932 0.96333,-0.14624 0.24687,0.0135 0.56301,0.06 0.70255,0.10339 0.25088,0.078 0.47863,0.24992 0.47863,0.36129 0,0.0316 -0.0911,0.14421 -0.20242,0.2502 -0.17532,0.16691 -0.35347,0.24962 -1.33093,0.61792 -0.62068,0.23388 -1.14154,0.43077 -1.15746,0.43755 -0.0159,0.007 -0.15093,-0.34404 -0.3,-0.77958 z"
       style="opacity:1;fill:#7fff00;fill-opacity:1;fill-rule:nonzero;stroke:none;stroke-width:0.08928572;stroke-linecap:round;stroke-linejoin:round;stroke-miterlimit:4;stroke-dasharray:none;stroke-dashoffset:0;stroke-opacity:1" />
  </g>
  <g
     transform="translate(0,-198)"
     style="display:none"
     inkscape:label="9"
     id="layer29"
     inkscape:groupmode="layer">
    <path
       inkscape:connector-curvature="0"
       id="path2382"
       d="m 109.34031,197.57122 c -3.06311,-1.54532 -6.37722,-3.13341 -7.36469,-3.52909 -0.98746,-0.39568 -1.86606,-0.77958 -1.95244,-0.85311 -0.08638,-0.0735 0.0231,-0.48689 0.24337,-0.91858 0.68167,-1.33618 1.49153,-3.71164 1.82283,-5.34667 0.24129,-1.19083 0.28823,-2.06111 0.19717,-3.65555 l -0.11952,-2.09264 1.36895,0.24025 c 2.67965,0.47027 8.33037,0.27881 12.85568,-0.43559 l 2.03732,-0.32163 0.83351,0.81804 c 1.68539,1.65408 2.66219,4.25588 2.44989,6.52553 -0.23876,2.55249 -1.32345,6.00058 -2.82669,8.98561 -1.04902,2.08306 -2.41408,3.39311 -3.53562,3.39311 -0.24225,0 -2.94664,-1.26436 -6.00976,-2.80968 z"
       style="opacity:1;fill:#ffa500;fill-opacity:1;fill-rule:nonzero;stroke:none;stroke-width:0.35714287;stroke-linecap:round;stroke-linejoin:round;stroke-miterlimit:4;stroke-dasharray:none;stroke-dashoffset:0;stroke-opacity:1" />
    <path
       inkscape:connector-curvature="0"
       id="path2400"
       d="m 81.203561,193.93069 c -1.250521,-0.62561 -2.082043,-1.58508 -1.702575,-1.96455 0.03921,-0.0392 0.445127,0.12608 0.902033,0.36732 1.046469,0.55251 2.266969,0.90855 2.814463,0.82103 0.231936,-0.0371 0.692314,-0.15815 1.023059,-0.26905 0.330748,-0.1109 1.049044,-0.33833 1.596215,-0.5054 1.239229,-0.37836 1.703766,-0.7778 1.92667,-1.65668 l 0.169465,-0.66817 1.194017,-0.0188 c 1.246143,-0.0196 1.929869,-0.18953 1.927776,-0.47901 -7.94e-4,-0.0937 -0.508212,-0.40216 -1.127858,-0.68548 -1.098362,-0.50222 -1.674448,-0.92503 -1.449647,-1.06396 0.06126,-0.0379 0.651494,0.044 1.311645,0.18191 0.660149,0.13791 1.380681,0.25016 1.601179,0.24945 0.346136,-10e-4 0.273117,-0.0662 -0.53454,-0.47623 -1.588624,-0.80653 -2.509123,-1.93414 -2.653742,-3.25082 -0.07479,-0.68096 -0.0552,-0.75221 0.2804,-1.01981 l 0.360813,-0.2877 -0.229857,-0.72919 c -0.28884,-0.91631 -0.28819,-1.12686 0.004,-1.29355 0.203634,-0.11616 0.177705,-0.15328 -0.200432,-0.28699 -0.540115,-0.19098 -0.543163,-0.29898 -0.019,-0.67223 l 0.415327,-0.29574 -0.417375,-0.17549 c -0.229558,-0.0965 -0.456597,-0.2777 -0.504529,-0.40261 -0.07791,-0.20302 0.112991,-1.43205 0.315048,-2.02834 0.04248,-0.12538 -0.145354,0.13285 -0.417418,0.57384 -0.27206,0.44099 -0.844502,1.22497 -1.272092,1.74215 l -0.777436,0.94035 0.453398,-0.0529 c 0.344323,-0.0402 0.4534,-0.003 0.4534,0.15556 0,0.46429 0.297556,1.55506 0.405937,1.48807 0.06387,-0.0395 0.17543,0.15555 0.247907,0.43339 0.431808,1.65528 0.548815,2.18064 0.548367,2.46216 -7.93e-4,0.47391 -0.450447,1.11637 -0.916543,1.30944 -0.511312,0.21179 -0.94217,0.11263 -1.481132,-0.34087 -0.46577,-0.39192 -2.611392,-3.21257 -2.804634,-3.68699 -0.164893,-0.40483 -0.40985,-2.21931 -0.40985,-3.03592 0,-0.91274 -0.1359,-1.48123 -0.3541,-1.48123 -0.55623,0 -0.54053,1.67477 0.03272,3.48942 0.262488,0.83092 0.477914,1.22435 0.965602,1.76343 0.345252,0.38165 1.010708,1.31393 1.478791,2.07175 0.935008,1.51376 1.142484,1.70503 1.997585,1.84152 l 0.579276,0.0925 -0.08945,0.48224 c -0.109384,0.58968 -0.412694,0.94996 -0.799761,0.94996 -0.490246,0 -3.63602,-0.90822 -4.403728,-1.2714 -0.863854,-0.40867 -1.244099,-0.93066 -2.53684,-3.48251 -0.481285,-0.95006 -0.87598,-1.67979 -0.877099,-1.62162 -0.0033,0.1725 1.480301,4.12898 1.744024,4.65093 0.354018,0.70066 1.029111,1.23179 2.004896,1.57735 0.472694,0.1674 1.115709,0.39452 1.428917,0.50471 0.313211,0.11019 0.634429,0.32172 0.713817,0.47006 0.292391,0.54633 -0.223901,1.96986 -0.912064,2.51476 -0.310647,0.24597 -0.485526,0.28234 -1.071663,0.22285 -1.025104,-0.10403 -2.134825,-0.70192 -2.706375,-1.45814 -0.26176,-0.34634 -0.835094,-1.29415 -1.274072,-2.10626 -1.090798,-2.01797 -1.17706,-2.11504 -0.713211,-0.80254 0.463116,1.31043 0.441436,1.93999 -0.101346,2.94298 l -0.327065,0.60438 0.20515,1.36586 c 0.237601,1.58193 0.240758,1.63488 0.09744,1.63488 -0.05924,0 -0.566033,-0.52618 -1.126204,-1.1693 -0.560177,-0.64311 -1.173259,-1.33211 -1.362412,-1.53111 -0.391803,-0.41219 -1.201608,-2.18585 -1.867019,-4.08922 -0.249053,-0.71239 -0.695148,-1.84379 -0.991325,-2.5142 -0.735788,-1.66552 -0.678548,-1.91076 0.760367,-3.25783 0.590757,-0.55305 1.412015,-1.51137 1.832351,-2.13816 1.195417,-1.78255 2.069216,-2.93541 2.331098,-3.07557 0.132316,-0.0708 0.741871,-0.28679 1.354564,-0.47995 1.21444,-0.38287 1.627513,-0.62119 2.472528,-1.42654 0.590577,-0.56285 0.486733,-0.54642 1.78017,-0.28159 0.604356,0.12374 0.938271,-0.0105 1.854197,-0.74562 0.82005,-0.65813 0.856949,-0.6724 1.731092,-0.66957 1.206101,0.004 3.089609,0.43751 3.866047,0.89001 0.349403,0.20363 1.298919,1.01052 2.110039,1.7931 1.010306,0.97475 1.609418,1.45244 1.90233,1.51677 0.361053,0.0793 0.4897,0.22409 0.826946,0.93073 1.010682,2.11769 1.068382,4.32664 0.185298,7.09408 -0.458102,1.43562 -1.829243,4.21979 -2.944652,5.97926 -0.761151,1.20066 -1.058595,1.54371 -1.816973,2.0956 -1.362432,0.99147 -1.716995,1.07124 -5.119354,1.15167 l -2.941355,0.0695 z"
       style="opacity:1;fill:#ffa500;fill-opacity:1;fill-rule:nonzero;stroke:none;stroke-width:0.25253814;stroke-linecap:round;stroke-linejoin:round;stroke-miterlimit:4;stroke-dasharray:none;stroke-dashoffset:0;stroke-opacity:1" />
    <path
       inkscape:connector-curvature="0"
       id="path2539"
       d="m 71.794686,190.06611 c -1.05266,-0.51293 -1.202224,-0.6078 -1.605684,-1.01853 -0.317519,-0.32323 -0.524992,-0.61513 -0.724631,-1.01949 -0.247718,-0.50175 -0.549589,-1.49799 -0.550886,-1.81804 -2.59e-4,-0.0635 -0.162525,-0.27403 -0.360598,-0.46772 -0.402037,-0.39315 -0.456787,-0.55316 -0.575865,-1.68307 -0.14786,-1.40301 -0.04716,-1.50917 0.374258,-0.39456 0.153342,0.40557 0.329216,0.81435 0.390835,0.90839 0.133574,0.20386 0.53753,0.37753 1.002511,0.43099 0.290645,0.0334 0.409284,0.0983 0.851498,0.46543 0.702828,0.58354 1.326094,1.27128 1.574072,1.7369 0.220721,0.41445 0.344292,0.97225 0.51538,2.32644 0.08333,0.65956 0.125147,0.81807 0.235709,0.89347 0.132715,0.0905 0.181613,0.21071 0.0843,0.20721 -0.02756,-0.001 -0.572466,-0.25633 -1.210895,-0.56742 z"
       style="opacity:1;fill:#ffa500;fill-opacity:1;fill-rule:nonzero;stroke:none;stroke-width:0.12626907;stroke-linecap:round;stroke-linejoin:round;stroke-miterlimit:4;stroke-dasharray:none;stroke-dashoffset:0;stroke-opacity:1" />
  </g>
  <g
     transform="translate(0,-198)"
     style="display:none"
     inkscape:label="8"
     id="layer28"
     inkscape:groupmode="layer" />
  <g
     transform="translate(0,-198)"
     style="display:none"
     inkscape:label="7"
     id="layer27"
     inkscape:groupmode="layer">
    <path
       inkscape:connector-curvature="0"
       id="path2413"
       d="m 112.23862,134.62416 c -1.61417,-1.8772 -2.13085,-2.44446 -2.5041,-2.74923 -0.4801,-0.39202 -1.57579,-1.00787 -2.48047,-1.39418 -0.7483,-0.31954 -1.65805,-0.63376 -1.75868,-0.60745 -0.0689,0.018 -0.0786,-1.4e-4 -0.0557,-0.10361 0.0608,-0.27442 0.0825,-0.32466 0.25961,-0.60048 0.10101,-0.15732 0.27064,-0.48686 0.37695,-0.73232 0.33905,-0.78284 0.45828,-0.97282 0.71317,-1.13639 0.12761,-0.0819 0.24026,-0.14064 0.25033,-0.13057 0.0101,0.0101 -0.10602,0.19154 -0.25799,0.40327 l -0.27631,0.38495 0.83287,0.63043 c 2.90201,2.19665 5.00693,4.06491 5.66207,5.02549 0.36307,0.53235 0.64621,1.09397 0.82068,1.62788 0.17767,0.54369 0.30229,1.42149 0.20115,1.41685 -0.0195,-8e-4 -0.8221,-0.91648 -1.78357,-2.03464 z"
       style="opacity:1;fill:#7fff00;fill-opacity:1;fill-rule:nonzero;stroke:none;stroke-width:0.08928572;stroke-linecap:round;stroke-linejoin:round;stroke-miterlimit:4;stroke-dasharray:none;stroke-dashoffset:0;stroke-opacity:1" />
    <path
       inkscape:connector-curvature="0"
       id="path2415"
       d="m 111.41179,137.57348 c 0,-0.63641 -0.21041,-1.1537 -0.66851,-1.64349 -0.96725,-1.03416 -2.79462,-1.21883 -3.6823,-0.37213 -0.14537,0.13867 -0.27502,0.25212 -0.2881,0.25212 -0.0131,0 -0.0377,-0.3136 -0.0546,-0.6969 -0.0387,-0.87394 -0.18051,-1.84813 -0.35703,-2.45228 -0.19973,-0.68354 -0.24567,-0.91002 -0.25536,-1.25895 -0.007,-0.24484 0.01,-0.33215 0.0745,-0.39709 0.0685,-0.0685 0.0977,-0.0728 0.16503,-0.0246 0.045,0.0323 0.20937,0.11534 0.36528,0.18459 0.60172,0.26722 1.82619,0.91133 2.22655,1.17123 0.76271,0.49513 1.02134,0.74328 2.15758,2.07023 1.70214,1.98783 1.73336,2.02688 1.73389,2.16878 7.9e-4,0.2172 -0.61911,0.8153 -1.28701,1.24172 l -0.12993,0.083 z"
       style="opacity:1;fill:#7fff00;fill-opacity:1;fill-rule:nonzero;stroke:none;stroke-width:0.08928572;stroke-linecap:round;stroke-linejoin:round;stroke-miterlimit:4;stroke-dasharray:none;stroke-dashoffset:0;stroke-opacity:1" />
    <path
       inkscape:connector-curvature="0"
       id="path2417"
       d="m 124.52955,140.44788 c -0.0473,-0.29576 -0.34975,-0.84233 -0.61031,-1.10288 -0.45634,-0.45635 -1.06057,-0.6535 -1.99499,-0.65095 -0.77187,0.002 -1.47869,0.17085 -1.89281,0.45188 -0.0965,0.0655 -0.19233,0.10174 -0.21303,0.0806 -0.05,-0.051 -0.52902,-1.15253 -0.50863,-1.16962 0.0827,-0.0693 1.47584,-0.53809 2.17991,-0.73353 1.04624,-0.29042 1.43874,-0.33964 2.91503,-0.3655 1.58593,-0.0278 1.90203,0.008 2.69308,0.30232 0.75239,0.28022 2.56824,1.2417 2.49098,1.31896 -0.01,0.01 -0.17706,0.0588 -0.37127,0.10847 -0.48795,0.1248 -1.28317,0.44579 -2.36272,0.95371 -1.22218,0.57502 -2.15527,0.98782 -2.23287,0.98782 -0.037,0 -0.0755,-0.0756 -0.0924,-0.1813 z"
       style="opacity:1;fill:#7fff00;fill-opacity:1;fill-rule:nonzero;stroke:none;stroke-width:0.08928572;stroke-linecap:round;stroke-linejoin:round;stroke-miterlimit:4;stroke-dasharray:none;stroke-dashoffset:0;stroke-opacity:1" />
    <path
       inkscape:connector-curvature="0"
       id="path2419"
       d="m 122.9869,141.00615 c -0.10411,-0.25134 -0.57763,-0.69575 -0.90401,-0.84842 -0.51523,-0.24102 -1.2745,-0.28202 -1.76553,-0.0953 -0.0883,0.0336 -0.12579,0.0302 -0.13877,-0.0125 -0.01,-0.0322 -0.0409,-0.1308 -0.0692,-0.21914 -0.0283,-0.0883 -0.0514,-0.17584 -0.0514,-0.19447 0,-0.0558 0.63968,-0.32432 1.02361,-0.42965 0.26929,-0.0739 0.4596,-0.0943 0.76585,-0.082 0.51483,0.0206 0.84976,0.1728 1.22973,0.55886 0.25819,0.26233 0.71332,0.98909 0.71332,1.13905 0,0.049 -0.11142,0.11893 -0.32008,0.2008 -0.17605,0.0691 -0.34356,0.12558 -0.37225,0.12558 -0.0287,0 -0.0788,-0.0642 -0.11128,-0.14274 z"
       style="opacity:1;fill:#7fff00;fill-opacity:1;fill-rule:nonzero;stroke:none;stroke-width:0.08928572;stroke-linecap:round;stroke-linejoin:round;stroke-miterlimit:4;stroke-dasharray:none;stroke-dashoffset:0;stroke-opacity:1" />
    <path
       inkscape:connector-curvature="0"
       id="path2421"
       d="m 110.36986,138.09122 c -0.16588,-0.0178 -0.16878,-0.0219 -0.24598,-0.35085 -0.10069,-0.42904 -0.24459,-0.72238 -0.47925,-0.97698 -0.50561,-0.54855 -1.18705,-0.64335 -1.98256,-0.2758 l -0.34318,0.15856 -0.10667,-0.16272 c -0.0587,-0.0895 -0.0998,-0.16877 -0.0915,-0.17617 0.0741,-0.0656 0.5955,-0.29133 0.94893,-0.41089 0.59786,-0.20225 1.25571,-0.23793 1.64863,-0.0894 0.30901,0.11679 0.58273,0.38514 0.77018,0.75505 0.13447,0.26535 0.28642,0.86953 0.3248,1.29141 l 0.0247,0.27167 -0.15014,-0.008 c -0.0826,-0.004 -0.22568,-0.016 -0.318,-0.0259 z"
       style="opacity:1;fill:#7fff00;fill-opacity:1;fill-rule:nonzero;stroke:none;stroke-width:0.08928572;stroke-linecap:round;stroke-linejoin:round;stroke-miterlimit:4;stroke-dasharray:none;stroke-dashoffset:0;stroke-opacity:1" />
    <path
       inkscape:connector-curvature="0"
       id="path2423"
       d="m 113.31741,144.95577 c -0.365,-0.1212 -0.75199,-0.45081 -0.98185,-0.83624 -0.12211,-0.20475 -0.1216,-0.25614 0.002,-0.17604 0.18285,0.11873 0.56865,0.19313 1.09703,0.21156 0.77994,0.0272 1.23297,-0.072 1.59669,-0.34963 0.0809,-0.0618 0.15576,-0.10368 0.16632,-0.0931 0.0316,0.0317 -0.28959,0.4772 -0.493,0.6838 -0.46284,0.47007 -1.00181,0.68757 -1.38694,0.55968 z"
       style="opacity:1;fill:#7fff00;fill-opacity:1;fill-rule:nonzero;stroke:none;stroke-width:0.06313454;stroke-linecap:round;stroke-linejoin:round;stroke-miterlimit:4;stroke-dasharray:none;stroke-dashoffset:0;stroke-opacity:1" />
    <path
       inkscape:connector-curvature="0"
       id="path2408"
       d="m 112.07933,113.53882 c -0.40278,-0.0207 -1.1505,-0.0517 -1.66159,-0.0689 -0.92743,-0.0312 -0.92933,-0.0315 -0.95744,-0.14354 -0.0348,-0.13878 -0.20179,-0.22752 -0.57014,-0.30302 -0.37671,-0.0772 -0.57979,-0.18618 -0.80696,-0.43298 -0.27147,-0.29493 -0.50439,-0.64856 -0.47597,-0.72263 0.0391,-0.1019 0.43398,-0.35298 0.72857,-0.46326 0.23492,-0.0879 0.37121,-0.10156 1.02683,-0.10259 0.8737,-0.001 1.1342,0.0522 1.77176,0.36469 0.49642,0.24326 1.03087,0.74844 1.29382,1.22294 0.19581,0.35336 0.3025,0.41635 0.70942,0.41889 0.22218,0.001 0.23383,0.007 0.14928,0.0709 -0.0908,0.0687 -0.0908,0.0701 0,0.13874 0.0837,0.0633 0.0671,0.0689 -0.19177,0.0639 -0.15591,-0.003 -0.61303,-0.0224 -1.01581,-0.0431 z"
       style="opacity:1;fill:#7fff00;fill-opacity:1;fill-rule:nonzero;stroke:none;stroke-width:0.08928572;stroke-linecap:round;stroke-linejoin:round;stroke-miterlimit:4;stroke-dasharray:none;stroke-dashoffset:0;stroke-opacity:1" />
  </g>
  <g
     transform="translate(0,-198)"
     style="display:none"
     inkscape:label="6"
     id="layer26"
     inkscape:groupmode="layer">
    <path
       id="path2404"
       d="m 107.0467,112.90318 c -0.46597,-0.0215 -1.25347,0.18638 -1.67173,0.46044 -0.31093,0.20373 -0.32775,0.28291 -0.33487,1.5689 l -0.008,1.35444 -0.27234,-0.86869 c -0.31781,-1.01276 -0.8165,-1.73736 -1.19574,-1.73736 -0.38147,0 -1.02559,0.34994 -1.74821,0.95033 -0.54645,0.45402 -0.71125,0.51987 -1.3069,0.51987 -0.43587,0 -0.98106,-0.1269 -1.512569,-0.3514 -1.486654,-0.62796 -3.308262,-0.55755 -4.760434,0.18345 -0.927653,0.47335 -1.168315,0.81301 -1.491382,2.10582 -0.404966,1.62053 -0.831397,2.26012 -2.204,3.30574 -0.650134,0.49525 -1.425752,1.13354 -1.723409,1.41851 -0.297656,0.28497 -0.909256,0.76336 -1.35909,1.06351 -1.051952,0.7019 -1.888228,1.65143 -2.007113,2.27841 -0.282999,1.4925 0.899496,7.38022 1.832446,9.12347 0.328347,0.61353 1.677484,0.85896 2.896981,0.5271 l 0.567925,-0.15451 5.29e-4,-0.82992 5.3e-4,-0.82993 1.682585,-1.3348 1.682068,-1.3348 -0.780831,-0.23358 c -0.429506,-0.12859 -0.852458,-0.23459 -0.939995,-0.23564 -0.08753,-0.001 -0.187466,-0.0477 -0.222208,-0.10387 -0.03474,-0.0562 0.85992,-0.11483 1.98851,-0.13023 3.096126,-0.0423 3.600313,-0.18369 5.469949,-1.53014 0.848158,-0.61082 1.542538,-1.18162 1.542538,-1.26865 0,-0.22363 0.27891,-0.27954 1.87069,-0.37466 0.77174,-0.0461 2.09463,-0.17406 2.93987,-0.28422 0.84524,-0.11015 1.9278,-0.18069 2.40554,-0.15709 l 0.86868,0.0429 -0.90227,0.43356 c -0.49612,0.2384 -0.90175,0.48231 -0.90175,0.54209 0,0.0598 0.52552,0.55537 1.16789,1.10122 2.86324,2.43307 5.27532,5.01658 5.91281,6.33347 0.26573,0.54892 0.29596,0.77002 0.23306,1.68775 -0.0398,0.58081 -0.0238,1.08544 0.0351,1.12189 0.059,0.0365 0.42289,0.43104 0.80874,0.87644 0.65037,0.75073 0.6804,0.81515 0.41444,0.8847 -0.18859,0.0493 -0.2868,0.18021 -0.2868,0.3824 0,0.16917 -0.0292,0.38788 -0.0646,0.48576 -0.0388,0.10734 0.26615,0.40352 0.76843,0.74621 0.45802,0.3125 1.01353,0.71712 1.23403,0.89917 l 0.40049,0.33073 -0.66145,-0.19275 c -0.36407,-0.10598 -0.68486,-0.16987 -0.71262,-0.14211 -0.0278,0.0278 0.0146,0.17193 0.094,0.32039 0.24202,0.45222 0.16406,0.94785 -0.27906,1.77922 -0.50521,0.94787 -0.99564,1.39079 -1.75441,1.58492 -0.30903,0.0791 -0.63677,0.16917 -0.72864,0.19998 -0.24883,0.0835 -0.20002,1.11466 0.0822,1.73582 0.32352,0.71213 1.02627,1.30809 1.97817,1.6769 0.66083,0.25603 1.10468,0.31041 2.91766,0.35863 1.17598,0.0313 2.48341,7.9e-4 2.90576,-0.0677 0.6576,-0.10649 0.74527,-0.097 0.6103,0.0656 -0.36047,0.43435 -1.20488,0.71738 -2.41949,0.81081 l -1.23042,0.0946 0.005,0.69401 c 0.004,0.56589 0.0863,0.80621 0.44287,1.30276 l 0.43718,0.60927 -0.34675,0 c -0.46251,0 -1.15083,-0.30102 -1.4459,-0.63252 -0.13153,-0.14776 -0.41292,-0.68254 -0.62529,-1.18804 l -0.38602,-0.91881 -0.77773,-0.22324 c -0.42785,-0.12274 -1.27356,-0.22822 -1.87947,-0.2341 l -1.10174,-0.0103 -0.39378,-0.54363 c -0.21642,-0.29876 -0.4122,-0.59747 -0.43511,-0.66404 -0.0229,-0.0666 -0.19194,-0.1376 -0.37569,-0.15813 -0.28009,-0.0313 -0.3412,0.0249 -0.37827,0.34985 -0.0243,0.21315 0.0237,0.65681 0.10645,0.98547 0.0827,0.32865 0.1211,0.62666 0.0853,0.66249 -0.12193,0.12193 -0.8858,-0.51804 -1.09037,-0.91364 -0.1121,-0.21677 -0.24013,-0.78524 -0.28474,-1.26297 -0.0809,-0.86633 -0.0835,-0.87123 -1.02784,-1.79162 -0.52079,-0.50757 -0.91813,-0.9485 -0.88264,-0.98031 0.0355,-0.0318 0.96664,0.4434 2.06913,1.05627 1.10248,0.61287 2.15461,1.13092 2.33835,1.15135 0.32965,0.0367 0.33356,0.0256 0.29146,-0.83147 -0.0402,-0.81829 -0.071,-0.89156 -0.53433,-1.26711 -1.37885,-1.11752 -1.82503,-1.89 -1.79731,-3.11299 0.0186,-0.81996 0.3417,-2.22696 0.5395,-2.34921 0.0546,-0.0338 0.62033,0.0776 1.25677,0.24753 l 1.15704,0.30903 0.0744,-0.28784 c 0.0409,-0.1583 0.25649,-0.39001 0.47904,-0.51521 0.27079,-0.15235 0.40463,-0.33172 0.40463,-0.54158 0,-0.17246 0.061,-0.37412 0.13539,-0.44855 0.0913,-0.0913 0.075,-0.30632 -0.0501,-0.66145 -0.1402,-0.39796 -0.24661,-0.51463 -0.43615,-0.4775 -0.13784,0.027 -0.5101,0.0412 -0.82734,0.0315 -0.49717,-0.0152 -0.68608,0.0688 -1.36943,0.60565 -0.63723,0.50064 -0.92217,0.63498 -1.45055,0.68575 -1.17457,0.11286 -3.06107,-0.50778 -3.80597,-1.25212 -0.88655,-0.88587 -1.5503,-3.17619 -1.5503,-5.34903 0,-1.07272 -0.13621,-1.22784 -0.48265,-0.55035 -0.12216,0.23887 -0.42457,0.66003 -0.6718,0.93586 -0.4149,0.4629 -0.4498,0.57079 -0.45372,1.40301 -0.003,0.5801 -0.0738,0.99428 -0.19998,1.16117 -0.14665,0.19389 -0.19637,0.65574 -0.19637,1.82883 l 0,1.56941 2.73626,1.57872 c 1.50496,0.86835 2.73752,1.6561 2.73937,1.75028 0.008,0.40911 -0.52699,0.25042 -2.86339,-0.84904 -1.36496,-0.64233 -2.52388,-1.12551 -2.57556,-1.07384 -0.22988,0.22989 0.30828,0.61325 2.1022,1.49758 1.76178,0.8685 2.32041,1.25147 2.11977,1.45211 -0.0412,0.0412 -0.83968,-0.19648 -1.77457,-0.52813 -1.88534,-0.66882 -1.94975,-0.68257 -1.94975,-0.41548 0,0.11964 0.70194,0.44542 1.93787,0.89969 1.51967,0.55855 1.93786,0.76453 1.93786,0.95446 0,0.20007 -0.0758,0.22853 -0.4346,0.16433 -1.70419,-0.30491 -2.57963,-0.43695 -2.62258,-0.39532 -0.0275,0.0266 0.26054,0.53228 0.63976,1.12344 0.8793,1.37076 1.19394,2.11188 1.29811,3.05718 0.0942,0.85474 1.10927,3.7136 1.54409,4.34857 0.54325,0.7933 0.95142,1.15761 1.20561,1.07694 0.16009,-0.0508 0.43226,0.0858 0.79996,0.40049 0.61958,0.53035 0.84351,0.57879 1.19527,0.26045 0.22166,-0.20061 0.28274,-0.19057 0.84336,0.13798 0.33284,0.19505 0.93813,0.77302 1.3472,1.28571 0.40861,0.51212 0.8009,0.93069 0.87127,0.93069 0.0704,0 0.13081,-0.31538 0.13436,-0.70125 l 0.006,-0.70177 0.39687,0.76843 c 0.44708,0.86616 0.65844,0.97324 0.66146,0.33435 0.004,-0.75096 0.14805,-0.80156 0.80357,-0.28112 1.60332,1.27295 2.9783,1.364 3.51761,0.23306 0.28042,-0.58805 0.48783,-0.47465 0.48783,0.26717 0,0.31416 0.0399,0.61142 0.0889,0.66042 0.15894,0.15895 0.26628,0.0956 0.42426,-0.25115 0.0853,-0.18715 0.33242,-0.44189 0.54932,-0.56637 0.46645,-0.2677 0.88066,-0.95763 1.01751,-1.69395 0.0936,-0.50387 0.10419,-0.51348 0.22531,-0.20051 0.07,0.18075 0.16633,0.62935 0.21394,0.99684 0.0771,0.59541 0.12451,0.67275 0.43718,0.709 0.27772,0.0322 0.46687,-0.0934 0.90641,-0.60151 l 0.55552,-0.64182 0.40773,0.44855 0.40772,0.44907 0.38964,-0.37362 c 0.21444,-0.20544 0.39016,-0.48065 0.39016,-0.61134 0,-0.13069 0.19521,-0.46045 0.43408,-0.73328 l 0.4346,-0.4961 0.0667,0.51418 c 0.0367,0.28291 0.13751,0.53749 0.22376,0.56586 0.0863,0.0284 0.40406,-0.31285 0.70642,-0.7581 0.53044,-0.78109 0.82987,-1.08378 0.54467,-0.55087 -0.2026,0.37855 -0.16922,0.94087 0.0615,1.0294 0.39316,0.15087 1.4492,-0.52028 1.89497,-1.20458 0.60556,-0.9296 0.73471,-1.03444 0.63045,-0.51315 -0.12052,0.60265 0.13048,0.5505 0.5731,-0.11834 l 0.36276,-0.54776 0.2806,0.64182 0.28009,0.64182 0.30592,-0.3054 c 0.16811,-0.16811 0.69237,-0.90212 1.16531,-1.63091 0.47293,-0.7288 0.88812,-1.32498 0.92242,-1.32498 0.0343,0 0.13034,0.27158 0.21394,0.60358 0.0836,0.33199 0.21084,0.63961 0.28215,0.68367 0.22243,0.13748 1.29953,-1.03673 2.00763,-2.18901 0.37263,-0.60637 0.71632,-1.10277 0.7643,-1.10277 0.048,0 0.20616,0.37172 0.3514,0.82579 0.14524,0.45406 0.3325,0.84808 0.41599,0.87591 0.0894,0.0298 0.30446,-0.43291 0.52349,-1.12603 0.39747,-1.25781 0.58131,-1.51102 1.09605,-1.51102 0.34767,0 0.35044,-0.0431 0.0889,-1.2702 -0.0785,-0.36846 0.005,-0.48848 1.01596,-1.46968 l 1.10123,-1.06867 -0.0284,-1.10278 c -0.0159,-0.60636 0.006,-1.10225 0.0496,-1.10225 0.0433,0 0.30195,0.11295 0.57464,0.25115 0.27269,0.13819 0.74099,0.2922 1.04076,0.34209 1.12506,0.18724 1.12671,-0.58039 0.006,-3.17862 -0.74216,-1.72092 -0.74999,-1.91383 -0.062,-1.54564 0.23257,0.12447 0.261,0.11019 0.19895,-0.10025 -0.0398,-0.13493 -0.11471,-0.4858 -0.1664,-0.7798 -0.17156,-0.9759 -2.37466,-3.88852 -3.64215,-4.81469 -1.14978,-0.84015 -2.02733,-0.77718 -5.76606,0.41393 -3.69533,1.17728 -4.45409,1.14181 -8.76173,-0.41341 -2.05897,-0.74337 -5.29083,-2.0479 -5.44929,-2.19935 -0.0619,-0.0592 -0.009,-0.57372 0.11783,-1.1436 0.4223,-1.89819 0.0938,-3.41164 -0.93741,-4.31705 -1.34012,-1.17664 -3.42948,-0.0608 -6.28541,3.3569 l -0.5333,0.6382 -3.87159,-1.68103 c -2.12923,-0.9245 -3.89151,-1.70145 -3.91656,-1.72651 -0.0251,-0.0251 0.37582,-0.87861 0.8909,-1.89704 0.56929,-1.12562 0.93935,-1.72951 0.94361,-1.53996 0.003,0.11895 0.0394,0.19111 0.0884,0.22686 -0.009,-0.005 -0.0182,-0.009 -0.0264,-0.0176 -0.052,-0.052 -0.06,-0.0221 -0.10697,0.4067 -0.0211,0.19293 -0.0764,0.53822 -0.12299,0.76791 -0.13129,0.6475 -0.11232,0.91236 0.0775,1.0883 l 0.0894,0.0832 0.13126,-0.12609 c 0.20952,-0.20192 0.67764,-0.79645 0.94775,-1.20354 0.50005,-0.75364 0.77167,-1.36701 0.90071,-2.03399 0.0915,-0.47297 0.0766,-1.7642 -0.0222,-1.91874 -0.025,-0.0392 -0.0555,-0.0226 -0.15709,0.0853 -0.0692,0.0735 -0.20079,0.19827 -0.29249,0.27699 l -0.1664,0.14314 0.093,0.0693 c 0.0513,0.0382 0.134,0.14693 0.18345,0.24133 0.0807,0.154 0.0894,0.20562 0.0879,0.5054 -10e-4,0.24151 -0.0229,0.41276 -0.0791,0.61805 -0.16303,0.59635 -0.56067,1.47422 -0.91105,2.01176 -0.1852,0.28411 -0.57173,0.72687 -0.60565,0.6935 -0.01,-0.01 0.0178,-0.21293 0.062,-0.45114 0.10565,-0.56974 0.19911,-1.2809 0.17208,-1.30793 -0.007,-0.007 -0.0214,-0.004 -0.0388,0.005 0.0356,-0.0481 0.0656,-0.11338 0.0822,-0.19895 0.0681,-0.35117 -0.0905,-1.06378 -0.30075,-1.35134 -0.17338,-0.23703 -0.19863,-0.21972 -0.40729,0.27749 -0.12238,0.29161 -0.34177,0.89875 -0.48782,1.34927 -0.14605,0.45052 -0.45587,1.11223 -0.68833,1.4702 l -0.42272,0.6506 -0.0935,-0.89193 c -0.0514,-0.49073 -0.17667,-1.06218 -0.27802,-1.26969 -0.23832,-0.48793 -0.59127,-0.45604 -1.77354,0.16019 -0.49039,0.25562 -0.97771,0.46509 -1.08262,0.46509 -0.11114,0 -0.19068,0.13063 -0.19068,0.31368 0,0.50375 -0.27387,1.16853 -0.80926,1.96319 -0.56309,0.83579 -1.04799,1.31659 -0.88211,0.87488 0.0528,-0.1406 0.16693,-0.66731 0.25321,-1.17047 0.15547,-0.90663 0.0185,-1.9803 -0.29249,-2.29444 -0.2091,-0.21123 -0.674196,0.18776 -1.024224,0.8785 -0.433236,0.85496 -1.562211,1.99566 -2.783808,2.81379 -0.510514,0.34189 -0.946669,0.6031 -0.969449,0.58032 -0.02278,-0.0228 0.228489,-0.57702 0.558623,-1.23196 0.748294,-1.48453 0.806968,-1.78782 0.553452,-2.88097 -0.164682,-0.71009 -0.368943,-1.09689 -1.064016,-2.01848 -0.820018,-1.08724 -1.514796,-2.5183 -1.351339,-2.78277 0.04208,-0.0681 0.238363,-0.12149 0.436147,-0.11938 0.308795,0.003 0.32639,0.0231 0.125574,0.14005 -0.361537,0.21057 -0.289073,0.33375 0.467673,0.79426 1.04662,0.63691 1.281977,0.90046 1.378728,1.54564 0.124814,0.83233 0.297979,1.01938 0.80822,0.8723 0.552722,-0.15931 1.453306,0.017 1.946134,0.38138 0.219173,0.16204 0.419715,0.27326 0.445965,0.24701 0.0263,-0.0263 0.0976,-0.79831 0.15865,-1.71566 l 0.1111,-1.66811 0.43098,0.73535 c 0.29989,0.51142 0.43096,0.9062 0.43202,1.29811 0.001,0.61832 0.18431,0.78887 1.05833,0.98599 0.78428,0.17688 1.22387,-0.11643 2.04949,-1.36788 0.40522,-0.61421 0.87199,-1.23689 1.03715,-1.38389 l 0.30023,-0.26768 0.28371,0.38912 c 0.15606,0.21396 0.40387,0.52765 0.55087,0.69712 l 0.26717,0.3085 1.02836,-0.36121 c 0.73917,-0.2594 1.04864,-0.4362 1.10071,-0.62994 0.1653,-0.61511 0.0661,-2.14986 -0.17312,-2.67632 -0.28195,-0.62064 -1.06671,-1.35822 -1.58285,-1.48777 -0.0514,-0.0129 -0.1112,-0.0207 -0.17777,-0.0238 z m 18.896,18.87637 c 0.98901,5.3e-4 1.92471,0.10817 2.5802,0.32298 0.52692,0.17267 1.09091,0.45516 1.25316,0.62787 l 0.29507,0.31419 -0.38447,0.0786 c -1.1589,0.23772 -2.15281,0.56094 -4.31602,1.40405 -3.24876,1.2662 -3.59531,1.34672 -5.75727,1.33428 -0.99224,-0.006 -1.84245,-0.007 -1.88929,-0.004 -0.0468,0.004 0.0835,0.81553 0.28939,1.80454 0.43799,2.10408 0.80776,2.88511 1.87999,3.97185 0.5931,0.60114 0.90537,0.80427 1.50378,0.97824 1.07789,0.31335 1.88175,0.11223 4.04162,-1.01286 1.82392,-0.95009 3.26445,-1.44557 5.02759,-1.72909 0.63358,-0.10188 1.11123,-0.25443 1.23921,-0.39584 0.18993,-0.20988 0.17391,-0.29969 -0.18345,-1.01855 -0.21547,-0.43342 -0.53388,-0.92075 -0.70746,-1.08313 -0.37191,-0.34794 -2.06559,-1.14929 -2.89956,-1.37201 -0.32918,-0.0879 -0.53364,-0.20626 -0.46767,-0.27079 0.23141,-0.22638 2.25502,-0.66791 3.04891,-0.66508 0.62319,0.002 0.97853,0.0899 1.53996,0.37983 1.12871,0.58298 1.23413,0.79654 1.30999,2.6479 0.10282,2.5092 -0.31666,3.68289 -1.65158,4.61832 -0.65838,0.46135 -2.42675,1.03766 -3.18378,1.03766 -0.52361,0 -7.38892,-0.68578 -8.7173,-0.87074 -0.55429,-0.0772 -0.55466,-0.077 -0.74311,0.48834 -0.10373,0.31119 -0.24528,0.58452 -0.31419,0.60719 -0.3063,0.10081 -0.98187,-0.4953 -1.11828,-0.9865 -0.1899,-0.68386 -0.18129,-0.73829 0.0946,-0.59066 0.35583,0.19044 0.69815,-0.0625 0.69815,-0.51573 0,-0.464 -0.11627,-0.58766 -1.23765,-1.31826 -0.68622,-0.44709 -0.85776,-0.62418 -0.80408,-0.82941 0.0375,-0.14345 0.11502,-0.26045 0.17208,-0.26045 0.27291,0 0.2172,-0.47162 -0.15193,-1.28571 -0.60816,-1.34127 -0.4142,-2.0468 0.8909,-3.2396 1.36919,-1.25135 3.44372,-2.27668 5.76244,-2.84788 0.8687,-0.21401 1.91107,-0.32041 2.90008,-0.31988 z m 4.31602,1.95699 c 1.19285,-0.009 2.0594,0.28081 2.57193,0.86454 0.51023,0.58112 0.57638,0.97361 0.11317,0.67335 -0.16537,-0.1072 -0.76233,-0.34894 -1.32653,-0.53744 -1.22471,-0.40916 -2.78304,-0.46276 -3.7605,-0.12971 -0.5705,0.19439 -1.96267,1.27234 -1.96267,1.51981 0,0.0573 0.23468,0.1413 0.5209,0.18707 0.86466,0.13826 2.90351,0.85127 3.48609,1.21905 0.30089,0.18993 0.61635,0.50853 0.70125,0.70796 0.0849,0.19943 0.24123,0.46667 0.34727,0.59376 0.2357,0.28249 0.21167,0.29307 -1.17977,0.50798 -0.67064,0.10359 -1.67554,0.43753 -3.03703,1.01028 -1.11909,0.47078 -2.47242,0.99939 -3.00705,1.1746 -1.16277,0.38107 -2.02706,0.49371 -2.5864,0.33642 -0.95332,-0.26809 -2.01561,-1.87872 -2.51613,-3.81424 -0.367,-1.4192 -0.46069,-1.32995 1.50379,-1.42937 2.48828,-0.12594 2.9438,-0.24267 4.49843,-1.15135 1.66638,-0.97401 2.39006,-1.26601 3.807,-1.53479 0.67432,-0.12792 1.28404,-0.19378 1.82625,-0.19792 z m -9.88571,9.8857 c 0.28051,0.004 2.79533,0.20722 5.58829,0.45165 l 5.07825,0.44442 -2.53938,-0.0134 c -1.39649,-0.007 -3.89219,-0.0454 -5.54592,-0.0842 l -3.00653,-0.0708 -0.0424,-0.36742 c -0.0397,-0.34511 -0.0113,-0.36685 0.46767,-0.36018 z m -0.52193,1.48983 c 0.20908,-0.033 9.27042,0.94569 10.11928,1.09296 0.75019,0.13014 -1.54319,0.0127 -5.54591,-0.28371 -3.72126,-0.27557 -4.50614,-0.36827 -4.65088,-0.55035 -0.14809,-0.18629 -0.13644,-0.22512 0.0775,-0.2589 z m -0.6537,1.07694 c 0.0307,-0.004 0.0686,0.002 0.11523,0.0155 4.13339,1.20665 10.80555,3.19811 10.84689,3.23753 0.12787,0.12192 -0.57481,-0.03 -5.66839,-1.22577 -2.93997,-0.69017 -5.36012,-1.25622 -5.37848,-1.2578 -0.0184,-0.002 -0.0336,-0.18693 -0.0336,-0.41238 0,-0.24547 0.0263,-0.34537 0.11834,-0.35708 z"
       style="opacity:1;fill:#ff1493;fill-opacity:1;fill-rule:nonzero;stroke:none;stroke-width:0.25253814;stroke-linecap:round;stroke-linejoin:round;stroke-miterlimit:4;stroke-dasharray:none;stroke-dashoffset:0;stroke-opacity:1"
       inkscape:connector-curvature="0" />
  </g>
  <g
     transform="translate(0,-198)"
     style="display:none"
     inkscape:label="5"
     id="layer25"
     inkscape:groupmode="layer">
    <path
       inkscape:connector-curvature="0"
       id="path2388"
       d="m 116.6699,168.84886 c -0.3785,-1.0235 -0.98105,-2.84702 -1.33899,-4.05227 l -0.65079,-2.19136 4.65631,-2.63402 c 5.02775,-2.84415 6.54625,-3.63924 7.60508,-3.98203 0.3745,-0.12124 0.87833,-0.43059 1.11962,-0.68743 0.50046,-0.53272 0.7508,-0.5939 0.7508,-0.1835 0,0.46336 0.36324,0.32857 1.27328,-0.47247 0.88842,-0.78203 1.18357,-0.91519 1.18357,-0.53402 0,0.12206 0.19683,0.037 0.4374,-0.18899 0.54532,-0.5123 0.69652,-0.51694 0.69652,-0.0213 0,0.40816 -4.15189,5.86834 -6.31422,8.30387 -0.69212,0.77958 -1.65422,2.00016 -2.13799,2.71241 -0.48377,0.71224 -1.40319,1.75756 -2.04317,2.32291 -1.25655,1.11006 -4.27413,3.46398 -4.44471,3.46718 -0.0575,0.001 -0.41421,-0.83544 -0.79271,-1.85893 z"
       style="opacity:1;fill:#9400d3;fill-opacity:1;fill-rule:nonzero;stroke:none;stroke-width:0.35714287;stroke-linecap:round;stroke-linejoin:round;stroke-miterlimit:4;stroke-dasharray:none;stroke-dashoffset:0;stroke-opacity:1" />
  </g>
  <g
     transform="translate(0,-198)"
     style="display:none"
     inkscape:label="4"
     id="layer24"
     inkscape:groupmode="layer">
    <path
       inkscape:connector-curvature="0"
       id="path2386"
       d="m 116.33817,180.22144 c -2.6e-4,-0.0862 0.48367,-1.7199 1.07548,-3.63039 1.11288,-3.59264 2.23062,-6.16476 2.67895,-6.16476 0.44274,0 3.48452,-3.29506 5.32109,-5.76414 0.96645,-1.2993 2.82804,-3.61904 4.13686,-5.15499 2.94911,-3.46088 3.18645,-3.79544 4.37086,-6.16133 0.52668,-1.05207 1.03664,-1.91285 1.13324,-1.91285 0.0966,0 0.37912,0.4004 0.62782,0.88977 l 0.4522,0.88976 0.39917,-0.78244 c 0.77583,-1.52076 1.07126,-1.3335 0.83121,0.52686 -0.15546,1.20476 -0.14419,1.3212 0.0974,1.00595 0.52611,-0.68662 0.97963,-1.8747 0.98374,-2.57715 0.005,-0.88155 0.19721,-0.89232 0.84178,-0.0472 0.27749,0.3638 0.65942,0.66145 0.84873,0.66145 0.37823,0 0.47477,-0.38629 0.69817,-2.79353 0.0702,-0.75687 0.19517,-1.41782 0.27764,-1.46879 0.0825,-0.051 0.43144,0.079 0.7755,0.28874 0.34407,0.20977 0.80352,0.38172 1.021,0.3821 0.30804,5.3e-4 0.54816,0.32621 1.08668,1.47376 0.99772,2.12611 0.91284,3.25078 -0.5266,6.97797 -0.35712,0.92471 -0.71069,2.14397 -0.78571,2.70948 -0.11852,0.89344 -0.42183,1.45654 -2.31439,4.2966 l -2.17799,3.26842 -2.7524,-0.11583 c -2.9799,-0.12541 -3.59453,-0.0191 -6.65975,1.15222 l -1.28981,0.49286 0,2.26376 c 0,1.24507 -0.0871,2.42647 -0.19352,2.62535 -0.11117,0.20772 -0.62428,0.48682 -1.20578,0.65586 -0.55674,0.16185 -2.12283,0.84284 -3.48019,1.51332 -2.57736,1.2731 -2.96951,1.60987 -3.80011,3.26338 -0.22401,0.44595 -0.59516,0.8816 -0.82478,0.96811 -0.74892,0.28216 -1.64591,0.42801 -1.64647,0.26772 z"
       style="opacity:1;fill:#191970;fill-opacity:1;fill-rule:nonzero;stroke:none;stroke-width:0.35714287;stroke-linecap:round;stroke-linejoin:round;stroke-miterlimit:4;stroke-dasharray:none;stroke-dashoffset:0;stroke-opacity:1" />
  </g>
  <g
     transform="translate(0,-198)"
     style="display:none"
     inkscape:label="2"
     id="layer21"
     inkscape:groupmode="layer">
    <path
       inkscape:connector-curvature="0"
       id="path2380"
       d="m 125.77062,209.85283 c -0.46211,-0.2939 -1.17171,-0.94016 -1.57688,-1.43612 -0.99058,-1.21252 -1.08709,-1.30003 -4.55498,-4.13017 -1.6631,-1.35726 -3.12845,-2.56102 -3.25634,-2.67504 -0.17807,-0.15876 0.1096,-0.56106 1.22843,-1.71795 2.01628,-2.08487 3.31416,-3.85215 4.29902,-5.85382 1.0199,-2.07291 1.23037,-3.35341 1.04283,-6.34469 -0.15381,-2.45332 -0.58034,-3.68032 -1.79436,-5.16188 -0.74343,-0.90725 -0.79943,-1.06114 -0.3862,-1.06114 0.41871,0 1.65469,1.18468 2.46797,2.36553 0.39254,0.56994 0.73524,1.03626 0.76155,1.03626 0.15392,0 -0.42308,-1.58128 -0.91897,-2.51846 -0.67116,-1.26844 -1.72717,-2.24965 -2.90542,-2.69962 -0.4521,-0.17266 -0.822,-0.38717 -0.822,-0.4767 0,-0.41311 1.39941,-1.67298 1.97906,-1.78172 0.58871,-0.11045 0.72735,-0.0124 2.60461,1.84226 1.94827,1.9248 2.74994,3.10058 3.45357,5.06525 0.20365,0.56862 0.25847,0.61218 0.38343,0.30465 0.0802,-0.19736 0.0648,-0.94527 -0.0343,-1.66203 -0.0991,-0.71675 -0.15101,-1.33229 -0.11544,-1.36787 0.0356,-0.0356 0.67673,0.0943 1.42479,0.28862 1.7099,0.44417 2.77751,0.47122 2.77751,0.0704 0,-0.15918 -0.14883,-0.34004 -0.33073,-0.40192 -1.24387,-0.42313 -4.02892,-1.5736 -5.6224,-2.32254 -1.82333,-0.85698 -2.55558,-1.3801 -2.22115,-1.5868 0.20807,-0.12859 4.24832,0.34455 7.10671,0.83223 1.23621,0.21092 2.28277,0.34838 2.32568,0.30547 0.0429,-0.0429 -0.9655,-0.42567 -2.24092,-0.85056 -1.27542,-0.42489 -2.35182,-0.87116 -2.39201,-0.99171 -0.0895,-0.26838 2.73839,-0.087 4.87356,0.31257 0.77233,0.14454 1.43347,0.23358 1.46919,0.19786 0.14858,-0.14858 -2.81436,-1.0945 -4.02279,-1.28427 -0.7246,-0.11379 -2.29745,-0.16049 -3.5281,-0.10475 -2.19548,0.0994 -2.75957,-0.0462 -1.71583,-0.44303 0.27763,-0.10556 1.34077,-0.66526 2.36254,-1.24379 1.02177,-0.57853 2.60182,-1.29474 3.51122,-1.59157 0.9094,-0.29683 1.58875,-0.54295 1.50968,-0.54692 -0.0791,-0.004 -0.96102,0.12428 -1.95987,0.28502 -2.43757,0.39224 -2.54007,0.23751 -0.67221,-1.01478 3.10695,-2.08302 5.50068,-2.97422 7.58758,-2.82491 l 1.27823,0.0915 0.51568,-1.05958 c 0.55245,-1.13515 3.0671,-5.628 3.37003,-6.02114 0.13879,-0.18012 0.35193,-0.0838 0.88986,0.4022 0.38904,0.35147 1.63429,1.27996 2.76722,2.06329 1.13293,0.78334 2.20397,1.58348 2.38009,1.77809 0.88915,0.98249 1.16102,3.1032 0.62581,4.88156 l -0.27578,0.91636 0.88999,1.02204 c 1.60801,1.84656 3.28445,4.08713 3.76133,5.02702 1.17095,2.30786 0.65534,4.39721 -2.28779,9.27067 -0.64772,1.07255 -0.67683,1.19539 -0.64921,2.74033 0.0329,1.83811 0.0284,1.85113 -2.38069,6.87711 -1.1609,2.42199 -1.61504,3.16813 -2.38437,3.91748 -1.74877,1.70336 -5.68987,3.29305 -9.38211,3.78439 -1.59365,0.21208 -4.40583,0.14662 -5.30863,-0.12356 l -0.43366,-0.12979 0.36225,0.92195 c 0.19923,0.50706 0.418,1.05318 0.48614,1.21359 0.0807,0.18992 -0.2528,0.77645 -0.95601,1.68148 -0.90624,1.16632 -1.2711,1.47652 -2.26893,1.92895 -1.48978,0.6755 -2.04153,0.67635 -3.09747,0.005 z m 14.44555,-9.45858 c 1.51046,-0.74577 3.23851,-2.16054 4.00586,-3.27963 0.33711,-0.49163 0.88769,-1.72478 1.22352,-2.74033 0.8019,-2.42497 1.69248,-4.17581 3.56553,-7.00965 1.60995,-2.4358 1.9452,-3.28654 2.17314,-5.51464 l 0.12568,-1.22842 -0.8118,1.5119 c -1.21213,2.2575 -1.9203,3.18923 -3.17066,4.17156 -2.09119,1.64294 -2.64879,2.67986 -2.83653,5.27489 -0.15442,2.13441 -0.53613,3.12146 -1.53078,3.9584 -2.14461,1.80457 -5.61801,2.51216 -13.3995,2.72971 l -4.44122,0.12416 2.36235,0.7852 c 4.44637,1.47789 7.07979,1.97819 9.80509,1.86279 1.50104,-0.0636 1.95051,-0.16267 2.92932,-0.64594 z"
       style="opacity:1;fill:#ff0000;fill-opacity:1;fill-rule:nonzero;stroke:none;stroke-width:0.35714287;stroke-linecap:round;stroke-linejoin:round;stroke-miterlimit:4;stroke-dasharray:none;stroke-dashoffset:0;stroke-opacity:1" />
  </g>
  <g
     transform="translate(0,-198)"
     style="display:none"
     inkscape:label="3"
     id="layer23"
     inkscape:groupmode="layer">
    <path
       inkscape:connector-curvature="0"
       id="path2398"
       d="m 106.55755,181.07561 c -1.81082,-0.19392 -5.10995,-0.98506 -5.99825,-1.43839 -0.884985,-0.45164 -1.292266,-0.9438 -1.837453,-2.22039 -0.438076,-1.02579 -0.491363,-1.2897 -0.598601,-2.96468 -0.131371,-2.05189 -0.272119,-2.82723 -0.646406,-3.5609 -0.647415,-1.26904 -2.154069,-2.62528 -4.10572,-3.69585 -1.755217,-0.96281 -2.722388,-1.64162 -4.031887,-2.8298 l -1.060969,-0.96266 0.239607,0.9315 c 0.208097,0.80901 0.213325,0.9315 0.03976,0.9315 -0.354327,0 -4.010445,-0.91561 -5.051269,-1.26501 -1.796057,-0.60291 -2.615067,-1.40075 -2.816849,-2.74403 -0.162478,-1.08163 -2.686222,-5.15753 -3.717288,-6.00349 -0.210746,-0.17292 -0.225086,-0.16066 -0.156289,0.13363 0.04166,0.17821 0.158371,0.72993 0.259355,1.22605 0.171984,0.84493 0.168529,0.90203 -0.0546,0.90203 -0.391022,0 -4.697159,-1.45054 -5.274998,-1.77691 -1.319627,-0.74533 -2.426694,-4.02695 -1.942237,-5.75725 0.09182,-0.32793 0.34048,-0.77375 0.552591,-0.9907 l 0.385651,-0.39445 -0.898554,-0.51824 c -1.196814,-0.69025 -2.306944,-1.75753 -2.306944,-2.21789 0,-1.81181 1.650074,-5.802 3.516944,-8.50464 0.585425,-0.84751 1.022223,-1.24724 3.159173,-2.89107 l 2.479818,-1.90757 0.598636,-1.18063 c 0.48273,-0.95205 0.861917,-1.45168 1.958478,-2.58059 1.156435,-1.19054 1.39034,-1.37464 1.563729,-1.23074 0.175033,0.14526 0.226124,0.0875 0.361009,-0.40828 0.08642,-0.31762 0.178432,-0.65265 0.20448,-0.74453 0.02604,-0.0919 0.168847,-0.16704 0.317331,-0.16704 0.202488,0 0.401214,0.25889 0.794991,1.03567 0.92021,1.81524 0.938352,1.8146 0.946634,-0.0334 0.0058,-1.28775 0.05796,-1.71549 0.264985,-2.17157 0.141791,-0.31237 0.311952,-0.56794 0.378138,-0.56794 0.06619,0 0.155366,0.82686 0.198175,1.83748 0.08066,1.90403 0.278239,3.17139 0.847169,5.43406 0.388549,1.54528 0.562391,1.92013 1.152449,2.48497 0.804759,0.77035 2.488806,1.46349 3.564752,1.46722 l 0.457608,0.002 -0.315971,0.33633 c -0.750152,0.7985 -1.880891,0.73784 -2.926305,-0.157 l -0.577723,-0.49451 0.221065,0.4275 c 0.243599,0.47106 0.905084,0.99501 2.194367,1.73811 0.654692,0.37734 0.782931,0.49797 0.564827,0.53129 -0.155192,0.0237 -0.574792,-0.0541 -0.932442,-0.17287 -0.65128,-0.21633 -1.346446,-0.84614 -2.585548,-2.34249 l -0.497975,-0.60135 0.631288,1.20271 c 0.439568,0.83746 0.907304,1.48214 1.540155,2.1228 0.499878,0.50604 0.881137,0.94781 0.847246,0.9817 -0.111162,0.11116 -1.668311,-0.7904 -2.115444,-1.2248 -0.240493,-0.23364 -1.083717,-1.56352 -1.873832,-2.95529 l -1.436574,-2.5305 0,1.23953 c 0,1.45683 0.132734,1.7824 1.529853,3.75234 0.488426,0.68868 0.858853,1.28135 0.823166,1.31704 -0.03569,0.0357 -0.420272,-0.20859 -0.854638,-0.54282 -0.765776,-0.58925 -0.821032,-0.67573 -1.81958,-2.84777 -0.566401,-1.23204 -1.311174,-2.89223 -1.655053,-3.6893 -0.343879,-0.79707 -0.642837,-1.39642 -0.66435,-1.33188 -0.07144,0.21431 0.873167,3.28314 1.424876,4.62914 1.576885,3.84711 3.356872,5.64477 5.740747,5.79776 0.869402,0.0558 0.967081,0.0869 0.756372,0.24099 -0.133077,0.0973 -0.699304,0.33205 -1.258284,0.52165 -0.55898,0.1896 -1.617684,0.64251 -2.352675,1.00647 l -1.336347,0.66173 0.801809,-0.068 c 0.440994,-0.0374 1.463299,-0.1302 2.271789,-0.2062 2.430214,-0.22844 5.600843,-0.20107 6.68174,0.0577 0.902079,0.21594 2.478567,0.97117 2.564331,1.22846 0.02291,0.0688 -0.242411,0.27528 -0.589626,0.45892 -0.879449,0.46513 -2.067872,1.66788 -2.510057,2.54032 -0.470295,0.92789 -0.961975,2.36613 -1.061257,3.10436 l -0.07655,0.56914 1.293357,0.93544 c 1.565556,1.13232 3.276063,2.71389 3.552542,3.28475 0.111419,0.23006 0.170979,0.53912 0.132356,0.68682 -0.0845,0.32314 -1.000345,0.76545 -1.593369,0.76953 -0.234535,0.002 -0.45942,0.0563 -0.499745,0.12157 -0.04032,0.0652 0.407808,1.01238 0.995849,2.10475 1.335461,2.48079 1.702298,3.42928 2.396194,6.19561 0.540769,2.15586 1.622936,7.66436 2.093066,10.65424 0.129746,0.82514 0.256241,1.47992 0.281111,1.45505 0.10235,-0.10235 -0.403018,-4.63657 -0.843247,-7.56571 -0.924881,-6.15383 -1.2763,-7.47839 -2.77762,-10.46933 -0.522304,-1.04054 -0.969076,-1.93362 -0.992831,-1.98463 -0.02376,-0.051 0.195102,-0.15692 0.486339,-0.23534 1.37391,-0.36995 2.255578,-0.96993 2.105819,-1.433 -0.0433,-0.13389 -1.244103,-1.36855 -2.66845,-2.74369 L 92.825744,150.3101 92.990812,149.6 c 0.09079,-0.39056 0.260877,-0.89538 0.377976,-1.12182 0.351332,-0.6794 1.60374,-1.71243 2.856198,-2.35588 2.15492,-1.10709 4.384094,-1.66358 6.951514,-1.73537 1.13048,-0.0316 1.23546,-0.0129 1.30521,0.23289 0.0417,0.147 0.25636,0.94736 0.47698,1.77859 0.38873,1.46457 0.95885,2.76785 1.99879,4.56906 0.35601,0.61663 0.52781,1.10124 0.59219,1.67044 0.0499,0.44099 0.23606,1.70932 0.41372,2.8185 0.44198,2.75937 0.52409,4.23947 0.34383,6.19821 -0.13176,1.43175 -0.22089,1.81808 -0.63201,2.73951 -1.25689,2.81704 -1.5397,4.01776 -1.54313,6.55174 -0.003,1.92291 0.19816,3.36314 0.89846,6.44535 0.25434,1.11947 0.46245,2.27316 0.46245,2.56377 0,0.5751 -0.19899,1.22668 -0.36419,1.19255 -0.0569,-0.0117 -0.31401,-0.0439 -0.57125,-0.0715 z M 84.649556,160.121 c 0.277257,-0.82441 0.219713,-2.38429 -0.130431,-3.53556 -0.913445,-3.00341 -3.03098,-5.6717 -5.415558,-6.82409 -1.130959,-0.54655 -2.481078,-0.92718 -3.300603,-0.93051 l -0.48631,-0.002 2.159304,2.17157 c 1.187618,1.19436 2.587224,2.68271 3.110241,3.30746 1.840781,2.19881 3.213622,4.68132 3.467794,6.27083 0.07791,0.48722 0.108003,0.52482 0.252129,0.31503 0.09001,-0.13101 0.24456,-0.47876 0.343434,-0.77275 z"
       style="opacity:1;fill:#00ffff;fill-opacity:1;fill-rule:nonzero;stroke:none;stroke-width:0.25253814;stroke-linecap:round;stroke-linejoin:round;stroke-miterlimit:4;stroke-dasharray:none;stroke-dashoffset:0;stroke-opacity:1" />
  </g>
  <g
     transform="translate(0,-198)"
     style="display:none"
     inkscape:label="1"
     id="layer22"
     inkscape:groupmode="layer" />
</svg>
