<?xml version="1.0" encoding="UTF-8" standalone="no"?>
<!-- Created with Inkscape (http://www.inkscape.org/) -->

<svg
   xmlns:dc="http://purl.org/dc/elements/1.1/"
   xmlns:cc="http://creativecommons.org/ns#"
   xmlns:rdf="http://www.w3.org/1999/02/22-rdf-syntax-ns#"
   xmlns:svg="http://www.w3.org/2000/svg"
   xmlns="http://www.w3.org/2000/svg"
   xmlns:sodipodi="http://sodipodi.sourceforge.net/DTD/sodipodi-0.dtd"
   xmlns:inkscape="http://www.inkscape.org/namespaces/inkscape"
   width="99mm"
   height="99mm"
   viewBox="0 0 99 99"
   version="1.1"
   id="svg2302"
   inkscape:version="0.91 r13725"
   sodipodi:docname="CatBackToTheFuture.svg">
  <sodipodi:namedview
     id="base"
     pagecolor="#ffffff"
     bordercolor="#666666"
     borderopacity="1.0"
     inkscape:pageopacity="0.0"
     inkscape:pageshadow="2"
     inkscape:zoom="1.979899"
     inkscape:cx="131.07493"
     inkscape:cy="179.72146"
     inkscape:document-units="mm"
     inkscape:current-layer="layer2"
     showgrid="false"
     inkscape:window-width="1920"
     inkscape:window-height="1027"
     inkscape:window-x="0"
     inkscape:window-y="27"
     inkscape:window-maximized="1" />
  <defs
     id="defs2296">
    <inkscape:path-effect
       effect="skeletal"
       id="path-effect3811"
       is_visible="true"
       pattern="M 0,5 C 0,2.24 2.24,0 5,0 7.76,0 10,2.24 10,5 10,7.76 7.76,10 5,10 2.24,10 0,7.76 0,5 Z"
       copytype="single_stretched"
       prop_scale="1"
       scale_y_rel="false"
       spacing="0"
       normal_offset="0"
       tang_offset="0"
       prop_units="false"
       vertical_pattern="false"
       fuse_tolerance="0" />
    <inkscape:path-effect
       effect="skeletal"
       id="path-effect3807"
       is_visible="true"
       pattern="M 0,5 C 0,2.24 2.24,0 5,0 7.76,0 10,2.24 10,5 10,7.76 7.76,10 5,10 2.24,10 0,7.76 0,5 Z"
       copytype="single_stretched"
       prop_scale="1"
       scale_y_rel="false"
       spacing="0"
       normal_offset="0"
       tang_offset="0"
       prop_units="false"
       vertical_pattern="false"
       fuse_tolerance="0" />
  </defs>
  <metadata
     id="metadata2299">
    <rdf:RDF>
      <cc:Work
         rdf:about="">
        <dc:format>image/svg+xml</dc:format>
        <dc:type
           rdf:resource="http://purl.org/dc/dcmitype/StillImage" />
        <dc:title></dc:title>
      </cc:Work>
    </rdf:RDF>
  </metadata>
  <g
     inkscape:groupmode="layer"
     id="layer3"
     inkscape:label="SilkS">
    <path
       inkscape:connector-curvature="0"
       style="display:inline;fill:#000000;fill-rule:evenodd;stroke:none;stroke-width:0.99999994px;stroke-linecap:butt;stroke-linejoin:miter;stroke-opacity:1"
       d="m 53.260975,4.2937951 0.100302,0.42661 -0.108029,0.22642 -0.420949,-0.0376 -0.965809,-0.26304 -0.336519,-0.0253 0.133748,0.19313 -0.0061,0.48679 -0.424367,0.55694 -0.284516,0.26328 -0.186391,0.42868 -0.242279,0.44784 -0.671353,0.8202301 -0.599567,0.61343 -0.329562,0.3295698 -2.83e-4,0 -0.170489,-0.0665 -0.391555,-0.4197002 -0.475576,-0.7178598 -0.414866,-0.2832501 -1.225993,-0.33221 -0.770535,0.013 -0.604421,0.14672 -0.535911,0.2506001 -0.335687,0.4568299 -0.214531,0.1957601 -0.40443,0.22719 -0.788997,0.2761299 -0.353007,0.017701 -0.01041,-0.0454 -0.596719,-0.20516 -0.808716,0.1537298 -0.487082,0.2096801 -0.736609,0.4568201 -0.596718,0.6342298 -0.382178,0.0747 -0.330835,-0.098 -0.414754,-0.26582 -0.67942,-0.24236 -0.896187,-0.0746 -1.575595,0.2239297 -1.195583,0.4636702 -0.678169,0.3378004 -0.251656,0.63424 -0.400941,1.062499 -0.857754,1.3892 -0.345054,0.30754 -0.58733,0.27979 -0.475576,0.27042 -0.400525,0.42866 -0.494341,0.73662 -0.400942,0.56858 -1.05352,0.89527 -0.307544,0.0277 -0.123441,-0.1339 -0.305227,-0.15487 -1.855404,0.47517 -0.74468,0.44163 -0.374105,0.46261 -0.699089,1.08167 -1.472822,1.6686 -1.025791,1.23993 -0.829609,1.10941 -1.836639,1.99529 -2.043838,1.41408 -0.781072,1.11227 -0.820366,1.17466 -0.606094,1.28643 -0.978888,1.87416 -0.308698,0.781869 -0.175854,0.886731 -0.16908,1.391449 0.13156,1.48934 0.274729,0.52482 0.384856,0.41553 0.6456,0.59773 0.27367,0.65219 0.125635,0.892011 0.209342,1.235959 0.63454,1.413961 0.579856,0.59287 0.726888,0.46182 1.158424,0.58006 1.974406,0.619771 2.03373,0.659319 0.362785,0.54943 0.393693,0.968451 0.450551,1.050028 0.533358,0.794162 0.969237,0.590169 1.563752,0.62103 3.848135,1.08266 1.737258,0.51546 1.412196,0.621789 1.834318,1.117461 0.589165,0.59 0.554548,0.807551 0.728412,1.358008 0.344586,1.96612 0.275374,2.173772 0.06978,0.265929 -0.155807,-0.24962 -0.466198,-0.149281 -1.10002,-0.242268 -0.694603,-0.36668 -0.577965,-0.0934 -0.335666,-0.0747 -0.3728,-0.503312 -0.932385,-1.08127 -1.118786,-0.98826 -1.547463,-0.540839 -0.633833,-0.130531 -0.895272,-0.130508 -1.193022,0.0188 -0.801788,0.56638 -0.969596,0.5524 -1.268061,-0.33567 -1.01152,0.682899 -0.815739,0.696922 -1.957779,0.55919 -0.223512,0.24227 -1.901901,2.722539 -0.969506,1.062501 -0.839398,0.708469 -0.670947,1.379821 -0.727232,0.746 -0.316915,-0.0188 -0.634239,-0.596711 -0.372791,-1.174668 -0.615069,-1.976131 0.111756,2.274691 0.09299,1.976541 0.578361,1.155909 0.148872,0.764339 0.484958,1.118791 0.745585,0.746009 2.014065,0.987851 1.603337,0.745998 1.081263,1.323941 0.932392,0.931991 1.062906,0.503719 -0.37279,-0.78311 -0.447843,-1.025799 -0.03711,-0.689711 0.447432,0.503312 0.764762,0.559598 1.808494,0.708471 2.386453,0.1864 1.515084,0.0164 1.598994,-0.0535 1.18848,-0.531509 0.713019,-0.419651 -0.06974,0.170262 0.126073,0.519868 0.246718,0.20999 0.314831,0.002 0.631463,-0.193622 0.913753,-0.281979 2.256224,-0.295958 1.377792,0.0411 0.940512,0.181308 0.710126,0.29234 0.142351,0.0527 0.31569,0.607308 0.261044,0.559602 -0.03713,1.044148 -0.657196,0.98344 -1.020779,1.067339 -0.282633,0.365331 -0.07641,0.40377 0.06048,0.461442 2.041775,1.650099 1.6397,1.213099 1.241111,0.71668 0.588467,0.34966 0.203855,0.40566 -0.04674,0.475629 -1.267654,2.013661 -0.141588,0.445719 0.01572,0.435201 0.125855,0.46138 3.020274,2.386841 4.437619,2.796779 1.92521,0.955469 2.400667,1.095302 1.598879,0.0327 1.347168,-0.219072 1.677975,-1.23054 2.83429,-3.057818 5.742818,-6.82448 2.549824,-0.815682 2.342958,-0.867551 2.304488,-1.03888 0.968688,-0.59745 0.823604,-0.693129 1.302847,-1.622671 0.995206,-1.853389 0.869352,-1.982801 0.60012,-1.769028 0.173558,-1.3076 -0.09214,-0.888071 -0.196979,-0.51047 0.181816,-0.706749 0.685269,-1.199682 1.370496,-2.38191 0.606002,-2.29811 0.128205,-1.346589 -0.137499,-1.20324 -0.709139,-1.384439 -1.160185,-1.66412 -1.561685,-1.98578 -0.559178,-3.09492 -0.358383,-0.938702 -0.578668,-0.865307 -1.188776,-1.216671 -1.719877,-1.333241 -0.896628,-0.827458 -0.403767,-0.673603 0.227849,-0.801149 0.559949,-1.161229 0.622862,-1.252121 0.416591,-1.07385 0.01516,-0.58937 -0.145672,-0.811369 -0.578031,-1.918152 -0.932312,-2.423908 0,-1.864379 -0.102012,-0.918131 0.139085,-0.163539 1.640862,-0.186401 -0.07468,-0.410311 1.342718,0.1868 -0.671365,-1.193429 0.708469,0 -0.641715,-0.9087 -0.898812,-1.44266 -0.448248,-1.17345 -0.856928,-0.303061 1.133878,2.636891 0.13173,0.843469 -0.184556,0.451581 -0.184559,0.0758 -0.50086,-0.15784 -0.0265,0.10522 -1.160404,-0.57998 0.08901,0.88325 -0.0098,0.962349 -1.740382,1.687769 0.316515,1.213011 -0.817375,0.184362 -0.352715,1.147117 -0.412048,1.068022 -0.606504,-1.68777 -1.001719,1.63515 -1.213008,1.239111 -0.369127,-1.239111 -1.081255,1.63475 -0.652752,0.833898 -0.217653,0.141721 -0.369124,-1.002129 -0.659118,0.97562 -0.112494,0.006 -0.01609,-0.2958 0.04941,-0.52734 -0.395633,0.58 -0.428329,0.665819 -0.350105,0.261222 -0.592424,0.206829 -0.288823,0.008 -0.138035,-0.12632 0.03786,-0.491459 0.362506,-0.787679 -0.764752,1.160391 -0.464614,0.685517 -0.08887,-0.184649 -0.131919,-0.47476 0.02627,-0.39565 -0.346188,0.27362 -0.36596,0.570269 -0.108633,0.388903 -0.365721,0.349348 -0.195311,0.131061 -0.101417,-0.0716 -0.336282,-0.454691 -0.214243,-0.130621 -0.115353,0.0943 -0.566905,0.69541 -0.290813,0.272858 -0.03712,0.0592 0.03712,-0.0592 -0.210047,-0.114607 -0.255081,-0.0862 -0.045,-0.227079 -5.65e-4,-0.38034 -0.121578,-0.54595 -0.140064,-0.34445 -0.03125,0.120289 -0.05103,0.416921 -0.199393,0.545491 -0.323031,0.481248 -0.362602,0.20438 -0.273556,0.27695 -0.174681,0.35606 -0.185852,0.14257 -0.07465,-0.149129 -0.0034,-0.36256 -0.07917,-0.606501 -0.07948,-0.19613 -0.10171,0.0708 -0.161417,0.388801 -0.210959,0.313148 -0.764672,0.293361 -0.69629,-0.13101 -0.760547,-0.442471 -0.863535,-0.692139 -0.184762,1.292129 -0.79086,-1.582129 0.07917,1.55562 -1.39777,-1.819111 -1.05476,-0.606498 -0.171329,0.243888 -0.184539,0.134309 -0.224122,-0.009 -0.896492,-0.764757 -0.395634,0.158239 -0.510777,-0.57036 -0.64921,-1.064782 -0.514302,-1.354658 -0.257172,-0.807121 -0.09892,-0.765099 -0.24844,-0.903111 -0.572296,-1.0613 -0.840528,-1.252459 2.584272,0.44825 0,-0.342609 -3.085132,-1.133881 0.02608,-0.39563 2.900775,1.02823 -0.0265,-0.36911 -2.742114,-1.34475 -0.55388,-0.42174 0.0265,-0.36913 4.086863,1.92475 0.263889,-0.34262 -4.403773,-2.55775 0,-0.50127 0,-1.89864 0.290396,-0.52738 0.02619,-1.10736 0.09601,-0.37246 0.197364,-0.27358 0.392255,-0.40871 0.395633,-0.8965 0.237377,-1.13388 0.210871,-0.34261 0.606504,-1.23953 0.49311,-0.33771 -0.49311,0.68073 -0.105636,-0.053 2.221563,1.7075 1.738686,1.47425 1.234384,1.30116 0.554578,0.99208 0.243114,0.79426 0.04619,0.71839 -2.840414,-3.29396 -1.099496,-0.90138 -1.291782,-0.67413 -1.524268,-0.56866 0,2.05118 0.04897,0.87979 0.230801,1.32024 0.538452,1.33421 0.423912,0.53908 0.54801,0.38266 1.131223,0.40935 0.91267,0.13845 0.66445,-0.0468 0.386562,-0.14652 0.689949,-0.5547 0.634004,-0.35893 0.447432,0.16764 0.247675,-0.0612 0.298058,-0.37236 0.40502,1.14203 -0.204758,0.16805 -0.09336,0.5592 -0.615473,0.37319 -0.03713,0.42868 -1.92066,-0.50332 -0.249265,0.58022 -0.167437,0.68602 -0.06785,0.91504 0.290457,0.94717 0.620799,0.75668 0.897252,0.683009 0.09336,1.491589 -0.588541,-0.128188 -1.238859,-0.6456 -1.939276,-1.05347 0.141599,0.238861 0.529669,0.525489 0.839072,0.764348 0.05633,1.081671 0.212073,0.649099 0.393847,0.446321 0.549989,0.340269 -0.128299,-0.303007 -0.170264,-0.946292 0.07254,-0.420079 0.214193,-0.0879 0.328741,0.13523 0.503312,0.80146 0.426649,0.198289 0.860177,-0.01149 1.237426,0.186399 0.664072,0.186391 0.484953,1.286428 0.463832,0.58238 0.547771,0.245042 0.648025,0.0303 -0.503719,-0.633831 -0.207114,-0.478968 -0.03752,-0.472 0.077,-0.50349 1.640851,-0.0747 0.54098,-0.142169 0.444794,-0.24003 0.412411,-0.326261 -1.86458,0.21443 -1.722399,-0.01 -1.708404,-0.33504 -0.675665,-0.329491 -0.482047,-0.40467 -0.510885,-0.88801 -0.119326,-0.748171 0.01696,-0.314649 1.006621,-0.261039 0.696897,-0.500981 0.682933,-1.15824 0.09148,-0.63456 -0.198693,-0.41436 -0.414861,-0.293779 1.547456,0.42908 -2.106645,-1.51035 0.261033,-0.16803 -0.112164,-0.57796 0.522078,-0.0188 -1.335363,-1.53931 0.158248,-1.31905 -0.254045,-0.7883 -0.655507,-0.96922 -1.992082,-2.13936 -3.045107,-2.68982 1.595998,-0.74396 -1.333704,-0.0844 -1.351686,0.20516 -2.526352,0.20516 -0.835555,0.0582 -0.311162,0.12815 0.02794,0.18639 -2.237581,1.60334 -0.501086,0.23657 -0.717824,0.15965 -1.736281,0.1445 -2.22802,-0.0187 1.789731,0.52208 -2.647484,2.12581 0.03713,1.26767 -0.713758,0.23277 -0.685386,0.0988 -0.720558,-0.0836 -0.52734,-0.30031 -0.289982,-0.44115 -0.421783,-1.15677 -0.631861,-2.6423 -0.335208,-2.79257 0.158096,-0.70661 0.361653,-0.55036 0.65818,-0.61229 0.669031,-0.45164 0.807461,-0.629629 0.998778,-0.876701 1.058109,-0.75805 0.366722,-0.39018 0.371695,-0.65472 0.421977,-1.38111 0.157392,-0.55171 0.449079,-0.5394 0.765502,-0.45534 1.106656,-0.2995696 1.0877,-0.0589 0.77127,0.1414099 1.067915,0.4187407 0.876672,0.115279 0.59981,-0.22093 0.415278,-0.4086998 0.92947,-0.5669197 0.341317,-0.0434 0.292828,0.1809601 0.443865,0.7654804 0.346278,1.259049 -0.0265,-2.2412594 0.922999,-0.4747602 0.393015,-0.089 0.457222,0.0297 0.506662,0.2373802 0.541334,0.5339898 0.356856,0.8372206 0.06522,0.916329 -0.131668,1.04159 -1.318649,0.42173 -0.328335,0.14521 0.14399,0.1713 -0.257787,0.007 -0.07272,-0.0473 0.186517,-0.13139 -0.172525,-0.19782 -0.712137,-0.97562 -0.606504,0.71173 -1.00173,1.45038 -0.537318,0.30741 -0.616492,-0.0436 -0.718723,-0.28993 0,-0.63302 -0.369123,-0.9196 -0.369123,-0.58341 -0.05268,1.97777 -0.138448,0.79432 -0.09894,-0.0561 -0.276829,-0.25716 -0.390559,-0.18793 -0.598233,-0.1088 -0.519964,0.0396 -0.21839,0.13847 -0.02641,0.21758 -0.197816,-0.38558 -0.197817,-0.72179 -0.290075,-0.61639 -0.922922,-0.59661 -0.364203,-0.28097 0.02144,-0.2068 0.29008,-0.17135 -0.488138,-0.009 -0.118647,0.22354 0.282927,0.82801 0.792374,1.24695 0.624568,0.78546 0.214396,0.68528 0.115934,0.60485 -0.01341,0.55589 -0.578013,1.34714 -0.46614,0.87167 0.692334,-0.40334 1.433491,-1.14451 0.852852,-1.1141 0.265526,-0.52677 0.59671,-0.31692 0.167839,0.44747 0.167837,0.78307 -0.335676,1.77139 0.876517,-1.08127 0.438071,-1.08615 0.04648,-0.49883 0.324051,-0.0535 0.813488,-0.37516 0.414892,-0.2705 0.442861,-0.10271 0.226915,0.0301 0.169023,0.20685 0.198438,0.72116 0.07698,1.11188 0.370552,-0.57573 0.468436,-1.00925 0.652596,-1.69674 0.279392,0.54083 0.07607,0.58234 -0.06899,0.79029 -0.174716,0.99505 0.3217,-0.31697 0.741208,-1.37977 0.218457,-0.8454 -0.06478,-0.47827 -0.265845,-0.2609 0.523714,-0.47558 0.232077,-0.51839 -0.139703,0.41162 -0.09237,0.10677 0.08559,0.81412 -0.06352,0.79888 -0.28597,0.86563 -0.850361,1.30845 -0.415259,0.45804 -0.151508,-0.1318 -0.03285,-0.60644 0.210871,-1.60824 -1.529512,3.03211 6.223276,2.6899 0.552464,-0.70788 1.355838,-1.45451 0.83783,-0.69357 0.869044,-0.50384 0.843718,-0.18863 0.761847,0.25203 0.565845,0.58404 0.326971,0.68666 0.138472,0.73364 2.83e-4,0.72499 -0.212223,1.20154 -0.160291,0.49941 3.385213,1.37759 2.744498,0.95822 2.123956,0.45892 1.748161,-0.29869 2.032449,-0.6472 1.948391,-0.50381 0.827572,-0.0444 0.668434,0.17588 1.173017,0.95743 1.089491,1.30933 1.115469,1.65369 1.214241,-1.22076 -1.200395,-1.8853 -1.381695,-1.97805 -1.797095,-2.33179 -2.133298,-2.43314 -2.390301,-2.28212 -2.568087,-1.878711 -1.325979,-0.709189 -1.340728,-0.51369 -2.709595,-0.71144 -2.681165,-0.5303599 -4.866685,-0.6237799 -3.521876,-0.21837 -1.356343,-0.0256 0.160709,0.7202901 -0.160709,-0.7202901 -0.12065,-0.2297099 -0.270998,-0.0997 -0.61538,-0.23675 -0.522077,-0.6713601 0.44047,-0.33098 0.621399,-0.1724999 0.951792,0.0373 0.9384,0.3351601 0.591955,0.4828299 0.397649,0.6222001 0.341113,0.1301101 0.431975,-0.0357 0.611214,-0.27917 0.740044,-0.6769303 0.730777,-0.9261598 0.922568,-1.31196 0.07927,-0.19106 0.386921,-0.0512 0.670955,-0.0371 2.535727,3.9714201 2.547273,0.5971295 2.22403,0.62745 2.004234,0.74096 2.004901,1.1161 2.281408,1.51708 2.000998,1.48508 1.163664,1.02009 3.692043,4.77329 -1.981118,-2.86219 -1.369882,-2.20375 -0.457036,-0.89428 -0.182155,-0.60322 0.170765,-1.42752 0.411985,-2.0498 0.610681,-2.6382797 1.081464,3.1464297 0.743506,2.37555 0.337958,1.52601 0.298157,2.35412 0.298153,1.59896 0.261033,-0.22392 -1.006622,-7.19727 L 71.869131,8.1534063 71.402942,6.1956264 70.253914,7.1465865 68.53154,8.8806365 65.809414,12.422985 62.845056,11.015105 60.382139,9.9896658 58.369864,9.4027159 56.35539,9.1298358 53.260969,4.2937351 m -27.150696,13.3006399 0.0265,2.55776 0.349393,2.21833 0.626239,2.39631 0.595543,0.81976 1.011308,0.66664 1.158424,0.39586 1.036886,0.007 -0.441777,0.45129 -0.649272,0.26902 -0.793978,-0.10323 -0.649588,-0.40938 -0.629228,-0.69714 0.283052,0.65056 0.500475,0.56282 0.846525,0.58376 1.151218,0.64315 -0.563946,-0.0559 -1.039406,-0.39152 -1.375068,-1.49155 -0.899616,-1.15594 1.118796,2.01365 0.644392,0.92765 0.763217,0.73189 0.904188,0.65268 -1.053527,-0.48029 -0.834423,-0.47965 -0.610654,-0.53204 -2.461094,-4.25083 0,1.90149 0.326296,0.82335 0.71785,1.12053 1.044148,1.41248 -0.601371,-0.39158 -0.85309,-0.7272 -1.58012,-3.35613 -1.328402,-3.02051 0.615385,2.3912 0.80065,2.21817 1.157216,2.2147 0.689593,0.87394 0.704375,0.61036 0.68626,0.39211 0.635254,0.21917 0.985895,0.10085 0.387114,-0.047 -0.240648,0.17135 -1.05149,0.40865 -1.921465,0.81755 -1.110635,0.580221 1.914924,-0.224121 4.070568,-0.22412 1.842964,0.18539 1.252184,0.407851 0.939507,0.593239 -1.021795,0.599951 -0.86935,0.77956 -0.74574,1.125629 -0.692284,2.010642 -0.09898,0.705369 1.677738,1.239229 1.292496,1.096701 0.879648,1.012679 0.114453,0.383929 -0.108405,0.29035 -0.629437,0.352211 -1.117806,0.156339 1.901894,3.579871 0.516827,1.396901 0.527312,1.989048 0.988192,4.794862 1.025473,6.139109 -0.447434,-4.847951 -0.36839,-2.647659 -0.787915,-4.661371 -0.595415,-1.984137 -0.764541,-1.747292 -0.94044,-1.71772 0.425201,-0.0857 1.156935,-0.441692 0.473417,-0.352679 0.09027,-0.31312 -0.16805,-0.309821 -4.008139,-3.902509 0.21087,-0.922599 0.35435,-0.741691 0.779575,-0.801079 1.254211,-0.801091 1.778261,-0.74168 1.865602,-0.479969 1.430536,-0.156112 1.239379,0.0561 -0.210871,-1.159989 -2.241659,0.52738 -2.089596,0.38551 -1.100764,0.0888 -0.896504,-0.843881 -1.12399,-0.53308 -1.598655,-0.35007 -2.050245,-0.25032 0.517582,-0.65594 1.249304,-2.06006 0.276716,-0.70068 0.122513,-0.68247 -0.07295,-1.21756 -0.40545,-1.19657 0.790849,-0.71173 2.346897,-1.71428 0.936015,-0.10868 0.977239,-0.25827 1.145363,-0.50304 1.990859,-1.20976 0.804274,-0.55713 0.764749,0 1.791372,-0.27532 -0.654541,0.21972 -0.372068,0.16123 0.105227,0.18436 -0.289989,0.52738 -0.290001,0.47475 -0.0265,1.37127 -0.04696,0.68519 -0.150755,0.22787 -0.328738,0.11416 -0.580909,0.34404 -0.428044,0.39672 0.0096,0.12722 0.313247,-0.0496 -0.738653,0.76476 -0.1211,0.38814 0.299189,0.18546 0.613176,0.0594 -0.07245,0.10546 -0.586663,0.26367 -0.295837,0.145 0.0453,0.1252 0.540534,0.23066 0.139232,0.15329 -0.05362,0.18299 -0.191256,0.21761 0.2639,1.68776 -3.797278,-1.63515 3.586407,2.66339 0.263486,0.31651 -4.772903,-1.42387 5.168536,2.42559 0.131733,0.60652 -1.104194,-0.50425 -1.176293,-0.39673 -1.41114,-0.28551 -1.07331,-0.0754 -0.433071,0.0655 -0.06226,0.11002 0.03912,0.0581 5.405922,1.60864 0.424947,1.24882 0.536809,2.00395 0.663352,1.615521 1.167571,2.097318 0.555927,3.845402 0.157415,1.406578 0.01405,1.61914 -0.104619,1.490602 -0.198572,1.02093 -0.84547,1.86184 -0.441237,1.4995 -0.222829,2.03927 0.142584,2.329679 0.386402,2.140371 0.584917,2.812889 -0.153365,1.036379 -2.136886,-0.289517 -2.166146,-0.509501 -1.285449,-0.530649 -0.67235,-0.60976 -0.326261,-0.63942 -0.247182,-0.619661 -0.300052,-0.94928 -0.04297,-0.632849 -0.06253,-1.377852 -0.133867,-0.988068 -0.304461,-0.90398 -0.538929,-0.809171 -0.786166,-0.819031 -1.033375,-0.78937 -1.280553,-0.720169 -1.37072,-0.83555 -1.190213,-0.964091 -1.156801,-1.127238 0.395226,1.634739 -1.99411,-0.441579 -1.665744,-0.4482 -1.376521,-0.507571 -0.795563,-0.63535 -0.387634,-0.729319 -0.13504,-0.850482 -0.975633,-1.74038 -1.437036,-2.066608 -0.725082,-0.781141 0.42174,2.109501 -2.208462,-0.656011 -1.618435,-0.57894 -0.945999,-0.53194 -0.837089,-1.65796 -0.297389,-1.119451 -0.02551,-1.072478 0.237289,-0.778691 0.31637,-0.42766 0.395454,-0.217531 -1.305184,-0.764619 -0.897314,-0.68142 -0.40787,-0.63695 0.105475,-1.183361 0.421901,-1.400899 1.249092,-2.67644 0.934767,-1.55082 1.006502,-1.12563 3.533787,-2.7156 0.659118,-1.37126 0.623798,-0.85698 0.806748,-0.85699 0.995463,-0.92291 0.263484,0.26348 0.237383,-0.8965 0.112879,-0.26081 0.177123,-0.0655 0.289993,0.24713 1.05475,1.97776 0,-2.18863 0.102987,-0.54466 0.226572,-0.5298 0.329558,-0.56029 4.3e-5,8e-5 m 17.39158,5.31864 0.156631,0.10076 1.142032,0.53851 0.950338,0.55507 0.779035,0.64068 2.162925,2.53574 -0.03034,0.16548 -0.435844,0.4871 -0.671353,0.4662 -0.04646,-0.67607 -0.267931,-0.61426 -0.617592,-0.59322 -0.82942,-0.33123 -0.74376,-0.0253 -0.55847,0.13899 -0.273558,0.16167 -0.35444,0.33568 -0.03261,-0.90186 -0.284299,-1.67099 -0.196974,-0.97697 0.152126,-0.33595 -2.5e-5,0 m 15.523545,0.64933 -1.11431,0.0705 -2.158901,0.48284 -1.743566,0.73 -1.288705,0.78933 -0.79432,0.66082 -0.41163,0.52612 -0.211424,0.47913 -0.08908,0.62948 0.63301,1.39777 -0.237377,0.36914 -0.105645,-0.0265 -0.05268,0.39563 1.582135,1.02824 0.07917,0.71214 -0.369119,0.28999 -0.395633,-0.210869 0.09221,0.458169 0.329523,0.596591 0.606504,0.289989 0.343019,-0.94911 7.277641,0.764759 0.494806,-0.0722 1.130102,-0.307049 1.233927,-0.677872 0.48981,-0.52045 0.316465,-0.664129 0.233618,-1.419371 -0.02596,-1.19438 -0.207662,-1.1305 -0.754803,-0.55365 -0.835971,-0.31389 -1.046101,-0.002 -1.539254,0.395399 -0.412,0.15807 1.242743,0.402231 0.971186,0.421149 0.686847,0.49527 0.412016,0.613001 0.115359,0.336119 0.316506,0.369121 -0.422148,0.474759 -1.529243,0.26693 -1.340584,0.34481 -1.217035,0.49563 -2.033724,1.05483 -0.995867,0.24314 -0.97854,-0.137579 -0.873041,-0.53931 -0.672783,-0.729661 -0.69543,-1.20966 -0.606504,-2.926879 1.420622,0.0791 1.21585,-0.0124 1.055164,-0.14591 2.959692,-1.12079 1.682525,-0.61481 1.158513,-0.26867 0.220012,-0.046 0.02802,-0.12122 -0.470196,-0.368 -1.08911,-0.36848 -1.608678,-0.16861 1.7e-5,1.1e-4 m 3.55377,1.56988 -1.039656,0.0632 -1.932728,0.4702 -1.30694,0.64848 -0.992293,0.60652 -0.988791,0.34434 -3.281714,0.24227 0.13111,0.6538 0.442262,1.42996 0.360756,0.75693 0.466073,0.65205 0.580568,0.44752 0.704234,0.14335 1.598603,-0.33037 1.624874,-0.63451 1.509508,-0.65549 1.252508,-0.3933 1.435707,-0.22392 -0.35444,-0.39155 -0.149228,-0.41029 -0.464431,-0.40793 -0.971324,-0.44985 -1.799175,-0.5219 -0.512634,-0.0744 0.61518,-0.71321 0.800512,-0.51394 1.157159,-0.28319 1.27664,0.0897 1.063396,0.306401 0.997566,0.48 -0.04878,-0.20142 -0.26657,-0.446621 -0.664721,-0.455319 -1.243234,-0.22752 0,2e-5 m -16.802217,1.53645 0.505765,0.10201 0.478118,0.44412 0.242039,0.61713 0.09722,0.78436 -0.527385,-0.0792 -0.100545,-0.491 -0.216526,-0.42101 -0.408116,-0.36666 -0.531741,-0.13806 -0.488527,0.0819 -0.496197,0.2405 -0.184353,-0.28999 0.526886,-0.24656 1.103368,-0.23759 0,3e-5 m 12.811618,0.97318 0.86003,0.10013 1.027991,0.38075 1.226067,0.65961 0.247161,0.19813 -0.400911,0.07 -1.631506,0.6573 -1.976538,0.89485 -0.256249,-0.72478 -0.498684,-0.52582 -0.904277,-0.29685 -0.971313,0.0177 -0.646187,0.16623 -0.470803,0.28184 -0.429076,-0.98787 1.239982,-0.43825 1.151399,-0.3013 1.151377,-0.13696 1.281537,-0.0147 0,2e-5 m -2.825318,1.7098 0.460073,0.0824 0.505338,0.33595 0.353309,0.44341 0.275231,0.55192 -0.593047,0.23739 -0.250498,-0.38555 -0.327959,-0.30401 -0.476292,-0.21999 -0.889895,-0.0364 -0.336163,0.10206 -0.118692,-0.39522 0.442465,-0.20821 0.95613,-0.20374 0,-5e-5 m -4.888738,2.92891 -0.219433,0.5445 -0.386354,0.59624 -0.625162,0.50012 -0.621366,0.0548 -0.476213,-0.315829 -0.412355,-0.596691 0.272542,0.167871 1.181512,0.111921 0.682487,-0.18128 0.384909,-0.33712 0.219433,-0.544501 0,0 m 3.337196,0.615469 0.0751,0.596722 9.322279,0.186399 -9.397378,-0.783121 m -0.176606,1.15224 0.184356,0.39563 9.07103,0.659122 -9.255386,-1.054752 m 17.682395,0.456821 0.04037,0.12684 -0.05591,-0.108899 0.01555,-0.01789 m -18.051931,0.360551 0,0.68563 9.545793,2.21514 -9.519279,-2.821641 -0.02653,-0.0791 m 17.29818,1.186899 0.738248,0.474359 0.601566,0.211139 0.328379,-0.111238 1.04578,2.1609 0.133723,0.590538 -0.02184,0.707661 -0.36357,1.59188 -0.978857,2.66634 -0.245401,1.10107 -0.02785,0.738011 -3.451809,5.215839 -0.939379,-2e-5 -2.145744,-0.158231 -1.535551,0.137631 -1.809945,0.50846 -2.139137,0.804291 0.0265,3.5595 -0.218401,0.44748 -0.480483,0.264589 -0.698887,0.15831 -1.591922,0.68887 -2.442326,1.262391 -0.714431,0.632441 -0.472169,0.669538 -0.395515,0.96577 -0.508178,0.245601 -1.217529,0.312778 1.014739,-3.373958 0.752898,-2.23527 0.643692,-1.48853 0.738246,-1.1869 -0.184356,1.08127 0.243828,-0.53736 0.423486,-0.564111 0.73005,-0.665429 1.058457,-1.07407 1.19936,-1.526402 1.882066,-2.54114 3.744248,-4.377258 0.75167,-1.051571 0.514348,-0.873579 0.0042,-0.10243 0.796405,-1.553371 0.38601,-0.92811 0.659116,1.159981 0.243907,0.533911 0.646526,-1.179331 0.506931,-0.831071 -0.342601,2.953391 0.738234,-1.133882 0.255891,-0.610949 0.12512,-0.71103 0.01871,-1.23862 -0.0042,-0.02371 -0.02455,-0.277038 0.02875,0.300739 0.282118,0.822759 0.489655,0.660569 0.491651,0.321672 0.182344,-0.02151 0.105763,-0.17246 0.422148,-3.401229 -1.05e-4,7e-5 m -3.922482,4.541639 -0.112175,0.204749 0.122747,0.075 -0.01058,-0.279779 0,0 m -48.082189,-3.624342 -0.179055,0.005 0.731639,0.560369 3.22348,3.28952 1.09441,1.303091 0.81817,1.171439 0.968287,1.896062 0.345329,1.213759 0.0437,0.427659 0.24143,-0.353489 0.345247,-1.090159 0.03388,-0.835239 -0.153378,-1.0361 -0.411706,-1.242512 -0.741105,-1.454511 -0.862717,-1.212449 -0.931992,-0.928359 -0.956961,-0.681961 -0.937625,-0.473231 -1.640022,-0.470978 -1.031012,-0.0882 0,2.82e-4 m 45.074548,3.669612 2.82e-4,0 0.04736,0.106459 0.0094,0.574269 -3.964102,5.095121 -1.503178,1.70736 -1.344975,1.82602 -1.165456,1.337538 -1.619713,1.390422 -2.170867,1.610969 0.01267,0.134911 -0.0665,-0.0965 0.05382,-0.0384 -0.42214,-1.030689 -1.137434,-3.309733 -0.578071,-2.023189 4.139475,-2.349319 -0.03463,0.01301 0.631382,-0.348329 2.493662,-1.39395 1.498978,-0.752669 1.476491,-0.553901 0.764751,-0.790851 0.237386,0.685642 1.792997,-1.529532 0.01326,0.31649 0.05362,0.173089 0.117858,-0.01479 0.663615,-0.739479 -1.1e-4,6e-5 m -17.55922,1.055161 0.279395,0.0767 0.326268,0.107219 0.240039,0.16024 0.142158,0.254621 0.115629,1.021131 0.185909,0.774508 0.369406,0.841652 0.07427,0.403388 0.421734,1.4769 -0.678951,0.0295 -0.566891,0.137101 -0.468026,0.307729 -1.107364,1.345161 -0.102226,-1.05478 0.002,-1.236881 0.152871,-1.63736 0.613845,-3.006821 -9.9e-5,-2.8e-5 m 4.11296,4.283038 0.154993,0 0.523703,0.082 0.323898,0.13263 0.08806,0.158332 -0.349998,0.35919 -1.77056,0.670549 -0.442135,-1.30519 0.367893,0.162689 0.306818,-0.0453 0.797298,-0.214929 2.8e-5,-1.1e-5 m 22.078012,0.974809 0.45315,0.561642 3.616982,2.572839 0.685154,0.656901 0.391061,0.780598 0.159464,0.839171 -0.0097,0.83262 -0.276705,1.38511 -0.203324,0.577469 1.160661,1.225951 1.151927,1.401321 1.267302,1.810359 0.457027,0.99279 0.157669,0.97834 -0.07395,0.94249 -0.237823,0.885241 -0.696336,1.513069 -0.538988,1.027201 -0.941482,1.500948 -0.36933,0.869352 0.04315,1.023168 0.0716,0.597611 -0.100158,0.67323 -0.59145,1.568049 -1.878604,3.98559 -0.611956,1.053841 -0.871539,0.902191 -1.069069,0.759728 -1.204539,0.626451 -2.567268,0.88974 -2.364483,0.466719 -1.879092,0.12234 -1.407092,-0.0945 -1.188559,-0.251799 0.130545,0.512838 0.466172,1.016262 0.09491,0.469059 -0.258245,0.430589 -0.806585,0.927611 -0.353083,0.47546 -0.48591,0.391561 -1.6221,0.699199 -0.549755,0.0519 -0.548011,-0.168402 -1.02785,-0.759818 -1.342497,-1.547611 -5.108589,-4.21371 -0.525331,-0.502491 0.264309,-0.0572 1.691902,-1.77126 1.407031,-1.721172 1.151881,-1.840058 0.649117,-1.485821 0.292543,-1.171191 0.05481,-1.297039 -0.06407,-1.863401 -0.138009,-1.072108 -0.294242,-0.92399 -0.841875,-1.410002 -0.8209,-0.836648 -0.369321,-0.27605 0.659192,0.151618 0.608931,0.293342 0.603989,0.53066 1.529512,2.21475 -0.224214,-0.936001 -0.354384,-0.95499 -0.581784,-1.088511 -0.824854,-0.903108 -0.889132,-0.54713 -1.00203,-0.342751 0.138537,-0.260389 0.652729,-0.79436 0.544669,-0.358032 0.529808,-0.0935 0.560273,0.0824 0.527374,0.817372 1.476494,1.292129 0.977293,1.220749 0.710325,1.425902 0.580139,1.6776 0.07917,-1.898241 -0.237386,-1.34515 2.083412,0.501269 1.05184,0.128961 0.283009,-0.204769 -0.107571,-0.298701 -0.119914,-0.15286 -1.01843,-0.352639 -3.253192,-1.36124 -1.561995,-0.777511 -0.53121,-0.399361 0.02749,-0.14721 0.114066,-0.02111 0.474785,1.1e-5 2.215123,0.237369 5.352891,0.870401 -2.610778,-1.028652 -1.808308,-0.492328 -1.484477,-0.183312 -1.374473,0.01651 0.767994,-0.0659 3.00276,0.01321 2.064627,0.172212 1.63701,0.27603 1.466898,0.369129 -2.66339,-1.081261 -2.02254,-0.388919 -2.212865,-0.0329 -2.514851,0.210992 1.739977,-0.711731 2.215133,-1.29214 1.394695,-0.583841 1.654304,-0.487449 1.961289,-0.458221 -5.352888,0.817371 0.705278,-0.63275 1.096722,-0.7465 1.783991,-0.993742 1.952927,-0.734229 1.468408,-0.175579 0.924554,0.10129 0.321369,0.0964 0.50086,-1.080857 2.730285,-4.84223 -4.2e-5,1.58e-4 m -23.667075,0.675851 0.325487,0 -1.027266,2.616979 -0.696911,2.01862 -0.51014,1.88788 -0.185939,2.14893 0.0374,2.609551 0.241478,3.63711 -0.609769,0.0318 -1.664917,-0.02481 0.141961,-0.619159 0.07257,-1.201572 -0.226224,-1.756799 -0.436386,-2.389629 -0.283117,-2.439072 0.02949,-1.055768 0.204098,-0.849362 1.114063,-2.231629 0.837187,-1.22303 0.814191,-0.784479 0.715312,-0.3494 1.107375,-0.02619 5.1e-5,3.1e-5 m 0.606504,1.028229 0.527386,1.756909 0.606493,2.567743 0.316503,1.872118 0.369127,0.0527 1.529512,-0.369121 -1.898639,6.381128 -0.145197,1.09187 -2.667062,0.43397 -0.259975,-3.993599 -0.0574,-2.847741 0.176253,-2.120377 0.929482,-3.164262 0.573515,-1.66125 0,-9e-5 m -22.121653,7.351451 2.134388,0.321821 1.075732,0.466028 1.013895,0.780031 1.377672,1.404281 0.432442,0.30134 0.524425,0.138749 0.357732,0.598508 0.426491,1.112591 0.233623,1.587421 -0.220874,2.022968 -0.768679,2.240532 -1.028723,2.064878 -1.647878,2.6035 -0.140532,0.002 -0.03077,0.0823 -0.447433,0.335269 -0.373053,0.265729 -1.044295,0.461501 -1.575543,0.125849 -0.904307,-0.07 -0.768985,0.11202 -1.468189,1.41e-4 -0.749346,-0.23484 -0.742389,-0.413199 -0.574573,-0.49011 -0.245898,-0.465601 0.04253,-0.25923 0.129893,-0.025 0.200364,0.13532 0.696963,0.361168 1.354219,0.459052 0.869374,-0.02111 0.379933,-0.202872 0.713131,-0.16768 1.356398,-0.447378 0.584431,-0.455352 0.245324,-0.530498 0.15852,-0.636251 0.650141,0.0326 1.13959,-0.0514 0.461804,-0.133703 0.197893,-0.16689 0.03041,-0.20272 -0.960238,-0.424149 -1.128046,-0.675871 0.0539,-0.138989 0.405268,0.034 1.312201,0.272602 0.734172,0.035 0.04895,-0.0909 -1.025795,-0.484962 -0.684018,-0.487087 -0.523161,-0.598952 -0.452041,-0.722461 -0.111756,-1.13755 0.522076,-0.46578 -0.05139,-0.338028 -0.247169,-0.799522 0.07603,-0.40235 0.294524,-0.103468 0.46844,0.0955 -0.838998,-0.279389 -0.329794,-0.157959 0.05477,-0.16851 0.480178,-0.382411 0.04311,-0.124361 -0.145687,-0.0317 -0.243575,-0.0561 -0.250555,-0.197739 -0.05008,-0.54599 0.180687,-0.80126 0.354351,-1.039611 -0.596709,1.081679 -1.100055,1.51014 -0.652563,0.72703 0.783109,-0.148878 0.102524,0.70384 0.214387,0.78773 0.111806,-0.116502 -5e-5,-0.200408 0.466209,1.920259 0.04897,0.743611 -0.161672,0.386678 -0.334738,0.342931 -0.405278,0.17712 -0.347622,-0.01871 -0.515162,-0.233141 -1.244621,-1.524349 -1.048839,-1.440448 -0.335269,-2.479861 -0.03731,-0.943811 -0.135782,-0.24901 -0.293108,0.18619 -0.157638,0.85304 0.197174,1.272551 0.382464,1.188649 0.398232,0.60132 0.419851,0.39007 0.505546,0.730902 0.939385,1.526509 0.431715,0.397081 0.477107,0.164589 0.545233,0.01628 -0.05591,0.596711 -0.122623,0.3263 -0.215259,0.172452 -0.29595,0.0792 -1.734002,-0.438012 -1.333715,-0.426999 -0.903712,-0.458521 -0.673588,-0.96842 -0.827433,-1.548779 -0.997592,-2.06971 0.654951,1.904229 1.116422,2.813191 0.655776,0.713181 0.88473,0.419489 0.87424,0.27265 0.624306,0.272669 0.226651,0.45913 -0.0915,0.626912 -0.308256,0.63391 -0.423614,0.4801 -0.591657,0.154988 -0.757662,-0.145669 -1.2794,-0.661922 -1.372833,-2.174468 -0.995265,-1.85284 0.671354,1.883139 0.08504,0.70156 -0.145746,0.673622 -0.368368,0.731878 -0.07464,0.29814 0.354438,2.423981 -2.20005,-2.498609 -0.106048,-0.0395 -0.01875,-0.0751 -0.543816,-1.21624 -0.721808,-1.868889 -0.639957,-1.65601 -0.522064,-1.14035 0.07261,-0.28713 0.193331,-0.547751 0.682774,-0.701559 0.832172,-0.755201 0.510536,-0.699259 1.744869,-2.479461 0.392032,-0.27708 0.549014,-0.199229 1.247585,-0.407131 0.983894,-0.726739 0.637798,-0.538881 0.481114,0.102072 0.718438,0.161408 0.475257,-0.146888 0.449311,-0.316221 0.77625,-0.631199 0.726824,-0.123991 1.2e-5,9e-5 m 9.655922,4.36911 0.05956,0.116651 -0.02733,-0.02481 -0.03223,-0.0918 m 41.972285,1.384729 -0.902953,1.88547 -0.898886,1.4965 -0.992886,1.100929 -0.953398,0.761351 -0.819906,0.860191 -0.592472,0.95907 -0.2711,1.057989 -0.03055,1.245139 -0.253094,1.398462 -0.359851,0.699538 -0.595308,0.669262 -0.890707,0.616088 -1.24604,0.540052 -1.637837,0.41932 -1.922734,0.285189 -4.07968,0.264459 -4.752882,-0.0199 1.463466,0.553751 3.480675,1.067949 2.070359,0.44868 2.062943,0.243512 1.884954,-0.0729 0.822426,-0.189879 0.713963,-0.310712 2.047728,-1.423089 1.162753,-1.339031 0.638677,-1.368688 0.475488,-1.512081 0.737492,-1.71233 1.009421,-1.742019 1.786464,-2.6633 0.443281,-1.126442 0.255335,-1.398369 0.144859,-1.694191 0,0 m -26.263175,0.448242 0.599976,0.2937 0.793462,0.827919 0.782577,1.282401 0.567317,1.657138 0.09425,1.016192 -0.0884,1.191009 -0.602421,2.668721 -0.966012,2.65474 -1.084905,2.16524 -0.539699,0.729618 -0.578553,0.521191 -1.148277,0.55401 -0.802279,-0.26714 -4.186645,-2.19336 -5.78741,-2.738211 -1.430815,-0.54777 0.713453,-1.52739 0.928629,-2.711599 0.28203,-1.57686 0.04447,-1.480981 -0.235958,-2.14781 2.117178,0.36173 2.960398,0.0849 3.492582,-0.20559 2.199662,-0.272319 1.875375,-0.339471 9e-6,0 m -39.656397,1.245641 0.708469,1.827259 0.436749,0.239931 0.628609,0.0843 0.01713,0.031 0.824115,0.718549 0.577706,0.631201 0.365073,0.680639 0.369123,2.162112 1.138773,0.63097 -2.530043,-1.132673 -0.545592,-0.36132 -0.417538,-0.442169 -0.5191,-0.967802 -0.251625,-1.155988 -0.466198,-0.391561 -0.186179,-0.54858 -0.10053,-0.861501 -0.04897,-1.144399 1e-6,-9e-6 m 27.10216,10.06909 2.021733,0.840119 2.173622,1.08217 2.386031,1.2591 1.956076,1.59934 2.322486,1.57715 1.785301,1.31563 2.51248,2.133651 2.582404,2.077708 1.112032,0.744762 0.883039,0.40305 0.676399,0.10344 0.553601,-0.0521 0.779013,-0.396161 0.408437,-0.49405 0.118277,-0.242369 0,0.9324 -0.680525,1.098321 -1.631397,1.81498 -1.967018,1.82197 -1.687381,1.11929 -1.396072,0.363028 -1.326139,0.107832 -1.379734,-0.0605 -4.558888,-2.871462 -3.181428,-2.162919 -1.082035,-0.84722 -0.463225,-0.53257 -0.05304,-0.555309 0.160212,-0.44697 0.862321,-1.309931 0.283794,-0.82447 -0.139197,-0.54128 -0.442742,-0.38687 -4.885065,-3.281321 0.531395,-1.090868 1.034822,-1.818062 0.253994,-0.776119 -0.09568,-0.76213 -0.34511,-0.811081 -0.0828,-0.13011"
       id="path56" />
  </g>
  <g
     style="display:none"
     transform="translate(0,-198)"
     inkscape:label="Edge.Cut-s"
     id="layer2"
     inkscape:groupmode="layer">
    <path
       style="display:inline;fill:none;fill-rule:evenodd;stroke:#000000;stroke-width:0.20634085px;stroke-linecap:butt;stroke-linejoin:miter;stroke-opacity:1"
       d="m 50.781335,199.41114 c -1.542109,0.45187 -1.366638,2.13707 -3.070742,2.2208 -1.342594,0.97943 0.19156,3.12766 -1.992328,2.06087 -3.598535,0.0733 -6.44586,3.31168 -10.059119,2.18882 -3.506167,-0.29236 -6.281307,2.43536 -7.629634,5.27936 -1.452611,1.25118 -2.447523,2.98804 -4.586312,2.74021 -4.226565,2.30177 -5.813766,7.46297 -9.85044,10.12156 -3.9042295,3.91156 -6.7942364,10.79905 -3.060082,15.68424 0.136213,4.39766 4.796222,6.53632 8.159704,7.6723 0.588125,2.75927 4.673362,4.21506 5.870362,4.98995 -2.740841,0.4374 -5.292859,2.07363 -7.491027,3.48657 -1.28497,1.75764 -1.846095,3.22191 -3.25809,0.95504 -3.550573,-1.75585 -4.8304742,3.35689 -4.3563127,5.94347 -0.098459,4.30039 2.3146647,8.93128 6.6410847,10.14137 3.083181,2.505 7.68098,2.05664 11.58078,2.81333 1.979055,0.14066 6.171392,-1.3414 6.504007,-0.30312 -2.567944,3.3889 2.249194,6.05976 4.077563,7.78348 -1.85189,5.30123 5.146134,7.73729 8.331829,10.22514 4.075263,3.15255 10.456183,3.82659 13.854891,-0.72199 3.164787,-2.39997 5.081944,-6.55918 8.357722,-8.40798 7.631154,-1.70034 13.208175,-9.13449 13.138993,-16.81902 3.772134,-4.26856 2.833832,-10.91756 -1.00378,-14.79469 -0.68861,-3.16317 -2.009501,-6.92917 -5.143795,-8.11707 2.246715,-2.70638 0.500708,-6.72196 0.290931,-9.21222 3.176882,0.37331 4.422438,-3.53434 2.370075,-5.61294 -2.198379,-1.49527 -1.064735,-2.66806 -0.546823,-4.57108 -2.201934,-6.42182 -2.404568,-13.46174 -4.475118,-19.98571 0.01864,-2.93125 -3.841769,-4.04752 -5.143802,-1.28557 -2.489348,1.24539 -3.574976,5.80352 -6.627375,3.62974 -5.003629,-0.10017 -6.054949,-5.28729 -9.457464,-7.81394 -0.421115,-0.24943 -0.938926,-0.38847 -1.425698,-0.29092 z"
       id="path22"
       inkscape:connector-curvature="0"
       sodipodi:nodetypes="ccccccccccccccccccccccccccccccc" />
  </g>
</svg>
