<?xml version="1.0" encoding="UTF-8" standalone="no"?>
<!-- Created with Inkscape (http://www.inkscape.org/) -->

<svg
   xmlns:dc="http://purl.org/dc/elements/1.1/"
   xmlns:cc="http://creativecommons.org/ns#"
   xmlns:rdf="http://www.w3.org/1999/02/22-rdf-syntax-ns#"
   xmlns:svg="http://www.w3.org/2000/svg"
   xmlns="http://www.w3.org/2000/svg"
   xmlns:sodipodi="http://sodipodi.sourceforge.net/DTD/sodipodi-0.dtd"
   xmlns:inkscape="http://www.inkscape.org/namespaces/inkscape"
   width="99mm"
   height="99mm"
   viewBox="0 0 99 99"
   version="1.1"
   id="svg2302"
   inkscape:version="0.91 r13725"
   sodipodi:docname="gato dco capas.svg">
  <defs
     id="defs2296">
    <inkscape:path-effect
       fuse_tolerance="0"
       vertical_pattern="false"
       prop_units="false"
       tang_offset="0"
       normal_offset="0"
       spacing="0"
       scale_y_rel="false"
       prop_scale="1"
       copytype="single_stretched"
       pattern="M 0,5 C 0,2.24 2.24,0 5,0 7.76,0 10,2.24 10,5 10,7.76 7.76,10 5,10 2.24,10 0,7.76 0,5 Z"
       is_visible="true"
       id="path-effect3811"
       effect="skeletal" />
    <inkscape:path-effect
       fuse_tolerance="0"
       vertical_pattern="false"
       prop_units="false"
       tang_offset="0"
       normal_offset="0"
       spacing="0"
       scale_y_rel="false"
       prop_scale="1"
       copytype="single_stretched"
       pattern="M 0,5 C 0,2.24 2.24,0 5,0 7.76,0 10,2.24 10,5 10,7.76 7.76,10 5,10 2.24,10 0,7.76 0,5 Z"
       is_visible="true"
       id="path-effect3807"
       effect="skeletal" />
  </defs>
  <sodipodi:namedview
     id="base"
     pagecolor="#ffffff"
     bordercolor="#666666"
     borderopacity="1.0"
     inkscape:pageopacity="0.0"
     inkscape:pageshadow="2"
     inkscape:zoom="1.979899"
     inkscape:cx="131.07493"
     inkscape:cy="179.72146"
     inkscape:document-units="mm"
     inkscape:current-layer="layer1"
     showgrid="false"
     inkscape:window-width="1920"
     inkscape:window-height="1027"
     inkscape:window-x="0"
     inkscape:window-y="27"
     inkscape:window-maximized="1" />
  <metadata
     id="metadata2299">
    <rdf:RDF>
      <cc:Work
         rdf:about="">
        <dc:format>image/svg+xml</dc:format>
        <dc:type
           rdf:resource="http://purl.org/dc/dcmitype/StillImage" />
        <dc:title></dc:title>
      </cc:Work>
    </rdf:RDF>
  </metadata>
  <g
     inkscape:label="Silk-S"
     inkscape:groupmode="layer"
     id="layer1"
     style="display:inline"
     transform="translate(0,-198)">
    <g
       inkscape:label="Capa 1"
       id="layer1-3"
       style="display:inline;opacity:0.26600001"
       transform="translate(16.891256,58.75153)" />
    <path
       id="path56"
       d="m 51.921726,203.84654 c 0,0 0.410362,0.93245 -0.428678,0.61547 -0.83905,-0.31697 -1.302327,-0.28836 -1.302327,-0.28836 0,0 0.314105,0.28836 0.127664,0.67992 -0.186463,0.39155 -0.708883,0.82022 -0.708883,0.82022 l -0.18639,0.42868 c 0,0 -0.111756,0.26139 -0.242278,0.44784 -0.130522,0.18645 -0.671353,0.82023 -0.671353,0.82023 0,0 -0.507295,0.40248 -0.599567,0.61343 -0.09231,0.21096 -0.329564,0.32957 -0.329564,0.32957 l -4.17e-4,0 -0.170493,-0.0665 -0.391554,-0.4197 c 0,0 -0.438233,-0.66192 -0.475576,-0.71786 -0.03724,-0.0559 -0.522118,-0.49428 -1.640861,-0.61546 -1.118723,-0.1212 -1.910866,0.4103 -1.910866,0.4103 l -0.335686,0.45683 -0.214532,0.19576 c 0,0 -0.680668,0.43807 -1.193429,0.50332 -0.512741,0.0653 -0.307471,-0.009 -0.363412,-0.0277 -0.05591,-0.0187 -0.167875,-0.13059 -0.59672,-0.20516 -0.428845,-0.0746 -1.295797,0.36341 -1.295797,0.36341 l -0.736609,0.45682 c 0,0 -0.428907,0.54101 -0.596719,0.63423 -0.167812,0.0933 -0.139785,0.0747 -0.382178,0.0747 -0.242382,0 -0.391314,-0.14008 -0.745589,-0.36382 -0.354253,-0.22374 -0.932333,-0.31692 -1.575606,-0.31692 -0.643262,0 -0.885718,0.0561 -1.575595,0.22393 -0.689889,0.16781 -1.873752,0.80147 -1.873752,0.80147 0,0 -0.251656,0.51304 -0.251656,0.63424 0,0.12118 -0.335666,0.92265 -0.400942,1.0625 -0.0653,0.13983 -0.745871,1.31462 -0.857753,1.3892 -0.111871,0.0746 -0.345054,0.30754 -0.345054,0.30754 0,0 -0.428845,0.22385 -0.587331,0.27979 -0.158487,0.0559 -0.475576,0.27042 -0.475576,0.27042 l -0.400525,0.42866 -0.49434,0.73662 -0.400943,0.56858 c 0,0 -0.988253,0.83933 -1.053519,0.89527 -0.0653,0.056 -0.307544,0.0277 -0.307544,0.0277 0,0 -0.186286,-0.26081 -0.428668,-0.28877 -0.242393,-0.028 -1.296038,0.35397 -1.855404,0.47517 -0.559367,0.12118 -1.05352,0.75507 -1.118786,0.90424 -0.06528,0.14916 -0.699089,1.08167 -0.699089,1.08167 l -1.472822,1.6686 -1.025791,1.23993 -0.829609,1.10941 c 0,0 -1.762053,1.86477 -1.836639,1.99529 -0.07458,0.13052 -2.043838,1.41408 -2.043838,1.41408 l -0.781072,1.11227 -0.820227,1.17466 c 0,0 -0.559448,1.09065 -0.606094,1.28643 -0.04662,0.19577 -0.64327,1.36141 -0.978888,1.87416 -0.335617,0.51277 -0.326062,1.016 -0.484552,1.6686 -0.158454,0.65259 -0.279921,2.09768 -0.03752,2.88079 0.242389,0.78311 1.081441,1.21178 1.305185,1.53808 0.223743,0.32629 0.372942,0.89815 0.399305,1.5442 0.02637,0.64602 0.250582,1.76657 0.843882,2.64992 0.593291,0.88335 2.069636,1.38424 2.465168,1.63475 0.395529,0.25051 3.533508,0.97583 4.008137,1.27909 0.474639,0.30324 0.962506,2.62375 1.740387,3.36207 0.777871,0.73832 3.849725,1.72693 6.381124,2.29386 2.531398,0.56693 4.205889,1.71415 4.983772,2.25471 0.777873,0.54055 1.647986,2.26773 1.872125,2.75556 0.224129,0.48782 0.488114,3.3752 0.61996,4.13989 0.01429,0.0827 0.03912,0.17259 0.06978,0.26593 l -0.155807,-0.24962 -0.466198,-0.14928 -1.10002,-0.24227 -0.694603,-0.36668 -0.577965,-0.0934 -0.335666,-0.0747 -0.3728,-0.50331 -0.932385,-1.08127 -1.118786,-0.98826 -1.547463,-0.54084 -0.633833,-0.13053 -0.895272,-0.13051 -1.193022,0.0188 c 0,0 -1.547641,1.1374 -1.771384,1.11878 -0.223742,-0.0187 -1.007029,-0.31704 -1.268061,-0.33567 -0.261042,-0.0187 -1.827259,1.37982 -1.827259,1.37982 l -1.95778,0.55919 -0.223512,0.24227 -1.901901,2.72254 -0.969506,1.0625 -0.839398,0.70847 -0.670947,1.37982 -0.727232,0.746 -0.316915,-0.0188 -0.634239,-0.59671 -0.372791,-1.17467 -0.615069,-1.97613 0.111756,2.27469 0.09299,1.97654 0.578361,1.15591 0.148872,0.76434 0.484958,1.11879 0.745585,0.74601 2.014065,0.98785 1.603337,0.746 1.081263,1.32394 0.932393,0.93199 1.062906,0.50372 -0.37279,-0.78311 -0.447843,-1.0258 -0.03711,-0.68971 0.447432,0.50331 0.764762,0.5596 1.808494,0.70847 c 0,0 1.864377,0.24236 2.386453,0.1864 0.522066,-0.0559 2.480131,0.11201 3.114078,-0.0371 0.633948,-0.14916 1.901499,-0.95116 1.901499,-0.95116 0,0 -0.204759,0.22398 0.05633,0.69013 0.261044,0.46611 0.838748,0.0929 1.193012,0.0183 0.354264,-0.0746 1.025752,-0.48471 3.169977,-0.57794 2.144236,-0.0933 3.02843,0.51472 3.02843,0.51472 0,0 0.105227,0.0385 0.142351,0.0527 l 0.31569,0.60731 0.261044,0.5596 c 0,1e-5 0.03745,0.74582 -0.03713,1.04415 -0.07458,0.29833 -1.118619,1.64058 -1.677975,2.05078 -0.559367,0.4102 -0.298563,1.23054 -0.298563,1.23054 0,0 3.803872,3.20696 4.922585,3.57988 1.118744,0.3729 0.745589,1.23095 0.745589,1.23095 0,0 -0.932031,1.45428 -1.267655,2.01366 -0.335614,0.55937 0,1.3423 0,1.3423 l 3.020273,2.38684 4.437622,2.79678 c 0,0 3.691928,1.86432 4.325876,2.05077 0.633947,0.18645 2.647713,-0.0372 2.946047,-0.1864 0.298313,-0.14917 1.677975,-1.23054 1.677975,-1.23054 l 2.83429,-3.05782 5.742818,-6.82448 c 0,0 4.400436,-1.26778 7.197269,-2.72211 2.796812,-1.45436 3.803664,-4.06449 4.959698,-6.74944 1.156024,-2.68495 0.7456,-4.02767 0.484556,-4.47517 -0.261032,-0.44748 1.827398,-3.2069 2.237582,-4.28834 0.410194,-1.08142 1.006904,-3.43089 0.596709,-4.84794 -0.410184,-1.41706 -3.43101,-5.03434 -3.43101,-5.03434 0,0 -0.298146,-1.82703 -0.559179,-3.09492 -0.261043,-1.2679 -1.529147,-2.5359 -2.125825,-3.02068 -0.596647,-0.48479 -2.982931,-2.12577 -3.020273,-2.8343 -0.03724,-0.70853 1.528949,-3.09504 1.827251,-4.28835 0.298344,-1.19331 -1.640862,-5.7428 -1.640862,-5.7428 l 0,-1.86438 -0.102014,-0.91813 0.139086,-0.16354 1.640861,-0.1864 -0.07468,-0.41031 1.342716,0.1868 -0.671363,-1.19343 0.708466,0 c 0,0 -1.197727,-1.63941 -1.540527,-2.35136 -0.342791,-0.71196 -0.448247,-1.17345 -0.448247,-1.17345 l -0.856928,-0.30306 1.133879,2.63689 c 0,0 0.131731,0.34248 0.131731,0.84347 0,0.50102 -0.369117,0.52738 -0.369117,0.52738 l -0.50086,-0.15784 -0.0265,0.10522 -1.160404,-0.57998 c 0,0 0.210975,1.74013 0.07917,1.8456 -0.131857,0.10547 -1.740383,1.68777 -1.740383,1.68777 l 0.316515,1.21301 -0.817375,0.18436 c 0,0 -0.685653,2.32061 -0.764761,2.21514 -0.07907,-0.10549 -0.606504,-1.68777 -0.606504,-1.68777 l -1.001719,1.63515 -1.213008,1.23911 -0.369128,-1.23911 c 0,0 -0.501152,0.71183 -1.081255,1.63475 -0.580135,0.92291 -0.870405,0.97562 -0.870405,0.97562 l -0.369125,-1.00213 c 0,0 -0.421804,0.6592 -0.659117,0.97562 -0.237334,0.31643 -0.07917,-0.81736 -0.07917,-0.81736 0,0 -0.07917,0.079 -0.395633,0.58 -0.31641,0.501 -0.368846,0.89655 -1.370858,1.13387 -1.002001,0.23732 -0.02649,-1.39736 -0.02649,-1.39736 0,0 -0.05278,0.10564 -0.764751,1.16039 -0.71195,1.05474 -0.34253,0.60635 -0.553484,0.50087 -0.210944,-0.10548 -0.105633,-0.87041 -0.105633,-0.87041 0,0 -0.685789,0.44836 -0.712148,0.84389 -0.02639,0.39553 -0.105185,0.39545 -0.474355,0.73825 -0.369139,0.34279 -0.211132,-0.0525 -0.633009,-0.39523 -0.421908,-0.3428 -0.158184,0.0263 -0.896503,0.65912 -0.16509,0.14152 -0.246513,0.22266 -0.290813,0.27286 -0.01293,0.0605 -0.08606,0.0975 0,0 0.01043,-0.0476 -0.02076,-0.1056 -0.210047,-0.11461 -0.553755,-0.0264 -0.105727,-0.39571 -0.422148,-1.23952 -0.316442,-0.84379 1.77e-4,-7e-5 -0.421742,0.73825 -0.421898,0.73832 -0.210975,0.31646 -0.685632,0.68563 -0.474626,0.36916 -0.105446,0.15837 -0.448236,0.63301 -0.342801,0.47465 -0.263902,-0.36912 -0.263902,-0.36912 0,0 -2.1e-5,-0.10549 -0.07917,-0.6065 -0.07907,-0.50101 -0.289895,0.079 -0.342603,0.26348 -0.05278,0.18459 -0.184564,0.44829 -0.975631,0.60651 -0.791068,0.1582 -2.320372,-1.26562 -2.320372,-1.26562 l -0.184762,1.29213 -0.790859,-1.58213 0.07917,1.55562 -1.39777,-1.81911 -1.05476,-0.6065 c 0,0 -0.263547,0.52733 -0.579989,0.36913 -0.316421,-0.15822 -0.896493,-0.76476 -0.896493,-0.76476 l -0.395633,0.15824 c 0,0 -0.975413,-0.97592 -1.159987,-1.63514 -0.184585,-0.65922 -0.896754,-1.9776 -0.870395,-2.92688 0.02639,-0.94927 -1.661265,-3.21687 -1.661265,-3.21687 l 2.584273,0.44825 0,-0.34261 -3.085132,-1.13388 0.02608,-0.39563 2.900777,1.02823 -0.0265,-0.36911 -2.742112,-1.34475 c 0,0 -0.55388,-0.31627 -0.55388,-0.42174 0,-0.10547 0.02649,-0.36913 0.02649,-0.36913 l 4.086863,1.92475 0.263891,-0.34262 -4.403774,-2.55775 0,-0.50127 0,-1.89864 0.290396,-0.52738 c 0,0 -1.98e-4,-0.52726 0.02618,-1.10736 0.02639,-0.58012 0.527407,-0.79107 0.685633,-1.05475 0.158205,-0.26368 0.342905,-0.58007 0.395633,-0.8965 0.05278,-0.31643 0.237375,-1.13388 0.237375,-1.13388 0,0 0.02629,-0.1053 0.210871,-0.34261 0.184585,-0.23733 0.369191,-0.92311 0.606504,-1.23953 0.06363,-0.0848 0.253888,-0.20633 0.49311,-0.33771 l -0.49311,0.68073 -0.105634,-0.053 c 0,0 4.192622,3.05901 5.194633,4.48291 1.002002,1.42392 0.84388,2.50473 0.84388,2.50473 0,0 -1.68439,-1.95149 -2.840414,-3.29396 -1.156013,-1.34248 -3.915545,-2.14417 -3.915545,-2.14417 l 0,2.05118 c 0,0.68989 0.149349,3.69151 1.790148,4.45598 1.64081,0.76445 2.777933,0.57819 3.094906,0.35444 0.316974,-0.22375 1.081568,-0.95092 1.323951,-0.91363 0.242393,0.0372 0.279621,0.20492 0.447433,0.16764 0.106468,-0.0237 0.37209,0.005 0.545733,-0.43357 l 0.405021,1.14203 -0.204758,0.16805 -0.09336,0.5592 -0.615474,0.37319 -0.03713,0.42868 -1.92066,-0.50332 c 0,0 -0.503186,0.82016 -0.484556,2.18128 0.01867,1.36112 1.808507,2.38686 1.808507,2.38686 0,0 0.167989,1.11868 0.09336,1.49159 -0.07458,0.37291 -3.542933,-1.82726 -3.766676,-1.82726 -0.223742,0 1.51034,1.5287 1.51034,1.5287 0,0 -0.01825,0.0748 0.05633,1.08167 0.07458,1.00685 1.155909,1.4357 1.155909,1.43569 0,0 -0.242602,-0.3916 -0.298563,-1.2493 -0.05601,-0.85768 0.615474,-0.37279 0.615474,-0.37279 0,0 0.316849,0.52178 0.503311,0.80146 0.186442,0.27969 0.522348,0.18681 1.286827,0.18681 0.764469,0 1.901498,0.37279 1.901498,0.37279 0,0 1.57e-4,0.22363 0.484953,1.28643 0.484775,1.06278 1.659627,0.85774 1.659627,0.85774 0,0 -0.07489,-0.0371 -0.503718,-0.63383 -0.428855,-0.59665 -0.167635,-1.45446 -0.167635,-1.45446 0,0 0.876393,-3e-5 1.640852,-0.0747 0.764479,-0.0746 1.398187,-0.70846 1.398187,-0.70846 0,0 -3.207091,0.6153 -5.295385,-0.13052 -2.08829,-0.7458 -1.770972,-2.68499 -1.770972,-2.68499 0,0 0.577766,-0.13052 1.006622,-0.26104 0.428824,-0.13052 0.969624,-0.65236 1.379829,-1.65922 0.410194,-1.00685 -0.522077,-1.3427 -0.522077,-1.3427 l 1.547454,0.42908 -2.106643,-1.51035 0.261033,-0.16803 -0.112163,-0.57796 0.522076,-0.0188 -1.335362,-1.53931 c 0.09888,-0.25326 0.167833,-0.65865 0.158247,-1.31905 -0.02587,-1.78498 -5.72957,-6.41115 -5.946742,-6.5867 0.654799,-0.34777 1.595999,-0.74396 1.595999,-0.74396 l -1.333703,-0.0844 c 0,0 -2.311818,0.41032 -3.878037,0.41032 -1.566218,0 -1.118775,0.37279 -1.118775,0.37279 0,0 -1.268009,0.85752 -2.237581,1.60334 -0.969561,0.74583 -5.183211,0.52207 -5.183211,0.52207 l 1.789731,0.52208 -2.647484,2.12581 0.03713,1.26767 c 0,0 -1.196787,0.53805 -2.119702,0.24798 -0.922903,-0.29006 -0.843587,-1.05443 -1.239105,-1.89823 -0.395539,-0.8438 -0.967069,-4.39072 -0.967069,-5.43487 0,-1.04415 0.993355,-1.68469 1.177929,-1.86926 0.184585,-0.1846 1.107332,-0.65937 1.476492,-1.08127 0.369159,-0.4219 1.60862,-1.37107 2.056887,-1.63475 0.448278,-0.26368 1.134035,-1.71405 1.160394,-2.42601 0.02639,-0.71195 0.764657,-1.58234 2.478629,-1.84602 1.713961,-0.26368 2.267664,0.31669 2.926885,0.50128 0.659211,0.18457 1.18642,0.15804 1.476482,-0.10565 0.290051,-0.26368 0.369107,-0.50098 1.344749,-0.97562 0.975643,-0.47463 1.424286,2.16213 1.424286,2.16213 l -0.02649,-2.24126 c 0,0 0.448372,-0.31654 0.922998,-0.47476 0.474647,-0.15821 1.159904,-0.23713 1.898233,0.71214 0.738319,0.94928 0.290406,2.79514 0.290406,2.79514 0,0 -0.26389,-1.5e-4 -1.318651,0.42173 -0.146095,0.0584 -0.248683,0.10532 -0.328333,0.14521 0.08887,0.104 0.143988,0.1713 0.143988,0.1713 0,0 -0.639434,0.0767 -0.143988,-0.1713 -0.04767,-0.0557 -0.08971,-0.10581 -0.172527,-0.19782 -0.237313,-0.26369 -0.712137,-0.97562 -0.712137,-0.97562 0,0 -0.263693,0.21072 -0.606504,0.71173 -0.34278,0.50101 -0.421617,0.71205 -1.00173,1.45038 -0.580114,0.73833 -1.872532,-0.0261 -1.872532,-0.0261 l 0,-0.63302 c 0,-0.44827 -0.738246,-1.50301 -0.738246,-1.50301 0,0 1.05e-4,0.84391 -0.05268,1.97777 -0.05268,1.13386 -0.237386,0.73824 -0.237386,0.73824 0,0 -0.316337,-0.50115 -1.265621,-0.55389 -0.949263,-0.0527 -0.764761,0.39564 -0.764761,0.39564 0,0 -0.395633,-0.6591 -0.395633,-1.10737 0,-0.44826 -0.369201,-0.79111 -1.212997,-1.213 -0.843786,-0.4219 -0.05268,-0.65912 -0.05268,-0.65912 -0.962541,-0.20325 -0.547601,0.42681 -0.323858,1.04211 0.223742,0.6153 1.416942,2.03241 1.416942,2.03241 0,0 0.466083,1.21207 0.316921,1.84602 -0.149162,0.63396 -1.044152,2.21881 -1.044152,2.21881 0,0 1.137613,-0.55964 2.125824,-1.54785 0.988202,-0.98822 0.913277,-1.43576 1.118379,-1.64087 0.205103,-0.2051 0.596709,-0.31692 0.596709,-0.31692 0,0 0.335677,0.78306 0.335677,1.23054 0,0.44751 -0.335677,1.77139 -0.335677,1.77139 0,0 0.354442,-0.29816 0.876518,-1.08127 0.522118,-0.78311 0.484556,-1.58498 0.484556,-1.58498 0,0 0.484953,1.8e-4 1.137541,-0.42867 0.652597,-0.42884 0.167864,-0.1681 0.857752,-0.37321 0.689868,-0.2051 0.671353,2.06995 0.671353,2.06995 0,0 0.708476,-1.00697 0.838987,-1.58498 0.130522,-0.57802 0.652598,-1.69674 0.652598,-1.69674 0,0 0.03703,0.0374 0.279391,0.54083 0.242393,0.50343 -0.167635,2.36768 -0.167635,2.36768 0,0 0.503562,-0.27967 1.062908,-1.69674 0.559366,-1.41704 -0.112164,-1.58457 -0.112164,-1.58457 0,0 0.279944,-0.14921 0.523714,-0.47558 0.22948,-0.3072 0.04006,-0.0615 0.232077,-0.51839 -0.06311,0.40646 -0.232077,0.51839 -0.232077,0.51839 0,0 0.316213,1.34478 -0.263901,2.47863 -0.580135,1.13386 -1.265621,1.76649 -1.265621,1.76649 0,0 -0.342571,-0.1054 -0.184356,-0.73824 0.158206,-0.63286 0.210871,-1.60824 0.210871,-1.60824 l -1.529512,3.03211 6.223275,2.6899 c 0,0 3.348564,-4.66757 5.220741,-3.2964 1.872188,1.37117 0.659117,4.43028 0.659117,4.43028 0,0 6.276014,2.74199 8.253668,2.79473 1.977654,0.0527 5.695628,-2.13567 7.225005,-1.31824 1.529386,0.81743 3.377979,3.92045 3.377979,3.92045 l 1.214239,-1.22076 c 0,0 -6.965297,-11.84972 -14.137594,-14.01197 -7.172298,-2.16223 -15.135663,-2.1095 -15.135663,-2.1095 0,0 0.07479,0.30013 0.160708,0.72029 -0.08282,-0.30544 -0.154731,-0.57877 -0.160708,-0.72029 -0.01867,-0.44048 -0.690045,-0.24915 -1.007029,-0.56612 -0.316984,-0.31697 -0.522076,-0.67135 -0.522076,-0.67136 0,0 0.503363,-0.72723 2.013661,-0.4662 1.510277,0.26104 1.928003,1.44019 1.928003,1.44019 0,0 0.448205,0.40854 1.384304,-0.18476 0.936099,-0.5933 2.188295,-2.70994 2.393387,-2.91505 0.205103,-0.2051 -0.14912,-0.22364 0.466188,-0.24228 0.615297,-0.0187 0.670956,-0.0371 0.670956,-0.0371 l 2.535727,3.97142 c 0,0 4.534212,0.93716 6.775538,1.96554 2.241337,1.02838 6.705161,4.28065 7.450969,5.13835 0.74584,0.85769 3.692043,4.77329 3.692043,4.77329 0,0 -3.952919,-5.44471 -3.990189,-6.56344 -0.03724,-1.11873 1.193429,-6.1156 1.193429,-6.1156 0,0 2.162928,6.04114 2.162928,7.04799 0,1.00686 0.596312,3.95308 0.596312,3.95308 l 0.261033,-0.22392 c 0,0 -0.85745,-6.52604 -1.006622,-7.19727 -0.149161,-0.67125 -1.137373,-3.61707 -1.174674,-4.08319 -0.03734,-0.46615 -0.466188,-1.95778 -0.466188,-1.95778 0,0 -2.106944,1.64087 -2.871403,2.68501 -0.764469,1.04415 -2.722127,3.54235 -2.722127,3.54235 0,0 -5.425104,-2.74761 -7.439548,-3.02027 l -2.014475,-0.27288 z m -27.150697,13.30064 c 0,0 -0.02618,1.58212 0.0265,2.55776 0.05278,0.97564 0.553723,3.40168 0.975632,4.61464 0.397479,1.14278 2.620071,2.19105 3.802162,1.88966 -0.232286,0.32511 -0.582106,0.63822 -1.09105,0.72031 -1.12859,0.18202 -2.029986,-1.14575 -2.072794,-1.20975 0.02597,0.0389 0.09628,0.17036 0.283052,0.65056 0.261044,0.67123 2.498218,1.78973 2.498218,1.78973 0,0 -0.969405,5e-5 -1.603352,-0.44743 -0.633937,-0.4475 -2.274684,-2.64749 -2.274684,-2.64749 0,0 0.447548,0.67118 1.118796,2.01365 0.671227,1.34248 2.311797,2.31222 2.311797,2.31222 0,0 -1.976538,-0.78345 -2.498604,-1.49198 -0.522076,-0.70854 -2.461094,-4.25083 -2.461094,-4.25083 l 0,1.90149 c 0,0.70853 2.088294,3.35636 2.088294,3.35636 0,0 -1.118837,-0.6713 -1.454461,-1.11878 -0.335625,-0.4475 -2.908522,-6.37664 -2.908522,-6.37664 0,0 0.783278,4.10183 2.573252,6.82407 1.789961,2.72224 4.08849,2.14947 4.08849,2.14947 0,0 -0.211017,0.26358 -1.292137,0.58 -1.081109,0.31642 -3.032101,1.39777 -3.032101,1.39777 0,0 3.111303,-0.44824 5.985492,-0.44824 2.874189,0 4.034656,1.18648 4.034656,1.18648 0,0 -1.845829,0.76481 -2.636886,2.50514 -0.791068,1.74034 -0.791266,2.71601 -0.791266,2.71601 0,0 3.190672,2.1884 3.849883,3.34861 0.659221,1.1602 -1.741196,1.18283 -1.741196,1.18283 0,0 0.559429,0.85763 1.901894,3.57987 1.342476,2.72227 3.057804,14.31992 3.057804,14.31992 l -0.447433,-4.84795 c 0,0 -0.596939,-4.62408 -1.156305,-7.30903 -0.559357,-2.68495 -2.300397,-5.44915 -2.300397,-5.44915 0,0 0.606494,-0.0527 1.582136,-0.52737 0.975643,-0.47464 0.395633,-0.97562 0.395633,-0.97562 l -4.00814,-3.90251 0.21087,-0.9226 c 0.210944,-0.92292 1.424056,-2.16264 4.166398,-3.08554 2.742343,-0.9229 4.535516,-0.57999 4.535516,-0.57999 l -0.210871,-1.15999 c 0,0 -0.923227,0.13185 -2.241659,0.52738 -1.318443,0.39554 -3.19036,0.47435 -3.19036,0.47435 l -0.896503,-0.84388 c -0.896535,-0.84379 -4.772891,-1.13347 -4.772891,-1.13347 0,0 0.791255,-0.84384 1.766887,-2.716 0.975643,-1.87219 -0.07917,-3.79728 -0.07917,-3.79728 0,0 0.289864,-0.34257 0.790849,-0.71173 0.501016,-0.36916 2.346897,-1.71428 2.346897,-1.71428 0,0 1.476502,1.8e-4 3.058617,-0.86999 1.582115,-0.87017 2.795133,-1.76689 2.795133,-1.76689 0,0 0.211017,-0.0264 0.764751,0 0.273779,0.013 1.063115,-0.12874 1.791369,-0.27532 -0.401329,0.20149 -1.001908,0.25745 -1.026608,0.38095 -0.02639,0.13185 0.105227,-2.1e-4 0.105227,0.18436 0,0.18458 -0.289989,0.52738 -0.289989,0.52738 l -0.29,0.47475 -0.02649,1.37127 c -0.02639,1.37117 -0.131732,0.60657 -1.107364,1.37126 -0.975642,0.76469 -0.105237,0.47435 -0.105237,0.47435 0,0 -0.158539,0.0792 -0.738653,0.76476 -0.580114,0.68557 0.791266,0.63301 0.791266,0.63301 0,0 0.0265,0.15817 -0.659117,0.36913 -0.685591,0.21093 -0.07917,0.34265 0.289999,0.50086 0.36916,0.15821 -0.105644,0.55389 -0.105644,0.55389 l 0.263902,1.68776 -3.79728,-1.63515 3.586409,2.66339 0.263484,0.31651 -4.772902,-1.42387 5.168535,2.42559 0.131732,0.60652 c 0,0 -1.713972,-0.94918 -3.691626,-1.18649 -1.977654,-0.23733 -1.529522,0.15824 -1.529522,0.15824 l 5.405921,1.60864 c 0,0 0.812607,2.24592 0.961759,3.25277 0.09878,0.66701 1.05985,2.40341 1.830922,3.71284 0.05674,0.51309 0.280862,2.47006 0.555925,3.8454 0.316452,1.58212 0.184679,4.64071 -0.131732,5.53725 -0.316452,0.89653 -1.434956,2.26816 -1.509537,5.40061 -0.07458,3.13244 1.113904,6.36003 1.113904,7.28294 0,0.51262 -0.08105,0.84105 -0.153365,1.03638 -1.426956,-0.12062 -2.837065,-0.38509 -4.303032,-0.79902 -2.241337,-0.63284 -2.135714,-1.60843 -2.531242,-2.39949 -0.395508,-0.79107 -0.290292,-1.21297 -0.34302,-1.58213 -0.05268,-0.36916 0.05288,-2.21515 -0.50086,-3.2699 -0.553734,-1.05475 -1.766846,-2.24121 -3.639023,-3.13774 -1.872177,-0.89654 -3.717734,-2.92688 -3.717734,-2.92688 l 0.395226,1.63474 c 0,0 -3.638835,-0.71176 -5.036375,-1.39735 -1.397544,-0.68559 -1.318237,-2.21515 -1.318237,-2.21515 0,0 -0.02636,-0.0264 -0.975633,-1.74038 -0.949272,-1.71397 -2.162118,-2.84775 -2.162118,-2.84775 l 0.42174,2.1095 c 0,0 -4.298266,-1.16041 -4.772897,-1.76689 -0.474639,-0.60649 -1.370935,-2.53145 -1.159984,-3.84989 0.21094,-1.31843 0.949113,-1.42388 0.949113,-1.42388 0,0 -2.610368,-1.34467 -2.610368,-2.08299 0,-0.73833 0.105475,-1.55589 0.527376,-2.58426 0.4219,-1.02837 1.845559,-4.32451 3.190361,-5.35289 1.34481,-1.02839 3.533787,-2.7156 3.533787,-2.7156 0,0 0.079,-0.31651 0.659118,-1.37126 0.580111,-1.05475 2.426009,-2.63688 2.426009,-2.63688 l 0.263484,0.26348 c 0,0 0.158274,-0.39549 0.237383,-0.8965 0.07912,-0.50101 0.500887,-0.34281 0.579995,-0.0792 0.07907,0.26368 1.05475,1.97776 1.05475,1.97776 l 0,-2.18863 c 0,-0.68558 0.659117,-1.63475 0.659117,-1.63475 z m 17.391582,5.31864 c 0.04454,0.005 0.09722,0.0378 0.15663,0.10076 0,0 2.088284,0.85793 2.871404,1.73426 0.783088,0.87635 2.162927,2.53574 2.162927,2.53574 0,0 0.07448,0.22374 -0.466187,0.65258 -0.540727,0.42887 -0.671353,0.4662 -0.671353,0.4662 0,0 0.186755,-1.17502 -0.931989,-1.88355 -1.118723,-0.70853 -2.274684,-0.22366 -2.405206,-0.0559 -0.130521,0.16781 -0.354441,0.33568 -0.354441,0.33568 0,0 0.01867,-1.54735 -0.316911,-2.57285 -0.272695,-0.83322 -0.237626,-1.33441 -0.04485,-1.31292 z m 15.523546,0.64933 c -0.349591,-4.2e-4 -0.722078,0.0212 -1.114311,0.0705 -3.13786,0.39554 -5.273553,1.95103 -5.985492,2.66299 -0.71196,0.71195 -0.712137,1.42379 -0.712137,1.63473 0,0.21096 0.633008,1.39777 0.633008,1.39777 l -0.237375,0.36914 -0.105644,-0.0265 -0.05268,0.39563 1.582135,1.02824 0.07917,0.71214 -0.369118,0.28999 -0.395633,-0.21087 c 0,0 0.10531,0.87019 0.421731,1.05476 0.316442,0.18459 0.606504,0.28999 0.606504,0.28999 l 0.34302,-0.94911 7.277639,0.76476 c 0,0 3.111387,-0.264 3.66511,-2.24165 0.553765,-1.97767 0,-3.74425 0,-3.74425 0,0 -1.133847,-1.1864 -2.636875,-0.86999 -1.503008,0.31643 -1.951254,0.55347 -1.951254,0.55347 0,0 2.347054,0.63306 2.900777,1.31865 0.553744,0.6856 0.36917,0.63269 0.527375,0.94912 0.158226,0.31643 0.316505,0.36912 0.316505,0.36912 l -0.422149,0.47476 c 0,0 -2.715691,0.34268 -4.086862,1.10737 -1.371151,0.76468 -2.716067,1.66139 -4.008131,1.16039 -1.292073,-0.501 -2.083037,-2.05673 -2.241253,-2.47863 -0.158226,-0.4219 -0.606503,-2.92688 -0.606503,-2.92688 0,0 2.557778,0.23731 3.691636,-0.0792 1.133837,-0.31642 4.825098,-2.00427 5.80073,-2.00427 0.853705,0 -0.472801,-1.06976 -2.919939,-1.07228 z m 3.553771,1.56988 c -0.303351,-0.006 -0.648113,0.0119 -1.039657,0.0632 -3.132447,0.4102 -3.766415,1.88308 -5.220752,2.06954 -1.454347,0.18644 -3.281712,0.24227 -3.281712,0.24227 0,0 0.633989,4.19548 2.685003,4.08361 2.051004,-0.11188 4.549765,-1.78991 5.985492,-2.01367 l 1.435707,-0.22392 -0.354441,-0.39155 c 0,0 0.130386,-0.67142 -1.584983,-1.26807 -1.715391,-0.59666 -2.311808,-0.59631 -2.311808,-0.59631 0,0 0.782859,-1.39846 2.572851,-1.51034 1.789961,-0.11187 3.337601,0.8761 3.337601,0.8761 0,0 -0.09982,-1.28449 -2.223301,-1.33088 z m -16.802216,1.53645 c 0.177377,0.003 0.350019,0.0327 0.505763,0.10201 0.83059,0.36917 0.817374,1.84561 0.817374,1.84561 l -0.527385,-0.0792 c 0,0 -0.02639,-0.88313 -0.725187,-1.27867 -0.698765,-0.39553 -1.516463,0.18436 -1.516463,0.18436 l -0.184355,-0.28999 c 0,0 0.861612,-0.49612 1.630253,-0.48415 z m 12.81162,0.97318 c 0.591776,0.0104 1.072295,0.0963 1.888022,0.48088 1.305206,0.61531 1.473227,0.85774 1.473227,0.85774 0,0 -0.391628,-0.0559 -2.032417,0.72725 -1.640788,0.7831 -1.976538,0.89485 -1.976538,0.89485 0,0 -0.130261,-1.41694 -1.659209,-1.54745 -1.528928,-0.13052 -2.088305,0.46579 -2.088305,0.46579 l -0.429075,-0.98787 c 0,0 2.1257,-0.87651 3.542757,-0.87651 0.531391,0 0.926481,-0.0209 1.281538,-0.0147 z m -2.82532,1.7098 c 0.158039,0.002 0.31422,0.0255 0.460075,0.0824 0.777884,0.30325 1.133879,1.33128 1.133879,1.33128 l -0.593048,0.23739 c 0,0 -0.31641,-0.72497 -1.05475,-0.90955 -0.738309,-0.18458 -1.226057,0.0657 -1.226057,0.0657 l -0.118693,-0.39522 c 0,0 0.713713,-0.41793 1.398594,-0.41195 z m -4.888737,2.92891 c 0,0 -0.02274,0.27407 -0.219434,0.5445 -0.187516,0.37594 -0.505585,0.84857 -1.011514,1.09636 -0.913631,0.4475 -1.509934,-0.85775 -1.509934,-0.85775 0,0 0.242091,0.35438 1.454055,0.27979 0.573522,-0.0352 0.890642,-0.27543 1.067393,-0.5184 0.151091,-0.30294 0.219434,-0.5445 0.219434,-0.5445 z m 3.337195,0.61547 0.0751,0.59672 9.32228,0.1864 z m -0.176605,1.15224 0.184355,0.39563 9.071032,0.65912 z m 17.682395,0.45682 0.04037,0.12684 -0.05591,-0.1089 z m -18.05193,0.36055 0,0.68563 9.545793,2.21514 -9.519278,-2.82164 z m 17.298183,1.1869 0.738246,0.47436 c 0.501653,0.32248 0.792539,0.20726 0.929945,0.0999 0.335948,0.64848 0.746904,1.46977 1.04578,2.1609 0.596646,1.37976 -0.857649,4.47497 -1.230553,5.55642 -0.276679,0.80236 -0.28663,1.52078 -0.273268,1.83908 l -3.451809,5.21584 c 0,0 -1.476638,0.0527 -3.085122,-0.15825 -1.608485,-0.21095 -5.484633,1.45038 -5.484633,1.45038 0,0 0.0265,2.82117 0.0265,3.5595 0,0.73833 -1.39777,0.87038 -1.39777,0.87038 0,0 -2.900381,1.18657 -4.034249,1.95126 -1.133858,0.76468 -1.503039,1.95133 -1.582115,2.26775 -0.03171,0.12678 -0.748197,0.34201 -1.725707,0.55838 0.185357,-0.64967 1.71684,-5.98164 2.411329,-7.09776 l 0.738246,-1.1869 -0.184356,1.08127 c 0,0 0.184418,-0.844 1.397363,-1.7669 1.212966,-0.92291 3.427923,-4.29782 4.139883,-5.14161 0.71196,-0.8438 3.427829,-4.13994 3.74425,-4.37726 0.316431,-0.23732 1.266017,-1.92515 1.266017,-1.92515 l 0.0042,-0.10243 c 0.547194,-0.83368 1.182414,-2.48148 1.182414,-2.48148 0,0 0.05268,-0.0266 0.659117,1.15998 0.126006,0.24656 0.19728,0.40983 0.243906,0.53391 0.186129,-0.34419 1.153458,-2.13057 1.153458,-2.0104 0,0.13185 -0.342603,2.95339 -0.342603,2.95339 0,0 0.02629,-0.0265 0.738236,-1.13388 0.446233,-0.69415 0.436553,-1.97761 0.399722,-2.5606 -7.93e-4,-0.008 -0.0031,-0.0157 -0.0042,-0.0237 -0.04913,-0.42317 -0.01773,-0.3235 0.0042,0.0237 0.146449,1.12661 1.394432,2.2919 1.551531,1.61108 0.158205,-0.68559 0.422148,-3.40123 0.422148,-3.40123 z m -3.922482,4.54164 c -0.01805,0.0334 -0.112174,0.20475 -0.112174,0.20475 0,0 0.289927,0.26831 0.112174,-0.20475 z m -48.08219,-3.62434 c -0.115879,4.2e-4 -0.179055,0.005 -0.179055,0.005 0,0 0.632665,0.21101 3.955119,3.84989 3.322448,3.63888 3.269898,6.01201 3.269898,6.01201 0,0 1.793017,-1.84574 -0.685633,-6.01201 -2.168829,-3.64548 -5.549183,-3.85879 -6.360329,-3.85519 z m 45.074549,3.66961 4.17e-4,0 c 0.02983,7.9e-4 0.04736,0.0325 0.04736,0.10646 0,0.13458 0.0052,0.31831 0.0094,0.57427 -0.165142,0.21704 -2.788332,3.66372 -3.964101,5.09512 -1.212966,1.47665 -1.846121,1.89852 -2.848154,3.53338 -0.980951,1.6005 -4.794149,4.22774 -4.956036,4.33893 0.105581,0.30854 -0.05382,0.0384 -0.05382,0.0384 0,0 0.05038,-0.0359 0.05382,-0.0384 -0.05372,-0.15681 -0.170837,-0.45268 -0.422138,-1.03069 -0.745819,-1.71539 -1.715505,-5.33292 -1.715505,-5.33292 l 4.139475,-2.34932 -0.03463,0.013 c 0.226162,-0.11577 0.441435,-0.23205 0.631381,-0.34833 1.827241,-1.11873 3.491645,-1.88293 3.992641,-2.14662 0.500995,-0.26368 1.476492,-0.5539 1.476492,-0.5539 l 0.76475,-0.79085 0.237386,0.68564 1.792997,-1.52953 c 0,0 -0.02618,0.68571 0.184762,0.47478 0.171264,-0.17128 0.53332,-0.74239 0.663613,-0.73948 z m -17.559217,1.05516 c 0.163682,0.053 0.279392,0.0767 0.279392,0.0767 0,0 0.633895,0.11189 0.708465,0.52208 0.06133,0.33731 0.02337,1.5066 0.670946,2.63729 -0.0031,0.0846 0.01419,0.2084 0.07427,0.40339 0.210933,0.68558 0.421731,1.4769 0.421731,1.4769 0,0 -1.239241,-0.0794 -1.713867,0.47435 -0.474647,0.55374 -1.107364,1.34516 -1.107364,1.34516 0,0 -0.290166,-1.50308 0.05268,-3.92902 0.224848,-1.5912 0.47011,-2.53738 0.613847,-3.00682 z m 4.112961,4.28304 c 0.04903,-0.002 0.100554,-0.002 0.154993,0 0.150695,0.006 0.323242,0.0307 0.523703,0.082 0.609237,0.15586 0.46867,0.40331 0.06196,0.65015 l -1.770559,0.67055 -0.442134,-1.30519 c 0.572009,0.41104 0.736546,-0.0654 1.472007,-0.0975 z m 22.078011,0.97481 0.453149,0.56164 c 0,0 1.342226,1.04391 3.616983,2.57284 2.274736,1.52893 0.745996,5.07187 0.745996,5.07187 0,0 1.901801,1.78997 3.57989,4.43763 1.67809,2.64767 -0.559492,5.36956 -0.932396,6.33913 -0.372925,0.96955 -1.71514,1.90183 -1.267665,3.39347 0.447505,1.49163 -1.268,3.80392 -2.498615,6.82448 -1.230615,3.02057 -5.892042,4.32576 -8.688854,4.69867 -2.796833,0.37291 -4.474745,-0.22392 -4.474745,-0.22392 0,0 0.149214,0.85787 0.596719,1.5291 0.447475,0.67124 -0.559721,1.11874 -0.969916,1.82726 -0.410204,0.70853 -1.006747,1.08144 -2.461094,1.56622 -1.454357,0.48479 -3.057918,-2.01377 -3.468113,-2.42397 -0.410205,-0.41021 -4.511942,-3.76622 -5.108588,-4.21371 -0.20867,-0.1565 -0.3837,-0.33547 -0.525331,-0.50249 0.160114,-0.0256 0.264308,-0.0572 0.264308,-0.0572 0,0 3.094802,-2.94586 4.250815,-5.33249 1.156024,-2.38662 1.044268,-2.75959 0.932396,-5.81745 -0.111871,-3.05787 -2.464348,-4.5188 -2.464348,-4.5188 0,0 1.133806,0.0791 1.872114,0.97562 0.73834,0.89655 1.529512,2.21474 1.529512,2.21475 0,0 -0.211111,-1.50285 -1.160384,-2.9795 -0.949273,-1.47665 -2.716015,-1.79299 -2.716015,-1.79299 0,0 0.105676,-0.34279 0.791267,-1.05475 0.685601,-0.71196 1.634749,-0.36913 1.634749,-0.36913 l 0.527375,0.81737 1.476492,1.29213 c 1.476637,1.29206 2.267758,4.32425 2.267758,4.32425 l 0.07917,-1.89824 -0.237386,-1.34515 2.083413,0.50127 c 2.08311,0.501 1.107363,-0.52737 1.107363,-0.52737 0,0 -1.291938,-0.36908 -4.271624,-1.71388 -2.979666,-1.3448 -1.951661,-1.34515 -1.951661,-1.34515 0,0 0.369452,-0.0791 2.689906,0.23738 2.320434,0.31643 5.352891,0.8704 5.352891,0.8704 0,0 -0.05299,-0.10574 -2.610778,-1.02865 -2.557747,-0.9229 -4.667258,-0.65911 -4.667258,-0.65911 0,0 0.791068,-0.15807 3.770755,-0.0527 2.979655,0.10547 5.168535,0.81737 5.168535,0.81737 0,0 -0.369316,-0.23745 -2.663391,-1.08126 -2.294075,-0.8438 -6.750254,-0.21087 -6.750254,-0.21087 l 1.739976,-0.71173 c 0,0 0.764856,-0.4747 2.215134,-1.29214 1.450279,-0.81743 5.010288,-1.52951 5.010288,-1.52951 l -5.35289,0.81737 c 0,0 0.685414,-0.89634 3.585992,-2.37299 2.900548,-1.47664 4.667258,-0.71214 4.667258,-0.71214 0,0 0.105342,-0.23705 0.50086,-1.08086 0.358739,-0.76532 2.331783,-4.15778 2.730284,-4.84223 z m -23.667073,0.67585 0.325485,0 c -0.212967,0.50924 -1.781636,4.29486 -2.234316,6.52348 -0.452742,2.22885 0.02566,7.6619 0.09294,8.39559 -0.213906,0.0152 -0.42098,0.0274 -0.609769,0.0318 -0.56187,0.0133 -1.115468,0.005 -1.664915,-0.0248 0.09252,-0.25587 0.214532,-0.78832 0.214532,-1.82073 0,-1.66123 -1.529585,-6.56571 -0.712137,-8.49063 0.817427,-1.92491 1.502996,-2.87456 1.951253,-3.45466 0.448268,-0.58011 1.213071,-1.13388 1.529502,-1.13388 0.316421,0 1.107374,-0.0262 1.107374,-0.0262 z m 0.606504,1.02823 c 0,0 1.028402,3.24354 1.133879,4.32465 0.105467,1.08112 0.316504,1.87212 0.316504,1.87212 0,0 0.02629,0.0527 0.369128,0.0527 0.342791,0 1.529512,-0.36912 1.529512,-0.36912 0,0 -1.766804,5.9856 -1.89864,6.38113 -0.10264,0.30778 -0.133067,0.82876 -0.145198,1.09187 -0.832645,0.16812 -1.777099,0.32656 -2.667062,0.43397 -0.05257,-0.61136 -0.593653,-7.05102 -0.14112,-8.96172 0.474616,-2.00402 1.502997,-4.82551 1.502997,-4.82551 z m -22.121654,7.35145 c 0.524287,0.0106 1.244446,0.14053 2.134388,0.32182 1.42391,0.29005 2.992663,2.14933 3.467299,2.65034 0.258864,0.27325 0.575358,0.38362 0.956867,0.44009 0.314857,0.43783 1.510747,2.35127 0.796972,5.32149 -0.719356,2.99344 -2.92529,6.18468 -3.44528,6.90891 -0.146345,-0.10758 -0.171306,0.084 -0.171306,0.084 l -0.447433,0.33527 c 0,0 -0.522358,0.46619 -1.417348,0.72723 -0.894981,0.26105 -2.47985,0.0559 -2.47985,0.0559 0,0 -1.304903,0.26133 -2.237174,0.11216 -0.932273,-0.14915 -2.274952,-1.04437 -2.312206,-1.60375 -0.03725,-0.55935 0.372791,-0.14887 0.372791,-0.14887 0,0 1.174841,0.68971 2.051182,0.82022 0.87633,0.13053 1.025564,-0.11203 1.249307,-0.22392 0.223753,-0.11187 0.988086,-0.13027 2.069529,-0.61506 1.081443,-0.48478 0.801812,-1.60347 0.988275,-1.6221 0.186452,-0.0187 0.950681,0.11179 1.789731,-0.0188 0.83905,-0.13051 0.690107,-0.50331 0.690107,-0.50331 0,0 -1.864541,-0.76439 -2.088284,-1.10002 -0.223753,-0.33561 0.857753,-1.8e-4 1.771373,0.16764 0.913631,0.16777 0.78312,-0.0559 0.78312,-0.0559 0,0 -0.01899,-1.8e-4 -1.025795,-0.48496 -1.006851,-0.48478 -1.65922,-1.8085 -1.65922,-1.8085 l -0.111756,-1.13755 c 0,0 0.391554,-0.27933 0.522076,-0.46578 0.130511,-0.18646 -0.168041,-0.33579 -0.298563,-1.13755 -0.130511,-0.80176 0.838998,-0.41032 0.838998,-0.41032 0,0 -0.05591,-0.0743 -0.838998,-0.27939 -0.783109,-0.2051 -0.01867,-0.4292 0.205155,-0.70888 0.223742,-0.27968 -0.298386,2e-4 -0.59671,-0.40991 -0.298333,-0.41019 0.484953,-2.38686 0.484953,-2.38686 0,0 -5.2e-5,0.0374 -0.596709,1.08168 -0.596657,1.04414 -1.752618,2.23717 -1.752618,2.23717 l 0.783109,-0.14888 c 0,0 0.16776,1.3797 0.316911,1.49157 0.149141,0.11188 0.111756,-0.31691 0.111756,-0.31691 0,0 0.317037,1.49141 0.466209,1.92026 0.149151,0.42885 0.130574,1.06303 -0.447443,1.47322 -0.578017,0.4102 -1.007029,0.0372 -1.268062,-0.0747 -0.261044,-0.11187 -2.29346,-2.9648 -2.29346,-2.9648 0,0 -0.335269,-1.93915 -0.335269,-2.47986 0,-0.54072 0.05591,-1.64057 -0.466198,-1.00663 -0.52207,0.63395 0.354087,3.7291 0.820232,3.91556 0.466136,0.18645 1.379996,1.92031 1.864782,2.64748 0.484786,0.72717 1.454055,0.57796 1.454055,0.57796 0,0 8.3e-5,0.0373 -0.05591,0.59671 -0.05591,0.55939 -0.633832,0.57795 -0.633832,0.57795 0,0 -3.300197,-0.72687 -3.971429,-1.32353 -0.671241,-0.59666 -2.498614,-4.58691 -2.498614,-4.58691 0,0 1.156078,3.50547 1.771374,4.71742 0.615313,1.21197 2.479685,1.24914 3.039052,1.67799 0.559367,0.42884 -6.2e-5,1.73391 -0.59672,2.20005 -0.596657,0.46613 -2.125287,-0.22375 -2.628719,-0.6526 -0.503425,-0.42885 -2.368099,-4.02731 -2.368099,-4.02731 0,0 0.33574,0.98815 0.671355,1.88314 0.33562,0.89498 -0.354494,2.06981 -0.429079,2.10706 -0.07459,0.0373 -0.09327,0.093 -0.07464,0.29814 0.01865,0.2051 0.354438,2.42398 0.354438,2.42398 l -2.200051,-2.49861 c 0,0 -0.07025,-0.0263 -0.106048,-0.0395 l -0.01875,-0.0751 c 0,0 -1.028302,-2.21495 -1.265624,-3.08513 -0.22779,-0.83522 -1.091422,-2.64869 -1.162021,-2.79636 0.0452,-0.11885 0.07261,-0.22138 0.07261,-0.28713 0,-0.26105 0.223516,-0.78318 0.876106,-1.24931 0.652597,-0.46615 1.118959,-1.06291 1.342708,-1.45446 0.223745,-0.39156 1.362522,-2.03118 1.744869,-2.47946 0.382344,-0.44825 1.397569,-0.52744 2.188631,-0.88344 0.79106,-0.35596 1.292093,-1.16014 1.621692,-1.26562 0.329605,-0.10549 0.553514,0.28984 1.199551,0.26348 0.646027,-0.0264 1.252551,-0.84381 1.700819,-1.09431 0.168093,-0.094 0.412249,-0.1304 0.726824,-0.12399 z m 9.655922,4.36911 c 0.02013,0.0393 0.0388,0.0778 0.05956,0.11665 l -0.02733,-0.0248 z m 41.972286,1.38473 c 0,0 -1.476304,3.53362 -2.794726,4.4829 -1.318443,0.94927 -2.531409,2.16196 -2.636876,3.6386 -0.105487,1.47665 0.474292,3.8501 -3.375549,5.16854 -3.849821,1.31842 -12.393133,0.94912 -12.393133,0.94912 0,0 9.018116,3.74439 12.498787,1.74038 3.480682,-2.00404 3.639055,-3.48066 4.324645,-5.64289 0.685581,-2.16224 2.79506,-5.01016 3.533379,-6.11765 0.73834,-1.10749 0.843473,-4.219 0.843473,-4.219 z m -26.263175,0.44824 c 0.580145,0 2.221247,1.63725 2.743334,4.06116 0.522076,2.42392 -1.230428,7.34657 -2.647484,9.6959 -0.67976,1.12698 -1.546734,1.6069 -2.266527,1.80482 l -0.802281,-0.26714 c -1.121894,-0.60456 -6.717803,-3.60055 -9.974054,-4.93157 -0.537838,-0.21984 -1.010889,-0.39915 -1.430815,-0.54777 0.301045,-0.56707 1.054134,-2.09298 1.642082,-4.23899 0.577506,-2.10789 0.262973,-4.31114 0.09054,-5.20565 1.156576,0.29486 2.796708,0.52087 5.077577,0.44662 5.669259,-0.18459 6.987515,-0.81738 7.567618,-0.81738 z m -39.656398,1.24564 c 0,0 0.503368,1.52893 0.708469,1.82726 0.14331,0.20842 0.666235,0.3233 1.065358,0.32425 0.0046,0.0104 0.0093,0.0206 0.01713,0.031 0.0791,0.10548 1.529574,1.13385 1.766894,2.03039 0.237321,0.89654 0.263651,2.05664 0.369123,2.16211 0.08832,0.0883 0.853706,0.48426 1.138773,0.63097 -0.446166,-0.17405 -1.36353,-0.54941 -2.530018,-1.13265 -1.640806,-0.8204 -1.733855,-2.92728 -1.733855,-2.92728 0,0 -0.149224,-0.0372 -0.466198,-0.39156 -0.316989,-0.35425 -0.335677,-2.55448 -0.335677,-2.55448 z m 27.102161,10.06909 c 0.979282,0.37001 3.013555,1.22953 4.195354,1.92229 0.582825,0.34167 1.487673,0.80714 2.386033,1.2591 0.809906,0.69391 2.980104,2.51216 4.278562,3.17649 1.603498,0.8204 6.898831,6.15273 8.875254,6.6748 1.976402,0.52208 2.535727,-1.08127 2.535727,-1.08127 l 0,0.9324 c 0,0.67123 -4.176349,5.14603 -5.96632,5.85456 -1.789971,0.70853 -4.101946,0.41032 -4.101946,0.41032 0,0 -9.061842,-5.51919 -9.285574,-6.41417 -0.223752,-0.89499 0.18639,-1.00702 0.969499,-2.31221 0.78312,-1.30518 -0.298146,-1.75262 -0.298146,-1.75262 l -4.885065,-3.28132 c 0,0 0.89498,-1.93936 1.566218,-2.90893 0.671238,-0.96957 -0.186796,-2.34933 -0.186796,-2.34933 z"
       style="fill:#000000;fill-rule:evenodd;stroke:none;stroke-width:0.99999994px;stroke-linecap:butt;stroke-linejoin:miter;stroke-opacity:1"
       inkscape:connector-curvature="0" />
  </g>
  <g
     inkscape:groupmode="layer"
     id="layer2"
     inkscape:label="Edge.Cuts"
     transform="translate(0,-198)">
    <path
       sodipodi:nodetypes="ccccccccccccccccccccccccccccccc"
       inkscape:connector-curvature="0"
       id="path22"
       d="m 50.781335,199.41114 c -1.542109,0.45187 -1.366638,2.13707 -3.070742,2.2208 -1.342594,0.97943 0.19156,3.12766 -1.992328,2.06087 -3.598535,0.0733 -6.44586,3.31168 -10.059119,2.18882 -3.506167,-0.29236 -6.281307,2.43536 -7.629634,5.27936 -1.452611,1.25118 -2.447523,2.98804 -4.586312,2.74021 -4.226565,2.30177 -5.813766,7.46297 -9.85044,10.12156 -3.9042295,3.91156 -6.7942364,10.79905 -3.060082,15.68424 0.136213,4.39766 4.796222,6.53632 8.159704,7.6723 0.588125,2.75927 4.673362,4.21506 5.870362,4.98995 -2.740841,0.4374 -5.292859,2.07363 -7.491027,3.48657 -1.28497,1.75764 -1.846095,3.22191 -3.25809,0.95504 -3.550573,-1.75585 -4.8304742,3.35689 -4.3563127,5.94347 -0.098459,4.30039 2.3146647,8.93128 6.6410847,10.14137 3.083181,2.505 7.68098,2.05664 11.58078,2.81333 1.979055,0.14066 6.171392,-1.3414 6.504007,-0.30312 -2.567944,3.3889 2.249194,6.05976 4.077563,7.78348 -1.85189,5.30123 5.146134,7.73729 8.331829,10.22514 4.075263,3.15255 10.456183,3.82659 13.854891,-0.72199 3.164787,-2.39997 5.081944,-6.55918 8.357722,-8.40798 7.631154,-1.70034 13.208175,-9.13449 13.138993,-16.81902 3.772134,-4.26856 2.833832,-10.91756 -1.00378,-14.79469 -0.68861,-3.16317 -2.009501,-6.92917 -5.143795,-8.11707 2.246715,-2.70638 0.500708,-6.72196 0.290931,-9.21222 3.176882,0.37331 4.422438,-3.53434 2.370075,-5.61294 -2.198379,-1.49527 -1.064735,-2.66806 -0.546823,-4.57108 -2.201934,-6.42182 -2.404568,-13.46174 -4.475118,-19.98571 0.01864,-2.93125 -3.841769,-4.04752 -5.143802,-1.28557 -2.489348,1.24539 -3.574976,5.80352 -6.627375,3.62974 -5.003629,-0.10017 -6.054949,-5.28729 -9.457464,-7.81394 -0.421115,-0.24943 -0.938926,-0.38847 -1.425698,-0.29092 z"
       style="display:inline;fill:none;fill-rule:evenodd;stroke:#000000;stroke-width:0.20634085px;stroke-linecap:butt;stroke-linejoin:miter;stroke-opacity:1" />
  </g>
  <g
     inkscape:groupmode="layer"
     id="layer30"
     inkscape:label="10"
     style="display:none"
     transform="translate(0,-198)">
    <path
       style="opacity:1;fill:#7fff00;fill-opacity:1;fill-rule:nonzero;stroke:none;stroke-width:0.35714287;stroke-linecap:round;stroke-linejoin:round;stroke-miterlimit:4;stroke-dasharray:none;stroke-dashoffset:0;stroke-opacity:1"
       d="m 117.66376,219.32849 c -0.57706,-0.22635 -7.72698,-4.86404 -9.59303,-6.22237 -2.70274,-1.96738 -2.75449,-2.11295 -1.46085,-4.10996 0.86047,-1.32833 0.98512,-1.76632 0.67015,-2.35486 -0.0969,-0.18112 -1.63296,-1.29707 -3.41338,-2.47988 -3.74637,-2.48886 -3.57408,-2.09094 -2.06494,-4.76943 1.01507,-1.80159 1.17221,-2.71896 0.64153,-3.74518 -0.15858,-0.30667 -0.21577,-0.55758 -0.12708,-0.55758 0.3333,0 3.63937,1.51637 5.81332,2.66636 1.34182,0.70979 3.06028,1.83375 4.24049,2.77347 1.09141,0.86901 2.53716,1.9073 3.2128,2.30731 0.67563,0.40001 2.92691,2.14284 5.00285,3.87296 4.2328,3.5277 5.63926,4.53236 6.772,4.83737 0.92268,0.24845 1.9607,0.007 2.49227,-0.58084 0.18895,-0.20878 0.4154,-0.3796 0.50324,-0.3796 0.28286,0 0.16874,0.83362 -0.19405,1.41741 -1.02837,1.65483 -4.92937,5.48392 -6.5701,6.449 -1.30341,0.76667 -4.86238,1.29272 -5.92522,0.87582 z"
       id="path2384"
       inkscape:connector-curvature="0" />
    <path
       style="opacity:1;fill:#7fff00;fill-opacity:1;fill-rule:nonzero;stroke:none;stroke-width:0.25253814;stroke-linecap:round;stroke-linejoin:round;stroke-miterlimit:4;stroke-dasharray:none;stroke-dashoffset:0;stroke-opacity:1"
       d="m 108.1408,180.70496 c 0.23396,-1.00748 0.12677,-2.63969 -0.34417,-5.24075 -0.63565,-3.51074 -0.81264,-5.34291 -0.62116,-6.42995 0.32953,-1.87076 2.51209,-5.50428 3.83107,-6.37793 0.57681,-0.38207 0.74548,-0.42637 1.62305,-0.42637 0.53865,0 0.97935,0.0374 0.97935,0.083 0,0.0457 -0.38635,1.08799 -0.85856,2.31627 -1.04047,2.70643 -1.72702,4.93192 -1.95233,6.32866 -0.16637,1.03126 -0.10558,7.37017 0.0903,9.41297 l 0.0801,0.83521 -1.47198,0 -1.47197,0 z"
       id="path2390"
       inkscape:connector-curvature="0" />
    <path
       style="opacity:1;fill:#7fff00;fill-opacity:1;fill-rule:nonzero;stroke:none;stroke-width:0.25253814;stroke-linecap:round;stroke-linejoin:round;stroke-miterlimit:4;stroke-dasharray:none;stroke-dashoffset:0;stroke-opacity:1"
       d="m 112.22881,180.56653 c -0.18995,-1.2338 -0.38242,-6.20542 -0.32211,-8.32033 0.056,-1.96561 0.12017,-2.52132 0.40784,-3.53496 0.66596,-2.34657 1.50048,-4.79045 1.6532,-4.84136 0.26734,-0.0891 1.10034,2.90539 1.5822,5.68774 0.16972,0.98001 0.34531,1.81856 0.3902,1.86345 0.0449,0.0449 0.45581,0.002 0.91315,-0.0965 0.45733,-0.098 0.96769,-0.20705 1.13412,-0.24237 0.2151,-0.0456 0.28452,-0.0113 0.24009,0.11877 -0.48377,1.41608 -2.39771,8.10451 -2.46151,8.60199 l -0.0857,0.66817 -1.06908,0.21238 c -0.588,0.11681 -1.34738,0.24995 -1.68753,0.29588 l -0.61846,0.0835 z"
       id="path2392"
       inkscape:connector-curvature="0" />
    <path
       style="opacity:1;fill:#7fff00;fill-opacity:1;fill-rule:nonzero;stroke:none;stroke-width:0.08928572;stroke-linecap:round;stroke-linejoin:round;stroke-miterlimit:4;stroke-dasharray:none;stroke-dashoffset:0;stroke-opacity:1"
       d="m 109.18825,163.48049 c -0.0801,-0.13106 -0.13934,-1.41578 -0.11603,-2.51583 0.0272,-1.28547 0.10634,-2.06021 0.36483,-3.57269 0.19856,-1.16179 0.51544,-2.53714 0.6063,-2.63146 0.0473,-0.0491 0.62284,0.11792 0.85724,0.2488 0.33527,0.18721 0.38212,0.28709 0.45609,0.97224 0.12406,1.14929 0.26057,1.70587 0.60661,2.47336 0.1113,0.24687 0.226,0.56578 0.25489,0.7087 0.0289,0.14293 0.1672,0.65319 0.30737,1.13393 0.14017,0.48074 0.24549,0.89002 0.23404,0.90951 -0.0115,0.0195 -0.19495,0.0358 -0.4078,0.0363 -0.66496,0.001 -1.31698,0.18864 -1.61011,0.46237 -0.12572,0.11739 -1.11834,1.28807 -1.40473,1.65669 -0.068,0.0875 -0.13491,0.14068 -0.1487,0.11812 z"
       id="path2394"
       inkscape:connector-curvature="0" />
    <path
       style="opacity:1;fill:#7fff00;fill-opacity:1;fill-rule:nonzero;stroke:none;stroke-width:0.08928572;stroke-linecap:round;stroke-linejoin:round;stroke-miterlimit:4;stroke-dasharray:none;stroke-dashoffset:0;stroke-opacity:1"
       d="m 113.67506,161.16031 c -0.14907,-0.43554 -0.27063,-0.8068 -0.27014,-0.82502 5.3e-4,-0.0182 0.0913,0.008 0.2017,0.058 0.27156,0.12326 0.32283,0.11892 0.91474,-0.0775 0.48452,-0.1608 0.54063,-0.16932 0.96333,-0.14624 0.24687,0.0135 0.56301,0.06 0.70255,0.10339 0.25088,0.078 0.47863,0.24992 0.47863,0.36129 0,0.0316 -0.0911,0.14421 -0.20242,0.2502 -0.17532,0.16691 -0.35347,0.24962 -1.33093,0.61792 -0.62068,0.23388 -1.14154,0.43077 -1.15746,0.43755 -0.0159,0.007 -0.15093,-0.34404 -0.3,-0.77958 z"
       id="path2396"
       inkscape:connector-curvature="0" />
  </g>
  <g
     inkscape:groupmode="layer"
     id="layer29"
     inkscape:label="9"
     style="display:none"
     transform="translate(0,-198)">
    <path
       style="opacity:1;fill:#ffa500;fill-opacity:1;fill-rule:nonzero;stroke:none;stroke-width:0.35714287;stroke-linecap:round;stroke-linejoin:round;stroke-miterlimit:4;stroke-dasharray:none;stroke-dashoffset:0;stroke-opacity:1"
       d="m 109.34031,197.57122 c -3.06311,-1.54532 -6.37722,-3.13341 -7.36469,-3.52909 -0.98746,-0.39568 -1.86606,-0.77958 -1.95244,-0.85311 -0.08638,-0.0735 0.0231,-0.48689 0.24337,-0.91858 0.68167,-1.33618 1.49153,-3.71164 1.82283,-5.34667 0.24129,-1.19083 0.28823,-2.06111 0.19717,-3.65555 l -0.11952,-2.09264 1.36895,0.24025 c 2.67965,0.47027 8.33037,0.27881 12.85568,-0.43559 l 2.03732,-0.32163 0.83351,0.81804 c 1.68539,1.65408 2.66219,4.25588 2.44989,6.52553 -0.23876,2.55249 -1.32345,6.00058 -2.82669,8.98561 -1.04902,2.08306 -2.41408,3.39311 -3.53562,3.39311 -0.24225,0 -2.94664,-1.26436 -6.00976,-2.80968 z"
       id="path2382"
       inkscape:connector-curvature="0" />
    <path
       style="opacity:1;fill:#ffa500;fill-opacity:1;fill-rule:nonzero;stroke:none;stroke-width:0.25253814;stroke-linecap:round;stroke-linejoin:round;stroke-miterlimit:4;stroke-dasharray:none;stroke-dashoffset:0;stroke-opacity:1"
       d="m 81.203561,193.93069 c -1.250521,-0.62561 -2.082043,-1.58508 -1.702575,-1.96455 0.03921,-0.0392 0.445127,0.12608 0.902033,0.36732 1.046469,0.55251 2.266969,0.90855 2.814463,0.82103 0.231936,-0.0371 0.692314,-0.15815 1.023059,-0.26905 0.330748,-0.1109 1.049044,-0.33833 1.596215,-0.5054 1.239229,-0.37836 1.703766,-0.7778 1.92667,-1.65668 l 0.169465,-0.66817 1.194017,-0.0188 c 1.246143,-0.0196 1.929869,-0.18953 1.927776,-0.47901 -7.94e-4,-0.0937 -0.508212,-0.40216 -1.127858,-0.68548 -1.098362,-0.50222 -1.674448,-0.92503 -1.449647,-1.06396 0.06126,-0.0379 0.651494,0.044 1.311645,0.18191 0.660149,0.13791 1.380681,0.25016 1.601179,0.24945 0.346136,-10e-4 0.273117,-0.0662 -0.53454,-0.47623 -1.588624,-0.80653 -2.509123,-1.93414 -2.653742,-3.25082 -0.07479,-0.68096 -0.0552,-0.75221 0.2804,-1.01981 l 0.360813,-0.2877 -0.229857,-0.72919 c -0.28884,-0.91631 -0.28819,-1.12686 0.004,-1.29355 0.203634,-0.11616 0.177705,-0.15328 -0.200432,-0.28699 -0.540115,-0.19098 -0.543163,-0.29898 -0.019,-0.67223 l 0.415327,-0.29574 -0.417375,-0.17549 c -0.229558,-0.0965 -0.456597,-0.2777 -0.504529,-0.40261 -0.07791,-0.20302 0.112991,-1.43205 0.315048,-2.02834 0.04248,-0.12538 -0.145354,0.13285 -0.417418,0.57384 -0.27206,0.44099 -0.844502,1.22497 -1.272092,1.74215 l -0.777436,0.94035 0.453398,-0.0529 c 0.344323,-0.0402 0.4534,-0.003 0.4534,0.15556 0,0.46429 0.297556,1.55506 0.405937,1.48807 0.06387,-0.0395 0.17543,0.15555 0.247907,0.43339 0.431808,1.65528 0.548815,2.18064 0.548367,2.46216 -7.93e-4,0.47391 -0.450447,1.11637 -0.916543,1.30944 -0.511312,0.21179 -0.94217,0.11263 -1.481132,-0.34087 -0.46577,-0.39192 -2.611392,-3.21257 -2.804634,-3.68699 -0.164893,-0.40483 -0.40985,-2.21931 -0.40985,-3.03592 0,-0.91274 -0.1359,-1.48123 -0.3541,-1.48123 -0.55623,0 -0.54053,1.67477 0.03272,3.48942 0.262488,0.83092 0.477914,1.22435 0.965602,1.76343 0.345252,0.38165 1.010708,1.31393 1.478791,2.07175 0.935008,1.51376 1.142484,1.70503 1.997585,1.84152 l 0.579276,0.0925 -0.08945,0.48224 c -0.109384,0.58968 -0.412694,0.94996 -0.799761,0.94996 -0.490246,0 -3.63602,-0.90822 -4.403728,-1.2714 -0.863854,-0.40867 -1.244099,-0.93066 -2.53684,-3.48251 -0.481285,-0.95006 -0.87598,-1.67979 -0.877099,-1.62162 -0.0033,0.1725 1.480301,4.12898 1.744024,4.65093 0.354018,0.70066 1.029111,1.23179 2.004896,1.57735 0.472694,0.1674 1.115709,0.39452 1.428917,0.50471 0.313211,0.11019 0.634429,0.32172 0.713817,0.47006 0.292391,0.54633 -0.223901,1.96986 -0.912064,2.51476 -0.310647,0.24597 -0.485526,0.28234 -1.071663,0.22285 -1.025104,-0.10403 -2.134825,-0.70192 -2.706375,-1.45814 -0.26176,-0.34634 -0.835094,-1.29415 -1.274072,-2.10626 -1.090798,-2.01797 -1.17706,-2.11504 -0.713211,-0.80254 0.463116,1.31043 0.441436,1.93999 -0.101346,2.94298 l -0.327065,0.60438 0.20515,1.36586 c 0.237601,1.58193 0.240758,1.63488 0.09744,1.63488 -0.05924,0 -0.566033,-0.52618 -1.126204,-1.1693 -0.560177,-0.64311 -1.173259,-1.33211 -1.362412,-1.53111 -0.391803,-0.41219 -1.201608,-2.18585 -1.867019,-4.08922 -0.249053,-0.71239 -0.695148,-1.84379 -0.991325,-2.5142 -0.735788,-1.66552 -0.678548,-1.91076 0.760367,-3.25783 0.590757,-0.55305 1.412015,-1.51137 1.832351,-2.13816 1.195417,-1.78255 2.069216,-2.93541 2.331098,-3.07557 0.132316,-0.0708 0.741871,-0.28679 1.354564,-0.47995 1.21444,-0.38287 1.627513,-0.62119 2.472528,-1.42654 0.590577,-0.56285 0.486733,-0.54642 1.78017,-0.28159 0.604356,0.12374 0.938271,-0.0105 1.854197,-0.74562 0.82005,-0.65813 0.856949,-0.6724 1.731092,-0.66957 1.206101,0.004 3.089609,0.43751 3.866047,0.89001 0.349403,0.20363 1.298919,1.01052 2.110039,1.7931 1.010306,0.97475 1.609418,1.45244 1.90233,1.51677 0.361053,0.0793 0.4897,0.22409 0.826946,0.93073 1.010682,2.11769 1.068382,4.32664 0.185298,7.09408 -0.458102,1.43562 -1.829243,4.21979 -2.944652,5.97926 -0.761151,1.20066 -1.058595,1.54371 -1.816973,2.0956 -1.362432,0.99147 -1.716995,1.07124 -5.119354,1.15167 l -2.941355,0.0695 z"
       id="path2400"
       inkscape:connector-curvature="0" />
    <path
       style="opacity:1;fill:#ffa500;fill-opacity:1;fill-rule:nonzero;stroke:none;stroke-width:0.12626907;stroke-linecap:round;stroke-linejoin:round;stroke-miterlimit:4;stroke-dasharray:none;stroke-dashoffset:0;stroke-opacity:1"
       d="m 71.794686,190.06611 c -1.05266,-0.51293 -1.202224,-0.6078 -1.605684,-1.01853 -0.317519,-0.32323 -0.524992,-0.61513 -0.724631,-1.01949 -0.247718,-0.50175 -0.549589,-1.49799 -0.550886,-1.81804 -2.59e-4,-0.0635 -0.162525,-0.27403 -0.360598,-0.46772 -0.402037,-0.39315 -0.456787,-0.55316 -0.575865,-1.68307 -0.14786,-1.40301 -0.04716,-1.50917 0.374258,-0.39456 0.153342,0.40557 0.329216,0.81435 0.390835,0.90839 0.133574,0.20386 0.53753,0.37753 1.002511,0.43099 0.290645,0.0334 0.409284,0.0983 0.851498,0.46543 0.702828,0.58354 1.326094,1.27128 1.574072,1.7369 0.220721,0.41445 0.344292,0.97225 0.51538,2.32644 0.08333,0.65956 0.125147,0.81807 0.235709,0.89347 0.132715,0.0905 0.181613,0.21071 0.0843,0.20721 -0.02756,-0.001 -0.572466,-0.25633 -1.210895,-0.56742 z"
       id="path2539"
       inkscape:connector-curvature="0" />
  </g>
  <g
     inkscape:groupmode="layer"
     id="layer28"
     inkscape:label="8"
     style="display:none"
     transform="translate(0,-198)" />
  <g
     inkscape:groupmode="layer"
     id="layer27"
     inkscape:label="7"
     style="display:none"
     transform="translate(0,-198)">
    <path
       style="opacity:1;fill:#7fff00;fill-opacity:1;fill-rule:nonzero;stroke:none;stroke-width:0.08928572;stroke-linecap:round;stroke-linejoin:round;stroke-miterlimit:4;stroke-dasharray:none;stroke-dashoffset:0;stroke-opacity:1"
       d="m 112.23862,134.62416 c -1.61417,-1.8772 -2.13085,-2.44446 -2.5041,-2.74923 -0.4801,-0.39202 -1.57579,-1.00787 -2.48047,-1.39418 -0.7483,-0.31954 -1.65805,-0.63376 -1.75868,-0.60745 -0.0689,0.018 -0.0786,-1.4e-4 -0.0557,-0.10361 0.0608,-0.27442 0.0825,-0.32466 0.25961,-0.60048 0.10101,-0.15732 0.27064,-0.48686 0.37695,-0.73232 0.33905,-0.78284 0.45828,-0.97282 0.71317,-1.13639 0.12761,-0.0819 0.24026,-0.14064 0.25033,-0.13057 0.0101,0.0101 -0.10602,0.19154 -0.25799,0.40327 l -0.27631,0.38495 0.83287,0.63043 c 2.90201,2.19665 5.00693,4.06491 5.66207,5.02549 0.36307,0.53235 0.64621,1.09397 0.82068,1.62788 0.17767,0.54369 0.30229,1.42149 0.20115,1.41685 -0.0195,-8e-4 -0.8221,-0.91648 -1.78357,-2.03464 z"
       id="path2413"
       inkscape:connector-curvature="0" />
    <path
       style="opacity:1;fill:#7fff00;fill-opacity:1;fill-rule:nonzero;stroke:none;stroke-width:0.08928572;stroke-linecap:round;stroke-linejoin:round;stroke-miterlimit:4;stroke-dasharray:none;stroke-dashoffset:0;stroke-opacity:1"
       d="m 111.41179,137.57348 c 0,-0.63641 -0.21041,-1.1537 -0.66851,-1.64349 -0.96725,-1.03416 -2.79462,-1.21883 -3.6823,-0.37213 -0.14537,0.13867 -0.27502,0.25212 -0.2881,0.25212 -0.0131,0 -0.0377,-0.3136 -0.0546,-0.6969 -0.0387,-0.87394 -0.18051,-1.84813 -0.35703,-2.45228 -0.19973,-0.68354 -0.24567,-0.91002 -0.25536,-1.25895 -0.007,-0.24484 0.01,-0.33215 0.0745,-0.39709 0.0685,-0.0685 0.0977,-0.0728 0.16503,-0.0246 0.045,0.0323 0.20937,0.11534 0.36528,0.18459 0.60172,0.26722 1.82619,0.91133 2.22655,1.17123 0.76271,0.49513 1.02134,0.74328 2.15758,2.07023 1.70214,1.98783 1.73336,2.02688 1.73389,2.16878 7.9e-4,0.2172 -0.61911,0.8153 -1.28701,1.24172 l -0.12993,0.083 z"
       id="path2415"
       inkscape:connector-curvature="0" />
    <path
       style="opacity:1;fill:#7fff00;fill-opacity:1;fill-rule:nonzero;stroke:none;stroke-width:0.08928572;stroke-linecap:round;stroke-linejoin:round;stroke-miterlimit:4;stroke-dasharray:none;stroke-dashoffset:0;stroke-opacity:1"
       d="m 124.52955,140.44788 c -0.0473,-0.29576 -0.34975,-0.84233 -0.61031,-1.10288 -0.45634,-0.45635 -1.06057,-0.6535 -1.99499,-0.65095 -0.77187,0.002 -1.47869,0.17085 -1.89281,0.45188 -0.0965,0.0655 -0.19233,0.10174 -0.21303,0.0806 -0.05,-0.051 -0.52902,-1.15253 -0.50863,-1.16962 0.0827,-0.0693 1.47584,-0.53809 2.17991,-0.73353 1.04624,-0.29042 1.43874,-0.33964 2.91503,-0.3655 1.58593,-0.0278 1.90203,0.008 2.69308,0.30232 0.75239,0.28022 2.56824,1.2417 2.49098,1.31896 -0.01,0.01 -0.17706,0.0588 -0.37127,0.10847 -0.48795,0.1248 -1.28317,0.44579 -2.36272,0.95371 -1.22218,0.57502 -2.15527,0.98782 -2.23287,0.98782 -0.037,0 -0.0755,-0.0756 -0.0924,-0.1813 z"
       id="path2417"
       inkscape:connector-curvature="0" />
    <path
       style="opacity:1;fill:#7fff00;fill-opacity:1;fill-rule:nonzero;stroke:none;stroke-width:0.08928572;stroke-linecap:round;stroke-linejoin:round;stroke-miterlimit:4;stroke-dasharray:none;stroke-dashoffset:0;stroke-opacity:1"
       d="m 122.9869,141.00615 c -0.10411,-0.25134 -0.57763,-0.69575 -0.90401,-0.84842 -0.51523,-0.24102 -1.2745,-0.28202 -1.76553,-0.0953 -0.0883,0.0336 -0.12579,0.0302 -0.13877,-0.0125 -0.01,-0.0322 -0.0409,-0.1308 -0.0692,-0.21914 -0.0283,-0.0883 -0.0514,-0.17584 -0.0514,-0.19447 0,-0.0558 0.63968,-0.32432 1.02361,-0.42965 0.26929,-0.0739 0.4596,-0.0943 0.76585,-0.082 0.51483,0.0206 0.84976,0.1728 1.22973,0.55886 0.25819,0.26233 0.71332,0.98909 0.71332,1.13905 0,0.049 -0.11142,0.11893 -0.32008,0.2008 -0.17605,0.0691 -0.34356,0.12558 -0.37225,0.12558 -0.0287,0 -0.0788,-0.0642 -0.11128,-0.14274 z"
       id="path2419"
       inkscape:connector-curvature="0" />
    <path
       style="opacity:1;fill:#7fff00;fill-opacity:1;fill-rule:nonzero;stroke:none;stroke-width:0.08928572;stroke-linecap:round;stroke-linejoin:round;stroke-miterlimit:4;stroke-dasharray:none;stroke-dashoffset:0;stroke-opacity:1"
       d="m 110.36986,138.09122 c -0.16588,-0.0178 -0.16878,-0.0219 -0.24598,-0.35085 -0.10069,-0.42904 -0.24459,-0.72238 -0.47925,-0.97698 -0.50561,-0.54855 -1.18705,-0.64335 -1.98256,-0.2758 l -0.34318,0.15856 -0.10667,-0.16272 c -0.0587,-0.0895 -0.0998,-0.16877 -0.0915,-0.17617 0.0741,-0.0656 0.5955,-0.29133 0.94893,-0.41089 0.59786,-0.20225 1.25571,-0.23793 1.64863,-0.0894 0.30901,0.11679 0.58273,0.38514 0.77018,0.75505 0.13447,0.26535 0.28642,0.86953 0.3248,1.29141 l 0.0247,0.27167 -0.15014,-0.008 c -0.0826,-0.004 -0.22568,-0.016 -0.318,-0.0259 z"
       id="path2421"
       inkscape:connector-curvature="0" />
    <path
       style="opacity:1;fill:#7fff00;fill-opacity:1;fill-rule:nonzero;stroke:none;stroke-width:0.06313454;stroke-linecap:round;stroke-linejoin:round;stroke-miterlimit:4;stroke-dasharray:none;stroke-dashoffset:0;stroke-opacity:1"
       d="m 113.31741,144.95577 c -0.365,-0.1212 -0.75199,-0.45081 -0.98185,-0.83624 -0.12211,-0.20475 -0.1216,-0.25614 0.002,-0.17604 0.18285,0.11873 0.56865,0.19313 1.09703,0.21156 0.77994,0.0272 1.23297,-0.072 1.59669,-0.34963 0.0809,-0.0618 0.15576,-0.10368 0.16632,-0.0931 0.0316,0.0317 -0.28959,0.4772 -0.493,0.6838 -0.46284,0.47007 -1.00181,0.68757 -1.38694,0.55968 z"
       id="path2423"
       inkscape:connector-curvature="0" />
    <path
       style="opacity:1;fill:#7fff00;fill-opacity:1;fill-rule:nonzero;stroke:none;stroke-width:0.08928572;stroke-linecap:round;stroke-linejoin:round;stroke-miterlimit:4;stroke-dasharray:none;stroke-dashoffset:0;stroke-opacity:1"
       d="m 112.07933,113.53882 c -0.40278,-0.0207 -1.1505,-0.0517 -1.66159,-0.0689 -0.92743,-0.0312 -0.92933,-0.0315 -0.95744,-0.14354 -0.0348,-0.13878 -0.20179,-0.22752 -0.57014,-0.30302 -0.37671,-0.0772 -0.57979,-0.18618 -0.80696,-0.43298 -0.27147,-0.29493 -0.50439,-0.64856 -0.47597,-0.72263 0.0391,-0.1019 0.43398,-0.35298 0.72857,-0.46326 0.23492,-0.0879 0.37121,-0.10156 1.02683,-0.10259 0.8737,-0.001 1.1342,0.0522 1.77176,0.36469 0.49642,0.24326 1.03087,0.74844 1.29382,1.22294 0.19581,0.35336 0.3025,0.41635 0.70942,0.41889 0.22218,0.001 0.23383,0.007 0.14928,0.0709 -0.0908,0.0687 -0.0908,0.0701 0,0.13874 0.0837,0.0633 0.0671,0.0689 -0.19177,0.0639 -0.15591,-0.003 -0.61303,-0.0224 -1.01581,-0.0431 z"
       id="path2408"
       inkscape:connector-curvature="0" />
  </g>
  <g
     inkscape:groupmode="layer"
     id="layer26"
     inkscape:label="6"
     style="display:none"
     transform="translate(0,-198)">
    <path
       inkscape:connector-curvature="0"
       style="opacity:1;fill:#ff1493;fill-opacity:1;fill-rule:nonzero;stroke:none;stroke-width:0.25253814;stroke-linecap:round;stroke-linejoin:round;stroke-miterlimit:4;stroke-dasharray:none;stroke-dashoffset:0;stroke-opacity:1"
       d="m 107.0467,112.90318 c -0.46597,-0.0215 -1.25347,0.18638 -1.67173,0.46044 -0.31093,0.20373 -0.32775,0.28291 -0.33487,1.5689 l -0.008,1.35444 -0.27234,-0.86869 c -0.31781,-1.01276 -0.8165,-1.73736 -1.19574,-1.73736 -0.38147,0 -1.02559,0.34994 -1.74821,0.95033 -0.54645,0.45402 -0.71125,0.51987 -1.3069,0.51987 -0.43587,0 -0.98106,-0.1269 -1.512569,-0.3514 -1.486654,-0.62796 -3.308262,-0.55755 -4.760434,0.18345 -0.927653,0.47335 -1.168315,0.81301 -1.491382,2.10582 -0.404966,1.62053 -0.831397,2.26012 -2.204,3.30574 -0.650134,0.49525 -1.425752,1.13354 -1.723409,1.41851 -0.297656,0.28497 -0.909256,0.76336 -1.35909,1.06351 -1.051952,0.7019 -1.888228,1.65143 -2.007113,2.27841 -0.282999,1.4925 0.899496,7.38022 1.832446,9.12347 0.328347,0.61353 1.677484,0.85896 2.896981,0.5271 l 0.567925,-0.15451 5.29e-4,-0.82992 5.3e-4,-0.82993 1.682585,-1.3348 1.682068,-1.3348 -0.780831,-0.23358 c -0.429506,-0.12859 -0.852458,-0.23459 -0.939995,-0.23564 -0.08753,-0.001 -0.187466,-0.0477 -0.222208,-0.10387 -0.03474,-0.0562 0.85992,-0.11483 1.98851,-0.13023 3.096126,-0.0423 3.600313,-0.18369 5.469949,-1.53014 0.848158,-0.61082 1.542538,-1.18162 1.542538,-1.26865 0,-0.22363 0.27891,-0.27954 1.87069,-0.37466 0.77174,-0.0461 2.09463,-0.17406 2.93987,-0.28422 0.84524,-0.11015 1.9278,-0.18069 2.40554,-0.15709 l 0.86868,0.0429 -0.90227,0.43356 c -0.49612,0.2384 -0.90175,0.48231 -0.90175,0.54209 0,0.0598 0.52552,0.55537 1.16789,1.10122 2.86324,2.43307 5.27532,5.01658 5.91281,6.33347 0.26573,0.54892 0.29596,0.77002 0.23306,1.68775 -0.0398,0.58081 -0.0238,1.08544 0.0351,1.12189 0.059,0.0365 0.42289,0.43104 0.80874,0.87644 0.65037,0.75073 0.6804,0.81515 0.41444,0.8847 -0.18859,0.0493 -0.2868,0.18021 -0.2868,0.3824 0,0.16917 -0.0292,0.38788 -0.0646,0.48576 -0.0388,0.10734 0.26615,0.40352 0.76843,0.74621 0.45802,0.3125 1.01353,0.71712 1.23403,0.89917 l 0.40049,0.33073 -0.66145,-0.19275 c -0.36407,-0.10598 -0.68486,-0.16987 -0.71262,-0.14211 -0.0278,0.0278 0.0146,0.17193 0.094,0.32039 0.24202,0.45222 0.16406,0.94785 -0.27906,1.77922 -0.50521,0.94787 -0.99564,1.39079 -1.75441,1.58492 -0.30903,0.0791 -0.63677,0.16917 -0.72864,0.19998 -0.24883,0.0835 -0.20002,1.11466 0.0822,1.73582 0.32352,0.71213 1.02627,1.30809 1.97817,1.6769 0.66083,0.25603 1.10468,0.31041 2.91766,0.35863 1.17598,0.0313 2.48341,7.9e-4 2.90576,-0.0677 0.6576,-0.10649 0.74527,-0.097 0.6103,0.0656 -0.36047,0.43435 -1.20488,0.71738 -2.41949,0.81081 l -1.23042,0.0946 0.005,0.69401 c 0.004,0.56589 0.0863,0.80621 0.44287,1.30276 l 0.43718,0.60927 -0.34675,0 c -0.46251,0 -1.15083,-0.30102 -1.4459,-0.63252 -0.13153,-0.14776 -0.41292,-0.68254 -0.62529,-1.18804 l -0.38602,-0.91881 -0.77773,-0.22324 c -0.42785,-0.12274 -1.27356,-0.22822 -1.87947,-0.2341 l -1.10174,-0.0103 -0.39378,-0.54363 c -0.21642,-0.29876 -0.4122,-0.59747 -0.43511,-0.66404 -0.0229,-0.0666 -0.19194,-0.1376 -0.37569,-0.15813 -0.28009,-0.0313 -0.3412,0.0249 -0.37827,0.34985 -0.0243,0.21315 0.0237,0.65681 0.10645,0.98547 0.0827,0.32865 0.1211,0.62666 0.0853,0.66249 -0.12193,0.12193 -0.8858,-0.51804 -1.09037,-0.91364 -0.1121,-0.21677 -0.24013,-0.78524 -0.28474,-1.26297 -0.0809,-0.86633 -0.0835,-0.87123 -1.02784,-1.79162 -0.52079,-0.50757 -0.91813,-0.9485 -0.88264,-0.98031 0.0355,-0.0318 0.96664,0.4434 2.06913,1.05627 1.10248,0.61287 2.15461,1.13092 2.33835,1.15135 0.32965,0.0367 0.33356,0.0256 0.29146,-0.83147 -0.0402,-0.81829 -0.071,-0.89156 -0.53433,-1.26711 -1.37885,-1.11752 -1.82503,-1.89 -1.79731,-3.11299 0.0186,-0.81996 0.3417,-2.22696 0.5395,-2.34921 0.0546,-0.0338 0.62033,0.0776 1.25677,0.24753 l 1.15704,0.30903 0.0744,-0.28784 c 0.0409,-0.1583 0.25649,-0.39001 0.47904,-0.51521 0.27079,-0.15235 0.40463,-0.33172 0.40463,-0.54158 0,-0.17246 0.061,-0.37412 0.13539,-0.44855 0.0913,-0.0913 0.075,-0.30632 -0.0501,-0.66145 -0.1402,-0.39796 -0.24661,-0.51463 -0.43615,-0.4775 -0.13784,0.027 -0.5101,0.0412 -0.82734,0.0315 -0.49717,-0.0152 -0.68608,0.0688 -1.36943,0.60565 -0.63723,0.50064 -0.92217,0.63498 -1.45055,0.68575 -1.17457,0.11286 -3.06107,-0.50778 -3.80597,-1.25212 -0.88655,-0.88587 -1.5503,-3.17619 -1.5503,-5.34903 0,-1.07272 -0.13621,-1.22784 -0.48265,-0.55035 -0.12216,0.23887 -0.42457,0.66003 -0.6718,0.93586 -0.4149,0.4629 -0.4498,0.57079 -0.45372,1.40301 -0.003,0.5801 -0.0738,0.99428 -0.19998,1.16117 -0.14665,0.19389 -0.19637,0.65574 -0.19637,1.82883 l 0,1.56941 2.73626,1.57872 c 1.50496,0.86835 2.73752,1.6561 2.73937,1.75028 0.008,0.40911 -0.52699,0.25042 -2.86339,-0.84904 -1.36496,-0.64233 -2.52388,-1.12551 -2.57556,-1.07384 -0.22988,0.22989 0.30828,0.61325 2.1022,1.49758 1.76178,0.8685 2.32041,1.25147 2.11977,1.45211 -0.0412,0.0412 -0.83968,-0.19648 -1.77457,-0.52813 -1.88534,-0.66882 -1.94975,-0.68257 -1.94975,-0.41548 0,0.11964 0.70194,0.44542 1.93787,0.89969 1.51967,0.55855 1.93786,0.76453 1.93786,0.95446 0,0.20007 -0.0758,0.22853 -0.4346,0.16433 -1.70419,-0.30491 -2.57963,-0.43695 -2.62258,-0.39532 -0.0275,0.0266 0.26054,0.53228 0.63976,1.12344 0.8793,1.37076 1.19394,2.11188 1.29811,3.05718 0.0942,0.85474 1.10927,3.7136 1.54409,4.34857 0.54325,0.7933 0.95142,1.15761 1.20561,1.07694 0.16009,-0.0508 0.43226,0.0858 0.79996,0.40049 0.61958,0.53035 0.84351,0.57879 1.19527,0.26045 0.22166,-0.20061 0.28274,-0.19057 0.84336,0.13798 0.33284,0.19505 0.93813,0.77302 1.3472,1.28571 0.40861,0.51212 0.8009,0.93069 0.87127,0.93069 0.0704,0 0.13081,-0.31538 0.13436,-0.70125 l 0.006,-0.70177 0.39687,0.76843 c 0.44708,0.86616 0.65844,0.97324 0.66146,0.33435 0.004,-0.75096 0.14805,-0.80156 0.80357,-0.28112 1.60332,1.27295 2.9783,1.364 3.51761,0.23306 0.28042,-0.58805 0.48783,-0.47465 0.48783,0.26717 0,0.31416 0.0399,0.61142 0.0889,0.66042 0.15894,0.15895 0.26628,0.0956 0.42426,-0.25115 0.0853,-0.18715 0.33242,-0.44189 0.54932,-0.56637 0.46645,-0.2677 0.88066,-0.95763 1.01751,-1.69395 0.0936,-0.50387 0.10419,-0.51348 0.22531,-0.20051 0.07,0.18075 0.16633,0.62935 0.21394,0.99684 0.0771,0.59541 0.12451,0.67275 0.43718,0.709 0.27772,0.0322 0.46687,-0.0934 0.90641,-0.60151 l 0.55552,-0.64182 0.40773,0.44855 0.40772,0.44907 0.38964,-0.37362 c 0.21444,-0.20544 0.39016,-0.48065 0.39016,-0.61134 0,-0.13069 0.19521,-0.46045 0.43408,-0.73328 l 0.4346,-0.4961 0.0667,0.51418 c 0.0367,0.28291 0.13751,0.53749 0.22376,0.56586 0.0863,0.0284 0.40406,-0.31285 0.70642,-0.7581 0.53044,-0.78109 0.82987,-1.08378 0.54467,-0.55087 -0.2026,0.37855 -0.16922,0.94087 0.0615,1.0294 0.39316,0.15087 1.4492,-0.52028 1.89497,-1.20458 0.60556,-0.9296 0.73471,-1.03444 0.63045,-0.51315 -0.12052,0.60265 0.13048,0.5505 0.5731,-0.11834 l 0.36276,-0.54776 0.2806,0.64182 0.28009,0.64182 0.30592,-0.3054 c 0.16811,-0.16811 0.69237,-0.90212 1.16531,-1.63091 0.47293,-0.7288 0.88812,-1.32498 0.92242,-1.32498 0.0343,0 0.13034,0.27158 0.21394,0.60358 0.0836,0.33199 0.21084,0.63961 0.28215,0.68367 0.22243,0.13748 1.29953,-1.03673 2.00763,-2.18901 0.37263,-0.60637 0.71632,-1.10277 0.7643,-1.10277 0.048,0 0.20616,0.37172 0.3514,0.82579 0.14524,0.45406 0.3325,0.84808 0.41599,0.87591 0.0894,0.0298 0.30446,-0.43291 0.52349,-1.12603 0.39747,-1.25781 0.58131,-1.51102 1.09605,-1.51102 0.34767,0 0.35044,-0.0431 0.0889,-1.2702 -0.0785,-0.36846 0.005,-0.48848 1.01596,-1.46968 l 1.10123,-1.06867 -0.0284,-1.10278 c -0.0159,-0.60636 0.006,-1.10225 0.0496,-1.10225 0.0433,0 0.30195,0.11295 0.57464,0.25115 0.27269,0.13819 0.74099,0.2922 1.04076,0.34209 1.12506,0.18724 1.12671,-0.58039 0.006,-3.17862 -0.74216,-1.72092 -0.74999,-1.91383 -0.062,-1.54564 0.23257,0.12447 0.261,0.11019 0.19895,-0.10025 -0.0398,-0.13493 -0.11471,-0.4858 -0.1664,-0.7798 -0.17156,-0.9759 -2.37466,-3.88852 -3.64215,-4.81469 -1.14978,-0.84015 -2.02733,-0.77718 -5.76606,0.41393 -3.69533,1.17728 -4.45409,1.14181 -8.76173,-0.41341 -2.05897,-0.74337 -5.29083,-2.0479 -5.44929,-2.19935 -0.0619,-0.0592 -0.009,-0.57372 0.11783,-1.1436 0.4223,-1.89819 0.0938,-3.41164 -0.93741,-4.31705 -1.34012,-1.17664 -3.42948,-0.0608 -6.28541,3.3569 l -0.5333,0.6382 -3.87159,-1.68103 c -2.12923,-0.9245 -3.89151,-1.70145 -3.91656,-1.72651 -0.0251,-0.0251 0.37582,-0.87861 0.8909,-1.89704 0.56929,-1.12562 0.93935,-1.72951 0.94361,-1.53996 0.003,0.11895 0.0394,0.19111 0.0884,0.22686 -0.009,-0.005 -0.0182,-0.009 -0.0264,-0.0176 -0.052,-0.052 -0.06,-0.0221 -0.10697,0.4067 -0.0211,0.19293 -0.0764,0.53822 -0.12299,0.76791 -0.13129,0.6475 -0.11232,0.91236 0.0775,1.0883 l 0.0894,0.0832 0.13126,-0.12609 c 0.20952,-0.20192 0.67764,-0.79645 0.94775,-1.20354 0.50005,-0.75364 0.77167,-1.36701 0.90071,-2.03399 0.0915,-0.47297 0.0766,-1.7642 -0.0222,-1.91874 -0.025,-0.0392 -0.0555,-0.0226 -0.15709,0.0853 -0.0692,0.0735 -0.20079,0.19827 -0.29249,0.27699 l -0.1664,0.14314 0.093,0.0693 c 0.0513,0.0382 0.134,0.14693 0.18345,0.24133 0.0807,0.154 0.0894,0.20562 0.0879,0.5054 -10e-4,0.24151 -0.0229,0.41276 -0.0791,0.61805 -0.16303,0.59635 -0.56067,1.47422 -0.91105,2.01176 -0.1852,0.28411 -0.57173,0.72687 -0.60565,0.6935 -0.01,-0.01 0.0178,-0.21293 0.062,-0.45114 0.10565,-0.56974 0.19911,-1.2809 0.17208,-1.30793 -0.007,-0.007 -0.0214,-0.004 -0.0388,0.005 0.0356,-0.0481 0.0656,-0.11338 0.0822,-0.19895 0.0681,-0.35117 -0.0905,-1.06378 -0.30075,-1.35134 -0.17338,-0.23703 -0.19863,-0.21972 -0.40729,0.27749 -0.12238,0.29161 -0.34177,0.89875 -0.48782,1.34927 -0.14605,0.45052 -0.45587,1.11223 -0.68833,1.4702 l -0.42272,0.6506 -0.0935,-0.89193 c -0.0514,-0.49073 -0.17667,-1.06218 -0.27802,-1.26969 -0.23832,-0.48793 -0.59127,-0.45604 -1.77354,0.16019 -0.49039,0.25562 -0.97771,0.46509 -1.08262,0.46509 -0.11114,0 -0.19068,0.13063 -0.19068,0.31368 0,0.50375 -0.27387,1.16853 -0.80926,1.96319 -0.56309,0.83579 -1.04799,1.31659 -0.88211,0.87488 0.0528,-0.1406 0.16693,-0.66731 0.25321,-1.17047 0.15547,-0.90663 0.0185,-1.9803 -0.29249,-2.29444 -0.2091,-0.21123 -0.674196,0.18776 -1.024224,0.8785 -0.433236,0.85496 -1.562211,1.99566 -2.783808,2.81379 -0.510514,0.34189 -0.946669,0.6031 -0.969449,0.58032 -0.02278,-0.0228 0.228489,-0.57702 0.558623,-1.23196 0.748294,-1.48453 0.806968,-1.78782 0.553452,-2.88097 -0.164682,-0.71009 -0.368943,-1.09689 -1.064016,-2.01848 -0.820018,-1.08724 -1.514796,-2.5183 -1.351339,-2.78277 0.04208,-0.0681 0.238363,-0.12149 0.436147,-0.11938 0.308795,0.003 0.32639,0.0231 0.125574,0.14005 -0.361537,0.21057 -0.289073,0.33375 0.467673,0.79426 1.04662,0.63691 1.281977,0.90046 1.378728,1.54564 0.124814,0.83233 0.297979,1.01938 0.80822,0.8723 0.552722,-0.15931 1.453306,0.017 1.946134,0.38138 0.219173,0.16204 0.419715,0.27326 0.445965,0.24701 0.0263,-0.0263 0.0976,-0.79831 0.15865,-1.71566 l 0.1111,-1.66811 0.43098,0.73535 c 0.29989,0.51142 0.43096,0.9062 0.43202,1.29811 0.001,0.61832 0.18431,0.78887 1.05833,0.98599 0.78428,0.17688 1.22387,-0.11643 2.04949,-1.36788 0.40522,-0.61421 0.87199,-1.23689 1.03715,-1.38389 l 0.30023,-0.26768 0.28371,0.38912 c 0.15606,0.21396 0.40387,0.52765 0.55087,0.69712 l 0.26717,0.3085 1.02836,-0.36121 c 0.73917,-0.2594 1.04864,-0.4362 1.10071,-0.62994 0.1653,-0.61511 0.0661,-2.14986 -0.17312,-2.67632 -0.28195,-0.62064 -1.06671,-1.35822 -1.58285,-1.48777 -0.0514,-0.0129 -0.1112,-0.0207 -0.17777,-0.0238 z m 18.896,18.87637 c 0.98901,5.3e-4 1.92471,0.10817 2.5802,0.32298 0.52692,0.17267 1.09091,0.45516 1.25316,0.62787 l 0.29507,0.31419 -0.38447,0.0786 c -1.1589,0.23772 -2.15281,0.56094 -4.31602,1.40405 -3.24876,1.2662 -3.59531,1.34672 -5.75727,1.33428 -0.99224,-0.006 -1.84245,-0.007 -1.88929,-0.004 -0.0468,0.004 0.0835,0.81553 0.28939,1.80454 0.43799,2.10408 0.80776,2.88511 1.87999,3.97185 0.5931,0.60114 0.90537,0.80427 1.50378,0.97824 1.07789,0.31335 1.88175,0.11223 4.04162,-1.01286 1.82392,-0.95009 3.26445,-1.44557 5.02759,-1.72909 0.63358,-0.10188 1.11123,-0.25443 1.23921,-0.39584 0.18993,-0.20988 0.17391,-0.29969 -0.18345,-1.01855 -0.21547,-0.43342 -0.53388,-0.92075 -0.70746,-1.08313 -0.37191,-0.34794 -2.06559,-1.14929 -2.89956,-1.37201 -0.32918,-0.0879 -0.53364,-0.20626 -0.46767,-0.27079 0.23141,-0.22638 2.25502,-0.66791 3.04891,-0.66508 0.62319,0.002 0.97853,0.0899 1.53996,0.37983 1.12871,0.58298 1.23413,0.79654 1.30999,2.6479 0.10282,2.5092 -0.31666,3.68289 -1.65158,4.61832 -0.65838,0.46135 -2.42675,1.03766 -3.18378,1.03766 -0.52361,0 -7.38892,-0.68578 -8.7173,-0.87074 -0.55429,-0.0772 -0.55466,-0.077 -0.74311,0.48834 -0.10373,0.31119 -0.24528,0.58452 -0.31419,0.60719 -0.3063,0.10081 -0.98187,-0.4953 -1.11828,-0.9865 -0.1899,-0.68386 -0.18129,-0.73829 0.0946,-0.59066 0.35583,0.19044 0.69815,-0.0625 0.69815,-0.51573 0,-0.464 -0.11627,-0.58766 -1.23765,-1.31826 -0.68622,-0.44709 -0.85776,-0.62418 -0.80408,-0.82941 0.0375,-0.14345 0.11502,-0.26045 0.17208,-0.26045 0.27291,0 0.2172,-0.47162 -0.15193,-1.28571 -0.60816,-1.34127 -0.4142,-2.0468 0.8909,-3.2396 1.36919,-1.25135 3.44372,-2.27668 5.76244,-2.84788 0.8687,-0.21401 1.91107,-0.32041 2.90008,-0.31988 z m 4.31602,1.95699 c 1.19285,-0.009 2.0594,0.28081 2.57193,0.86454 0.51023,0.58112 0.57638,0.97361 0.11317,0.67335 -0.16537,-0.1072 -0.76233,-0.34894 -1.32653,-0.53744 -1.22471,-0.40916 -2.78304,-0.46276 -3.7605,-0.12971 -0.5705,0.19439 -1.96267,1.27234 -1.96267,1.51981 0,0.0573 0.23468,0.1413 0.5209,0.18707 0.86466,0.13826 2.90351,0.85127 3.48609,1.21905 0.30089,0.18993 0.61635,0.50853 0.70125,0.70796 0.0849,0.19943 0.24123,0.46667 0.34727,0.59376 0.2357,0.28249 0.21167,0.29307 -1.17977,0.50798 -0.67064,0.10359 -1.67554,0.43753 -3.03703,1.01028 -1.11909,0.47078 -2.47242,0.99939 -3.00705,1.1746 -1.16277,0.38107 -2.02706,0.49371 -2.5864,0.33642 -0.95332,-0.26809 -2.01561,-1.87872 -2.51613,-3.81424 -0.367,-1.4192 -0.46069,-1.32995 1.50379,-1.42937 2.48828,-0.12594 2.9438,-0.24267 4.49843,-1.15135 1.66638,-0.97401 2.39006,-1.26601 3.807,-1.53479 0.67432,-0.12792 1.28404,-0.19378 1.82625,-0.19792 z m -9.88571,9.8857 c 0.28051,0.004 2.79533,0.20722 5.58829,0.45165 l 5.07825,0.44442 -2.53938,-0.0134 c -1.39649,-0.007 -3.89219,-0.0454 -5.54592,-0.0842 l -3.00653,-0.0708 -0.0424,-0.36742 c -0.0397,-0.34511 -0.0113,-0.36685 0.46767,-0.36018 z m -0.52193,1.48983 c 0.20908,-0.033 9.27042,0.94569 10.11928,1.09296 0.75019,0.13014 -1.54319,0.0127 -5.54591,-0.28371 -3.72126,-0.27557 -4.50614,-0.36827 -4.65088,-0.55035 -0.14809,-0.18629 -0.13644,-0.22512 0.0775,-0.2589 z m -0.6537,1.07694 c 0.0307,-0.004 0.0686,0.002 0.11523,0.0155 4.13339,1.20665 10.80555,3.19811 10.84689,3.23753 0.12787,0.12192 -0.57481,-0.03 -5.66839,-1.22577 -2.93997,-0.69017 -5.36012,-1.25622 -5.37848,-1.2578 -0.0184,-0.002 -0.0336,-0.18693 -0.0336,-0.41238 0,-0.24547 0.0263,-0.34537 0.11834,-0.35708 z"
       id="path2404" />
  </g>
  <g
     inkscape:groupmode="layer"
     id="layer25"
     inkscape:label="5"
     style="display:none"
     transform="translate(0,-198)">
    <path
       style="opacity:1;fill:#9400d3;fill-opacity:1;fill-rule:nonzero;stroke:none;stroke-width:0.35714287;stroke-linecap:round;stroke-linejoin:round;stroke-miterlimit:4;stroke-dasharray:none;stroke-dashoffset:0;stroke-opacity:1"
       d="m 116.6699,168.84886 c -0.3785,-1.0235 -0.98105,-2.84702 -1.33899,-4.05227 l -0.65079,-2.19136 4.65631,-2.63402 c 5.02775,-2.84415 6.54625,-3.63924 7.60508,-3.98203 0.3745,-0.12124 0.87833,-0.43059 1.11962,-0.68743 0.50046,-0.53272 0.7508,-0.5939 0.7508,-0.1835 0,0.46336 0.36324,0.32857 1.27328,-0.47247 0.88842,-0.78203 1.18357,-0.91519 1.18357,-0.53402 0,0.12206 0.19683,0.037 0.4374,-0.18899 0.54532,-0.5123 0.69652,-0.51694 0.69652,-0.0213 0,0.40816 -4.15189,5.86834 -6.31422,8.30387 -0.69212,0.77958 -1.65422,2.00016 -2.13799,2.71241 -0.48377,0.71224 -1.40319,1.75756 -2.04317,2.32291 -1.25655,1.11006 -4.27413,3.46398 -4.44471,3.46718 -0.0575,0.001 -0.41421,-0.83544 -0.79271,-1.85893 z"
       id="path2388"
       inkscape:connector-curvature="0" />
  </g>
  <g
     inkscape:groupmode="layer"
     id="layer24"
     inkscape:label="4"
     style="display:none"
     transform="translate(0,-198)">
    <path
       style="opacity:1;fill:#191970;fill-opacity:1;fill-rule:nonzero;stroke:none;stroke-width:0.35714287;stroke-linecap:round;stroke-linejoin:round;stroke-miterlimit:4;stroke-dasharray:none;stroke-dashoffset:0;stroke-opacity:1"
       d="m 116.33817,180.22144 c -2.6e-4,-0.0862 0.48367,-1.7199 1.07548,-3.63039 1.11288,-3.59264 2.23062,-6.16476 2.67895,-6.16476 0.44274,0 3.48452,-3.29506 5.32109,-5.76414 0.96645,-1.2993 2.82804,-3.61904 4.13686,-5.15499 2.94911,-3.46088 3.18645,-3.79544 4.37086,-6.16133 0.52668,-1.05207 1.03664,-1.91285 1.13324,-1.91285 0.0966,0 0.37912,0.4004 0.62782,0.88977 l 0.4522,0.88976 0.39917,-0.78244 c 0.77583,-1.52076 1.07126,-1.3335 0.83121,0.52686 -0.15546,1.20476 -0.14419,1.3212 0.0974,1.00595 0.52611,-0.68662 0.97963,-1.8747 0.98374,-2.57715 0.005,-0.88155 0.19721,-0.89232 0.84178,-0.0472 0.27749,0.3638 0.65942,0.66145 0.84873,0.66145 0.37823,0 0.47477,-0.38629 0.69817,-2.79353 0.0702,-0.75687 0.19517,-1.41782 0.27764,-1.46879 0.0825,-0.051 0.43144,0.079 0.7755,0.28874 0.34407,0.20977 0.80352,0.38172 1.021,0.3821 0.30804,5.3e-4 0.54816,0.32621 1.08668,1.47376 0.99772,2.12611 0.91284,3.25078 -0.5266,6.97797 -0.35712,0.92471 -0.71069,2.14397 -0.78571,2.70948 -0.11852,0.89344 -0.42183,1.45654 -2.31439,4.2966 l -2.17799,3.26842 -2.7524,-0.11583 c -2.9799,-0.12541 -3.59453,-0.0191 -6.65975,1.15222 l -1.28981,0.49286 0,2.26376 c 0,1.24507 -0.0871,2.42647 -0.19352,2.62535 -0.11117,0.20772 -0.62428,0.48682 -1.20578,0.65586 -0.55674,0.16185 -2.12283,0.84284 -3.48019,1.51332 -2.57736,1.2731 -2.96951,1.60987 -3.80011,3.26338 -0.22401,0.44595 -0.59516,0.8816 -0.82478,0.96811 -0.74892,0.28216 -1.64591,0.42801 -1.64647,0.26772 z"
       id="path2386"
       inkscape:connector-curvature="0" />
  </g>
  <g
     inkscape:groupmode="layer"
     id="layer21"
     inkscape:label="2"
     style="display:none"
     transform="translate(0,-198)">
    <path
       style="opacity:1;fill:#ff0000;fill-opacity:1;fill-rule:nonzero;stroke:none;stroke-width:0.35714287;stroke-linecap:round;stroke-linejoin:round;stroke-miterlimit:4;stroke-dasharray:none;stroke-dashoffset:0;stroke-opacity:1"
       d="m 125.77062,209.85283 c -0.46211,-0.2939 -1.17171,-0.94016 -1.57688,-1.43612 -0.99058,-1.21252 -1.08709,-1.30003 -4.55498,-4.13017 -1.6631,-1.35726 -3.12845,-2.56102 -3.25634,-2.67504 -0.17807,-0.15876 0.1096,-0.56106 1.22843,-1.71795 2.01628,-2.08487 3.31416,-3.85215 4.29902,-5.85382 1.0199,-2.07291 1.23037,-3.35341 1.04283,-6.34469 -0.15381,-2.45332 -0.58034,-3.68032 -1.79436,-5.16188 -0.74343,-0.90725 -0.79943,-1.06114 -0.3862,-1.06114 0.41871,0 1.65469,1.18468 2.46797,2.36553 0.39254,0.56994 0.73524,1.03626 0.76155,1.03626 0.15392,0 -0.42308,-1.58128 -0.91897,-2.51846 -0.67116,-1.26844 -1.72717,-2.24965 -2.90542,-2.69962 -0.4521,-0.17266 -0.822,-0.38717 -0.822,-0.4767 0,-0.41311 1.39941,-1.67298 1.97906,-1.78172 0.58871,-0.11045 0.72735,-0.0124 2.60461,1.84226 1.94827,1.9248 2.74994,3.10058 3.45357,5.06525 0.20365,0.56862 0.25847,0.61218 0.38343,0.30465 0.0802,-0.19736 0.0648,-0.94527 -0.0343,-1.66203 -0.0991,-0.71675 -0.15101,-1.33229 -0.11544,-1.36787 0.0356,-0.0356 0.67673,0.0943 1.42479,0.28862 1.7099,0.44417 2.77751,0.47122 2.77751,0.0704 0,-0.15918 -0.14883,-0.34004 -0.33073,-0.40192 -1.24387,-0.42313 -4.02892,-1.5736 -5.6224,-2.32254 -1.82333,-0.85698 -2.55558,-1.3801 -2.22115,-1.5868 0.20807,-0.12859 4.24832,0.34455 7.10671,0.83223 1.23621,0.21092 2.28277,0.34838 2.32568,0.30547 0.0429,-0.0429 -0.9655,-0.42567 -2.24092,-0.85056 -1.27542,-0.42489 -2.35182,-0.87116 -2.39201,-0.99171 -0.0895,-0.26838 2.73839,-0.087 4.87356,0.31257 0.77233,0.14454 1.43347,0.23358 1.46919,0.19786 0.14858,-0.14858 -2.81436,-1.0945 -4.02279,-1.28427 -0.7246,-0.11379 -2.29745,-0.16049 -3.5281,-0.10475 -2.19548,0.0994 -2.75957,-0.0462 -1.71583,-0.44303 0.27763,-0.10556 1.34077,-0.66526 2.36254,-1.24379 1.02177,-0.57853 2.60182,-1.29474 3.51122,-1.59157 0.9094,-0.29683 1.58875,-0.54295 1.50968,-0.54692 -0.0791,-0.004 -0.96102,0.12428 -1.95987,0.28502 -2.43757,0.39224 -2.54007,0.23751 -0.67221,-1.01478 3.10695,-2.08302 5.50068,-2.97422 7.58758,-2.82491 l 1.27823,0.0915 0.51568,-1.05958 c 0.55245,-1.13515 3.0671,-5.628 3.37003,-6.02114 0.13879,-0.18012 0.35193,-0.0838 0.88986,0.4022 0.38904,0.35147 1.63429,1.27996 2.76722,2.06329 1.13293,0.78334 2.20397,1.58348 2.38009,1.77809 0.88915,0.98249 1.16102,3.1032 0.62581,4.88156 l -0.27578,0.91636 0.88999,1.02204 c 1.60801,1.84656 3.28445,4.08713 3.76133,5.02702 1.17095,2.30786 0.65534,4.39721 -2.28779,9.27067 -0.64772,1.07255 -0.67683,1.19539 -0.64921,2.74033 0.0329,1.83811 0.0284,1.85113 -2.38069,6.87711 -1.1609,2.42199 -1.61504,3.16813 -2.38437,3.91748 -1.74877,1.70336 -5.68987,3.29305 -9.38211,3.78439 -1.59365,0.21208 -4.40583,0.14662 -5.30863,-0.12356 l -0.43366,-0.12979 0.36225,0.92195 c 0.19923,0.50706 0.418,1.05318 0.48614,1.21359 0.0807,0.18992 -0.2528,0.77645 -0.95601,1.68148 -0.90624,1.16632 -1.2711,1.47652 -2.26893,1.92895 -1.48978,0.6755 -2.04153,0.67635 -3.09747,0.005 z m 14.44555,-9.45858 c 1.51046,-0.74577 3.23851,-2.16054 4.00586,-3.27963 0.33711,-0.49163 0.88769,-1.72478 1.22352,-2.74033 0.8019,-2.42497 1.69248,-4.17581 3.56553,-7.00965 1.60995,-2.4358 1.9452,-3.28654 2.17314,-5.51464 l 0.12568,-1.22842 -0.8118,1.5119 c -1.21213,2.2575 -1.9203,3.18923 -3.17066,4.17156 -2.09119,1.64294 -2.64879,2.67986 -2.83653,5.27489 -0.15442,2.13441 -0.53613,3.12146 -1.53078,3.9584 -2.14461,1.80457 -5.61801,2.51216 -13.3995,2.72971 l -4.44122,0.12416 2.36235,0.7852 c 4.44637,1.47789 7.07979,1.97819 9.80509,1.86279 1.50104,-0.0636 1.95051,-0.16267 2.92932,-0.64594 z"
       id="path2380"
       inkscape:connector-curvature="0" />
  </g>
  <g
     inkscape:groupmode="layer"
     id="layer23"
     inkscape:label="3"
     style="display:none"
     transform="translate(0,-198)">
    <path
       style="opacity:1;fill:#00ffff;fill-opacity:1;fill-rule:nonzero;stroke:none;stroke-width:0.25253814;stroke-linecap:round;stroke-linejoin:round;stroke-miterlimit:4;stroke-dasharray:none;stroke-dashoffset:0;stroke-opacity:1"
       d="m 106.55755,181.07561 c -1.81082,-0.19392 -5.10995,-0.98506 -5.99825,-1.43839 -0.884985,-0.45164 -1.292266,-0.9438 -1.837453,-2.22039 -0.438076,-1.02579 -0.491363,-1.2897 -0.598601,-2.96468 -0.131371,-2.05189 -0.272119,-2.82723 -0.646406,-3.5609 -0.647415,-1.26904 -2.154069,-2.62528 -4.10572,-3.69585 -1.755217,-0.96281 -2.722388,-1.64162 -4.031887,-2.8298 l -1.060969,-0.96266 0.239607,0.9315 c 0.208097,0.80901 0.213325,0.9315 0.03976,0.9315 -0.354327,0 -4.010445,-0.91561 -5.051269,-1.26501 -1.796057,-0.60291 -2.615067,-1.40075 -2.816849,-2.74403 -0.162478,-1.08163 -2.686222,-5.15753 -3.717288,-6.00349 -0.210746,-0.17292 -0.225086,-0.16066 -0.156289,0.13363 0.04166,0.17821 0.158371,0.72993 0.259355,1.22605 0.171984,0.84493 0.168529,0.90203 -0.0546,0.90203 -0.391022,0 -4.697159,-1.45054 -5.274998,-1.77691 -1.319627,-0.74533 -2.426694,-4.02695 -1.942237,-5.75725 0.09182,-0.32793 0.34048,-0.77375 0.552591,-0.9907 l 0.385651,-0.39445 -0.898554,-0.51824 c -1.196814,-0.69025 -2.306944,-1.75753 -2.306944,-2.21789 0,-1.81181 1.650074,-5.802 3.516944,-8.50464 0.585425,-0.84751 1.022223,-1.24724 3.159173,-2.89107 l 2.479818,-1.90757 0.598636,-1.18063 c 0.48273,-0.95205 0.861917,-1.45168 1.958478,-2.58059 1.156435,-1.19054 1.39034,-1.37464 1.563729,-1.23074 0.175033,0.14526 0.226124,0.0875 0.361009,-0.40828 0.08642,-0.31762 0.178432,-0.65265 0.20448,-0.74453 0.02604,-0.0919 0.168847,-0.16704 0.317331,-0.16704 0.202488,0 0.401214,0.25889 0.794991,1.03567 0.92021,1.81524 0.938352,1.8146 0.946634,-0.0334 0.0058,-1.28775 0.05796,-1.71549 0.264985,-2.17157 0.141791,-0.31237 0.311952,-0.56794 0.378138,-0.56794 0.06619,0 0.155366,0.82686 0.198175,1.83748 0.08066,1.90403 0.278239,3.17139 0.847169,5.43406 0.388549,1.54528 0.562391,1.92013 1.152449,2.48497 0.804759,0.77035 2.488806,1.46349 3.564752,1.46722 l 0.457608,0.002 -0.315971,0.33633 c -0.750152,0.7985 -1.880891,0.73784 -2.926305,-0.157 l -0.577723,-0.49451 0.221065,0.4275 c 0.243599,0.47106 0.905084,0.99501 2.194367,1.73811 0.654692,0.37734 0.782931,0.49797 0.564827,0.53129 -0.155192,0.0237 -0.574792,-0.0541 -0.932442,-0.17287 -0.65128,-0.21633 -1.346446,-0.84614 -2.585548,-2.34249 l -0.497975,-0.60135 0.631288,1.20271 c 0.439568,0.83746 0.907304,1.48214 1.540155,2.1228 0.499878,0.50604 0.881137,0.94781 0.847246,0.9817 -0.111162,0.11116 -1.668311,-0.7904 -2.115444,-1.2248 -0.240493,-0.23364 -1.083717,-1.56352 -1.873832,-2.95529 l -1.436574,-2.5305 0,1.23953 c 0,1.45683 0.132734,1.7824 1.529853,3.75234 0.488426,0.68868 0.858853,1.28135 0.823166,1.31704 -0.03569,0.0357 -0.420272,-0.20859 -0.854638,-0.54282 -0.765776,-0.58925 -0.821032,-0.67573 -1.81958,-2.84777 -0.566401,-1.23204 -1.311174,-2.89223 -1.655053,-3.6893 -0.343879,-0.79707 -0.642837,-1.39642 -0.66435,-1.33188 -0.07144,0.21431 0.873167,3.28314 1.424876,4.62914 1.576885,3.84711 3.356872,5.64477 5.740747,5.79776 0.869402,0.0558 0.967081,0.0869 0.756372,0.24099 -0.133077,0.0973 -0.699304,0.33205 -1.258284,0.52165 -0.55898,0.1896 -1.617684,0.64251 -2.352675,1.00647 l -1.336347,0.66173 0.801809,-0.068 c 0.440994,-0.0374 1.463299,-0.1302 2.271789,-0.2062 2.430214,-0.22844 5.600843,-0.20107 6.68174,0.0577 0.902079,0.21594 2.478567,0.97117 2.564331,1.22846 0.02291,0.0688 -0.242411,0.27528 -0.589626,0.45892 -0.879449,0.46513 -2.067872,1.66788 -2.510057,2.54032 -0.470295,0.92789 -0.961975,2.36613 -1.061257,3.10436 l -0.07655,0.56914 1.293357,0.93544 c 1.565556,1.13232 3.276063,2.71389 3.552542,3.28475 0.111419,0.23006 0.170979,0.53912 0.132356,0.68682 -0.0845,0.32314 -1.000345,0.76545 -1.593369,0.76953 -0.234535,0.002 -0.45942,0.0563 -0.499745,0.12157 -0.04032,0.0652 0.407808,1.01238 0.995849,2.10475 1.335461,2.48079 1.702298,3.42928 2.396194,6.19561 0.540769,2.15586 1.622936,7.66436 2.093066,10.65424 0.129746,0.82514 0.256241,1.47992 0.281111,1.45505 0.10235,-0.10235 -0.403018,-4.63657 -0.843247,-7.56571 -0.924881,-6.15383 -1.2763,-7.47839 -2.77762,-10.46933 -0.522304,-1.04054 -0.969076,-1.93362 -0.992831,-1.98463 -0.02376,-0.051 0.195102,-0.15692 0.486339,-0.23534 1.37391,-0.36995 2.255578,-0.96993 2.105819,-1.433 -0.0433,-0.13389 -1.244103,-1.36855 -2.66845,-2.74369 L 92.825744,150.3101 92.990812,149.6 c 0.09079,-0.39056 0.260877,-0.89538 0.377976,-1.12182 0.351332,-0.6794 1.60374,-1.71243 2.856198,-2.35588 2.15492,-1.10709 4.384094,-1.66358 6.951514,-1.73537 1.13048,-0.0316 1.23546,-0.0129 1.30521,0.23289 0.0417,0.147 0.25636,0.94736 0.47698,1.77859 0.38873,1.46457 0.95885,2.76785 1.99879,4.56906 0.35601,0.61663 0.52781,1.10124 0.59219,1.67044 0.0499,0.44099 0.23606,1.70932 0.41372,2.8185 0.44198,2.75937 0.52409,4.23947 0.34383,6.19821 -0.13176,1.43175 -0.22089,1.81808 -0.63201,2.73951 -1.25689,2.81704 -1.5397,4.01776 -1.54313,6.55174 -0.003,1.92291 0.19816,3.36314 0.89846,6.44535 0.25434,1.11947 0.46245,2.27316 0.46245,2.56377 0,0.5751 -0.19899,1.22668 -0.36419,1.19255 -0.0569,-0.0117 -0.31401,-0.0439 -0.57125,-0.0715 z M 84.649556,160.121 c 0.277257,-0.82441 0.219713,-2.38429 -0.130431,-3.53556 -0.913445,-3.00341 -3.03098,-5.6717 -5.415558,-6.82409 -1.130959,-0.54655 -2.481078,-0.92718 -3.300603,-0.93051 l -0.48631,-0.002 2.159304,2.17157 c 1.187618,1.19436 2.587224,2.68271 3.110241,3.30746 1.840781,2.19881 3.213622,4.68132 3.467794,6.27083 0.07791,0.48722 0.108003,0.52482 0.252129,0.31503 0.09001,-0.13101 0.24456,-0.47876 0.343434,-0.77275 z"
       id="path2398"
       inkscape:connector-curvature="0" />
  </g>
  <g
     inkscape:groupmode="layer"
     id="layer22"
     inkscape:label="1"
     style="display:none"
     transform="translate(0,-198)" />
</svg>
